<?xml version="1.0" encoding="UTF-8" standalone="no"?>
<svg
   xmlns:dc="http://purl.org/dc/elements/1.1/"
   xmlns:cc="http://creativecommons.org/ns#"
   xmlns:rdf="http://www.w3.org/1999/02/22-rdf-syntax-ns#"
   xmlns:svg="http://www.w3.org/2000/svg"
   xmlns="http://www.w3.org/2000/svg"
   viewBox="0 0 604.4129 446.92349"
   height="446.92349"
   width="604.4129"
   xml:space="preserve"
   id="svg2"
   version="1.1"><metadata
     id="metadata8"><rdf:RDF><cc:Work
         rdf:about=""><dc:format>image/svg+xml</dc:format><dc:type
           rdf:resource="http://purl.org/dc/dcmitype/StillImage" /></cc:Work></rdf:RDF></metadata><defs
     id="defs6"><clipPath
       id="clipPath22"
       clipPathUnits="userSpaceOnUse"><path
         id="path20"
         d="M 47.95,38.871875 H 442.93 V 311.99262 H 47.95 Z" /></clipPath><clipPath
       id="clipPath32"
       clipPathUnits="userSpaceOnUse"><path
         id="path30"
         d="M 47.95,38.871875 H 442.93 V 311.99262 H 47.95 Z" /></clipPath><clipPath
       id="clipPath42"
       clipPathUnits="userSpaceOnUse"><path
         id="path40"
         d="M 47.95,38.871875 H 442.93 V 311.99262 H 47.95 Z" /></clipPath><clipPath
       id="clipPath52"
       clipPathUnits="userSpaceOnUse"><path
         id="path50"
         d="M 47.95,38.871875 H 442.93 V 311.99262 H 47.95 Z" /></clipPath><clipPath
       id="clipPath62"
       clipPathUnits="userSpaceOnUse"><path
         id="path60"
         d="M 47.95,38.871875 H 442.93 V 311.99262 H 47.95 Z" /></clipPath><clipPath
       id="clipPath72"
       clipPathUnits="userSpaceOnUse"><path
         id="path70"
         d="M 47.95,38.871875 H 442.93 V 311.99262 H 47.95 Z" /></clipPath><clipPath
       id="clipPath82"
       clipPathUnits="userSpaceOnUse"><path
         id="path80"
         d="M 47.95,38.871875 H 442.93 V 311.99262 H 47.95 Z" /></clipPath><clipPath
       id="clipPath92"
       clipPathUnits="userSpaceOnUse"><path
         id="path90"
         d="M 47.95,38.871875 H 442.93 V 311.99262 H 47.95 Z" /></clipPath><clipPath
       id="clipPath102"
       clipPathUnits="userSpaceOnUse"><path
         id="path100"
         d="M 47.95,38.871875 H 442.93 V 311.99262 H 47.95 Z" /></clipPath><clipPath
       id="clipPath112"
       clipPathUnits="userSpaceOnUse"><path
         id="path110"
         d="M 47.95,38.871875 H 442.93 V 311.99262 H 47.95 Z" /></clipPath><clipPath
       id="clipPath122"
       clipPathUnits="userSpaceOnUse"><path
         id="path120"
         d="M 47.95,38.871875 H 442.93 V 311.99262 H 47.95 Z" /></clipPath><clipPath
       id="clipPath132"
       clipPathUnits="userSpaceOnUse"><path
         id="path130"
         d="M 47.95,38.871875 H 442.93 V 311.99262 H 47.95 Z" /></clipPath><clipPath
       id="clipPath142"
       clipPathUnits="userSpaceOnUse"><path
         id="path140"
         d="M 47.95,38.871875 H 442.93 V 311.99262 H 47.95 Z" /></clipPath><clipPath
       id="clipPath152"
       clipPathUnits="userSpaceOnUse"><path
         id="path150"
         d="M 47.95,38.871875 H 442.93 V 311.99262 H 47.95 Z" /></clipPath><clipPath
       id="clipPath162"
       clipPathUnits="userSpaceOnUse"><path
         id="path160"
         d="M 47.95,38.871875 H 442.93 V 311.99262 H 47.95 Z" /></clipPath><clipPath
       id="clipPath172"
       clipPathUnits="userSpaceOnUse"><path
         id="path170"
         d="M 47.95,38.871875 H 442.93 V 311.99262 H 47.95 Z" /></clipPath><clipPath
       id="clipPath182"
       clipPathUnits="userSpaceOnUse"><path
         id="path180"
         d="M 47.95,38.871875 H 442.93 V 311.99262 H 47.95 Z" /></clipPath><clipPath
       id="clipPath192"
       clipPathUnits="userSpaceOnUse"><path
         id="path190"
         d="M 47.95,38.871875 H 442.93 V 311.99262 H 47.95 Z" /></clipPath><clipPath
       id="clipPath202"
       clipPathUnits="userSpaceOnUse"><path
         id="path200"
         d="M 47.95,38.871875 H 442.93 V 311.99262 H 47.95 Z" /></clipPath><clipPath
       id="clipPath212"
       clipPathUnits="userSpaceOnUse"><path
         id="path210"
         d="M 47.95,38.871875 H 442.93 V 311.99262 H 47.95 Z" /></clipPath><clipPath
       id="clipPath222"
       clipPathUnits="userSpaceOnUse"><path
         id="path220"
         d="M 47.95,38.871875 H 442.93 V 311.99262 H 47.95 Z" /></clipPath><clipPath
       id="clipPath232"
       clipPathUnits="userSpaceOnUse"><path
         id="path230"
         d="M 47.95,38.871875 H 442.93 V 311.99262 H 47.95 Z" /></clipPath><clipPath
       id="clipPath242"
       clipPathUnits="userSpaceOnUse"><path
         id="path240"
         d="M 47.95,38.871875 H 442.93 V 311.99262 H 47.95 Z" /></clipPath><clipPath
       id="clipPath252"
       clipPathUnits="userSpaceOnUse"><path
         id="path250"
         d="M 47.95,38.871875 H 442.93 V 311.99262 H 47.95 Z" /></clipPath><clipPath
       id="clipPath262"
       clipPathUnits="userSpaceOnUse"><path
         id="path260"
         d="M 47.95,38.871875 H 442.93 V 311.99262 H 47.95 Z" /></clipPath><clipPath
       id="clipPath272"
       clipPathUnits="userSpaceOnUse"><path
         id="path270"
         d="M 47.95,38.871875 H 442.93 V 311.99262 H 47.95 Z" /></clipPath><clipPath
       id="clipPath282"
       clipPathUnits="userSpaceOnUse"><path
         id="path280"
         d="M 47.95,38.871875 H 442.93 V 311.99262 H 47.95 Z" /></clipPath><clipPath
       id="clipPath292"
       clipPathUnits="userSpaceOnUse"><path
         id="path290"
         d="M 47.95,38.871875 H 442.93 V 311.99262 H 47.95 Z" /></clipPath><clipPath
       id="clipPath302"
       clipPathUnits="userSpaceOnUse"><path
         id="path300"
         d="M 47.95,38.871875 H 442.93 V 311.99262 H 47.95 Z" /></clipPath><clipPath
       id="clipPath312"
       clipPathUnits="userSpaceOnUse"><path
         id="path310"
         d="M 47.95,38.871875 H 442.93 V 311.99262 H 47.95 Z" /></clipPath><clipPath
       id="clipPath322"
       clipPathUnits="userSpaceOnUse"><path
         id="path320"
         d="M 47.95,38.871875 H 442.93 V 311.99262 H 47.95 Z" /></clipPath><clipPath
       id="clipPath332"
       clipPathUnits="userSpaceOnUse"><path
         id="path330"
         d="M 47.95,38.871875 H 442.93 V 311.99262 H 47.95 Z" /></clipPath><clipPath
       id="clipPath342"
       clipPathUnits="userSpaceOnUse"><path
         id="path340"
         d="M 47.95,38.871875 H 442.93 V 311.99262 H 47.95 Z" /></clipPath><clipPath
       id="clipPath352"
       clipPathUnits="userSpaceOnUse"><path
         id="path350"
         d="M 47.95,38.871875 H 442.93 V 311.99262 H 47.95 Z" /></clipPath><clipPath
       id="clipPath362"
       clipPathUnits="userSpaceOnUse"><path
         id="path360"
         d="M 47.95,38.871875 H 442.93 V 311.99262 H 47.95 Z" /></clipPath><clipPath
       id="clipPath372"
       clipPathUnits="userSpaceOnUse"><path
         id="path370"
         d="M 47.95,38.871875 H 442.93 V 311.99262 H 47.95 Z" /></clipPath><clipPath
       id="clipPath382"
       clipPathUnits="userSpaceOnUse"><path
         id="path380"
         d="M 47.95,38.871875 H 442.93 V 311.99262 H 47.95 Z" /></clipPath><clipPath
       id="clipPath392"
       clipPathUnits="userSpaceOnUse"><path
         id="path390"
         d="M 47.95,38.871875 H 442.93 V 311.99262 H 47.95 Z" /></clipPath><clipPath
       id="clipPath402"
       clipPathUnits="userSpaceOnUse"><path
         id="path400"
         d="M 47.95,38.871875 H 442.93 V 311.99262 H 47.95 Z" /></clipPath><clipPath
       id="clipPath412"
       clipPathUnits="userSpaceOnUse"><path
         id="path410"
         d="M 47.95,38.871875 H 442.93 V 311.99262 H 47.95 Z" /></clipPath><clipPath
       id="clipPath422"
       clipPathUnits="userSpaceOnUse"><path
         id="path420"
         d="M 47.95,38.871875 H 442.93 V 311.99262 H 47.95 Z" /></clipPath><clipPath
       id="clipPath432"
       clipPathUnits="userSpaceOnUse"><path
         id="path430"
         d="M 47.95,38.871875 H 442.93 V 311.99262 H 47.95 Z" /></clipPath><clipPath
       id="clipPath442"
       clipPathUnits="userSpaceOnUse"><path
         id="path440"
         d="M 47.95,38.871875 H 442.93 V 311.99262 H 47.95 Z" /></clipPath><clipPath
       id="clipPath452"
       clipPathUnits="userSpaceOnUse"><path
         id="path450"
         d="M 47.95,38.871875 H 442.93 V 311.99262 H 47.95 Z" /></clipPath><clipPath
       id="clipPath462"
       clipPathUnits="userSpaceOnUse"><path
         id="path460"
         d="M 47.95,38.871875 H 442.93 V 311.99262 H 47.95 Z" /></clipPath><clipPath
       id="clipPath472"
       clipPathUnits="userSpaceOnUse"><path
         id="path470"
         d="M 47.95,38.871875 H 442.93 V 311.99262 H 47.95 Z" /></clipPath><clipPath
       id="clipPath482"
       clipPathUnits="userSpaceOnUse"><path
         id="path480"
         d="M 47.95,38.871875 H 442.93 V 311.99262 H 47.95 Z" /></clipPath><clipPath
       id="clipPath492"
       clipPathUnits="userSpaceOnUse"><path
         id="path490"
         d="M 47.95,38.871875 H 442.93 V 311.99262 H 47.95 Z" /></clipPath><clipPath
       id="clipPath502"
       clipPathUnits="userSpaceOnUse"><path
         id="path500"
         d="M 47.95,38.871875 H 442.93 V 311.99262 H 47.95 Z" /></clipPath><clipPath
       id="clipPath512"
       clipPathUnits="userSpaceOnUse"><path
         id="path510"
         d="M 47.95,38.871875 H 442.93 V 311.99262 H 47.95 Z" /></clipPath><clipPath
       id="clipPath622"
       clipPathUnits="userSpaceOnUse"><path
         id="path620"
         d="M 47.95,38.871875 H 442.93 V 311.99262 H 47.95 Z" /></clipPath><clipPath
       id="clipPath632"
       clipPathUnits="userSpaceOnUse"><path
         id="path630"
         d="M 47.95,38.871875 H 442.93 V 311.99262 H 47.95 Z" /></clipPath><clipPath
       id="clipPath642"
       clipPathUnits="userSpaceOnUse"><path
         id="path640"
         d="M 47.95,38.871875 H 442.93 V 311.99262 H 47.95 Z" /></clipPath></defs><g
     transform="matrix(1.3333333,0,0,-1.3333333,0,446.9235)"
     id="g10"><path
       id="path12"
       style="fill:#ffffff;fill-opacity:1;fill-rule:nonzero;stroke:none"
       d="M 0,0 H 453.30969 V 335.19263 H 0 Z" /><path
       id="path14"
       style="fill:#ffffff;fill-opacity:1;fill-rule:nonzero;stroke:none"
       d="M 47.95,38.871875 H 442.93 V 311.99262 H 47.95 Z" /><g
       id="g16"><g
         clip-path="url(#clipPath22)"
         id="g18"><path
           id="path24"
           style="fill:#808080;fill-opacity:1;fill-rule:nonzero;stroke:none"
           d="m 48.73996,38.871875 h 6.31968 V 298.98687 h -6.31968 z" /></g></g><g
       id="g26"><g
         clip-path="url(#clipPath32)"
         id="g28"><path
           id="path34"
           style="fill:#808080;fill-opacity:1;fill-rule:nonzero;stroke:none"
           d="m 56.63956,38.871875 h 6.31968 v 47.399693 h -6.31968 z" /></g></g><g
       id="g36"><g
         clip-path="url(#clipPath42)"
         id="g38"><path
           id="path44"
           style="fill:#808080;fill-opacity:1;fill-rule:nonzero;stroke:none"
           d="m 64.53916,38.871875 h 6.31968 v 36.451983 h -6.31968 z" /></g></g><g
       id="g46"><g
         clip-path="url(#clipPath52)"
         id="g48"><path
           id="path54"
           style="fill:#808080;fill-opacity:1;fill-rule:nonzero;stroke:none"
           d="m 72.43876,38.871875 h 6.31968 v 17.784527 h -6.31968 z" /></g></g><g
       id="g56"><g
         clip-path="url(#clipPath62)"
         id="g58"><path
           id="path64"
           style="fill:#808080;fill-opacity:1;fill-rule:nonzero;stroke:none"
           d="m 80.33836,38.871875 h 6.31968 v 3.739157 h -6.31968 z" /></g></g><g
       id="g66"><g
         clip-path="url(#clipPath72)"
         id="g68"><path
           id="path74"
           style="fill:#808080;fill-opacity:1;fill-rule:nonzero;stroke:none"
           d="m 88.23796,38.871875 h 6.31968 v 6.913331 h -6.31968 z" /></g></g><g
       id="g76"><g
         clip-path="url(#clipPath82)"
         id="g78"><path
           id="path84"
           style="fill:#808080;fill-opacity:1;fill-rule:nonzero;stroke:none"
           d="m 96.13756,38.871875 h 6.31968 v 11.322276 h -6.31968 z" /></g></g><g
       id="g86"><g
         clip-path="url(#clipPath92)"
         id="g88"><path
           id="path94"
           style="fill:#808080;fill-opacity:1;fill-rule:nonzero;stroke:none"
           d="m 104.03716,38.871875 h 6.31968 v 13.161009 h -6.31968 z" /></g></g><g
       id="g96"><g
         clip-path="url(#clipPath102)"
         id="g98"><path
           id="path104"
           style="fill:#808080;fill-opacity:1;fill-rule:nonzero;stroke:none"
           d="m 111.93676,38.871875 h 6.31968 v 31.675563 h -6.31968 z" /></g></g><g
       id="g106"><g
         clip-path="url(#clipPath112)"
         id="g108"><path
           id="path114"
           style="fill:#808080;fill-opacity:1;fill-rule:nonzero;stroke:none"
           d="m 119.83636,38.871875 h 6.31968 v 44.680773 h -6.31968 z" /></g></g><g
       id="g116"><g
         clip-path="url(#clipPath122)"
         id="g118"><path
           id="path124"
           style="fill:#808080;fill-opacity:1;fill-rule:nonzero;stroke:none"
           d="m 127.73596,38.871875 h 6.31968 v 86.325785 h -6.31968 z" /></g></g><g
       id="g126"><g
         clip-path="url(#clipPath132)"
         id="g128"><path
           id="path134"
           style="fill:#808080;fill-opacity:1;fill-rule:nonzero;stroke:none"
           d="m 135.63556,38.871875 h 6.31968 v 73.229945 h -6.31968 z" /></g></g><g
       id="g136"><g
         clip-path="url(#clipPath142)"
         id="g138"><path
           id="path144"
           style="fill:#808080;fill-opacity:1;fill-rule:nonzero;stroke:none"
           d="m 143.53516,38.871875 h 6.31968 v 90.175805 h -6.31968 z" /></g></g><g
       id="g146"><g
         clip-path="url(#clipPath152)"
         id="g148"><path
           id="path154"
           style="fill:#808080;fill-opacity:1;fill-rule:nonzero;stroke:none"
           d="m 151.43476,38.871875 h 6.31968 v 75.056375 h -6.31968 z" /></g></g><g
       id="g156"><g
         clip-path="url(#clipPath162)"
         id="g158"><path
           id="path164"
           style="fill:#808080;fill-opacity:1;fill-rule:nonzero;stroke:none"
           d="m 159.33436,38.871875 h 6.31968 v 69.742465 h -6.31968 z" /></g></g><g
       id="g166"><g
         clip-path="url(#clipPath172)"
         id="g168"><path
           id="path174"
           style="fill:#808080;fill-opacity:1;fill-rule:nonzero;stroke:none"
           d="m 167.23396,38.871875 h 6.31968 v 57.081718 h -6.31968 z" /></g></g><g
       id="g176"><g
         clip-path="url(#clipPath182)"
         id="g178"><path
           id="path184"
           style="fill:#808080;fill-opacity:1;fill-rule:nonzero;stroke:none"
           d="m 175.13356,38.871875 h 6.31968 v 56.272408 h -6.31968 z" /></g></g><g
       id="g186"><g
         clip-path="url(#clipPath192)"
         id="g188"><path
           id="path194"
           style="fill:#808080;fill-opacity:1;fill-rule:nonzero;stroke:none"
           d="m 183.03316,38.871875 h 6.31968 v 55.048466 h -6.31968 z" /></g></g><g
       id="g196"><g
         clip-path="url(#clipPath202)"
         id="g198"><path
           id="path204"
           style="fill:#808080;fill-opacity:1;fill-rule:nonzero;stroke:none"
           d="m 190.93276,38.871875 h 6.31968 v 31.927392 h -6.31968 z" /></g></g><g
       id="g206"><g
         clip-path="url(#clipPath212)"
         id="g208"><path
           id="path214"
           style="fill:#808080;fill-opacity:1;fill-rule:nonzero;stroke:none"
           d="m 198.83236,38.871875 h 6.31968 v 24.448331 h -6.31968 z" /></g></g><g
       id="g216"><g
         clip-path="url(#clipPath222)"
         id="g218"><path
           id="path224"
           style="fill:#808080;fill-opacity:1;fill-rule:nonzero;stroke:none"
           d="m 206.73196,38.871875 h 6.31968 v 24.525032 h -6.31968 z" /></g></g><g
       id="g226"><g
         clip-path="url(#clipPath232)"
         id="g228"><path
           id="path234"
           style="fill:#808080;fill-opacity:1;fill-rule:nonzero;stroke:none"
           d="m 214.63156,38.871875 h 6.31968 v 21.740762 h -6.31968 z" /></g></g><g
       id="g236"><g
         clip-path="url(#clipPath242)"
         id="g238"><path
           id="path244"
           style="fill:#808080;fill-opacity:1;fill-rule:nonzero;stroke:none"
           d="m 222.53116,38.871875 h 6.31968 v 11.463871 h -6.31968 z" /></g></g><g
       id="g246"><g
         clip-path="url(#clipPath252)"
         id="g248"><path
           id="path254"
           style="fill:#808080;fill-opacity:1;fill-rule:nonzero;stroke:none"
           d="m 230.43076,38.871875 h 6.31968 V 57.48137 h -6.31968 z" /></g></g><g
       id="g256"><g
         clip-path="url(#clipPath262)"
         id="g258"><path
           id="path264"
           style="fill:#808080;fill-opacity:1;fill-rule:nonzero;stroke:none"
           d="m 238.33036,38.871875 h 6.31968 v 21.732213 h -6.31968 z" /></g></g><g
       id="g266"><g
         clip-path="url(#clipPath272)"
         id="g268"><path
           id="path274"
           style="fill:#808080;fill-opacity:1;fill-rule:nonzero;stroke:none"
           d="m 246.22996,38.871875 h 6.31968 v 13.669151 h -6.31968 z" /></g></g><g
       id="g276"><g
         clip-path="url(#clipPath282)"
         id="g278"><path
           id="path284"
           style="fill:#808080;fill-opacity:1;fill-rule:nonzero;stroke:none"
           d="m 254.12956,38.871875 h 6.31968 v 15.589407 h -6.31968 z" /></g></g><g
       id="g286"><g
         clip-path="url(#clipPath292)"
         id="g288"><path
           id="path294"
           style="fill:#808080;fill-opacity:1;fill-rule:nonzero;stroke:none"
           d="m 262.02916,38.871875 h 6.31968 v 14.680117 h -6.31968 z" /></g></g><g
       id="g296"><g
         clip-path="url(#clipPath302)"
         id="g298"><path
           id="path304"
           style="fill:#808080;fill-opacity:1;fill-rule:nonzero;stroke:none"
           d="m 269.92876,38.871875 h 6.31968 v 6.385329 h -6.31968 z" /></g></g><g
       id="g306"><g
         clip-path="url(#clipPath312)"
         id="g308"><path
           id="path314"
           style="fill:#808080;fill-opacity:1;fill-rule:nonzero;stroke:none"
           d="m 277.82836,38.871875 h 6.31968 v 0.862882 h -6.31968 z" /></g></g><g
       id="g316"><g
         clip-path="url(#clipPath322)"
         id="g318"><path
           id="path324"
           style="fill:#808080;fill-opacity:1;fill-rule:nonzero;stroke:none"
           d="m 285.72796,38.871875 h 6.31968 v 12.813117 h -6.31968 z" /></g></g><g
       id="g326"><g
         clip-path="url(#clipPath332)"
         id="g328"><path
           id="path334"
           style="fill:#808080;fill-opacity:1;fill-rule:nonzero;stroke:none"
           d="m 293.62756,38.871875 h 6.31968 v 3.451529 h -6.31968 z" /></g></g><g
       id="g336"><g
         clip-path="url(#clipPath342)"
         id="g338"><path
           id="path344"
           style="fill:#808080;fill-opacity:1;fill-rule:nonzero;stroke:none"
           d="m 301.52716,38.871875 h 6.31968 v 3.501269 h -6.31968 z" /></g></g><g
       id="g346"><g
         clip-path="url(#clipPath352)"
         id="g348"><path
           id="path354"
           style="fill:#808080;fill-opacity:1;fill-rule:nonzero;stroke:none"
           d="m 309.42676,38.871875 h 6.31968 v 5.656673 h -6.31968 z" /></g></g><g
       id="g356"><g
         clip-path="url(#clipPath362)"
         id="g358"><path
           id="path364"
           style="fill:#808080;fill-opacity:1;fill-rule:nonzero;stroke:none"
           d="m 317.32636,38.871875 h 6.31968 v 1.157358 h -6.31968 z" /></g></g><g
       id="g366"><g
         clip-path="url(#clipPath372)"
         id="g368"><path
           id="path374"
           style="fill:#808080;fill-opacity:1;fill-rule:nonzero;stroke:none"
           d="m 325.22596,38.871875 h 6.31968 v 5.393014 h -6.31968 z" /></g></g><g
       id="g376"><g
         clip-path="url(#clipPath382)"
         id="g378"><path
           id="path384"
           style="fill:#808080;fill-opacity:1;fill-rule:nonzero;stroke:none"
           d="m 333.12556,38.871875 h 6.31968 v 8.628823 h -6.31968 z" /></g></g><g
       id="g386"><g
         clip-path="url(#clipPath392)"
         id="g388"><path
           id="path394"
           style="fill:#808080;fill-opacity:1;fill-rule:nonzero;stroke:none"
           d="m 341.02516,38.871875 h 6.31968 v 4.542459 h -6.31968 z" /></g></g><g
       id="g396"><g
         clip-path="url(#clipPath402)"
         id="g398"><path
           id="path404"
           style="fill:#808080;fill-opacity:1;fill-rule:nonzero;stroke:none"
           d="m 348.92476,38.871875 h 6.31968 v 1.807944 h -6.31968 z" /></g></g><g
       id="g406"><g
         clip-path="url(#clipPath412)"
         id="g408"><path
           id="path414"
           style="fill:#808080;fill-opacity:1;fill-rule:nonzero;stroke:none"
           d="m 356.82436,38.871875 h 6.31968 v 2.957121 h -6.31968 z" /></g></g><g
       id="g416"><g
         clip-path="url(#clipPath422)"
         id="g418"><path
           id="path424"
           style="fill:#808080;fill-opacity:1;fill-rule:nonzero;stroke:none"
           d="m 364.72396,38.871875 h 6.31968 v 1.979699 h -6.31968 z" /></g></g><g
       id="g426"><g
         clip-path="url(#clipPath432)"
         id="g428"><path
           id="path434"
           style="fill:#808080;fill-opacity:1;fill-rule:nonzero;stroke:none"
           d="m 372.62356,38.871875 h 6.31968 v 4.314411 h -6.31968 z" /></g></g><g
       id="g436"><g
         clip-path="url(#clipPath442)"
         id="g438"><path
           id="path444"
           style="fill:#808080;fill-opacity:1;fill-rule:nonzero;stroke:none"
           d="m 380.52316,38.871875 h 6.31968 v 1.725765 h -6.31968 z" /></g></g><g
       id="g446"><g
         clip-path="url(#clipPath452)"
         id="g448"><path
           id="path454"
           style="fill:#808080;fill-opacity:1;fill-rule:nonzero;stroke:none"
           d="m 388.42276,38.871875 h 6.31968 v 1.725765 h -6.31968 z" /></g></g><g
       id="g456"><g
         clip-path="url(#clipPath462)"
         id="g458"><path
           id="path464"
           style="fill:#808080;fill-opacity:1;fill-rule:nonzero;stroke:none"
           d="m 396.32236,38.871875 h 6.31968 v 0.719069 h -6.31968 z" /></g></g><g
       id="g466"><g
         clip-path="url(#clipPath472)"
         id="g468"><path
           id="path474"
           style="fill:#808080;fill-opacity:1;fill-rule:nonzero;stroke:none"
           d="m 404.22196,38.871875 h 6.31968 v 5.177294 h -6.31968 z" /></g></g><g
       id="g476"><g
         clip-path="url(#clipPath482)"
         id="g478"><path
           id="path484"
           style="fill:#808080;fill-opacity:1;fill-rule:nonzero;stroke:none"
           d="m 412.12156,38.871875 h 6.31968 v 0.575255 h -6.31968 z" /></g></g><g
       id="g486"><g
         clip-path="url(#clipPath492)"
         id="g488"><path
           id="path494"
           style="fill:#808080;fill-opacity:1;fill-rule:nonzero;stroke:none"
           d="m 420.02116,38.871875 h 6.31968 v 0.191752 h -6.31968 z" /></g></g><g
       id="g496"><g
         clip-path="url(#clipPath502)"
         id="g498"><path
           id="path504"
           style="fill:#808080;fill-opacity:1;fill-rule:nonzero;stroke:none"
           d="m 427.92076,38.871875 h 6.31968 v 6.040176 h -6.31968 z" /></g></g><g
       id="g506"><g
         clip-path="url(#clipPath512)"
         id="g508"><path
           id="path514"
           style="fill:#808080;fill-opacity:1;fill-rule:nonzero;stroke:none"
           d="m 435.82036,38.871875 h 6.31968 v 0.862882 h -6.31968 z" /></g></g><g
       id="g516"><path
         id="path518"
         style="fill:#000000;fill-opacity:1;fill-rule:nonzero;stroke:#000000;stroke-width:0.80000001;stroke-linecap:butt;stroke-linejoin:round;stroke-miterlimit:10;stroke-dasharray:none;stroke-opacity:1"
         d="m 47.95,37.871875 v -3.5" /><text
         id="text522"
         style="font-variant:normal;font-weight:normal;font-size:10px;font-family:'DejaVu Sans';-inkscape-font-specification:DejaVuSans;writing-mode:lr-tb;fill:#000000;fill-opacity:1;fill-rule:nonzero;stroke:none"
         transform="matrix(1,0,0,-1,44.770313,23.278125)"><tspan
           id="tspan520"
           y="0"
           x="0">0</tspan></text>
<path
         id="path524"
         style="fill:#000000;fill-opacity:1;fill-rule:nonzero;stroke:#000000;stroke-width:0.80000001;stroke-linecap:butt;stroke-linejoin:round;stroke-miterlimit:10;stroke-dasharray:none;stroke-opacity:1"
         d="m 126.946,37.871875 v -3.5" /><text
         id="text528"
         style="font-variant:normal;font-weight:normal;font-size:10px;font-family:'DejaVu Sans';-inkscape-font-specification:DejaVuSans;writing-mode:lr-tb;fill:#000000;fill-opacity:1;fill-rule:nonzero;stroke:none"
         transform="matrix(1,0,0,-1,123.76631,23.278125)"><tspan
           id="tspan526"
           y="0"
           x="0">1</tspan></text>
<path
         id="path530"
         style="fill:#000000;fill-opacity:1;fill-rule:nonzero;stroke:#000000;stroke-width:0.80000001;stroke-linecap:butt;stroke-linejoin:round;stroke-miterlimit:10;stroke-dasharray:none;stroke-opacity:1"
         d="m 205.942,37.871875 v -3.5" /><text
         id="text534"
         style="font-variant:normal;font-weight:normal;font-size:10px;font-family:'DejaVu Sans';-inkscape-font-specification:DejaVuSans;writing-mode:lr-tb;fill:#000000;fill-opacity:1;fill-rule:nonzero;stroke:none"
         transform="matrix(1,0,0,-1,202.76231,23.278125)"><tspan
           id="tspan532"
           y="0"
           x="0">2</tspan></text>
<path
         id="path536"
         style="fill:#000000;fill-opacity:1;fill-rule:nonzero;stroke:#000000;stroke-width:0.80000001;stroke-linecap:butt;stroke-linejoin:round;stroke-miterlimit:10;stroke-dasharray:none;stroke-opacity:1"
         d="m 284.938,37.871875 v -3.5" /><text
         id="text540"
         style="font-variant:normal;font-weight:normal;font-size:10px;font-family:'DejaVu Sans';-inkscape-font-specification:DejaVuSans;writing-mode:lr-tb;fill:#000000;fill-opacity:1;fill-rule:nonzero;stroke:none"
         transform="matrix(1,0,0,-1,281.75831,23.278125)"><tspan
           id="tspan538"
           y="0"
           x="0">3</tspan></text>
<path
         id="path542"
         style="fill:#000000;fill-opacity:1;fill-rule:nonzero;stroke:#000000;stroke-width:0.80000001;stroke-linecap:butt;stroke-linejoin:round;stroke-miterlimit:10;stroke-dasharray:none;stroke-opacity:1"
         d="m 363.934,37.871875 v -3.5" /><text
         id="text546"
         style="font-variant:normal;font-weight:normal;font-size:10px;font-family:'DejaVu Sans';-inkscape-font-specification:DejaVuSans;writing-mode:lr-tb;fill:#000000;fill-opacity:1;fill-rule:nonzero;stroke:none"
         transform="matrix(1,0,0,-1,360.75431,23.278125)"><tspan
           id="tspan544"
           y="0"
           x="0">4</tspan></text>
<path
         id="path548"
         style="fill:#000000;fill-opacity:1;fill-rule:nonzero;stroke:#000000;stroke-width:0.80000001;stroke-linecap:butt;stroke-linejoin:round;stroke-miterlimit:10;stroke-dasharray:none;stroke-opacity:1"
         d="m 442.93,37.871875 v -3.5" /><text
         id="text552"
         style="font-variant:normal;font-weight:normal;font-size:10px;font-family:'DejaVu Sans';-inkscape-font-specification:DejaVuSans;writing-mode:lr-tb;fill:#000000;fill-opacity:1;fill-rule:nonzero;stroke:none"
         transform="matrix(1,0,0,-1,439.75031,23.278125)"><tspan
           id="tspan550"
           y="0"
           x="0">5</tspan></text>
<g
         transform="translate(239.44,9.278125)"
         id="g554"><text
           id="text558"
           style="font-style:italic;font-variant:normal;font-size:10px;font-family:'DejaVu Sans';-inkscape-font-specification:DejaVuSans-Oblique;writing-mode:lr-tb;fill:#000000;fill-opacity:1;fill-rule:nonzero;stroke:none"
           transform="matrix(1,0,0,-1,0,0.703125)"><tspan
             id="tspan556"
             y="0"
             x="0">K</tspan></text>
<text
           id="text562"
           style="font-variant:normal;font-weight:normal;font-size:7px;font-family:'DejaVu Sans';-inkscape-font-specification:DejaVuSans;writing-mode:lr-tb;fill:#000000;fill-opacity:1;fill-rule:nonzero;stroke:none"
           transform="matrix(1,0,0,-1,6.5576172,-0.9375)"><tspan
             id="tspan560"
             y="0"
             x="0">S</tspan></text>
</g><path
         id="path564"
         style="fill:#000000;fill-opacity:1;fill-rule:nonzero;stroke:#000000;stroke-width:0.80000001;stroke-linecap:butt;stroke-linejoin:round;stroke-miterlimit:10;stroke-dasharray:none;stroke-opacity:1"
         d="m 46.95,38.871875 h -3.5" /><text
         id="text568"
         style="font-variant:normal;font-weight:normal;font-size:10px;font-family:'DejaVu Sans';-inkscape-font-specification:DejaVuSans;writing-mode:lr-tb;fill:#000000;fill-opacity:1;fill-rule:nonzero;stroke:none"
         transform="matrix(1,0,0,-1,33.590625,35.075)"><tspan
           id="tspan566"
           y="0"
           x="0">0</tspan></text>
<path
         id="path570"
         style="fill:#000000;fill-opacity:1;fill-rule:nonzero;stroke:#000000;stroke-width:0.80000001;stroke-linecap:butt;stroke-linejoin:round;stroke-miterlimit:10;stroke-dasharray:none;stroke-opacity:1"
         d="m 46.95,73.387166 h -3.5" /><text
         id="text574"
         style="font-variant:normal;font-weight:normal;font-size:10px;font-family:'DejaVu Sans';-inkscape-font-specification:DejaVuSans;writing-mode:lr-tb;fill:#000000;fill-opacity:1;fill-rule:nonzero;stroke:none"
         transform="matrix(1,0,0,-1,27.23125,69.590291)"><tspan
           id="tspan572"
           y="0"
           x="0 6.3600001">20</tspan></text>
<path
         id="path576"
         style="fill:#000000;fill-opacity:1;fill-rule:nonzero;stroke:#000000;stroke-width:0.80000001;stroke-linecap:butt;stroke-linejoin:round;stroke-miterlimit:10;stroke-dasharray:none;stroke-opacity:1"
         d="m 46.95,107.90246 h -3.5" /><text
         id="text580"
         style="font-variant:normal;font-weight:normal;font-size:10px;font-family:'DejaVu Sans';-inkscape-font-specification:DejaVuSans;writing-mode:lr-tb;fill:#000000;fill-opacity:1;fill-rule:nonzero;stroke:none"
         transform="matrix(1,0,0,-1,27.23125,104.10558)"><tspan
           id="tspan578"
           y="0"
           x="0 6.3600001">40</tspan></text>
<path
         id="path582"
         style="fill:#000000;fill-opacity:1;fill-rule:nonzero;stroke:#000000;stroke-width:0.80000001;stroke-linecap:butt;stroke-linejoin:round;stroke-miterlimit:10;stroke-dasharray:none;stroke-opacity:1"
         d="m 46.95,142.41775 h -3.5" /><text
         id="text586"
         style="font-variant:normal;font-weight:normal;font-size:10px;font-family:'DejaVu Sans';-inkscape-font-specification:DejaVuSans;writing-mode:lr-tb;fill:#000000;fill-opacity:1;fill-rule:nonzero;stroke:none"
         transform="matrix(1,0,0,-1,27.23125,138.62087)"><tspan
           id="tspan584"
           y="0"
           x="0 6.3600001">60</tspan></text>
<path
         id="path588"
         style="fill:#000000;fill-opacity:1;fill-rule:nonzero;stroke:#000000;stroke-width:0.80000001;stroke-linecap:butt;stroke-linejoin:round;stroke-miterlimit:10;stroke-dasharray:none;stroke-opacity:1"
         d="m 46.95,176.93304 h -3.5" /><text
         id="text592"
         style="font-variant:normal;font-weight:normal;font-size:10px;font-family:'DejaVu Sans';-inkscape-font-specification:DejaVuSans;writing-mode:lr-tb;fill:#000000;fill-opacity:1;fill-rule:nonzero;stroke:none"
         transform="matrix(1,0,0,-1,27.23125,173.13617)"><tspan
           id="tspan590"
           y="0"
           x="0 6.3600001">80</tspan></text>
<path
         id="path594"
         style="fill:#000000;fill-opacity:1;fill-rule:nonzero;stroke:#000000;stroke-width:0.80000001;stroke-linecap:butt;stroke-linejoin:round;stroke-miterlimit:10;stroke-dasharray:none;stroke-opacity:1"
         d="m 46.95,211.44833 h -3.5" /><text
         id="text598"
         style="font-variant:normal;font-weight:normal;font-size:10px;font-family:'DejaVu Sans';-inkscape-font-specification:DejaVuSans;writing-mode:lr-tb;fill:#000000;fill-opacity:1;fill-rule:nonzero;stroke:none"
         transform="matrix(1,0,0,-1,20.871875,207.65146)"><tspan
           id="tspan596"
           y="0"
           x="0 6.3600001 12.72">100</tspan></text>
<path
         id="path600"
         style="fill:#000000;fill-opacity:1;fill-rule:nonzero;stroke:#000000;stroke-width:0.80000001;stroke-linecap:butt;stroke-linejoin:round;stroke-miterlimit:10;stroke-dasharray:none;stroke-opacity:1"
         d="m 46.95,245.96362 h -3.5" /><text
         id="text604"
         style="font-variant:normal;font-weight:normal;font-size:10px;font-family:'DejaVu Sans';-inkscape-font-specification:DejaVuSans;writing-mode:lr-tb;fill:#000000;fill-opacity:1;fill-rule:nonzero;stroke:none"
         transform="matrix(1,0,0,-1,20.871875,242.16675)"><tspan
           id="tspan602"
           y="0"
           x="0 6.3600001 12.72">120</tspan></text>
<path
         id="path606"
         style="fill:#000000;fill-opacity:1;fill-rule:nonzero;stroke:#000000;stroke-width:0.80000001;stroke-linecap:butt;stroke-linejoin:round;stroke-miterlimit:10;stroke-dasharray:none;stroke-opacity:1"
         d="m 46.95,280.47891 h -3.5" /><text
         id="text610"
         style="font-variant:normal;font-weight:normal;font-size:10px;font-family:'DejaVu Sans';-inkscape-font-specification:DejaVuSans;writing-mode:lr-tb;fill:#000000;fill-opacity:1;fill-rule:nonzero;stroke:none"
         transform="matrix(1,0,0,-1,20.871875,276.68204)"><tspan
           id="tspan608"
           y="0"
           x="0 6.3600001 12.72">140</tspan></text>
<text
         id="text614"
         style="font-variant:normal;font-weight:normal;font-size:10px;font-family:'DejaVu Sans';-inkscape-font-specification:DejaVuSans;writing-mode:lr-tb;fill:#000000;fill-opacity:1;fill-rule:nonzero;stroke:none"
         transform="matrix(0,1,1,0,14.79375,70.518187)"><tspan
           id="tspan612"
           y="0"
           x="0 7.48 13.82 23.559999 29.91 36.060001 40.169998 43.349998 49.470001 52.990002 56.169998 60.279999 66.43 70.349998 76.480003 79.260002 85.599998 91.75 98.099998 101.28 107.63 113.97 120.32 123.1 125.88 131.38 137.50999 141.42999 147.58 152.78999 155.97 159.87 168.05 174.2 176.98 183.33 189.67 193.59 199.74001 206.09">Number of retained duplicates (weighted)</tspan></text>
</g><g
       id="g616"><g
         clip-path="url(#clipPath622)"
         id="g618"><path
           id="path624"
           style="fill:none;stroke:#0000ff;stroke-width:1.5;stroke-linecap:square;stroke-linejoin:round;stroke-miterlimit:10;stroke-dasharray:none;stroke-opacity:0.8"
           d="m 47.95,38.871875 24.537836,0.09192 3.166172,0.221335 2.374629,0.360056 2.37463,0.629224 1.583086,0.622267 1.583086,0.823485 1.583086,1.057307 1.583086,1.321203 1.583086,1.61112 1.583087,1.921681 1.583086,2.246482 1.583086,2.57841 1.583086,2.909987 2.374629,4.967497 2.37463,5.637622 2.374629,6.219155 3.16617,8.996541 4.74926,14.346414 5.5408,16.660159 3.16617,8.86957 2.37463,6.14101 2.37463,5.60743 2.37463,5.00827 2.37463,4.36218 1.58309,2.53401 1.58308,2.22892 1.58309,1.92222 1.58309,1.61665 1.58308,1.31469 1.58309,1.01857 1.58308,0.73019 1.58309,0.45125 1.58309,0.18317 1.58308,-0.0729 1.58309,-0.31601 1.58309,-0.54543 1.58308,-0.76064 1.58309,-0.96129 2.37463,-1.78593 2.37463,-2.1545 2.37463,-2.47411 3.16617,-3.71429 3.16617,-4.09207 3.95772,-5.4982 5.5408,-8.11482 11.87314,-17.5051 5.54081,-7.690351 4.74925,-6.187787 3.95772,-4.83225 3.95772,-4.520138 3.95771,-4.201582 3.95772,-3.883916 3.95771,-3.572797 3.95772,-3.27244 3.95771,-2.985869 3.95772,-2.715112 3.95771,-2.461401 3.95772,-2.225336 3.95771,-2.007014 4.74926,-2.144801 4.74926,-1.88466 4.74926,-1.652024 5.5408,-1.667392 5.5408,-1.422673 6.33235,-1.368786 6.33234,-1.136191 7.12389,-1.046868 7.91543,-0.928592 8.70697,-0.794744 10.29006,-0.70413 11.87315,-0.579587 14.24778,-0.466978 18.20549,-0.364471 25.32938,-0.263812 39.57715,-0.159897 22.95475,-0.03522 v 0" /></g></g><g
       id="g626"><g
         clip-path="url(#clipPath632)"
         id="g628"><path
           id="path634"
           style="fill:none;stroke:#0000ff;stroke-width:1;stroke-linecap:butt;stroke-linejoin:round;stroke-miterlimit:10;stroke-dasharray:1, 1.65;stroke-dashoffset:0;stroke-opacity:0.3"
           d="M 101.2818,38.871875 V 311.99262" /></g></g><g
       id="g636"><g
         clip-path="url(#clipPath642)"
         id="g638"><path
           id="path644"
           style="fill:none;stroke:#0000ff;stroke-width:1;stroke-linecap:butt;stroke-linejoin:round;stroke-miterlimit:10;stroke-dasharray:1, 1.65;stroke-dashoffset:0;stroke-opacity:0.3"
           d="M 264.13091,38.871875 V 311.99262" /></g></g><g
       id="g646"><path
         id="path648"
         style="fill:none;stroke:#000000;stroke-width:0.80000001;stroke-linecap:square;stroke-linejoin:miter;stroke-miterlimit:10;stroke-dasharray:none;stroke-opacity:1"
         d="M 46.95,38.871875 V 311.99262" /><path
         id="path650"
         style="fill:none;stroke:#000000;stroke-width:0.80000001;stroke-linecap:square;stroke-linejoin:miter;stroke-miterlimit:10;stroke-dasharray:none;stroke-opacity:1"
         d="M 47.95,37.871875 H 442.93" /><g
         transform="translate(82.44,317.99262)"
         id="g652"><text
           id="text656"
           style="font-variant:normal;font-weight:normal;font-size:12px;font-family:'DejaVu Sans';-inkscape-font-specification:DejaVuSans;writing-mode:lr-tb;fill:#000000;fill-opacity:1;fill-rule:nonzero;stroke:none"
           transform="matrix(1,0,0,-1,0,0.875)"><tspan
             id="tspan654"
             y="0"
             x="0 8.2089844 15.814453 22.412109 30.017578 37.359375 42.292969">Anchor </tspan></text>
<text
           id="text660"
           style="font-style:italic;font-variant:normal;font-size:12px;font-family:'DejaVu Sans';-inkscape-font-specification:DejaVuSans-Oblique;writing-mode:lr-tb;fill:#000000;fill-opacity:1;fill-rule:nonzero;stroke:none"
           transform="matrix(1,0,0,-1,46.107422,0.875)"><tspan
             id="tspan658"
             y="0"
             x="0">K</tspan></text>
<text
           id="text664"
           style="font-variant:normal;font-weight:normal;font-size:8.39999962px;font-family:'DejaVu Sans';-inkscape-font-specification:DejaVuSans;writing-mode:lr-tb;fill:#000000;fill-opacity:1;fill-rule:nonzero;stroke:none"
           transform="matrix(1,0,0,-1,53.976562,-1.09375)"><tspan
             id="tspan662"
             y="0"
             x="0">S</tspan></text>
<text
           id="text668"
           style="font-variant:normal;font-weight:normal;font-size:12px;font-family:'DejaVu Sans';-inkscape-font-specification:DejaVuSans;writing-mode:lr-tb;fill:#000000;fill-opacity:1;fill-rule:nonzero;stroke:none"
           transform="matrix(1,0,0,-1,63.451172,0.875)"><tspan
             id="tspan666"
             y="0"
             x="0 7.6171875 10.951172 17.203125 21.908203 26.841797 30.175781 37.792969 45.398438 50.103516 53.4375 60.779297 68.384766 72.199219 79.541016 83.765625 87.580078 95.789062 103.40625 111.01172 114.3457 117.67969 125.0625 132.67969 136.01367 143.36719 149.36719 155.96484 163.30664 170.68945 175.62305 183.22852 186.5625 193.94531 201.29883 205.11328 209.81836 216.07031 223.17188 226.98633 233.93555 240.1875 244.00195 248.70703 254.95898">distribution of Aquilegia_coerulea.tsv.ks.tsv</tspan></text>
</g><path
         id="path670"
         style="fill:none;stroke:#0000ff;stroke-width:1.5;stroke-linecap:square;stroke-linejoin:round;stroke-miterlimit:10;stroke-dasharray:none;stroke-opacity:0.8"
         d="m 246.54562,296.26762 h 24.00001" /><text
         id="text674"
         style="font-variant:normal;font-weight:normal;font-size:12px;font-family:'DejaVu Sans';-inkscape-font-specification:DejaVuSans;writing-mode:lr-tb;fill:#000000;fill-opacity:1;fill-rule:nonzero;stroke:none"
         transform="matrix(1,0,0,-1,280.14563,292.06763)"><tspan
           id="tspan672"
           y="0"
           x="0 7.2360001 14.616 21.972 28.92 32.736 40.368 44.183998 55.872002 63.216 70.835999 78.216003 82.031998 89.664001 93.480003 101.112">Peak 1 mode 1.20</tspan></text>
<path
         id="path676"
         style="fill:none;stroke:#0000ff;stroke-width:1;stroke-linecap:butt;stroke-linejoin:round;stroke-miterlimit:10;stroke-dasharray:1, 1.65;stroke-dashoffset:0;stroke-opacity:0.3"
         d="m 246.54562,278.64263 h 24.00001" /><text
         id="text680"
         style="font-variant:normal;font-weight:normal;font-size:12px;font-family:'DejaVu Sans';-inkscape-font-specification:DejaVuSans;writing-mode:lr-tb;fill:#000000;fill-opacity:1;fill-rule:nonzero;stroke:none"
         transform="matrix(1,0,0,-1,280.14563,274.44263)"><tspan
           id="tspan678"
           y="0"
           x="0 7.2360001 14.616 21.972 28.92 32.736 40.368 44.183998 47.52 54.863998 64.68 72.059998 76.991997 80.807999 88.440002 96.071999 107.472 115.848 119.388 123.204 130.836 134.65199 142.284">Peak 1 lower 95%CI 0.68</tspan></text>
<path
         id="path682"
         style="fill:none;stroke:#0000ff;stroke-width:1;stroke-linecap:butt;stroke-linejoin:round;stroke-miterlimit:10;stroke-dasharray:1, 1.65;stroke-dashoffset:0;stroke-opacity:0.3"
         d="m 246.54562,261.01762 h 24.00001" /><text
         id="text686"
         style="font-variant:normal;font-weight:normal;font-size:12px;font-family:'DejaVu Sans';-inkscape-font-specification:DejaVuSans;writing-mode:lr-tb;fill:#000000;fill-opacity:1;fill-rule:nonzero;stroke:none"
         transform="matrix(1,0,0,-1,280.14563,256.81763)"><tspan
           id="tspan684"
           y="0"
           x="0 7.2360001 14.616 21.972 28.92 32.736 40.368 44.183998 51.792 59.411999 67.031998 74.412003 79.344002 83.160004 90.792 98.424004 109.824 118.2 121.74 125.556 133.188 137.004 144.636">Peak 1 upper 95%CI 2.74</tspan></text>
</g></g></svg>