<?xml version="1.0" encoding="utf-8" standalone="no"?>
<!DOCTYPE svg PUBLIC "-//W3C//DTD SVG 1.1//EN"
  "http://www.w3.org/Graphics/SVG/1.1/DTD/svg11.dtd">
<!-- Created with matplotlib (https://matplotlib.org/) -->
<svg height="1440pt" version="1.1" viewBox="0 0 720 1440" width="720pt" xmlns="http://www.w3.org/2000/svg" xmlns:xlink="http://www.w3.org/1999/xlink">
 <defs>
  <style type="text/css">
*{stroke-linecap:butt;stroke-linejoin:round;}
  </style>
 </defs>
 <g id="figure_1">
  <g id="patch_1">
   <path d="M 0 1440 
L 720 1440 
L 720 0 
L 0 0 
z
" style="fill:#ffffff;"/>
  </g>
  <g id="axes_1">
   <g id="patch_2">
    <path d="M 74.23 1385.8 
L 686.295 1385.8 
L 686.295 10.8 
L 74.23 10.8 
z
" style="fill:#ffffff;"/>
   </g>
   <g id="patch_3">
    <path clip-path="url(#p85ac1b6d92)" d="M 74.23 1323.3 
L 686.295 1323.3 
L 686.295 1292.05 
L 74.23 1292.05 
z
" style="opacity:0.3;"/>
   </g>
   <g id="patch_4">
    <path clip-path="url(#p85ac1b6d92)" d="M 74.23 1135.8 
L 673.214928 1135.8 
L 673.214928 1104.55 
L 74.23 1104.55 
z
" style="opacity:0.3;"/>
   </g>
   <g id="patch_5">
    <path clip-path="url(#p85ac1b6d92)" d="M 74.23 948.3 
L 669.105577 948.3 
L 669.105577 917.05 
L 74.23 917.05 
z
" style="opacity:0.3;"/>
   </g>
   <g id="patch_6">
    <path clip-path="url(#p85ac1b6d92)" d="M 74.23 760.8 
L 656.338365 760.8 
L 656.338365 729.55 
L 74.23 729.55 
z
" style="opacity:0.3;"/>
   </g>
   <g id="patch_7">
    <path clip-path="url(#p85ac1b6d92)" d="M 74.23 573.3 
L 651.123676 573.3 
L 651.123676 542.05 
L 74.23 542.05 
z
" style="opacity:0.3;"/>
   </g>
   <g id="patch_8">
    <path clip-path="url(#p85ac1b6d92)" d="M 74.23 385.8 
L 644.789512 385.8 
L 644.789512 354.55 
L 74.23 354.55 
z
" style="opacity:0.3;"/>
   </g>
   <g id="patch_9">
    <path clip-path="url(#p85ac1b6d92)" d="M 74.23 198.3 
L 480.542216 198.3 
L 480.542216 167.05 
L 74.23 167.05 
z
" style="opacity:0.3;"/>
   </g>
   <g id="patch_10">
    <path clip-path="url(#p85ac1b6d92)" d="M 452.844291 1285.8 
L 468.431949 1285.8 
L 468.431949 1249.8625 
L 452.844291 1249.8625 
z
" style="fill:url(#hb3926dd214);opacity:0.4;"/>
   </g>
   <g id="patch_11">
    <path clip-path="url(#p85ac1b6d92)" d="M 193.298346 1285.8 
L 215.851592 1285.8 
L 215.851592 1249.8625 
L 193.298346 1249.8625 
z
" style="fill:url(#hb3926dd214);opacity:0.4;"/>
   </g>
   <g id="patch_12">
    <path clip-path="url(#p85ac1b6d92)" d="M 123.999242 1285.8 
L 131.253174 1285.8 
L 131.253174 1249.8625 
L 123.999242 1249.8625 
z
" style="fill:url(#hb3926dd214);opacity:0.4;"/>
   </g>
   <g id="patch_13">
    <path clip-path="url(#p85ac1b6d92)" d="M 156.649647 1285.8 
L 166.790174 1285.8 
L 166.790174 1249.8625 
L 156.649647 1249.8625 
z
" style="fill:url(#hb3926dd214);opacity:0.4;"/>
   </g>
   <g id="patch_14">
    <path clip-path="url(#p85ac1b6d92)" d="M 423.411339 1285.8 
L 446.994048 1285.8 
L 446.994048 1249.8625 
L 423.411339 1249.8625 
z
" style="fill:url(#hb3926dd214);opacity:0.4;"/>
   </g>
   <g id="patch_15">
    <path clip-path="url(#p85ac1b6d92)" d="M 636.058753 1285.8 
L 642.050128 1285.8 
L 642.050128 1249.8625 
L 636.058753 1249.8625 
z
" style="fill:url(#hb3926dd214);opacity:0.4;"/>
   </g>
   <g id="patch_16">
    <path clip-path="url(#p85ac1b6d92)" d="M 637.296646 1285.8 
L 640.959152 1285.8 
L 640.959152 1249.8625 
L 637.296646 1249.8625 
z
" style="fill:url(#hb3926dd214);opacity:0.4;"/>
   </g>
   <g id="patch_17">
    <path clip-path="url(#p85ac1b6d92)" d="M 232.05495 1285.8 
L 238.452979 1285.8 
L 238.452979 1249.8625 
L 232.05495 1249.8625 
z
" style="fill:url(#hb3926dd214);opacity:0.4;"/>
   </g>
   <g id="patch_18">
    <path clip-path="url(#p85ac1b6d92)" d="M 102.598284 1285.8 
L 107.784514 1285.8 
L 107.784514 1249.8625 
L 102.598284 1249.8625 
z
" style="fill:url(#hb3926dd214);opacity:0.4;"/>
   </g>
   <g id="patch_19">
    <path clip-path="url(#p85ac1b6d92)" d="M 300.806628 1285.8 
L 307.629897 1285.8 
L 307.629897 1249.8625 
L 300.806628 1249.8625 
z
" style="fill:url(#hb3926dd214);opacity:0.4;"/>
   </g>
   <g id="patch_20">
    <path clip-path="url(#p85ac1b6d92)" d="M 84.864509 1285.8 
L 89.270326 1285.8 
L 89.270326 1249.8625 
L 84.864509 1249.8625 
z
" style="fill:url(#hb3926dd214);opacity:0.4;"/>
   </g>
   <g id="patch_21">
    <path clip-path="url(#p85ac1b6d92)" d="M 670.351367 1285.8 
L 674.133694 1285.8 
L 674.133694 1249.8625 
L 670.351367 1249.8625 
z
" style="fill:url(#hb3926dd214);opacity:0.4;"/>
   </g>
   <g id="patch_22">
    <path clip-path="url(#p85ac1b6d92)" d="M 629.97003 1285.8 
L 637.941031 1285.8 
L 637.941031 1249.8625 
L 629.97003 1249.8625 
z
" style="fill:url(#hb3926dd214);opacity:0.4;"/>
   </g>
   <g id="patch_23">
    <path clip-path="url(#p85ac1b6d92)" d="M 551.140232 1285.8 
L 561.043015 1285.8 
L 561.043015 1249.8625 
L 551.140232 1249.8625 
z
" style="fill:url(#hb3926dd214);opacity:0.4;"/>
   </g>
   <g id="patch_24">
    <path clip-path="url(#p85ac1b6d92)" d="M 448.204284 1285.8 
L 455.849145 1285.8 
L 455.849145 1249.8625 
L 448.204284 1249.8625 
z
" style="fill:url(#hb3926dd214);opacity:0.4;"/>
   </g>
   <g id="patch_25">
    <path clip-path="url(#p85ac1b6d92)" d="M 503.570592 1285.8 
L 520.314814 1285.8 
L 520.314814 1249.8625 
L 503.570592 1249.8625 
z
" style="fill:url(#hb3926dd214);opacity:0.4;"/>
   </g>
   <g id="patch_26">
    <path clip-path="url(#p85ac1b6d92)" d="M 117.732163 1285.8 
L 123.260621 1285.8 
L 123.260621 1249.8625 
L 117.732163 1249.8625 
z
" style="fill:url(#hb3926dd214);opacity:0.4;"/>
   </g>
   <g id="patch_27">
    <path clip-path="url(#p85ac1b6d92)" d="M 241.375382 1285.8 
L 250.350139 1285.8 
L 250.350139 1249.8625 
L 241.375382 1249.8625 
z
" style="fill:url(#hb3926dd214);opacity:0.4;"/>
   </g>
   <g id="patch_28">
    <path clip-path="url(#p85ac1b6d92)" d="M 98.244508 1285.8 
L 102.571148 1285.8 
L 102.571148 1249.8625 
L 98.244508 1249.8625 
z
" style="fill:url(#hb3926dd214);opacity:0.4;"/>
   </g>
   <g id="patch_29">
    <path clip-path="url(#p85ac1b6d92)" d="M 596.875934 1098.3 
L 615.533846 1098.3 
L 615.533846 1062.3625 
L 596.875934 1062.3625 
z
" style="fill:url(#hb3926dd214);opacity:0.4;"/>
   </g>
   <g id="patch_30">
    <path clip-path="url(#p85ac1b6d92)" d="M 641.115195 1098.3 
L 653.441789 1098.3 
L 653.441789 1062.3625 
L 641.115195 1062.3625 
z
" style="fill:url(#hb3926dd214);opacity:0.4;"/>
   </g>
   <g id="patch_31">
    <path clip-path="url(#p85ac1b6d92)" d="M 164.258125 1098.3 
L 173.725889 1098.3 
L 173.725889 1062.3625 
L 164.258125 1062.3625 
z
" style="fill:url(#hb3926dd214);opacity:0.4;"/>
   </g>
   <g id="patch_32">
    <path clip-path="url(#p85ac1b6d92)" d="M 166.434265 1098.3 
L 168.993664 1098.3 
L 168.993664 1062.3625 
L 166.434265 1062.3625 
z
" style="fill:url(#hb3926dd214);opacity:0.4;"/>
   </g>
   <g id="patch_33">
    <path clip-path="url(#p85ac1b6d92)" d="M 301.157821 1098.3 
L 313.437746 1098.3 
L 313.437746 1062.3625 
L 301.157821 1062.3625 
z
" style="fill:url(#hb3926dd214);opacity:0.4;"/>
   </g>
   <g id="patch_34">
    <path clip-path="url(#p85ac1b6d92)" d="M 626.748368 1098.3 
L 635.729218 1098.3 
L 635.729218 1062.3625 
L 626.748368 1062.3625 
z
" style="fill:url(#hb3926dd214);opacity:0.4;"/>
   </g>
   <g id="patch_35">
    <path clip-path="url(#p85ac1b6d92)" d="M 619.694236 1098.3 
L 625.168809 1098.3 
L 625.168809 1062.3625 
L 619.694236 1062.3625 
z
" style="fill:url(#hb3926dd214);opacity:0.4;"/>
   </g>
   <g id="patch_36">
    <path clip-path="url(#p85ac1b6d92)" d="M 160.001137 1098.3 
L 163.369862 1098.3 
L 163.369862 1062.3625 
L 160.001137 1062.3625 
z
" style="fill:url(#hb3926dd214);opacity:0.4;"/>
   </g>
   <g id="patch_37">
    <path clip-path="url(#p85ac1b6d92)" d="M 115.050525 1098.3 
L 122.570848 1098.3 
L 122.570848 1062.3625 
L 115.050525 1062.3625 
z
" style="fill:url(#hb3926dd214);opacity:0.4;"/>
   </g>
   <g id="patch_38">
    <path clip-path="url(#p85ac1b6d92)" d="M 155.973849 1098.3 
L 158.543189 1098.3 
L 158.543189 1062.3625 
L 155.973849 1062.3625 
z
" style="fill:url(#hb3926dd214);opacity:0.4;"/>
   </g>
   <g id="patch_39">
    <path clip-path="url(#p85ac1b6d92)" d="M 256.664061 1098.3 
L 262.820283 1098.3 
L 262.820283 1062.3625 
L 256.664061 1062.3625 
z
" style="fill:url(#hb3926dd214);opacity:0.4;"/>
   </g>
   <g id="patch_40">
    <path clip-path="url(#p85ac1b6d92)" d="M 185.267701 1098.3 
L 189.086744 1098.3 
L 189.086744 1062.3625 
L 185.267701 1062.3625 
z
" style="fill:url(#hb3926dd214);opacity:0.4;"/>
   </g>
   <g id="patch_41">
    <path clip-path="url(#p85ac1b6d92)" d="M 636.499491 1098.3 
L 640.994492 1098.3 
L 640.994492 1062.3625 
L 636.499491 1062.3625 
z
" style="fill:url(#hb3926dd214);opacity:0.4;"/>
   </g>
   <g id="patch_42">
    <path clip-path="url(#p85ac1b6d92)" d="M 148.309067 1098.3 
L 152.185202 1098.3 
L 152.185202 1062.3625 
L 148.309067 1062.3625 
z
" style="fill:url(#hb3926dd214);opacity:0.4;"/>
   </g>
   <g id="patch_43">
    <path clip-path="url(#p85ac1b6d92)" d="M 286.730336 1098.3 
L 295.877249 1098.3 
L 295.877249 1062.3625 
L 286.730336 1062.3625 
z
" style="fill:url(#hb3926dd214);opacity:0.4;"/>
   </g>
   <g id="patch_44">
    <path clip-path="url(#p85ac1b6d92)" d="M 583.805949 1098.3 
L 591.100793 1098.3 
L 591.100793 1062.3625 
L 583.805949 1062.3625 
z
" style="fill:url(#hb3926dd214);opacity:0.4;"/>
   </g>
   <g id="patch_45">
    <path clip-path="url(#p85ac1b6d92)" d="M 313.928467 1098.3 
L 326.675037 1098.3 
L 326.675037 1062.3625 
L 313.928467 1062.3625 
z
" style="fill:url(#hb3926dd214);opacity:0.4;"/>
   </g>
   <g id="patch_46">
    <path clip-path="url(#p85ac1b6d92)" d="M 320.67789 1098.3 
L 327.317579 1098.3 
L 327.317579 1062.3625 
L 320.67789 1062.3625 
z
" style="fill:url(#hb3926dd214);opacity:0.4;"/>
   </g>
   <g id="patch_47">
    <path clip-path="url(#p85ac1b6d92)" d="M 243.565323 1098.3 
L 248.068087 1098.3 
L 248.068087 1062.3625 
L 243.565323 1062.3625 
z
" style="fill:url(#hb3926dd214);opacity:0.4;"/>
   </g>
   <g id="patch_48">
    <path clip-path="url(#p85ac1b6d92)" d="M 243.734513 1098.3 
L 246.583043 1098.3 
L 246.583043 1062.3625 
L 243.734513 1062.3625 
z
" style="fill:url(#hb3926dd214);opacity:0.4;"/>
   </g>
   <g id="patch_49">
    <path clip-path="url(#p85ac1b6d92)" d="M 444.608622 1098.3 
L 456.342044 1098.3 
L 456.342044 1062.3625 
L 444.608622 1062.3625 
z
" style="fill:url(#hb3926dd214);opacity:0.4;"/>
   </g>
   <g id="patch_50">
    <path clip-path="url(#p85ac1b6d92)" d="M 138.932266 1098.3 
L 143.679134 1098.3 
L 143.679134 1062.3625 
L 138.932266 1062.3625 
z
" style="fill:url(#hb3926dd214);opacity:0.4;"/>
   </g>
   <g id="patch_51">
    <path clip-path="url(#p85ac1b6d92)" d="M 654.084264 1098.3 
L 657.520743 1098.3 
L 657.520743 1062.3625 
L 654.084264 1062.3625 
z
" style="fill:url(#hb3926dd214);opacity:0.4;"/>
   </g>
   <g id="patch_52">
    <path clip-path="url(#p85ac1b6d92)" d="M 232.909263 1098.3 
L 235.757913 1098.3 
L 235.757913 1062.3625 
L 232.909263 1062.3625 
z
" style="fill:url(#hb3926dd214);opacity:0.4;"/>
   </g>
   <g id="patch_53">
    <path clip-path="url(#p85ac1b6d92)" d="M 86.354229 910.8 
L 119.707635 910.8 
L 119.707635 874.8625 
L 86.354229 874.8625 
z
" style="fill:url(#hb3926dd214);opacity:0.4;"/>
   </g>
   <g id="patch_54">
    <path clip-path="url(#p85ac1b6d92)" d="M 181.476755 910.8 
L 201.950088 910.8 
L 201.950088 874.8625 
L 181.476755 874.8625 
z
" style="fill:url(#hb3926dd214);opacity:0.4;"/>
   </g>
   <g id="patch_55">
    <path clip-path="url(#p85ac1b6d92)" d="M 224.275223 910.8 
L 241.423 910.8 
L 241.423 874.8625 
L 224.275223 874.8625 
z
" style="fill:url(#hb3926dd214);opacity:0.4;"/>
   </g>
   <g id="patch_56">
    <path clip-path="url(#p85ac1b6d92)" d="M 232.115809 910.8 
L 238.272058 910.8 
L 238.272058 874.8625 
L 232.115809 874.8625 
z
" style="fill:url(#hb3926dd214);opacity:0.4;"/>
   </g>
   <g id="patch_57">
    <path clip-path="url(#p85ac1b6d92)" d="M 232.115809 862.883333 
L 238.272058 862.883333 
L 238.272058 826.945833 
L 232.115809 826.945833 
z
" style="fill:url(#hb3926dd214);opacity:0.4;"/>
   </g>
   <g id="patch_58">
    <path clip-path="url(#p85ac1b6d92)" d="M 630.503185 910.8 
L 636.680572 910.8 
L 636.680572 874.8625 
L 630.503185 874.8625 
z
" style="fill:url(#hb3926dd214);opacity:0.4;"/>
   </g>
   <g id="patch_59">
    <path clip-path="url(#p85ac1b6d92)" d="M 630.503185 862.883333 
L 636.680572 862.883333 
L 636.680572 826.945833 
L 630.503185 826.945833 
z
" style="fill:url(#hb3926dd214);opacity:0.4;"/>
   </g>
   <g id="patch_60">
    <path clip-path="url(#p85ac1b6d92)" d="M 119.813707 910.8 
L 127.898838 910.8 
L 127.898838 874.8625 
L 119.813707 874.8625 
z
" style="fill:url(#hb3926dd214);opacity:0.4;"/>
   </g>
   <g id="patch_61">
    <path clip-path="url(#p85ac1b6d92)" d="M 134.53003 910.8 
L 142.286414 910.8 
L 142.286414 874.8625 
L 134.53003 874.8625 
z
" style="fill:url(#hb3926dd214);opacity:0.4;"/>
   </g>
   <g id="patch_62">
    <path clip-path="url(#p85ac1b6d92)" d="M 588.239837 910.8 
L 601.851595 910.8 
L 601.851595 874.8625 
L 588.239837 874.8625 
z
" style="fill:url(#hb3926dd214);opacity:0.4;"/>
   </g>
   <g id="patch_63">
    <path clip-path="url(#p85ac1b6d92)" d="M 597.731329 910.8 
L 601.216482 910.8 
L 601.216482 874.8625 
L 597.731329 874.8625 
z
" style="fill:url(#hb3926dd214);opacity:0.4;"/>
   </g>
   <g id="patch_64">
    <path clip-path="url(#p85ac1b6d92)" d="M 208.851933 910.8 
L 220.419838 910.8 
L 220.419838 874.8625 
L 208.851933 874.8625 
z
" style="fill:url(#hb3926dd214);opacity:0.4;"/>
   </g>
   <g id="patch_65">
    <path clip-path="url(#p85ac1b6d92)" d="M 200.842465 910.8 
L 206.600758 910.8 
L 206.600758 874.8625 
L 200.842465 874.8625 
z
" style="fill:url(#hb3926dd214);opacity:0.4;"/>
   </g>
   <g id="patch_66">
    <path clip-path="url(#p85ac1b6d92)" d="M 400.825224 910.8 
L 406.929834 910.8 
L 406.929834 874.8625 
L 400.825224 874.8625 
z
" style="fill:url(#hb3926dd214);opacity:0.4;"/>
   </g>
   <g id="patch_67">
    <path clip-path="url(#p85ac1b6d92)" d="M 602.841295 910.8 
L 609.830707 910.8 
L 609.830707 874.8625 
L 602.841295 874.8625 
z
" style="fill:url(#hb3926dd214);opacity:0.4;"/>
   </g>
   <g id="patch_68">
    <path clip-path="url(#p85ac1b6d92)" d="M 128.912588 910.8 
L 133.801644 910.8 
L 133.801644 874.8625 
L 128.912588 874.8625 
z
" style="fill:url(#hb3926dd214);opacity:0.4;"/>
   </g>
   <g id="patch_69">
    <path clip-path="url(#p85ac1b6d92)" d="M 154.533057 910.8 
L 157.153034 910.8 
L 157.153034 874.8625 
L 154.533057 874.8625 
z
" style="fill:url(#hb3926dd214);opacity:0.4;"/>
   </g>
   <g id="patch_70">
    <path clip-path="url(#p85ac1b6d92)" d="M 625.629348 910.8 
L 630.503185 910.8 
L 630.503185 874.8625 
L 625.629348 874.8625 
z
" style="fill:url(#hb3926dd214);opacity:0.4;"/>
   </g>
   <g id="patch_71">
    <path clip-path="url(#p85ac1b6d92)" d="M 622.79176 910.8 
L 626.139349 910.8 
L 626.139349 874.8625 
L 622.79176 874.8625 
z
" style="fill:url(#hb3926dd214);opacity:0.4;"/>
   </g>
   <g id="patch_72">
    <path clip-path="url(#p85ac1b6d92)" d="M 237.630385 723.3 
L 243.420397 723.3 
L 243.420397 687.3625 
L 237.630385 687.3625 
z
" style="fill:url(#hb3926dd214);opacity:0.4;"/>
   </g>
   <g id="patch_73">
    <path clip-path="url(#p85ac1b6d92)" d="M 345.268576 723.3 
L 346.840814 723.3 
L 346.840814 687.3625 
L 345.268576 687.3625 
z
" style="fill:url(#hb3926dd214);opacity:0.4;"/>
   </g>
   <g id="patch_74">
    <path clip-path="url(#p85ac1b6d92)" d="M 631.574534 723.3 
L 634.77427 723.3 
L 634.77427 687.3625 
L 631.574534 687.3625 
z
" style="fill:url(#hb3926dd214);opacity:0.4;"/>
   </g>
   <g id="patch_75">
    <path clip-path="url(#p85ac1b6d92)" d="M 190.989545 723.3 
L 197.79038 723.3 
L 197.79038 687.3625 
L 190.989545 687.3625 
z
" style="fill:url(#hb3926dd214);opacity:0.4;"/>
   </g>
   <g id="patch_76">
    <path clip-path="url(#p85ac1b6d92)" d="M 629.29307 723.3 
L 631.540437 723.3 
L 631.540437 687.3625 
L 629.29307 687.3625 
z
" style="fill:url(#hb3926dd214);opacity:0.4;"/>
   </g>
   <g id="patch_77">
    <path clip-path="url(#p85ac1b6d92)" d="M 218.835215 723.3 
L 223.95742 723.3 
L 223.95742 687.3625 
L 218.835215 687.3625 
z
" style="fill:url(#hb3926dd214);opacity:0.4;"/>
   </g>
   <g id="patch_78">
    <path clip-path="url(#p85ac1b6d92)" d="M 569.638401 723.3 
L 576.351362 723.3 
L 576.351362 687.3625 
L 569.638401 687.3625 
z
" style="fill:url(#hb3926dd214);opacity:0.4;"/>
   </g>
   <g id="patch_79">
    <path clip-path="url(#p85ac1b6d92)" d="M 322.536947 723.3 
L 336.401174 723.3 
L 336.401174 687.3625 
L 322.536947 687.3625 
z
" style="fill:url(#hb3926dd214);opacity:0.4;"/>
   </g>
   <g id="patch_80">
    <path clip-path="url(#p85ac1b6d92)" d="M 207.21102 723.3 
L 218.236711 723.3 
L 218.236711 687.3625 
L 207.21102 687.3625 
z
" style="fill:url(#hb3926dd214);opacity:0.4;"/>
   </g>
   <g id="patch_81">
    <path clip-path="url(#p85ac1b6d92)" d="M 569.799441 535.8 
L 610.327548 535.8 
L 610.327548 499.8625 
L 569.799441 499.8625 
z
" style="fill:url(#hb3926dd214);opacity:0.4;"/>
   </g>
   <g id="patch_82">
    <path clip-path="url(#p85ac1b6d92)" d="M 158.766664 535.8 
L 177.426273 535.8 
L 177.426273 499.8625 
L 158.766664 499.8625 
z
" style="fill:url(#hb3926dd214);opacity:0.4;"/>
   </g>
   <g id="patch_83">
    <path clip-path="url(#p85ac1b6d92)" d="M 557.379988 535.8 
L 567.336468 535.8 
L 567.336468 499.8625 
L 557.379988 499.8625 
z
" style="fill:url(#hb3926dd214);opacity:0.4;"/>
   </g>
   <g id="patch_84">
    <path clip-path="url(#p85ac1b6d92)" d="M 351.724685 535.8 
L 377.614311 535.8 
L 377.614311 499.8625 
L 351.724685 499.8625 
z
" style="fill:url(#hb3926dd214);opacity:0.4;"/>
   </g>
   <g id="patch_85">
    <path clip-path="url(#p85ac1b6d92)" d="M 532.033285 535.8 
L 546.793966 535.8 
L 546.793966 499.8625 
L 532.033285 499.8625 
z
" style="fill:url(#hb3926dd214);opacity:0.4;"/>
   </g>
   <g id="patch_86">
    <path clip-path="url(#p85ac1b6d92)" d="M 398.719617 535.8 
L 435.783254 535.8 
L 435.783254 499.8625 
L 398.719617 499.8625 
z
" style="fill:url(#hb3926dd214);opacity:0.4;"/>
   </g>
   <g id="patch_87">
    <path clip-path="url(#p85ac1b6d92)" d="M 404.58246 535.8 
L 415.25303 535.8 
L 415.25303 499.8625 
L 404.58246 499.8625 
z
" style="fill:url(#hb3926dd214);opacity:0.4;"/>
   </g>
   <g id="patch_88">
    <path clip-path="url(#p85ac1b6d92)" d="M 418.158024 535.8 
L 429.681224 535.8 
L 429.681224 499.8625 
L 418.158024 499.8625 
z
" style="fill:url(#hb3926dd214);opacity:0.4;"/>
   </g>
   <g id="patch_89">
    <path clip-path="url(#p85ac1b6d92)" d="M 217.3417 535.8 
L 246.664077 535.8 
L 246.664077 499.8625 
L 217.3417 499.8625 
z
" style="fill:url(#hb3926dd214);opacity:0.4;"/>
   </g>
   <g id="patch_90">
    <path clip-path="url(#p85ac1b6d92)" d="M 385.293883 535.8 
L 387.578113 535.8 
L 387.578113 499.8625 
L 385.293883 499.8625 
z
" style="fill:url(#hb3926dd214);opacity:0.4;"/>
   </g>
   <g id="patch_91">
    <path clip-path="url(#p85ac1b6d92)" d="M 200.742217 535.8 
L 209.866657 535.8 
L 209.866657 499.8625 
L 200.742217 499.8625 
z
" style="fill:url(#hb3926dd214);opacity:0.4;"/>
   </g>
   <g id="patch_92">
    <path clip-path="url(#p85ac1b6d92)" d="M 386.674498 535.8 
L 391.099541 535.8 
L 391.099541 499.8625 
L 386.674498 499.8625 
z
" style="fill:url(#hb3926dd214);opacity:0.4;"/>
   </g>
   <g id="patch_93">
    <path clip-path="url(#p85ac1b6d92)" d="M 384.61031 535.8 
L 388.035446 535.8 
L 388.035446 499.8625 
L 384.61031 499.8625 
z
" style="fill:url(#hb3926dd214);opacity:0.4;"/>
   </g>
   <g id="patch_94">
    <path clip-path="url(#p85ac1b6d92)" d="M 293.854239 535.8 
L 314.519102 535.8 
L 314.519102 499.8625 
L 293.854239 499.8625 
z
" style="fill:url(#hb3926dd214);opacity:0.4;"/>
   </g>
   <g id="patch_95">
    <path clip-path="url(#p85ac1b6d92)" d="M 482.686022 535.8 
L 491.282691 535.8 
L 491.282691 499.8625 
L 482.686022 499.8625 
z
" style="fill:url(#hb3926dd214);opacity:0.4;"/>
   </g>
   <g id="patch_96">
    <path clip-path="url(#p85ac1b6d92)" d="M 131.416432 535.8 
L 139.273812 535.8 
L 139.273812 499.8625 
L 131.416432 499.8625 
z
" style="fill:url(#hb3926dd214);opacity:0.4;"/>
   </g>
   <g id="patch_97">
    <path clip-path="url(#p85ac1b6d92)" d="M 380.353041 535.8 
L 383.668015 535.8 
L 383.668015 499.8625 
L 380.353041 499.8625 
z
" style="fill:url(#hb3926dd214);opacity:0.4;"/>
   </g>
   <g id="patch_98">
    <path clip-path="url(#p85ac1b6d92)" d="M 153.60781 535.8 
L 157.516746 535.8 
L 157.516746 499.8625 
L 153.60781 499.8625 
z
" style="fill:url(#hb3926dd214);opacity:0.4;"/>
   </g>
   <g id="patch_99">
    <path clip-path="url(#p85ac1b6d92)" d="M 270.128755 535.8 
L 279.43421 535.8 
L 279.43421 499.8625 
L 270.128755 499.8625 
z
" style="fill:url(#hb3926dd214);opacity:0.4;"/>
   </g>
   <g id="patch_100">
    <path clip-path="url(#p85ac1b6d92)" d="M 447.121151 535.8 
L 455.427419 535.8 
L 455.427419 499.8625 
L 447.121151 499.8625 
z
" style="fill:url(#hb3926dd214);opacity:0.4;"/>
   </g>
   <g id="patch_101">
    <path clip-path="url(#p85ac1b6d92)" d="M 145.9872 535.8 
L 151.234744 535.8 
L 151.234744 499.8625 
L 145.9872 499.8625 
z
" style="fill:url(#hb3926dd214);opacity:0.4;"/>
   </g>
   <g id="patch_102">
    <path clip-path="url(#p85ac1b6d92)" d="M 457.872903 535.8 
L 461.724333 535.8 
L 461.724333 499.8625 
L 457.872903 499.8625 
z
" style="fill:url(#hb3926dd214);opacity:0.4;"/>
   </g>
   <g id="patch_103">
    <path clip-path="url(#p85ac1b6d92)" d="M 177.749328 535.8 
L 189.109658 535.8 
L 189.109658 499.8625 
L 177.749328 499.8625 
z
" style="fill:url(#hb3926dd214);opacity:0.4;"/>
   </g>
   <g id="patch_104">
    <path clip-path="url(#p85ac1b6d92)" d="M 547.076096 535.8 
L 552.952847 535.8 
L 552.952847 499.8625 
L 547.076096 499.8625 
z
" style="fill:url(#hb3926dd214);opacity:0.4;"/>
   </g>
   <g id="patch_105">
    <path clip-path="url(#p85ac1b6d92)" d="M 334.600477 535.8 
L 351.844961 535.8 
L 351.844961 499.8625 
L 334.600477 499.8625 
z
" style="fill:url(#hb3926dd214);opacity:0.4;"/>
   </g>
   <g id="patch_106">
    <path clip-path="url(#p85ac1b6d92)" d="M 549.860226 535.8 
L 553.552727 535.8 
L 553.552727 499.8625 
L 549.860226 499.8625 
z
" style="fill:url(#hb3926dd214);opacity:0.4;"/>
   </g>
   <g id="patch_107">
    <path clip-path="url(#p85ac1b6d92)" d="M 504.058147 535.8 
L 510.319373 535.8 
L 510.319373 499.8625 
L 504.058147 499.8625 
z
" style="fill:url(#hb3926dd214);opacity:0.4;"/>
   </g>
   <g id="patch_108">
    <path clip-path="url(#p85ac1b6d92)" d="M 511.20284 348.3 
L 563.255229 348.3 
L 563.255229 312.3625 
L 511.20284 312.3625 
z
" style="fill:url(#hb3926dd214);opacity:0.4;"/>
   </g>
   <g id="patch_109">
    <path clip-path="url(#p85ac1b6d92)" d="M 140.002118 348.3 
L 194.389361 348.3 
L 194.389361 312.3625 
L 140.002118 312.3625 
z
" style="fill:url(#hb3926dd214);opacity:0.4;"/>
   </g>
   <g id="patch_110">
    <path clip-path="url(#p85ac1b6d92)" d="M 211.008164 348.3 
L 227.801902 348.3 
L 227.801902 312.3625 
L 211.008164 312.3625 
z
" style="fill:url(#hb3926dd214);opacity:0.4;"/>
   </g>
   <g id="patch_111">
    <path clip-path="url(#p85ac1b6d92)" d="M 593.844987 348.3 
L 600.221879 348.3 
L 600.221879 312.3625 
L 593.844987 312.3625 
z
" style="fill:url(#hb3926dd214);opacity:0.4;"/>
   </g>
   <g id="patch_112">
    <path clip-path="url(#p85ac1b6d92)" d="M 131.071919 348.3 
L 137.177918 348.3 
L 137.177918 312.3625 
L 131.071919 312.3625 
z
" style="fill:url(#hb3926dd214);opacity:0.4;"/>
   </g>
   <g id="patch_113">
    <path clip-path="url(#p85ac1b6d92)" d="M 606.060939 348.3 
L 610.132451 348.3 
L 610.132451 312.3625 
L 606.060939 312.3625 
z
" style="fill:url(#hb3926dd214);opacity:0.4;"/>
   </g>
   <g id="patch_114">
    <path clip-path="url(#p85ac1b6d92)" d="M 113.715899 348.3 
L 116.535315 348.3 
L 116.535315 312.3625 
L 113.715899 312.3625 
z
" style="fill:url(#hb3926dd214);opacity:0.4;"/>
   </g>
   <g id="patch_115">
    <path clip-path="url(#p85ac1b6d92)" d="M 519.89822 348.3 
L 528.528945 348.3 
L 528.528945 312.3625 
L 519.89822 312.3625 
z
" style="fill:url(#hb3926dd214);opacity:0.4;"/>
   </g>
   <g id="patch_116">
    <path clip-path="url(#p85ac1b6d92)" d="M 496.42463 348.3 
L 504.082517 348.3 
L 504.082517 312.3625 
L 496.42463 312.3625 
z
" style="fill:url(#hb3926dd214);opacity:0.4;"/>
   </g>
   <g id="patch_117">
    <path clip-path="url(#p85ac1b6d92)" d="M 200.218748 348.3 
L 206.896877 348.3 
L 206.896877 312.3625 
L 200.218748 312.3625 
z
" style="fill:url(#hb3926dd214);opacity:0.4;"/>
   </g>
   <g id="patch_118">
    <path clip-path="url(#p85ac1b6d92)" d="M 160.748522 348.3 
L 166.222627 348.3 
L 166.222627 312.3625 
L 160.748522 312.3625 
z
" style="fill:url(#hb3926dd214);opacity:0.4;"/>
   </g>
   <g id="patch_119">
    <path clip-path="url(#p85ac1b6d92)" d="M 519.469052 348.3 
L 525.036537 348.3 
L 525.036537 312.3625 
L 519.469052 312.3625 
z
" style="fill:url(#hb3926dd214);opacity:0.4;"/>
   </g>
   <g id="patch_120">
    <path clip-path="url(#p85ac1b6d92)" d="M 172.772304 160.8 
L 197.906394 160.8 
L 197.906394 124.8625 
L 172.772304 124.8625 
z
" style="fill:url(#hb3926dd214);opacity:0.4;"/>
   </g>
   <g id="patch_121">
    <path clip-path="url(#p85ac1b6d92)" d="M 147.170326 160.8 
L 162.998548 160.8 
L 162.998548 124.8625 
L 147.170326 124.8625 
z
" style="fill:url(#hb3926dd214);opacity:0.4;"/>
   </g>
   <g id="patch_122">
    <path clip-path="url(#p85ac1b6d92)" d="M 157.094513 160.8 
L 160.159384 160.8 
L 160.159384 124.8625 
L 157.094513 124.8625 
z
" style="fill:url(#hb3926dd214);opacity:0.4;"/>
   </g>
   <g id="patch_123">
    <path clip-path="url(#p85ac1b6d92)" d="M 149.252578 160.8 
L 154.651742 160.8 
L 154.651742 124.8625 
L 149.252578 124.8625 
z
" style="fill:url(#hb3926dd214);opacity:0.4;"/>
   </g>
   <g id="patch_124">
    <path clip-path="url(#p85ac1b6d92)" d="M 149.252578 112.883333 
L 154.651742 112.883333 
L 154.651742 76.945833 
L 149.252578 76.945833 
z
" style="fill:url(#hb3926dd214);opacity:0.4;"/>
   </g>
   <g id="patch_125">
    <path clip-path="url(#p85ac1b6d92)" d="M 342.058525 160.8 
L 348.595682 160.8 
L 348.595682 124.8625 
L 342.058525 124.8625 
z
" style="fill:url(#hb3926dd214);opacity:0.4;"/>
   </g>
   <g id="patch_126">
    <path clip-path="url(#p85ac1b6d92)" d="M 167.092533 160.8 
L 177.332199 160.8 
L 177.332199 124.8625 
L 167.092533 124.8625 
z
" style="fill:url(#hb3926dd214);opacity:0.4;"/>
   </g>
   <g id="patch_127">
    <path clip-path="url(#p85ac1b6d92)" d="M 137.962033 160.8 
L 144.430474 160.8 
L 144.430474 124.8625 
L 137.962033 124.8625 
z
" style="fill:url(#hb3926dd214);opacity:0.4;"/>
   </g>
   <g id="matplotlib.axis_1">
    <g id="xtick_1">
     <g id="line2d_1">
      <defs>
       <path d="M 0 0 
L 0 3.5 
" id="mb4a613cde4" style="stroke:#000000;stroke-width:0.8;"/>
      </defs>
      <g>
       <use style="stroke:#000000;stroke-width:0.8;" x="74.23" xlink:href="#mb4a613cde4" y="1385.8"/>
      </g>
     </g>
     <g id="text_1">
      <!-- 0.00 -->
      <defs>
       <path d="M 31.78125 66.40625 
Q 24.171875 66.40625 20.328125 58.90625 
Q 16.5 51.421875 16.5 36.375 
Q 16.5 21.390625 20.328125 13.890625 
Q 24.171875 6.390625 31.78125 6.390625 
Q 39.453125 6.390625 43.28125 13.890625 
Q 47.125 21.390625 47.125 36.375 
Q 47.125 51.421875 43.28125 58.90625 
Q 39.453125 66.40625 31.78125 66.40625 
z
M 31.78125 74.21875 
Q 44.046875 74.21875 50.515625 64.515625 
Q 56.984375 54.828125 56.984375 36.375 
Q 56.984375 17.96875 50.515625 8.265625 
Q 44.046875 -1.421875 31.78125 -1.421875 
Q 19.53125 -1.421875 13.0625 8.265625 
Q 6.59375 17.96875 6.59375 36.375 
Q 6.59375 54.828125 13.0625 64.515625 
Q 19.53125 74.21875 31.78125 74.21875 
z
" id="DejaVuSans-48"/>
       <path d="M 10.6875 12.40625 
L 21 12.40625 
L 21 0 
L 10.6875 0 
z
" id="DejaVuSans-46"/>
      </defs>
      <g transform="translate(56.4175 1404.9575)scale(0.16 -0.16)">
       <use xlink:href="#DejaVuSans-48"/>
       <use x="63.623047" xlink:href="#DejaVuSans-46"/>
       <use x="95.410156" xlink:href="#DejaVuSans-48"/>
       <use x="159.033203" xlink:href="#DejaVuSans-48"/>
      </g>
     </g>
    </g>
    <g id="xtick_2">
     <g id="line2d_2">
      <g>
       <use style="stroke:#000000;stroke-width:0.8;" x="196.643" xlink:href="#mb4a613cde4" y="1385.8"/>
      </g>
     </g>
     <g id="text_2">
      <!-- 9.16 -->
      <defs>
       <path d="M 10.984375 1.515625 
L 10.984375 10.5 
Q 14.703125 8.734375 18.5 7.8125 
Q 22.3125 6.890625 25.984375 6.890625 
Q 35.75 6.890625 40.890625 13.453125 
Q 46.046875 20.015625 46.78125 33.40625 
Q 43.953125 29.203125 39.59375 26.953125 
Q 35.25 24.703125 29.984375 24.703125 
Q 19.046875 24.703125 12.671875 31.3125 
Q 6.296875 37.9375 6.296875 49.421875 
Q 6.296875 60.640625 12.9375 67.421875 
Q 19.578125 74.21875 30.609375 74.21875 
Q 43.265625 74.21875 49.921875 64.515625 
Q 56.59375 54.828125 56.59375 36.375 
Q 56.59375 19.140625 48.40625 8.859375 
Q 40.234375 -1.421875 26.421875 -1.421875 
Q 22.703125 -1.421875 18.890625 -0.6875 
Q 15.09375 0.046875 10.984375 1.515625 
z
M 30.609375 32.421875 
Q 37.25 32.421875 41.125 36.953125 
Q 45.015625 41.5 45.015625 49.421875 
Q 45.015625 57.28125 41.125 61.84375 
Q 37.25 66.40625 30.609375 66.40625 
Q 23.96875 66.40625 20.09375 61.84375 
Q 16.21875 57.28125 16.21875 49.421875 
Q 16.21875 41.5 20.09375 36.953125 
Q 23.96875 32.421875 30.609375 32.421875 
z
" id="DejaVuSans-57"/>
       <path d="M 12.40625 8.296875 
L 28.515625 8.296875 
L 28.515625 63.921875 
L 10.984375 60.40625 
L 10.984375 69.390625 
L 28.421875 72.90625 
L 38.28125 72.90625 
L 38.28125 8.296875 
L 54.390625 8.296875 
L 54.390625 0 
L 12.40625 0 
z
" id="DejaVuSans-49"/>
       <path d="M 33.015625 40.375 
Q 26.375 40.375 22.484375 35.828125 
Q 18.609375 31.296875 18.609375 23.390625 
Q 18.609375 15.53125 22.484375 10.953125 
Q 26.375 6.390625 33.015625 6.390625 
Q 39.65625 6.390625 43.53125 10.953125 
Q 47.40625 15.53125 47.40625 23.390625 
Q 47.40625 31.296875 43.53125 35.828125 
Q 39.65625 40.375 33.015625 40.375 
z
M 52.59375 71.296875 
L 52.59375 62.3125 
Q 48.875 64.0625 45.09375 64.984375 
Q 41.3125 65.921875 37.59375 65.921875 
Q 27.828125 65.921875 22.671875 59.328125 
Q 17.53125 52.734375 16.796875 39.40625 
Q 19.671875 43.65625 24.015625 45.921875 
Q 28.375 48.1875 33.59375 48.1875 
Q 44.578125 48.1875 50.953125 41.515625 
Q 57.328125 34.859375 57.328125 23.390625 
Q 57.328125 12.15625 50.6875 5.359375 
Q 44.046875 -1.421875 33.015625 -1.421875 
Q 20.359375 -1.421875 13.671875 8.265625 
Q 6.984375 17.96875 6.984375 36.375 
Q 6.984375 53.65625 15.1875 63.9375 
Q 23.390625 74.21875 37.203125 74.21875 
Q 40.921875 74.21875 44.703125 73.484375 
Q 48.484375 72.75 52.59375 71.296875 
z
" id="DejaVuSans-54"/>
      </defs>
      <g transform="translate(178.8305 1404.9575)scale(0.16 -0.16)">
       <use xlink:href="#DejaVuSans-57"/>
       <use x="63.623047" xlink:href="#DejaVuSans-46"/>
       <use x="95.410156" xlink:href="#DejaVuSans-49"/>
       <use x="159.033203" xlink:href="#DejaVuSans-54"/>
      </g>
     </g>
    </g>
    <g id="xtick_3">
     <g id="line2d_3">
      <g>
       <use style="stroke:#000000;stroke-width:0.8;" x="319.056" xlink:href="#mb4a613cde4" y="1385.8"/>
      </g>
     </g>
     <g id="text_3">
      <!-- 18.32 -->
      <defs>
       <path d="M 31.78125 34.625 
Q 24.75 34.625 20.71875 30.859375 
Q 16.703125 27.09375 16.703125 20.515625 
Q 16.703125 13.921875 20.71875 10.15625 
Q 24.75 6.390625 31.78125 6.390625 
Q 38.8125 6.390625 42.859375 10.171875 
Q 46.921875 13.96875 46.921875 20.515625 
Q 46.921875 27.09375 42.890625 30.859375 
Q 38.875 34.625 31.78125 34.625 
z
M 21.921875 38.8125 
Q 15.578125 40.375 12.03125 44.71875 
Q 8.5 49.078125 8.5 55.328125 
Q 8.5 64.0625 14.71875 69.140625 
Q 20.953125 74.21875 31.78125 74.21875 
Q 42.671875 74.21875 48.875 69.140625 
Q 55.078125 64.0625 55.078125 55.328125 
Q 55.078125 49.078125 51.53125 44.71875 
Q 48 40.375 41.703125 38.8125 
Q 48.828125 37.15625 52.796875 32.3125 
Q 56.78125 27.484375 56.78125 20.515625 
Q 56.78125 9.90625 50.3125 4.234375 
Q 43.84375 -1.421875 31.78125 -1.421875 
Q 19.734375 -1.421875 13.25 4.234375 
Q 6.78125 9.90625 6.78125 20.515625 
Q 6.78125 27.484375 10.78125 32.3125 
Q 14.796875 37.15625 21.921875 38.8125 
z
M 18.3125 54.390625 
Q 18.3125 48.734375 21.84375 45.5625 
Q 25.390625 42.390625 31.78125 42.390625 
Q 38.140625 42.390625 41.71875 45.5625 
Q 45.3125 48.734375 45.3125 54.390625 
Q 45.3125 60.0625 41.71875 63.234375 
Q 38.140625 66.40625 31.78125 66.40625 
Q 25.390625 66.40625 21.84375 63.234375 
Q 18.3125 60.0625 18.3125 54.390625 
z
" id="DejaVuSans-56"/>
       <path d="M 40.578125 39.3125 
Q 47.65625 37.796875 51.625 33 
Q 55.609375 28.21875 55.609375 21.1875 
Q 55.609375 10.40625 48.1875 4.484375 
Q 40.765625 -1.421875 27.09375 -1.421875 
Q 22.515625 -1.421875 17.65625 -0.515625 
Q 12.796875 0.390625 7.625 2.203125 
L 7.625 11.71875 
Q 11.71875 9.328125 16.59375 8.109375 
Q 21.484375 6.890625 26.8125 6.890625 
Q 36.078125 6.890625 40.9375 10.546875 
Q 45.796875 14.203125 45.796875 21.1875 
Q 45.796875 27.640625 41.28125 31.265625 
Q 36.765625 34.90625 28.71875 34.90625 
L 20.21875 34.90625 
L 20.21875 43.015625 
L 29.109375 43.015625 
Q 36.375 43.015625 40.234375 45.921875 
Q 44.09375 48.828125 44.09375 54.296875 
Q 44.09375 59.90625 40.109375 62.90625 
Q 36.140625 65.921875 28.71875 65.921875 
Q 24.65625 65.921875 20.015625 65.03125 
Q 15.375 64.15625 9.8125 62.3125 
L 9.8125 71.09375 
Q 15.4375 72.65625 20.34375 73.4375 
Q 25.25 74.21875 29.59375 74.21875 
Q 40.828125 74.21875 47.359375 69.109375 
Q 53.90625 64.015625 53.90625 55.328125 
Q 53.90625 49.265625 50.4375 45.09375 
Q 46.96875 40.921875 40.578125 39.3125 
z
" id="DejaVuSans-51"/>
       <path d="M 19.1875 8.296875 
L 53.609375 8.296875 
L 53.609375 0 
L 7.328125 0 
L 7.328125 8.296875 
Q 12.9375 14.109375 22.625 23.890625 
Q 32.328125 33.6875 34.8125 36.53125 
Q 39.546875 41.84375 41.421875 45.53125 
Q 43.3125 49.21875 43.3125 52.78125 
Q 43.3125 58.59375 39.234375 62.25 
Q 35.15625 65.921875 28.609375 65.921875 
Q 23.96875 65.921875 18.8125 64.3125 
Q 13.671875 62.703125 7.8125 59.421875 
L 7.8125 69.390625 
Q 13.765625 71.78125 18.9375 73 
Q 24.125 74.21875 28.421875 74.21875 
Q 39.75 74.21875 46.484375 68.546875 
Q 53.21875 62.890625 53.21875 53.421875 
Q 53.21875 48.921875 51.53125 44.890625 
Q 49.859375 40.875 45.40625 35.40625 
Q 44.1875 33.984375 37.640625 27.21875 
Q 31.109375 20.453125 19.1875 8.296875 
z
" id="DejaVuSans-50"/>
      </defs>
      <g transform="translate(296.1535 1404.9575)scale(0.16 -0.16)">
       <use xlink:href="#DejaVuSans-49"/>
       <use x="63.623047" xlink:href="#DejaVuSans-56"/>
       <use x="127.246094" xlink:href="#DejaVuSans-46"/>
       <use x="159.033203" xlink:href="#DejaVuSans-51"/>
       <use x="222.65625" xlink:href="#DejaVuSans-50"/>
      </g>
     </g>
    </g>
    <g id="xtick_4">
     <g id="line2d_4">
      <g>
       <use style="stroke:#000000;stroke-width:0.8;" x="441.469" xlink:href="#mb4a613cde4" y="1385.8"/>
      </g>
     </g>
     <g id="text_4">
      <!-- 27.49 -->
      <defs>
       <path d="M 8.203125 72.90625 
L 55.078125 72.90625 
L 55.078125 68.703125 
L 28.609375 0 
L 18.3125 0 
L 43.21875 64.59375 
L 8.203125 64.59375 
z
" id="DejaVuSans-55"/>
       <path d="M 37.796875 64.3125 
L 12.890625 25.390625 
L 37.796875 25.390625 
z
M 35.203125 72.90625 
L 47.609375 72.90625 
L 47.609375 25.390625 
L 58.015625 25.390625 
L 58.015625 17.1875 
L 47.609375 17.1875 
L 47.609375 0 
L 37.796875 0 
L 37.796875 17.1875 
L 4.890625 17.1875 
L 4.890625 26.703125 
z
" id="DejaVuSans-52"/>
      </defs>
      <g transform="translate(418.5665 1404.9575)scale(0.16 -0.16)">
       <use xlink:href="#DejaVuSans-50"/>
       <use x="63.623047" xlink:href="#DejaVuSans-55"/>
       <use x="127.246094" xlink:href="#DejaVuSans-46"/>
       <use x="159.033203" xlink:href="#DejaVuSans-52"/>
       <use x="222.65625" xlink:href="#DejaVuSans-57"/>
      </g>
     </g>
    </g>
    <g id="xtick_5">
     <g id="line2d_5">
      <g>
       <use style="stroke:#000000;stroke-width:0.8;" x="563.882" xlink:href="#mb4a613cde4" y="1385.8"/>
      </g>
     </g>
     <g id="text_5">
      <!-- 36.65 -->
      <defs>
       <path d="M 10.796875 72.90625 
L 49.515625 72.90625 
L 49.515625 64.59375 
L 19.828125 64.59375 
L 19.828125 46.734375 
Q 21.96875 47.46875 24.109375 47.828125 
Q 26.265625 48.1875 28.421875 48.1875 
Q 40.625 48.1875 47.75 41.5 
Q 54.890625 34.8125 54.890625 23.390625 
Q 54.890625 11.625 47.5625 5.09375 
Q 40.234375 -1.421875 26.90625 -1.421875 
Q 22.3125 -1.421875 17.546875 -0.640625 
Q 12.796875 0.140625 7.71875 1.703125 
L 7.71875 11.625 
Q 12.109375 9.234375 16.796875 8.0625 
Q 21.484375 6.890625 26.703125 6.890625 
Q 35.15625 6.890625 40.078125 11.328125 
Q 45.015625 15.765625 45.015625 23.390625 
Q 45.015625 31 40.078125 35.4375 
Q 35.15625 39.890625 26.703125 39.890625 
Q 22.75 39.890625 18.8125 39.015625 
Q 14.890625 38.140625 10.796875 36.28125 
z
" id="DejaVuSans-53"/>
      </defs>
      <g transform="translate(540.9795 1404.9575)scale(0.16 -0.16)">
       <use xlink:href="#DejaVuSans-51"/>
       <use x="63.623047" xlink:href="#DejaVuSans-54"/>
       <use x="127.246094" xlink:href="#DejaVuSans-46"/>
       <use x="159.033203" xlink:href="#DejaVuSans-54"/>
       <use x="222.65625" xlink:href="#DejaVuSans-53"/>
      </g>
     </g>
    </g>
    <g id="xtick_6">
     <g id="line2d_6">
      <g>
       <use style="stroke:#000000;stroke-width:0.8;" x="686.295" xlink:href="#mb4a613cde4" y="1385.8"/>
      </g>
     </g>
     <g id="text_6">
      <!-- 45.81 -->
      <g transform="translate(663.3925 1404.9575)scale(0.16 -0.16)">
       <use xlink:href="#DejaVuSans-52"/>
       <use x="63.623047" xlink:href="#DejaVuSans-53"/>
       <use x="127.246094" xlink:href="#DejaVuSans-46"/>
       <use x="159.033203" xlink:href="#DejaVuSans-56"/>
       <use x="222.65625" xlink:href="#DejaVuSans-49"/>
      </g>
     </g>
    </g>
    <g id="text_7">
     <!-- Aquilegia_coerulea (Mb) -->
     <defs>
      <path d="M 34.1875 63.1875 
L 20.796875 26.90625 
L 47.609375 26.90625 
z
M 28.609375 72.90625 
L 39.796875 72.90625 
L 67.578125 0 
L 57.328125 0 
L 50.6875 18.703125 
L 17.828125 18.703125 
L 11.1875 0 
L 0.78125 0 
z
" id="DejaVuSans-65"/>
      <path d="M 14.796875 27.296875 
Q 14.796875 17.390625 18.875 11.75 
Q 22.953125 6.109375 30.078125 6.109375 
Q 37.203125 6.109375 41.296875 11.75 
Q 45.40625 17.390625 45.40625 27.296875 
Q 45.40625 37.203125 41.296875 42.84375 
Q 37.203125 48.484375 30.078125 48.484375 
Q 22.953125 48.484375 18.875 42.84375 
Q 14.796875 37.203125 14.796875 27.296875 
z
M 45.40625 8.203125 
Q 42.578125 3.328125 38.25 0.953125 
Q 33.9375 -1.421875 27.875 -1.421875 
Q 17.96875 -1.421875 11.734375 6.484375 
Q 5.515625 14.40625 5.515625 27.296875 
Q 5.515625 40.1875 11.734375 48.09375 
Q 17.96875 56 27.875 56 
Q 33.9375 56 38.25 53.625 
Q 42.578125 51.265625 45.40625 46.390625 
L 45.40625 54.6875 
L 54.390625 54.6875 
L 54.390625 -20.796875 
L 45.40625 -20.796875 
z
" id="DejaVuSans-113"/>
      <path d="M 8.5 21.578125 
L 8.5 54.6875 
L 17.484375 54.6875 
L 17.484375 21.921875 
Q 17.484375 14.15625 20.5 10.265625 
Q 23.53125 6.390625 29.59375 6.390625 
Q 36.859375 6.390625 41.078125 11.03125 
Q 45.3125 15.671875 45.3125 23.6875 
L 45.3125 54.6875 
L 54.296875 54.6875 
L 54.296875 0 
L 45.3125 0 
L 45.3125 8.40625 
Q 42.046875 3.421875 37.71875 1 
Q 33.40625 -1.421875 27.6875 -1.421875 
Q 18.265625 -1.421875 13.375 4.4375 
Q 8.5 10.296875 8.5 21.578125 
z
M 31.109375 56 
z
" id="DejaVuSans-117"/>
      <path d="M 9.421875 54.6875 
L 18.40625 54.6875 
L 18.40625 0 
L 9.421875 0 
z
M 9.421875 75.984375 
L 18.40625 75.984375 
L 18.40625 64.59375 
L 9.421875 64.59375 
z
" id="DejaVuSans-105"/>
      <path d="M 9.421875 75.984375 
L 18.40625 75.984375 
L 18.40625 0 
L 9.421875 0 
z
" id="DejaVuSans-108"/>
      <path d="M 56.203125 29.59375 
L 56.203125 25.203125 
L 14.890625 25.203125 
Q 15.484375 15.921875 20.484375 11.0625 
Q 25.484375 6.203125 34.421875 6.203125 
Q 39.59375 6.203125 44.453125 7.46875 
Q 49.3125 8.734375 54.109375 11.28125 
L 54.109375 2.78125 
Q 49.265625 0.734375 44.1875 -0.34375 
Q 39.109375 -1.421875 33.890625 -1.421875 
Q 20.796875 -1.421875 13.15625 6.1875 
Q 5.515625 13.8125 5.515625 26.8125 
Q 5.515625 40.234375 12.765625 48.109375 
Q 20.015625 56 32.328125 56 
Q 43.359375 56 49.78125 48.890625 
Q 56.203125 41.796875 56.203125 29.59375 
z
M 47.21875 32.234375 
Q 47.125 39.59375 43.09375 43.984375 
Q 39.0625 48.390625 32.421875 48.390625 
Q 24.90625 48.390625 20.390625 44.140625 
Q 15.875 39.890625 15.1875 32.171875 
z
" id="DejaVuSans-101"/>
      <path d="M 45.40625 27.984375 
Q 45.40625 37.75 41.375 43.109375 
Q 37.359375 48.484375 30.078125 48.484375 
Q 22.859375 48.484375 18.828125 43.109375 
Q 14.796875 37.75 14.796875 27.984375 
Q 14.796875 18.265625 18.828125 12.890625 
Q 22.859375 7.515625 30.078125 7.515625 
Q 37.359375 7.515625 41.375 12.890625 
Q 45.40625 18.265625 45.40625 27.984375 
z
M 54.390625 6.78125 
Q 54.390625 -7.171875 48.1875 -13.984375 
Q 42 -20.796875 29.203125 -20.796875 
Q 24.46875 -20.796875 20.265625 -20.09375 
Q 16.0625 -19.390625 12.109375 -17.921875 
L 12.109375 -9.1875 
Q 16.0625 -11.328125 19.921875 -12.34375 
Q 23.78125 -13.375 27.78125 -13.375 
Q 36.625 -13.375 41.015625 -8.765625 
Q 45.40625 -4.15625 45.40625 5.171875 
L 45.40625 9.625 
Q 42.625 4.78125 38.28125 2.390625 
Q 33.9375 0 27.875 0 
Q 17.828125 0 11.671875 7.65625 
Q 5.515625 15.328125 5.515625 27.984375 
Q 5.515625 40.671875 11.671875 48.328125 
Q 17.828125 56 27.875 56 
Q 33.9375 56 38.28125 53.609375 
Q 42.625 51.21875 45.40625 46.390625 
L 45.40625 54.6875 
L 54.390625 54.6875 
z
" id="DejaVuSans-103"/>
      <path d="M 34.28125 27.484375 
Q 23.390625 27.484375 19.1875 25 
Q 14.984375 22.515625 14.984375 16.5 
Q 14.984375 11.71875 18.140625 8.90625 
Q 21.296875 6.109375 26.703125 6.109375 
Q 34.1875 6.109375 38.703125 11.40625 
Q 43.21875 16.703125 43.21875 25.484375 
L 43.21875 27.484375 
z
M 52.203125 31.203125 
L 52.203125 0 
L 43.21875 0 
L 43.21875 8.296875 
Q 40.140625 3.328125 35.546875 0.953125 
Q 30.953125 -1.421875 24.3125 -1.421875 
Q 15.921875 -1.421875 10.953125 3.296875 
Q 6 8.015625 6 15.921875 
Q 6 25.140625 12.171875 29.828125 
Q 18.359375 34.515625 30.609375 34.515625 
L 43.21875 34.515625 
L 43.21875 35.40625 
Q 43.21875 41.609375 39.140625 45 
Q 35.0625 48.390625 27.6875 48.390625 
Q 23 48.390625 18.546875 47.265625 
Q 14.109375 46.140625 10.015625 43.890625 
L 10.015625 52.203125 
Q 14.9375 54.109375 19.578125 55.046875 
Q 24.21875 56 28.609375 56 
Q 40.484375 56 46.34375 49.84375 
Q 52.203125 43.703125 52.203125 31.203125 
z
" id="DejaVuSans-97"/>
      <path d="M 50.984375 -16.609375 
L 50.984375 -23.578125 
L -0.984375 -23.578125 
L -0.984375 -16.609375 
z
" id="DejaVuSans-95"/>
      <path d="M 48.78125 52.59375 
L 48.78125 44.1875 
Q 44.96875 46.296875 41.140625 47.34375 
Q 37.3125 48.390625 33.40625 48.390625 
Q 24.65625 48.390625 19.8125 42.84375 
Q 14.984375 37.3125 14.984375 27.296875 
Q 14.984375 17.28125 19.8125 11.734375 
Q 24.65625 6.203125 33.40625 6.203125 
Q 37.3125 6.203125 41.140625 7.25 
Q 44.96875 8.296875 48.78125 10.40625 
L 48.78125 2.09375 
Q 45.015625 0.34375 40.984375 -0.53125 
Q 36.96875 -1.421875 32.421875 -1.421875 
Q 20.0625 -1.421875 12.78125 6.34375 
Q 5.515625 14.109375 5.515625 27.296875 
Q 5.515625 40.671875 12.859375 48.328125 
Q 20.21875 56 33.015625 56 
Q 37.15625 56 41.109375 55.140625 
Q 45.0625 54.296875 48.78125 52.59375 
z
" id="DejaVuSans-99"/>
      <path d="M 30.609375 48.390625 
Q 23.390625 48.390625 19.1875 42.75 
Q 14.984375 37.109375 14.984375 27.296875 
Q 14.984375 17.484375 19.15625 11.84375 
Q 23.34375 6.203125 30.609375 6.203125 
Q 37.796875 6.203125 41.984375 11.859375 
Q 46.1875 17.53125 46.1875 27.296875 
Q 46.1875 37.015625 41.984375 42.703125 
Q 37.796875 48.390625 30.609375 48.390625 
z
M 30.609375 56 
Q 42.328125 56 49.015625 48.375 
Q 55.71875 40.765625 55.71875 27.296875 
Q 55.71875 13.875 49.015625 6.21875 
Q 42.328125 -1.421875 30.609375 -1.421875 
Q 18.84375 -1.421875 12.171875 6.21875 
Q 5.515625 13.875 5.515625 27.296875 
Q 5.515625 40.765625 12.171875 48.375 
Q 18.84375 56 30.609375 56 
z
" id="DejaVuSans-111"/>
      <path d="M 41.109375 46.296875 
Q 39.59375 47.171875 37.8125 47.578125 
Q 36.03125 48 33.890625 48 
Q 26.265625 48 22.1875 43.046875 
Q 18.109375 38.09375 18.109375 28.8125 
L 18.109375 0 
L 9.078125 0 
L 9.078125 54.6875 
L 18.109375 54.6875 
L 18.109375 46.1875 
Q 20.953125 51.171875 25.484375 53.578125 
Q 30.03125 56 36.53125 56 
Q 37.453125 56 38.578125 55.875 
Q 39.703125 55.765625 41.0625 55.515625 
z
" id="DejaVuSans-114"/>
      <path id="DejaVuSans-32"/>
      <path d="M 31 75.875 
Q 24.46875 64.65625 21.28125 53.65625 
Q 18.109375 42.671875 18.109375 31.390625 
Q 18.109375 20.125 21.3125 9.0625 
Q 24.515625 -2 31 -13.1875 
L 23.1875 -13.1875 
Q 15.875 -1.703125 12.234375 9.375 
Q 8.59375 20.453125 8.59375 31.390625 
Q 8.59375 42.28125 12.203125 53.3125 
Q 15.828125 64.359375 23.1875 75.875 
z
" id="DejaVuSans-40"/>
      <path d="M 9.8125 72.90625 
L 24.515625 72.90625 
L 43.109375 23.296875 
L 61.8125 72.90625 
L 76.515625 72.90625 
L 76.515625 0 
L 66.890625 0 
L 66.890625 64.015625 
L 48.09375 14.015625 
L 38.1875 14.015625 
L 19.390625 64.015625 
L 19.390625 0 
L 9.8125 0 
z
" id="DejaVuSans-77"/>
      <path d="M 48.6875 27.296875 
Q 48.6875 37.203125 44.609375 42.84375 
Q 40.53125 48.484375 33.40625 48.484375 
Q 26.265625 48.484375 22.1875 42.84375 
Q 18.109375 37.203125 18.109375 27.296875 
Q 18.109375 17.390625 22.1875 11.75 
Q 26.265625 6.109375 33.40625 6.109375 
Q 40.53125 6.109375 44.609375 11.75 
Q 48.6875 17.390625 48.6875 27.296875 
z
M 18.109375 46.390625 
Q 20.953125 51.265625 25.265625 53.625 
Q 29.59375 56 35.59375 56 
Q 45.5625 56 51.78125 48.09375 
Q 58.015625 40.1875 58.015625 27.296875 
Q 58.015625 14.40625 51.78125 6.484375 
Q 45.5625 -1.421875 35.59375 -1.421875 
Q 29.59375 -1.421875 25.265625 0.953125 
Q 20.953125 3.328125 18.109375 8.203125 
L 18.109375 0 
L 9.078125 0 
L 9.078125 75.984375 
L 18.109375 75.984375 
z
" id="DejaVuSans-98"/>
      <path d="M 8.015625 75.875 
L 15.828125 75.875 
Q 23.140625 64.359375 26.78125 53.3125 
Q 30.421875 42.28125 30.421875 31.390625 
Q 30.421875 20.453125 26.78125 9.375 
Q 23.140625 -1.703125 15.828125 -13.1875 
L 8.015625 -13.1875 
Q 14.5 -2 17.703125 9.0625 
Q 20.90625 20.125 20.90625 31.390625 
Q 20.90625 42.671875 17.703125 53.65625 
Q 14.5 64.65625 8.015625 75.875 
z
" id="DejaVuSans-41"/>
     </defs>
     <g transform="translate(271.766094 1425.962188)scale(0.18 -0.18)">
      <use xlink:href="#DejaVuSans-65"/>
      <use x="66.658203" xlink:href="#DejaVuSans-113"/>
      <use x="130.134766" xlink:href="#DejaVuSans-117"/>
      <use x="193.513672" xlink:href="#DejaVuSans-105"/>
      <use x="221.296875" xlink:href="#DejaVuSans-108"/>
      <use x="249.080078" xlink:href="#DejaVuSans-101"/>
      <use x="310.603516" xlink:href="#DejaVuSans-103"/>
      <use x="374.080078" xlink:href="#DejaVuSans-105"/>
      <use x="401.863281" xlink:href="#DejaVuSans-97"/>
      <use x="463.142578" xlink:href="#DejaVuSans-95"/>
      <use x="513.142578" xlink:href="#DejaVuSans-99"/>
      <use x="568.123047" xlink:href="#DejaVuSans-111"/>
      <use x="629.304688" xlink:href="#DejaVuSans-101"/>
      <use x="690.828125" xlink:href="#DejaVuSans-114"/>
      <use x="731.941406" xlink:href="#DejaVuSans-117"/>
      <use x="795.320312" xlink:href="#DejaVuSans-108"/>
      <use x="823.103516" xlink:href="#DejaVuSans-101"/>
      <use x="884.626953" xlink:href="#DejaVuSans-97"/>
      <use x="945.90625" xlink:href="#DejaVuSans-32"/>
      <use x="977.693359" xlink:href="#DejaVuSans-40"/>
      <use x="1016.707031" xlink:href="#DejaVuSans-77"/>
      <use x="1102.986328" xlink:href="#DejaVuSans-98"/>
      <use x="1166.462891" xlink:href="#DejaVuSans-41"/>
     </g>
    </g>
   </g>
   <g id="matplotlib.axis_2">
    <g id="ytick_1">
     <g id="line2d_7">
      <defs>
       <path d="M 0 0 
L -3.5 0 
" id="m8fca9fa16f" style="stroke:#000000;stroke-width:0.8;"/>
      </defs>
      <g>
       <use style="stroke:#000000;stroke-width:0.8;" x="74.23" xlink:href="#m8fca9fa16f" y="1307.675"/>
      </g>
     </g>
     <g id="text_8">
      <!-- Chr_04 -->
      <defs>
       <path d="M 64.40625 67.28125 
L 64.40625 56.890625 
Q 59.421875 61.53125 53.78125 63.8125 
Q 48.140625 66.109375 41.796875 66.109375 
Q 29.296875 66.109375 22.65625 58.46875 
Q 16.015625 50.828125 16.015625 36.375 
Q 16.015625 21.96875 22.65625 14.328125 
Q 29.296875 6.6875 41.796875 6.6875 
Q 48.140625 6.6875 53.78125 8.984375 
Q 59.421875 11.28125 64.40625 15.921875 
L 64.40625 5.609375 
Q 59.234375 2.09375 53.4375 0.328125 
Q 47.65625 -1.421875 41.21875 -1.421875 
Q 24.65625 -1.421875 15.125 8.703125 
Q 5.609375 18.84375 5.609375 36.375 
Q 5.609375 53.953125 15.125 64.078125 
Q 24.65625 74.21875 41.21875 74.21875 
Q 47.75 74.21875 53.53125 72.484375 
Q 59.328125 70.75 64.40625 67.28125 
z
" id="DejaVuSans-67"/>
       <path d="M 54.890625 33.015625 
L 54.890625 0 
L 45.90625 0 
L 45.90625 32.71875 
Q 45.90625 40.484375 42.875 44.328125 
Q 39.84375 48.1875 33.796875 48.1875 
Q 26.515625 48.1875 22.3125 43.546875 
Q 18.109375 38.921875 18.109375 30.90625 
L 18.109375 0 
L 9.078125 0 
L 9.078125 75.984375 
L 18.109375 75.984375 
L 18.109375 46.1875 
Q 21.34375 51.125 25.703125 53.5625 
Q 30.078125 56 35.796875 56 
Q 45.21875 56 50.046875 50.171875 
Q 54.890625 44.34375 54.890625 33.015625 
z
" id="DejaVuSans-104"/>
      </defs>
      <g transform="translate(10.98 1313.75375)scale(0.16 -0.16)">
       <use xlink:href="#DejaVuSans-67"/>
       <use x="69.824219" xlink:href="#DejaVuSans-104"/>
       <use x="133.203125" xlink:href="#DejaVuSans-114"/>
       <use x="174.316406" xlink:href="#DejaVuSans-95"/>
       <use x="224.316406" xlink:href="#DejaVuSans-48"/>
       <use x="287.939453" xlink:href="#DejaVuSans-52"/>
      </g>
     </g>
    </g>
    <g id="ytick_2">
     <g id="line2d_8">
      <g>
       <use style="stroke:#000000;stroke-width:0.8;" x="74.23" xlink:href="#m8fca9fa16f" y="1120.175"/>
      </g>
     </g>
     <g id="text_9">
      <!-- Chr_01 -->
      <g transform="translate(10.98 1126.25375)scale(0.16 -0.16)">
       <use xlink:href="#DejaVuSans-67"/>
       <use x="69.824219" xlink:href="#DejaVuSans-104"/>
       <use x="133.203125" xlink:href="#DejaVuSans-114"/>
       <use x="174.316406" xlink:href="#DejaVuSans-95"/>
       <use x="224.316406" xlink:href="#DejaVuSans-48"/>
       <use x="287.939453" xlink:href="#DejaVuSans-49"/>
      </g>
     </g>
    </g>
    <g id="ytick_3">
     <g id="line2d_9">
      <g>
       <use style="stroke:#000000;stroke-width:0.8;" x="74.23" xlink:href="#m8fca9fa16f" y="932.675"/>
      </g>
     </g>
     <g id="text_10">
      <!-- Chr_05 -->
      <g transform="translate(10.98 938.75375)scale(0.16 -0.16)">
       <use xlink:href="#DejaVuSans-67"/>
       <use x="69.824219" xlink:href="#DejaVuSans-104"/>
       <use x="133.203125" xlink:href="#DejaVuSans-114"/>
       <use x="174.316406" xlink:href="#DejaVuSans-95"/>
       <use x="224.316406" xlink:href="#DejaVuSans-48"/>
       <use x="287.939453" xlink:href="#DejaVuSans-53"/>
      </g>
     </g>
    </g>
    <g id="ytick_4">
     <g id="line2d_10">
      <g>
       <use style="stroke:#000000;stroke-width:0.8;" x="74.23" xlink:href="#m8fca9fa16f" y="745.175"/>
      </g>
     </g>
     <g id="text_11">
      <!-- Chr_07 -->
      <g transform="translate(10.98 751.25375)scale(0.16 -0.16)">
       <use xlink:href="#DejaVuSans-67"/>
       <use x="69.824219" xlink:href="#DejaVuSans-104"/>
       <use x="133.203125" xlink:href="#DejaVuSans-114"/>
       <use x="174.316406" xlink:href="#DejaVuSans-95"/>
       <use x="224.316406" xlink:href="#DejaVuSans-48"/>
       <use x="287.939453" xlink:href="#DejaVuSans-55"/>
      </g>
     </g>
    </g>
    <g id="ytick_5">
     <g id="line2d_11">
      <g>
       <use style="stroke:#000000;stroke-width:0.8;" x="74.23" xlink:href="#m8fca9fa16f" y="557.675"/>
      </g>
     </g>
     <g id="text_12">
      <!-- Chr_02 -->
      <g transform="translate(10.98 563.75375)scale(0.16 -0.16)">
       <use xlink:href="#DejaVuSans-67"/>
       <use x="69.824219" xlink:href="#DejaVuSans-104"/>
       <use x="133.203125" xlink:href="#DejaVuSans-114"/>
       <use x="174.316406" xlink:href="#DejaVuSans-95"/>
       <use x="224.316406" xlink:href="#DejaVuSans-48"/>
       <use x="287.939453" xlink:href="#DejaVuSans-50"/>
      </g>
     </g>
    </g>
    <g id="ytick_6">
     <g id="line2d_12">
      <g>
       <use style="stroke:#000000;stroke-width:0.8;" x="74.23" xlink:href="#m8fca9fa16f" y="370.175"/>
      </g>
     </g>
     <g id="text_13">
      <!-- Chr_03 -->
      <g transform="translate(10.98 376.25375)scale(0.16 -0.16)">
       <use xlink:href="#DejaVuSans-67"/>
       <use x="69.824219" xlink:href="#DejaVuSans-104"/>
       <use x="133.203125" xlink:href="#DejaVuSans-114"/>
       <use x="174.316406" xlink:href="#DejaVuSans-95"/>
       <use x="224.316406" xlink:href="#DejaVuSans-48"/>
       <use x="287.939453" xlink:href="#DejaVuSans-51"/>
      </g>
     </g>
    </g>
    <g id="ytick_7">
     <g id="line2d_13">
      <g>
       <use style="stroke:#000000;stroke-width:0.8;" x="74.23" xlink:href="#m8fca9fa16f" y="182.675"/>
      </g>
     </g>
     <g id="text_14">
      <!-- Chr_06 -->
      <g transform="translate(10.98 188.75375)scale(0.16 -0.16)">
       <use xlink:href="#DejaVuSans-67"/>
       <use x="69.824219" xlink:href="#DejaVuSans-104"/>
       <use x="133.203125" xlink:href="#DejaVuSans-114"/>
       <use x="174.316406" xlink:href="#DejaVuSans-95"/>
       <use x="224.316406" xlink:href="#DejaVuSans-48"/>
       <use x="287.939453" xlink:href="#DejaVuSans-54"/>
      </g>
     </g>
    </g>
   </g>
   <g id="patch_128">
    <path clip-path="url(#p85ac1b6d92)" d="M 452.844291 1323.3 
L 468.431949 1323.3 
L 468.431949 1292.05 
L 452.844291 1292.05 
z
" style="fill:#008000;opacity:0.4;"/>
   </g>
   <g id="patch_129">
    <path clip-path="url(#p85ac1b6d92)" d="M 193.298346 1323.3 
L 215.851592 1323.3 
L 215.851592 1292.05 
L 193.298346 1292.05 
z
" style="fill:#008000;opacity:0.4;"/>
   </g>
   <g id="patch_130">
    <path clip-path="url(#p85ac1b6d92)" d="M 123.999242 1323.3 
L 131.253174 1323.3 
L 131.253174 1292.05 
L 123.999242 1292.05 
z
" style="fill:#008000;opacity:0.4;"/>
   </g>
   <g id="patch_131">
    <path clip-path="url(#p85ac1b6d92)" d="M 156.649647 1323.3 
L 166.790174 1323.3 
L 166.790174 1292.05 
L 156.649647 1292.05 
z
" style="fill:#008000;opacity:0.4;"/>
   </g>
   <g id="patch_132">
    <path clip-path="url(#p85ac1b6d92)" d="M 423.411339 1323.3 
L 446.994048 1323.3 
L 446.994048 1292.05 
L 423.411339 1292.05 
z
" style="fill:#008000;opacity:0.4;"/>
   </g>
   <g id="patch_133">
    <path clip-path="url(#p85ac1b6d92)" d="M 372.89852 1323.3 
L 382.53085 1323.3 
L 382.53085 1292.05 
L 372.89852 1292.05 
z
" style="fill:#008000;opacity:0.4;"/>
   </g>
   <g id="patch_134">
    <path clip-path="url(#p85ac1b6d92)" d="M 636.058753 1323.3 
L 642.050128 1323.3 
L 642.050128 1292.05 
L 636.058753 1292.05 
z
" style="fill:#008000;opacity:0.4;"/>
   </g>
   <g id="patch_135">
    <path clip-path="url(#p85ac1b6d92)" d="M 637.296646 1323.3 
L 640.959152 1323.3 
L 640.959152 1292.05 
L 637.296646 1292.05 
z
" style="fill:#008000;opacity:0.4;"/>
   </g>
   <g id="patch_136">
    <path clip-path="url(#p85ac1b6d92)" d="M 232.05495 1323.3 
L 238.452979 1323.3 
L 238.452979 1292.05 
L 232.05495 1292.05 
z
" style="fill:#008000;opacity:0.4;"/>
   </g>
   <g id="patch_137">
    <path clip-path="url(#p85ac1b6d92)" d="M 102.598284 1323.3 
L 107.784514 1323.3 
L 107.784514 1292.05 
L 102.598284 1292.05 
z
" style="fill:#008000;opacity:0.4;"/>
   </g>
   <g id="patch_138">
    <path clip-path="url(#p85ac1b6d92)" d="M 659.188351 1323.3 
L 665.243659 1323.3 
L 665.243659 1292.05 
L 659.188351 1292.05 
z
" style="fill:#008000;opacity:0.4;"/>
   </g>
   <g id="patch_139">
    <path clip-path="url(#p85ac1b6d92)" d="M 152.146255 1323.3 
L 156.251303 1323.3 
L 156.251303 1292.05 
L 152.146255 1292.05 
z
" style="fill:#008000;opacity:0.4;"/>
   </g>
   <g id="patch_140">
    <path clip-path="url(#p85ac1b6d92)" d="M 300.806628 1323.3 
L 307.629897 1323.3 
L 307.629897 1292.05 
L 300.806628 1292.05 
z
" style="fill:#008000;opacity:0.4;"/>
   </g>
   <g id="patch_141">
    <path clip-path="url(#p85ac1b6d92)" d="M 84.864509 1323.3 
L 89.270326 1323.3 
L 89.270326 1292.05 
L 84.864509 1292.05 
z
" style="fill:#008000;opacity:0.4;"/>
   </g>
   <g id="patch_142">
    <path clip-path="url(#p85ac1b6d92)" d="M 670.351367 1323.3 
L 674.133694 1323.3 
L 674.133694 1292.05 
L 670.351367 1292.05 
z
" style="fill:#008000;opacity:0.4;"/>
   </g>
   <g id="patch_143">
    <path clip-path="url(#p85ac1b6d92)" d="M 629.97003 1323.3 
L 637.941031 1323.3 
L 637.941031 1292.05 
L 629.97003 1292.05 
z
" style="fill:#008000;opacity:0.4;"/>
   </g>
   <g id="patch_144">
    <path clip-path="url(#p85ac1b6d92)" d="M 551.140232 1323.3 
L 561.043015 1323.3 
L 561.043015 1292.05 
L 551.140232 1292.05 
z
" style="fill:#008000;opacity:0.4;"/>
   </g>
   <g id="patch_145">
    <path clip-path="url(#p85ac1b6d92)" d="M 448.204284 1323.3 
L 455.849145 1323.3 
L 455.849145 1292.05 
L 448.204284 1292.05 
z
" style="fill:#008000;opacity:0.4;"/>
   </g>
   <g id="patch_146">
    <path clip-path="url(#p85ac1b6d92)" d="M 601.91828 1323.3 
L 610.696017 1323.3 
L 610.696017 1292.05 
L 601.91828 1292.05 
z
" style="fill:#008000;opacity:0.4;"/>
   </g>
   <g id="patch_147">
    <path clip-path="url(#p85ac1b6d92)" d="M 298.691241 1323.3 
L 303.442425 1323.3 
L 303.442425 1292.05 
L 298.691241 1292.05 
z
" style="fill:#008000;opacity:0.4;"/>
   </g>
   <g id="patch_148">
    <path clip-path="url(#p85ac1b6d92)" d="M 503.570592 1323.3 
L 520.314814 1323.3 
L 520.314814 1292.05 
L 503.570592 1292.05 
z
" style="fill:#008000;opacity:0.4;"/>
   </g>
   <g id="patch_149">
    <path clip-path="url(#p85ac1b6d92)" d="M 117.732163 1323.3 
L 123.260621 1323.3 
L 123.260621 1292.05 
L 117.732163 1292.05 
z
" style="fill:#008000;opacity:0.4;"/>
   </g>
   <g id="patch_150">
    <path clip-path="url(#p85ac1b6d92)" d="M 241.375382 1323.3 
L 250.350139 1323.3 
L 250.350139 1292.05 
L 241.375382 1292.05 
z
" style="fill:#008000;opacity:0.4;"/>
   </g>
   <g id="patch_151">
    <path clip-path="url(#p85ac1b6d92)" d="M 98.244508 1323.3 
L 102.571148 1323.3 
L 102.571148 1292.05 
L 98.244508 1292.05 
z
" style="fill:#008000;opacity:0.4;"/>
   </g>
   <g id="patch_152">
    <path clip-path="url(#p85ac1b6d92)" d="M 596.875934 1135.8 
L 615.533846 1135.8 
L 615.533846 1104.55 
L 596.875934 1104.55 
z
" style="fill:#008000;opacity:0.4;"/>
   </g>
   <g id="patch_153">
    <path clip-path="url(#p85ac1b6d92)" d="M 641.115195 1135.8 
L 653.441789 1135.8 
L 653.441789 1104.55 
L 641.115195 1104.55 
z
" style="fill:#008000;opacity:0.4;"/>
   </g>
   <g id="patch_154">
    <path clip-path="url(#p85ac1b6d92)" d="M 164.258125 1135.8 
L 173.725889 1135.8 
L 173.725889 1104.55 
L 164.258125 1104.55 
z
" style="fill:#008000;opacity:0.4;"/>
   </g>
   <g id="patch_155">
    <path clip-path="url(#p85ac1b6d92)" d="M 85.516577 1135.8 
L 88.843884 1135.8 
L 88.843884 1104.55 
L 85.516577 1104.55 
z
" style="fill:#008000;opacity:0.4;"/>
   </g>
   <g id="patch_156">
    <path clip-path="url(#p85ac1b6d92)" d="M 166.434265 1135.8 
L 168.993664 1135.8 
L 168.993664 1104.55 
L 166.434265 1104.55 
z
" style="fill:#008000;opacity:0.4;"/>
   </g>
   <g id="patch_157">
    <path clip-path="url(#p85ac1b6d92)" d="M 301.157821 1135.8 
L 313.437746 1135.8 
L 313.437746 1104.55 
L 301.157821 1104.55 
z
" style="fill:#008000;opacity:0.4;"/>
   </g>
   <g id="patch_158">
    <path clip-path="url(#p85ac1b6d92)" d="M 626.748368 1135.8 
L 635.729218 1135.8 
L 635.729218 1104.55 
L 626.748368 1104.55 
z
" style="fill:#008000;opacity:0.4;"/>
   </g>
   <g id="patch_159">
    <path clip-path="url(#p85ac1b6d92)" d="M 619.694236 1135.8 
L 625.168809 1135.8 
L 625.168809 1104.55 
L 619.694236 1104.55 
z
" style="fill:#008000;opacity:0.4;"/>
   </g>
   <g id="patch_160">
    <path clip-path="url(#p85ac1b6d92)" d="M 141.685999 1135.8 
L 147.550218 1135.8 
L 147.550218 1104.55 
L 141.685999 1104.55 
z
" style="fill:#008000;opacity:0.4;"/>
   </g>
   <g id="patch_161">
    <path clip-path="url(#p85ac1b6d92)" d="M 160.001137 1135.8 
L 163.369862 1135.8 
L 163.369862 1104.55 
L 160.001137 1104.55 
z
" style="fill:#008000;opacity:0.4;"/>
   </g>
   <g id="patch_162">
    <path clip-path="url(#p85ac1b6d92)" d="M 115.050525 1135.8 
L 122.570848 1135.8 
L 122.570848 1104.55 
L 115.050525 1104.55 
z
" style="fill:#008000;opacity:0.4;"/>
   </g>
   <g id="patch_163">
    <path clip-path="url(#p85ac1b6d92)" d="M 155.973849 1135.8 
L 158.543189 1135.8 
L 158.543189 1104.55 
L 155.973849 1104.55 
z
" style="fill:#008000;opacity:0.4;"/>
   </g>
   <g id="patch_164">
    <path clip-path="url(#p85ac1b6d92)" d="M 256.664061 1135.8 
L 262.820283 1135.8 
L 262.820283 1104.55 
L 256.664061 1104.55 
z
" style="fill:#008000;opacity:0.4;"/>
   </g>
   <g id="patch_165">
    <path clip-path="url(#p85ac1b6d92)" d="M 185.267701 1135.8 
L 189.086744 1135.8 
L 189.086744 1104.55 
L 185.267701 1104.55 
z
" style="fill:#008000;opacity:0.4;"/>
   </g>
   <g id="patch_166">
    <path clip-path="url(#p85ac1b6d92)" d="M 636.499491 1135.8 
L 640.994492 1135.8 
L 640.994492 1104.55 
L 636.499491 1104.55 
z
" style="fill:#008000;opacity:0.4;"/>
   </g>
   <g id="patch_167">
    <path clip-path="url(#p85ac1b6d92)" d="M 148.309067 1135.8 
L 152.185202 1135.8 
L 152.185202 1104.55 
L 148.309067 1104.55 
z
" style="fill:#008000;opacity:0.4;"/>
   </g>
   <g id="patch_168">
    <path clip-path="url(#p85ac1b6d92)" d="M 286.730336 1135.8 
L 295.877249 1135.8 
L 295.877249 1104.55 
L 286.730336 1104.55 
z
" style="fill:#008000;opacity:0.4;"/>
   </g>
   <g id="patch_169">
    <path clip-path="url(#p85ac1b6d92)" d="M 274.688931 1135.8 
L 283.478519 1135.8 
L 283.478519 1104.55 
L 274.688931 1104.55 
z
" style="fill:#008000;opacity:0.4;"/>
   </g>
   <g id="patch_170">
    <path clip-path="url(#p85ac1b6d92)" d="M 583.805949 1135.8 
L 591.100793 1135.8 
L 591.100793 1104.55 
L 583.805949 1104.55 
z
" style="fill:#008000;opacity:0.4;"/>
   </g>
   <g id="patch_171">
    <path clip-path="url(#p85ac1b6d92)" d="M 313.928467 1135.8 
L 326.675037 1135.8 
L 326.675037 1104.55 
L 313.928467 1104.55 
z
" style="fill:#008000;opacity:0.4;"/>
   </g>
   <g id="patch_172">
    <path clip-path="url(#p85ac1b6d92)" d="M 320.67789 1135.8 
L 327.317579 1135.8 
L 327.317579 1104.55 
L 320.67789 1104.55 
z
" style="fill:#008000;opacity:0.4;"/>
   </g>
   <g id="patch_173">
    <path clip-path="url(#p85ac1b6d92)" d="M 384.591271 1135.8 
L 393.396063 1135.8 
L 393.396063 1104.55 
L 384.591271 1104.55 
z
" style="fill:#008000;opacity:0.4;"/>
   </g>
   <g id="patch_174">
    <path clip-path="url(#p85ac1b6d92)" d="M 243.565323 1135.8 
L 248.068087 1135.8 
L 248.068087 1104.55 
L 243.565323 1104.55 
z
" style="fill:#008000;opacity:0.4;"/>
   </g>
   <g id="patch_175">
    <path clip-path="url(#p85ac1b6d92)" d="M 243.734513 1135.8 
L 246.583043 1135.8 
L 246.583043 1104.55 
L 243.734513 1104.55 
z
" style="fill:#008000;opacity:0.4;"/>
   </g>
   <g id="patch_176">
    <path clip-path="url(#p85ac1b6d92)" d="M 444.608622 1135.8 
L 456.342044 1135.8 
L 456.342044 1104.55 
L 444.608622 1104.55 
z
" style="fill:#008000;opacity:0.4;"/>
   </g>
   <g id="patch_177">
    <path clip-path="url(#p85ac1b6d92)" d="M 138.932266 1135.8 
L 143.679134 1135.8 
L 143.679134 1104.55 
L 138.932266 1104.55 
z
" style="fill:#008000;opacity:0.4;"/>
   </g>
   <g id="patch_178">
    <path clip-path="url(#p85ac1b6d92)" d="M 199.032829 1135.8 
L 201.879769 1135.8 
L 201.879769 1104.55 
L 199.032829 1104.55 
z
" style="fill:#008000;opacity:0.4;"/>
   </g>
   <g id="patch_179">
    <path clip-path="url(#p85ac1b6d92)" d="M 263.852698 1135.8 
L 268.523623 1135.8 
L 268.523623 1104.55 
L 263.852698 1104.55 
z
" style="fill:#008000;opacity:0.4;"/>
   </g>
   <g id="patch_180">
    <path clip-path="url(#p85ac1b6d92)" d="M 654.084264 1135.8 
L 657.520743 1135.8 
L 657.520743 1104.55 
L 654.084264 1104.55 
z
" style="fill:#008000;opacity:0.4;"/>
   </g>
   <g id="patch_181">
    <path clip-path="url(#p85ac1b6d92)" d="M 232.909263 1135.8 
L 235.757913 1135.8 
L 235.757913 1104.55 
L 232.909263 1104.55 
z
" style="fill:#008000;opacity:0.4;"/>
   </g>
   <g id="patch_182">
    <path clip-path="url(#p85ac1b6d92)" d="M 86.354229 948.3 
L 119.707635 948.3 
L 119.707635 917.05 
L 86.354229 917.05 
z
" style="fill:#008000;opacity:0.4;"/>
   </g>
   <g id="patch_183">
    <path clip-path="url(#p85ac1b6d92)" d="M 181.476755 948.3 
L 201.950088 948.3 
L 201.950088 917.05 
L 181.476755 917.05 
z
" style="fill:#008000;opacity:0.4;"/>
   </g>
   <g id="patch_184">
    <path clip-path="url(#p85ac1b6d92)" d="M 224.275223 948.3 
L 241.423 948.3 
L 241.423 917.05 
L 224.275223 917.05 
z
" style="fill:#008000;opacity:0.4;"/>
   </g>
   <g id="patch_185">
    <path clip-path="url(#p85ac1b6d92)" d="M 232.115809 948.3 
L 238.272058 948.3 
L 238.272058 917.05 
L 232.115809 917.05 
z
" style="fill:#008000;opacity:0.4;"/>
   </g>
   <g id="patch_186">
    <path clip-path="url(#p85ac1b6d92)" d="M 630.503185 948.3 
L 636.680572 948.3 
L 636.680572 917.05 
L 630.503185 917.05 
z
" style="fill:#008000;opacity:0.4;"/>
   </g>
   <g id="patch_187">
    <path clip-path="url(#p85ac1b6d92)" d="M 119.813707 948.3 
L 127.898838 948.3 
L 127.898838 917.05 
L 119.813707 917.05 
z
" style="fill:#008000;opacity:0.4;"/>
   </g>
   <g id="patch_188">
    <path clip-path="url(#p85ac1b6d92)" d="M 134.53003 948.3 
L 142.286414 948.3 
L 142.286414 917.05 
L 134.53003 917.05 
z
" style="fill:#008000;opacity:0.4;"/>
   </g>
   <g id="patch_189">
    <path clip-path="url(#p85ac1b6d92)" d="M 588.239837 948.3 
L 601.851595 948.3 
L 601.851595 917.05 
L 588.239837 917.05 
z
" style="fill:#008000;opacity:0.4;"/>
   </g>
   <g id="patch_190">
    <path clip-path="url(#p85ac1b6d92)" d="M 597.731329 948.3 
L 601.216482 948.3 
L 601.216482 917.05 
L 597.731329 917.05 
z
" style="fill:#008000;opacity:0.4;"/>
   </g>
   <g id="patch_191">
    <path clip-path="url(#p85ac1b6d92)" d="M 208.851933 948.3 
L 220.419838 948.3 
L 220.419838 917.05 
L 208.851933 917.05 
z
" style="fill:#008000;opacity:0.4;"/>
   </g>
   <g id="patch_192">
    <path clip-path="url(#p85ac1b6d92)" d="M 200.842465 948.3 
L 206.600758 948.3 
L 206.600758 917.05 
L 200.842465 917.05 
z
" style="fill:#008000;opacity:0.4;"/>
   </g>
   <g id="patch_193">
    <path clip-path="url(#p85ac1b6d92)" d="M 400.825224 948.3 
L 406.929834 948.3 
L 406.929834 917.05 
L 400.825224 917.05 
z
" style="fill:#008000;opacity:0.4;"/>
   </g>
   <g id="patch_194">
    <path clip-path="url(#p85ac1b6d92)" d="M 163.402022 948.3 
L 166.558081 948.3 
L 166.558081 917.05 
L 163.402022 917.05 
z
" style="fill:#008000;opacity:0.4;"/>
   </g>
   <g id="patch_195">
    <path clip-path="url(#p85ac1b6d92)" d="M 602.841295 948.3 
L 609.830707 948.3 
L 609.830707 917.05 
L 602.841295 917.05 
z
" style="fill:#008000;opacity:0.4;"/>
   </g>
   <g id="patch_196">
    <path clip-path="url(#p85ac1b6d92)" d="M 128.912588 948.3 
L 133.801644 948.3 
L 133.801644 917.05 
L 128.912588 917.05 
z
" style="fill:#008000;opacity:0.4;"/>
   </g>
   <g id="patch_197">
    <path clip-path="url(#p85ac1b6d92)" d="M 154.533057 948.3 
L 157.153034 948.3 
L 157.153034 917.05 
L 154.533057 917.05 
z
" style="fill:#008000;opacity:0.4;"/>
   </g>
   <g id="patch_198">
    <path clip-path="url(#p85ac1b6d92)" d="M 625.629348 948.3 
L 630.503185 948.3 
L 630.503185 917.05 
L 625.629348 917.05 
z
" style="fill:#008000;opacity:0.4;"/>
   </g>
   <g id="patch_199">
    <path clip-path="url(#p85ac1b6d92)" d="M 622.79176 948.3 
L 626.139349 948.3 
L 626.139349 917.05 
L 622.79176 917.05 
z
" style="fill:#008000;opacity:0.4;"/>
   </g>
   <g id="patch_200">
    <path clip-path="url(#p85ac1b6d92)" d="M 237.630385 760.8 
L 243.420397 760.8 
L 243.420397 729.55 
L 237.630385 729.55 
z
" style="fill:#008000;opacity:0.4;"/>
   </g>
   <g id="patch_201">
    <path clip-path="url(#p85ac1b6d92)" d="M 345.268576 760.8 
L 346.840814 760.8 
L 346.840814 729.55 
L 345.268576 729.55 
z
" style="fill:#008000;opacity:0.4;"/>
   </g>
   <g id="patch_202">
    <path clip-path="url(#p85ac1b6d92)" d="M 631.574534 760.8 
L 634.77427 760.8 
L 634.77427 729.55 
L 631.574534 729.55 
z
" style="fill:#008000;opacity:0.4;"/>
   </g>
   <g id="patch_203">
    <path clip-path="url(#p85ac1b6d92)" d="M 190.989545 760.8 
L 197.79038 760.8 
L 197.79038 729.55 
L 190.989545 729.55 
z
" style="fill:#008000;opacity:0.4;"/>
   </g>
   <g id="patch_204">
    <path clip-path="url(#p85ac1b6d92)" d="M 629.29307 760.8 
L 631.540437 760.8 
L 631.540437 729.55 
L 629.29307 729.55 
z
" style="fill:#008000;opacity:0.4;"/>
   </g>
   <g id="patch_205">
    <path clip-path="url(#p85ac1b6d92)" d="M 218.835215 760.8 
L 223.95742 760.8 
L 223.95742 729.55 
L 218.835215 729.55 
z
" style="fill:#008000;opacity:0.4;"/>
   </g>
   <g id="patch_206">
    <path clip-path="url(#p85ac1b6d92)" d="M 569.638401 760.8 
L 576.351362 760.8 
L 576.351362 729.55 
L 569.638401 729.55 
z
" style="fill:#008000;opacity:0.4;"/>
   </g>
   <g id="patch_207">
    <path clip-path="url(#p85ac1b6d92)" d="M 322.536947 760.8 
L 336.401174 760.8 
L 336.401174 729.55 
L 322.536947 729.55 
z
" style="fill:#008000;opacity:0.4;"/>
   </g>
   <g id="patch_208">
    <path clip-path="url(#p85ac1b6d92)" d="M 537.490275 760.8 
L 542.486165 760.8 
L 542.486165 729.55 
L 537.490275 729.55 
z
" style="fill:#008000;opacity:0.4;"/>
   </g>
   <g id="patch_209">
    <path clip-path="url(#p85ac1b6d92)" d="M 207.21102 760.8 
L 218.236711 760.8 
L 218.236711 729.55 
L 207.21102 729.55 
z
" style="fill:#008000;opacity:0.4;"/>
   </g>
   <g id="patch_210">
    <path clip-path="url(#p85ac1b6d92)" d="M 569.799441 573.3 
L 610.327548 573.3 
L 610.327548 542.05 
L 569.799441 542.05 
z
" style="fill:#008000;opacity:0.4;"/>
   </g>
   <g id="patch_211">
    <path clip-path="url(#p85ac1b6d92)" d="M 158.766664 573.3 
L 177.426273 573.3 
L 177.426273 542.05 
L 158.766664 542.05 
z
" style="fill:#008000;opacity:0.4;"/>
   </g>
   <g id="patch_212">
    <path clip-path="url(#p85ac1b6d92)" d="M 557.379988 573.3 
L 567.336468 573.3 
L 567.336468 542.05 
L 557.379988 542.05 
z
" style="fill:#008000;opacity:0.4;"/>
   </g>
   <g id="patch_213">
    <path clip-path="url(#p85ac1b6d92)" d="M 351.724685 573.3 
L 377.614311 573.3 
L 377.614311 542.05 
L 351.724685 542.05 
z
" style="fill:#008000;opacity:0.4;"/>
   </g>
   <g id="patch_214">
    <path clip-path="url(#p85ac1b6d92)" d="M 532.033285 573.3 
L 546.793966 573.3 
L 546.793966 542.05 
L 532.033285 542.05 
z
" style="fill:#008000;opacity:0.4;"/>
   </g>
   <g id="patch_215">
    <path clip-path="url(#p85ac1b6d92)" d="M 398.719617 573.3 
L 435.783254 573.3 
L 435.783254 542.05 
L 398.719617 542.05 
z
" style="fill:#008000;opacity:0.4;"/>
   </g>
   <g id="patch_216">
    <path clip-path="url(#p85ac1b6d92)" d="M 404.58246 573.3 
L 415.25303 573.3 
L 415.25303 542.05 
L 404.58246 542.05 
z
" style="fill:#008000;opacity:0.4;"/>
   </g>
   <g id="patch_217">
    <path clip-path="url(#p85ac1b6d92)" d="M 418.158024 573.3 
L 429.681224 573.3 
L 429.681224 542.05 
L 418.158024 542.05 
z
" style="fill:#008000;opacity:0.4;"/>
   </g>
   <g id="patch_218">
    <path clip-path="url(#p85ac1b6d92)" d="M 217.3417 573.3 
L 246.664077 573.3 
L 246.664077 542.05 
L 217.3417 542.05 
z
" style="fill:#008000;opacity:0.4;"/>
   </g>
   <g id="patch_219">
    <path clip-path="url(#p85ac1b6d92)" d="M 385.293883 573.3 
L 387.578113 573.3 
L 387.578113 542.05 
L 385.293883 542.05 
z
" style="fill:#008000;opacity:0.4;"/>
   </g>
   <g id="patch_220">
    <path clip-path="url(#p85ac1b6d92)" d="M 200.742217 573.3 
L 209.866657 573.3 
L 209.866657 542.05 
L 200.742217 542.05 
z
" style="fill:#008000;opacity:0.4;"/>
   </g>
   <g id="patch_221">
    <path clip-path="url(#p85ac1b6d92)" d="M 386.674498 573.3 
L 391.099541 573.3 
L 391.099541 542.05 
L 386.674498 542.05 
z
" style="fill:#008000;opacity:0.4;"/>
   </g>
   <g id="patch_222">
    <path clip-path="url(#p85ac1b6d92)" d="M 384.61031 573.3 
L 388.035446 573.3 
L 388.035446 542.05 
L 384.61031 542.05 
z
" style="fill:#008000;opacity:0.4;"/>
   </g>
   <g id="patch_223">
    <path clip-path="url(#p85ac1b6d92)" d="M 293.854239 573.3 
L 314.519102 573.3 
L 314.519102 542.05 
L 293.854239 542.05 
z
" style="fill:#008000;opacity:0.4;"/>
   </g>
   <g id="patch_224">
    <path clip-path="url(#p85ac1b6d92)" d="M 482.686022 573.3 
L 491.282691 573.3 
L 491.282691 542.05 
L 482.686022 542.05 
z
" style="fill:#008000;opacity:0.4;"/>
   </g>
   <g id="patch_225">
    <path clip-path="url(#p85ac1b6d92)" d="M 131.416432 573.3 
L 139.273812 573.3 
L 139.273812 542.05 
L 131.416432 542.05 
z
" style="fill:#008000;opacity:0.4;"/>
   </g>
   <g id="patch_226">
    <path clip-path="url(#p85ac1b6d92)" d="M 380.353041 573.3 
L 383.668015 573.3 
L 383.668015 542.05 
L 380.353041 542.05 
z
" style="fill:#008000;opacity:0.4;"/>
   </g>
   <g id="patch_227">
    <path clip-path="url(#p85ac1b6d92)" d="M 153.60781 573.3 
L 157.516746 573.3 
L 157.516746 542.05 
L 153.60781 542.05 
z
" style="fill:#008000;opacity:0.4;"/>
   </g>
   <g id="patch_228">
    <path clip-path="url(#p85ac1b6d92)" d="M 270.128755 573.3 
L 279.43421 573.3 
L 279.43421 542.05 
L 270.128755 542.05 
z
" style="fill:#008000;opacity:0.4;"/>
   </g>
   <g id="patch_229">
    <path clip-path="url(#p85ac1b6d92)" d="M 447.121151 573.3 
L 455.427419 573.3 
L 455.427419 542.05 
L 447.121151 542.05 
z
" style="fill:#008000;opacity:0.4;"/>
   </g>
   <g id="patch_230">
    <path clip-path="url(#p85ac1b6d92)" d="M 145.9872 573.3 
L 151.234744 573.3 
L 151.234744 542.05 
L 145.9872 542.05 
z
" style="fill:#008000;opacity:0.4;"/>
   </g>
   <g id="patch_231">
    <path clip-path="url(#p85ac1b6d92)" d="M 471.591869 573.3 
L 475.729104 573.3 
L 475.729104 542.05 
L 471.591869 542.05 
z
" style="fill:#008000;opacity:0.4;"/>
   </g>
   <g id="patch_232">
    <path clip-path="url(#p85ac1b6d92)" d="M 457.872903 573.3 
L 461.724333 573.3 
L 461.724333 542.05 
L 457.872903 542.05 
z
" style="fill:#008000;opacity:0.4;"/>
   </g>
   <g id="patch_233">
    <path clip-path="url(#p85ac1b6d92)" d="M 177.749328 573.3 
L 189.109658 573.3 
L 189.109658 542.05 
L 177.749328 542.05 
z
" style="fill:#008000;opacity:0.4;"/>
   </g>
   <g id="patch_234">
    <path clip-path="url(#p85ac1b6d92)" d="M 547.076096 573.3 
L 552.952847 573.3 
L 552.952847 542.05 
L 547.076096 542.05 
z
" style="fill:#008000;opacity:0.4;"/>
   </g>
   <g id="patch_235">
    <path clip-path="url(#p85ac1b6d92)" d="M 334.600477 573.3 
L 351.844961 573.3 
L 351.844961 542.05 
L 334.600477 542.05 
z
" style="fill:#008000;opacity:0.4;"/>
   </g>
   <g id="patch_236">
    <path clip-path="url(#p85ac1b6d92)" d="M 549.860226 573.3 
L 553.552727 573.3 
L 553.552727 542.05 
L 549.860226 542.05 
z
" style="fill:#008000;opacity:0.4;"/>
   </g>
   <g id="patch_237">
    <path clip-path="url(#p85ac1b6d92)" d="M 504.058147 573.3 
L 510.319373 573.3 
L 510.319373 542.05 
L 504.058147 542.05 
z
" style="fill:#008000;opacity:0.4;"/>
   </g>
   <g id="patch_238">
    <path clip-path="url(#p85ac1b6d92)" d="M 511.20284 385.8 
L 563.255229 385.8 
L 563.255229 354.55 
L 511.20284 354.55 
z
" style="fill:#008000;opacity:0.4;"/>
   </g>
   <g id="patch_239">
    <path clip-path="url(#p85ac1b6d92)" d="M 140.002118 385.8 
L 194.389361 385.8 
L 194.389361 354.55 
L 140.002118 354.55 
z
" style="fill:#008000;opacity:0.4;"/>
   </g>
   <g id="patch_240">
    <path clip-path="url(#p85ac1b6d92)" d="M 211.008164 385.8 
L 227.801902 385.8 
L 227.801902 354.55 
L 211.008164 354.55 
z
" style="fill:#008000;opacity:0.4;"/>
   </g>
   <g id="patch_241">
    <path clip-path="url(#p85ac1b6d92)" d="M 593.844987 385.8 
L 600.221879 385.8 
L 600.221879 354.55 
L 593.844987 354.55 
z
" style="fill:#008000;opacity:0.4;"/>
   </g>
   <g id="patch_242">
    <path clip-path="url(#p85ac1b6d92)" d="M 131.071919 385.8 
L 137.177918 385.8 
L 137.177918 354.55 
L 131.071919 354.55 
z
" style="fill:#008000;opacity:0.4;"/>
   </g>
   <g id="patch_243">
    <path clip-path="url(#p85ac1b6d92)" d="M 606.060939 385.8 
L 610.132451 385.8 
L 610.132451 354.55 
L 606.060939 354.55 
z
" style="fill:#008000;opacity:0.4;"/>
   </g>
   <g id="patch_244">
    <path clip-path="url(#p85ac1b6d92)" d="M 113.715899 385.8 
L 116.535315 385.8 
L 116.535315 354.55 
L 113.715899 354.55 
z
" style="fill:#008000;opacity:0.4;"/>
   </g>
   <g id="patch_245">
    <path clip-path="url(#p85ac1b6d92)" d="M 519.89822 385.8 
L 528.528945 385.8 
L 528.528945 354.55 
L 519.89822 354.55 
z
" style="fill:#008000;opacity:0.4;"/>
   </g>
   <g id="patch_246">
    <path clip-path="url(#p85ac1b6d92)" d="M 496.42463 385.8 
L 504.082517 385.8 
L 504.082517 354.55 
L 496.42463 354.55 
z
" style="fill:#008000;opacity:0.4;"/>
   </g>
   <g id="patch_247">
    <path clip-path="url(#p85ac1b6d92)" d="M 200.218748 385.8 
L 206.896877 385.8 
L 206.896877 354.55 
L 200.218748 354.55 
z
" style="fill:#008000;opacity:0.4;"/>
   </g>
   <g id="patch_248">
    <path clip-path="url(#p85ac1b6d92)" d="M 160.748522 385.8 
L 166.222627 385.8 
L 166.222627 354.55 
L 160.748522 354.55 
z
" style="fill:#008000;opacity:0.4;"/>
   </g>
   <g id="patch_249">
    <path clip-path="url(#p85ac1b6d92)" d="M 519.469052 385.8 
L 525.036537 385.8 
L 525.036537 354.55 
L 519.469052 354.55 
z
" style="fill:#008000;opacity:0.4;"/>
   </g>
   <g id="patch_250">
    <path clip-path="url(#p85ac1b6d92)" d="M 172.772304 198.3 
L 197.906394 198.3 
L 197.906394 167.05 
L 172.772304 167.05 
z
" style="fill:#008000;opacity:0.4;"/>
   </g>
   <g id="patch_251">
    <path clip-path="url(#p85ac1b6d92)" d="M 147.170326 198.3 
L 162.998548 198.3 
L 162.998548 167.05 
L 147.170326 167.05 
z
" style="fill:#008000;opacity:0.4;"/>
   </g>
   <g id="patch_252">
    <path clip-path="url(#p85ac1b6d92)" d="M 157.094513 198.3 
L 160.159384 198.3 
L 160.159384 167.05 
L 157.094513 167.05 
z
" style="fill:#008000;opacity:0.4;"/>
   </g>
   <g id="patch_253">
    <path clip-path="url(#p85ac1b6d92)" d="M 149.252578 198.3 
L 154.651742 198.3 
L 154.651742 167.05 
L 149.252578 167.05 
z
" style="fill:#008000;opacity:0.4;"/>
   </g>
   <g id="patch_254">
    <path clip-path="url(#p85ac1b6d92)" d="M 342.058525 198.3 
L 348.595682 198.3 
L 348.595682 167.05 
L 342.058525 167.05 
z
" style="fill:#008000;opacity:0.4;"/>
   </g>
   <g id="patch_255">
    <path clip-path="url(#p85ac1b6d92)" d="M 167.092533 198.3 
L 177.332199 198.3 
L 177.332199 167.05 
L 167.092533 167.05 
z
" style="fill:#008000;opacity:0.4;"/>
   </g>
   <g id="patch_256">
    <path clip-path="url(#p85ac1b6d92)" d="M 430.330326 198.3 
L 436.272292 198.3 
L 436.272292 167.05 
L 430.330326 167.05 
z
" style="fill:#008000;opacity:0.4;"/>
   </g>
   <g id="patch_257">
    <path clip-path="url(#p85ac1b6d92)" d="M 137.962033 198.3 
L 144.430474 198.3 
L 144.430474 167.05 
L 137.962033 167.05 
z
" style="fill:#008000;opacity:0.4;"/>
   </g>
   <g id="patch_258">
    <path clip-path="url(#p85ac1b6d92)" d="M 204.043537 198.3 
L 209.337964 198.3 
L 209.337964 167.05 
L 204.043537 167.05 
z
" style="fill:#008000;opacity:0.4;"/>
   </g>
   <g id="patch_259">
    <path clip-path="url(#p85ac1b6d92)" d="M 144.375307 198.3 
L 147.170326 198.3 
L 147.170326 167.05 
L 144.375307 167.05 
z
" style="fill:#008000;opacity:0.4;"/>
   </g>
   <g id="patch_260">
    <path clip-path="url(#p85ac1b6d92)" d="M 473.959365 198.3 
L 478.238212 198.3 
L 478.238212 167.05 
L 473.959365 167.05 
z
" style="fill:#008000;opacity:0.4;"/>
   </g>
   <g id="patch_261">
    <path clip-path="url(#p85ac1b6d92)" d="M 164.937824 198.3 
L 168.403216 198.3 
L 168.403216 167.05 
L 164.937824 167.05 
z
" style="fill:#008000;opacity:0.4;"/>
   </g>
   <g id="patch_262">
    <path d="M 74.23 1385.8 
L 686.295 1385.8 
" style="fill:none;stroke:#000000;stroke-linecap:square;stroke-linejoin:miter;stroke-width:0.8;"/>
   </g>
  </g>
 </g>
 <defs>
  <clipPath id="p85ac1b6d92">
   <rect height="1375" width="612.065" x="74.23" y="10.8"/>
  </clipPath>
 </defs>
 <defs>
  <pattern height="72" id="hb3926dd214" patternUnits="userSpaceOnUse" width="72" x="0" y="0">
   <rect fill="#008000" height="73" width="73" x="0" y="0"/>
   <path d="M -36 36 
L 36 -36 
M -34 38 
L 38 -34 
M -32 40 
L 40 -32 
M -30 42 
L 42 -30 
M -28 44 
L 44 -28 
M -26 46 
L 46 -26 
M -24 48 
L 48 -24 
M -22 50 
L 50 -22 
M -20 52 
L 52 -20 
M -18 54 
L 54 -18 
M -16 56 
L 56 -16 
M -14 58 
L 58 -14 
M -12 60 
L 60 -12 
M -10 62 
L 62 -10 
M -8 64 
L 64 -8 
M -6 66 
L 66 -6 
M -4 68 
L 68 -4 
M -2 70 
L 70 -2 
M 0 72 
L 72 0 
M 2 74 
L 74 2 
M 4 76 
L 76 4 
M 6 78 
L 78 6 
M 8 80 
L 80 8 
M 10 82 
L 82 10 
M 12 84 
L 84 12 
M 14 86 
L 86 14 
M 16 88 
L 88 16 
M 18 90 
L 90 18 
M 20 92 
L 92 20 
M 22 94 
L 94 22 
M 24 96 
L 96 24 
M 26 98 
L 98 26 
M 28 100 
L 100 28 
M 30 102 
L 102 30 
M 32 104 
L 104 32 
M 34 106 
L 106 34 
M 36 108 
L 108 36 
" style="fill:#000000;stroke:#000000;stroke-linecap:butt;stroke-linejoin:miter;stroke-width:1.0;"/>
  </pattern>
 </defs>
</svg>
