<?xml version="1.0" encoding="utf-8" standalone="no"?>
<!DOCTYPE svg PUBLIC "-//W3C//DTD SVG 1.1//EN"
  "http://www.w3.org/Graphics/SVG/1.1/DTD/svg11.dtd">
<!-- Created with matplotlib (https://matplotlib.org/) -->
<svg height="345.6pt" version="1.1" viewBox="0 0 460.8 345.6" width="460.8pt" xmlns="http://www.w3.org/2000/svg" xmlns:xlink="http://www.w3.org/1999/xlink">
 <defs>
  <style type="text/css">
*{stroke-linecap:butt;stroke-linejoin:round;}
  </style>
 </defs>
 <g id="figure_1">
  <g id="patch_1">
   <path d="M 0 345.6 
L 460.8 345.6 
L 460.8 0 
L 0 0 
z
" style="fill:#ffffff;"/>
  </g>
  <g id="axes_1">
   <g id="patch_2">
    <path d="M 58.44 156.135249 
L 235.235 156.135249 
L 235.235 51.84 
L 58.44 51.84 
z
" style="fill:#ffffff;"/>
   </g>
   <g id="patch_3">
    <path clip-path="url(#p553546ab58)" d="M 66.476136 156.135249 
L 69.058028 156.135249 
L 69.058028 56.822005 
L 66.476136 56.822005 
z
" style="fill:#808080;"/>
   </g>
   <g id="patch_4">
    <path clip-path="url(#p553546ab58)" d="M 69.7035 156.135249 
L 72.285392 156.135249 
L 72.285392 115.589532 
L 69.7035 115.589532 
z
" style="fill:#808080;"/>
   </g>
   <g id="patch_5">
    <path clip-path="url(#p553546ab58)" d="M 72.930864 156.135249 
L 75.512756 156.135249 
L 75.512756 124.875268 
L 72.930864 124.875268 
z
" style="fill:#808080;"/>
   </g>
   <g id="patch_6">
    <path clip-path="url(#p553546ab58)" d="M 76.158228 156.135249 
L 78.74012 156.135249 
L 78.74012 131.165034 
L 76.158228 131.165034 
z
" style="fill:#808080;"/>
   </g>
   <g id="patch_7">
    <path clip-path="url(#p553546ab58)" d="M 79.385592 156.135249 
L 81.967484 156.135249 
L 81.967484 136.390131 
L 79.385592 136.390131 
z
" style="fill:#808080;"/>
   </g>
   <g id="patch_8">
    <path clip-path="url(#p553546ab58)" d="M 82.612956 156.135249 
L 85.194848 156.135249 
L 85.194848 137.501834 
L 82.612956 137.501834 
z
" style="fill:#808080;"/>
   </g>
   <g id="patch_9">
    <path clip-path="url(#p553546ab58)" d="M 85.84032 156.135249 
L 88.422212 156.135249 
L 88.422212 136.147079 
L 85.84032 136.147079 
z
" style="fill:#808080;"/>
   </g>
   <g id="patch_10">
    <path clip-path="url(#p553546ab58)" d="M 89.067684 156.135249 
L 91.649576 156.135249 
L 91.649576 140.988295 
L 89.067684 140.988295 
z
" style="fill:#808080;"/>
   </g>
   <g id="patch_11">
    <path clip-path="url(#p553546ab58)" d="M 92.295048 156.135249 
L 94.87694 156.135249 
L 94.87694 141.551466 
L 92.295048 141.551466 
z
" style="fill:#808080;"/>
   </g>
   <g id="patch_12">
    <path clip-path="url(#p553546ab58)" d="M 95.522412 156.135249 
L 98.104304 156.135249 
L 98.104304 141.31778 
L 95.522412 141.31778 
z
" style="fill:#808080;"/>
   </g>
   <g id="patch_13">
    <path clip-path="url(#p553546ab58)" d="M 98.749776 156.135249 
L 101.331668 156.135249 
L 101.331668 140.87135 
L 98.749776 140.87135 
z
" style="fill:#808080;"/>
   </g>
   <g id="patch_14">
    <path clip-path="url(#p553546ab58)" d="M 101.97714 156.135249 
L 104.559032 156.135249 
L 104.559032 141.140193 
L 101.97714 141.140193 
z
" style="fill:#808080;"/>
   </g>
   <g id="patch_15">
    <path clip-path="url(#p553546ab58)" d="M 105.204504 156.135249 
L 107.786396 156.135249 
L 107.786396 140.686221 
L 105.204504 140.686221 
z
" style="fill:#808080;"/>
   </g>
   <g id="patch_16">
    <path clip-path="url(#p553546ab58)" d="M 108.431868 156.135249 
L 111.01376 156.135249 
L 111.01376 141.739967 
L 108.431868 141.739967 
z
" style="fill:#808080;"/>
   </g>
   <g id="patch_17">
    <path clip-path="url(#p553546ab58)" d="M 111.659232 156.135249 
L 114.241124 156.135249 
L 114.241124 143.393693 
L 111.659232 143.393693 
z
" style="fill:#808080;"/>
   </g>
   <g id="patch_18">
    <path clip-path="url(#p553546ab58)" d="M 114.886596 156.135249 
L 117.468488 156.135249 
L 117.468488 145.369445 
L 114.886596 145.369445 
z
" style="fill:#808080;"/>
   </g>
   <g id="patch_19">
    <path clip-path="url(#p553546ab58)" d="M 118.11396 156.135249 
L 120.695852 156.135249 
L 120.695852 144.766308 
L 118.11396 144.766308 
z
" style="fill:#808080;"/>
   </g>
   <g id="patch_20">
    <path clip-path="url(#p553546ab58)" d="M 121.341324 156.135249 
L 123.923216 156.135249 
L 123.923216 145.511761 
L 121.341324 145.511761 
z
" style="fill:#808080;"/>
   </g>
   <g id="patch_21">
    <path clip-path="url(#p553546ab58)" d="M 124.568688 156.135249 
L 127.15058 156.135249 
L 127.15058 147.148682 
L 124.568688 147.148682 
z
" style="fill:#808080;"/>
   </g>
   <g id="patch_22">
    <path clip-path="url(#p553546ab58)" d="M 127.796052 156.135249 
L 130.377944 156.135249 
L 130.377944 148.514778 
L 127.796052 148.514778 
z
" style="fill:#808080;"/>
   </g>
   <g id="patch_23">
    <path clip-path="url(#p553546ab58)" d="M 131.023416 156.135249 
L 133.605308 156.135249 
L 133.605308 148.10456 
L 131.023416 148.10456 
z
" style="fill:#808080;"/>
   </g>
   <g id="patch_24">
    <path clip-path="url(#p553546ab58)" d="M 134.25078 156.135249 
L 136.832672 156.135249 
L 136.832672 147.019234 
L 134.25078 147.019234 
z
" style="fill:#808080;"/>
   </g>
   <g id="patch_25">
    <path clip-path="url(#p553546ab58)" d="M 137.478144 156.135249 
L 140.060036 156.135249 
L 140.060036 148.243673 
L 137.478144 148.243673 
z
" style="fill:#808080;"/>
   </g>
   <g id="patch_26">
    <path clip-path="url(#p553546ab58)" d="M 140.705508 156.135249 
L 143.2874 156.135249 
L 143.2874 148.376469 
L 140.705508 148.376469 
z
" style="fill:#808080;"/>
   </g>
   <g id="patch_27">
    <path clip-path="url(#p553546ab58)" d="M 143.932872 156.135249 
L 146.514764 156.135249 
L 146.514764 148.46593 
L 143.932872 148.46593 
z
" style="fill:#808080;"/>
   </g>
   <g id="patch_28">
    <path clip-path="url(#p553546ab58)" d="M 147.160236 156.135249 
L 149.742128 156.135249 
L 149.742128 148.519795 
L 147.160236 148.519795 
z
" style="fill:#808080;"/>
   </g>
   <g id="patch_29">
    <path clip-path="url(#p553546ab58)" d="M 150.3876 156.135249 
L 152.969492 156.135249 
L 152.969492 147.849239 
L 150.3876 147.849239 
z
" style="fill:#808080;"/>
   </g>
   <g id="patch_30">
    <path clip-path="url(#p553546ab58)" d="M 153.614964 156.135249 
L 156.196856 156.135249 
L 156.196856 149.05037 
L 153.614964 149.05037 
z
" style="fill:#808080;"/>
   </g>
   <g id="patch_31">
    <path clip-path="url(#p553546ab58)" d="M 156.842328 156.135249 
L 159.42422 156.135249 
L 159.42422 150.113323 
L 156.842328 150.113323 
z
" style="fill:#808080;"/>
   </g>
   <g id="patch_32">
    <path clip-path="url(#p553546ab58)" d="M 160.069692 156.135249 
L 162.651584 156.135249 
L 162.651584 149.727533 
L 160.069692 149.727533 
z
" style="fill:#808080;"/>
   </g>
   <g id="patch_33">
    <path clip-path="url(#p553546ab58)" d="M 163.297056 156.135249 
L 165.878948 156.135249 
L 165.878948 148.985672 
L 163.297056 148.985672 
z
" style="fill:#808080;"/>
   </g>
   <g id="patch_34">
    <path clip-path="url(#p553546ab58)" d="M 166.52442 156.135249 
L 169.106312 156.135249 
L 169.106312 149.954451 
L 166.52442 149.954451 
z
" style="fill:#808080;"/>
   </g>
   <g id="patch_35">
    <path clip-path="url(#p553546ab58)" d="M 169.751784 156.135249 
L 172.333676 156.135249 
L 172.333676 150.881937 
L 169.751784 150.881937 
z
" style="fill:#808080;"/>
   </g>
   <g id="patch_36">
    <path clip-path="url(#p553546ab58)" d="M 172.979148 156.135249 
L 175.56104 156.135249 
L 175.56104 150.033728 
L 172.979148 150.033728 
z
" style="fill:#808080;"/>
   </g>
   <g id="patch_37">
    <path clip-path="url(#p553546ab58)" d="M 176.206512 156.135249 
L 178.788404 156.135249 
L 178.788404 150.007292 
L 176.206512 150.007292 
z
" style="fill:#808080;"/>
   </g>
   <g id="patch_38">
    <path clip-path="url(#p553546ab58)" d="M 179.433876 156.135249 
L 182.015768 156.135249 
L 182.015768 150.187173 
L 179.433876 150.187173 
z
" style="fill:#808080;"/>
   </g>
   <g id="patch_39">
    <path clip-path="url(#p553546ab58)" d="M 182.66124 156.135249 
L 185.243132 156.135249 
L 185.243132 150.127693 
L 182.66124 150.127693 
z
" style="fill:#808080;"/>
   </g>
   <g id="patch_40">
    <path clip-path="url(#p553546ab58)" d="M 185.888604 156.135249 
L 188.470496 156.135249 
L 188.470496 150.370508 
L 185.888604 150.370508 
z
" style="fill:#808080;"/>
   </g>
   <g id="patch_41">
    <path clip-path="url(#p553546ab58)" d="M 189.115968 156.135249 
L 191.69786 156.135249 
L 191.69786 151.052419 
L 189.115968 151.052419 
z
" style="fill:#808080;"/>
   </g>
   <g id="patch_42">
    <path clip-path="url(#p553546ab58)" d="M 192.343332 156.135249 
L 194.925224 156.135249 
L 194.925224 151.412072 
L 192.343332 151.412072 
z
" style="fill:#808080;"/>
   </g>
   <g id="patch_43">
    <path clip-path="url(#p553546ab58)" d="M 195.570696 156.135249 
L 198.152588 156.135249 
L 198.152588 150.912129 
L 195.570696 150.912129 
z
" style="fill:#808080;"/>
   </g>
   <g id="patch_44">
    <path clip-path="url(#p553546ab58)" d="M 198.79806 156.135249 
L 201.379952 156.135249 
L 201.379952 151.115067 
L 198.79806 151.115067 
z
" style="fill:#808080;"/>
   </g>
   <g id="patch_45">
    <path clip-path="url(#p553546ab58)" d="M 202.025424 156.135249 
L 204.607316 156.135249 
L 204.607316 151.337311 
L 202.025424 151.337311 
z
" style="fill:#808080;"/>
   </g>
   <g id="patch_46">
    <path clip-path="url(#p553546ab58)" d="M 205.252788 156.135249 
L 207.83468 156.135249 
L 207.83468 150.407088 
L 205.252788 150.407088 
z
" style="fill:#808080;"/>
   </g>
   <g id="patch_47">
    <path clip-path="url(#p553546ab58)" d="M 208.480152 156.135249 
L 211.062044 156.135249 
L 211.062044 150.754044 
L 208.480152 150.754044 
z
" style="fill:#808080;"/>
   </g>
   <g id="patch_48">
    <path clip-path="url(#p553546ab58)" d="M 211.707516 156.135249 
L 214.289408 156.135249 
L 214.289408 150.873025 
L 211.707516 150.873025 
z
" style="fill:#808080;"/>
   </g>
   <g id="patch_49">
    <path clip-path="url(#p553546ab58)" d="M 214.93488 156.135249 
L 217.516772 156.135249 
L 217.516772 151.716844 
L 214.93488 151.716844 
z
" style="fill:#808080;"/>
   </g>
   <g id="patch_50">
    <path clip-path="url(#p553546ab58)" d="M 218.162244 156.135249 
L 220.744136 156.135249 
L 220.744136 150.777976 
L 218.162244 150.777976 
z
" style="fill:#808080;"/>
   </g>
   <g id="patch_51">
    <path clip-path="url(#p553546ab58)" d="M 221.389608 156.135249 
L 223.9715 156.135249 
L 223.9715 151.563715 
L 221.389608 151.563715 
z
" style="fill:#808080;"/>
   </g>
   <g id="patch_52">
    <path clip-path="url(#p553546ab58)" d="M 224.616972 156.135249 
L 227.198864 156.135249 
L 227.198864 151.668237 
L 224.616972 151.668237 
z
" style="fill:#808080;"/>
   </g>
   <g id="patch_53">
    <path clip-path="url(#p553546ab58)" d="M 66.479306 156.135249 
L 69.060732 156.135249 
L 69.060732 56.80644 
L 66.479306 56.80644 
z
" style="fill:#808080;"/>
   </g>
   <g id="patch_54">
    <path clip-path="url(#p553546ab58)" d="M 69.706089 156.135249 
L 72.287515 156.135249 
L 72.287515 115.598179 
L 69.706089 115.598179 
z
" style="fill:#808080;"/>
   </g>
   <g id="patch_55">
    <path clip-path="url(#p553546ab58)" d="M 72.932872 156.135249 
L 75.514298 156.135249 
L 75.514298 124.882186 
L 72.932872 124.882186 
z
" style="fill:#808080;"/>
   </g>
   <g id="patch_56">
    <path clip-path="url(#p553546ab58)" d="M 76.159655 156.135249 
L 78.741081 156.135249 
L 78.741081 131.100379 
L 76.159655 131.100379 
z
" style="fill:#808080;"/>
   </g>
   <g id="patch_57">
    <path clip-path="url(#p553546ab58)" d="M 79.386438 156.135249 
L 81.967864 156.135249 
L 81.967864 136.423655 
L 79.386438 136.423655 
z
" style="fill:#808080;"/>
   </g>
   <g id="patch_58">
    <path clip-path="url(#p553546ab58)" d="M 82.613221 156.135249 
L 85.194647 156.135249 
L 85.194647 137.532964 
L 82.613221 137.532964 
z
" style="fill:#808080;"/>
   </g>
   <g id="patch_59">
    <path clip-path="url(#p553546ab58)" d="M 85.840004 156.135249 
L 88.421431 156.135249 
L 88.421431 136.209339 
L 85.840004 136.209339 
z
" style="fill:#808080;"/>
   </g>
   <g id="patch_60">
    <path clip-path="url(#p553546ab58)" d="M 89.066787 156.135249 
L 91.648214 156.135249 
L 91.648214 140.926035 
L 89.066787 140.926035 
z
" style="fill:#808080;"/>
   </g>
   <g id="patch_61">
    <path clip-path="url(#p553546ab58)" d="M 92.29357 156.135249 
L 94.874997 156.135249 
L 94.874997 141.551466 
L 92.29357 141.551466 
z
" style="fill:#808080;"/>
   </g>
   <g id="patch_62">
    <path clip-path="url(#p553546ab58)" d="M 95.520353 156.135249 
L 98.10178 156.135249 
L 98.10178 141.31778 
L 95.520353 141.31778 
z
" style="fill:#808080;"/>
   </g>
   <g id="patch_63">
    <path clip-path="url(#p553546ab58)" d="M 98.747136 156.135249 
L 101.328563 156.135249 
L 101.328563 140.87135 
L 98.747136 140.87135 
z
" style="fill:#808080;"/>
   </g>
   <g id="patch_64">
    <path clip-path="url(#p553546ab58)" d="M 101.973919 156.135249 
L 104.555346 156.135249 
L 104.555346 141.143023 
L 101.973919 141.143023 
z
" style="fill:#808080;"/>
   </g>
   <g id="patch_65">
    <path clip-path="url(#p553546ab58)" d="M 105.200703 156.135249 
L 107.782129 156.135249 
L 107.782129 140.683391 
L 105.200703 140.683391 
z
" style="fill:#808080;"/>
   </g>
   <g id="patch_66">
    <path clip-path="url(#p553546ab58)" d="M 108.427486 156.135249 
L 111.008912 156.135249 
L 111.008912 141.786662 
L 108.427486 141.786662 
z
" style="fill:#808080;"/>
   </g>
   <g id="patch_67">
    <path clip-path="url(#p553546ab58)" d="M 111.654269 156.135249 
L 114.235695 156.135249 
L 114.235695 143.409258 
L 111.654269 143.409258 
z
" style="fill:#808080;"/>
   </g>
   <g id="patch_68">
    <path clip-path="url(#p553546ab58)" d="M 114.881052 156.135249 
L 117.462478 156.135249 
L 117.462478 145.307185 
L 114.881052 145.307185 
z
" style="fill:#808080;"/>
   </g>
   <g id="patch_69">
    <path clip-path="url(#p553546ab58)" d="M 118.107835 156.135249 
L 120.689261 156.135249 
L 120.689261 144.766308 
L 118.107835 144.766308 
z
" style="fill:#808080;"/>
   </g>
   <g id="patch_70">
    <path clip-path="url(#p553546ab58)" d="M 121.334618 156.135249 
L 123.916044 156.135249 
L 123.916044 145.574021 
L 121.334618 145.574021 
z
" style="fill:#808080;"/>
   </g>
   <g id="patch_71">
    <path clip-path="url(#p553546ab58)" d="M 124.561401 156.135249 
L 127.142827 156.135249 
L 127.142827 147.171511 
L 124.561401 147.171511 
z
" style="fill:#808080;"/>
   </g>
   <g id="patch_72">
    <path clip-path="url(#p553546ab58)" d="M 127.788184 156.135249 
L 130.369611 156.135249 
L 130.369611 148.481573 
L 127.788184 148.481573 
z
" style="fill:#808080;"/>
   </g>
   <g id="patch_73">
    <path clip-path="url(#p553546ab58)" d="M 131.014967 156.135249 
L 133.596394 156.135249 
L 133.596394 148.157324 
L 131.014967 148.157324 
z
" style="fill:#808080;"/>
   </g>
   <g id="patch_74">
    <path clip-path="url(#p553546ab58)" d="M 134.24175 156.135249 
L 136.823177 156.135249 
L 136.823177 146.92773 
L 134.24175 146.92773 
z
" style="fill:#808080;"/>
   </g>
   <g id="patch_75">
    <path clip-path="url(#p553546ab58)" d="M 137.468533 156.135249 
L 140.04996 156.135249 
L 140.04996 148.292789 
L 137.468533 148.292789 
z
" style="fill:#808080;"/>
   </g>
   <g id="patch_76">
    <path clip-path="url(#p553546ab58)" d="M 140.695316 156.135249 
L 143.276743 156.135249 
L 143.276743 148.314209 
L 140.695316 148.314209 
z
" style="fill:#808080;"/>
   </g>
   <g id="patch_77">
    <path clip-path="url(#p553546ab58)" d="M 143.922099 156.135249 
L 146.503526 156.135249 
L 146.503526 148.46593 
L 143.922099 148.46593 
z
" style="fill:#808080;"/>
   </g>
   <g id="patch_78">
    <path clip-path="url(#p553546ab58)" d="M 147.148883 156.135249 
L 149.730309 156.135249 
L 149.730309 148.583129 
L 147.148883 148.583129 
z
" style="fill:#808080;"/>
   </g>
   <g id="patch_79">
    <path clip-path="url(#p553546ab58)" d="M 150.375666 156.135249 
L 152.957092 156.135249 
L 152.957092 147.785906 
L 150.375666 147.785906 
z
" style="fill:#808080;"/>
   </g>
   <g id="patch_80">
    <path clip-path="url(#p553546ab58)" d="M 153.602449 156.135249 
L 156.183875 156.135249 
L 156.183875 149.112629 
L 153.602449 149.112629 
z
" style="fill:#808080;"/>
   </g>
   <g id="patch_81">
    <path clip-path="url(#p553546ab58)" d="M 156.829232 156.135249 
L 159.410658 156.135249 
L 159.410658 150.08964 
L 156.829232 150.08964 
z
" style="fill:#808080;"/>
   </g>
   <g id="patch_82">
    <path clip-path="url(#p553546ab58)" d="M 160.056015 156.135249 
L 162.637441 156.135249 
L 162.637441 149.69118 
L 160.056015 149.69118 
z
" style="fill:#808080;"/>
   </g>
   <g id="patch_83">
    <path clip-path="url(#p553546ab58)" d="M 163.282798 156.135249 
L 165.864224 156.135249 
L 165.864224 149.014579 
L 163.282798 149.014579 
z
" style="fill:#808080;"/>
   </g>
   <g id="patch_84">
    <path clip-path="url(#p553546ab58)" d="M 166.509581 156.135249 
L 169.091007 156.135249 
L 169.091007 149.923321 
L 166.509581 149.923321 
z
" style="fill:#808080;"/>
   </g>
   <g id="patch_85">
    <path clip-path="url(#p553546ab58)" d="M 169.736364 156.135249 
L 172.317791 156.135249 
L 172.317791 150.893352 
L 169.736364 150.893352 
z
" style="fill:#808080;"/>
   </g>
   <g id="patch_86">
    <path clip-path="url(#p553546ab58)" d="M 172.963147 156.135249 
L 175.544574 156.135249 
L 175.544574 150.055519 
L 172.963147 150.055519 
z
" style="fill:#808080;"/>
   </g>
   <g id="patch_87">
    <path clip-path="url(#p553546ab58)" d="M 176.18993 156.135249 
L 178.771357 156.135249 
L 178.771357 149.974087 
L 176.18993 149.974087 
z
" style="fill:#808080;"/>
   </g>
   <g id="patch_88">
    <path clip-path="url(#p553546ab58)" d="M 179.416713 156.135249 
L 181.99814 156.135249 
L 181.99814 150.187173 
L 179.416713 150.187173 
z
" style="fill:#808080;"/>
   </g>
   <g id="patch_89">
    <path clip-path="url(#p553546ab58)" d="M 182.643496 156.135249 
L 185.224923 156.135249 
L 185.224923 150.166605 
L 182.643496 150.166605 
z
" style="fill:#808080;"/>
   </g>
   <g id="patch_90">
    <path clip-path="url(#p553546ab58)" d="M 185.870279 156.135249 
L 188.451706 156.135249 
L 188.451706 150.408409 
L 185.870279 150.408409 
z
" style="fill:#808080;"/>
   </g>
   <g id="patch_91">
    <path clip-path="url(#p553546ab58)" d="M 189.097063 156.135249 
L 191.678489 156.135249 
L 191.678489 150.975605 
L 189.097063 150.975605 
z
" style="fill:#808080;"/>
   </g>
   <g id="patch_92">
    <path clip-path="url(#p553546ab58)" d="M 192.323846 156.135249 
L 194.905272 156.135249 
L 194.905272 151.41899 
L 192.323846 151.41899 
z
" style="fill:#808080;"/>
   </g>
   <g id="patch_93">
    <path clip-path="url(#p553546ab58)" d="M 195.550629 156.135249 
L 198.132055 156.135249 
L 198.132055 150.906266 
L 195.550629 150.906266 
z
" style="fill:#808080;"/>
   </g>
   <g id="patch_94">
    <path clip-path="url(#p553546ab58)" d="M 198.777412 156.135249 
L 201.358838 156.135249 
L 201.358838 151.114011 
L 198.777412 151.114011 
z
" style="fill:#808080;"/>
   </g>
   <g id="patch_95">
    <path clip-path="url(#p553546ab58)" d="M 202.004195 156.135249 
L 204.585621 156.135249 
L 204.585621 151.34057 
L 202.004195 151.34057 
z
" style="fill:#808080;"/>
   </g>
   <g id="patch_96">
    <path clip-path="url(#p553546ab58)" d="M 205.230978 156.135249 
L 207.812404 156.135249 
L 207.812404 150.403829 
L 205.230978 150.403829 
z
" style="fill:#808080;"/>
   </g>
   <g id="patch_97">
    <path clip-path="url(#p553546ab58)" d="M 208.457761 156.135249 
L 211.039187 156.135249 
L 211.039187 150.778947 
L 208.457761 150.778947 
z
" style="fill:#808080;"/>
   </g>
   <g id="patch_98">
    <path clip-path="url(#p553546ab58)" d="M 211.684544 156.135249 
L 214.265971 156.135249 
L 214.265971 150.897523 
L 211.684544 150.897523 
z
" style="fill:#808080;"/>
   </g>
   <g id="patch_99">
    <path clip-path="url(#p553546ab58)" d="M 214.911327 156.135249 
L 217.492754 156.135249 
L 217.492754 151.669125 
L 214.911327 151.669125 
z
" style="fill:#808080;"/>
   </g>
   <g id="patch_100">
    <path clip-path="url(#p553546ab58)" d="M 218.13811 156.135249 
L 220.719537 156.135249 
L 220.719537 150.7824 
L 218.13811 150.7824 
z
" style="fill:#808080;"/>
   </g>
   <g id="patch_101">
    <path clip-path="url(#p553546ab58)" d="M 221.364893 156.135249 
L 223.94632 156.135249 
L 223.94632 151.59349 
L 221.364893 151.59349 
z
" style="fill:#808080;"/>
   </g>
   <g id="patch_102">
    <path clip-path="url(#p553546ab58)" d="M 224.591676 156.135249 
L 227.173103 156.135249 
L 227.173103 151.632356 
L 224.591676 151.632356 
z
" style="fill:#808080;"/>
   </g>
   <g id="matplotlib.axis_1">
    <g id="xtick_1">
     <g id="line2d_1">
      <defs>
       <path d="M 0 0 
L 0 3.5 
" id="mba3b3a9ed9" style="stroke:#000000;stroke-width:0.8;"/>
      </defs>
      <g>
       <use style="stroke:#000000;stroke-width:0.8;" x="66.1534" xlink:href="#mba3b3a9ed9" y="157.135249"/>
      </g>
     </g>
     <g id="text_1">
      <!-- 0 -->
      <defs>
       <path d="M 31.78125 66.40625 
Q 24.171875 66.40625 20.328125 58.90625 
Q 16.5 51.421875 16.5 36.375 
Q 16.5 21.390625 20.328125 13.890625 
Q 24.171875 6.390625 31.78125 6.390625 
Q 39.453125 6.390625 43.28125 13.890625 
Q 47.125 21.390625 47.125 36.375 
Q 47.125 51.421875 43.28125 58.90625 
Q 39.453125 66.40625 31.78125 66.40625 
z
M 31.78125 74.21875 
Q 44.046875 74.21875 50.515625 64.515625 
Q 56.984375 54.828125 56.984375 36.375 
Q 56.984375 17.96875 50.515625 8.265625 
Q 44.046875 -1.421875 31.78125 -1.421875 
Q 19.53125 -1.421875 13.0625 8.265625 
Q 6.59375 17.96875 6.59375 36.375 
Q 6.59375 54.828125 13.0625 64.515625 
Q 19.53125 74.21875 31.78125 74.21875 
z
" id="DejaVuSans-48"/>
      </defs>
      <g transform="translate(62.97215 171.733687)scale(0.1 -0.1)">
       <use xlink:href="#DejaVuSans-48"/>
      </g>
     </g>
    </g>
    <g id="xtick_2">
     <g id="line2d_2">
      <g>
       <use style="stroke:#000000;stroke-width:0.8;" x="98.42704" xlink:href="#mba3b3a9ed9" y="157.135249"/>
      </g>
     </g>
     <g id="text_2">
      <!-- 1 -->
      <defs>
       <path d="M 12.40625 8.296875 
L 28.515625 8.296875 
L 28.515625 63.921875 
L 10.984375 60.40625 
L 10.984375 69.390625 
L 28.421875 72.90625 
L 38.28125 72.90625 
L 38.28125 8.296875 
L 54.390625 8.296875 
L 54.390625 0 
L 12.40625 0 
z
" id="DejaVuSans-49"/>
      </defs>
      <g transform="translate(95.24579 171.733687)scale(0.1 -0.1)">
       <use xlink:href="#DejaVuSans-49"/>
      </g>
     </g>
    </g>
    <g id="xtick_3">
     <g id="line2d_3">
      <g>
       <use style="stroke:#000000;stroke-width:0.8;" x="130.70068" xlink:href="#mba3b3a9ed9" y="157.135249"/>
      </g>
     </g>
     <g id="text_3">
      <!-- 2 -->
      <defs>
       <path d="M 19.1875 8.296875 
L 53.609375 8.296875 
L 53.609375 0 
L 7.328125 0 
L 7.328125 8.296875 
Q 12.9375 14.109375 22.625 23.890625 
Q 32.328125 33.6875 34.8125 36.53125 
Q 39.546875 41.84375 41.421875 45.53125 
Q 43.3125 49.21875 43.3125 52.78125 
Q 43.3125 58.59375 39.234375 62.25 
Q 35.15625 65.921875 28.609375 65.921875 
Q 23.96875 65.921875 18.8125 64.3125 
Q 13.671875 62.703125 7.8125 59.421875 
L 7.8125 69.390625 
Q 13.765625 71.78125 18.9375 73 
Q 24.125 74.21875 28.421875 74.21875 
Q 39.75 74.21875 46.484375 68.546875 
Q 53.21875 62.890625 53.21875 53.421875 
Q 53.21875 48.921875 51.53125 44.890625 
Q 49.859375 40.875 45.40625 35.40625 
Q 44.1875 33.984375 37.640625 27.21875 
Q 31.109375 20.453125 19.1875 8.296875 
z
" id="DejaVuSans-50"/>
      </defs>
      <g transform="translate(127.51943 171.733687)scale(0.1 -0.1)">
       <use xlink:href="#DejaVuSans-50"/>
      </g>
     </g>
    </g>
    <g id="xtick_4">
     <g id="line2d_4">
      <g>
       <use style="stroke:#000000;stroke-width:0.8;" x="162.97432" xlink:href="#mba3b3a9ed9" y="157.135249"/>
      </g>
     </g>
     <g id="text_4">
      <!-- 3 -->
      <defs>
       <path d="M 40.578125 39.3125 
Q 47.65625 37.796875 51.625 33 
Q 55.609375 28.21875 55.609375 21.1875 
Q 55.609375 10.40625 48.1875 4.484375 
Q 40.765625 -1.421875 27.09375 -1.421875 
Q 22.515625 -1.421875 17.65625 -0.515625 
Q 12.796875 0.390625 7.625 2.203125 
L 7.625 11.71875 
Q 11.71875 9.328125 16.59375 8.109375 
Q 21.484375 6.890625 26.8125 6.890625 
Q 36.078125 6.890625 40.9375 10.546875 
Q 45.796875 14.203125 45.796875 21.1875 
Q 45.796875 27.640625 41.28125 31.265625 
Q 36.765625 34.90625 28.71875 34.90625 
L 20.21875 34.90625 
L 20.21875 43.015625 
L 29.109375 43.015625 
Q 36.375 43.015625 40.234375 45.921875 
Q 44.09375 48.828125 44.09375 54.296875 
Q 44.09375 59.90625 40.109375 62.90625 
Q 36.140625 65.921875 28.71875 65.921875 
Q 24.65625 65.921875 20.015625 65.03125 
Q 15.375 64.15625 9.8125 62.3125 
L 9.8125 71.09375 
Q 15.4375 72.65625 20.34375 73.4375 
Q 25.25 74.21875 29.59375 74.21875 
Q 40.828125 74.21875 47.359375 69.109375 
Q 53.90625 64.015625 53.90625 55.328125 
Q 53.90625 49.265625 50.4375 45.09375 
Q 46.96875 40.921875 40.578125 39.3125 
z
" id="DejaVuSans-51"/>
      </defs>
      <g transform="translate(159.79307 171.733687)scale(0.1 -0.1)">
       <use xlink:href="#DejaVuSans-51"/>
      </g>
     </g>
    </g>
    <g id="xtick_5">
     <g id="line2d_5">
      <g>
       <use style="stroke:#000000;stroke-width:0.8;" x="195.24796" xlink:href="#mba3b3a9ed9" y="157.135249"/>
      </g>
     </g>
     <g id="text_5">
      <!-- 4 -->
      <defs>
       <path d="M 37.796875 64.3125 
L 12.890625 25.390625 
L 37.796875 25.390625 
z
M 35.203125 72.90625 
L 47.609375 72.90625 
L 47.609375 25.390625 
L 58.015625 25.390625 
L 58.015625 17.1875 
L 47.609375 17.1875 
L 47.609375 0 
L 37.796875 0 
L 37.796875 17.1875 
L 4.890625 17.1875 
L 4.890625 26.703125 
z
" id="DejaVuSans-52"/>
      </defs>
      <g transform="translate(192.06671 171.733687)scale(0.1 -0.1)">
       <use xlink:href="#DejaVuSans-52"/>
      </g>
     </g>
    </g>
    <g id="xtick_6">
     <g id="line2d_6">
      <g>
       <use style="stroke:#000000;stroke-width:0.8;" x="227.5216" xlink:href="#mba3b3a9ed9" y="157.135249"/>
      </g>
     </g>
     <g id="text_6">
      <!-- 5 -->
      <defs>
       <path d="M 10.796875 72.90625 
L 49.515625 72.90625 
L 49.515625 64.59375 
L 19.828125 64.59375 
L 19.828125 46.734375 
Q 21.96875 47.46875 24.109375 47.828125 
Q 26.265625 48.1875 28.421875 48.1875 
Q 40.625 48.1875 47.75 41.5 
Q 54.890625 34.8125 54.890625 23.390625 
Q 54.890625 11.625 47.5625 5.09375 
Q 40.234375 -1.421875 26.90625 -1.421875 
Q 22.3125 -1.421875 17.546875 -0.640625 
Q 12.796875 0.140625 7.71875 1.703125 
L 7.71875 11.625 
Q 12.109375 9.234375 16.796875 8.0625 
Q 21.484375 6.890625 26.703125 6.890625 
Q 35.15625 6.890625 40.078125 11.328125 
Q 45.015625 15.765625 45.015625 23.390625 
Q 45.015625 31 40.078125 35.4375 
Q 35.15625 39.890625 26.703125 39.890625 
Q 22.75 39.890625 18.8125 39.015625 
Q 14.890625 38.140625 10.796875 36.28125 
z
" id="DejaVuSans-53"/>
      </defs>
      <g transform="translate(224.34035 171.733687)scale(0.1 -0.1)">
       <use xlink:href="#DejaVuSans-53"/>
      </g>
     </g>
    </g>
    <g id="text_7">
     <!-- $K_\mathrm{S}$ -->
     <defs>
      <path d="M 16.890625 72.90625 
L 26.8125 72.90625 
L 20.796875 42.1875 
L 59.078125 72.90625 
L 72.21875 72.90625 
L 28.90625 38.09375 
L 60.59375 0 
L 48.578125 0 
L 19.484375 35.5 
L 12.59375 0 
L 2.6875 0 
z
" id="DejaVuSans-Oblique-75"/>
      <path d="M 53.515625 70.515625 
L 53.515625 60.890625 
Q 47.90625 63.578125 42.921875 64.890625 
Q 37.9375 66.21875 33.296875 66.21875 
Q 25.25 66.21875 20.875 63.09375 
Q 16.5 59.96875 16.5 54.203125 
Q 16.5 49.359375 19.40625 46.890625 
Q 22.3125 44.4375 30.421875 42.921875 
L 36.375 41.703125 
Q 47.40625 39.59375 52.65625 34.296875 
Q 57.90625 29 57.90625 20.125 
Q 57.90625 9.515625 50.796875 4.046875 
Q 43.703125 -1.421875 29.984375 -1.421875 
Q 24.8125 -1.421875 18.96875 -0.25 
Q 13.140625 0.921875 6.890625 3.21875 
L 6.890625 13.375 
Q 12.890625 10.015625 18.65625 8.296875 
Q 24.421875 6.59375 29.984375 6.59375 
Q 38.421875 6.59375 43.015625 9.90625 
Q 47.609375 13.234375 47.609375 19.390625 
Q 47.609375 24.75 44.3125 27.78125 
Q 41.015625 30.8125 33.5 32.328125 
L 27.484375 33.5 
Q 16.453125 35.6875 11.515625 40.375 
Q 6.59375 45.0625 6.59375 53.421875 
Q 6.59375 63.09375 13.40625 68.65625 
Q 20.21875 74.21875 32.171875 74.21875 
Q 37.3125 74.21875 42.625 73.28125 
Q 47.953125 72.359375 53.515625 70.515625 
z
" id="DejaVuSans-83"/>
     </defs>
     <g transform="translate(141.1875 185.411812)scale(0.1 -0.1)">
      <use transform="translate(0 0.09375)" xlink:href="#DejaVuSans-Oblique-75"/>
      <use transform="translate(65.576172 -16.3125)scale(0.7)" xlink:href="#DejaVuSans-83"/>
     </g>
    </g>
   </g>
   <g id="matplotlib.axis_2">
    <g id="ytick_1">
     <g id="line2d_7">
      <defs>
       <path d="M 0 0 
L -3.5 0 
" id="m13bdad56d1" style="stroke:#000000;stroke-width:0.8;"/>
      </defs>
      <g>
       <use style="stroke:#000000;stroke-width:0.8;" x="57.44" xlink:href="#m13bdad56d1" y="156.135249"/>
      </g>
     </g>
     <g id="text_8">
      <!-- 0 -->
      <g transform="translate(44.0775 159.934468)scale(0.1 -0.1)">
       <use xlink:href="#DejaVuSans-48"/>
      </g>
     </g>
    </g>
    <g id="ytick_2">
     <g id="line2d_8">
      <g>
       <use style="stroke:#000000;stroke-width:0.8;" x="57.44" xlink:href="#m13bdad56d1" y="125.00536"/>
      </g>
     </g>
     <g id="text_9">
      <!-- 500 -->
      <g transform="translate(31.3525 128.804578)scale(0.1 -0.1)">
       <use xlink:href="#DejaVuSans-53"/>
       <use x="63.623047" xlink:href="#DejaVuSans-48"/>
       <use x="127.246094" xlink:href="#DejaVuSans-48"/>
      </g>
     </g>
    </g>
    <g id="ytick_3">
     <g id="line2d_9">
      <g>
       <use style="stroke:#000000;stroke-width:0.8;" x="57.44" xlink:href="#m13bdad56d1" y="93.87547"/>
      </g>
     </g>
     <g id="text_10">
      <!-- 1000 -->
      <g transform="translate(24.99 97.674689)scale(0.1 -0.1)">
       <use xlink:href="#DejaVuSans-49"/>
       <use x="63.623047" xlink:href="#DejaVuSans-48"/>
       <use x="127.246094" xlink:href="#DejaVuSans-48"/>
       <use x="190.869141" xlink:href="#DejaVuSans-48"/>
      </g>
     </g>
    </g>
    <g id="ytick_4">
     <g id="line2d_10">
      <g>
       <use style="stroke:#000000;stroke-width:0.8;" x="57.44" xlink:href="#m13bdad56d1" y="62.745581"/>
      </g>
     </g>
     <g id="text_11">
      <!-- 1500 -->
      <g transform="translate(24.99 66.544799)scale(0.1 -0.1)">
       <use xlink:href="#DejaVuSans-49"/>
       <use x="63.623047" xlink:href="#DejaVuSans-53"/>
       <use x="127.246094" xlink:href="#DejaVuSans-48"/>
       <use x="190.869141" xlink:href="#DejaVuSans-48"/>
      </g>
     </g>
    </g>
    <g id="text_12">
     <!-- Duplications -->
     <defs>
      <path d="M 19.671875 64.796875 
L 19.671875 8.109375 
L 31.59375 8.109375 
Q 46.6875 8.109375 53.6875 14.9375 
Q 60.6875 21.78125 60.6875 36.53125 
Q 60.6875 51.171875 53.6875 57.984375 
Q 46.6875 64.796875 31.59375 64.796875 
z
M 9.8125 72.90625 
L 30.078125 72.90625 
Q 51.265625 72.90625 61.171875 64.09375 
Q 71.09375 55.28125 71.09375 36.53125 
Q 71.09375 17.671875 61.125 8.828125 
Q 51.171875 0 30.078125 0 
L 9.8125 0 
z
" id="DejaVuSans-68"/>
      <path d="M 8.5 21.578125 
L 8.5 54.6875 
L 17.484375 54.6875 
L 17.484375 21.921875 
Q 17.484375 14.15625 20.5 10.265625 
Q 23.53125 6.390625 29.59375 6.390625 
Q 36.859375 6.390625 41.078125 11.03125 
Q 45.3125 15.671875 45.3125 23.6875 
L 45.3125 54.6875 
L 54.296875 54.6875 
L 54.296875 0 
L 45.3125 0 
L 45.3125 8.40625 
Q 42.046875 3.421875 37.71875 1 
Q 33.40625 -1.421875 27.6875 -1.421875 
Q 18.265625 -1.421875 13.375 4.4375 
Q 8.5 10.296875 8.5 21.578125 
z
M 31.109375 56 
z
" id="DejaVuSans-117"/>
      <path d="M 18.109375 8.203125 
L 18.109375 -20.796875 
L 9.078125 -20.796875 
L 9.078125 54.6875 
L 18.109375 54.6875 
L 18.109375 46.390625 
Q 20.953125 51.265625 25.265625 53.625 
Q 29.59375 56 35.59375 56 
Q 45.5625 56 51.78125 48.09375 
Q 58.015625 40.1875 58.015625 27.296875 
Q 58.015625 14.40625 51.78125 6.484375 
Q 45.5625 -1.421875 35.59375 -1.421875 
Q 29.59375 -1.421875 25.265625 0.953125 
Q 20.953125 3.328125 18.109375 8.203125 
z
M 48.6875 27.296875 
Q 48.6875 37.203125 44.609375 42.84375 
Q 40.53125 48.484375 33.40625 48.484375 
Q 26.265625 48.484375 22.1875 42.84375 
Q 18.109375 37.203125 18.109375 27.296875 
Q 18.109375 17.390625 22.1875 11.75 
Q 26.265625 6.109375 33.40625 6.109375 
Q 40.53125 6.109375 44.609375 11.75 
Q 48.6875 17.390625 48.6875 27.296875 
z
" id="DejaVuSans-112"/>
      <path d="M 9.421875 75.984375 
L 18.40625 75.984375 
L 18.40625 0 
L 9.421875 0 
z
" id="DejaVuSans-108"/>
      <path d="M 9.421875 54.6875 
L 18.40625 54.6875 
L 18.40625 0 
L 9.421875 0 
z
M 9.421875 75.984375 
L 18.40625 75.984375 
L 18.40625 64.59375 
L 9.421875 64.59375 
z
" id="DejaVuSans-105"/>
      <path d="M 48.78125 52.59375 
L 48.78125 44.1875 
Q 44.96875 46.296875 41.140625 47.34375 
Q 37.3125 48.390625 33.40625 48.390625 
Q 24.65625 48.390625 19.8125 42.84375 
Q 14.984375 37.3125 14.984375 27.296875 
Q 14.984375 17.28125 19.8125 11.734375 
Q 24.65625 6.203125 33.40625 6.203125 
Q 37.3125 6.203125 41.140625 7.25 
Q 44.96875 8.296875 48.78125 10.40625 
L 48.78125 2.09375 
Q 45.015625 0.34375 40.984375 -0.53125 
Q 36.96875 -1.421875 32.421875 -1.421875 
Q 20.0625 -1.421875 12.78125 6.34375 
Q 5.515625 14.109375 5.515625 27.296875 
Q 5.515625 40.671875 12.859375 48.328125 
Q 20.21875 56 33.015625 56 
Q 37.15625 56 41.109375 55.140625 
Q 45.0625 54.296875 48.78125 52.59375 
z
" id="DejaVuSans-99"/>
      <path d="M 34.28125 27.484375 
Q 23.390625 27.484375 19.1875 25 
Q 14.984375 22.515625 14.984375 16.5 
Q 14.984375 11.71875 18.140625 8.90625 
Q 21.296875 6.109375 26.703125 6.109375 
Q 34.1875 6.109375 38.703125 11.40625 
Q 43.21875 16.703125 43.21875 25.484375 
L 43.21875 27.484375 
z
M 52.203125 31.203125 
L 52.203125 0 
L 43.21875 0 
L 43.21875 8.296875 
Q 40.140625 3.328125 35.546875 0.953125 
Q 30.953125 -1.421875 24.3125 -1.421875 
Q 15.921875 -1.421875 10.953125 3.296875 
Q 6 8.015625 6 15.921875 
Q 6 25.140625 12.171875 29.828125 
Q 18.359375 34.515625 30.609375 34.515625 
L 43.21875 34.515625 
L 43.21875 35.40625 
Q 43.21875 41.609375 39.140625 45 
Q 35.0625 48.390625 27.6875 48.390625 
Q 23 48.390625 18.546875 47.265625 
Q 14.109375 46.140625 10.015625 43.890625 
L 10.015625 52.203125 
Q 14.9375 54.109375 19.578125 55.046875 
Q 24.21875 56 28.609375 56 
Q 40.484375 56 46.34375 49.84375 
Q 52.203125 43.703125 52.203125 31.203125 
z
" id="DejaVuSans-97"/>
      <path d="M 18.3125 70.21875 
L 18.3125 54.6875 
L 36.8125 54.6875 
L 36.8125 47.703125 
L 18.3125 47.703125 
L 18.3125 18.015625 
Q 18.3125 11.328125 20.140625 9.421875 
Q 21.96875 7.515625 27.59375 7.515625 
L 36.8125 7.515625 
L 36.8125 0 
L 27.59375 0 
Q 17.1875 0 13.234375 3.875 
Q 9.28125 7.765625 9.28125 18.015625 
L 9.28125 47.703125 
L 2.6875 47.703125 
L 2.6875 54.6875 
L 9.28125 54.6875 
L 9.28125 70.21875 
z
" id="DejaVuSans-116"/>
      <path d="M 30.609375 48.390625 
Q 23.390625 48.390625 19.1875 42.75 
Q 14.984375 37.109375 14.984375 27.296875 
Q 14.984375 17.484375 19.15625 11.84375 
Q 23.34375 6.203125 30.609375 6.203125 
Q 37.796875 6.203125 41.984375 11.859375 
Q 46.1875 17.53125 46.1875 27.296875 
Q 46.1875 37.015625 41.984375 42.703125 
Q 37.796875 48.390625 30.609375 48.390625 
z
M 30.609375 56 
Q 42.328125 56 49.015625 48.375 
Q 55.71875 40.765625 55.71875 27.296875 
Q 55.71875 13.875 49.015625 6.21875 
Q 42.328125 -1.421875 30.609375 -1.421875 
Q 18.84375 -1.421875 12.171875 6.21875 
Q 5.515625 13.875 5.515625 27.296875 
Q 5.515625 40.765625 12.171875 48.375 
Q 18.84375 56 30.609375 56 
z
" id="DejaVuSans-111"/>
      <path d="M 54.890625 33.015625 
L 54.890625 0 
L 45.90625 0 
L 45.90625 32.71875 
Q 45.90625 40.484375 42.875 44.328125 
Q 39.84375 48.1875 33.796875 48.1875 
Q 26.515625 48.1875 22.3125 43.546875 
Q 18.109375 38.921875 18.109375 30.90625 
L 18.109375 0 
L 9.078125 0 
L 9.078125 54.6875 
L 18.109375 54.6875 
L 18.109375 46.1875 
Q 21.34375 51.125 25.703125 53.5625 
Q 30.078125 56 35.796875 56 
Q 45.21875 56 50.046875 50.171875 
Q 54.890625 44.34375 54.890625 33.015625 
z
" id="DejaVuSans-110"/>
      <path d="M 44.28125 53.078125 
L 44.28125 44.578125 
Q 40.484375 46.53125 36.375 47.5 
Q 32.28125 48.484375 27.875 48.484375 
Q 21.1875 48.484375 17.84375 46.4375 
Q 14.5 44.390625 14.5 40.28125 
Q 14.5 37.15625 16.890625 35.375 
Q 19.28125 33.59375 26.515625 31.984375 
L 29.59375 31.296875 
Q 39.15625 29.25 43.1875 25.515625 
Q 47.21875 21.78125 47.21875 15.09375 
Q 47.21875 7.46875 41.1875 3.015625 
Q 35.15625 -1.421875 24.609375 -1.421875 
Q 20.21875 -1.421875 15.453125 -0.5625 
Q 10.6875 0.296875 5.421875 2 
L 5.421875 11.28125 
Q 10.40625 8.6875 15.234375 7.390625 
Q 20.0625 6.109375 24.8125 6.109375 
Q 31.15625 6.109375 34.5625 8.28125 
Q 37.984375 10.453125 37.984375 14.40625 
Q 37.984375 18.0625 35.515625 20.015625 
Q 33.0625 21.96875 24.703125 23.78125 
L 21.578125 24.515625 
Q 13.234375 26.265625 9.515625 29.90625 
Q 5.8125 33.546875 5.8125 39.890625 
Q 5.8125 47.609375 11.28125 51.796875 
Q 16.75 56 26.8125 56 
Q 31.78125 56 36.171875 55.265625 
Q 40.578125 54.546875 44.28125 53.078125 
z
" id="DejaVuSans-115"/>
     </defs>
     <g transform="translate(18.910312 134.954031)rotate(-90)scale(0.1 -0.1)">
      <use xlink:href="#DejaVuSans-68"/>
      <use x="77.001953" xlink:href="#DejaVuSans-117"/>
      <use x="140.380859" xlink:href="#DejaVuSans-112"/>
      <use x="203.857422" xlink:href="#DejaVuSans-108"/>
      <use x="231.640625" xlink:href="#DejaVuSans-105"/>
      <use x="259.423828" xlink:href="#DejaVuSans-99"/>
      <use x="314.404297" xlink:href="#DejaVuSans-97"/>
      <use x="375.683594" xlink:href="#DejaVuSans-116"/>
      <use x="414.892578" xlink:href="#DejaVuSans-105"/>
      <use x="442.675781" xlink:href="#DejaVuSans-111"/>
      <use x="503.857422" xlink:href="#DejaVuSans-110"/>
      <use x="567.236328" xlink:href="#DejaVuSans-115"/>
     </g>
    </g>
   </g>
   <g id="patch_103">
    <path d="M 57.44 156.135249 
L 57.44 51.84 
" style="fill:none;stroke:#000000;stroke-linecap:square;stroke-linejoin:miter;stroke-width:0.8;"/>
   </g>
   <g id="patch_104">
    <path d="M 58.44 157.135249 
L 235.235 157.135249 
" style="fill:none;stroke:#000000;stroke-linecap:square;stroke-linejoin:miter;stroke-width:0.8;"/>
   </g>
  </g>
  <g id="axes_2">
   <g id="patch_105">
    <path d="M 273.205 156.135249 
L 450 156.135249 
L 450 51.84 
L 273.205 51.84 
z
" style="fill:#ffffff;"/>
   </g>
   <g id="patch_106">
    <path clip-path="url(#pff3bd90f52)" d="M 281.241136 156.135249 
L 283.823028 156.135249 
L 283.823028 136.428454 
L 281.241136 136.428454 
z
" style="fill:#808080;"/>
   </g>
   <g id="patch_107">
    <path clip-path="url(#pff3bd90f52)" d="M 284.4685 156.135249 
L 287.050392 156.135249 
L 287.050392 156.135249 
L 284.4685 156.135249 
z
" style="fill:#808080;"/>
   </g>
   <g id="patch_108">
    <path clip-path="url(#pff3bd90f52)" d="M 287.695864 156.135249 
L 290.277756 156.135249 
L 290.277756 156.135249 
L 287.695864 156.135249 
z
" style="fill:#808080;"/>
   </g>
   <g id="patch_109">
    <path clip-path="url(#pff3bd90f52)" d="M 290.923228 156.135249 
L 293.50512 156.135249 
L 293.50512 146.414756 
L 290.923228 146.414756 
z
" style="fill:#808080;"/>
   </g>
   <g id="patch_110">
    <path clip-path="url(#pff3bd90f52)" d="M 294.150592 156.135249 
L 296.732484 156.135249 
L 296.732484 152.084303 
L 294.150592 152.084303 
z
" style="fill:#808080;"/>
   </g>
   <g id="patch_111">
    <path clip-path="url(#pff3bd90f52)" d="M 297.377956 156.135249 
L 299.959848 156.135249 
L 299.959848 156.135249 
L 297.377956 156.135249 
z
" style="fill:#808080;"/>
   </g>
   <g id="patch_112">
    <path clip-path="url(#pff3bd90f52)" d="M 300.60532 156.135249 
L 303.187212 156.135249 
L 303.187212 153.382581 
L 300.60532 153.382581 
z
" style="fill:#808080;"/>
   </g>
   <g id="patch_113">
    <path clip-path="url(#pff3bd90f52)" d="M 303.832684 156.135249 
L 306.414576 156.135249 
L 306.414576 155.03841 
L 303.832684 155.03841 
z
" style="fill:#808080;"/>
   </g>
   <g id="patch_114">
    <path clip-path="url(#pff3bd90f52)" d="M 307.060048 156.135249 
L 309.64194 156.135249 
L 309.64194 154.955107 
L 307.060048 154.955107 
z
" style="fill:#808080;"/>
   </g>
   <g id="patch_115">
    <path clip-path="url(#pff3bd90f52)" d="M 310.287412 156.135249 
L 312.869304 156.135249 
L 312.869304 154.30456 
L 310.287412 154.30456 
z
" style="fill:#808080;"/>
   </g>
   <g id="patch_116">
    <path clip-path="url(#pff3bd90f52)" d="M 313.514776 156.135249 
L 316.096668 156.135249 
L 316.096668 155.696605 
L 313.514776 155.696605 
z
" style="fill:#808080;"/>
   </g>
   <g id="patch_117">
    <path clip-path="url(#pff3bd90f52)" d="M 316.74214 156.135249 
L 319.324032 156.135249 
L 319.324032 155.772014 
L 316.74214 155.772014 
z
" style="fill:#808080;"/>
   </g>
   <g id="patch_118">
    <path clip-path="url(#pff3bd90f52)" d="M 319.969504 156.135249 
L 322.551396 156.135249 
L 322.551396 154.869389 
L 319.969504 154.869389 
z
" style="fill:#808080;"/>
   </g>
   <g id="patch_119">
    <path clip-path="url(#pff3bd90f52)" d="M 323.196868 156.135249 
L 325.77876 156.135249 
L 325.77876 155.069848 
L 323.196868 155.069848 
z
" style="fill:#808080;"/>
   </g>
   <g id="patch_120">
    <path clip-path="url(#pff3bd90f52)" d="M 326.424232 156.135249 
L 329.006124 156.135249 
L 329.006124 155.482689 
L 326.424232 155.482689 
z
" style="fill:#808080;"/>
   </g>
   <g id="patch_121">
    <path clip-path="url(#pff3bd90f52)" d="M 329.651596 156.135249 
L 332.233488 156.135249 
L 332.233488 154.922199 
L 329.651596 154.922199 
z
" style="fill:#808080;"/>
   </g>
   <g id="patch_122">
    <path clip-path="url(#pff3bd90f52)" d="M 332.87896 156.135249 
L 335.460852 156.135249 
L 335.460852 154.320732 
L 332.87896 154.320732 
z
" style="fill:#808080;"/>
   </g>
   <g id="patch_123">
    <path clip-path="url(#pff3bd90f52)" d="M 336.106324 156.135249 
L 338.688216 156.135249 
L 338.688216 153.329595 
L 336.106324 153.329595 
z
" style="fill:#808080;"/>
   </g>
   <g id="patch_124">
    <path clip-path="url(#pff3bd90f52)" d="M 339.333688 156.135249 
L 341.91558 156.135249 
L 341.91558 152.102083 
L 339.333688 152.102083 
z
" style="fill:#808080;"/>
   </g>
   <g id="patch_125">
    <path clip-path="url(#pff3bd90f52)" d="M 342.561052 156.135249 
L 345.142944 156.135249 
L 345.142944 150.728827 
L 342.561052 150.728827 
z
" style="fill:#808080;"/>
   </g>
   <g id="patch_126">
    <path clip-path="url(#pff3bd90f52)" d="M 345.788416 156.135249 
L 348.370308 156.135249 
L 348.370308 149.793214 
L 345.788416 149.793214 
z
" style="fill:#808080;"/>
   </g>
   <g id="patch_127">
    <path clip-path="url(#pff3bd90f52)" d="M 349.01578 156.135249 
L 351.597672 156.135249 
L 351.597672 148.095933 
L 349.01578 148.095933 
z
" style="fill:#808080;"/>
   </g>
   <g id="patch_128">
    <path clip-path="url(#pff3bd90f52)" d="M 352.243144 156.135249 
L 354.825036 156.135249 
L 354.825036 146.909722 
L 352.243144 146.909722 
z
" style="fill:#808080;"/>
   </g>
   <g id="patch_129">
    <path clip-path="url(#pff3bd90f52)" d="M 355.470508 156.135249 
L 358.0524 156.135249 
L 358.0524 143.059514 
L 355.470508 143.059514 
z
" style="fill:#808080;"/>
   </g>
   <g id="patch_130">
    <path clip-path="url(#pff3bd90f52)" d="M 358.697872 156.135249 
L 361.279764 156.135249 
L 361.279764 142.75774 
L 358.697872 142.75774 
z
" style="fill:#808080;"/>
   </g>
   <g id="patch_131">
    <path clip-path="url(#pff3bd90f52)" d="M 361.925236 156.135249 
L 364.507128 156.135249 
L 364.507128 141.68435 
L 361.925236 141.68435 
z
" style="fill:#808080;"/>
   </g>
   <g id="patch_132">
    <path clip-path="url(#pff3bd90f52)" d="M 365.1526 156.135249 
L 367.734492 156.135249 
L 367.734492 140.526161 
L 365.1526 140.526161 
z
" style="fill:#808080;"/>
   </g>
   <g id="patch_133">
    <path clip-path="url(#pff3bd90f52)" d="M 368.379964 156.135249 
L 370.961856 156.135249 
L 370.961856 140.166304 
L 368.379964 140.166304 
z
" style="fill:#808080;"/>
   </g>
   <g id="patch_134">
    <path clip-path="url(#pff3bd90f52)" d="M 371.607328 156.135249 
L 374.18922 156.135249 
L 374.18922 139.556832 
L 371.607328 139.556832 
z
" style="fill:#808080;"/>
   </g>
   <g id="patch_135">
    <path clip-path="url(#pff3bd90f52)" d="M 374.834692 156.135249 
L 377.416584 156.135249 
L 377.416584 135.108571 
L 374.834692 135.108571 
z
" style="fill:#808080;"/>
   </g>
   <g id="patch_136">
    <path clip-path="url(#pff3bd90f52)" d="M 378.062056 156.135249 
L 380.643948 156.135249 
L 380.643948 133.485519 
L 378.062056 133.485519 
z
" style="fill:#808080;"/>
   </g>
   <g id="patch_137">
    <path clip-path="url(#pff3bd90f52)" d="M 381.28942 156.135249 
L 383.871312 156.135249 
L 383.871312 131.919844 
L 381.28942 131.919844 
z
" style="fill:#808080;"/>
   </g>
   <g id="patch_138">
    <path clip-path="url(#pff3bd90f52)" d="M 384.516784 156.135249 
L 387.098676 156.135249 
L 387.098676 124.296109 
L 384.516784 124.296109 
z
" style="fill:#808080;"/>
   </g>
   <g id="patch_139">
    <path clip-path="url(#pff3bd90f52)" d="M 387.744148 156.135249 
L 390.32604 156.135249 
L 390.32604 123.884556 
L 387.744148 123.884556 
z
" style="fill:#808080;"/>
   </g>
   <g id="patch_140">
    <path clip-path="url(#pff3bd90f52)" d="M 390.971512 156.135249 
L 393.553404 156.135249 
L 393.553404 119.469648 
L 390.971512 119.469648 
z
" style="fill:#808080;"/>
   </g>
   <g id="patch_141">
    <path clip-path="url(#pff3bd90f52)" d="M 394.198876 156.135249 
L 396.780768 156.135249 
L 396.780768 116.420235 
L 394.198876 116.420235 
z
" style="fill:#808080;"/>
   </g>
   <g id="patch_142">
    <path clip-path="url(#pff3bd90f52)" d="M 397.42624 156.135249 
L 400.008132 156.135249 
L 400.008132 116.634923 
L 397.42624 116.634923 
z
" style="fill:#808080;"/>
   </g>
   <g id="patch_143">
    <path clip-path="url(#pff3bd90f52)" d="M 400.653604 156.135249 
L 403.235496 156.135249 
L 403.235496 108.48045 
L 400.653604 108.48045 
z
" style="fill:#808080;"/>
   </g>
   <g id="patch_144">
    <path clip-path="url(#pff3bd90f52)" d="M 403.880968 156.135249 
L 406.46286 156.135249 
L 406.46286 101.261556 
L 403.880968 101.261556 
z
" style="fill:#808080;"/>
   </g>
   <g id="patch_145">
    <path clip-path="url(#pff3bd90f52)" d="M 407.108332 156.135249 
L 409.690224 156.135249 
L 409.690224 97.338928 
L 407.108332 97.338928 
z
" style="fill:#808080;"/>
   </g>
   <g id="patch_146">
    <path clip-path="url(#pff3bd90f52)" d="M 410.335696 156.135249 
L 412.917588 156.135249 
L 412.917588 79.314157 
L 410.335696 79.314157 
z
" style="fill:#808080;"/>
   </g>
   <g id="patch_147">
    <path clip-path="url(#pff3bd90f52)" d="M 413.56306 156.135249 
L 416.144952 156.135249 
L 416.144952 73.806894 
L 413.56306 73.806894 
z
" style="fill:#808080;"/>
   </g>
   <g id="patch_148">
    <path clip-path="url(#pff3bd90f52)" d="M 416.790424 156.135249 
L 419.372316 156.135249 
L 419.372316 78.519732 
L 416.790424 78.519732 
z
" style="fill:#808080;"/>
   </g>
   <g id="patch_149">
    <path clip-path="url(#pff3bd90f52)" d="M 420.017788 156.135249 
L 422.59968 156.135249 
L 422.59968 74.620942 
L 420.017788 74.620942 
z
" style="fill:#808080;"/>
   </g>
   <g id="patch_150">
    <path clip-path="url(#pff3bd90f52)" d="M 423.245152 156.135249 
L 425.827044 156.135249 
L 425.827044 67.81645 
L 423.245152 67.81645 
z
" style="fill:#808080;"/>
   </g>
   <g id="patch_151">
    <path clip-path="url(#pff3bd90f52)" d="M 426.472516 156.135249 
L 429.054408 156.135249 
L 429.054408 65.929165 
L 426.472516 65.929165 
z
" style="fill:#808080;"/>
   </g>
   <g id="patch_152">
    <path clip-path="url(#pff3bd90f52)" d="M 429.69988 156.135249 
L 432.281772 156.135249 
L 432.281772 56.80644 
L 429.69988 56.80644 
z
" style="fill:#808080;"/>
   </g>
   <g id="patch_153">
    <path clip-path="url(#pff3bd90f52)" d="M 432.927244 156.135249 
L 435.509136 156.135249 
L 435.509136 156.135249 
L 432.927244 156.135249 
z
" style="fill:#808080;"/>
   </g>
   <g id="patch_154">
    <path clip-path="url(#pff3bd90f52)" d="M 436.154608 156.135249 
L 438.7365 156.135249 
L 438.7365 156.135249 
L 436.154608 156.135249 
z
" style="fill:#808080;"/>
   </g>
   <g id="patch_155">
    <path clip-path="url(#pff3bd90f52)" d="M 439.381972 156.135249 
L 441.963864 156.135249 
L 441.963864 156.135249 
L 439.381972 156.135249 
z
" style="fill:#808080;"/>
   </g>
   <g id="matplotlib.axis_3">
    <g id="xtick_7">
     <g id="line2d_11">
      <g>
       <use style="stroke:#000000;stroke-width:0.8;" x="280.9184" xlink:href="#mba3b3a9ed9" y="157.135249"/>
      </g>
     </g>
     <g id="text_13">
      <!-- −4 -->
      <defs>
       <path d="M 10.59375 35.5 
L 73.1875 35.5 
L 73.1875 27.203125 
L 10.59375 27.203125 
z
" id="DejaVuSans-8722"/>
      </defs>
      <g transform="translate(273.547306 171.733687)scale(0.1 -0.1)">
       <use xlink:href="#DejaVuSans-8722"/>
       <use x="83.789062" xlink:href="#DejaVuSans-52"/>
      </g>
     </g>
    </g>
    <g id="xtick_8">
     <g id="line2d_12">
      <g>
       <use style="stroke:#000000;stroke-width:0.8;" x="313.19204" xlink:href="#mba3b3a9ed9" y="157.135249"/>
      </g>
     </g>
     <g id="text_14">
      <!-- −3 -->
      <g transform="translate(305.820946 171.733687)scale(0.1 -0.1)">
       <use xlink:href="#DejaVuSans-8722"/>
       <use x="83.789062" xlink:href="#DejaVuSans-51"/>
      </g>
     </g>
    </g>
    <g id="xtick_9">
     <g id="line2d_13">
      <g>
       <use style="stroke:#000000;stroke-width:0.8;" x="345.46568" xlink:href="#mba3b3a9ed9" y="157.135249"/>
      </g>
     </g>
     <g id="text_15">
      <!-- −2 -->
      <g transform="translate(338.094586 171.733687)scale(0.1 -0.1)">
       <use xlink:href="#DejaVuSans-8722"/>
       <use x="83.789062" xlink:href="#DejaVuSans-50"/>
      </g>
     </g>
    </g>
    <g id="xtick_10">
     <g id="line2d_14">
      <g>
       <use style="stroke:#000000;stroke-width:0.8;" x="377.73932" xlink:href="#mba3b3a9ed9" y="157.135249"/>
      </g>
     </g>
     <g id="text_16">
      <!-- −1 -->
      <g transform="translate(370.368226 171.733687)scale(0.1 -0.1)">
       <use xlink:href="#DejaVuSans-8722"/>
       <use x="83.789062" xlink:href="#DejaVuSans-49"/>
      </g>
     </g>
    </g>
    <g id="xtick_11">
     <g id="line2d_15">
      <g>
       <use style="stroke:#000000;stroke-width:0.8;" x="410.01296" xlink:href="#mba3b3a9ed9" y="157.135249"/>
      </g>
     </g>
     <g id="text_17">
      <!-- 0 -->
      <g transform="translate(406.83171 171.733687)scale(0.1 -0.1)">
       <use xlink:href="#DejaVuSans-48"/>
      </g>
     </g>
    </g>
    <g id="xtick_12">
     <g id="line2d_16">
      <g>
       <use style="stroke:#000000;stroke-width:0.8;" x="442.2866" xlink:href="#mba3b3a9ed9" y="157.135249"/>
      </g>
     </g>
     <g id="text_18">
      <!-- 1 -->
      <g transform="translate(439.10535 171.733687)scale(0.1 -0.1)">
       <use xlink:href="#DejaVuSans-49"/>
      </g>
     </g>
    </g>
    <g id="text_19">
     <!-- $\log_{10}K_\mathrm{S}$ -->
     <defs>
      <path d="M 45.40625 27.984375 
Q 45.40625 37.75 41.375 43.109375 
Q 37.359375 48.484375 30.078125 48.484375 
Q 22.859375 48.484375 18.828125 43.109375 
Q 14.796875 37.75 14.796875 27.984375 
Q 14.796875 18.265625 18.828125 12.890625 
Q 22.859375 7.515625 30.078125 7.515625 
Q 37.359375 7.515625 41.375 12.890625 
Q 45.40625 18.265625 45.40625 27.984375 
z
M 54.390625 6.78125 
Q 54.390625 -7.171875 48.1875 -13.984375 
Q 42 -20.796875 29.203125 -20.796875 
Q 24.46875 -20.796875 20.265625 -20.09375 
Q 16.0625 -19.390625 12.109375 -17.921875 
L 12.109375 -9.1875 
Q 16.0625 -11.328125 19.921875 -12.34375 
Q 23.78125 -13.375 27.78125 -13.375 
Q 36.625 -13.375 41.015625 -8.765625 
Q 45.40625 -4.15625 45.40625 5.171875 
L 45.40625 9.625 
Q 42.625 4.78125 38.28125 2.390625 
Q 33.9375 0 27.875 0 
Q 17.828125 0 11.671875 7.65625 
Q 5.515625 15.328125 5.515625 27.984375 
Q 5.515625 40.671875 11.671875 48.328125 
Q 17.828125 56 27.875 56 
Q 33.9375 56 38.28125 53.609375 
Q 42.625 51.21875 45.40625 46.390625 
L 45.40625 54.6875 
L 54.390625 54.6875 
z
" id="DejaVuSans-103"/>
     </defs>
     <g transform="translate(343.7025 185.413374)scale(0.1 -0.1)">
      <use transform="translate(0 0.015625)" xlink:href="#DejaVuSans-108"/>
      <use transform="translate(27.783203 0.015625)" xlink:href="#DejaVuSans-111"/>
      <use transform="translate(88.964844 0.015625)" xlink:href="#DejaVuSans-103"/>
      <use transform="translate(153.398438 -16.390625)scale(0.7)" xlink:href="#DejaVuSans-49"/>
      <use transform="translate(197.93457 -16.390625)scale(0.7)" xlink:href="#DejaVuSans-48"/>
      <use transform="translate(245.205078 0.015625)" xlink:href="#DejaVuSans-Oblique-75"/>
      <use transform="translate(310.78125 -16.390625)scale(0.7)" xlink:href="#DejaVuSans-83"/>
     </g>
    </g>
   </g>
   <g id="matplotlib.axis_4">
    <g id="ytick_5">
     <g id="line2d_17">
      <g>
       <use style="stroke:#000000;stroke-width:0.8;" x="272.205" xlink:href="#m13bdad56d1" y="156.135249"/>
      </g>
     </g>
     <g id="text_20">
      <!-- 0 -->
      <g transform="translate(258.8425 159.934468)scale(0.1 -0.1)">
       <use xlink:href="#DejaVuSans-48"/>
      </g>
     </g>
    </g>
    <g id="ytick_6">
     <g id="line2d_18">
      <g>
       <use style="stroke:#000000;stroke-width:0.8;" x="272.205" xlink:href="#m13bdad56d1" y="131.929145"/>
      </g>
     </g>
     <g id="text_21">
      <!-- 200 -->
      <g transform="translate(246.1175 135.728363)scale(0.1 -0.1)">
       <use xlink:href="#DejaVuSans-50"/>
       <use x="63.623047" xlink:href="#DejaVuSans-48"/>
       <use x="127.246094" xlink:href="#DejaVuSans-48"/>
      </g>
     </g>
    </g>
    <g id="ytick_7">
     <g id="line2d_19">
      <g>
       <use style="stroke:#000000;stroke-width:0.8;" x="272.205" xlink:href="#m13bdad56d1" y="107.72304"/>
      </g>
     </g>
     <g id="text_22">
      <!-- 400 -->
      <g transform="translate(246.1175 111.522259)scale(0.1 -0.1)">
       <use xlink:href="#DejaVuSans-52"/>
       <use x="63.623047" xlink:href="#DejaVuSans-48"/>
       <use x="127.246094" xlink:href="#DejaVuSans-48"/>
      </g>
     </g>
    </g>
    <g id="ytick_8">
     <g id="line2d_20">
      <g>
       <use style="stroke:#000000;stroke-width:0.8;" x="272.205" xlink:href="#m13bdad56d1" y="83.516936"/>
      </g>
     </g>
     <g id="text_23">
      <!-- 600 -->
      <defs>
       <path d="M 33.015625 40.375 
Q 26.375 40.375 22.484375 35.828125 
Q 18.609375 31.296875 18.609375 23.390625 
Q 18.609375 15.53125 22.484375 10.953125 
Q 26.375 6.390625 33.015625 6.390625 
Q 39.65625 6.390625 43.53125 10.953125 
Q 47.40625 15.53125 47.40625 23.390625 
Q 47.40625 31.296875 43.53125 35.828125 
Q 39.65625 40.375 33.015625 40.375 
z
M 52.59375 71.296875 
L 52.59375 62.3125 
Q 48.875 64.0625 45.09375 64.984375 
Q 41.3125 65.921875 37.59375 65.921875 
Q 27.828125 65.921875 22.671875 59.328125 
Q 17.53125 52.734375 16.796875 39.40625 
Q 19.671875 43.65625 24.015625 45.921875 
Q 28.375 48.1875 33.59375 48.1875 
Q 44.578125 48.1875 50.953125 41.515625 
Q 57.328125 34.859375 57.328125 23.390625 
Q 57.328125 12.15625 50.6875 5.359375 
Q 44.046875 -1.421875 33.015625 -1.421875 
Q 20.359375 -1.421875 13.671875 8.265625 
Q 6.984375 17.96875 6.984375 36.375 
Q 6.984375 53.65625 15.1875 63.9375 
Q 23.390625 74.21875 37.203125 74.21875 
Q 40.921875 74.21875 44.703125 73.484375 
Q 48.484375 72.75 52.59375 71.296875 
z
" id="DejaVuSans-54"/>
      </defs>
      <g transform="translate(246.1175 87.316154)scale(0.1 -0.1)">
       <use xlink:href="#DejaVuSans-54"/>
       <use x="63.623047" xlink:href="#DejaVuSans-48"/>
       <use x="127.246094" xlink:href="#DejaVuSans-48"/>
      </g>
     </g>
    </g>
    <g id="ytick_9">
     <g id="line2d_21">
      <g>
       <use style="stroke:#000000;stroke-width:0.8;" x="272.205" xlink:href="#m13bdad56d1" y="59.310831"/>
      </g>
     </g>
     <g id="text_24">
      <!-- 800 -->
      <defs>
       <path d="M 31.78125 34.625 
Q 24.75 34.625 20.71875 30.859375 
Q 16.703125 27.09375 16.703125 20.515625 
Q 16.703125 13.921875 20.71875 10.15625 
Q 24.75 6.390625 31.78125 6.390625 
Q 38.8125 6.390625 42.859375 10.171875 
Q 46.921875 13.96875 46.921875 20.515625 
Q 46.921875 27.09375 42.890625 30.859375 
Q 38.875 34.625 31.78125 34.625 
z
M 21.921875 38.8125 
Q 15.578125 40.375 12.03125 44.71875 
Q 8.5 49.078125 8.5 55.328125 
Q 8.5 64.0625 14.71875 69.140625 
Q 20.953125 74.21875 31.78125 74.21875 
Q 42.671875 74.21875 48.875 69.140625 
Q 55.078125 64.0625 55.078125 55.328125 
Q 55.078125 49.078125 51.53125 44.71875 
Q 48 40.375 41.703125 38.8125 
Q 48.828125 37.15625 52.796875 32.3125 
Q 56.78125 27.484375 56.78125 20.515625 
Q 56.78125 9.90625 50.3125 4.234375 
Q 43.84375 -1.421875 31.78125 -1.421875 
Q 19.734375 -1.421875 13.25 4.234375 
Q 6.78125 9.90625 6.78125 20.515625 
Q 6.78125 27.484375 10.78125 32.3125 
Q 14.796875 37.15625 21.921875 38.8125 
z
M 18.3125 54.390625 
Q 18.3125 48.734375 21.84375 45.5625 
Q 25.390625 42.390625 31.78125 42.390625 
Q 38.140625 42.390625 41.71875 45.5625 
Q 45.3125 48.734375 45.3125 54.390625 
Q 45.3125 60.0625 41.71875 63.234375 
Q 38.140625 66.40625 31.78125 66.40625 
Q 25.390625 66.40625 21.84375 63.234375 
Q 18.3125 60.0625 18.3125 54.390625 
z
" id="DejaVuSans-56"/>
      </defs>
      <g transform="translate(246.1175 63.11005)scale(0.1 -0.1)">
       <use xlink:href="#DejaVuSans-56"/>
       <use x="63.623047" xlink:href="#DejaVuSans-48"/>
       <use x="127.246094" xlink:href="#DejaVuSans-48"/>
      </g>
     </g>
    </g>
   </g>
   <g id="patch_156">
    <path d="M 272.205 156.135249 
L 272.205 51.84 
" style="fill:none;stroke:#000000;stroke-linecap:square;stroke-linejoin:miter;stroke-width:0.8;"/>
   </g>
   <g id="patch_157">
    <path d="M 273.205 157.135249 
L 450 157.135249 
" style="fill:none;stroke:#000000;stroke-linecap:square;stroke-linejoin:miter;stroke-width:0.8;"/>
   </g>
  </g>
  <g id="axes_3">
   <g id="patch_158">
    <path d="M 58.44 299.76 
L 235.235 299.76 
L 235.235 195.464751 
L 58.44 195.464751 
z
" style="fill:#ffffff;"/>
   </g>
   <g id="patch_159">
    <path clip-path="url(#pad5b1842fd)" d="M 66.476136 299.76 
L 69.058028 299.76 
L 69.058028 295.671198 
L 66.476136 295.671198 
z
" style="fill:#808080;"/>
   </g>
   <g id="patch_160">
    <path clip-path="url(#pad5b1842fd)" d="M 69.7035 299.76 
L 72.285392 299.76 
L 72.285392 299.76 
L 69.7035 299.76 
z
" style="fill:#808080;"/>
   </g>
   <g id="patch_161">
    <path clip-path="url(#pad5b1842fd)" d="M 72.930864 299.76 
L 75.512756 299.76 
L 75.512756 299.76 
L 72.930864 299.76 
z
" style="fill:#808080;"/>
   </g>
   <g id="patch_162">
    <path clip-path="url(#pad5b1842fd)" d="M 76.158228 299.76 
L 78.74012 299.76 
L 78.74012 297.975534 
L 76.158228 297.975534 
z
" style="fill:#808080;"/>
   </g>
   <g id="patch_163">
    <path clip-path="url(#pad5b1842fd)" d="M 79.385592 299.76 
L 81.967484 299.76 
L 81.967484 298.008154 
L 79.385592 298.008154 
z
" style="fill:#808080;"/>
   </g>
   <g id="patch_164">
    <path clip-path="url(#pad5b1842fd)" d="M 82.612956 299.76 
L 85.194848 299.76 
L 85.194848 299.76 
L 82.612956 299.76 
z
" style="fill:#808080;"/>
   </g>
   <g id="patch_165">
    <path clip-path="url(#pad5b1842fd)" d="M 85.84032 299.76 
L 88.422212 299.76 
L 88.422212 298.534092 
L 85.84032 298.534092 
z
" style="fill:#808080;"/>
   </g>
   <g id="patch_166">
    <path clip-path="url(#pad5b1842fd)" d="M 89.067684 299.76 
L 91.649576 299.76 
L 91.649576 298.968386 
L 89.067684 298.968386 
z
" style="fill:#808080;"/>
   </g>
   <g id="patch_167">
    <path clip-path="url(#pad5b1842fd)" d="M 92.295048 299.76 
L 94.87694 299.76 
L 94.87694 298.838277 
L 92.295048 298.838277 
z
" style="fill:#808080;"/>
   </g>
   <g id="patch_168">
    <path clip-path="url(#pad5b1842fd)" d="M 95.522412 299.76 
L 98.104304 299.76 
L 98.104304 298.423234 
L 95.522412 298.423234 
z
" style="fill:#808080;"/>
   </g>
   <g id="patch_169">
    <path clip-path="url(#pad5b1842fd)" d="M 98.749776 299.76 
L 101.331668 299.76 
L 101.331668 298.777962 
L 98.749776 298.777962 
z
" style="fill:#808080;"/>
   </g>
   <g id="patch_170">
    <path clip-path="url(#pad5b1842fd)" d="M 101.97714 299.76 
L 104.559032 299.76 
L 104.559032 298.882573 
L 101.97714 298.882573 
z
" style="fill:#808080;"/>
   </g>
   <g id="patch_171">
    <path clip-path="url(#pad5b1842fd)" d="M 105.204504 299.76 
L 107.786396 299.76 
L 107.786396 297.623462 
L 105.204504 297.623462 
z
" style="fill:#808080;"/>
   </g>
   <g id="patch_172">
    <path clip-path="url(#pad5b1842fd)" d="M 108.431868 299.76 
L 111.01376 299.76 
L 111.01376 295.735048 
L 108.431868 295.735048 
z
" style="fill:#808080;"/>
   </g>
   <g id="patch_173">
    <path clip-path="url(#pad5b1842fd)" d="M 111.659232 299.76 
L 114.241124 299.76 
L 114.241124 295.957419 
L 111.659232 295.957419 
z
" style="fill:#808080;"/>
   </g>
   <g id="patch_174">
    <path clip-path="url(#pad5b1842fd)" d="M 114.886596 299.76 
L 117.468488 299.76 
L 117.468488 295.129765 
L 114.886596 295.129765 
z
" style="fill:#808080;"/>
   </g>
   <g id="patch_175">
    <path clip-path="url(#pad5b1842fd)" d="M 118.11396 299.76 
L 120.695852 299.76 
L 120.695852 294.170078 
L 118.11396 294.170078 
z
" style="fill:#808080;"/>
   </g>
   <g id="patch_176">
    <path clip-path="url(#pad5b1842fd)" d="M 121.341324 299.76 
L 123.923216 299.76 
L 123.923216 289.426378 
L 121.341324 289.426378 
z
" style="fill:#808080;"/>
   </g>
   <g id="patch_177">
    <path clip-path="url(#pad5b1842fd)" d="M 124.568688 299.76 
L 127.15058 299.76 
L 127.15058 289.287916 
L 124.568688 289.287916 
z
" style="fill:#808080;"/>
   </g>
   <g id="patch_178">
    <path clip-path="url(#pad5b1842fd)" d="M 127.796052 299.76 
L 130.377944 299.76 
L 130.377944 286.007975 
L 127.796052 286.007975 
z
" style="fill:#808080;"/>
   </g>
   <g id="patch_179">
    <path clip-path="url(#pad5b1842fd)" d="M 131.023416 299.76 
L 133.605308 299.76 
L 133.605308 284.827465 
L 131.023416 284.827465 
z
" style="fill:#808080;"/>
   </g>
   <g id="patch_180">
    <path clip-path="url(#pad5b1842fd)" d="M 134.25078 299.76 
L 136.832672 299.76 
L 136.832672 279.834507 
L 134.25078 279.834507 
z
" style="fill:#808080;"/>
   </g>
   <g id="patch_181">
    <path clip-path="url(#pad5b1842fd)" d="M 137.478144 299.76 
L 140.060036 299.76 
L 140.060036 279.095838 
L 137.478144 279.095838 
z
" style="fill:#808080;"/>
   </g>
   <g id="patch_182">
    <path clip-path="url(#pad5b1842fd)" d="M 140.705508 299.76 
L 143.2874 299.76 
L 143.2874 277.676472 
L 140.705508 277.676472 
z
" style="fill:#808080;"/>
   </g>
   <g id="patch_183">
    <path clip-path="url(#pad5b1842fd)" d="M 143.932872 299.76 
L 146.514764 299.76 
L 146.514764 275.20565 
L 143.932872 275.20565 
z
" style="fill:#808080;"/>
   </g>
   <g id="patch_184">
    <path clip-path="url(#pad5b1842fd)" d="M 147.160236 299.76 
L 149.742128 299.76 
L 149.742128 273.287934 
L 147.160236 273.287934 
z
" style="fill:#808080;"/>
   </g>
   <g id="patch_185">
    <path clip-path="url(#pad5b1842fd)" d="M 150.3876 299.76 
L 152.969492 299.76 
L 152.969492 268.512102 
L 150.3876 268.512102 
z
" style="fill:#808080;"/>
   </g>
   <g id="patch_186">
    <path clip-path="url(#pad5b1842fd)" d="M 153.614964 299.76 
L 156.196856 299.76 
L 156.196856 266.071868 
L 153.614964 266.071868 
z
" style="fill:#808080;"/>
   </g>
   <g id="patch_187">
    <path clip-path="url(#pad5b1842fd)" d="M 156.842328 299.76 
L 159.42422 299.76 
L 159.42422 256.84191 
L 156.842328 256.84191 
z
" style="fill:#808080;"/>
   </g>
   <g id="patch_188">
    <path clip-path="url(#pad5b1842fd)" d="M 160.069692 299.76 
L 162.651584 299.76 
L 162.651584 251.796673 
L 160.069692 251.796673 
z
" style="fill:#808080;"/>
   </g>
   <g id="patch_189">
    <path clip-path="url(#pad5b1842fd)" d="M 163.297056 299.76 
L 165.878948 299.76 
L 165.878948 239.571653 
L 163.297056 239.571653 
z
" style="fill:#808080;"/>
   </g>
   <g id="patch_190">
    <path clip-path="url(#pad5b1842fd)" d="M 166.52442 299.76 
L 169.106312 299.76 
L 169.106312 228.623152 
L 166.52442 228.623152 
z
" style="fill:#808080;"/>
   </g>
   <g id="patch_191">
    <path clip-path="url(#pad5b1842fd)" d="M 169.751784 299.76 
L 172.333676 299.76 
L 172.333676 218.436169 
L 169.751784 218.436169 
z
" style="fill:#808080;"/>
   </g>
   <g id="patch_192">
    <path clip-path="url(#pad5b1842fd)" d="M 172.979148 299.76 
L 175.56104 299.76 
L 175.56104 209.681867 
L 172.979148 209.681867 
z
" style="fill:#808080;"/>
   </g>
   <g id="patch_193">
    <path clip-path="url(#pad5b1842fd)" d="M 176.206512 299.76 
L 178.788404 299.76 
L 178.788404 202.84166 
L 176.206512 202.84166 
z
" style="fill:#808080;"/>
   </g>
   <g id="patch_194">
    <path clip-path="url(#pad5b1842fd)" d="M 179.433876 299.76 
L 182.015768 299.76 
L 182.015768 200.431191 
L 179.433876 200.431191 
z
" style="fill:#808080;"/>
   </g>
   <g id="patch_195">
    <path clip-path="url(#pad5b1842fd)" d="M 182.66124 299.76 
L 185.243132 299.76 
L 185.243132 209.19721 
L 182.66124 209.19721 
z
" style="fill:#808080;"/>
   </g>
   <g id="patch_196">
    <path clip-path="url(#pad5b1842fd)" d="M 185.888604 299.76 
L 188.470496 299.76 
L 188.470496 216.915151 
L 185.888604 216.915151 
z
" style="fill:#808080;"/>
   </g>
   <g id="patch_197">
    <path clip-path="url(#pad5b1842fd)" d="M 189.115968 299.76 
L 191.69786 299.76 
L 191.69786 243.457496 
L 189.115968 243.457496 
z
" style="fill:#808080;"/>
   </g>
   <g id="patch_198">
    <path clip-path="url(#pad5b1842fd)" d="M 192.343332 299.76 
L 194.925224 299.76 
L 194.925224 265.677733 
L 192.343332 265.677733 
z
" style="fill:#808080;"/>
   </g>
   <g id="patch_199">
    <path clip-path="url(#pad5b1842fd)" d="M 195.570696 299.76 
L 198.152588 299.76 
L 198.152588 282.042709 
L 195.570696 282.042709 
z
" style="fill:#808080;"/>
   </g>
   <g id="patch_200">
    <path clip-path="url(#pad5b1842fd)" d="M 198.79806 299.76 
L 201.379952 299.76 
L 201.379952 290.701637 
L 198.79806 290.701637 
z
" style="fill:#808080;"/>
   </g>
   <g id="patch_201">
    <path clip-path="url(#pad5b1842fd)" d="M 202.025424 299.76 
L 204.607316 299.76 
L 204.607316 293.918511 
L 202.025424 293.918511 
z
" style="fill:#808080;"/>
   </g>
   <g id="patch_202">
    <path clip-path="url(#pad5b1842fd)" d="M 205.252788 299.76 
L 207.83468 299.76 
L 207.83468 296.945733 
L 205.252788 296.945733 
z
" style="fill:#808080;"/>
   </g>
   <g id="patch_203">
    <path clip-path="url(#pad5b1842fd)" d="M 208.480152 299.76 
L 211.062044 299.76 
L 211.062044 297.489397 
L 208.480152 297.489397 
z
" style="fill:#808080;"/>
   </g>
   <g id="patch_204">
    <path clip-path="url(#pad5b1842fd)" d="M 211.707516 299.76 
L 214.289408 299.76 
L 214.289408 297.98615 
L 211.707516 297.98615 
z
" style="fill:#808080;"/>
   </g>
   <g id="patch_205">
    <path clip-path="url(#pad5b1842fd)" d="M 214.93488 299.76 
L 217.516772 299.76 
L 217.516772 297.361546 
L 214.93488 297.361546 
z
" style="fill:#808080;"/>
   </g>
   <g id="patch_206">
    <path clip-path="url(#pad5b1842fd)" d="M 218.162244 299.76 
L 220.744136 299.76 
L 220.744136 297.71562 
L 218.162244 297.71562 
z
" style="fill:#808080;"/>
   </g>
   <g id="patch_207">
    <path clip-path="url(#pad5b1842fd)" d="M 221.389608 299.76 
L 223.9715 299.76 
L 223.9715 297.627497 
L 221.389608 297.627497 
z
" style="fill:#808080;"/>
   </g>
   <g id="patch_208">
    <path clip-path="url(#pad5b1842fd)" d="M 224.616972 299.76 
L 227.198864 299.76 
L 227.198864 298.318674 
L 224.616972 298.318674 
z
" style="fill:#808080;"/>
   </g>
   <g id="matplotlib.axis_5">
    <g id="xtick_13">
     <g id="line2d_22">
      <g>
       <use style="stroke:#000000;stroke-width:0.8;" x="66.1534" xlink:href="#mba3b3a9ed9" y="300.76"/>
      </g>
     </g>
     <g id="text_25">
      <!-- −4 -->
      <g transform="translate(58.782306 315.358437)scale(0.1 -0.1)">
       <use xlink:href="#DejaVuSans-8722"/>
       <use x="83.789062" xlink:href="#DejaVuSans-52"/>
      </g>
     </g>
    </g>
    <g id="xtick_14">
     <g id="line2d_23">
      <g>
       <use style="stroke:#000000;stroke-width:0.8;" x="98.42704" xlink:href="#mba3b3a9ed9" y="300.76"/>
      </g>
     </g>
     <g id="text_26">
      <!-- −3 -->
      <g transform="translate(91.055946 315.358437)scale(0.1 -0.1)">
       <use xlink:href="#DejaVuSans-8722"/>
       <use x="83.789062" xlink:href="#DejaVuSans-51"/>
      </g>
     </g>
    </g>
    <g id="xtick_15">
     <g id="line2d_24">
      <g>
       <use style="stroke:#000000;stroke-width:0.8;" x="130.70068" xlink:href="#mba3b3a9ed9" y="300.76"/>
      </g>
     </g>
     <g id="text_27">
      <!-- −2 -->
      <g transform="translate(123.329586 315.358437)scale(0.1 -0.1)">
       <use xlink:href="#DejaVuSans-8722"/>
       <use x="83.789062" xlink:href="#DejaVuSans-50"/>
      </g>
     </g>
    </g>
    <g id="xtick_16">
     <g id="line2d_25">
      <g>
       <use style="stroke:#000000;stroke-width:0.8;" x="162.97432" xlink:href="#mba3b3a9ed9" y="300.76"/>
      </g>
     </g>
     <g id="text_28">
      <!-- −1 -->
      <g transform="translate(155.603226 315.358437)scale(0.1 -0.1)">
       <use xlink:href="#DejaVuSans-8722"/>
       <use x="83.789062" xlink:href="#DejaVuSans-49"/>
      </g>
     </g>
    </g>
    <g id="xtick_17">
     <g id="line2d_26">
      <g>
       <use style="stroke:#000000;stroke-width:0.8;" x="195.24796" xlink:href="#mba3b3a9ed9" y="300.76"/>
      </g>
     </g>
     <g id="text_29">
      <!-- 0 -->
      <g transform="translate(192.06671 315.358437)scale(0.1 -0.1)">
       <use xlink:href="#DejaVuSans-48"/>
      </g>
     </g>
    </g>
    <g id="xtick_18">
     <g id="line2d_27">
      <g>
       <use style="stroke:#000000;stroke-width:0.8;" x="227.5216" xlink:href="#mba3b3a9ed9" y="300.76"/>
      </g>
     </g>
     <g id="text_30">
      <!-- 1 -->
      <g transform="translate(224.34035 315.358437)scale(0.1 -0.1)">
       <use xlink:href="#DejaVuSans-49"/>
      </g>
     </g>
    </g>
    <g id="text_31">
     <!-- $\log_{10}K_\mathrm{A}$ -->
     <defs>
      <path d="M 34.1875 63.1875 
L 20.796875 26.90625 
L 47.609375 26.90625 
z
M 28.609375 72.90625 
L 39.796875 72.90625 
L 67.578125 0 
L 57.328125 0 
L 50.6875 18.703125 
L 17.828125 18.703125 
L 11.1875 0 
L 0.78125 0 
z
" id="DejaVuSans-65"/>
     </defs>
     <g transform="translate(128.7375 329.038125)scale(0.1 -0.1)">
      <use transform="translate(0 0.015625)" xlink:href="#DejaVuSans-108"/>
      <use transform="translate(27.783203 0.015625)" xlink:href="#DejaVuSans-111"/>
      <use transform="translate(88.964844 0.015625)" xlink:href="#DejaVuSans-103"/>
      <use transform="translate(153.398438 -16.390625)scale(0.7)" xlink:href="#DejaVuSans-49"/>
      <use transform="translate(197.93457 -16.390625)scale(0.7)" xlink:href="#DejaVuSans-48"/>
      <use transform="translate(245.205078 0.015625)" xlink:href="#DejaVuSans-Oblique-75"/>
      <use transform="translate(310.78125 -16.390625)scale(0.7)" xlink:href="#DejaVuSans-65"/>
     </g>
    </g>
   </g>
   <g id="matplotlib.axis_6">
    <g id="ytick_10">
     <g id="line2d_28">
      <g>
       <use style="stroke:#000000;stroke-width:0.8;" x="57.44" xlink:href="#m13bdad56d1" y="299.76"/>
      </g>
     </g>
     <g id="text_32">
      <!-- 0 -->
      <g transform="translate(44.0775 303.559219)scale(0.1 -0.1)">
       <use xlink:href="#DejaVuSans-48"/>
      </g>
     </g>
    </g>
    <g id="ytick_11">
     <g id="line2d_29">
      <g>
       <use style="stroke:#000000;stroke-width:0.8;" x="57.44" xlink:href="#m13bdad56d1" y="275.135896"/>
      </g>
     </g>
     <g id="text_33">
      <!-- 200 -->
      <g transform="translate(31.3525 278.935115)scale(0.1 -0.1)">
       <use xlink:href="#DejaVuSans-50"/>
       <use x="63.623047" xlink:href="#DejaVuSans-48"/>
       <use x="127.246094" xlink:href="#DejaVuSans-48"/>
      </g>
     </g>
    </g>
    <g id="ytick_12">
     <g id="line2d_30">
      <g>
       <use style="stroke:#000000;stroke-width:0.8;" x="57.44" xlink:href="#m13bdad56d1" y="250.511792"/>
      </g>
     </g>
     <g id="text_34">
      <!-- 400 -->
      <g transform="translate(31.3525 254.311011)scale(0.1 -0.1)">
       <use xlink:href="#DejaVuSans-52"/>
       <use x="63.623047" xlink:href="#DejaVuSans-48"/>
       <use x="127.246094" xlink:href="#DejaVuSans-48"/>
      </g>
     </g>
    </g>
    <g id="ytick_13">
     <g id="line2d_31">
      <g>
       <use style="stroke:#000000;stroke-width:0.8;" x="57.44" xlink:href="#m13bdad56d1" y="225.887688"/>
      </g>
     </g>
     <g id="text_35">
      <!-- 600 -->
      <g transform="translate(31.3525 229.686907)scale(0.1 -0.1)">
       <use xlink:href="#DejaVuSans-54"/>
       <use x="63.623047" xlink:href="#DejaVuSans-48"/>
       <use x="127.246094" xlink:href="#DejaVuSans-48"/>
      </g>
     </g>
    </g>
    <g id="ytick_14">
     <g id="line2d_32">
      <g>
       <use style="stroke:#000000;stroke-width:0.8;" x="57.44" xlink:href="#m13bdad56d1" y="201.263584"/>
      </g>
     </g>
     <g id="text_36">
      <!-- 800 -->
      <g transform="translate(31.3525 205.062803)scale(0.1 -0.1)">
       <use xlink:href="#DejaVuSans-56"/>
       <use x="63.623047" xlink:href="#DejaVuSans-48"/>
       <use x="127.246094" xlink:href="#DejaVuSans-48"/>
      </g>
     </g>
    </g>
    <g id="text_37">
     <!-- Duplications -->
     <g transform="translate(25.272813 278.578782)rotate(-90)scale(0.1 -0.1)">
      <use xlink:href="#DejaVuSans-68"/>
      <use x="77.001953" xlink:href="#DejaVuSans-117"/>
      <use x="140.380859" xlink:href="#DejaVuSans-112"/>
      <use x="203.857422" xlink:href="#DejaVuSans-108"/>
      <use x="231.640625" xlink:href="#DejaVuSans-105"/>
      <use x="259.423828" xlink:href="#DejaVuSans-99"/>
      <use x="314.404297" xlink:href="#DejaVuSans-97"/>
      <use x="375.683594" xlink:href="#DejaVuSans-116"/>
      <use x="414.892578" xlink:href="#DejaVuSans-105"/>
      <use x="442.675781" xlink:href="#DejaVuSans-111"/>
      <use x="503.857422" xlink:href="#DejaVuSans-110"/>
      <use x="567.236328" xlink:href="#DejaVuSans-115"/>
     </g>
    </g>
   </g>
   <g id="patch_209">
    <path d="M 57.44 299.76 
L 57.44 195.464751 
" style="fill:none;stroke:#000000;stroke-linecap:square;stroke-linejoin:miter;stroke-width:0.8;"/>
   </g>
   <g id="patch_210">
    <path d="M 58.44 300.76 
L 235.235 300.76 
" style="fill:none;stroke:#000000;stroke-linecap:square;stroke-linejoin:miter;stroke-width:0.8;"/>
   </g>
  </g>
  <g id="axes_4">
   <g id="patch_211">
    <path d="M 273.205 299.76 
L 450 299.76 
L 450 195.464751 
L 273.205 195.464751 
z
" style="fill:#ffffff;"/>
   </g>
   <g id="patch_212">
    <path clip-path="url(#p4b5b01c170)" d="M 281.241136 299.76 
L 283.823028 299.76 
L 283.823028 299.76 
L 281.241136 299.76 
z
" style="fill:#808080;"/>
   </g>
   <g id="patch_213">
    <path clip-path="url(#p4b5b01c170)" d="M 284.4685 299.76 
L 287.050392 299.76 
L 287.050392 299.76 
L 284.4685 299.76 
z
" style="fill:#808080;"/>
   </g>
   <g id="patch_214">
    <path clip-path="url(#p4b5b01c170)" d="M 287.695864 299.76 
L 290.277756 299.76 
L 290.277756 299.76 
L 287.695864 299.76 
z
" style="fill:#808080;"/>
   </g>
   <g id="patch_215">
    <path clip-path="url(#p4b5b01c170)" d="M 290.923228 299.76 
L 293.50512 299.76 
L 293.50512 299.76 
L 290.923228 299.76 
z
" style="fill:#808080;"/>
   </g>
   <g id="patch_216">
    <path clip-path="url(#p4b5b01c170)" d="M 294.150592 299.76 
L 296.732484 299.76 
L 296.732484 299.76 
L 294.150592 299.76 
z
" style="fill:#808080;"/>
   </g>
   <g id="patch_217">
    <path clip-path="url(#p4b5b01c170)" d="M 297.377956 299.76 
L 299.959848 299.76 
L 299.959848 299.76 
L 297.377956 299.76 
z
" style="fill:#808080;"/>
   </g>
   <g id="patch_218">
    <path clip-path="url(#p4b5b01c170)" d="M 300.60532 299.76 
L 303.187212 299.76 
L 303.187212 299.76 
L 300.60532 299.76 
z
" style="fill:#808080;"/>
   </g>
   <g id="patch_219">
    <path clip-path="url(#p4b5b01c170)" d="M 303.832684 299.76 
L 306.414576 299.76 
L 306.414576 299.76 
L 303.832684 299.76 
z
" style="fill:#808080;"/>
   </g>
   <g id="patch_220">
    <path clip-path="url(#p4b5b01c170)" d="M 307.060048 299.76 
L 309.64194 299.76 
L 309.64194 299.76 
L 307.060048 299.76 
z
" style="fill:#808080;"/>
   </g>
   <g id="patch_221">
    <path clip-path="url(#p4b5b01c170)" d="M 310.287412 299.76 
L 312.869304 299.76 
L 312.869304 271.732163 
L 310.287412 271.732163 
z
" style="fill:#808080;"/>
   </g>
   <g id="patch_222">
    <path clip-path="url(#p4b5b01c170)" d="M 313.514776 299.76 
L 316.096668 299.76 
L 316.096668 299.76 
L 313.514776 299.76 
z
" style="fill:#808080;"/>
   </g>
   <g id="patch_223">
    <path clip-path="url(#p4b5b01c170)" d="M 316.74214 299.76 
L 319.324032 299.76 
L 319.324032 299.76 
L 316.74214 299.76 
z
" style="fill:#808080;"/>
   </g>
   <g id="patch_224">
    <path clip-path="url(#p4b5b01c170)" d="M 319.969504 299.76 
L 322.551396 299.76 
L 322.551396 299.484412 
L 319.969504 299.484412 
z
" style="fill:#808080;"/>
   </g>
   <g id="patch_225">
    <path clip-path="url(#p4b5b01c170)" d="M 323.196868 299.76 
L 325.77876 299.76 
L 325.77876 299.620828 
L 323.196868 299.620828 
z
" style="fill:#808080;"/>
   </g>
   <g id="patch_226">
    <path clip-path="url(#p4b5b01c170)" d="M 326.424232 299.76 
L 329.006124 299.76 
L 329.006124 299.484412 
L 326.424232 299.484412 
z
" style="fill:#808080;"/>
   </g>
   <g id="patch_227">
    <path clip-path="url(#p4b5b01c170)" d="M 329.651596 299.76 
L 332.233488 299.76 
L 332.233488 299.311556 
L 329.651596 299.311556 
z
" style="fill:#808080;"/>
   </g>
   <g id="patch_228">
    <path clip-path="url(#p4b5b01c170)" d="M 332.87896 299.76 
L 335.460852 299.76 
L 335.460852 299.383005 
L 332.87896 299.383005 
z
" style="fill:#808080;"/>
   </g>
   <g id="patch_229">
    <path clip-path="url(#p4b5b01c170)" d="M 336.106324 299.76 
L 338.688216 299.76 
L 338.688216 299.372356 
L 336.106324 299.372356 
z
" style="fill:#808080;"/>
   </g>
   <g id="patch_230">
    <path clip-path="url(#p4b5b01c170)" d="M 339.333688 299.76 
L 341.91558 299.76 
L 341.91558 299.006834 
L 339.333688 299.006834 
z
" style="fill:#808080;"/>
   </g>
   <g id="patch_231">
    <path clip-path="url(#p4b5b01c170)" d="M 342.561052 299.76 
L 345.142944 299.76 
L 345.142944 298.552995 
L 342.561052 298.552995 
z
" style="fill:#808080;"/>
   </g>
   <g id="patch_232">
    <path clip-path="url(#p4b5b01c170)" d="M 345.788416 299.76 
L 348.370308 299.76 
L 348.370308 297.875385 
L 345.788416 297.875385 
z
" style="fill:#808080;"/>
   </g>
   <g id="patch_233">
    <path clip-path="url(#p4b5b01c170)" d="M 349.01578 299.76 
L 351.597672 299.76 
L 351.597672 297.621704 
L 349.01578 297.621704 
z
" style="fill:#808080;"/>
   </g>
   <g id="patch_234">
    <path clip-path="url(#p4b5b01c170)" d="M 352.243144 299.76 
L 354.825036 299.76 
L 354.825036 297.299472 
L 352.243144 297.299472 
z
" style="fill:#808080;"/>
   </g>
   <g id="patch_235">
    <path clip-path="url(#p4b5b01c170)" d="M 355.470508 299.76 
L 358.0524 299.76 
L 358.0524 296.023203 
L 355.470508 296.023203 
z
" style="fill:#808080;"/>
   </g>
   <g id="patch_236">
    <path clip-path="url(#p4b5b01c170)" d="M 358.697872 299.76 
L 361.279764 299.76 
L 361.279764 294.276464 
L 358.697872 294.276464 
z
" style="fill:#808080;"/>
   </g>
   <g id="patch_237">
    <path clip-path="url(#p4b5b01c170)" d="M 361.925236 299.76 
L 364.507128 299.76 
L 364.507128 290.98557 
L 361.925236 290.98557 
z
" style="fill:#808080;"/>
   </g>
   <g id="patch_238">
    <path clip-path="url(#p4b5b01c170)" d="M 365.1526 299.76 
L 367.734492 299.76 
L 367.734492 283.116566 
L 365.1526 283.116566 
z
" style="fill:#808080;"/>
   </g>
   <g id="patch_239">
    <path clip-path="url(#p4b5b01c170)" d="M 368.379964 299.76 
L 370.961856 299.76 
L 370.961856 273.340916 
L 368.379964 273.340916 
z
" style="fill:#808080;"/>
   </g>
   <g id="patch_240">
    <path clip-path="url(#p4b5b01c170)" d="M 371.607328 299.76 
L 374.18922 299.76 
L 374.18922 261.398529 
L 371.607328 261.398529 
z
" style="fill:#808080;"/>
   </g>
   <g id="patch_241">
    <path clip-path="url(#p4b5b01c170)" d="M 374.834692 299.76 
L 377.416584 299.76 
L 377.416584 244.557926 
L 374.834692 244.557926 
z
" style="fill:#808080;"/>
   </g>
   <g id="patch_242">
    <path clip-path="url(#p4b5b01c170)" d="M 378.062056 299.76 
L 380.643948 299.76 
L 380.643948 225.291303 
L 378.062056 225.291303 
z
" style="fill:#808080;"/>
   </g>
   <g id="patch_243">
    <path clip-path="url(#p4b5b01c170)" d="M 381.28942 299.76 
L 383.871312 299.76 
L 383.871312 205.968128 
L 381.28942 205.968128 
z
" style="fill:#808080;"/>
   </g>
   <g id="patch_244">
    <path clip-path="url(#p4b5b01c170)" d="M 384.516784 299.76 
L 387.098676 299.76 
L 387.098676 206.167088 
L 384.516784 206.167088 
z
" style="fill:#808080;"/>
   </g>
   <g id="patch_245">
    <path clip-path="url(#p4b5b01c170)" d="M 387.744148 299.76 
L 390.32604 299.76 
L 390.32604 200.431191 
L 387.744148 200.431191 
z
" style="fill:#808080;"/>
   </g>
   <g id="patch_246">
    <path clip-path="url(#p4b5b01c170)" d="M 390.971512 299.76 
L 393.553404 299.76 
L 393.553404 202.056302 
L 390.971512 202.056302 
z
" style="fill:#808080;"/>
   </g>
   <g id="patch_247">
    <path clip-path="url(#p4b5b01c170)" d="M 394.198876 299.76 
L 396.780768 299.76 
L 396.780768 209.905112 
L 394.198876 209.905112 
z
" style="fill:#808080;"/>
   </g>
   <g id="patch_248">
    <path clip-path="url(#p4b5b01c170)" d="M 397.42624 299.76 
L 400.008132 299.76 
L 400.008132 220.956806 
L 397.42624 220.956806 
z
" style="fill:#808080;"/>
   </g>
   <g id="patch_249">
    <path clip-path="url(#p4b5b01c170)" d="M 400.653604 299.76 
L 403.235496 299.76 
L 403.235496 241.078089 
L 400.653604 241.078089 
z
" style="fill:#808080;"/>
   </g>
   <g id="patch_250">
    <path clip-path="url(#p4b5b01c170)" d="M 403.880968 299.76 
L 406.46286 299.76 
L 406.46286 253.448248 
L 403.880968 253.448248 
z
" style="fill:#808080;"/>
   </g>
   <g id="patch_251">
    <path clip-path="url(#p4b5b01c170)" d="M 407.108332 299.76 
L 409.690224 299.76 
L 409.690224 271.247725 
L 407.108332 271.247725 
z
" style="fill:#808080;"/>
   </g>
   <g id="patch_252">
    <path clip-path="url(#p4b5b01c170)" d="M 410.335696 299.76 
L 412.917588 299.76 
L 412.917588 282.262726 
L 410.335696 282.262726 
z
" style="fill:#808080;"/>
   </g>
   <g id="patch_253">
    <path clip-path="url(#p4b5b01c170)" d="M 413.56306 299.76 
L 416.144952 299.76 
L 416.144952 288.034921 
L 413.56306 288.034921 
z
" style="fill:#808080;"/>
   </g>
   <g id="patch_254">
    <path clip-path="url(#p4b5b01c170)" d="M 416.790424 299.76 
L 419.372316 299.76 
L 419.372316 291.557837 
L 416.790424 291.557837 
z
" style="fill:#808080;"/>
   </g>
   <g id="patch_255">
    <path clip-path="url(#p4b5b01c170)" d="M 420.017788 299.76 
L 422.59968 299.76 
L 422.59968 296.351264 
L 420.017788 296.351264 
z
" style="fill:#808080;"/>
   </g>
   <g id="patch_256">
    <path clip-path="url(#p4b5b01c170)" d="M 423.245152 299.76 
L 425.827044 299.76 
L 425.827044 295.54539 
L 423.245152 295.54539 
z
" style="fill:#808080;"/>
   </g>
   <g id="patch_257">
    <path clip-path="url(#p4b5b01c170)" d="M 426.472516 299.76 
L 429.054408 299.76 
L 429.054408 297.361262 
L 426.472516 297.361262 
z
" style="fill:#808080;"/>
   </g>
   <g id="patch_258">
    <path clip-path="url(#p4b5b01c170)" d="M 429.69988 299.76 
L 432.281772 299.76 
L 432.281772 298.286485 
L 429.69988 298.286485 
z
" style="fill:#808080;"/>
   </g>
   <g id="patch_259">
    <path clip-path="url(#p4b5b01c170)" d="M 432.927244 299.76 
L 435.509136 299.76 
L 435.509136 298.185248 
L 432.927244 298.185248 
z
" style="fill:#808080;"/>
   </g>
   <g id="patch_260">
    <path clip-path="url(#p4b5b01c170)" d="M 436.154608 299.76 
L 438.7365 299.76 
L 438.7365 298.047187 
L 436.154608 298.047187 
z
" style="fill:#808080;"/>
   </g>
   <g id="patch_261">
    <path clip-path="url(#p4b5b01c170)" d="M 439.381972 299.76 
L 441.963864 299.76 
L 441.963864 298.12534 
L 439.381972 298.12534 
z
" style="fill:#808080;"/>
   </g>
   <g id="matplotlib.axis_7">
    <g id="xtick_19">
     <g id="line2d_33">
      <g>
       <use style="stroke:#000000;stroke-width:0.8;" x="280.9184" xlink:href="#mba3b3a9ed9" y="300.76"/>
      </g>
     </g>
     <g id="text_38">
      <!-- −4 -->
      <g transform="translate(273.547306 315.358437)scale(0.1 -0.1)">
       <use xlink:href="#DejaVuSans-8722"/>
       <use x="83.789062" xlink:href="#DejaVuSans-52"/>
      </g>
     </g>
    </g>
    <g id="xtick_20">
     <g id="line2d_34">
      <g>
       <use style="stroke:#000000;stroke-width:0.8;" x="345.46568" xlink:href="#mba3b3a9ed9" y="300.76"/>
      </g>
     </g>
     <g id="text_39">
      <!-- −2 -->
      <g transform="translate(338.094586 315.358437)scale(0.1 -0.1)">
       <use xlink:href="#DejaVuSans-8722"/>
       <use x="83.789062" xlink:href="#DejaVuSans-50"/>
      </g>
     </g>
    </g>
    <g id="xtick_21">
     <g id="line2d_35">
      <g>
       <use style="stroke:#000000;stroke-width:0.8;" x="410.01296" xlink:href="#mba3b3a9ed9" y="300.76"/>
      </g>
     </g>
     <g id="text_40">
      <!-- 0 -->
      <g transform="translate(406.83171 315.358437)scale(0.1 -0.1)">
       <use xlink:href="#DejaVuSans-48"/>
      </g>
     </g>
    </g>
    <g id="text_41">
     <!-- $\log_{10}\omega$ -->
     <defs>
      <path d="M 21.390625 -1.421875 
Q 1.125 -1.421875 6.78125 27.59375 
Q 8.984375 39.0625 19.625 54.6875 
L 29.296875 54.6875 
Q 19.234375 39.0625 17 27.34375 
Q 12.796875 6.203125 23.734375 6.203125 
Q 33.84375 6.203125 38.71875 32.46875 
L 47.015625 32.46875 
Q 41.703125 6.0625 51.8125 6.203125 
Q 62.703125 6.296875 66.796875 27.34375 
Q 69.046875 39.0625 65.140625 54.6875 
L 74.8125 54.6875 
Q 79.296875 39.0625 77.09375 27.59375 
Q 71.53125 -1.46875 51.21875 -1.421875 
Q 37.9375 -1.375 39.109375 13.1875 
Q 34.28125 -1.421875 21.390625 -1.421875 
z
" id="DejaVuSans-Oblique-969"/>
     </defs>
     <g transform="translate(345.1525 329.038125)scale(0.1 -0.1)">
      <use transform="translate(0 0.015625)" xlink:href="#DejaVuSans-108"/>
      <use transform="translate(27.783203 0.015625)" xlink:href="#DejaVuSans-111"/>
      <use transform="translate(88.964844 0.015625)" xlink:href="#DejaVuSans-103"/>
      <use transform="translate(153.398438 -16.390625)scale(0.7)" xlink:href="#DejaVuSans-49"/>
      <use transform="translate(197.93457 -16.390625)scale(0.7)" xlink:href="#DejaVuSans-48"/>
      <use transform="translate(245.205078 0.015625)" xlink:href="#DejaVuSans-Oblique-969"/>
     </g>
    </g>
   </g>
   <g id="matplotlib.axis_8">
    <g id="ytick_15">
     <g id="line2d_36">
      <g>
       <use style="stroke:#000000;stroke-width:0.8;" x="272.205" xlink:href="#m13bdad56d1" y="299.76"/>
      </g>
     </g>
     <g id="text_42">
      <!-- 0 -->
      <g transform="translate(258.8425 303.559219)scale(0.1 -0.1)">
       <use xlink:href="#DejaVuSans-48"/>
      </g>
     </g>
    </g>
    <g id="ytick_16">
     <g id="line2d_37">
      <g>
       <use style="stroke:#000000;stroke-width:0.8;" x="272.205" xlink:href="#m13bdad56d1" y="277.712923"/>
      </g>
     </g>
     <g id="text_43">
      <!-- 200 -->
      <g transform="translate(246.1175 281.512142)scale(0.1 -0.1)">
       <use xlink:href="#DejaVuSans-50"/>
       <use x="63.623047" xlink:href="#DejaVuSans-48"/>
       <use x="127.246094" xlink:href="#DejaVuSans-48"/>
      </g>
     </g>
    </g>
    <g id="ytick_17">
     <g id="line2d_38">
      <g>
       <use style="stroke:#000000;stroke-width:0.8;" x="272.205" xlink:href="#m13bdad56d1" y="255.665847"/>
      </g>
     </g>
     <g id="text_44">
      <!-- 400 -->
      <g transform="translate(246.1175 259.465066)scale(0.1 -0.1)">
       <use xlink:href="#DejaVuSans-52"/>
       <use x="63.623047" xlink:href="#DejaVuSans-48"/>
       <use x="127.246094" xlink:href="#DejaVuSans-48"/>
      </g>
     </g>
    </g>
    <g id="ytick_18">
     <g id="line2d_39">
      <g>
       <use style="stroke:#000000;stroke-width:0.8;" x="272.205" xlink:href="#m13bdad56d1" y="233.61877"/>
      </g>
     </g>
     <g id="text_45">
      <!-- 600 -->
      <g transform="translate(246.1175 237.417989)scale(0.1 -0.1)">
       <use xlink:href="#DejaVuSans-54"/>
       <use x="63.623047" xlink:href="#DejaVuSans-48"/>
       <use x="127.246094" xlink:href="#DejaVuSans-48"/>
      </g>
     </g>
    </g>
    <g id="ytick_19">
     <g id="line2d_40">
      <g>
       <use style="stroke:#000000;stroke-width:0.8;" x="272.205" xlink:href="#m13bdad56d1" y="211.571694"/>
      </g>
     </g>
     <g id="text_46">
      <!-- 800 -->
      <g transform="translate(246.1175 215.370913)scale(0.1 -0.1)">
       <use xlink:href="#DejaVuSans-56"/>
       <use x="63.623047" xlink:href="#DejaVuSans-48"/>
       <use x="127.246094" xlink:href="#DejaVuSans-48"/>
      </g>
     </g>
    </g>
   </g>
   <g id="patch_262">
    <path d="M 272.205 299.76 
L 272.205 195.464751 
" style="fill:none;stroke:#000000;stroke-linecap:square;stroke-linejoin:miter;stroke-width:0.8;"/>
   </g>
   <g id="patch_263">
    <path d="M 273.205 300.76 
L 450 300.76 
" style="fill:none;stroke:#000000;stroke-linecap:square;stroke-linejoin:miter;stroke-width:0.8;"/>
   </g>
  </g>
  <g id="text_47">
   <!-- Aquilegia_coerulea.tsv.ks.tsv -->
   <defs>
    <path d="M 14.796875 27.296875 
Q 14.796875 17.390625 18.875 11.75 
Q 22.953125 6.109375 30.078125 6.109375 
Q 37.203125 6.109375 41.296875 11.75 
Q 45.40625 17.390625 45.40625 27.296875 
Q 45.40625 37.203125 41.296875 42.84375 
Q 37.203125 48.484375 30.078125 48.484375 
Q 22.953125 48.484375 18.875 42.84375 
Q 14.796875 37.203125 14.796875 27.296875 
z
M 45.40625 8.203125 
Q 42.578125 3.328125 38.25 0.953125 
Q 33.9375 -1.421875 27.875 -1.421875 
Q 17.96875 -1.421875 11.734375 6.484375 
Q 5.515625 14.40625 5.515625 27.296875 
Q 5.515625 40.1875 11.734375 48.09375 
Q 17.96875 56 27.875 56 
Q 33.9375 56 38.25 53.625 
Q 42.578125 51.265625 45.40625 46.390625 
L 45.40625 54.6875 
L 54.390625 54.6875 
L 54.390625 -20.796875 
L 45.40625 -20.796875 
z
" id="DejaVuSans-113"/>
    <path d="M 56.203125 29.59375 
L 56.203125 25.203125 
L 14.890625 25.203125 
Q 15.484375 15.921875 20.484375 11.0625 
Q 25.484375 6.203125 34.421875 6.203125 
Q 39.59375 6.203125 44.453125 7.46875 
Q 49.3125 8.734375 54.109375 11.28125 
L 54.109375 2.78125 
Q 49.265625 0.734375 44.1875 -0.34375 
Q 39.109375 -1.421875 33.890625 -1.421875 
Q 20.796875 -1.421875 13.15625 6.1875 
Q 5.515625 13.8125 5.515625 26.8125 
Q 5.515625 40.234375 12.765625 48.109375 
Q 20.015625 56 32.328125 56 
Q 43.359375 56 49.78125 48.890625 
Q 56.203125 41.796875 56.203125 29.59375 
z
M 47.21875 32.234375 
Q 47.125 39.59375 43.09375 43.984375 
Q 39.0625 48.390625 32.421875 48.390625 
Q 24.90625 48.390625 20.390625 44.140625 
Q 15.875 39.890625 15.1875 32.171875 
z
" id="DejaVuSans-101"/>
    <path d="M 50.984375 -16.609375 
L 50.984375 -23.578125 
L -0.984375 -23.578125 
L -0.984375 -16.609375 
z
" id="DejaVuSans-95"/>
    <path d="M 41.109375 46.296875 
Q 39.59375 47.171875 37.8125 47.578125 
Q 36.03125 48 33.890625 48 
Q 26.265625 48 22.1875 43.046875 
Q 18.109375 38.09375 18.109375 28.8125 
L 18.109375 0 
L 9.078125 0 
L 9.078125 54.6875 
L 18.109375 54.6875 
L 18.109375 46.1875 
Q 20.953125 51.171875 25.484375 53.578125 
Q 30.03125 56 36.53125 56 
Q 37.453125 56 38.578125 55.875 
Q 39.703125 55.765625 41.0625 55.515625 
z
" id="DejaVuSans-114"/>
    <path d="M 10.6875 12.40625 
L 21 12.40625 
L 21 0 
L 10.6875 0 
z
" id="DejaVuSans-46"/>
    <path d="M 2.984375 54.6875 
L 12.5 54.6875 
L 29.59375 8.796875 
L 46.6875 54.6875 
L 56.203125 54.6875 
L 35.6875 0 
L 23.484375 0 
z
" id="DejaVuSans-118"/>
    <path d="M 9.078125 75.984375 
L 18.109375 75.984375 
L 18.109375 31.109375 
L 44.921875 54.6875 
L 56.390625 54.6875 
L 27.390625 29.109375 
L 57.625 0 
L 45.90625 0 
L 18.109375 26.703125 
L 18.109375 0 
L 9.078125 0 
z
" id="DejaVuSans-107"/>
   </defs>
   <g transform="translate(57.6 43.678125)scale(0.12 -0.12)">
    <use xlink:href="#DejaVuSans-65"/>
    <use x="66.658203" xlink:href="#DejaVuSans-113"/>
    <use x="130.134766" xlink:href="#DejaVuSans-117"/>
    <use x="193.513672" xlink:href="#DejaVuSans-105"/>
    <use x="221.296875" xlink:href="#DejaVuSans-108"/>
    <use x="249.080078" xlink:href="#DejaVuSans-101"/>
    <use x="310.603516" xlink:href="#DejaVuSans-103"/>
    <use x="374.080078" xlink:href="#DejaVuSans-105"/>
    <use x="401.863281" xlink:href="#DejaVuSans-97"/>
    <use x="463.142578" xlink:href="#DejaVuSans-95"/>
    <use x="513.142578" xlink:href="#DejaVuSans-99"/>
    <use x="568.123047" xlink:href="#DejaVuSans-111"/>
    <use x="629.304688" xlink:href="#DejaVuSans-101"/>
    <use x="690.828125" xlink:href="#DejaVuSans-114"/>
    <use x="731.941406" xlink:href="#DejaVuSans-117"/>
    <use x="795.320312" xlink:href="#DejaVuSans-108"/>
    <use x="823.103516" xlink:href="#DejaVuSans-101"/>
    <use x="884.626953" xlink:href="#DejaVuSans-97"/>
    <use x="945.90625" xlink:href="#DejaVuSans-46"/>
    <use x="977.693359" xlink:href="#DejaVuSans-116"/>
    <use x="1016.902344" xlink:href="#DejaVuSans-115"/>
    <use x="1069.001953" xlink:href="#DejaVuSans-118"/>
    <use x="1120.431641" xlink:href="#DejaVuSans-46"/>
    <use x="1152.21875" xlink:href="#DejaVuSans-107"/>
    <use x="1210.128906" xlink:href="#DejaVuSans-115"/>
    <use x="1262.228516" xlink:href="#DejaVuSans-46"/>
    <use x="1294.015625" xlink:href="#DejaVuSans-116"/>
    <use x="1333.224609" xlink:href="#DejaVuSans-115"/>
    <use x="1385.324219" xlink:href="#DejaVuSans-118"/>
   </g>
  </g>
 </g>
 <defs>
  <clipPath id="p553546ab58">
   <rect height="104.295249" width="176.795" x="58.44" y="51.84"/>
  </clipPath>
  <clipPath id="pff3bd90f52">
   <rect height="104.295249" width="176.795" x="273.205" y="51.84"/>
  </clipPath>
  <clipPath id="pad5b1842fd">
   <rect height="104.295249" width="176.795" x="58.44" y="195.464751"/>
  </clipPath>
  <clipPath id="p4b5b01c170">
   <rect height="104.295249" width="176.795" x="273.205" y="195.464751"/>
  </clipPath>
 </defs>
</svg>
