<?xml version="1.0" encoding="utf-8" standalone="no"?>
<!DOCTYPE svg PUBLIC "-//W3C//DTD SVG 1.1//EN"
  "http://www.w3.org/Graphics/SVG/1.1/DTD/svg11.dtd">
<!-- Created with matplotlib (https://matplotlib.org/) -->
<svg height="345.6pt" version="1.1" viewBox="0 0 460.8 345.6" width="460.8pt" xmlns="http://www.w3.org/2000/svg" xmlns:xlink="http://www.w3.org/1999/xlink">
 <defs>
  <style type="text/css">
*{stroke-linecap:butt;stroke-linejoin:round;}
  </style>
 </defs>
 <g id="figure_1">
  <g id="patch_1">
   <path d="M 0 345.6 
L 460.8 345.6 
L 460.8 0 
L 0 0 
z
" style="fill:#ffffff;"/>
  </g>
  <g id="axes_1">
   <g id="patch_2">
    <path d="M 58.17 156.112701 
L 235.19 156.112701 
L 235.19 51.84 
L 58.17 51.84 
z
" style="fill:#ffffff;"/>
   </g>
   <g id="patch_3">
    <path clip-path="url(#pa5b7e022f3)" d="M 66.216364 156.112701 
L 68.801541 156.112701 
L 68.801541 56.805367 
L 66.216364 56.805367 
z
" style="opacity:0.2;"/>
   </g>
   <g id="patch_4">
    <path clip-path="url(#pa5b7e022f3)" d="M 69.447835 156.112701 
L 72.033012 156.112701 
L 72.033012 115.569396 
L 69.447835 115.569396 
z
" style="opacity:0.2;"/>
   </g>
   <g id="patch_5">
    <path clip-path="url(#pa5b7e022f3)" d="M 72.679306 156.112701 
L 75.264483 156.112701 
L 75.264483 124.885708 
L 72.679306 124.885708 
z
" style="opacity:0.2;"/>
   </g>
   <g id="patch_6">
    <path clip-path="url(#pa5b7e022f3)" d="M 75.910778 156.112701 
L 78.495955 156.112701 
L 78.495955 131.112843 
L 75.910778 131.112843 
z
" style="opacity:0.2;"/>
   </g>
   <g id="patch_7">
    <path clip-path="url(#pa5b7e022f3)" d="M 79.142249 156.112701 
L 81.727426 156.112701 
L 81.727426 136.368757 
L 79.142249 136.368757 
z
" style="opacity:0.2;"/>
   </g>
   <g id="patch_8">
    <path clip-path="url(#pa5b7e022f3)" d="M 82.37372 156.112701 
L 84.958897 156.112701 
L 84.958897 137.480394 
L 82.37372 137.480394 
z
" style="opacity:0.2;"/>
   </g>
   <g id="patch_9">
    <path clip-path="url(#pa5b7e022f3)" d="M 85.605192 156.112701 
L 88.190369 156.112701 
L 88.190369 136.187976 
L 85.605192 136.187976 
z
" style="opacity:0.2;"/>
   </g>
   <g id="patch_10">
    <path clip-path="url(#pa5b7e022f3)" d="M 88.836663 156.112701 
L 91.42184 156.112701 
L 91.42184 140.904391 
L 88.836663 140.904391 
z
" style="opacity:0.2;"/>
   </g>
   <g id="patch_11">
    <path clip-path="url(#pa5b7e022f3)" d="M 92.068134 156.112701 
L 94.653311 156.112701 
L 94.653311 141.529785 
L 92.068134 141.529785 
z
" style="opacity:0.2;"/>
   </g>
   <g id="patch_12">
    <path clip-path="url(#pa5b7e022f3)" d="M 95.299606 156.112701 
L 97.884783 156.112701 
L 97.884783 141.296113 
L 95.299606 141.296113 
z
" style="opacity:0.2;"/>
   </g>
   <g id="patch_13">
    <path clip-path="url(#pa5b7e022f3)" d="M 98.531077 156.112701 
L 101.116254 156.112701 
L 101.116254 140.84971 
L 98.531077 140.84971 
z
" style="opacity:0.2;"/>
   </g>
   <g id="patch_14">
    <path clip-path="url(#pa5b7e022f3)" d="M 101.762548 156.112701 
L 104.347725 156.112701 
L 104.347725 141.121366 
L 101.762548 141.121366 
z
" style="opacity:0.2;"/>
   </g>
   <g id="patch_15">
    <path clip-path="url(#pa5b7e022f3)" d="M 104.99402 156.112701 
L 107.579197 156.112701 
L 107.579197 140.661761 
L 104.99402 140.661761 
z
" style="opacity:0.2;"/>
   </g>
   <g id="patch_16">
    <path clip-path="url(#pa5b7e022f3)" d="M 108.225491 156.112701 
L 110.810668 156.112701 
L 110.810668 141.749403 
L 108.225491 141.749403 
z
" style="opacity:0.2;"/>
   </g>
   <g id="patch_17">
    <path clip-path="url(#pa5b7e022f3)" d="M 111.456962 156.112701 
L 114.042139 156.112701 
L 114.042139 143.340775 
L 111.456962 143.340775 
z
" style="opacity:0.2;"/>
   </g>
   <g id="patch_18">
    <path clip-path="url(#pa5b7e022f3)" d="M 114.688434 156.112701 
L 117.273611 156.112701 
L 117.273611 145.347537 
L 114.688434 145.347537 
z
" style="opacity:0.2;"/>
   </g>
   <g id="patch_19">
    <path clip-path="url(#pa5b7e022f3)" d="M 117.919905 156.112701 
L 120.505082 156.112701 
L 120.505082 144.744436 
L 117.919905 144.744436 
z
" style="opacity:0.2;"/>
   </g>
   <g id="patch_20">
    <path clip-path="url(#pa5b7e022f3)" d="M 121.151376 156.112701 
L 123.736553 156.112701 
L 123.736553 145.489845 
L 121.151376 145.489845 
z
" style="opacity:0.2;"/>
   </g>
   <g id="patch_21">
    <path clip-path="url(#pa5b7e022f3)" d="M 124.382848 156.112701 
L 126.968025 156.112701 
L 126.968025 147.188924 
L 124.382848 147.188924 
z
" style="opacity:0.2;"/>
   </g>
   <g id="patch_22">
    <path clip-path="url(#pa5b7e022f3)" d="M 127.614319 156.112701 
L 130.199496 156.112701 
L 130.199496 148.430427 
L 127.614319 148.430427 
z
" style="opacity:0.2;"/>
   </g>
   <g id="patch_23">
    <path clip-path="url(#pa5b7e022f3)" d="M 130.84579 156.112701 
L 133.430968 156.112701 
L 133.430968 148.082489 
L 130.84579 148.082489 
z
" style="opacity:0.2;"/>
   </g>
   <g id="patch_24">
    <path clip-path="url(#pa5b7e022f3)" d="M 134.077262 156.112701 
L 136.662439 156.112701 
L 136.662439 146.997227 
L 134.077262 146.997227 
z
" style="opacity:0.2;"/>
   </g>
   <g id="patch_25">
    <path clip-path="url(#pa5b7e022f3)" d="M 137.308733 156.112701 
L 139.89391 156.112701 
L 139.89391 148.221594 
L 137.308733 148.221594 
z
" style="opacity:0.2;"/>
   </g>
   <g id="patch_26">
    <path clip-path="url(#pa5b7e022f3)" d="M 140.540204 156.112701 
L 143.125382 156.112701 
L 143.125382 148.354382 
L 140.540204 148.354382 
z
" style="opacity:0.2;"/>
   </g>
   <g id="patch_27">
    <path clip-path="url(#pa5b7e022f3)" d="M 143.771676 156.112701 
L 146.356853 156.112701 
L 146.356853 148.443838 
L 143.771676 148.443838 
z
" style="opacity:0.2;"/>
   </g>
   <g id="patch_28">
    <path clip-path="url(#pa5b7e022f3)" d="M 147.003147 156.112701 
L 149.588324 156.112701 
L 149.588324 148.4977 
L 147.003147 148.4977 
z
" style="opacity:0.2;"/>
   </g>
   <g id="patch_29">
    <path clip-path="url(#pa5b7e022f3)" d="M 150.234618 156.112701 
L 152.819796 156.112701 
L 152.819796 147.827183 
L 150.234618 147.827183 
z
" style="opacity:0.2;"/>
   </g>
   <g id="patch_30">
    <path clip-path="url(#pa5b7e022f3)" d="M 153.46609 156.112701 
L 156.051267 156.112701 
L 156.051267 149.090499 
L 153.46609 149.090499 
z
" style="opacity:0.2;"/>
   </g>
   <g id="patch_31">
    <path clip-path="url(#pa5b7e022f3)" d="M 156.697561 156.112701 
L 159.282738 156.112701 
L 159.282738 150.028876 
L 156.697561 150.028876 
z
" style="opacity:0.2;"/>
   </g>
   <g id="patch_32">
    <path clip-path="url(#pa5b7e022f3)" d="M 159.929032 156.112701 
L 162.51421 156.112701 
L 162.51421 149.705365 
L 159.929032 149.705365 
z
" style="opacity:0.2;"/>
   </g>
   <g id="patch_33">
    <path clip-path="url(#pa5b7e022f3)" d="M 163.160504 156.112701 
L 165.745681 156.112701 
L 165.745681 148.963549 
L 163.160504 148.963549 
z
" style="opacity:0.2;"/>
   </g>
   <g id="patch_34">
    <path clip-path="url(#pa5b7e022f3)" d="M 166.391975 156.112701 
L 168.977152 156.112701 
L 168.977152 149.93227 
L 166.391975 149.93227 
z
" style="opacity:0.2;"/>
   </g>
   <g id="patch_35">
    <path clip-path="url(#pa5b7e022f3)" d="M 169.623447 156.112701 
L 172.208624 156.112701 
L 172.208624 150.859701 
L 169.623447 150.859701 
z
" style="opacity:0.2;"/>
   </g>
   <g id="patch_36">
    <path clip-path="url(#pa5b7e022f3)" d="M 172.854918 156.112701 
L 175.440095 156.112701 
L 175.440095 150.011543 
L 172.854918 150.011543 
z
" style="opacity:0.2;"/>
   </g>
   <g id="patch_37">
    <path clip-path="url(#pa5b7e022f3)" d="M 176.086389 156.112701 
L 178.671566 156.112701 
L 178.671566 149.985108 
L 176.086389 149.985108 
z
" style="opacity:0.2;"/>
   </g>
   <g id="patch_38">
    <path clip-path="url(#pa5b7e022f3)" d="M 179.317861 156.112701 
L 181.903038 156.112701 
L 181.903038 150.164978 
L 179.317861 150.164978 
z
" style="opacity:0.2;"/>
   </g>
   <g id="patch_39">
    <path clip-path="url(#pa5b7e022f3)" d="M 182.549332 156.112701 
L 185.134509 156.112701 
L 185.134509 150.105502 
L 182.549332 150.105502 
z
" style="opacity:0.2;"/>
   </g>
   <g id="patch_40">
    <path clip-path="url(#pa5b7e022f3)" d="M 185.780803 156.112701 
L 188.36598 156.112701 
L 188.36598 150.357196 
L 185.780803 150.357196 
z
" style="opacity:0.2;"/>
   </g>
   <g id="patch_41">
    <path clip-path="url(#pa5b7e022f3)" d="M 189.012275 156.112701 
L 191.597452 156.112701 
L 191.597452 151.021279 
L 189.012275 151.021279 
z
" style="opacity:0.2;"/>
   </g>
   <g id="patch_42">
    <path clip-path="url(#pa5b7e022f3)" d="M 192.243746 156.112701 
L 194.828923 156.112701 
L 194.828923 151.389805 
L 192.243746 151.389805 
z
" style="opacity:0.2;"/>
   </g>
   <g id="patch_43">
    <path clip-path="url(#pa5b7e022f3)" d="M 195.475217 156.112701 
L 198.060394 156.112701 
L 198.060394 150.889891 
L 195.475217 150.889891 
z
" style="opacity:0.2;"/>
   </g>
   <g id="patch_44">
    <path clip-path="url(#pa5b7e022f3)" d="M 198.706689 156.112701 
L 201.291866 156.112701 
L 201.291866 151.092817 
L 198.706689 151.092817 
z
" style="opacity:0.2;"/>
   </g>
   <g id="patch_45">
    <path clip-path="url(#pa5b7e022f3)" d="M 201.93816 156.112701 
L 204.523337 156.112701 
L 204.523337 151.315047 
L 201.93816 151.315047 
z
" style="opacity:0.2;"/>
   </g>
   <g id="patch_46">
    <path clip-path="url(#pa5b7e022f3)" d="M 205.169631 156.112701 
L 207.754808 156.112701 
L 207.754808 150.38488 
L 205.169631 150.38488 
z
" style="opacity:0.2;"/>
   </g>
   <g id="patch_47">
    <path clip-path="url(#pa5b7e022f3)" d="M 208.401103 156.112701 
L 210.98628 156.112701 
L 210.98628 150.731815 
L 208.401103 150.731815 
z
" style="opacity:0.2;"/>
   </g>
   <g id="patch_48">
    <path clip-path="url(#pa5b7e022f3)" d="M 211.632574 156.112701 
L 214.217751 156.112701 
L 214.217751 150.853496 
L 211.632574 150.853496 
z
" style="opacity:0.2;"/>
   </g>
   <g id="patch_49">
    <path clip-path="url(#pa5b7e022f3)" d="M 214.864045 156.112701 
L 217.449222 156.112701 
L 217.449222 151.691852 
L 214.864045 151.691852 
z
" style="opacity:0.2;"/>
   </g>
   <g id="patch_50">
    <path clip-path="url(#pa5b7e022f3)" d="M 218.095517 156.112701 
L 220.680694 156.112701 
L 220.680694 150.755746 
L 218.095517 150.755746 
z
" style="opacity:0.2;"/>
   </g>
   <g id="patch_51">
    <path clip-path="url(#pa5b7e022f3)" d="M 221.326988 156.112701 
L 223.912165 156.112701 
L 223.912165 151.541439 
L 221.326988 151.541439 
z
" style="opacity:0.2;"/>
   </g>
   <g id="patch_52">
    <path clip-path="url(#pa5b7e022f3)" d="M 224.558459 156.112701 
L 227.143636 156.112701 
L 227.143636 151.645955 
L 224.558459 151.645955 
z
" style="opacity:0.2;"/>
   </g>
   <g id="matplotlib.axis_1">
    <g id="xtick_1">
     <g id="line2d_1">
      <defs>
       <path d="M 0 0 
L 0 3.5 
" id="m90c0f19afb" style="stroke:#000000;stroke-width:0.8;"/>
      </defs>
      <g>
       <use style="stroke:#000000;stroke-width:0.8;" x="65.893217" xlink:href="#m90c0f19afb" y="157.112701"/>
      </g>
     </g>
     <g id="text_1">
      <!-- 0 -->
      <defs>
       <path d="M 31.78125 66.40625 
Q 24.171875 66.40625 20.328125 58.90625 
Q 16.5 51.421875 16.5 36.375 
Q 16.5 21.390625 20.328125 13.890625 
Q 24.171875 6.390625 31.78125 6.390625 
Q 39.453125 6.390625 43.28125 13.890625 
Q 47.125 21.390625 47.125 36.375 
Q 47.125 51.421875 43.28125 58.90625 
Q 39.453125 66.40625 31.78125 66.40625 
z
M 31.78125 74.21875 
Q 44.046875 74.21875 50.515625 64.515625 
Q 56.984375 54.828125 56.984375 36.375 
Q 56.984375 17.96875 50.515625 8.265625 
Q 44.046875 -1.421875 31.78125 -1.421875 
Q 19.53125 -1.421875 13.0625 8.265625 
Q 6.59375 17.96875 6.59375 36.375 
Q 6.59375 54.828125 13.0625 64.515625 
Q 19.53125 74.21875 31.78125 74.21875 
z
" id="DejaVuSans-48"/>
      </defs>
      <g transform="translate(62.711967 171.711138)scale(0.1 -0.1)">
       <use xlink:href="#DejaVuSans-48"/>
      </g>
     </g>
    </g>
    <g id="xtick_2">
     <g id="line2d_2">
      <g>
       <use style="stroke:#000000;stroke-width:0.8;" x="98.20793" xlink:href="#m90c0f19afb" y="157.112701"/>
      </g>
     </g>
     <g id="text_2">
      <!-- 1 -->
      <defs>
       <path d="M 12.40625 8.296875 
L 28.515625 8.296875 
L 28.515625 63.921875 
L 10.984375 60.40625 
L 10.984375 69.390625 
L 28.421875 72.90625 
L 38.28125 72.90625 
L 38.28125 8.296875 
L 54.390625 8.296875 
L 54.390625 0 
L 12.40625 0 
z
" id="DejaVuSans-49"/>
      </defs>
      <g transform="translate(95.02668 171.711138)scale(0.1 -0.1)">
       <use xlink:href="#DejaVuSans-49"/>
      </g>
     </g>
    </g>
    <g id="xtick_3">
     <g id="line2d_3">
      <g>
       <use style="stroke:#000000;stroke-width:0.8;" x="130.522643" xlink:href="#m90c0f19afb" y="157.112701"/>
      </g>
     </g>
     <g id="text_3">
      <!-- 2 -->
      <defs>
       <path d="M 19.1875 8.296875 
L 53.609375 8.296875 
L 53.609375 0 
L 7.328125 0 
L 7.328125 8.296875 
Q 12.9375 14.109375 22.625 23.890625 
Q 32.328125 33.6875 34.8125 36.53125 
Q 39.546875 41.84375 41.421875 45.53125 
Q 43.3125 49.21875 43.3125 52.78125 
Q 43.3125 58.59375 39.234375 62.25 
Q 35.15625 65.921875 28.609375 65.921875 
Q 23.96875 65.921875 18.8125 64.3125 
Q 13.671875 62.703125 7.8125 59.421875 
L 7.8125 69.390625 
Q 13.765625 71.78125 18.9375 73 
Q 24.125 74.21875 28.421875 74.21875 
Q 39.75 74.21875 46.484375 68.546875 
Q 53.21875 62.890625 53.21875 53.421875 
Q 53.21875 48.921875 51.53125 44.890625 
Q 49.859375 40.875 45.40625 35.40625 
Q 44.1875 33.984375 37.640625 27.21875 
Q 31.109375 20.453125 19.1875 8.296875 
z
" id="DejaVuSans-50"/>
      </defs>
      <g transform="translate(127.341393 171.711138)scale(0.1 -0.1)">
       <use xlink:href="#DejaVuSans-50"/>
      </g>
     </g>
    </g>
    <g id="xtick_4">
     <g id="line2d_4">
      <g>
       <use style="stroke:#000000;stroke-width:0.8;" x="162.837357" xlink:href="#m90c0f19afb" y="157.112701"/>
      </g>
     </g>
     <g id="text_4">
      <!-- 3 -->
      <defs>
       <path d="M 40.578125 39.3125 
Q 47.65625 37.796875 51.625 33 
Q 55.609375 28.21875 55.609375 21.1875 
Q 55.609375 10.40625 48.1875 4.484375 
Q 40.765625 -1.421875 27.09375 -1.421875 
Q 22.515625 -1.421875 17.65625 -0.515625 
Q 12.796875 0.390625 7.625 2.203125 
L 7.625 11.71875 
Q 11.71875 9.328125 16.59375 8.109375 
Q 21.484375 6.890625 26.8125 6.890625 
Q 36.078125 6.890625 40.9375 10.546875 
Q 45.796875 14.203125 45.796875 21.1875 
Q 45.796875 27.640625 41.28125 31.265625 
Q 36.765625 34.90625 28.71875 34.90625 
L 20.21875 34.90625 
L 20.21875 43.015625 
L 29.109375 43.015625 
Q 36.375 43.015625 40.234375 45.921875 
Q 44.09375 48.828125 44.09375 54.296875 
Q 44.09375 59.90625 40.109375 62.90625 
Q 36.140625 65.921875 28.71875 65.921875 
Q 24.65625 65.921875 20.015625 65.03125 
Q 15.375 64.15625 9.8125 62.3125 
L 9.8125 71.09375 
Q 15.4375 72.65625 20.34375 73.4375 
Q 25.25 74.21875 29.59375 74.21875 
Q 40.828125 74.21875 47.359375 69.109375 
Q 53.90625 64.015625 53.90625 55.328125 
Q 53.90625 49.265625 50.4375 45.09375 
Q 46.96875 40.921875 40.578125 39.3125 
z
" id="DejaVuSans-51"/>
      </defs>
      <g transform="translate(159.656107 171.711138)scale(0.1 -0.1)">
       <use xlink:href="#DejaVuSans-51"/>
      </g>
     </g>
    </g>
    <g id="xtick_5">
     <g id="line2d_5">
      <g>
       <use style="stroke:#000000;stroke-width:0.8;" x="195.15207" xlink:href="#m90c0f19afb" y="157.112701"/>
      </g>
     </g>
     <g id="text_5">
      <!-- 4 -->
      <defs>
       <path d="M 37.796875 64.3125 
L 12.890625 25.390625 
L 37.796875 25.390625 
z
M 35.203125 72.90625 
L 47.609375 72.90625 
L 47.609375 25.390625 
L 58.015625 25.390625 
L 58.015625 17.1875 
L 47.609375 17.1875 
L 47.609375 0 
L 37.796875 0 
L 37.796875 17.1875 
L 4.890625 17.1875 
L 4.890625 26.703125 
z
" id="DejaVuSans-52"/>
      </defs>
      <g transform="translate(191.97082 171.711138)scale(0.1 -0.1)">
       <use xlink:href="#DejaVuSans-52"/>
      </g>
     </g>
    </g>
    <g id="xtick_6">
     <g id="line2d_6">
      <g>
       <use style="stroke:#000000;stroke-width:0.8;" x="227.466783" xlink:href="#m90c0f19afb" y="157.112701"/>
      </g>
     </g>
     <g id="text_6">
      <!-- 5 -->
      <defs>
       <path d="M 10.796875 72.90625 
L 49.515625 72.90625 
L 49.515625 64.59375 
L 19.828125 64.59375 
L 19.828125 46.734375 
Q 21.96875 47.46875 24.109375 47.828125 
Q 26.265625 48.1875 28.421875 48.1875 
Q 40.625 48.1875 47.75 41.5 
Q 54.890625 34.8125 54.890625 23.390625 
Q 54.890625 11.625 47.5625 5.09375 
Q 40.234375 -1.421875 26.90625 -1.421875 
Q 22.3125 -1.421875 17.546875 -0.640625 
Q 12.796875 0.140625 7.71875 1.703125 
L 7.71875 11.625 
Q 12.109375 9.234375 16.796875 8.0625 
Q 21.484375 6.890625 26.703125 6.890625 
Q 35.15625 6.890625 40.078125 11.328125 
Q 45.015625 15.765625 45.015625 23.390625 
Q 45.015625 31 40.078125 35.4375 
Q 35.15625 39.890625 26.703125 39.890625 
Q 22.75 39.890625 18.8125 39.015625 
Q 14.890625 38.140625 10.796875 36.28125 
z
" id="DejaVuSans-53"/>
      </defs>
      <g transform="translate(224.285533 171.711138)scale(0.1 -0.1)">
       <use xlink:href="#DejaVuSans-53"/>
      </g>
     </g>
    </g>
    <g id="text_7">
     <!-- $K_\mathrm{S}$ -->
     <defs>
      <path d="M 16.890625 72.90625 
L 26.8125 72.90625 
L 20.796875 42.1875 
L 59.078125 72.90625 
L 72.21875 72.90625 
L 28.90625 38.09375 
L 60.59375 0 
L 48.578125 0 
L 19.484375 35.5 
L 12.59375 0 
L 2.6875 0 
z
" id="DejaVuSans-Oblique-75"/>
      <path d="M 53.515625 70.515625 
L 53.515625 60.890625 
Q 47.90625 63.578125 42.921875 64.890625 
Q 37.9375 66.21875 33.296875 66.21875 
Q 25.25 66.21875 20.875 63.09375 
Q 16.5 59.96875 16.5 54.203125 
Q 16.5 49.359375 19.40625 46.890625 
Q 22.3125 44.4375 30.421875 42.921875 
L 36.375 41.703125 
Q 47.40625 39.59375 52.65625 34.296875 
Q 57.90625 29 57.90625 20.125 
Q 57.90625 9.515625 50.796875 4.046875 
Q 43.703125 -1.421875 29.984375 -1.421875 
Q 24.8125 -1.421875 18.96875 -0.25 
Q 13.140625 0.921875 6.890625 3.21875 
L 6.890625 13.375 
Q 12.890625 10.015625 18.65625 8.296875 
Q 24.421875 6.59375 29.984375 6.59375 
Q 38.421875 6.59375 43.015625 9.90625 
Q 47.609375 13.234375 47.609375 19.390625 
Q 47.609375 24.75 44.3125 27.78125 
Q 41.015625 30.8125 33.5 32.328125 
L 27.484375 33.5 
Q 16.453125 35.6875 11.515625 40.375 
Q 6.59375 45.0625 6.59375 53.421875 
Q 6.59375 63.09375 13.40625 68.65625 
Q 20.21875 74.21875 32.171875 74.21875 
Q 37.3125 74.21875 42.625 73.28125 
Q 47.953125 72.359375 53.515625 70.515625 
z
" id="DejaVuSans-83"/>
     </defs>
     <g transform="translate(141.03 185.389263)scale(0.1 -0.1)">
      <use transform="translate(0 0.09375)" xlink:href="#DejaVuSans-Oblique-75"/>
      <use transform="translate(65.576172 -16.3125)scale(0.7)" xlink:href="#DejaVuSans-83"/>
     </g>
    </g>
   </g>
   <g id="matplotlib.axis_2">
    <g id="ytick_1">
     <g id="line2d_7">
      <defs>
       <path d="M 0 0 
L -3.5 0 
" id="md8bb5576ee" style="stroke:#000000;stroke-width:0.8;"/>
      </defs>
      <g>
       <use style="stroke:#000000;stroke-width:0.8;" x="57.17" xlink:href="#md8bb5576ee" y="156.112701"/>
      </g>
     </g>
     <g id="text_8">
      <!-- 0 -->
      <g transform="translate(43.8075 159.911919)scale(0.1 -0.1)">
       <use xlink:href="#DejaVuSans-48"/>
      </g>
     </g>
    </g>
    <g id="ytick_2">
     <g id="line2d_8">
      <g>
       <use style="stroke:#000000;stroke-width:0.8;" x="57.17" xlink:href="#md8bb5576ee" y="124.984663"/>
      </g>
     </g>
     <g id="text_9">
      <!-- 500 -->
      <g transform="translate(31.0825 128.783882)scale(0.1 -0.1)">
       <use xlink:href="#DejaVuSans-53"/>
       <use x="63.623047" xlink:href="#DejaVuSans-48"/>
       <use x="127.246094" xlink:href="#DejaVuSans-48"/>
      </g>
     </g>
    </g>
    <g id="ytick_3">
     <g id="line2d_9">
      <g>
       <use style="stroke:#000000;stroke-width:0.8;" x="57.17" xlink:href="#md8bb5576ee" y="93.856626"/>
      </g>
     </g>
     <g id="text_10">
      <!-- 1000 -->
      <g transform="translate(24.72 97.655845)scale(0.1 -0.1)">
       <use xlink:href="#DejaVuSans-49"/>
       <use x="63.623047" xlink:href="#DejaVuSans-48"/>
       <use x="127.246094" xlink:href="#DejaVuSans-48"/>
       <use x="190.869141" xlink:href="#DejaVuSans-48"/>
      </g>
     </g>
    </g>
    <g id="ytick_4">
     <g id="line2d_10">
      <g>
       <use style="stroke:#000000;stroke-width:0.8;" x="57.17" xlink:href="#md8bb5576ee" y="62.728589"/>
      </g>
     </g>
     <g id="text_11">
      <!-- 1500 -->
      <g transform="translate(24.72 66.527808)scale(0.1 -0.1)">
       <use xlink:href="#DejaVuSans-49"/>
       <use x="63.623047" xlink:href="#DejaVuSans-53"/>
       <use x="127.246094" xlink:href="#DejaVuSans-48"/>
       <use x="190.869141" xlink:href="#DejaVuSans-48"/>
      </g>
     </g>
    </g>
    <g id="text_12">
     <!-- Duplications -->
     <defs>
      <path d="M 19.671875 64.796875 
L 19.671875 8.109375 
L 31.59375 8.109375 
Q 46.6875 8.109375 53.6875 14.9375 
Q 60.6875 21.78125 60.6875 36.53125 
Q 60.6875 51.171875 53.6875 57.984375 
Q 46.6875 64.796875 31.59375 64.796875 
z
M 9.8125 72.90625 
L 30.078125 72.90625 
Q 51.265625 72.90625 61.171875 64.09375 
Q 71.09375 55.28125 71.09375 36.53125 
Q 71.09375 17.671875 61.125 8.828125 
Q 51.171875 0 30.078125 0 
L 9.8125 0 
z
" id="DejaVuSans-68"/>
      <path d="M 8.5 21.578125 
L 8.5 54.6875 
L 17.484375 54.6875 
L 17.484375 21.921875 
Q 17.484375 14.15625 20.5 10.265625 
Q 23.53125 6.390625 29.59375 6.390625 
Q 36.859375 6.390625 41.078125 11.03125 
Q 45.3125 15.671875 45.3125 23.6875 
L 45.3125 54.6875 
L 54.296875 54.6875 
L 54.296875 0 
L 45.3125 0 
L 45.3125 8.40625 
Q 42.046875 3.421875 37.71875 1 
Q 33.40625 -1.421875 27.6875 -1.421875 
Q 18.265625 -1.421875 13.375 4.4375 
Q 8.5 10.296875 8.5 21.578125 
z
M 31.109375 56 
z
" id="DejaVuSans-117"/>
      <path d="M 18.109375 8.203125 
L 18.109375 -20.796875 
L 9.078125 -20.796875 
L 9.078125 54.6875 
L 18.109375 54.6875 
L 18.109375 46.390625 
Q 20.953125 51.265625 25.265625 53.625 
Q 29.59375 56 35.59375 56 
Q 45.5625 56 51.78125 48.09375 
Q 58.015625 40.1875 58.015625 27.296875 
Q 58.015625 14.40625 51.78125 6.484375 
Q 45.5625 -1.421875 35.59375 -1.421875 
Q 29.59375 -1.421875 25.265625 0.953125 
Q 20.953125 3.328125 18.109375 8.203125 
z
M 48.6875 27.296875 
Q 48.6875 37.203125 44.609375 42.84375 
Q 40.53125 48.484375 33.40625 48.484375 
Q 26.265625 48.484375 22.1875 42.84375 
Q 18.109375 37.203125 18.109375 27.296875 
Q 18.109375 17.390625 22.1875 11.75 
Q 26.265625 6.109375 33.40625 6.109375 
Q 40.53125 6.109375 44.609375 11.75 
Q 48.6875 17.390625 48.6875 27.296875 
z
" id="DejaVuSans-112"/>
      <path d="M 9.421875 75.984375 
L 18.40625 75.984375 
L 18.40625 0 
L 9.421875 0 
z
" id="DejaVuSans-108"/>
      <path d="M 9.421875 54.6875 
L 18.40625 54.6875 
L 18.40625 0 
L 9.421875 0 
z
M 9.421875 75.984375 
L 18.40625 75.984375 
L 18.40625 64.59375 
L 9.421875 64.59375 
z
" id="DejaVuSans-105"/>
      <path d="M 48.78125 52.59375 
L 48.78125 44.1875 
Q 44.96875 46.296875 41.140625 47.34375 
Q 37.3125 48.390625 33.40625 48.390625 
Q 24.65625 48.390625 19.8125 42.84375 
Q 14.984375 37.3125 14.984375 27.296875 
Q 14.984375 17.28125 19.8125 11.734375 
Q 24.65625 6.203125 33.40625 6.203125 
Q 37.3125 6.203125 41.140625 7.25 
Q 44.96875 8.296875 48.78125 10.40625 
L 48.78125 2.09375 
Q 45.015625 0.34375 40.984375 -0.53125 
Q 36.96875 -1.421875 32.421875 -1.421875 
Q 20.0625 -1.421875 12.78125 6.34375 
Q 5.515625 14.109375 5.515625 27.296875 
Q 5.515625 40.671875 12.859375 48.328125 
Q 20.21875 56 33.015625 56 
Q 37.15625 56 41.109375 55.140625 
Q 45.0625 54.296875 48.78125 52.59375 
z
" id="DejaVuSans-99"/>
      <path d="M 34.28125 27.484375 
Q 23.390625 27.484375 19.1875 25 
Q 14.984375 22.515625 14.984375 16.5 
Q 14.984375 11.71875 18.140625 8.90625 
Q 21.296875 6.109375 26.703125 6.109375 
Q 34.1875 6.109375 38.703125 11.40625 
Q 43.21875 16.703125 43.21875 25.484375 
L 43.21875 27.484375 
z
M 52.203125 31.203125 
L 52.203125 0 
L 43.21875 0 
L 43.21875 8.296875 
Q 40.140625 3.328125 35.546875 0.953125 
Q 30.953125 -1.421875 24.3125 -1.421875 
Q 15.921875 -1.421875 10.953125 3.296875 
Q 6 8.015625 6 15.921875 
Q 6 25.140625 12.171875 29.828125 
Q 18.359375 34.515625 30.609375 34.515625 
L 43.21875 34.515625 
L 43.21875 35.40625 
Q 43.21875 41.609375 39.140625 45 
Q 35.0625 48.390625 27.6875 48.390625 
Q 23 48.390625 18.546875 47.265625 
Q 14.109375 46.140625 10.015625 43.890625 
L 10.015625 52.203125 
Q 14.9375 54.109375 19.578125 55.046875 
Q 24.21875 56 28.609375 56 
Q 40.484375 56 46.34375 49.84375 
Q 52.203125 43.703125 52.203125 31.203125 
z
" id="DejaVuSans-97"/>
      <path d="M 18.3125 70.21875 
L 18.3125 54.6875 
L 36.8125 54.6875 
L 36.8125 47.703125 
L 18.3125 47.703125 
L 18.3125 18.015625 
Q 18.3125 11.328125 20.140625 9.421875 
Q 21.96875 7.515625 27.59375 7.515625 
L 36.8125 7.515625 
L 36.8125 0 
L 27.59375 0 
Q 17.1875 0 13.234375 3.875 
Q 9.28125 7.765625 9.28125 18.015625 
L 9.28125 47.703125 
L 2.6875 47.703125 
L 2.6875 54.6875 
L 9.28125 54.6875 
L 9.28125 70.21875 
z
" id="DejaVuSans-116"/>
      <path d="M 30.609375 48.390625 
Q 23.390625 48.390625 19.1875 42.75 
Q 14.984375 37.109375 14.984375 27.296875 
Q 14.984375 17.484375 19.15625 11.84375 
Q 23.34375 6.203125 30.609375 6.203125 
Q 37.796875 6.203125 41.984375 11.859375 
Q 46.1875 17.53125 46.1875 27.296875 
Q 46.1875 37.015625 41.984375 42.703125 
Q 37.796875 48.390625 30.609375 48.390625 
z
M 30.609375 56 
Q 42.328125 56 49.015625 48.375 
Q 55.71875 40.765625 55.71875 27.296875 
Q 55.71875 13.875 49.015625 6.21875 
Q 42.328125 -1.421875 30.609375 -1.421875 
Q 18.84375 -1.421875 12.171875 6.21875 
Q 5.515625 13.875 5.515625 27.296875 
Q 5.515625 40.765625 12.171875 48.375 
Q 18.84375 56 30.609375 56 
z
" id="DejaVuSans-111"/>
      <path d="M 54.890625 33.015625 
L 54.890625 0 
L 45.90625 0 
L 45.90625 32.71875 
Q 45.90625 40.484375 42.875 44.328125 
Q 39.84375 48.1875 33.796875 48.1875 
Q 26.515625 48.1875 22.3125 43.546875 
Q 18.109375 38.921875 18.109375 30.90625 
L 18.109375 0 
L 9.078125 0 
L 9.078125 54.6875 
L 18.109375 54.6875 
L 18.109375 46.1875 
Q 21.34375 51.125 25.703125 53.5625 
Q 30.078125 56 35.796875 56 
Q 45.21875 56 50.046875 50.171875 
Q 54.890625 44.34375 54.890625 33.015625 
z
" id="DejaVuSans-110"/>
      <path d="M 44.28125 53.078125 
L 44.28125 44.578125 
Q 40.484375 46.53125 36.375 47.5 
Q 32.28125 48.484375 27.875 48.484375 
Q 21.1875 48.484375 17.84375 46.4375 
Q 14.5 44.390625 14.5 40.28125 
Q 14.5 37.15625 16.890625 35.375 
Q 19.28125 33.59375 26.515625 31.984375 
L 29.59375 31.296875 
Q 39.15625 29.25 43.1875 25.515625 
Q 47.21875 21.78125 47.21875 15.09375 
Q 47.21875 7.46875 41.1875 3.015625 
Q 35.15625 -1.421875 24.609375 -1.421875 
Q 20.21875 -1.421875 15.453125 -0.5625 
Q 10.6875 0.296875 5.421875 2 
L 5.421875 11.28125 
Q 10.40625 8.6875 15.234375 7.390625 
Q 20.0625 6.109375 24.8125 6.109375 
Q 31.15625 6.109375 34.5625 8.28125 
Q 37.984375 10.453125 37.984375 14.40625 
Q 37.984375 18.0625 35.515625 20.015625 
Q 33.0625 21.96875 24.703125 23.78125 
L 21.578125 24.515625 
Q 13.234375 26.265625 9.515625 29.90625 
Q 5.8125 33.546875 5.8125 39.890625 
Q 5.8125 47.609375 11.28125 51.796875 
Q 16.75 56 26.8125 56 
Q 31.78125 56 36.171875 55.265625 
Q 40.578125 54.546875 44.28125 53.078125 
z
" id="DejaVuSans-115"/>
     </defs>
     <g transform="translate(18.640313 134.942757)rotate(-90)scale(0.1 -0.1)">
      <use xlink:href="#DejaVuSans-68"/>
      <use x="77.001953" xlink:href="#DejaVuSans-117"/>
      <use x="140.380859" xlink:href="#DejaVuSans-112"/>
      <use x="203.857422" xlink:href="#DejaVuSans-108"/>
      <use x="231.640625" xlink:href="#DejaVuSans-105"/>
      <use x="259.423828" xlink:href="#DejaVuSans-99"/>
      <use x="314.404297" xlink:href="#DejaVuSans-97"/>
      <use x="375.683594" xlink:href="#DejaVuSans-116"/>
      <use x="414.892578" xlink:href="#DejaVuSans-105"/>
      <use x="442.675781" xlink:href="#DejaVuSans-111"/>
      <use x="503.857422" xlink:href="#DejaVuSans-110"/>
      <use x="567.236328" xlink:href="#DejaVuSans-115"/>
     </g>
    </g>
   </g>
   <g id="patch_53">
    <path d="M 57.17 156.112701 
L 57.17 51.84 
" style="fill:none;stroke:#000000;stroke-linecap:square;stroke-linejoin:miter;stroke-width:0.8;"/>
   </g>
   <g id="patch_54">
    <path d="M 58.17 157.112701 
L 235.19 157.112701 
" style="fill:none;stroke:#000000;stroke-linecap:square;stroke-linejoin:miter;stroke-width:0.8;"/>
   </g>
  </g>
  <g id="axes_2">
   <g id="patch_55">
    <path d="M 272.98 156.112701 
L 450 156.112701 
L 450 51.84 
L 272.98 51.84 
z
" style="fill:#ffffff;"/>
   </g>
   <g id="patch_56">
    <path clip-path="url(#p035b8b9451)" d="M 281.026364 156.112701 
L 283.611541 156.112701 
L 283.611541 135.526673 
L 281.026364 135.526673 
z
" style="opacity:0.2;"/>
   </g>
   <g id="patch_57">
    <path clip-path="url(#p035b8b9451)" d="M 284.257835 156.112701 
L 286.843012 156.112701 
L 286.843012 156.112701 
L 284.257835 156.112701 
z
" style="opacity:0.2;"/>
   </g>
   <g id="patch_58">
    <path clip-path="url(#p035b8b9451)" d="M 287.489306 156.112701 
L 290.074483 156.112701 
L 290.074483 156.112701 
L 287.489306 156.112701 
z
" style="opacity:0.2;"/>
   </g>
   <g id="patch_59">
    <path clip-path="url(#p035b8b9451)" d="M 290.720778 156.112701 
L 293.305955 156.112701 
L 293.305955 145.958521 
L 290.720778 145.958521 
z
" style="opacity:0.2;"/>
   </g>
   <g id="patch_60">
    <path clip-path="url(#p035b8b9451)" d="M 293.952249 156.112701 
L 296.537426 156.112701 
L 296.537426 156.112701 
L 293.952249 156.112701 
z
" style="opacity:0.2;"/>
   </g>
   <g id="patch_61">
    <path clip-path="url(#p035b8b9451)" d="M 297.18372 156.112701 
L 299.768897 156.112701 
L 299.768897 151.881018 
L 297.18372 151.881018 
z
" style="opacity:0.2;"/>
   </g>
   <g id="patch_62">
    <path clip-path="url(#p035b8b9451)" d="M 300.415192 156.112701 
L 303.000369 156.112701 
L 303.000369 154.009742 
L 300.415192 154.009742 
z
" style="opacity:0.2;"/>
   </g>
   <g id="patch_63">
    <path clip-path="url(#p035b8b9451)" d="M 303.646663 156.112701 
L 306.23184 156.112701 
L 306.23184 155.340178 
L 303.646663 155.340178 
z
" style="opacity:0.2;"/>
   </g>
   <g id="patch_64">
    <path clip-path="url(#p035b8b9451)" d="M 306.878134 156.112701 
L 309.463311 156.112701 
L 309.463311 153.73413 
L 306.878134 153.73413 
z
" style="opacity:0.2;"/>
   </g>
   <g id="patch_65">
    <path clip-path="url(#p035b8b9451)" d="M 310.109606 156.112701 
L 312.694783 156.112701 
L 312.694783 155.572269 
L 310.109606 155.572269 
z
" style="opacity:0.2;"/>
   </g>
   <g id="patch_66">
    <path clip-path="url(#p035b8b9451)" d="M 313.341077 156.112701 
L 315.926254 156.112701 
L 315.926254 154.740764 
L 313.341077 154.740764 
z
" style="opacity:0.2;"/>
   </g>
   <g id="patch_67">
    <path clip-path="url(#p035b8b9451)" d="M 316.572548 156.112701 
L 319.157725 156.112701 
L 319.157725 155.427965 
L 316.572548 155.427965 
z
" style="opacity:0.2;"/>
   </g>
   <g id="patch_68">
    <path clip-path="url(#p035b8b9451)" d="M 319.80402 156.112701 
L 322.389197 156.112701 
L 322.389197 155.330351 
L 319.80402 155.330351 
z
" style="opacity:0.2;"/>
   </g>
   <g id="patch_69">
    <path clip-path="url(#p035b8b9451)" d="M 323.035491 156.112701 
L 325.620668 156.112701 
L 325.620668 155.288093 
L 323.035491 155.288093 
z
" style="opacity:0.2;"/>
   </g>
   <g id="patch_70">
    <path clip-path="url(#p035b8b9451)" d="M 326.266962 156.112701 
L 328.852139 156.112701 
L 328.852139 155.131464 
L 326.266962 155.131464 
z
" style="opacity:0.2;"/>
   </g>
   <g id="patch_71">
    <path clip-path="url(#p035b8b9451)" d="M 329.498434 156.112701 
L 332.083611 156.112701 
L 332.083611 155.431026 
L 329.498434 155.431026 
z
" style="opacity:0.2;"/>
   </g>
   <g id="patch_72">
    <path clip-path="url(#p035b8b9451)" d="M 332.729905 156.112701 
L 335.315082 156.112701 
L 335.315082 154.845529 
L 332.729905 154.845529 
z
" style="opacity:0.2;"/>
   </g>
   <g id="patch_73">
    <path clip-path="url(#p035b8b9451)" d="M 335.961376 156.112701 
L 338.546553 156.112701 
L 338.546553 154.343657 
L 335.961376 154.343657 
z
" style="opacity:0.2;"/>
   </g>
   <g id="patch_74">
    <path clip-path="url(#p035b8b9451)" d="M 339.192848 156.112701 
L 341.778025 156.112701 
L 341.778025 153.383875 
L 339.192848 153.383875 
z
" style="opacity:0.2;"/>
   </g>
   <g id="patch_75">
    <path clip-path="url(#p035b8b9451)" d="M 342.424319 156.112701 
L 345.009496 156.112701 
L 345.009496 152.705931 
L 342.424319 152.705931 
z
" style="opacity:0.2;"/>
   </g>
   <g id="patch_76">
    <path clip-path="url(#p035b8b9451)" d="M 345.65579 156.112701 
L 348.240968 156.112701 
L 348.240968 151.336409 
L 345.65579 151.336409 
z
" style="opacity:0.2;"/>
   </g>
   <g id="patch_77">
    <path clip-path="url(#p035b8b9451)" d="M 348.887262 156.112701 
L 351.472439 156.112701 
L 351.472439 149.594211 
L 348.887262 149.594211 
z
" style="opacity:0.2;"/>
   </g>
   <g id="patch_78">
    <path clip-path="url(#p035b8b9451)" d="M 352.118733 156.112701 
L 354.70391 156.112701 
L 354.70391 148.943864 
L 352.118733 148.943864 
z
" style="opacity:0.2;"/>
   </g>
   <g id="patch_79">
    <path clip-path="url(#p035b8b9451)" d="M 355.350204 156.112701 
L 357.935382 156.112701 
L 357.935382 146.968322 
L 355.350204 146.968322 
z
" style="opacity:0.2;"/>
   </g>
   <g id="patch_80">
    <path clip-path="url(#p035b8b9451)" d="M 358.581676 156.112701 
L 361.166853 156.112701 
L 361.166853 146.129842 
L 358.581676 146.129842 
z
" style="opacity:0.2;"/>
   </g>
   <g id="patch_81">
    <path clip-path="url(#p035b8b9451)" d="M 361.813147 156.112701 
L 364.398324 156.112701 
L 364.398324 143.17453 
L 361.813147 143.17453 
z
" style="opacity:0.2;"/>
   </g>
   <g id="patch_82">
    <path clip-path="url(#p035b8b9451)" d="M 365.044618 156.112701 
L 367.629796 156.112701 
L 367.629796 142.154822 
L 365.044618 142.154822 
z
" style="opacity:0.2;"/>
   </g>
   <g id="patch_83">
    <path clip-path="url(#p035b8b9451)" d="M 368.27609 156.112701 
L 370.861267 156.112701 
L 370.861267 141.718442 
L 368.27609 141.718442 
z
" style="opacity:0.2;"/>
   </g>
   <g id="patch_84">
    <path clip-path="url(#p035b8b9451)" d="M 371.507561 156.112701 
L 374.092738 156.112701 
L 374.092738 140.839697 
L 371.507561 140.839697 
z
" style="opacity:0.2;"/>
   </g>
   <g id="patch_85">
    <path clip-path="url(#p035b8b9451)" d="M 374.739032 156.112701 
L 377.32421 156.112701 
L 377.32421 139.336944 
L 374.739032 139.336944 
z
" style="opacity:0.2;"/>
   </g>
   <g id="patch_86">
    <path clip-path="url(#p035b8b9451)" d="M 377.970504 156.112701 
L 380.555681 156.112701 
L 380.555681 140.088128 
L 377.970504 140.088128 
z
" style="opacity:0.2;"/>
   </g>
   <g id="patch_87">
    <path clip-path="url(#p035b8b9451)" d="M 381.201975 156.112701 
L 383.787152 156.112701 
L 383.787152 135.208341 
L 381.201975 135.208341 
z
" style="opacity:0.2;"/>
   </g>
   <g id="patch_88">
    <path clip-path="url(#p035b8b9451)" d="M 384.433447 156.112701 
L 387.018624 156.112701 
L 387.018624 133.354332 
L 384.433447 133.354332 
z
" style="opacity:0.2;"/>
   </g>
   <g id="patch_89">
    <path clip-path="url(#p035b8b9451)" d="M 387.664918 156.112701 
L 390.250095 156.112701 
L 390.250095 132.687764 
L 387.664918 132.687764 
z
" style="opacity:0.2;"/>
   </g>
   <g id="patch_90">
    <path clip-path="url(#p035b8b9451)" d="M 390.896389 156.112701 
L 393.481566 156.112701 
L 393.481566 125.822277 
L 390.896389 125.822277 
z
" style="opacity:0.2;"/>
   </g>
   <g id="patch_91">
    <path clip-path="url(#p035b8b9451)" d="M 394.127861 156.112701 
L 396.713038 156.112701 
L 396.713038 123.816323 
L 394.127861 123.816323 
z
" style="opacity:0.2;"/>
   </g>
   <g id="patch_92">
    <path clip-path="url(#p035b8b9451)" d="M 397.359332 156.112701 
L 399.944509 156.112701 
L 399.944509 120.516645 
L 397.359332 120.516645 
z
" style="opacity:0.2;"/>
   </g>
   <g id="patch_93">
    <path clip-path="url(#p035b8b9451)" d="M 400.590803 156.112701 
L 403.17598 156.112701 
L 403.17598 118.99747 
L 400.590803 118.99747 
z
" style="opacity:0.2;"/>
   </g>
   <g id="patch_94">
    <path clip-path="url(#p035b8b9451)" d="M 403.822275 156.112701 
L 406.407452 156.112701 
L 406.407452 115.693821 
L 403.822275 115.693821 
z
" style="opacity:0.2;"/>
   </g>
   <g id="patch_95">
    <path clip-path="url(#p035b8b9451)" d="M 407.053746 156.112701 
L 409.638923 156.112701 
L 409.638923 113.988721 
L 407.053746 113.988721 
z
" style="opacity:0.2;"/>
   </g>
   <g id="patch_96">
    <path clip-path="url(#p035b8b9451)" d="M 410.285217 156.112701 
L 412.870394 156.112701 
L 412.870394 102.319007 
L 410.285217 102.319007 
z
" style="opacity:0.2;"/>
   </g>
   <g id="patch_97">
    <path clip-path="url(#p035b8b9451)" d="M 413.516689 156.112701 
L 416.101866 156.112701 
L 416.101866 103.54235 
L 413.516689 103.54235 
z
" style="opacity:0.2;"/>
   </g>
   <g id="patch_98">
    <path clip-path="url(#p035b8b9451)" d="M 416.74816 156.112701 
L 419.333337 156.112701 
L 419.333337 91.585538 
L 416.74816 91.585538 
z
" style="opacity:0.2;"/>
   </g>
   <g id="patch_99">
    <path clip-path="url(#p035b8b9451)" d="M 419.979631 156.112701 
L 422.564808 156.112701 
L 422.564808 75.528033 
L 419.979631 75.528033 
z
" style="opacity:0.2;"/>
   </g>
   <g id="patch_100">
    <path clip-path="url(#p035b8b9451)" d="M 423.211103 156.112701 
L 425.79628 156.112701 
L 425.79628 75.633857 
L 423.211103 75.633857 
z
" style="opacity:0.2;"/>
   </g>
   <g id="patch_101">
    <path clip-path="url(#p035b8b9451)" d="M 426.442574 156.112701 
L 429.027751 156.112701 
L 429.027751 82.782563 
L 426.442574 82.782563 
z
" style="opacity:0.2;"/>
   </g>
   <g id="patch_102">
    <path clip-path="url(#p035b8b9451)" d="M 429.674045 156.112701 
L 432.259222 156.112701 
L 432.259222 74.260414 
L 429.674045 74.260414 
z
" style="opacity:0.2;"/>
   </g>
   <g id="patch_103">
    <path clip-path="url(#p035b8b9451)" d="M 432.905517 156.112701 
L 435.490694 156.112701 
L 435.490694 69.458453 
L 432.905517 69.458453 
z
" style="opacity:0.2;"/>
   </g>
   <g id="patch_104">
    <path clip-path="url(#p035b8b9451)" d="M 436.136988 156.112701 
L 438.722165 156.112701 
L 438.722165 66.444435 
L 436.136988 66.444435 
z
" style="opacity:0.2;"/>
   </g>
   <g id="patch_105">
    <path clip-path="url(#p035b8b9451)" d="M 439.368459 156.112701 
L 441.953636 156.112701 
L 441.953636 56.805367 
L 439.368459 56.805367 
z
" style="opacity:0.2;"/>
   </g>
   <g id="matplotlib.axis_3">
    <g id="xtick_7">
     <g id="line2d_11">
      <g>
       <use style="stroke:#000000;stroke-width:0.8;" x="280.703217" xlink:href="#m90c0f19afb" y="157.112701"/>
      </g>
     </g>
     <g id="text_13">
      <!-- −4 -->
      <defs>
       <path d="M 10.59375 35.5 
L 73.1875 35.5 
L 73.1875 27.203125 
L 10.59375 27.203125 
z
" id="DejaVuSans-8722"/>
      </defs>
      <g transform="translate(273.332123 171.711138)scale(0.1 -0.1)">
       <use xlink:href="#DejaVuSans-8722"/>
       <use x="83.789062" xlink:href="#DejaVuSans-52"/>
      </g>
     </g>
    </g>
    <g id="xtick_8">
     <g id="line2d_12">
      <g>
       <use style="stroke:#000000;stroke-width:0.8;" x="349.474014" xlink:href="#m90c0f19afb" y="157.112701"/>
      </g>
     </g>
     <g id="text_14">
      <!-- −2 -->
      <g transform="translate(342.10292 171.711138)scale(0.1 -0.1)">
       <use xlink:href="#DejaVuSans-8722"/>
       <use x="83.789062" xlink:href="#DejaVuSans-50"/>
      </g>
     </g>
    </g>
    <g id="xtick_9">
     <g id="line2d_13">
      <g>
       <use style="stroke:#000000;stroke-width:0.8;" x="418.244811" xlink:href="#m90c0f19afb" y="157.112701"/>
      </g>
     </g>
     <g id="text_15">
      <!-- 0 -->
      <g transform="translate(415.063561 171.711138)scale(0.1 -0.1)">
       <use xlink:href="#DejaVuSans-48"/>
      </g>
     </g>
    </g>
    <g id="text_16">
     <!-- $\log_{10}K_\mathrm{S}$ -->
     <defs>
      <path d="M 45.40625 27.984375 
Q 45.40625 37.75 41.375 43.109375 
Q 37.359375 48.484375 30.078125 48.484375 
Q 22.859375 48.484375 18.828125 43.109375 
Q 14.796875 37.75 14.796875 27.984375 
Q 14.796875 18.265625 18.828125 12.890625 
Q 22.859375 7.515625 30.078125 7.515625 
Q 37.359375 7.515625 41.375 12.890625 
Q 45.40625 18.265625 45.40625 27.984375 
z
M 54.390625 6.78125 
Q 54.390625 -7.171875 48.1875 -13.984375 
Q 42 -20.796875 29.203125 -20.796875 
Q 24.46875 -20.796875 20.265625 -20.09375 
Q 16.0625 -19.390625 12.109375 -17.921875 
L 12.109375 -9.1875 
Q 16.0625 -11.328125 19.921875 -12.34375 
Q 23.78125 -13.375 27.78125 -13.375 
Q 36.625 -13.375 41.015625 -8.765625 
Q 45.40625 -4.15625 45.40625 5.171875 
L 45.40625 9.625 
Q 42.625 4.78125 38.28125 2.390625 
Q 33.9375 0 27.875 0 
Q 17.828125 0 11.671875 7.65625 
Q 5.515625 15.328125 5.515625 27.984375 
Q 5.515625 40.671875 11.671875 48.328125 
Q 17.828125 56 27.875 56 
Q 33.9375 56 38.28125 53.609375 
Q 42.625 51.21875 45.40625 46.390625 
L 45.40625 54.6875 
L 54.390625 54.6875 
z
" id="DejaVuSans-103"/>
     </defs>
     <g transform="translate(343.59 185.390826)scale(0.1 -0.1)">
      <use transform="translate(0 0.015625)" xlink:href="#DejaVuSans-108"/>
      <use transform="translate(27.783203 0.015625)" xlink:href="#DejaVuSans-111"/>
      <use transform="translate(88.964844 0.015625)" xlink:href="#DejaVuSans-103"/>
      <use transform="translate(153.398438 -16.390625)scale(0.7)" xlink:href="#DejaVuSans-49"/>
      <use transform="translate(197.93457 -16.390625)scale(0.7)" xlink:href="#DejaVuSans-48"/>
      <use transform="translate(245.205078 0.015625)" xlink:href="#DejaVuSans-Oblique-75"/>
      <use transform="translate(310.78125 -16.390625)scale(0.7)" xlink:href="#DejaVuSans-83"/>
     </g>
    </g>
   </g>
   <g id="matplotlib.axis_4">
    <g id="ytick_5">
     <g id="line2d_14">
      <g>
       <use style="stroke:#000000;stroke-width:0.8;" x="271.98" xlink:href="#md8bb5576ee" y="156.112701"/>
      </g>
     </g>
     <g id="text_17">
      <!-- 0 -->
      <g transform="translate(258.6175 159.911919)scale(0.1 -0.1)">
       <use xlink:href="#DejaVuSans-48"/>
      </g>
     </g>
    </g>
    <g id="ytick_6">
     <g id="line2d_15">
      <g>
       <use style="stroke:#000000;stroke-width:0.8;" x="271.98" xlink:href="#md8bb5576ee" y="130.826623"/>
      </g>
     </g>
     <g id="text_18">
      <!-- 200 -->
      <g transform="translate(245.8925 134.625842)scale(0.1 -0.1)">
       <use xlink:href="#DejaVuSans-50"/>
       <use x="63.623047" xlink:href="#DejaVuSans-48"/>
       <use x="127.246094" xlink:href="#DejaVuSans-48"/>
      </g>
     </g>
    </g>
    <g id="ytick_7">
     <g id="line2d_16">
      <g>
       <use style="stroke:#000000;stroke-width:0.8;" x="271.98" xlink:href="#md8bb5576ee" y="105.540545"/>
      </g>
     </g>
     <g id="text_19">
      <!-- 400 -->
      <g transform="translate(245.8925 109.339764)scale(0.1 -0.1)">
       <use xlink:href="#DejaVuSans-52"/>
       <use x="63.623047" xlink:href="#DejaVuSans-48"/>
       <use x="127.246094" xlink:href="#DejaVuSans-48"/>
      </g>
     </g>
    </g>
    <g id="ytick_8">
     <g id="line2d_17">
      <g>
       <use style="stroke:#000000;stroke-width:0.8;" x="271.98" xlink:href="#md8bb5576ee" y="80.254468"/>
      </g>
     </g>
     <g id="text_20">
      <!-- 600 -->
      <defs>
       <path d="M 33.015625 40.375 
Q 26.375 40.375 22.484375 35.828125 
Q 18.609375 31.296875 18.609375 23.390625 
Q 18.609375 15.53125 22.484375 10.953125 
Q 26.375 6.390625 33.015625 6.390625 
Q 39.65625 6.390625 43.53125 10.953125 
Q 47.40625 15.53125 47.40625 23.390625 
Q 47.40625 31.296875 43.53125 35.828125 
Q 39.65625 40.375 33.015625 40.375 
z
M 52.59375 71.296875 
L 52.59375 62.3125 
Q 48.875 64.0625 45.09375 64.984375 
Q 41.3125 65.921875 37.59375 65.921875 
Q 27.828125 65.921875 22.671875 59.328125 
Q 17.53125 52.734375 16.796875 39.40625 
Q 19.671875 43.65625 24.015625 45.921875 
Q 28.375 48.1875 33.59375 48.1875 
Q 44.578125 48.1875 50.953125 41.515625 
Q 57.328125 34.859375 57.328125 23.390625 
Q 57.328125 12.15625 50.6875 5.359375 
Q 44.046875 -1.421875 33.015625 -1.421875 
Q 20.359375 -1.421875 13.671875 8.265625 
Q 6.984375 17.96875 6.984375 36.375 
Q 6.984375 53.65625 15.1875 63.9375 
Q 23.390625 74.21875 37.203125 74.21875 
Q 40.921875 74.21875 44.703125 73.484375 
Q 48.484375 72.75 52.59375 71.296875 
z
" id="DejaVuSans-54"/>
      </defs>
      <g transform="translate(245.8925 84.053686)scale(0.1 -0.1)">
       <use xlink:href="#DejaVuSans-54"/>
       <use x="63.623047" xlink:href="#DejaVuSans-48"/>
       <use x="127.246094" xlink:href="#DejaVuSans-48"/>
      </g>
     </g>
    </g>
    <g id="ytick_9">
     <g id="line2d_18">
      <g>
       <use style="stroke:#000000;stroke-width:0.8;" x="271.98" xlink:href="#md8bb5576ee" y="54.96839"/>
      </g>
     </g>
     <g id="text_21">
      <!-- 800 -->
      <defs>
       <path d="M 31.78125 34.625 
Q 24.75 34.625 20.71875 30.859375 
Q 16.703125 27.09375 16.703125 20.515625 
Q 16.703125 13.921875 20.71875 10.15625 
Q 24.75 6.390625 31.78125 6.390625 
Q 38.8125 6.390625 42.859375 10.171875 
Q 46.921875 13.96875 46.921875 20.515625 
Q 46.921875 27.09375 42.890625 30.859375 
Q 38.875 34.625 31.78125 34.625 
z
M 21.921875 38.8125 
Q 15.578125 40.375 12.03125 44.71875 
Q 8.5 49.078125 8.5 55.328125 
Q 8.5 64.0625 14.71875 69.140625 
Q 20.953125 74.21875 31.78125 74.21875 
Q 42.671875 74.21875 48.875 69.140625 
Q 55.078125 64.0625 55.078125 55.328125 
Q 55.078125 49.078125 51.53125 44.71875 
Q 48 40.375 41.703125 38.8125 
Q 48.828125 37.15625 52.796875 32.3125 
Q 56.78125 27.484375 56.78125 20.515625 
Q 56.78125 9.90625 50.3125 4.234375 
Q 43.84375 -1.421875 31.78125 -1.421875 
Q 19.734375 -1.421875 13.25 4.234375 
Q 6.78125 9.90625 6.78125 20.515625 
Q 6.78125 27.484375 10.78125 32.3125 
Q 14.796875 37.15625 21.921875 38.8125 
z
M 18.3125 54.390625 
Q 18.3125 48.734375 21.84375 45.5625 
Q 25.390625 42.390625 31.78125 42.390625 
Q 38.140625 42.390625 41.71875 45.5625 
Q 45.3125 48.734375 45.3125 54.390625 
Q 45.3125 60.0625 41.71875 63.234375 
Q 38.140625 66.40625 31.78125 66.40625 
Q 25.390625 66.40625 21.84375 63.234375 
Q 18.3125 60.0625 18.3125 54.390625 
z
" id="DejaVuSans-56"/>
      </defs>
      <g transform="translate(245.8925 58.767609)scale(0.1 -0.1)">
       <use xlink:href="#DejaVuSans-56"/>
       <use x="63.623047" xlink:href="#DejaVuSans-48"/>
       <use x="127.246094" xlink:href="#DejaVuSans-48"/>
      </g>
     </g>
    </g>
   </g>
   <g id="patch_106">
    <path d="M 271.98 156.112701 
L 271.98 51.84 
" style="fill:none;stroke:#000000;stroke-linecap:square;stroke-linejoin:miter;stroke-width:0.8;"/>
   </g>
   <g id="patch_107">
    <path d="M 272.98 157.112701 
L 450 157.112701 
" style="fill:none;stroke:#000000;stroke-linecap:square;stroke-linejoin:miter;stroke-width:0.8;"/>
   </g>
  </g>
  <g id="axes_3">
   <g id="patch_108">
    <path d="M 58.17 299.76 
L 235.19 299.76 
L 235.19 195.487299 
L 58.17 195.487299 
z
" style="fill:#ffffff;"/>
   </g>
   <g id="patch_109">
    <path clip-path="url(#pa667ea3346)" d="M 66.216364 299.76 
L 68.801541 299.76 
L 68.801541 296.384074 
L 66.216364 296.384074 
z
" style="opacity:0.2;"/>
   </g>
   <g id="patch_110">
    <path clip-path="url(#pa667ea3346)" d="M 69.447835 299.76 
L 72.033012 299.76 
L 72.033012 299.76 
L 69.447835 299.76 
z
" style="opacity:0.2;"/>
   </g>
   <g id="patch_111">
    <path clip-path="url(#pa667ea3346)" d="M 72.679306 299.76 
L 75.264483 299.76 
L 75.264483 298.286653 
L 72.679306 298.286653 
z
" style="opacity:0.2;"/>
   </g>
   <g id="patch_112">
    <path clip-path="url(#pa667ea3346)" d="M 75.910778 299.76 
L 78.495955 299.76 
L 78.495955 298.313586 
L 75.910778 298.313586 
z
" style="opacity:0.2;"/>
   </g>
   <g id="patch_113">
    <path clip-path="url(#pa667ea3346)" d="M 79.142249 299.76 
L 81.727426 299.76 
L 81.727426 299.76 
L 79.142249 299.76 
z
" style="opacity:0.2;"/>
   </g>
   <g id="patch_114">
    <path clip-path="url(#pa667ea3346)" d="M 82.37372 299.76 
L 84.958897 299.76 
L 84.958897 298.747828 
L 82.37372 298.747828 
z
" style="opacity:0.2;"/>
   </g>
   <g id="patch_115">
    <path clip-path="url(#pa667ea3346)" d="M 85.605192 299.76 
L 88.190369 299.76 
L 88.190369 299.106403 
L 85.605192 299.106403 
z
" style="opacity:0.2;"/>
   </g>
   <g id="patch_116">
    <path clip-path="url(#pa667ea3346)" d="M 88.836663 299.76 
L 91.42184 299.76 
L 91.42184 298.382696 
L 88.836663 298.382696 
z
" style="opacity:0.2;"/>
   </g>
   <g id="patch_117">
    <path clip-path="url(#pa667ea3346)" d="M 92.068134 299.76 
L 94.653311 299.76 
L 94.653311 298.461757 
L 92.068134 298.461757 
z
" style="opacity:0.2;"/>
   </g>
   <g id="patch_118">
    <path clip-path="url(#pa667ea3346)" d="M 95.299606 299.76 
L 97.884783 299.76 
L 97.884783 299.035551 
L 95.299606 299.035551 
z
" style="opacity:0.2;"/>
   </g>
   <g id="patch_119">
    <path clip-path="url(#pa667ea3346)" d="M 98.531077 299.76 
L 101.116254 299.76 
L 101.116254 296.854715 
L 98.531077 296.854715 
z
" style="opacity:0.2;"/>
   </g>
   <g id="patch_120">
    <path clip-path="url(#pa667ea3346)" d="M 101.762548 299.76 
L 104.347725 299.76 
L 104.347725 296.752304 
L 101.762548 296.752304 
z
" style="opacity:0.2;"/>
   </g>
   <g id="patch_121">
    <path clip-path="url(#pa667ea3346)" d="M 104.99402 299.76 
L 107.579197 299.76 
L 107.579197 295.189716 
L 104.99402 295.189716 
z
" style="opacity:0.2;"/>
   </g>
   <g id="patch_122">
    <path clip-path="url(#pa667ea3346)" d="M 108.225491 299.76 
L 110.810668 299.76 
L 110.810668 294.710849 
L 108.225491 294.710849 
z
" style="opacity:0.2;"/>
   </g>
   <g id="patch_123">
    <path clip-path="url(#pa667ea3346)" d="M 111.456962 299.76 
L 114.042139 299.76 
L 114.042139 290.095306 
L 111.456962 290.095306 
z
" style="opacity:0.2;"/>
   </g>
   <g id="patch_124">
    <path clip-path="url(#pa667ea3346)" d="M 114.688434 299.76 
L 117.273611 299.76 
L 117.273611 288.366209 
L 114.688434 288.366209 
z
" style="opacity:0.2;"/>
   </g>
   <g id="patch_125">
    <path clip-path="url(#pa667ea3346)" d="M 117.919905 299.76 
L 120.505082 299.76 
L 120.505082 285.193994 
L 117.919905 285.193994 
z
" style="opacity:0.2;"/>
   </g>
   <g id="patch_126">
    <path clip-path="url(#pa667ea3346)" d="M 121.151376 299.76 
L 123.736553 299.76 
L 123.736553 283.628123 
L 121.151376 283.628123 
z
" style="opacity:0.2;"/>
   </g>
   <g id="patch_127">
    <path clip-path="url(#pa667ea3346)" d="M 124.382848 299.76 
L 126.968025 299.76 
L 126.968025 279.765226 
L 124.382848 279.765226 
z
" style="opacity:0.2;"/>
   </g>
   <g id="patch_128">
    <path clip-path="url(#pa667ea3346)" d="M 127.614319 299.76 
L 130.199496 299.76 
L 130.199496 276.747658 
L 127.614319 276.747658 
z
" style="opacity:0.2;"/>
   </g>
   <g id="patch_129">
    <path clip-path="url(#pa667ea3346)" d="M 130.84579 299.76 
L 133.430968 299.76 
L 133.430968 276.029586 
L 130.84579 276.029586 
z
" style="opacity:0.2;"/>
   </g>
   <g id="patch_130">
    <path clip-path="url(#pa667ea3346)" d="M 134.077262 299.76 
L 136.662439 299.76 
L 136.662439 272.777727 
L 134.077262 272.777727 
z
" style="opacity:0.2;"/>
   </g>
   <g id="patch_131">
    <path clip-path="url(#pa667ea3346)" d="M 137.308733 299.76 
L 139.89391 299.76 
L 139.89391 267.513562 
L 137.308733 267.513562 
z
" style="opacity:0.2;"/>
   </g>
   <g id="patch_132">
    <path clip-path="url(#pa667ea3346)" d="M 140.540204 299.76 
L 143.125382 299.76 
L 143.125382 258.188335 
L 140.540204 258.188335 
z
" style="opacity:0.2;"/>
   </g>
   <g id="patch_133">
    <path clip-path="url(#pa667ea3346)" d="M 143.771676 299.76 
L 146.356853 299.76 
L 146.356853 252.542783 
L 143.771676 252.542783 
z
" style="opacity:0.2;"/>
   </g>
   <g id="patch_134">
    <path clip-path="url(#pa667ea3346)" d="M 147.003147 299.76 
L 149.588324 299.76 
L 149.588324 238.922205 
L 147.003147 238.922205 
z
" style="opacity:0.2;"/>
   </g>
   <g id="patch_135">
    <path clip-path="url(#pa667ea3346)" d="M 150.234618 299.76 
L 152.819796 299.76 
L 152.819796 224.779884 
L 150.234618 224.779884 
z
" style="opacity:0.2;"/>
   </g>
   <g id="patch_136">
    <path clip-path="url(#pa667ea3346)" d="M 153.46609 299.76 
L 156.051267 299.76 
L 156.051267 213.844689 
L 153.46609 213.844689 
z
" style="opacity:0.2;"/>
   </g>
   <g id="patch_137">
    <path clip-path="url(#pa667ea3346)" d="M 156.697561 299.76 
L 159.282738 299.76 
L 159.282738 206.134096 
L 156.697561 206.134096 
z
" style="opacity:0.2;"/>
   </g>
   <g id="patch_138">
    <path clip-path="url(#pa667ea3346)" d="M 159.929032 299.76 
L 162.51421 299.76 
L 162.51421 200.452666 
L 159.929032 200.452666 
z
" style="opacity:0.2;"/>
   </g>
   <g id="patch_139">
    <path clip-path="url(#pa667ea3346)" d="M 163.160504 299.76 
L 165.745681 299.76 
L 165.745681 211.747506 
L 163.160504 211.747506 
z
" style="opacity:0.2;"/>
   </g>
   <g id="patch_140">
    <path clip-path="url(#pa667ea3346)" d="M 166.391975 299.76 
L 168.977152 299.76 
L 168.977152 224.18014 
L 166.391975 224.18014 
z
" style="opacity:0.2;"/>
   </g>
   <g id="patch_141">
    <path clip-path="url(#pa667ea3346)" d="M 169.623447 299.76 
L 172.208624 299.76 
L 172.208624 257.969553 
L 169.623447 257.969553 
z
" style="opacity:0.2;"/>
   </g>
   <g id="patch_142">
    <path clip-path="url(#pa667ea3346)" d="M 172.854918 299.76 
L 175.440095 299.76 
L 175.440095 278.827381 
L 172.854918 278.827381 
z
" style="opacity:0.2;"/>
   </g>
   <g id="patch_143">
    <path clip-path="url(#pa667ea3346)" d="M 176.086389 299.76 
L 178.671566 299.76 
L 178.671566 290.723384 
L 176.086389 290.723384 
z
" style="opacity:0.2;"/>
   </g>
   <g id="patch_144">
    <path clip-path="url(#pa667ea3346)" d="M 179.317861 299.76 
L 181.903038 299.76 
L 181.903038 294.5509 
L 179.317861 294.5509 
z
" style="opacity:0.2;"/>
   </g>
   <g id="patch_145">
    <path clip-path="url(#pa667ea3346)" d="M 182.549332 299.76 
L 185.134509 299.76 
L 185.134509 296.823748 
L 182.549332 296.823748 
z
" style="opacity:0.2;"/>
   </g>
   <g id="patch_146">
    <path clip-path="url(#pa667ea3346)" d="M 185.780803 299.76 
L 188.36598 299.76 
L 188.36598 298.047157 
L 185.780803 298.047157 
z
" style="opacity:0.2;"/>
   </g>
   <g id="patch_147">
    <path clip-path="url(#pa667ea3346)" d="M 189.012275 299.76 
L 191.597452 299.76 
L 191.597452 297.554708 
L 189.012275 297.554708 
z
" style="opacity:0.2;"/>
   </g>
   <g id="patch_148">
    <path clip-path="url(#pa667ea3346)" d="M 192.243746 299.76 
L 194.828923 299.76 
L 194.828923 297.660855 
L 192.243746 297.660855 
z
" style="opacity:0.2;"/>
   </g>
   <g id="patch_149">
    <path clip-path="url(#pa667ea3346)" d="M 195.475217 299.76 
L 198.060394 299.76 
L 198.060394 297.737182 
L 195.475217 297.737182 
z
" style="opacity:0.2;"/>
   </g>
   <g id="patch_150">
    <path clip-path="url(#pa667ea3346)" d="M 198.706689 299.76 
L 201.291866 299.76 
L 201.291866 297.991595 
L 198.706689 297.991595 
z
" style="opacity:0.2;"/>
   </g>
   <g id="patch_151">
    <path clip-path="url(#pa667ea3346)" d="M 201.93816 299.76 
L 204.523337 299.76 
L 204.523337 298.129234 
L 201.93816 298.129234 
z
" style="opacity:0.2;"/>
   </g>
   <g id="patch_152">
    <path clip-path="url(#pa667ea3346)" d="M 205.169631 299.76 
L 207.754808 299.76 
L 207.754808 294.736076 
L 205.169631 294.736076 
z
" style="opacity:0.2;"/>
   </g>
   <g id="patch_153">
    <path clip-path="url(#pa667ea3346)" d="M 208.401103 299.76 
L 210.98628 299.76 
L 210.98628 292.549031 
L 208.401103 292.549031 
z
" style="opacity:0.2;"/>
   </g>
   <g id="patch_154">
    <path clip-path="url(#pa667ea3346)" d="M 211.632574 299.76 
L 214.217751 299.76 
L 214.217751 296.820288 
L 211.632574 296.820288 
z
" style="opacity:0.2;"/>
   </g>
   <g id="patch_155">
    <path clip-path="url(#pa667ea3346)" d="M 214.864045 299.76 
L 217.449222 299.76 
L 217.449222 299.438959 
L 214.864045 299.438959 
z
" style="opacity:0.2;"/>
   </g>
   <g id="patch_156">
    <path clip-path="url(#pa667ea3346)" d="M 218.095517 299.76 
L 220.680694 299.76 
L 220.680694 299.651084 
L 218.095517 299.651084 
z
" style="opacity:0.2;"/>
   </g>
   <g id="patch_157">
    <path clip-path="url(#pa667ea3346)" d="M 221.326988 299.76 
L 223.912165 299.76 
L 223.912165 299.658345 
L 221.326988 299.658345 
z
" style="opacity:0.2;"/>
   </g>
   <g id="patch_158">
    <path clip-path="url(#pa667ea3346)" d="M 224.558459 299.76 
L 227.143636 299.76 
L 227.143636 299.69929 
L 224.558459 299.69929 
z
" style="opacity:0.2;"/>
   </g>
   <g id="matplotlib.axis_5">
    <g id="xtick_10">
     <g id="line2d_19">
      <g>
       <use style="stroke:#000000;stroke-width:0.8;" x="65.893217" xlink:href="#m90c0f19afb" y="300.76"/>
      </g>
     </g>
     <g id="text_22">
      <!-- −4 -->
      <g transform="translate(58.522123 315.358437)scale(0.1 -0.1)">
       <use xlink:href="#DejaVuSans-8722"/>
       <use x="83.789062" xlink:href="#DejaVuSans-52"/>
      </g>
     </g>
    </g>
    <g id="xtick_11">
     <g id="line2d_20">
      <g>
       <use style="stroke:#000000;stroke-width:0.8;" x="119.67591" xlink:href="#m90c0f19afb" y="300.76"/>
      </g>
     </g>
     <g id="text_23">
      <!-- −2 -->
      <g transform="translate(112.304816 315.358437)scale(0.1 -0.1)">
       <use xlink:href="#DejaVuSans-8722"/>
       <use x="83.789062" xlink:href="#DejaVuSans-50"/>
      </g>
     </g>
    </g>
    <g id="xtick_12">
     <g id="line2d_21">
      <g>
       <use style="stroke:#000000;stroke-width:0.8;" x="173.458603" xlink:href="#m90c0f19afb" y="300.76"/>
      </g>
     </g>
     <g id="text_24">
      <!-- 0 -->
      <g transform="translate(170.277353 315.358437)scale(0.1 -0.1)">
       <use xlink:href="#DejaVuSans-48"/>
      </g>
     </g>
    </g>
    <g id="xtick_13">
     <g id="line2d_22">
      <g>
       <use style="stroke:#000000;stroke-width:0.8;" x="227.241297" xlink:href="#m90c0f19afb" y="300.76"/>
      </g>
     </g>
     <g id="text_25">
      <!-- 2 -->
      <g transform="translate(224.060047 315.358437)scale(0.1 -0.1)">
       <use xlink:href="#DejaVuSans-50"/>
      </g>
     </g>
    </g>
    <g id="text_26">
     <!-- $\log_{10}K_\mathrm{A}$ -->
     <defs>
      <path d="M 34.1875 63.1875 
L 20.796875 26.90625 
L 47.609375 26.90625 
z
M 28.609375 72.90625 
L 39.796875 72.90625 
L 67.578125 0 
L 57.328125 0 
L 50.6875 18.703125 
L 17.828125 18.703125 
L 11.1875 0 
L 0.78125 0 
z
" id="DejaVuSans-65"/>
     </defs>
     <g transform="translate(128.58 329.038125)scale(0.1 -0.1)">
      <use transform="translate(0 0.015625)" xlink:href="#DejaVuSans-108"/>
      <use transform="translate(27.783203 0.015625)" xlink:href="#DejaVuSans-111"/>
      <use transform="translate(88.964844 0.015625)" xlink:href="#DejaVuSans-103"/>
      <use transform="translate(153.398438 -16.390625)scale(0.7)" xlink:href="#DejaVuSans-49"/>
      <use transform="translate(197.93457 -16.390625)scale(0.7)" xlink:href="#DejaVuSans-48"/>
      <use transform="translate(245.205078 0.015625)" xlink:href="#DejaVuSans-Oblique-75"/>
      <use transform="translate(310.78125 -16.390625)scale(0.7)" xlink:href="#DejaVuSans-65"/>
     </g>
    </g>
   </g>
   <g id="matplotlib.axis_6">
    <g id="ytick_10">
     <g id="line2d_23">
      <g>
       <use style="stroke:#000000;stroke-width:0.8;" x="57.17" xlink:href="#md8bb5576ee" y="299.76"/>
      </g>
     </g>
     <g id="text_27">
      <!-- 0 -->
      <g transform="translate(43.8075 303.559219)scale(0.1 -0.1)">
       <use xlink:href="#DejaVuSans-48"/>
      </g>
     </g>
    </g>
    <g id="ytick_11">
     <g id="line2d_24">
      <g>
       <use style="stroke:#000000;stroke-width:0.8;" x="57.17" xlink:href="#md8bb5576ee" y="274.346339"/>
      </g>
     </g>
     <g id="text_28">
      <!-- 250 -->
      <g transform="translate(31.0825 278.145558)scale(0.1 -0.1)">
       <use xlink:href="#DejaVuSans-50"/>
       <use x="63.623047" xlink:href="#DejaVuSans-53"/>
       <use x="127.246094" xlink:href="#DejaVuSans-48"/>
      </g>
     </g>
    </g>
    <g id="ytick_12">
     <g id="line2d_25">
      <g>
       <use style="stroke:#000000;stroke-width:0.8;" x="57.17" xlink:href="#md8bb5576ee" y="248.932678"/>
      </g>
     </g>
     <g id="text_29">
      <!-- 500 -->
      <g transform="translate(31.0825 252.731897)scale(0.1 -0.1)">
       <use xlink:href="#DejaVuSans-53"/>
       <use x="63.623047" xlink:href="#DejaVuSans-48"/>
       <use x="127.246094" xlink:href="#DejaVuSans-48"/>
      </g>
     </g>
    </g>
    <g id="ytick_13">
     <g id="line2d_26">
      <g>
       <use style="stroke:#000000;stroke-width:0.8;" x="57.17" xlink:href="#md8bb5576ee" y="223.519017"/>
      </g>
     </g>
     <g id="text_30">
      <!-- 750 -->
      <defs>
       <path d="M 8.203125 72.90625 
L 55.078125 72.90625 
L 55.078125 68.703125 
L 28.609375 0 
L 18.3125 0 
L 43.21875 64.59375 
L 8.203125 64.59375 
z
" id="DejaVuSans-55"/>
      </defs>
      <g transform="translate(31.0825 227.318235)scale(0.1 -0.1)">
       <use xlink:href="#DejaVuSans-55"/>
       <use x="63.623047" xlink:href="#DejaVuSans-53"/>
       <use x="127.246094" xlink:href="#DejaVuSans-48"/>
      </g>
     </g>
    </g>
    <g id="ytick_14">
     <g id="line2d_27">
      <g>
       <use style="stroke:#000000;stroke-width:0.8;" x="57.17" xlink:href="#md8bb5576ee" y="198.105356"/>
      </g>
     </g>
     <g id="text_31">
      <!-- 1000 -->
      <g transform="translate(24.72 201.904574)scale(0.1 -0.1)">
       <use xlink:href="#DejaVuSans-49"/>
       <use x="63.623047" xlink:href="#DejaVuSans-48"/>
       <use x="127.246094" xlink:href="#DejaVuSans-48"/>
       <use x="190.869141" xlink:href="#DejaVuSans-48"/>
      </g>
     </g>
    </g>
    <g id="text_32">
     <!-- Duplications -->
     <g transform="translate(18.640313 278.590056)rotate(-90)scale(0.1 -0.1)">
      <use xlink:href="#DejaVuSans-68"/>
      <use x="77.001953" xlink:href="#DejaVuSans-117"/>
      <use x="140.380859" xlink:href="#DejaVuSans-112"/>
      <use x="203.857422" xlink:href="#DejaVuSans-108"/>
      <use x="231.640625" xlink:href="#DejaVuSans-105"/>
      <use x="259.423828" xlink:href="#DejaVuSans-99"/>
      <use x="314.404297" xlink:href="#DejaVuSans-97"/>
      <use x="375.683594" xlink:href="#DejaVuSans-116"/>
      <use x="414.892578" xlink:href="#DejaVuSans-105"/>
      <use x="442.675781" xlink:href="#DejaVuSans-111"/>
      <use x="503.857422" xlink:href="#DejaVuSans-110"/>
      <use x="567.236328" xlink:href="#DejaVuSans-115"/>
     </g>
    </g>
   </g>
   <g id="patch_159">
    <path d="M 57.17 299.76 
L 57.17 195.487299 
" style="fill:none;stroke:#000000;stroke-linecap:square;stroke-linejoin:miter;stroke-width:0.8;"/>
   </g>
   <g id="patch_160">
    <path d="M 58.17 300.76 
L 235.19 300.76 
" style="fill:none;stroke:#000000;stroke-linecap:square;stroke-linejoin:miter;stroke-width:0.8;"/>
   </g>
  </g>
  <g id="axes_4">
   <g id="patch_161">
    <path d="M 272.98 299.76 
L 450 299.76 
L 450 195.487299 
L 272.98 195.487299 
z
" style="fill:#ffffff;"/>
   </g>
   <g id="patch_162">
    <path clip-path="url(#p6223cb64c9)" d="M 281.026364 299.76 
L 283.611541 299.76 
L 283.611541 271.769292 
L 281.026364 271.769292 
z
" style="opacity:0.2;"/>
   </g>
   <g id="patch_163">
    <path clip-path="url(#p6223cb64c9)" d="M 284.257835 299.76 
L 286.843012 299.76 
L 286.843012 299.76 
L 284.257835 299.76 
z
" style="opacity:0.2;"/>
   </g>
   <g id="patch_164">
    <path clip-path="url(#p6223cb64c9)" d="M 287.489306 299.76 
L 290.074483 299.76 
L 290.074483 299.484777 
L 287.489306 299.484777 
z
" style="opacity:0.2;"/>
   </g>
   <g id="patch_165">
    <path clip-path="url(#p6223cb64c9)" d="M 290.720778 299.76 
L 293.305955 299.76 
L 293.305955 299.621012 
L 290.720778 299.621012 
z
" style="opacity:0.2;"/>
   </g>
   <g id="patch_166">
    <path clip-path="url(#p6223cb64c9)" d="M 293.952249 299.76 
L 296.537426 299.76 
L 296.537426 299.484777 
L 293.952249 299.484777 
z
" style="opacity:0.2;"/>
   </g>
   <g id="patch_167">
    <path clip-path="url(#p6223cb64c9)" d="M 297.18372 299.76 
L 299.768897 299.76 
L 299.768897 299.31215 
L 297.18372 299.31215 
z
" style="opacity:0.2;"/>
   </g>
   <g id="patch_168">
    <path clip-path="url(#p6223cb64c9)" d="M 300.415192 299.76 
L 303.000369 299.76 
L 303.000369 299.383505 
L 300.415192 299.383505 
z
" style="opacity:0.2;"/>
   </g>
   <g id="patch_169">
    <path clip-path="url(#p6223cb64c9)" d="M 303.646663 299.76 
L 306.23184 299.76 
L 306.23184 299.504977 
L 303.646663 299.504977 
z
" style="opacity:0.2;"/>
   </g>
   <g id="patch_170">
    <path clip-path="url(#p6223cb64c9)" d="M 306.878134 299.76 
L 309.463311 299.76 
L 309.463311 298.875725 
L 306.878134 298.875725 
z
" style="opacity:0.2;"/>
   </g>
   <g id="patch_171">
    <path clip-path="url(#p6223cb64c9)" d="M 310.109606 299.76 
L 312.694783 299.76 
L 312.694783 298.745824 
L 310.109606 298.745824 
z
" style="opacity:0.2;"/>
   </g>
   <g id="patch_172">
    <path clip-path="url(#p6223cb64c9)" d="M 313.341077 299.76 
L 315.926254 299.76 
L 315.926254 297.686652 
L 313.341077 297.686652 
z
" style="opacity:0.2;"/>
   </g>
   <g id="patch_173">
    <path clip-path="url(#p6223cb64c9)" d="M 316.572548 299.76 
L 319.157725 299.76 
L 319.157725 297.624537 
L 316.572548 297.624537 
z
" style="opacity:0.2;"/>
   </g>
   <g id="patch_174">
    <path clip-path="url(#p6223cb64c9)" d="M 319.80402 299.76 
L 322.389197 299.76 
L 322.389197 297.302731 
L 319.80402 297.302731 
z
" style="opacity:0.2;"/>
   </g>
   <g id="patch_175">
    <path clip-path="url(#p6223cb64c9)" d="M 323.035491 299.76 
L 325.620668 299.76 
L 325.620668 296.028153 
L 323.035491 296.028153 
z
" style="opacity:0.2;"/>
   </g>
   <g id="patch_176">
    <path clip-path="url(#p6223cb64c9)" d="M 326.266962 299.76 
L 328.852139 299.76 
L 328.852139 294.357121 
L 326.266962 294.357121 
z
" style="opacity:0.2;"/>
   </g>
   <g id="patch_177">
    <path clip-path="url(#p6223cb64c9)" d="M 329.498434 299.76 
L 332.083611 299.76 
L 332.083611 291.244354 
L 329.498434 291.244354 
z
" style="opacity:0.2;"/>
   </g>
   <g id="patch_178">
    <path clip-path="url(#p6223cb64c9)" d="M 332.729905 299.76 
L 335.315082 299.76 
L 335.315082 283.152081 
L 332.729905 283.152081 
z
" style="opacity:0.2;"/>
   </g>
   <g id="patch_179">
    <path clip-path="url(#p6223cb64c9)" d="M 335.961376 299.76 
L 338.546553 299.76 
L 338.546553 273.473661 
L 335.961376 273.473661 
z
" style="opacity:0.2;"/>
   </g>
   <g id="patch_180">
    <path clip-path="url(#p6223cb64c9)" d="M 339.192848 299.76 
L 341.778025 299.76 
L 341.778025 261.601108 
L 339.192848 261.601108 
z
" style="opacity:0.2;"/>
   </g>
   <g id="patch_181">
    <path clip-path="url(#p6223cb64c9)" d="M 342.424319 299.76 
L 345.009496 299.76 
L 345.009496 245.337492 
L 342.424319 245.337492 
z
" style="opacity:0.2;"/>
   </g>
   <g id="patch_182">
    <path clip-path="url(#p6223cb64c9)" d="M 345.65579 299.76 
L 348.240968 299.76 
L 348.240968 225.235025 
L 345.65579 225.235025 
z
" style="opacity:0.2;"/>
   </g>
   <g id="patch_183">
    <path clip-path="url(#p6223cb64c9)" d="M 348.887262 299.76 
L 351.472439 299.76 
L 351.472439 206.773456 
L 348.887262 206.773456 
z
" style="opacity:0.2;"/>
   </g>
   <g id="patch_184">
    <path clip-path="url(#p6223cb64c9)" d="M 352.118733 299.76 
L 354.70391 299.76 
L 354.70391 206.635875 
L 352.118733 206.635875 
z
" style="opacity:0.2;"/>
   </g>
   <g id="patch_185">
    <path clip-path="url(#p6223cb64c9)" d="M 355.350204 299.76 
L 357.935382 299.76 
L 357.935382 200.452666 
L 355.350204 200.452666 
z
" style="opacity:0.2;"/>
   </g>
   <g id="patch_186">
    <path clip-path="url(#p6223cb64c9)" d="M 358.581676 299.76 
L 361.166853 299.76 
L 361.166853 202.353937 
L 358.581676 202.353937 
z
" style="opacity:0.2;"/>
   </g>
   <g id="patch_187">
    <path clip-path="url(#p6223cb64c9)" d="M 361.813147 299.76 
L 364.398324 299.76 
L 364.398324 209.848032 
L 361.813147 209.848032 
z
" style="opacity:0.2;"/>
   </g>
   <g id="patch_188">
    <path clip-path="url(#p6223cb64c9)" d="M 365.044618 299.76 
L 367.629796 299.76 
L 367.629796 220.805412 
L 365.044618 220.805412 
z
" style="opacity:0.2;"/>
   </g>
   <g id="patch_189">
    <path clip-path="url(#p6223cb64c9)" d="M 368.27609 299.76 
L 370.861267 299.76 
L 370.861267 240.28142 
L 368.27609 240.28142 
z
" style="opacity:0.2;"/>
   </g>
   <g id="patch_190">
    <path clip-path="url(#p6223cb64c9)" d="M 371.507561 299.76 
L 374.092738 299.76 
L 374.092738 253.501767 
L 371.507561 253.501767 
z
" style="opacity:0.2;"/>
   </g>
   <g id="patch_191">
    <path clip-path="url(#p6223cb64c9)" d="M 374.739032 299.76 
L 377.32421 299.76 
L 377.32421 271.232642 
L 374.739032 271.232642 
z
" style="opacity:0.2;"/>
   </g>
   <g id="patch_192">
    <path clip-path="url(#p6223cb64c9)" d="M 377.970504 299.76 
L 380.555681 299.76 
L 380.555681 281.619311 
L 377.970504 281.619311 
z
" style="opacity:0.2;"/>
   </g>
   <g id="patch_193">
    <path clip-path="url(#p6223cb64c9)" d="M 381.201975 299.76 
L 383.787152 299.76 
L 383.787152 287.979483 
L 381.201975 287.979483 
z
" style="opacity:0.2;"/>
   </g>
   <g id="patch_194">
    <path clip-path="url(#p6223cb64c9)" d="M 384.433447 299.76 
L 387.018624 299.76 
L 387.018624 291.478551 
L 384.433447 291.478551 
z
" style="opacity:0.2;"/>
   </g>
   <g id="patch_195">
    <path clip-path="url(#p6223cb64c9)" d="M 387.664918 299.76 
L 390.250095 299.76 
L 390.250095 296.333781 
L 387.664918 296.333781 
z
" style="opacity:0.2;"/>
   </g>
   <g id="patch_196">
    <path clip-path="url(#p6223cb64c9)" d="M 390.896389 299.76 
L 393.481566 299.76 
L 393.481566 295.635701 
L 390.896389 295.635701 
z
" style="opacity:0.2;"/>
   </g>
   <g id="patch_197">
    <path clip-path="url(#p6223cb64c9)" d="M 394.127861 299.76 
L 396.713038 299.76 
L 396.713038 297.277369 
L 394.127861 297.277369 
z
" style="opacity:0.2;"/>
   </g>
   <g id="patch_198">
    <path clip-path="url(#p6223cb64c9)" d="M 397.359332 299.76 
L 399.944509 299.76 
L 399.944509 298.348724 
L 397.359332 298.348724 
z
" style="opacity:0.2;"/>
   </g>
   <g id="patch_199">
    <path clip-path="url(#p6223cb64c9)" d="M 400.590803 299.76 
L 403.17598 299.76 
L 403.17598 298.246589 
L 400.590803 298.246589 
z
" style="opacity:0.2;"/>
   </g>
   <g id="patch_200">
    <path clip-path="url(#p6223cb64c9)" d="M 403.822275 299.76 
L 406.407452 299.76 
L 406.407452 297.948079 
L 403.822275 297.948079 
z
" style="opacity:0.2;"/>
   </g>
   <g id="patch_201">
    <path clip-path="url(#p6223cb64c9)" d="M 407.053746 299.76 
L 409.638923 299.76 
L 409.638923 298.141319 
L 407.053746 298.141319 
z
" style="opacity:0.2;"/>
   </g>
   <g id="patch_202">
    <path clip-path="url(#p6223cb64c9)" d="M 410.285217 299.76 
L 412.870394 299.76 
L 412.870394 298.268409 
L 410.285217 298.268409 
z
" style="opacity:0.2;"/>
   </g>
   <g id="patch_203">
    <path clip-path="url(#p6223cb64c9)" d="M 413.516689 299.76 
L 416.101866 299.76 
L 416.101866 298.662777 
L 413.516689 298.662777 
z
" style="opacity:0.2;"/>
   </g>
   <g id="patch_204">
    <path clip-path="url(#p6223cb64c9)" d="M 416.74816 299.76 
L 419.333337 299.76 
L 419.333337 298.020628 
L 416.74816 298.020628 
z
" style="opacity:0.2;"/>
   </g>
   <g id="patch_205">
    <path clip-path="url(#p6223cb64c9)" d="M 419.979631 299.76 
L 422.564808 299.76 
L 422.564808 299.19889 
L 419.979631 299.19889 
z
" style="opacity:0.2;"/>
   </g>
   <g id="patch_206">
    <path clip-path="url(#p6223cb64c9)" d="M 423.211103 299.76 
L 425.79628 299.76 
L 425.79628 298.949596 
L 423.211103 298.949596 
z
" style="opacity:0.2;"/>
   </g>
   <g id="patch_207">
    <path clip-path="url(#p6223cb64c9)" d="M 426.442574 299.76 
L 429.027751 299.76 
L 429.027751 298.770641 
L 426.442574 298.770641 
z
" style="opacity:0.2;"/>
   </g>
   <g id="patch_208">
    <path clip-path="url(#p6223cb64c9)" d="M 429.674045 299.76 
L 432.259222 299.76 
L 432.259222 299.127195 
L 429.674045 299.127195 
z
" style="opacity:0.2;"/>
   </g>
   <g id="patch_209">
    <path clip-path="url(#p6223cb64c9)" d="M 432.905517 299.76 
L 435.490694 299.76 
L 435.490694 299.020038 
L 432.905517 299.020038 
z
" style="opacity:0.2;"/>
   </g>
   <g id="patch_210">
    <path clip-path="url(#p6223cb64c9)" d="M 436.136988 299.76 
L 438.722165 299.76 
L 438.722165 299.076826 
L 436.136988 299.076826 
z
" style="opacity:0.2;"/>
   </g>
   <g id="patch_211">
    <path clip-path="url(#p6223cb64c9)" d="M 439.368459 299.76 
L 441.953636 299.76 
L 441.953636 247.54175 
L 439.368459 247.54175 
z
" style="opacity:0.2;"/>
   </g>
   <g id="matplotlib.axis_7">
    <g id="xtick_14">
     <g id="line2d_28">
      <g>
       <use style="stroke:#000000;stroke-width:0.8;" x="313.046164" xlink:href="#m90c0f19afb" y="300.76"/>
      </g>
     </g>
     <g id="text_33">
      <!-- −2 -->
      <g transform="translate(305.67507 315.358437)scale(0.1 -0.1)">
       <use xlink:href="#DejaVuSans-8722"/>
       <use x="83.789062" xlink:href="#DejaVuSans-50"/>
      </g>
     </g>
    </g>
    <g id="xtick_15">
     <g id="line2d_29">
      <g>
       <use style="stroke:#000000;stroke-width:0.8;" x="377.732059" xlink:href="#m90c0f19afb" y="300.76"/>
      </g>
     </g>
     <g id="text_34">
      <!-- 0 -->
      <g transform="translate(374.550809 315.358437)scale(0.1 -0.1)">
       <use xlink:href="#DejaVuSans-48"/>
      </g>
     </g>
    </g>
    <g id="xtick_16">
     <g id="line2d_30">
      <g>
       <use style="stroke:#000000;stroke-width:0.8;" x="442.417954" xlink:href="#m90c0f19afb" y="300.76"/>
      </g>
     </g>
     <g id="text_35">
      <!-- 2 -->
      <g transform="translate(439.236704 315.358437)scale(0.1 -0.1)">
       <use xlink:href="#DejaVuSans-50"/>
      </g>
     </g>
    </g>
    <g id="text_36">
     <!-- $\log_{10}\omega$ -->
     <defs>
      <path d="M 21.390625 -1.421875 
Q 1.125 -1.421875 6.78125 27.59375 
Q 8.984375 39.0625 19.625 54.6875 
L 29.296875 54.6875 
Q 19.234375 39.0625 17 27.34375 
Q 12.796875 6.203125 23.734375 6.203125 
Q 33.84375 6.203125 38.71875 32.46875 
L 47.015625 32.46875 
Q 41.703125 6.0625 51.8125 6.203125 
Q 62.703125 6.296875 66.796875 27.34375 
Q 69.046875 39.0625 65.140625 54.6875 
L 74.8125 54.6875 
Q 79.296875 39.0625 77.09375 27.59375 
Q 71.53125 -1.46875 51.21875 -1.421875 
Q 37.9375 -1.375 39.109375 13.1875 
Q 34.28125 -1.421875 21.390625 -1.421875 
z
" id="DejaVuSans-Oblique-969"/>
     </defs>
     <g transform="translate(345.04 329.038125)scale(0.1 -0.1)">
      <use transform="translate(0 0.015625)" xlink:href="#DejaVuSans-108"/>
      <use transform="translate(27.783203 0.015625)" xlink:href="#DejaVuSans-111"/>
      <use transform="translate(88.964844 0.015625)" xlink:href="#DejaVuSans-103"/>
      <use transform="translate(153.398438 -16.390625)scale(0.7)" xlink:href="#DejaVuSans-49"/>
      <use transform="translate(197.93457 -16.390625)scale(0.7)" xlink:href="#DejaVuSans-48"/>
      <use transform="translate(245.205078 0.015625)" xlink:href="#DejaVuSans-Oblique-969"/>
     </g>
    </g>
   </g>
   <g id="matplotlib.axis_8">
    <g id="ytick_15">
     <g id="line2d_31">
      <g>
       <use style="stroke:#000000;stroke-width:0.8;" x="271.98" xlink:href="#md8bb5576ee" y="299.76"/>
      </g>
     </g>
     <g id="text_37">
      <!-- 0 -->
      <g transform="translate(258.6175 303.559219)scale(0.1 -0.1)">
       <use xlink:href="#DejaVuSans-48"/>
      </g>
     </g>
    </g>
    <g id="ytick_16">
     <g id="line2d_32">
      <g>
       <use style="stroke:#000000;stroke-width:0.8;" x="271.98" xlink:href="#md8bb5576ee" y="277.742129"/>
      </g>
     </g>
     <g id="text_38">
      <!-- 200 -->
      <g transform="translate(245.8925 281.541348)scale(0.1 -0.1)">
       <use xlink:href="#DejaVuSans-50"/>
       <use x="63.623047" xlink:href="#DejaVuSans-48"/>
       <use x="127.246094" xlink:href="#DejaVuSans-48"/>
      </g>
     </g>
    </g>
    <g id="ytick_17">
     <g id="line2d_33">
      <g>
       <use style="stroke:#000000;stroke-width:0.8;" x="271.98" xlink:href="#md8bb5576ee" y="255.724258"/>
      </g>
     </g>
     <g id="text_39">
      <!-- 400 -->
      <g transform="translate(245.8925 259.523477)scale(0.1 -0.1)">
       <use xlink:href="#DejaVuSans-52"/>
       <use x="63.623047" xlink:href="#DejaVuSans-48"/>
       <use x="127.246094" xlink:href="#DejaVuSans-48"/>
      </g>
     </g>
    </g>
    <g id="ytick_18">
     <g id="line2d_34">
      <g>
       <use style="stroke:#000000;stroke-width:0.8;" x="271.98" xlink:href="#md8bb5576ee" y="233.706387"/>
      </g>
     </g>
     <g id="text_40">
      <!-- 600 -->
      <g transform="translate(245.8925 237.505606)scale(0.1 -0.1)">
       <use xlink:href="#DejaVuSans-54"/>
       <use x="63.623047" xlink:href="#DejaVuSans-48"/>
       <use x="127.246094" xlink:href="#DejaVuSans-48"/>
      </g>
     </g>
    </g>
    <g id="ytick_19">
     <g id="line2d_35">
      <g>
       <use style="stroke:#000000;stroke-width:0.8;" x="271.98" xlink:href="#md8bb5576ee" y="211.688516"/>
      </g>
     </g>
     <g id="text_41">
      <!-- 800 -->
      <g transform="translate(245.8925 215.487735)scale(0.1 -0.1)">
       <use xlink:href="#DejaVuSans-56"/>
       <use x="63.623047" xlink:href="#DejaVuSans-48"/>
       <use x="127.246094" xlink:href="#DejaVuSans-48"/>
      </g>
     </g>
    </g>
   </g>
   <g id="patch_212">
    <path d="M 271.98 299.76 
L 271.98 195.487299 
" style="fill:none;stroke:#000000;stroke-linecap:square;stroke-linejoin:miter;stroke-width:0.8;"/>
   </g>
   <g id="patch_213">
    <path d="M 272.98 300.76 
L 450 300.76 
" style="fill:none;stroke:#000000;stroke-linecap:square;stroke-linejoin:miter;stroke-width:0.8;"/>
   </g>
  </g>
  <g id="text_42">
   <!-- Aquilegia_coerulea.tsv -->
   <defs>
    <path d="M 14.796875 27.296875 
Q 14.796875 17.390625 18.875 11.75 
Q 22.953125 6.109375 30.078125 6.109375 
Q 37.203125 6.109375 41.296875 11.75 
Q 45.40625 17.390625 45.40625 27.296875 
Q 45.40625 37.203125 41.296875 42.84375 
Q 37.203125 48.484375 30.078125 48.484375 
Q 22.953125 48.484375 18.875 42.84375 
Q 14.796875 37.203125 14.796875 27.296875 
z
M 45.40625 8.203125 
Q 42.578125 3.328125 38.25 0.953125 
Q 33.9375 -1.421875 27.875 -1.421875 
Q 17.96875 -1.421875 11.734375 6.484375 
Q 5.515625 14.40625 5.515625 27.296875 
Q 5.515625 40.1875 11.734375 48.09375 
Q 17.96875 56 27.875 56 
Q 33.9375 56 38.25 53.625 
Q 42.578125 51.265625 45.40625 46.390625 
L 45.40625 54.6875 
L 54.390625 54.6875 
L 54.390625 -20.796875 
L 45.40625 -20.796875 
z
" id="DejaVuSans-113"/>
    <path d="M 56.203125 29.59375 
L 56.203125 25.203125 
L 14.890625 25.203125 
Q 15.484375 15.921875 20.484375 11.0625 
Q 25.484375 6.203125 34.421875 6.203125 
Q 39.59375 6.203125 44.453125 7.46875 
Q 49.3125 8.734375 54.109375 11.28125 
L 54.109375 2.78125 
Q 49.265625 0.734375 44.1875 -0.34375 
Q 39.109375 -1.421875 33.890625 -1.421875 
Q 20.796875 -1.421875 13.15625 6.1875 
Q 5.515625 13.8125 5.515625 26.8125 
Q 5.515625 40.234375 12.765625 48.109375 
Q 20.015625 56 32.328125 56 
Q 43.359375 56 49.78125 48.890625 
Q 56.203125 41.796875 56.203125 29.59375 
z
M 47.21875 32.234375 
Q 47.125 39.59375 43.09375 43.984375 
Q 39.0625 48.390625 32.421875 48.390625 
Q 24.90625 48.390625 20.390625 44.140625 
Q 15.875 39.890625 15.1875 32.171875 
z
" id="DejaVuSans-101"/>
    <path d="M 50.984375 -16.609375 
L 50.984375 -23.578125 
L -0.984375 -23.578125 
L -0.984375 -16.609375 
z
" id="DejaVuSans-95"/>
    <path d="M 41.109375 46.296875 
Q 39.59375 47.171875 37.8125 47.578125 
Q 36.03125 48 33.890625 48 
Q 26.265625 48 22.1875 43.046875 
Q 18.109375 38.09375 18.109375 28.8125 
L 18.109375 0 
L 9.078125 0 
L 9.078125 54.6875 
L 18.109375 54.6875 
L 18.109375 46.1875 
Q 20.953125 51.171875 25.484375 53.578125 
Q 30.03125 56 36.53125 56 
Q 37.453125 56 38.578125 55.875 
Q 39.703125 55.765625 41.0625 55.515625 
z
" id="DejaVuSans-114"/>
    <path d="M 10.6875 12.40625 
L 21 12.40625 
L 21 0 
L 10.6875 0 
z
" id="DejaVuSans-46"/>
    <path d="M 2.984375 54.6875 
L 12.5 54.6875 
L 29.59375 8.796875 
L 46.6875 54.6875 
L 56.203125 54.6875 
L 35.6875 0 
L 23.484375 0 
z
" id="DejaVuSans-118"/>
   </defs>
   <g transform="translate(57.6 43.678125)scale(0.12 -0.12)">
    <use xlink:href="#DejaVuSans-65"/>
    <use x="66.658203" xlink:href="#DejaVuSans-113"/>
    <use x="130.134766" xlink:href="#DejaVuSans-117"/>
    <use x="193.513672" xlink:href="#DejaVuSans-105"/>
    <use x="221.296875" xlink:href="#DejaVuSans-108"/>
    <use x="249.080078" xlink:href="#DejaVuSans-101"/>
    <use x="310.603516" xlink:href="#DejaVuSans-103"/>
    <use x="374.080078" xlink:href="#DejaVuSans-105"/>
    <use x="401.863281" xlink:href="#DejaVuSans-97"/>
    <use x="463.142578" xlink:href="#DejaVuSans-95"/>
    <use x="513.142578" xlink:href="#DejaVuSans-99"/>
    <use x="568.123047" xlink:href="#DejaVuSans-111"/>
    <use x="629.304688" xlink:href="#DejaVuSans-101"/>
    <use x="690.828125" xlink:href="#DejaVuSans-114"/>
    <use x="731.941406" xlink:href="#DejaVuSans-117"/>
    <use x="795.320312" xlink:href="#DejaVuSans-108"/>
    <use x="823.103516" xlink:href="#DejaVuSans-101"/>
    <use x="884.626953" xlink:href="#DejaVuSans-97"/>
    <use x="945.90625" xlink:href="#DejaVuSans-46"/>
    <use x="977.693359" xlink:href="#DejaVuSans-116"/>
    <use x="1016.902344" xlink:href="#DejaVuSans-115"/>
    <use x="1069.001953" xlink:href="#DejaVuSans-118"/>
   </g>
  </g>
 </g>
 <defs>
  <clipPath id="pa5b7e022f3">
   <rect height="104.272701" width="177.02" x="58.17" y="51.84"/>
  </clipPath>
  <clipPath id="p035b8b9451">
   <rect height="104.272701" width="177.02" x="272.98" y="51.84"/>
  </clipPath>
  <clipPath id="pa667ea3346">
   <rect height="104.272701" width="177.02" x="58.17" y="195.487299"/>
  </clipPath>
  <clipPath id="p6223cb64c9">
   <rect height="104.272701" width="177.02" x="272.98" y="195.487299"/>
  </clipPath>
 </defs>
</svg>
