<?xml version="1.0" encoding="utf-8" standalone="no"?>
<!DOCTYPE svg PUBLIC "-//W3C//DTD SVG 1.1//EN"
  "http://www.w3.org/Graphics/SVG/1.1/DTD/svg11.dtd">
<!-- Created with matplotlib (https://matplotlib.org/) -->
<svg height="504pt" version="1.1" viewBox="0 0 720 504" width="720pt" xmlns="http://www.w3.org/2000/svg" xmlns:xlink="http://www.w3.org/1999/xlink">
 <defs>
  <style type="text/css">
*{stroke-linecap:butt;stroke-linejoin:round;}
  </style>
 </defs>
 <g id="figure_1">
  <g id="patch_1">
   <path d="M 0 504 
L 720 504 
L 720 0 
L 0 0 
z
" style="fill:#ffffff;"/>
  </g>
  <g id="axes_1">
   <g id="patch_2">
    <path d="M 55.56 446.784 
L 706.005 446.784 
L 706.005 10.8 
L 55.56 10.8 
z
" style="fill:#ffffff;"/>
   </g>
   <g id="patch_3">
    <path clip-path="url(#pee894e63ce)" d="M 56.86089 446.784 
L 67.26801 446.784 
L 67.26801 97.9968 
L 56.86089 97.9968 
z
" style="fill:#808080;"/>
   </g>
   <g id="patch_4">
    <path clip-path="url(#pee894e63ce)" d="M 69.86979 446.784 
L 80.27691 446.784 
L 80.27691 303.920393 
L 69.86979 303.920393 
z
" style="fill:#808080;"/>
   </g>
   <g id="patch_5">
    <path clip-path="url(#pee894e63ce)" d="M 82.87869 446.784 
L 93.28581 446.784 
L 93.28581 336.738242 
L 82.87869 336.738242 
z
" style="fill:#808080;"/>
   </g>
   <g id="patch_6">
    <path clip-path="url(#pee894e63ce)" d="M 95.88759 446.784 
L 106.29471 446.784 
L 106.29471 358.620674 
L 95.88759 358.620674 
z
" style="fill:#808080;"/>
   </g>
   <g id="patch_7">
    <path clip-path="url(#pee894e63ce)" d="M 108.89649 446.784 
L 119.30361 446.784 
L 119.30361 377.312354 
L 108.89649 377.312354 
z
" style="fill:#808080;"/>
   </g>
   <g id="patch_8">
    <path clip-path="url(#pee894e63ce)" d="M 121.90539 446.784 
L 132.31251 446.784 
L 132.31251 381.049739 
L 121.90539 381.049739 
z
" style="fill:#808080;"/>
   </g>
   <g id="patch_9">
    <path clip-path="url(#pee894e63ce)" d="M 134.91429 446.784 
L 145.32141 446.784 
L 145.32141 376.490122 
L 134.91429 376.490122 
z
" style="fill:#808080;"/>
   </g>
   <g id="patch_10">
    <path clip-path="url(#pee894e63ce)" d="M 147.92319 446.784 
L 158.33031 446.784 
L 158.33031 393.130914 
L 147.92319 393.130914 
z
" style="fill:#808080;"/>
   </g>
   <g id="patch_11">
    <path clip-path="url(#pee894e63ce)" d="M 160.93209 446.784 
L 171.33921 446.784 
L 171.33921 395.372484 
L 160.93209 395.372484 
z
" style="fill:#808080;"/>
   </g>
   <g id="patch_12">
    <path clip-path="url(#pee894e63ce)" d="M 173.94099 446.784 
L 184.34811 446.784 
L 184.34811 394.610327 
L 173.94099 394.610327 
z
" style="fill:#808080;"/>
   </g>
   <g id="patch_13">
    <path clip-path="url(#pee894e63ce)" d="M 186.94989 446.784 
L 197.35701 446.784 
L 197.35701 392.936591 
L 186.94989 392.936591 
z
" style="fill:#808080;"/>
   </g>
   <g id="patch_14">
    <path clip-path="url(#pee894e63ce)" d="M 199.95879 446.784 
L 210.36591 446.784 
L 210.36591 394.004807 
L 199.95879 394.004807 
z
" style="fill:#808080;"/>
   </g>
   <g id="patch_15">
    <path clip-path="url(#pee894e63ce)" d="M 212.96769 446.784 
L 223.37481 446.784 
L 223.37481 392.291817 
L 212.96769 392.291817 
z
" style="fill:#808080;"/>
   </g>
   <g id="patch_16">
    <path clip-path="url(#pee894e63ce)" d="M 225.97659 446.784 
L 236.38371 446.784 
L 236.38371 396.131804 
L 225.97659 396.131804 
z
" style="fill:#808080;"/>
   </g>
   <g id="patch_17">
    <path clip-path="url(#pee894e63ce)" d="M 238.98549 446.784 
L 249.39261 446.784 
L 249.39261 401.724999 
L 238.98549 401.724999 
z
" style="fill:#808080;"/>
   </g>
   <g id="patch_18">
    <path clip-path="url(#pee894e63ce)" d="M 251.99439 446.784 
L 262.40151 446.784 
L 262.40151 408.804799 
L 251.99439 408.804799 
z
" style="fill:#808080;"/>
   </g>
   <g id="patch_19">
    <path clip-path="url(#pee894e63ce)" d="M 265.00329 446.784 
L 275.41041 446.784 
L 275.41041 406.68806 
L 265.00329 406.68806 
z
" style="fill:#808080;"/>
   </g>
   <g id="patch_20">
    <path clip-path="url(#pee894e63ce)" d="M 278.01219 446.784 
L 288.41931 446.784 
L 288.41931 409.32657 
L 278.01219 409.32657 
z
" style="fill:#808080;"/>
   </g>
   <g id="patch_21">
    <path clip-path="url(#pee894e63ce)" d="M 291.02109 446.784 
L 301.42821 446.784 
L 301.42821 415.301164 
L 291.02109 415.301164 
z
" style="fill:#808080;"/>
   </g>
   <g id="patch_22">
    <path clip-path="url(#pee894e63ce)" d="M 304.02999 446.784 
L 314.43711 446.784 
L 314.43711 419.68115 
L 304.02999 419.68115 
z
" style="fill:#808080;"/>
   </g>
   <g id="patch_23">
    <path clip-path="url(#pee894e63ce)" d="M 317.03889 446.784 
L 327.44601 446.784 
L 327.44601 418.574717 
L 317.03889 418.574717 
z
" style="fill:#808080;"/>
   </g>
   <g id="patch_24">
    <path clip-path="url(#pee894e63ce)" d="M 330.04779 446.784 
L 340.45491 446.784 
L 340.45491 414.624863 
L 330.04779 414.624863 
z
" style="fill:#808080;"/>
   </g>
   <g id="patch_25">
    <path clip-path="url(#pee894e63ce)" d="M 343.05669 446.784 
L 353.46381 446.784 
L 353.46381 418.944396 
L 343.05669 418.944396 
z
" style="fill:#808080;"/>
   </g>
   <g id="patch_26">
    <path clip-path="url(#pee894e63ce)" d="M 356.06559 446.784 
L 366.47271 446.784 
L 366.47271 419.412867 
L 356.06559 419.412867 
z
" style="fill:#808080;"/>
   </g>
   <g id="patch_27">
    <path clip-path="url(#pee894e63ce)" d="M 369.07449 446.784 
L 379.48161 446.784 
L 379.48161 419.746768 
L 369.07449 419.746768 
z
" style="fill:#808080;"/>
   </g>
   <g id="patch_28">
    <path clip-path="url(#pee894e63ce)" d="M 382.08339 446.784 
L 392.49051 446.784 
L 392.49051 419.918488 
L 382.08339 419.918488 
z
" style="fill:#808080;"/>
   </g>
   <g id="patch_29">
    <path clip-path="url(#pee894e63ce)" d="M 395.09229 446.784 
L 405.49941 446.784 
L 405.49941 417.552925 
L 395.09229 417.552925 
z
" style="fill:#808080;"/>
   </g>
   <g id="patch_30">
    <path clip-path="url(#pee894e63ce)" d="M 408.10119 446.784 
L 418.50831 446.784 
L 418.50831 422.009866 
L 408.10119 422.009866 
z
" style="fill:#808080;"/>
   </g>
   <g id="patch_31">
    <path clip-path="url(#pee894e63ce)" d="M 421.11009 446.784 
L 431.51721 446.784 
L 431.51721 425.320436 
L 421.11009 425.320436 
z
" style="fill:#808080;"/>
   </g>
   <g id="patch_32">
    <path clip-path="url(#pee894e63ce)" d="M 434.11899 446.784 
L 444.52611 446.784 
L 444.52611 424.179099 
L 434.11899 424.179099 
z
" style="fill:#808080;"/>
   </g>
   <g id="patch_33">
    <path clip-path="url(#pee894e63ce)" d="M 447.12789 446.784 
L 457.53501 446.784 
L 457.53501 421.616902 
L 447.12789 421.616902 
z
" style="fill:#808080;"/>
   </g>
   <g id="patch_34">
    <path clip-path="url(#pee894e63ce)" d="M 460.13679 446.784 
L 470.54391 446.784 
L 470.54391 424.981022 
L 460.13679 424.981022 
z
" style="fill:#808080;"/>
   </g>
   <g id="patch_35">
    <path clip-path="url(#pee894e63ce)" d="M 473.14569 446.784 
L 483.55281 446.784 
L 483.55281 428.28817 
L 473.14569 428.28817 
z
" style="fill:#808080;"/>
   </g>
   <g id="patch_36">
    <path clip-path="url(#pee894e63ce)" d="M 486.15459 446.784 
L 496.56171 446.784 
L 496.56171 425.259285 
L 486.15459 425.259285 
z
" style="fill:#808080;"/>
   </g>
   <g id="patch_37">
    <path clip-path="url(#pee894e63ce)" d="M 499.16349 446.784 
L 509.57061 446.784 
L 509.57061 425.166023 
L 499.16349 425.166023 
z
" style="fill:#808080;"/>
   </g>
   <g id="patch_38">
    <path clip-path="url(#pee894e63ce)" d="M 512.17239 446.784 
L 522.57951 446.784 
L 522.57951 425.800599 
L 512.17239 425.800599 
z
" style="fill:#808080;"/>
   </g>
   <g id="patch_39">
    <path clip-path="url(#pee894e63ce)" d="M 525.18129 446.784 
L 535.58841 446.784 
L 535.58841 425.59077 
L 525.18129 425.59077 
z
" style="fill:#808080;"/>
   </g>
   <g id="patch_40">
    <path clip-path="url(#pee894e63ce)" d="M 538.19019 446.784 
L 548.59731 446.784 
L 548.59731 426.478738 
L 538.19019 426.478738 
z
" style="fill:#808080;"/>
   </g>
   <g id="patch_41">
    <path clip-path="url(#pee894e63ce)" d="M 551.19909 446.784 
L 561.60621 446.784 
L 561.60621 428.821605 
L 551.19909 428.821605 
z
" style="fill:#808080;"/>
   </g>
   <g id="patch_42">
    <path clip-path="url(#pee894e63ce)" d="M 564.20799 446.784 
L 574.61511 446.784 
L 574.61511 430.121755 
L 564.20799 430.121755 
z
" style="fill:#808080;"/>
   </g>
   <g id="patch_43">
    <path clip-path="url(#pee894e63ce)" d="M 577.21689 446.784 
L 587.62401 446.784 
L 587.62401 428.358073 
L 577.21689 428.358073 
z
" style="fill:#808080;"/>
   </g>
   <g id="patch_44">
    <path clip-path="url(#pee894e63ce)" d="M 590.22579 446.784 
L 600.63291 446.784 
L 600.63291 429.073989 
L 590.22579 429.073989 
z
" style="fill:#808080;"/>
   </g>
   <g id="patch_45">
    <path clip-path="url(#pee894e63ce)" d="M 603.23469 446.784 
L 613.64181 446.784 
L 613.64181 429.858013 
L 603.23469 429.858013 
z
" style="fill:#808080;"/>
   </g>
   <g id="patch_46">
    <path clip-path="url(#pee894e63ce)" d="M 616.24359 446.784 
L 626.65071 446.784 
L 626.65071 426.576408 
L 616.24359 426.576408 
z
" style="fill:#808080;"/>
   </g>
   <g id="patch_47">
    <path clip-path="url(#pee894e63ce)" d="M 629.25249 446.784 
L 639.65961 446.784 
L 639.65961 427.800385 
L 629.25249 427.800385 
z
" style="fill:#808080;"/>
   </g>
   <g id="patch_48">
    <path clip-path="url(#pee894e63ce)" d="M 642.26139 446.784 
L 652.66851 446.784 
L 652.66851 428.23108 
L 642.26139 428.23108 
z
" style="fill:#808080;"/>
   </g>
   <g id="patch_49">
    <path clip-path="url(#pee894e63ce)" d="M 655.27029 446.784 
L 665.67741 446.784 
L 665.67741 431.187367 
L 655.27029 431.187367 
z
" style="fill:#808080;"/>
   </g>
   <g id="patch_50">
    <path clip-path="url(#pee894e63ce)" d="M 668.27919 446.784 
L 678.68631 446.784 
L 678.68631 427.884812 
L 668.27919 427.884812 
z
" style="fill:#808080;"/>
   </g>
   <g id="patch_51">
    <path clip-path="url(#pee894e63ce)" d="M 681.28809 446.784 
L 691.69521 446.784 
L 691.69521 430.656714 
L 681.28809 430.656714 
z
" style="fill:#808080;"/>
   </g>
   <g id="patch_52">
    <path clip-path="url(#pee894e63ce)" d="M 694.29699 446.784 
L 704.70411 446.784 
L 704.70411 431.025444 
L 694.29699 431.025444 
z
" style="fill:#808080;"/>
   </g>
   <g id="matplotlib.axis_1">
    <g id="xtick_1">
     <g id="line2d_1">
      <defs>
       <path d="M 0 0 
L 0 3.5 
" id="m7ca37f0a63" style="stroke:#000000;stroke-width:0.8;"/>
      </defs>
      <g>
       <use style="stroke:#000000;stroke-width:0.8;" x="55.56" xlink:href="#m7ca37f0a63" y="456.784"/>
      </g>
     </g>
     <g id="text_1">
      <!-- 0 -->
      <defs>
       <path d="M 31.78125 66.40625 
Q 24.171875 66.40625 20.328125 58.90625 
Q 16.5 51.421875 16.5 36.375 
Q 16.5 21.390625 20.328125 13.890625 
Q 24.171875 6.390625 31.78125 6.390625 
Q 39.453125 6.390625 43.28125 13.890625 
Q 47.125 21.390625 47.125 36.375 
Q 47.125 51.421875 43.28125 58.90625 
Q 39.453125 66.40625 31.78125 66.40625 
z
M 31.78125 74.21875 
Q 44.046875 74.21875 50.515625 64.515625 
Q 56.984375 54.828125 56.984375 36.375 
Q 56.984375 17.96875 50.515625 8.265625 
Q 44.046875 -1.421875 31.78125 -1.421875 
Q 19.53125 -1.421875 13.0625 8.265625 
Q 6.59375 17.96875 6.59375 36.375 
Q 6.59375 54.828125 13.0625 64.515625 
Q 19.53125 74.21875 31.78125 74.21875 
z
" id="DejaVuSans-48"/>
      </defs>
      <g transform="translate(52.37875 471.382437)scale(0.1 -0.1)">
       <use xlink:href="#DejaVuSans-48"/>
      </g>
     </g>
    </g>
    <g id="xtick_2">
     <g id="line2d_2">
      <g>
       <use style="stroke:#000000;stroke-width:0.8;" x="185.649" xlink:href="#m7ca37f0a63" y="456.784"/>
      </g>
     </g>
     <g id="text_2">
      <!-- 1 -->
      <defs>
       <path d="M 12.40625 8.296875 
L 28.515625 8.296875 
L 28.515625 63.921875 
L 10.984375 60.40625 
L 10.984375 69.390625 
L 28.421875 72.90625 
L 38.28125 72.90625 
L 38.28125 8.296875 
L 54.390625 8.296875 
L 54.390625 0 
L 12.40625 0 
z
" id="DejaVuSans-49"/>
      </defs>
      <g transform="translate(182.46775 471.382437)scale(0.1 -0.1)">
       <use xlink:href="#DejaVuSans-49"/>
      </g>
     </g>
    </g>
    <g id="xtick_3">
     <g id="line2d_3">
      <g>
       <use style="stroke:#000000;stroke-width:0.8;" x="315.738" xlink:href="#m7ca37f0a63" y="456.784"/>
      </g>
     </g>
     <g id="text_3">
      <!-- 2 -->
      <defs>
       <path d="M 19.1875 8.296875 
L 53.609375 8.296875 
L 53.609375 0 
L 7.328125 0 
L 7.328125 8.296875 
Q 12.9375 14.109375 22.625 23.890625 
Q 32.328125 33.6875 34.8125 36.53125 
Q 39.546875 41.84375 41.421875 45.53125 
Q 43.3125 49.21875 43.3125 52.78125 
Q 43.3125 58.59375 39.234375 62.25 
Q 35.15625 65.921875 28.609375 65.921875 
Q 23.96875 65.921875 18.8125 64.3125 
Q 13.671875 62.703125 7.8125 59.421875 
L 7.8125 69.390625 
Q 13.765625 71.78125 18.9375 73 
Q 24.125 74.21875 28.421875 74.21875 
Q 39.75 74.21875 46.484375 68.546875 
Q 53.21875 62.890625 53.21875 53.421875 
Q 53.21875 48.921875 51.53125 44.890625 
Q 49.859375 40.875 45.40625 35.40625 
Q 44.1875 33.984375 37.640625 27.21875 
Q 31.109375 20.453125 19.1875 8.296875 
z
" id="DejaVuSans-50"/>
      </defs>
      <g transform="translate(312.55675 471.382437)scale(0.1 -0.1)">
       <use xlink:href="#DejaVuSans-50"/>
      </g>
     </g>
    </g>
    <g id="xtick_4">
     <g id="line2d_4">
      <g>
       <use style="stroke:#000000;stroke-width:0.8;" x="445.827" xlink:href="#m7ca37f0a63" y="456.784"/>
      </g>
     </g>
     <g id="text_4">
      <!-- 3 -->
      <defs>
       <path d="M 40.578125 39.3125 
Q 47.65625 37.796875 51.625 33 
Q 55.609375 28.21875 55.609375 21.1875 
Q 55.609375 10.40625 48.1875 4.484375 
Q 40.765625 -1.421875 27.09375 -1.421875 
Q 22.515625 -1.421875 17.65625 -0.515625 
Q 12.796875 0.390625 7.625 2.203125 
L 7.625 11.71875 
Q 11.71875 9.328125 16.59375 8.109375 
Q 21.484375 6.890625 26.8125 6.890625 
Q 36.078125 6.890625 40.9375 10.546875 
Q 45.796875 14.203125 45.796875 21.1875 
Q 45.796875 27.640625 41.28125 31.265625 
Q 36.765625 34.90625 28.71875 34.90625 
L 20.21875 34.90625 
L 20.21875 43.015625 
L 29.109375 43.015625 
Q 36.375 43.015625 40.234375 45.921875 
Q 44.09375 48.828125 44.09375 54.296875 
Q 44.09375 59.90625 40.109375 62.90625 
Q 36.140625 65.921875 28.71875 65.921875 
Q 24.65625 65.921875 20.015625 65.03125 
Q 15.375 64.15625 9.8125 62.3125 
L 9.8125 71.09375 
Q 15.4375 72.65625 20.34375 73.4375 
Q 25.25 74.21875 29.59375 74.21875 
Q 40.828125 74.21875 47.359375 69.109375 
Q 53.90625 64.015625 53.90625 55.328125 
Q 53.90625 49.265625 50.4375 45.09375 
Q 46.96875 40.921875 40.578125 39.3125 
z
" id="DejaVuSans-51"/>
      </defs>
      <g transform="translate(442.64575 471.382437)scale(0.1 -0.1)">
       <use xlink:href="#DejaVuSans-51"/>
      </g>
     </g>
    </g>
    <g id="xtick_5">
     <g id="line2d_5">
      <g>
       <use style="stroke:#000000;stroke-width:0.8;" x="575.916" xlink:href="#m7ca37f0a63" y="456.784"/>
      </g>
     </g>
     <g id="text_5">
      <!-- 4 -->
      <defs>
       <path d="M 37.796875 64.3125 
L 12.890625 25.390625 
L 37.796875 25.390625 
z
M 35.203125 72.90625 
L 47.609375 72.90625 
L 47.609375 25.390625 
L 58.015625 25.390625 
L 58.015625 17.1875 
L 47.609375 17.1875 
L 47.609375 0 
L 37.796875 0 
L 37.796875 17.1875 
L 4.890625 17.1875 
L 4.890625 26.703125 
z
" id="DejaVuSans-52"/>
      </defs>
      <g transform="translate(572.73475 471.382437)scale(0.1 -0.1)">
       <use xlink:href="#DejaVuSans-52"/>
      </g>
     </g>
    </g>
    <g id="xtick_6">
     <g id="line2d_6">
      <g>
       <use style="stroke:#000000;stroke-width:0.8;" x="706.005" xlink:href="#m7ca37f0a63" y="456.784"/>
      </g>
     </g>
     <g id="text_6">
      <!-- 5 -->
      <defs>
       <path d="M 10.796875 72.90625 
L 49.515625 72.90625 
L 49.515625 64.59375 
L 19.828125 64.59375 
L 19.828125 46.734375 
Q 21.96875 47.46875 24.109375 47.828125 
Q 26.265625 48.1875 28.421875 48.1875 
Q 40.625 48.1875 47.75 41.5 
Q 54.890625 34.8125 54.890625 23.390625 
Q 54.890625 11.625 47.5625 5.09375 
Q 40.234375 -1.421875 26.90625 -1.421875 
Q 22.3125 -1.421875 17.546875 -0.640625 
Q 12.796875 0.140625 7.71875 1.703125 
L 7.71875 11.625 
Q 12.109375 9.234375 16.796875 8.0625 
Q 21.484375 6.890625 26.703125 6.890625 
Q 35.15625 6.890625 40.078125 11.328125 
Q 45.015625 15.765625 45.015625 23.390625 
Q 45.015625 31 40.078125 35.4375 
Q 35.15625 39.890625 26.703125 39.890625 
Q 22.75 39.890625 18.8125 39.015625 
Q 14.890625 38.140625 10.796875 36.28125 
z
" id="DejaVuSans-53"/>
      </defs>
      <g transform="translate(702.82375 471.382437)scale(0.1 -0.1)">
       <use xlink:href="#DejaVuSans-53"/>
      </g>
     </g>
    </g>
    <g id="text_7">
     <!-- $K_\mathregular{S}$ -->
     <defs>
      <path d="M 16.890625 72.90625 
L 26.8125 72.90625 
L 20.796875 42.1875 
L 59.078125 72.90625 
L 72.21875 72.90625 
L 28.90625 38.09375 
L 60.59375 0 
L 48.578125 0 
L 19.484375 35.5 
L 12.59375 0 
L 2.6875 0 
z
" id="DejaVuSans-Oblique-75"/>
      <path d="M 53.515625 70.515625 
L 53.515625 60.890625 
Q 47.90625 63.578125 42.921875 64.890625 
Q 37.9375 66.21875 33.296875 66.21875 
Q 25.25 66.21875 20.875 63.09375 
Q 16.5 59.96875 16.5 54.203125 
Q 16.5 49.359375 19.40625 46.890625 
Q 22.3125 44.4375 30.421875 42.921875 
L 36.375 41.703125 
Q 47.40625 39.59375 52.65625 34.296875 
Q 57.90625 29 57.90625 20.125 
Q 57.90625 9.515625 50.796875 4.046875 
Q 43.703125 -1.421875 29.984375 -1.421875 
Q 24.8125 -1.421875 18.96875 -0.25 
Q 13.140625 0.921875 6.890625 3.21875 
L 6.890625 13.375 
Q 12.890625 10.015625 18.65625 8.296875 
Q 24.421875 6.59375 29.984375 6.59375 
Q 38.421875 6.59375 43.015625 9.90625 
Q 47.609375 13.234375 47.609375 19.390625 
Q 47.609375 24.75 44.3125 27.78125 
Q 41.015625 30.8125 33.5 32.328125 
L 27.484375 33.5 
Q 16.453125 35.6875 11.515625 40.375 
Q 6.59375 45.0625 6.59375 53.421875 
Q 6.59375 63.09375 13.40625 68.65625 
Q 20.21875 74.21875 32.171875 74.21875 
Q 37.3125 74.21875 42.625 73.28125 
Q 47.953125 72.359375 53.515625 70.515625 
z
" id="DejaVuSans-83"/>
     </defs>
     <g transform="translate(372.6465 488.403875)scale(0.144 -0.144)">
      <use transform="translate(0 0.09375)" xlink:href="#DejaVuSans-Oblique-75"/>
      <use transform="translate(65.576172 -16.3125)scale(0.7)" xlink:href="#DejaVuSans-83"/>
     </g>
    </g>
   </g>
   <g id="matplotlib.axis_2">
    <g id="ytick_1">
     <g id="line2d_7">
      <defs>
       <path d="M 0 0 
L -3.5 0 
" id="ma55f92fc5e" style="stroke:#000000;stroke-width:0.8;"/>
      </defs>
      <g>
       <use style="stroke:#000000;stroke-width:0.8;" x="45.56" xlink:href="#ma55f92fc5e" y="446.784"/>
      </g>
     </g>
     <g id="text_8">
      <!-- 0 -->
      <g transform="translate(36.480313 449.96525)rotate(-90)scale(0.1 -0.1)">
       <use xlink:href="#DejaVuSans-48"/>
      </g>
     </g>
    </g>
    <g id="ytick_2">
     <g id="line2d_8">
      <g>
       <use style="stroke:#000000;stroke-width:0.8;" x="45.56" xlink:href="#ma55f92fc5e" y="391.874573"/>
      </g>
     </g>
     <g id="text_9">
      <!-- 250 -->
      <g transform="translate(36.480313 401.418323)rotate(-90)scale(0.1 -0.1)">
       <use xlink:href="#DejaVuSans-50"/>
       <use x="63.623047" xlink:href="#DejaVuSans-53"/>
       <use x="127.246094" xlink:href="#DejaVuSans-48"/>
      </g>
     </g>
    </g>
    <g id="ytick_3">
     <g id="line2d_9">
      <g>
       <use style="stroke:#000000;stroke-width:0.8;" x="45.56" xlink:href="#ma55f92fc5e" y="336.965146"/>
      </g>
     </g>
     <g id="text_10">
      <!-- 500 -->
      <g transform="translate(36.480313 346.508896)rotate(-90)scale(0.1 -0.1)">
       <use xlink:href="#DejaVuSans-53"/>
       <use x="63.623047" xlink:href="#DejaVuSans-48"/>
       <use x="127.246094" xlink:href="#DejaVuSans-48"/>
      </g>
     </g>
    </g>
    <g id="ytick_4">
     <g id="line2d_10">
      <g>
       <use style="stroke:#000000;stroke-width:0.8;" x="45.56" xlink:href="#ma55f92fc5e" y="282.055719"/>
      </g>
     </g>
     <g id="text_11">
      <!-- 750 -->
      <defs>
       <path d="M 8.203125 72.90625 
L 55.078125 72.90625 
L 55.078125 68.703125 
L 28.609375 0 
L 18.3125 0 
L 43.21875 64.59375 
L 8.203125 64.59375 
z
" id="DejaVuSans-55"/>
      </defs>
      <g transform="translate(36.480313 291.599469)rotate(-90)scale(0.1 -0.1)">
       <use xlink:href="#DejaVuSans-55"/>
       <use x="63.623047" xlink:href="#DejaVuSans-53"/>
       <use x="127.246094" xlink:href="#DejaVuSans-48"/>
      </g>
     </g>
    </g>
    <g id="ytick_5">
     <g id="line2d_11">
      <g>
       <use style="stroke:#000000;stroke-width:0.8;" x="45.56" xlink:href="#ma55f92fc5e" y="227.146293"/>
      </g>
     </g>
     <g id="text_12">
      <!-- 1000 -->
      <g transform="translate(36.480313 239.871293)rotate(-90)scale(0.1 -0.1)">
       <use xlink:href="#DejaVuSans-49"/>
       <use x="63.623047" xlink:href="#DejaVuSans-48"/>
       <use x="127.246094" xlink:href="#DejaVuSans-48"/>
       <use x="190.869141" xlink:href="#DejaVuSans-48"/>
      </g>
     </g>
    </g>
    <g id="ytick_6">
     <g id="line2d_12">
      <g>
       <use style="stroke:#000000;stroke-width:0.8;" x="45.56" xlink:href="#ma55f92fc5e" y="172.236866"/>
      </g>
     </g>
     <g id="text_13">
      <!-- 1250 -->
      <g transform="translate(36.480313 184.961866)rotate(-90)scale(0.1 -0.1)">
       <use xlink:href="#DejaVuSans-49"/>
       <use x="63.623047" xlink:href="#DejaVuSans-50"/>
       <use x="127.246094" xlink:href="#DejaVuSans-53"/>
       <use x="190.869141" xlink:href="#DejaVuSans-48"/>
      </g>
     </g>
    </g>
    <g id="ytick_7">
     <g id="line2d_13">
      <g>
       <use style="stroke:#000000;stroke-width:0.8;" x="45.56" xlink:href="#ma55f92fc5e" y="117.327439"/>
      </g>
     </g>
     <g id="text_14">
      <!-- 1500 -->
      <g transform="translate(36.480313 130.052439)rotate(-90)scale(0.1 -0.1)">
       <use xlink:href="#DejaVuSans-49"/>
       <use x="63.623047" xlink:href="#DejaVuSans-53"/>
       <use x="127.246094" xlink:href="#DejaVuSans-48"/>
       <use x="190.869141" xlink:href="#DejaVuSans-48"/>
      </g>
     </g>
    </g>
    <g id="ytick_8">
     <g id="line2d_14">
      <g>
       <use style="stroke:#000000;stroke-width:0.8;" x="45.56" xlink:href="#ma55f92fc5e" y="62.418012"/>
      </g>
     </g>
     <g id="text_15">
      <!-- 1750 -->
      <g transform="translate(36.480313 75.143012)rotate(-90)scale(0.1 -0.1)">
       <use xlink:href="#DejaVuSans-49"/>
       <use x="63.623047" xlink:href="#DejaVuSans-55"/>
       <use x="127.246094" xlink:href="#DejaVuSans-53"/>
       <use x="190.869141" xlink:href="#DejaVuSans-48"/>
      </g>
     </g>
    </g>
    <g id="text_16">
     <!-- Number of retained duplicates (weighted) -->
     <defs>
      <path d="M 9.8125 72.90625 
L 23.09375 72.90625 
L 55.421875 11.921875 
L 55.421875 72.90625 
L 64.984375 72.90625 
L 64.984375 0 
L 51.703125 0 
L 19.390625 60.984375 
L 19.390625 0 
L 9.8125 0 
z
" id="DejaVuSans-78"/>
      <path d="M 8.5 21.578125 
L 8.5 54.6875 
L 17.484375 54.6875 
L 17.484375 21.921875 
Q 17.484375 14.15625 20.5 10.265625 
Q 23.53125 6.390625 29.59375 6.390625 
Q 36.859375 6.390625 41.078125 11.03125 
Q 45.3125 15.671875 45.3125 23.6875 
L 45.3125 54.6875 
L 54.296875 54.6875 
L 54.296875 0 
L 45.3125 0 
L 45.3125 8.40625 
Q 42.046875 3.421875 37.71875 1 
Q 33.40625 -1.421875 27.6875 -1.421875 
Q 18.265625 -1.421875 13.375 4.4375 
Q 8.5 10.296875 8.5 21.578125 
z
M 31.109375 56 
z
" id="DejaVuSans-117"/>
      <path d="M 52 44.1875 
Q 55.375 50.25 60.0625 53.125 
Q 64.75 56 71.09375 56 
Q 79.640625 56 84.28125 50.015625 
Q 88.921875 44.046875 88.921875 33.015625 
L 88.921875 0 
L 79.890625 0 
L 79.890625 32.71875 
Q 79.890625 40.578125 77.09375 44.375 
Q 74.3125 48.1875 68.609375 48.1875 
Q 61.625 48.1875 57.5625 43.546875 
Q 53.515625 38.921875 53.515625 30.90625 
L 53.515625 0 
L 44.484375 0 
L 44.484375 32.71875 
Q 44.484375 40.625 41.703125 44.40625 
Q 38.921875 48.1875 33.109375 48.1875 
Q 26.21875 48.1875 22.15625 43.53125 
Q 18.109375 38.875 18.109375 30.90625 
L 18.109375 0 
L 9.078125 0 
L 9.078125 54.6875 
L 18.109375 54.6875 
L 18.109375 46.1875 
Q 21.1875 51.21875 25.484375 53.609375 
Q 29.78125 56 35.6875 56 
Q 41.65625 56 45.828125 52.96875 
Q 50 49.953125 52 44.1875 
z
" id="DejaVuSans-109"/>
      <path d="M 48.6875 27.296875 
Q 48.6875 37.203125 44.609375 42.84375 
Q 40.53125 48.484375 33.40625 48.484375 
Q 26.265625 48.484375 22.1875 42.84375 
Q 18.109375 37.203125 18.109375 27.296875 
Q 18.109375 17.390625 22.1875 11.75 
Q 26.265625 6.109375 33.40625 6.109375 
Q 40.53125 6.109375 44.609375 11.75 
Q 48.6875 17.390625 48.6875 27.296875 
z
M 18.109375 46.390625 
Q 20.953125 51.265625 25.265625 53.625 
Q 29.59375 56 35.59375 56 
Q 45.5625 56 51.78125 48.09375 
Q 58.015625 40.1875 58.015625 27.296875 
Q 58.015625 14.40625 51.78125 6.484375 
Q 45.5625 -1.421875 35.59375 -1.421875 
Q 29.59375 -1.421875 25.265625 0.953125 
Q 20.953125 3.328125 18.109375 8.203125 
L 18.109375 0 
L 9.078125 0 
L 9.078125 75.984375 
L 18.109375 75.984375 
z
" id="DejaVuSans-98"/>
      <path d="M 56.203125 29.59375 
L 56.203125 25.203125 
L 14.890625 25.203125 
Q 15.484375 15.921875 20.484375 11.0625 
Q 25.484375 6.203125 34.421875 6.203125 
Q 39.59375 6.203125 44.453125 7.46875 
Q 49.3125 8.734375 54.109375 11.28125 
L 54.109375 2.78125 
Q 49.265625 0.734375 44.1875 -0.34375 
Q 39.109375 -1.421875 33.890625 -1.421875 
Q 20.796875 -1.421875 13.15625 6.1875 
Q 5.515625 13.8125 5.515625 26.8125 
Q 5.515625 40.234375 12.765625 48.109375 
Q 20.015625 56 32.328125 56 
Q 43.359375 56 49.78125 48.890625 
Q 56.203125 41.796875 56.203125 29.59375 
z
M 47.21875 32.234375 
Q 47.125 39.59375 43.09375 43.984375 
Q 39.0625 48.390625 32.421875 48.390625 
Q 24.90625 48.390625 20.390625 44.140625 
Q 15.875 39.890625 15.1875 32.171875 
z
" id="DejaVuSans-101"/>
      <path d="M 41.109375 46.296875 
Q 39.59375 47.171875 37.8125 47.578125 
Q 36.03125 48 33.890625 48 
Q 26.265625 48 22.1875 43.046875 
Q 18.109375 38.09375 18.109375 28.8125 
L 18.109375 0 
L 9.078125 0 
L 9.078125 54.6875 
L 18.109375 54.6875 
L 18.109375 46.1875 
Q 20.953125 51.171875 25.484375 53.578125 
Q 30.03125 56 36.53125 56 
Q 37.453125 56 38.578125 55.875 
Q 39.703125 55.765625 41.0625 55.515625 
z
" id="DejaVuSans-114"/>
      <path id="DejaVuSans-32"/>
      <path d="M 30.609375 48.390625 
Q 23.390625 48.390625 19.1875 42.75 
Q 14.984375 37.109375 14.984375 27.296875 
Q 14.984375 17.484375 19.15625 11.84375 
Q 23.34375 6.203125 30.609375 6.203125 
Q 37.796875 6.203125 41.984375 11.859375 
Q 46.1875 17.53125 46.1875 27.296875 
Q 46.1875 37.015625 41.984375 42.703125 
Q 37.796875 48.390625 30.609375 48.390625 
z
M 30.609375 56 
Q 42.328125 56 49.015625 48.375 
Q 55.71875 40.765625 55.71875 27.296875 
Q 55.71875 13.875 49.015625 6.21875 
Q 42.328125 -1.421875 30.609375 -1.421875 
Q 18.84375 -1.421875 12.171875 6.21875 
Q 5.515625 13.875 5.515625 27.296875 
Q 5.515625 40.765625 12.171875 48.375 
Q 18.84375 56 30.609375 56 
z
" id="DejaVuSans-111"/>
      <path d="M 37.109375 75.984375 
L 37.109375 68.5 
L 28.515625 68.5 
Q 23.6875 68.5 21.796875 66.546875 
Q 19.921875 64.59375 19.921875 59.515625 
L 19.921875 54.6875 
L 34.71875 54.6875 
L 34.71875 47.703125 
L 19.921875 47.703125 
L 19.921875 0 
L 10.890625 0 
L 10.890625 47.703125 
L 2.296875 47.703125 
L 2.296875 54.6875 
L 10.890625 54.6875 
L 10.890625 58.5 
Q 10.890625 67.625 15.140625 71.796875 
Q 19.390625 75.984375 28.609375 75.984375 
z
" id="DejaVuSans-102"/>
      <path d="M 18.3125 70.21875 
L 18.3125 54.6875 
L 36.8125 54.6875 
L 36.8125 47.703125 
L 18.3125 47.703125 
L 18.3125 18.015625 
Q 18.3125 11.328125 20.140625 9.421875 
Q 21.96875 7.515625 27.59375 7.515625 
L 36.8125 7.515625 
L 36.8125 0 
L 27.59375 0 
Q 17.1875 0 13.234375 3.875 
Q 9.28125 7.765625 9.28125 18.015625 
L 9.28125 47.703125 
L 2.6875 47.703125 
L 2.6875 54.6875 
L 9.28125 54.6875 
L 9.28125 70.21875 
z
" id="DejaVuSans-116"/>
      <path d="M 34.28125 27.484375 
Q 23.390625 27.484375 19.1875 25 
Q 14.984375 22.515625 14.984375 16.5 
Q 14.984375 11.71875 18.140625 8.90625 
Q 21.296875 6.109375 26.703125 6.109375 
Q 34.1875 6.109375 38.703125 11.40625 
Q 43.21875 16.703125 43.21875 25.484375 
L 43.21875 27.484375 
z
M 52.203125 31.203125 
L 52.203125 0 
L 43.21875 0 
L 43.21875 8.296875 
Q 40.140625 3.328125 35.546875 0.953125 
Q 30.953125 -1.421875 24.3125 -1.421875 
Q 15.921875 -1.421875 10.953125 3.296875 
Q 6 8.015625 6 15.921875 
Q 6 25.140625 12.171875 29.828125 
Q 18.359375 34.515625 30.609375 34.515625 
L 43.21875 34.515625 
L 43.21875 35.40625 
Q 43.21875 41.609375 39.140625 45 
Q 35.0625 48.390625 27.6875 48.390625 
Q 23 48.390625 18.546875 47.265625 
Q 14.109375 46.140625 10.015625 43.890625 
L 10.015625 52.203125 
Q 14.9375 54.109375 19.578125 55.046875 
Q 24.21875 56 28.609375 56 
Q 40.484375 56 46.34375 49.84375 
Q 52.203125 43.703125 52.203125 31.203125 
z
" id="DejaVuSans-97"/>
      <path d="M 9.421875 54.6875 
L 18.40625 54.6875 
L 18.40625 0 
L 9.421875 0 
z
M 9.421875 75.984375 
L 18.40625 75.984375 
L 18.40625 64.59375 
L 9.421875 64.59375 
z
" id="DejaVuSans-105"/>
      <path d="M 54.890625 33.015625 
L 54.890625 0 
L 45.90625 0 
L 45.90625 32.71875 
Q 45.90625 40.484375 42.875 44.328125 
Q 39.84375 48.1875 33.796875 48.1875 
Q 26.515625 48.1875 22.3125 43.546875 
Q 18.109375 38.921875 18.109375 30.90625 
L 18.109375 0 
L 9.078125 0 
L 9.078125 54.6875 
L 18.109375 54.6875 
L 18.109375 46.1875 
Q 21.34375 51.125 25.703125 53.5625 
Q 30.078125 56 35.796875 56 
Q 45.21875 56 50.046875 50.171875 
Q 54.890625 44.34375 54.890625 33.015625 
z
" id="DejaVuSans-110"/>
      <path d="M 45.40625 46.390625 
L 45.40625 75.984375 
L 54.390625 75.984375 
L 54.390625 0 
L 45.40625 0 
L 45.40625 8.203125 
Q 42.578125 3.328125 38.25 0.953125 
Q 33.9375 -1.421875 27.875 -1.421875 
Q 17.96875 -1.421875 11.734375 6.484375 
Q 5.515625 14.40625 5.515625 27.296875 
Q 5.515625 40.1875 11.734375 48.09375 
Q 17.96875 56 27.875 56 
Q 33.9375 56 38.25 53.625 
Q 42.578125 51.265625 45.40625 46.390625 
z
M 14.796875 27.296875 
Q 14.796875 17.390625 18.875 11.75 
Q 22.953125 6.109375 30.078125 6.109375 
Q 37.203125 6.109375 41.296875 11.75 
Q 45.40625 17.390625 45.40625 27.296875 
Q 45.40625 37.203125 41.296875 42.84375 
Q 37.203125 48.484375 30.078125 48.484375 
Q 22.953125 48.484375 18.875 42.84375 
Q 14.796875 37.203125 14.796875 27.296875 
z
" id="DejaVuSans-100"/>
      <path d="M 18.109375 8.203125 
L 18.109375 -20.796875 
L 9.078125 -20.796875 
L 9.078125 54.6875 
L 18.109375 54.6875 
L 18.109375 46.390625 
Q 20.953125 51.265625 25.265625 53.625 
Q 29.59375 56 35.59375 56 
Q 45.5625 56 51.78125 48.09375 
Q 58.015625 40.1875 58.015625 27.296875 
Q 58.015625 14.40625 51.78125 6.484375 
Q 45.5625 -1.421875 35.59375 -1.421875 
Q 29.59375 -1.421875 25.265625 0.953125 
Q 20.953125 3.328125 18.109375 8.203125 
z
M 48.6875 27.296875 
Q 48.6875 37.203125 44.609375 42.84375 
Q 40.53125 48.484375 33.40625 48.484375 
Q 26.265625 48.484375 22.1875 42.84375 
Q 18.109375 37.203125 18.109375 27.296875 
Q 18.109375 17.390625 22.1875 11.75 
Q 26.265625 6.109375 33.40625 6.109375 
Q 40.53125 6.109375 44.609375 11.75 
Q 48.6875 17.390625 48.6875 27.296875 
z
" id="DejaVuSans-112"/>
      <path d="M 9.421875 75.984375 
L 18.40625 75.984375 
L 18.40625 0 
L 9.421875 0 
z
" id="DejaVuSans-108"/>
      <path d="M 48.78125 52.59375 
L 48.78125 44.1875 
Q 44.96875 46.296875 41.140625 47.34375 
Q 37.3125 48.390625 33.40625 48.390625 
Q 24.65625 48.390625 19.8125 42.84375 
Q 14.984375 37.3125 14.984375 27.296875 
Q 14.984375 17.28125 19.8125 11.734375 
Q 24.65625 6.203125 33.40625 6.203125 
Q 37.3125 6.203125 41.140625 7.25 
Q 44.96875 8.296875 48.78125 10.40625 
L 48.78125 2.09375 
Q 45.015625 0.34375 40.984375 -0.53125 
Q 36.96875 -1.421875 32.421875 -1.421875 
Q 20.0625 -1.421875 12.78125 6.34375 
Q 5.515625 14.109375 5.515625 27.296875 
Q 5.515625 40.671875 12.859375 48.328125 
Q 20.21875 56 33.015625 56 
Q 37.15625 56 41.109375 55.140625 
Q 45.0625 54.296875 48.78125 52.59375 
z
" id="DejaVuSans-99"/>
      <path d="M 44.28125 53.078125 
L 44.28125 44.578125 
Q 40.484375 46.53125 36.375 47.5 
Q 32.28125 48.484375 27.875 48.484375 
Q 21.1875 48.484375 17.84375 46.4375 
Q 14.5 44.390625 14.5 40.28125 
Q 14.5 37.15625 16.890625 35.375 
Q 19.28125 33.59375 26.515625 31.984375 
L 29.59375 31.296875 
Q 39.15625 29.25 43.1875 25.515625 
Q 47.21875 21.78125 47.21875 15.09375 
Q 47.21875 7.46875 41.1875 3.015625 
Q 35.15625 -1.421875 24.609375 -1.421875 
Q 20.21875 -1.421875 15.453125 -0.5625 
Q 10.6875 0.296875 5.421875 2 
L 5.421875 11.28125 
Q 10.40625 8.6875 15.234375 7.390625 
Q 20.0625 6.109375 24.8125 6.109375 
Q 31.15625 6.109375 34.5625 8.28125 
Q 37.984375 10.453125 37.984375 14.40625 
Q 37.984375 18.0625 35.515625 20.015625 
Q 33.0625 21.96875 24.703125 23.78125 
L 21.578125 24.515625 
Q 13.234375 26.265625 9.515625 29.90625 
Q 5.8125 33.546875 5.8125 39.890625 
Q 5.8125 47.609375 11.28125 51.796875 
Q 16.75 56 26.8125 56 
Q 31.78125 56 36.171875 55.265625 
Q 40.578125 54.546875 44.28125 53.078125 
z
" id="DejaVuSans-115"/>
      <path d="M 31 75.875 
Q 24.46875 64.65625 21.28125 53.65625 
Q 18.109375 42.671875 18.109375 31.390625 
Q 18.109375 20.125 21.3125 9.0625 
Q 24.515625 -2 31 -13.1875 
L 23.1875 -13.1875 
Q 15.875 -1.703125 12.234375 9.375 
Q 8.59375 20.453125 8.59375 31.390625 
Q 8.59375 42.28125 12.203125 53.3125 
Q 15.828125 64.359375 23.1875 75.875 
z
" id="DejaVuSans-40"/>
      <path d="M 4.203125 54.6875 
L 13.1875 54.6875 
L 24.421875 12.015625 
L 35.59375 54.6875 
L 46.1875 54.6875 
L 57.421875 12.015625 
L 68.609375 54.6875 
L 77.59375 54.6875 
L 63.28125 0 
L 52.6875 0 
L 40.921875 44.828125 
L 29.109375 0 
L 18.5 0 
z
" id="DejaVuSans-119"/>
      <path d="M 45.40625 27.984375 
Q 45.40625 37.75 41.375 43.109375 
Q 37.359375 48.484375 30.078125 48.484375 
Q 22.859375 48.484375 18.828125 43.109375 
Q 14.796875 37.75 14.796875 27.984375 
Q 14.796875 18.265625 18.828125 12.890625 
Q 22.859375 7.515625 30.078125 7.515625 
Q 37.359375 7.515625 41.375 12.890625 
Q 45.40625 18.265625 45.40625 27.984375 
z
M 54.390625 6.78125 
Q 54.390625 -7.171875 48.1875 -13.984375 
Q 42 -20.796875 29.203125 -20.796875 
Q 24.46875 -20.796875 20.265625 -20.09375 
Q 16.0625 -19.390625 12.109375 -17.921875 
L 12.109375 -9.1875 
Q 16.0625 -11.328125 19.921875 -12.34375 
Q 23.78125 -13.375 27.78125 -13.375 
Q 36.625 -13.375 41.015625 -8.765625 
Q 45.40625 -4.15625 45.40625 5.171875 
L 45.40625 9.625 
Q 42.625 4.78125 38.28125 2.390625 
Q 33.9375 0 27.875 0 
Q 17.828125 0 11.671875 7.65625 
Q 5.515625 15.328125 5.515625 27.984375 
Q 5.515625 40.671875 11.671875 48.328125 
Q 17.828125 56 27.875 56 
Q 33.9375 56 38.28125 53.609375 
Q 42.625 51.21875 45.40625 46.390625 
L 45.40625 54.6875 
L 54.390625 54.6875 
z
" id="DejaVuSans-103"/>
      <path d="M 54.890625 33.015625 
L 54.890625 0 
L 45.90625 0 
L 45.90625 32.71875 
Q 45.90625 40.484375 42.875 44.328125 
Q 39.84375 48.1875 33.796875 48.1875 
Q 26.515625 48.1875 22.3125 43.546875 
Q 18.109375 38.921875 18.109375 30.90625 
L 18.109375 0 
L 9.078125 0 
L 9.078125 75.984375 
L 18.109375 75.984375 
L 18.109375 46.1875 
Q 21.34375 51.125 25.703125 53.5625 
Q 30.078125 56 35.796875 56 
Q 45.21875 56 50.046875 50.171875 
Q 54.890625 44.34375 54.890625 33.015625 
z
" id="DejaVuSans-104"/>
      <path d="M 8.015625 75.875 
L 15.828125 75.875 
Q 23.140625 64.359375 26.78125 53.3125 
Q 30.421875 42.28125 30.421875 31.390625 
Q 30.421875 20.453125 26.78125 9.375 
Q 23.140625 -1.703125 15.828125 -13.1875 
L 8.015625 -13.1875 
Q 14.5 -2 17.703125 9.0625 
Q 20.90625 20.125 20.90625 31.390625 
Q 20.90625 42.671875 17.703125 53.65625 
Q 14.5 64.65625 8.015625 75.875 
z
" id="DejaVuSans-41"/>
     </defs>
     <g transform="translate(21.887125 379.810875)rotate(-90)scale(0.144 -0.144)">
      <use xlink:href="#DejaVuSans-78"/>
      <use x="74.804688" xlink:href="#DejaVuSans-117"/>
      <use x="138.183594" xlink:href="#DejaVuSans-109"/>
      <use x="235.595703" xlink:href="#DejaVuSans-98"/>
      <use x="299.072266" xlink:href="#DejaVuSans-101"/>
      <use x="360.595703" xlink:href="#DejaVuSans-114"/>
      <use x="401.708984" xlink:href="#DejaVuSans-32"/>
      <use x="433.496094" xlink:href="#DejaVuSans-111"/>
      <use x="494.677734" xlink:href="#DejaVuSans-102"/>
      <use x="529.882812" xlink:href="#DejaVuSans-32"/>
      <use x="561.669922" xlink:href="#DejaVuSans-114"/>
      <use x="600.533203" xlink:href="#DejaVuSans-101"/>
      <use x="662.056641" xlink:href="#DejaVuSans-116"/>
      <use x="701.265625" xlink:href="#DejaVuSans-97"/>
      <use x="762.544922" xlink:href="#DejaVuSans-105"/>
      <use x="790.328125" xlink:href="#DejaVuSans-110"/>
      <use x="853.707031" xlink:href="#DejaVuSans-101"/>
      <use x="915.230469" xlink:href="#DejaVuSans-100"/>
      <use x="978.707031" xlink:href="#DejaVuSans-32"/>
      <use x="1010.494141" xlink:href="#DejaVuSans-100"/>
      <use x="1073.970703" xlink:href="#DejaVuSans-117"/>
      <use x="1137.349609" xlink:href="#DejaVuSans-112"/>
      <use x="1200.826172" xlink:href="#DejaVuSans-108"/>
      <use x="1228.609375" xlink:href="#DejaVuSans-105"/>
      <use x="1256.392578" xlink:href="#DejaVuSans-99"/>
      <use x="1311.373047" xlink:href="#DejaVuSans-97"/>
      <use x="1372.652344" xlink:href="#DejaVuSans-116"/>
      <use x="1411.861328" xlink:href="#DejaVuSans-101"/>
      <use x="1473.384766" xlink:href="#DejaVuSans-115"/>
      <use x="1525.484375" xlink:href="#DejaVuSans-32"/>
      <use x="1557.271484" xlink:href="#DejaVuSans-40"/>
      <use x="1596.285156" xlink:href="#DejaVuSans-119"/>
      <use x="1678.072266" xlink:href="#DejaVuSans-101"/>
      <use x="1739.595703" xlink:href="#DejaVuSans-105"/>
      <use x="1767.378906" xlink:href="#DejaVuSans-103"/>
      <use x="1830.855469" xlink:href="#DejaVuSans-104"/>
      <use x="1894.234375" xlink:href="#DejaVuSans-116"/>
      <use x="1933.443359" xlink:href="#DejaVuSans-101"/>
      <use x="1994.966797" xlink:href="#DejaVuSans-100"/>
      <use x="2058.443359" xlink:href="#DejaVuSans-41"/>
     </g>
    </g>
   </g>
   <g id="line2d_15">
    <path clip-path="url(#pee894e63ce)" d="M 55.56 200.336901 
L 58.166994 215.04903 
L 60.773988 228.88289 
L 63.380982 241.890912 
L 65.987976 254.122395 
L 68.59497 265.623697 
L 71.201964 276.438406 
L 73.808958 286.607511 
L 76.415952 296.169552 
L 79.022946 305.160768 
L 81.62994 313.615237 
L 84.236934 321.565 
L 88.147425 332.608735 
L 92.057916 342.678463 
L 95.968407 351.860088 
L 99.878898 360.231937 
L 103.789389 367.865427 
L 107.69988 374.825679 
L 111.610371 381.172069 
L 115.520862 386.958737 
L 119.431353 392.235047 
L 123.341844 397.046012 
L 127.252335 401.432672 
L 131.162826 405.432448 
L 135.073317 409.079463 
L 138.983808 412.404828 
L 142.894299 415.436912 
L 146.80479 418.201579 
L 150.715281 420.722416 
L 154.625772 423.020927 
L 158.536263 425.11672 
L 163.750251 427.626443 
L 168.964238 429.845464 
L 174.178226 431.807456 
L 179.392214 433.542191 
L 184.606202 435.075991 
L 191.123687 436.745872 
L 197.641172 438.177583 
L 204.158657 439.405093 
L 211.979639 440.649267 
L 219.800621 441.683659 
L 228.9251 442.672155 
L 239.353076 443.569538 
L 251.084549 444.347235 
L 264.119519 444.992763 
L 279.761483 445.545887 
L 299.313938 446.003686 
L 324.080381 446.349176 
L 359.2748 446.594578 
L 415.32517 446.73357 
L 550.888858 446.781946 
L 706.005 446.783947 
L 706.005 446.783947 
" style="fill:none;stroke:#008000;stroke-linecap:square;stroke-opacity:0.8;stroke-width:1.5;"/>
   </g>
   <g id="line2d_16">
    <path clip-path="url(#pee894e63ce)" d="M 55.56 446.784 
L 706.005 446.784 
L 706.005 446.784 
" style="fill:none;stroke:#0000ff;stroke-linecap:square;stroke-opacity:0.8;stroke-width:1.5;"/>
   </g>
   <g id="line2d_17">
    <path clip-path="url(#pee894e63ce)" d="M 55.56 446.784 
L 84.236934 446.69855 
L 90.754419 446.426253 
L 95.968407 445.937422 
L 99.878898 445.347215 
L 103.789389 444.527993 
L 107.69988 443.45847 
L 111.610371 442.130586 
L 115.520862 440.549462 
L 119.431353 438.732087 
L 123.341844 436.705226 
L 128.555832 433.736472 
L 135.073317 429.729715 
L 153.322275 418.275922 
L 158.536263 415.291617 
L 163.750251 412.545939 
L 168.964238 410.076702 
L 174.178226 407.908892 
L 178.088717 406.489412 
L 181.999208 405.24941 
L 185.909699 404.188288 
L 189.82019 403.303185 
L 195.034178 402.388418 
L 200.248166 401.76262 
L 205.462154 401.406958 
L 210.676142 401.300259 
L 215.89013 401.419983 
L 221.104118 401.743018 
L 227.621603 402.397646 
L 234.139088 403.290258 
L 241.96007 404.617569 
L 251.084549 406.437347 
L 261.512525 408.764242 
L 277.154489 412.516508 
L 305.831423 419.423211 
L 320.16989 422.6346 
L 333.20486 425.33924 
L 346.23983 427.818192 
L 359.2748 430.065818 
L 372.30977 432.086279 
L 385.344739 433.890102 
L 399.683206 435.64129 
L 414.021673 437.169573 
L 429.663637 438.609302 
L 446.609098 439.933782 
L 464.858056 441.125045 
L 484.410511 442.173761 
L 506.56996 443.128591 
L 531.336403 443.961255 
L 560.013337 444.687567 
L 592.600762 445.284188 
L 633.009168 445.788405 
L 683.845551 446.183621 
L 706.005 446.300681 
L 706.005 446.300681 
" style="fill:none;stroke:#ff0000;stroke-linecap:square;stroke-opacity:0.8;stroke-width:1.5;"/>
   </g>
   <g id="line2d_18">
    <path clip-path="url(#pee894e63ce)" d="M 55.56 446.784 
L 261.512525 446.681603 
L 281.06498 446.423747 
L 295.403447 446.016503 
L 307.13492 445.478742 
L 318.866393 444.711986 
L 329.294369 443.816031 
L 339.722345 442.71314 
L 351.453818 441.24027 
L 364.488788 439.366078 
L 384.041242 436.286769 
L 404.897194 433.049817 
L 417.932164 431.265286 
L 428.36014 430.052825 
L 438.788116 429.072657 
L 447.912595 428.424893 
L 457.037074 427.981613 
L 466.161553 427.743442 
L 475.286032 427.70445 
L 485.714008 427.88883 
L 496.141984 428.294117 
L 507.873457 428.977447 
L 520.908427 429.964669 
L 536.550391 431.377287 
L 561.316834 433.87855 
L 596.511253 437.41648 
L 617.367204 439.280997 
L 636.919659 440.802361 
L 656.472114 442.090418 
L 676.024569 443.152804 
L 696.880521 444.060337 
L 706.005 444.392108 
L 706.005 444.392108 
" style="fill:none;stroke:#00bfbf;stroke-linecap:square;stroke-opacity:0.8;stroke-width:1.5;"/>
   </g>
   <g id="line2d_19">
    <path clip-path="url(#pee894e63ce)" d="M 55.56 446.784 
L 544.371373 446.676149 
L 560.013337 446.43257 
L 571.74481 446.030205 
L 580.869289 445.509099 
L 588.690271 444.871634 
L 596.511253 444.027061 
L 604.332234 442.957965 
L 612.153216 441.66477 
L 621.277695 439.904952 
L 633.009168 437.374196 
L 649.954629 433.716697 
L 657.775611 432.270005 
L 664.293096 431.277038 
L 670.810581 430.523677 
L 676.024569 430.114483 
L 681.238557 429.887497 
L 686.452545 429.845608 
L 691.666533 429.985635 
L 698.184018 430.402544 
L 704.701503 431.061587 
L 706.005 431.219301 
L 706.005 431.219301 
" style="fill:none;stroke:#bfbf00;stroke-linecap:square;stroke-opacity:0.8;stroke-width:1.5;"/>
   </g>
   <g id="line2d_20">
    <path clip-path="url(#pee894e63ce)" d="M 55.56 200.336901 
L 58.166994 215.04903 
L 60.773988 228.88289 
L 63.380982 241.890912 
L 65.987976 254.122391 
L 68.59497 265.623636 
L 71.201964 276.437989 
L 73.808958 286.605629 
L 76.415952 296.163169 
L 79.022946 305.143214 
L 81.62994 313.574038 
L 84.236934 321.47955 
L 86.843928 328.879586 
L 89.450922 335.790504 
L 92.057916 342.22598 
L 94.66491 348.197916 
L 97.271904 353.717327 
L 99.878898 358.795152 
L 102.485892 363.442919 
L 105.092886 367.673243 
L 107.69988 371.500149 
L 110.306874 374.939234 
L 112.913868 378.007688 
L 115.520862 380.724198 
L 118.127856 383.108771 
L 120.73485 385.182489 
L 123.341844 386.967238 
L 125.948838 388.485415 
L 128.555832 389.75964 
L 131.162826 390.812477 
L 133.76982 391.666184 
L 136.376814 392.342483 
L 140.287305 393.069979 
L 144.197796 393.51231 
L 148.108287 393.731057 
L 153.322275 393.770134 
L 159.83976 393.570524 
L 178.088717 392.833728 
L 184.606202 392.814235 
L 191.123687 393.008331 
L 197.641172 393.433992 
L 204.158657 394.092504 
L 210.676142 394.973126 
L 217.193627 396.056919 
L 225.014609 397.591454 
L 234.139088 399.644702 
L 244.567064 402.24279 
L 260.209028 406.405126 
L 279.761483 411.582237 
L 291.492956 414.447658 
L 300.617435 416.466136 
L 309.741914 418.256541 
L 317.562896 419.586365 
L 325.383878 420.713357 
L 333.20486 421.631125 
L 341.025842 422.340001 
L 348.846824 422.847053 
L 357.971303 423.201847 
L 367.095782 423.33172 
L 377.523758 423.256051 
L 390.558727 422.926753 
L 432.270631 421.666806 
L 444.002104 421.612714 
L 455.733577 421.78637 
L 467.46505 422.20472 
L 479.196523 422.865568 
L 490.927996 423.750914 
L 503.962966 424.960937 
L 519.60493 426.65178 
L 565.227325 431.795698 
L 574.351804 432.532326 
L 582.172786 432.978125 
L 589.993768 433.210587 
L 597.814749 433.197516 
L 604.332234 432.985203 
L 612.153216 432.48817 
L 619.974198 431.747778 
L 629.098677 430.640131 
L 659.079108 426.747693 
L 665.596593 426.216173 
L 672.114078 425.904069 
L 678.631563 425.840173 
L 685.149048 426.038763 
L 691.666533 426.499212 
L 698.184018 427.206866 
L 704.701503 428.134998 
L 706.005 428.344037 
L 706.005 428.344037 
" style="fill:none;stroke:#000000;stroke-linecap:square;stroke-width:1.5;"/>
   </g>
   <g id="patch_53">
    <path d="M 45.56 446.784 
L 45.56 10.8 
" style="fill:none;stroke:#000000;stroke-linecap:square;stroke-linejoin:miter;stroke-width:0.8;"/>
   </g>
   <g id="patch_54">
    <path d="M 55.56 456.784 
L 706.005 456.784 
" style="fill:none;stroke:#000000;stroke-linecap:square;stroke-linejoin:miter;stroke-width:0.8;"/>
   </g>
   <g id="legend_1">
    <g id="line2d_21">
     <path d="M 456.654625 67.496837 
L 476.654625 67.496837 
" style="fill:none;stroke:#008000;stroke-linecap:square;stroke-opacity:0.8;stroke-width:1.5;"/>
    </g>
    <g id="line2d_22"/>
    <g id="text_17">
     <!-- Exponential optimized -->
     <defs>
      <path d="M 9.8125 72.90625 
L 55.90625 72.90625 
L 55.90625 64.59375 
L 19.671875 64.59375 
L 19.671875 43.015625 
L 54.390625 43.015625 
L 54.390625 34.71875 
L 19.671875 34.71875 
L 19.671875 8.296875 
L 56.78125 8.296875 
L 56.78125 0 
L 9.8125 0 
z
" id="DejaVuSans-69"/>
      <path d="M 54.890625 54.6875 
L 35.109375 28.078125 
L 55.90625 0 
L 45.3125 0 
L 29.390625 21.484375 
L 13.484375 0 
L 2.875 0 
L 24.125 28.609375 
L 4.6875 54.6875 
L 15.28125 54.6875 
L 29.78125 35.203125 
L 44.28125 54.6875 
z
" id="DejaVuSans-120"/>
      <path d="M 5.515625 54.6875 
L 48.1875 54.6875 
L 48.1875 46.484375 
L 14.40625 7.171875 
L 48.1875 7.171875 
L 48.1875 0 
L 4.296875 0 
L 4.296875 8.203125 
L 38.09375 47.515625 
L 5.515625 47.515625 
z
" id="DejaVuSans-122"/>
     </defs>
     <g transform="translate(484.654625 70.996837)scale(0.1 -0.1)">
      <use xlink:href="#DejaVuSans-69"/>
      <use x="63.183594" xlink:href="#DejaVuSans-120"/>
      <use x="122.363281" xlink:href="#DejaVuSans-112"/>
      <use x="185.839844" xlink:href="#DejaVuSans-111"/>
      <use x="247.021484" xlink:href="#DejaVuSans-110"/>
      <use x="310.400391" xlink:href="#DejaVuSans-101"/>
      <use x="371.923828" xlink:href="#DejaVuSans-110"/>
      <use x="435.302734" xlink:href="#DejaVuSans-116"/>
      <use x="474.511719" xlink:href="#DejaVuSans-105"/>
      <use x="502.294922" xlink:href="#DejaVuSans-97"/>
      <use x="563.574219" xlink:href="#DejaVuSans-108"/>
      <use x="591.357422" xlink:href="#DejaVuSans-32"/>
      <use x="623.144531" xlink:href="#DejaVuSans-111"/>
      <use x="684.326172" xlink:href="#DejaVuSans-112"/>
      <use x="747.802734" xlink:href="#DejaVuSans-116"/>
      <use x="787.011719" xlink:href="#DejaVuSans-105"/>
      <use x="814.794922" xlink:href="#DejaVuSans-109"/>
      <use x="912.207031" xlink:href="#DejaVuSans-105"/>
      <use x="939.990234" xlink:href="#DejaVuSans-122"/>
      <use x="992.480469" xlink:href="#DejaVuSans-101"/>
      <use x="1054.003906" xlink:href="#DejaVuSans-100"/>
     </g>
    </g>
    <g id="line2d_23">
     <path d="M 456.654625 82.174962 
L 476.654625 82.174962 
" style="fill:none;stroke:#0000ff;stroke-linecap:square;stroke-opacity:0.8;stroke-width:1.5;"/>
    </g>
    <g id="line2d_24"/>
    <g id="text_18">
     <!-- Lognormal a optimized (mode 0.01) -->
     <defs>
      <path d="M 9.8125 72.90625 
L 19.671875 72.90625 
L 19.671875 8.296875 
L 55.171875 8.296875 
L 55.171875 0 
L 9.8125 0 
z
" id="DejaVuSans-76"/>
      <path d="M 10.6875 12.40625 
L 21 12.40625 
L 21 0 
L 10.6875 0 
z
" id="DejaVuSans-46"/>
     </defs>
     <g transform="translate(484.654625 85.674962)scale(0.1 -0.1)">
      <use xlink:href="#DejaVuSans-76"/>
      <use x="53.962891" xlink:href="#DejaVuSans-111"/>
      <use x="115.144531" xlink:href="#DejaVuSans-103"/>
      <use x="178.621094" xlink:href="#DejaVuSans-110"/>
      <use x="242" xlink:href="#DejaVuSans-111"/>
      <use x="303.181641" xlink:href="#DejaVuSans-114"/>
      <use x="342.544922" xlink:href="#DejaVuSans-109"/>
      <use x="439.957031" xlink:href="#DejaVuSans-97"/>
      <use x="501.236328" xlink:href="#DejaVuSans-108"/>
      <use x="529.019531" xlink:href="#DejaVuSans-32"/>
      <use x="560.806641" xlink:href="#DejaVuSans-97"/>
      <use x="622.085938" xlink:href="#DejaVuSans-32"/>
      <use x="653.873047" xlink:href="#DejaVuSans-111"/>
      <use x="715.054688" xlink:href="#DejaVuSans-112"/>
      <use x="778.53125" xlink:href="#DejaVuSans-116"/>
      <use x="817.740234" xlink:href="#DejaVuSans-105"/>
      <use x="845.523438" xlink:href="#DejaVuSans-109"/>
      <use x="942.935547" xlink:href="#DejaVuSans-105"/>
      <use x="970.71875" xlink:href="#DejaVuSans-122"/>
      <use x="1023.208984" xlink:href="#DejaVuSans-101"/>
      <use x="1084.732422" xlink:href="#DejaVuSans-100"/>
      <use x="1148.208984" xlink:href="#DejaVuSans-32"/>
      <use x="1179.996094" xlink:href="#DejaVuSans-40"/>
      <use x="1219.009766" xlink:href="#DejaVuSans-109"/>
      <use x="1316.421875" xlink:href="#DejaVuSans-111"/>
      <use x="1377.603516" xlink:href="#DejaVuSans-100"/>
      <use x="1441.080078" xlink:href="#DejaVuSans-101"/>
      <use x="1502.603516" xlink:href="#DejaVuSans-32"/>
      <use x="1534.390625" xlink:href="#DejaVuSans-48"/>
      <use x="1598.013672" xlink:href="#DejaVuSans-46"/>
      <use x="1629.800781" xlink:href="#DejaVuSans-48"/>
      <use x="1693.423828" xlink:href="#DejaVuSans-49"/>
      <use x="1757.046875" xlink:href="#DejaVuSans-41"/>
     </g>
    </g>
    <g id="line2d_25">
     <path d="M 456.654625 96.853087 
L 476.654625 96.853087 
" style="fill:none;stroke:#ff0000;stroke-linecap:square;stroke-opacity:0.8;stroke-width:1.5;"/>
    </g>
    <g id="line2d_26"/>
    <g id="text_19">
     <!-- Lognormal b optimized (mode 1.19) -->
     <defs>
      <path d="M 10.984375 1.515625 
L 10.984375 10.5 
Q 14.703125 8.734375 18.5 7.8125 
Q 22.3125 6.890625 25.984375 6.890625 
Q 35.75 6.890625 40.890625 13.453125 
Q 46.046875 20.015625 46.78125 33.40625 
Q 43.953125 29.203125 39.59375 26.953125 
Q 35.25 24.703125 29.984375 24.703125 
Q 19.046875 24.703125 12.671875 31.3125 
Q 6.296875 37.9375 6.296875 49.421875 
Q 6.296875 60.640625 12.9375 67.421875 
Q 19.578125 74.21875 30.609375 74.21875 
Q 43.265625 74.21875 49.921875 64.515625 
Q 56.59375 54.828125 56.59375 36.375 
Q 56.59375 19.140625 48.40625 8.859375 
Q 40.234375 -1.421875 26.421875 -1.421875 
Q 22.703125 -1.421875 18.890625 -0.6875 
Q 15.09375 0.046875 10.984375 1.515625 
z
M 30.609375 32.421875 
Q 37.25 32.421875 41.125 36.953125 
Q 45.015625 41.5 45.015625 49.421875 
Q 45.015625 57.28125 41.125 61.84375 
Q 37.25 66.40625 30.609375 66.40625 
Q 23.96875 66.40625 20.09375 61.84375 
Q 16.21875 57.28125 16.21875 49.421875 
Q 16.21875 41.5 20.09375 36.953125 
Q 23.96875 32.421875 30.609375 32.421875 
z
" id="DejaVuSans-57"/>
     </defs>
     <g transform="translate(484.654625 100.353087)scale(0.1 -0.1)">
      <use xlink:href="#DejaVuSans-76"/>
      <use x="53.962891" xlink:href="#DejaVuSans-111"/>
      <use x="115.144531" xlink:href="#DejaVuSans-103"/>
      <use x="178.621094" xlink:href="#DejaVuSans-110"/>
      <use x="242" xlink:href="#DejaVuSans-111"/>
      <use x="303.181641" xlink:href="#DejaVuSans-114"/>
      <use x="342.544922" xlink:href="#DejaVuSans-109"/>
      <use x="439.957031" xlink:href="#DejaVuSans-97"/>
      <use x="501.236328" xlink:href="#DejaVuSans-108"/>
      <use x="529.019531" xlink:href="#DejaVuSans-32"/>
      <use x="560.806641" xlink:href="#DejaVuSans-98"/>
      <use x="624.283203" xlink:href="#DejaVuSans-32"/>
      <use x="656.070312" xlink:href="#DejaVuSans-111"/>
      <use x="717.251953" xlink:href="#DejaVuSans-112"/>
      <use x="780.728516" xlink:href="#DejaVuSans-116"/>
      <use x="819.9375" xlink:href="#DejaVuSans-105"/>
      <use x="847.720703" xlink:href="#DejaVuSans-109"/>
      <use x="945.132812" xlink:href="#DejaVuSans-105"/>
      <use x="972.916016" xlink:href="#DejaVuSans-122"/>
      <use x="1025.40625" xlink:href="#DejaVuSans-101"/>
      <use x="1086.929688" xlink:href="#DejaVuSans-100"/>
      <use x="1150.40625" xlink:href="#DejaVuSans-32"/>
      <use x="1182.193359" xlink:href="#DejaVuSans-40"/>
      <use x="1221.207031" xlink:href="#DejaVuSans-109"/>
      <use x="1318.619141" xlink:href="#DejaVuSans-111"/>
      <use x="1379.800781" xlink:href="#DejaVuSans-100"/>
      <use x="1443.277344" xlink:href="#DejaVuSans-101"/>
      <use x="1504.800781" xlink:href="#DejaVuSans-32"/>
      <use x="1536.587891" xlink:href="#DejaVuSans-49"/>
      <use x="1600.210938" xlink:href="#DejaVuSans-46"/>
      <use x="1631.998047" xlink:href="#DejaVuSans-49"/>
      <use x="1695.621094" xlink:href="#DejaVuSans-57"/>
      <use x="1759.244141" xlink:href="#DejaVuSans-41"/>
     </g>
    </g>
    <g id="line2d_27">
     <path d="M 456.654625 111.531212 
L 476.654625 111.531212 
" style="fill:none;stroke:#00bfbf;stroke-linecap:square;stroke-opacity:0.8;stroke-width:1.5;"/>
    </g>
    <g id="line2d_28"/>
    <g id="text_20">
     <!-- Lognormal c optimized (mode 3.21) -->
     <g transform="translate(484.654625 115.031212)scale(0.1 -0.1)">
      <use xlink:href="#DejaVuSans-76"/>
      <use x="53.962891" xlink:href="#DejaVuSans-111"/>
      <use x="115.144531" xlink:href="#DejaVuSans-103"/>
      <use x="178.621094" xlink:href="#DejaVuSans-110"/>
      <use x="242" xlink:href="#DejaVuSans-111"/>
      <use x="303.181641" xlink:href="#DejaVuSans-114"/>
      <use x="342.544922" xlink:href="#DejaVuSans-109"/>
      <use x="439.957031" xlink:href="#DejaVuSans-97"/>
      <use x="501.236328" xlink:href="#DejaVuSans-108"/>
      <use x="529.019531" xlink:href="#DejaVuSans-32"/>
      <use x="560.806641" xlink:href="#DejaVuSans-99"/>
      <use x="615.787109" xlink:href="#DejaVuSans-32"/>
      <use x="647.574219" xlink:href="#DejaVuSans-111"/>
      <use x="708.755859" xlink:href="#DejaVuSans-112"/>
      <use x="772.232422" xlink:href="#DejaVuSans-116"/>
      <use x="811.441406" xlink:href="#DejaVuSans-105"/>
      <use x="839.224609" xlink:href="#DejaVuSans-109"/>
      <use x="936.636719" xlink:href="#DejaVuSans-105"/>
      <use x="964.419922" xlink:href="#DejaVuSans-122"/>
      <use x="1016.910156" xlink:href="#DejaVuSans-101"/>
      <use x="1078.433594" xlink:href="#DejaVuSans-100"/>
      <use x="1141.910156" xlink:href="#DejaVuSans-32"/>
      <use x="1173.697266" xlink:href="#DejaVuSans-40"/>
      <use x="1212.710938" xlink:href="#DejaVuSans-109"/>
      <use x="1310.123047" xlink:href="#DejaVuSans-111"/>
      <use x="1371.304688" xlink:href="#DejaVuSans-100"/>
      <use x="1434.78125" xlink:href="#DejaVuSans-101"/>
      <use x="1496.304688" xlink:href="#DejaVuSans-32"/>
      <use x="1528.091797" xlink:href="#DejaVuSans-51"/>
      <use x="1591.714844" xlink:href="#DejaVuSans-46"/>
      <use x="1623.501953" xlink:href="#DejaVuSans-50"/>
      <use x="1687.125" xlink:href="#DejaVuSans-49"/>
      <use x="1750.748047" xlink:href="#DejaVuSans-41"/>
     </g>
    </g>
    <g id="line2d_29">
     <path d="M 456.654625 126.209337 
L 476.654625 126.209337 
" style="fill:none;stroke:#bfbf00;stroke-linecap:square;stroke-opacity:0.8;stroke-width:1.5;"/>
    </g>
    <g id="line2d_30"/>
    <g id="text_21">
     <!-- Lognormal d optimized (mode 4.84) -->
     <defs>
      <path d="M 31.78125 34.625 
Q 24.75 34.625 20.71875 30.859375 
Q 16.703125 27.09375 16.703125 20.515625 
Q 16.703125 13.921875 20.71875 10.15625 
Q 24.75 6.390625 31.78125 6.390625 
Q 38.8125 6.390625 42.859375 10.171875 
Q 46.921875 13.96875 46.921875 20.515625 
Q 46.921875 27.09375 42.890625 30.859375 
Q 38.875 34.625 31.78125 34.625 
z
M 21.921875 38.8125 
Q 15.578125 40.375 12.03125 44.71875 
Q 8.5 49.078125 8.5 55.328125 
Q 8.5 64.0625 14.71875 69.140625 
Q 20.953125 74.21875 31.78125 74.21875 
Q 42.671875 74.21875 48.875 69.140625 
Q 55.078125 64.0625 55.078125 55.328125 
Q 55.078125 49.078125 51.53125 44.71875 
Q 48 40.375 41.703125 38.8125 
Q 48.828125 37.15625 52.796875 32.3125 
Q 56.78125 27.484375 56.78125 20.515625 
Q 56.78125 9.90625 50.3125 4.234375 
Q 43.84375 -1.421875 31.78125 -1.421875 
Q 19.734375 -1.421875 13.25 4.234375 
Q 6.78125 9.90625 6.78125 20.515625 
Q 6.78125 27.484375 10.78125 32.3125 
Q 14.796875 37.15625 21.921875 38.8125 
z
M 18.3125 54.390625 
Q 18.3125 48.734375 21.84375 45.5625 
Q 25.390625 42.390625 31.78125 42.390625 
Q 38.140625 42.390625 41.71875 45.5625 
Q 45.3125 48.734375 45.3125 54.390625 
Q 45.3125 60.0625 41.71875 63.234375 
Q 38.140625 66.40625 31.78125 66.40625 
Q 25.390625 66.40625 21.84375 63.234375 
Q 18.3125 60.0625 18.3125 54.390625 
z
" id="DejaVuSans-56"/>
     </defs>
     <g transform="translate(484.654625 129.709337)scale(0.1 -0.1)">
      <use xlink:href="#DejaVuSans-76"/>
      <use x="53.962891" xlink:href="#DejaVuSans-111"/>
      <use x="115.144531" xlink:href="#DejaVuSans-103"/>
      <use x="178.621094" xlink:href="#DejaVuSans-110"/>
      <use x="242" xlink:href="#DejaVuSans-111"/>
      <use x="303.181641" xlink:href="#DejaVuSans-114"/>
      <use x="342.544922" xlink:href="#DejaVuSans-109"/>
      <use x="439.957031" xlink:href="#DejaVuSans-97"/>
      <use x="501.236328" xlink:href="#DejaVuSans-108"/>
      <use x="529.019531" xlink:href="#DejaVuSans-32"/>
      <use x="560.806641" xlink:href="#DejaVuSans-100"/>
      <use x="624.283203" xlink:href="#DejaVuSans-32"/>
      <use x="656.070312" xlink:href="#DejaVuSans-111"/>
      <use x="717.251953" xlink:href="#DejaVuSans-112"/>
      <use x="780.728516" xlink:href="#DejaVuSans-116"/>
      <use x="819.9375" xlink:href="#DejaVuSans-105"/>
      <use x="847.720703" xlink:href="#DejaVuSans-109"/>
      <use x="945.132812" xlink:href="#DejaVuSans-105"/>
      <use x="972.916016" xlink:href="#DejaVuSans-122"/>
      <use x="1025.40625" xlink:href="#DejaVuSans-101"/>
      <use x="1086.929688" xlink:href="#DejaVuSans-100"/>
      <use x="1150.40625" xlink:href="#DejaVuSans-32"/>
      <use x="1182.193359" xlink:href="#DejaVuSans-40"/>
      <use x="1221.207031" xlink:href="#DejaVuSans-109"/>
      <use x="1318.619141" xlink:href="#DejaVuSans-111"/>
      <use x="1379.800781" xlink:href="#DejaVuSans-100"/>
      <use x="1443.277344" xlink:href="#DejaVuSans-101"/>
      <use x="1504.800781" xlink:href="#DejaVuSans-32"/>
      <use x="1536.587891" xlink:href="#DejaVuSans-52"/>
      <use x="1600.210938" xlink:href="#DejaVuSans-46"/>
      <use x="1631.998047" xlink:href="#DejaVuSans-56"/>
      <use x="1695.621094" xlink:href="#DejaVuSans-52"/>
      <use x="1759.244141" xlink:href="#DejaVuSans-41"/>
     </g>
    </g>
    <g id="line2d_31">
     <path d="M 456.654625 140.887462 
L 476.654625 140.887462 
" style="fill:none;stroke:#000000;stroke-linecap:square;stroke-width:1.5;"/>
    </g>
    <g id="line2d_32"/>
    <g id="text_22">
     <!-- Exp-lognormal mixture model -->
     <defs>
      <path d="M 4.890625 31.390625 
L 31.203125 31.390625 
L 31.203125 23.390625 
L 4.890625 23.390625 
z
" id="DejaVuSans-45"/>
     </defs>
     <g transform="translate(484.654625 144.387462)scale(0.1 -0.1)">
      <use xlink:href="#DejaVuSans-69"/>
      <use x="63.183594" xlink:href="#DejaVuSans-120"/>
      <use x="122.363281" xlink:href="#DejaVuSans-112"/>
      <use x="185.839844" xlink:href="#DejaVuSans-45"/>
      <use x="221.923828" xlink:href="#DejaVuSans-108"/>
      <use x="249.707031" xlink:href="#DejaVuSans-111"/>
      <use x="310.888672" xlink:href="#DejaVuSans-103"/>
      <use x="374.365234" xlink:href="#DejaVuSans-110"/>
      <use x="437.744141" xlink:href="#DejaVuSans-111"/>
      <use x="498.925781" xlink:href="#DejaVuSans-114"/>
      <use x="538.289062" xlink:href="#DejaVuSans-109"/>
      <use x="635.701172" xlink:href="#DejaVuSans-97"/>
      <use x="696.980469" xlink:href="#DejaVuSans-108"/>
      <use x="724.763672" xlink:href="#DejaVuSans-32"/>
      <use x="756.550781" xlink:href="#DejaVuSans-109"/>
      <use x="853.962891" xlink:href="#DejaVuSans-105"/>
      <use x="881.746094" xlink:href="#DejaVuSans-120"/>
      <use x="940.925781" xlink:href="#DejaVuSans-116"/>
      <use x="980.134766" xlink:href="#DejaVuSans-117"/>
      <use x="1043.513672" xlink:href="#DejaVuSans-114"/>
      <use x="1082.376953" xlink:href="#DejaVuSans-101"/>
      <use x="1143.900391" xlink:href="#DejaVuSans-32"/>
      <use x="1175.6875" xlink:href="#DejaVuSans-109"/>
      <use x="1273.099609" xlink:href="#DejaVuSans-111"/>
      <use x="1334.28125" xlink:href="#DejaVuSans-100"/>
      <use x="1397.757812" xlink:href="#DejaVuSans-101"/>
      <use x="1459.28125" xlink:href="#DejaVuSans-108"/>
     </g>
    </g>
    <g id="patch_55">
     <path d="M 456.654625 159.065587 
L 476.654625 159.065587 
L 476.654625 152.065587 
L 456.654625 152.065587 
z
" style="fill:#808080;"/>
    </g>
    <g id="text_23">
     <!-- Whole-paranome (weighted) -->
     <defs>
      <path d="M 3.328125 72.90625 
L 13.28125 72.90625 
L 28.609375 11.28125 
L 43.890625 72.90625 
L 54.984375 72.90625 
L 70.3125 11.28125 
L 85.59375 72.90625 
L 95.609375 72.90625 
L 77.296875 0 
L 64.890625 0 
L 49.515625 63.28125 
L 33.984375 0 
L 21.578125 0 
z
" id="DejaVuSans-87"/>
     </defs>
     <g transform="translate(484.654625 159.065587)scale(0.1 -0.1)">
      <use xlink:href="#DejaVuSans-87"/>
      <use x="98.876953" xlink:href="#DejaVuSans-104"/>
      <use x="162.255859" xlink:href="#DejaVuSans-111"/>
      <use x="223.4375" xlink:href="#DejaVuSans-108"/>
      <use x="251.220703" xlink:href="#DejaVuSans-101"/>
      <use x="312.744141" xlink:href="#DejaVuSans-45"/>
      <use x="348.828125" xlink:href="#DejaVuSans-112"/>
      <use x="412.304688" xlink:href="#DejaVuSans-97"/>
      <use x="473.583984" xlink:href="#DejaVuSans-114"/>
      <use x="514.697266" xlink:href="#DejaVuSans-97"/>
      <use x="575.976562" xlink:href="#DejaVuSans-110"/>
      <use x="639.355469" xlink:href="#DejaVuSans-111"/>
      <use x="700.537109" xlink:href="#DejaVuSans-109"/>
      <use x="797.949219" xlink:href="#DejaVuSans-101"/>
      <use x="859.472656" xlink:href="#DejaVuSans-32"/>
      <use x="891.259766" xlink:href="#DejaVuSans-40"/>
      <use x="930.273438" xlink:href="#DejaVuSans-119"/>
      <use x="1012.060547" xlink:href="#DejaVuSans-101"/>
      <use x="1073.583984" xlink:href="#DejaVuSans-105"/>
      <use x="1101.367188" xlink:href="#DejaVuSans-103"/>
      <use x="1164.84375" xlink:href="#DejaVuSans-104"/>
      <use x="1228.222656" xlink:href="#DejaVuSans-116"/>
      <use x="1267.431641" xlink:href="#DejaVuSans-101"/>
      <use x="1328.955078" xlink:href="#DejaVuSans-100"/>
      <use x="1392.431641" xlink:href="#DejaVuSans-41"/>
     </g>
    </g>
   </g>
  </g>
  <g id="text_24">
   <!-- $K_\mathregular{S}$ distribution for Aquilegia_coerulea.tsv.ks.tsv -->
   <defs>
    <path d="M 34.1875 63.1875 
L 20.796875 26.90625 
L 47.609375 26.90625 
z
M 28.609375 72.90625 
L 39.796875 72.90625 
L 67.578125 0 
L 57.328125 0 
L 50.6875 18.703125 
L 17.828125 18.703125 
L 11.1875 0 
L 0.78125 0 
z
" id="DejaVuSans-65"/>
    <path d="M 14.796875 27.296875 
Q 14.796875 17.390625 18.875 11.75 
Q 22.953125 6.109375 30.078125 6.109375 
Q 37.203125 6.109375 41.296875 11.75 
Q 45.40625 17.390625 45.40625 27.296875 
Q 45.40625 37.203125 41.296875 42.84375 
Q 37.203125 48.484375 30.078125 48.484375 
Q 22.953125 48.484375 18.875 42.84375 
Q 14.796875 37.203125 14.796875 27.296875 
z
M 45.40625 8.203125 
Q 42.578125 3.328125 38.25 0.953125 
Q 33.9375 -1.421875 27.875 -1.421875 
Q 17.96875 -1.421875 11.734375 6.484375 
Q 5.515625 14.40625 5.515625 27.296875 
Q 5.515625 40.1875 11.734375 48.09375 
Q 17.96875 56 27.875 56 
Q 33.9375 56 38.25 53.625 
Q 42.578125 51.265625 45.40625 46.390625 
L 45.40625 54.6875 
L 54.390625 54.6875 
L 54.390625 -20.796875 
L 45.40625 -20.796875 
z
" id="DejaVuSans-113"/>
    <path d="M 50.984375 -16.609375 
L 50.984375 -23.578125 
L -0.984375 -23.578125 
L -0.984375 -16.609375 
z
" id="DejaVuSans-95"/>
    <path d="M 2.984375 54.6875 
L 12.5 54.6875 
L 29.59375 8.796875 
L 46.6875 54.6875 
L 56.203125 54.6875 
L 35.6875 0 
L 23.484375 0 
z
" id="DejaVuSans-118"/>
    <path d="M 9.078125 75.984375 
L 18.109375 75.984375 
L 18.109375 31.109375 
L 44.921875 54.6875 
L 56.390625 54.6875 
L 27.390625 29.109375 
L 57.625 0 
L 45.90625 0 
L 18.109375 26.703125 
L 18.109375 0 
L 9.078125 0 
z
" id="DejaVuSans-107"/>
   </defs>
   <g transform="translate(217.8 19.2)scale(0.12 -0.12)">
    <use transform="translate(0 0.015625)" xlink:href="#DejaVuSans-Oblique-75"/>
    <use transform="translate(65.576172 -16.390625)scale(0.7)" xlink:href="#DejaVuSans-83"/>
    <use transform="translate(112.744141 0.015625)" xlink:href="#DejaVuSans-32"/>
    <use transform="translate(144.53125 0.015625)" xlink:href="#DejaVuSans-100"/>
    <use transform="translate(208.007812 0.015625)" xlink:href="#DejaVuSans-105"/>
    <use transform="translate(235.791016 0.015625)" xlink:href="#DejaVuSans-115"/>
    <use transform="translate(287.890625 0.015625)" xlink:href="#DejaVuSans-116"/>
    <use transform="translate(327.099609 0.015625)" xlink:href="#DejaVuSans-114"/>
    <use transform="translate(368.212891 0.015625)" xlink:href="#DejaVuSans-105"/>
    <use transform="translate(395.996094 0.015625)" xlink:href="#DejaVuSans-98"/>
    <use transform="translate(459.472656 0.015625)" xlink:href="#DejaVuSans-117"/>
    <use transform="translate(522.851562 0.015625)" xlink:href="#DejaVuSans-116"/>
    <use transform="translate(562.060547 0.015625)" xlink:href="#DejaVuSans-105"/>
    <use transform="translate(589.84375 0.015625)" xlink:href="#DejaVuSans-111"/>
    <use transform="translate(651.025391 0.015625)" xlink:href="#DejaVuSans-110"/>
    <use transform="translate(714.404297 0.015625)" xlink:href="#DejaVuSans-32"/>
    <use transform="translate(746.191406 0.015625)" xlink:href="#DejaVuSans-102"/>
    <use transform="translate(781.396484 0.015625)" xlink:href="#DejaVuSans-111"/>
    <use transform="translate(842.578125 0.015625)" xlink:href="#DejaVuSans-114"/>
    <use transform="translate(883.691406 0.015625)" xlink:href="#DejaVuSans-32"/>
    <use transform="translate(915.478516 0.015625)" xlink:href="#DejaVuSans-65"/>
    <use transform="translate(983.886719 0.015625)" xlink:href="#DejaVuSans-113"/>
    <use transform="translate(1047.363281 0.015625)" xlink:href="#DejaVuSans-117"/>
    <use transform="translate(1110.742188 0.015625)" xlink:href="#DejaVuSans-105"/>
    <use transform="translate(1138.525391 0.015625)" xlink:href="#DejaVuSans-108"/>
    <use transform="translate(1166.308594 0.015625)" xlink:href="#DejaVuSans-101"/>
    <use transform="translate(1227.832031 0.015625)" xlink:href="#DejaVuSans-103"/>
    <use transform="translate(1291.308594 0.015625)" xlink:href="#DejaVuSans-105"/>
    <use transform="translate(1319.091797 0.015625)" xlink:href="#DejaVuSans-97"/>
    <use transform="translate(1380.371094 0.015625)" xlink:href="#DejaVuSans-95"/>
    <use transform="translate(1430.371094 0.015625)" xlink:href="#DejaVuSans-99"/>
    <use transform="translate(1485.351562 0.015625)" xlink:href="#DejaVuSans-111"/>
    <use transform="translate(1546.533203 0.015625)" xlink:href="#DejaVuSans-101"/>
    <use transform="translate(1608.056641 0.015625)" xlink:href="#DejaVuSans-114"/>
    <use transform="translate(1649.169922 0.015625)" xlink:href="#DejaVuSans-117"/>
    <use transform="translate(1712.548828 0.015625)" xlink:href="#DejaVuSans-108"/>
    <use transform="translate(1740.332031 0.015625)" xlink:href="#DejaVuSans-101"/>
    <use transform="translate(1801.855469 0.015625)" xlink:href="#DejaVuSans-97"/>
    <use transform="translate(1863.134766 0.015625)" xlink:href="#DejaVuSans-46"/>
    <use transform="translate(1894.921875 0.015625)" xlink:href="#DejaVuSans-116"/>
    <use transform="translate(1934.130859 0.015625)" xlink:href="#DejaVuSans-115"/>
    <use transform="translate(1986.230469 0.015625)" xlink:href="#DejaVuSans-118"/>
    <use transform="translate(2045.410156 0.015625)" xlink:href="#DejaVuSans-46"/>
    <use transform="translate(2077.197266 0.015625)" xlink:href="#DejaVuSans-107"/>
    <use transform="translate(2135.107422 0.015625)" xlink:href="#DejaVuSans-115"/>
    <use transform="translate(2187.207031 0.015625)" xlink:href="#DejaVuSans-46"/>
    <use transform="translate(2218.994141 0.015625)" xlink:href="#DejaVuSans-116"/>
    <use transform="translate(2258.203125 0.015625)" xlink:href="#DejaVuSans-115"/>
    <use transform="translate(2310.302734 0.015625)" xlink:href="#DejaVuSans-118"/>
   </g>
  </g>
 </g>
 <defs>
  <clipPath id="pee894e63ce">
   <rect height="435.984" width="650.445" x="55.56" y="10.8"/>
  </clipPath>
 </defs>
</svg>
