<?xml version="1.0" encoding="utf-8" standalone="no"?>
<!DOCTYPE svg PUBLIC "-//W3C//DTD SVG 1.1//EN"
  "http://www.w3.org/Graphics/SVG/1.1/DTD/svg11.dtd">
<!-- Created with matplotlib (https://matplotlib.org/) -->
<svg height="345.6pt" version="1.1" viewBox="0 0 460.8 345.6" width="460.8pt" xmlns="http://www.w3.org/2000/svg" xmlns:xlink="http://www.w3.org/1999/xlink">
 <defs>
  <style type="text/css">
*{stroke-linecap:butt;stroke-linejoin:round;}
  </style>
 </defs>
 <g id="figure_1">
  <g id="patch_1">
   <path d="M 0 345.6 
L 460.8 345.6 
L 460.8 0 
L 0 0 
z
" style="fill:#ffffff;"/>
  </g>
  <g id="axes_1">
   <g id="patch_2">
    <path d="M 58.44 302.64 
L 450 302.64 
L 450 25.44 
L 58.44 25.44 
z
" style="fill:#ffffff;"/>
   </g>
   <g id="patch_3">
    <path clip-path="url(#pca7fadcff2)" d="M -102.244038 302.64 
L -99.022738 302.64 
L -99.022738 302.64 
L -102.244038 302.64 
z
" style="fill:#008000;opacity:0.8;"/>
   </g>
   <g id="patch_4">
    <path clip-path="url(#pca7fadcff2)" d="M -98.217413 302.64 
L -94.996113 302.64 
L -94.996113 302.64 
L -98.217413 302.64 
z
" style="fill:#008000;opacity:0.8;"/>
   </g>
   <g id="patch_5">
    <path clip-path="url(#pca7fadcff2)" d="M -94.190788 302.64 
L -90.969488 302.64 
L -90.969488 302.64 
L -94.190788 302.64 
z
" style="fill:#008000;opacity:0.8;"/>
   </g>
   <g id="patch_6">
    <path clip-path="url(#pca7fadcff2)" d="M -90.164163 302.64 
L -86.942863 302.64 
L -86.942863 302.64 
L -90.164163 302.64 
z
" style="fill:#008000;opacity:0.8;"/>
   </g>
   <g id="patch_7">
    <path clip-path="url(#pca7fadcff2)" d="M -86.137538 302.64 
L -82.916238 302.64 
L -82.916238 302.64 
L -86.137538 302.64 
z
" style="fill:#008000;opacity:0.8;"/>
   </g>
   <g id="patch_8">
    <path clip-path="url(#pca7fadcff2)" d="M -82.110913 302.64 
L -78.889613 302.64 
L -78.889613 302.64 
L -82.110913 302.64 
z
" style="fill:#008000;opacity:0.8;"/>
   </g>
   <g id="patch_9">
    <path clip-path="url(#pca7fadcff2)" d="M -78.084288 302.64 
L -74.862988 302.64 
L -74.862988 302.64 
L -78.084288 302.64 
z
" style="fill:#008000;opacity:0.8;"/>
   </g>
   <g id="patch_10">
    <path clip-path="url(#pca7fadcff2)" d="M -74.057663 302.64 
L -70.836363 302.64 
L -70.836363 302.64 
L -74.057663 302.64 
z
" style="fill:#008000;opacity:0.8;"/>
   </g>
   <g id="patch_11">
    <path clip-path="url(#pca7fadcff2)" d="M -70.031038 302.64 
L -66.809739 302.64 
L -66.809739 302.64 
L -70.031038 302.64 
z
" style="fill:#008000;opacity:0.8;"/>
   </g>
   <g id="patch_12">
    <path clip-path="url(#pca7fadcff2)" d="M -66.004414 302.64 
L -62.783114 302.64 
L -62.783114 302.64 
L -66.004414 302.64 
z
" style="fill:#008000;opacity:0.8;"/>
   </g>
   <g id="patch_13">
    <path clip-path="url(#pca7fadcff2)" d="M -61.977789 302.64 
L -58.756489 302.64 
L -58.756489 302.64 
L -61.977789 302.64 
z
" style="fill:#008000;opacity:0.8;"/>
   </g>
   <g id="patch_14">
    <path clip-path="url(#pca7fadcff2)" d="M -57.951164 302.64 
L -54.729864 302.64 
L -54.729864 302.64 
L -57.951164 302.64 
z
" style="fill:#008000;opacity:0.8;"/>
   </g>
   <g id="patch_15">
    <path clip-path="url(#pca7fadcff2)" d="M -53.924539 302.64 
L -50.703239 302.64 
L -50.703239 302.64 
L -53.924539 302.64 
z
" style="fill:#008000;opacity:0.8;"/>
   </g>
   <g id="patch_16">
    <path clip-path="url(#pca7fadcff2)" d="M -49.897914 302.64 
L -46.676614 302.64 
L -46.676614 302.64 
L -49.897914 302.64 
z
" style="fill:#008000;opacity:0.8;"/>
   </g>
   <g id="patch_17">
    <path clip-path="url(#pca7fadcff2)" d="M -45.871289 302.64 
L -42.649989 302.64 
L -42.649989 302.64 
L -45.871289 302.64 
z
" style="fill:#008000;opacity:0.8;"/>
   </g>
   <g id="patch_18">
    <path clip-path="url(#pca7fadcff2)" d="M -41.844664 302.64 
L -38.623364 302.64 
L -38.623364 302.64 
L -41.844664 302.64 
z
" style="fill:#008000;opacity:0.8;"/>
   </g>
   <g id="patch_19">
    <path clip-path="url(#pca7fadcff2)" d="M -37.818039 302.64 
L -34.596739 302.64 
L -34.596739 302.64 
L -37.818039 302.64 
z
" style="fill:#008000;opacity:0.8;"/>
   </g>
   <g id="patch_20">
    <path clip-path="url(#pca7fadcff2)" d="M -33.791414 302.64 
L -30.570114 302.64 
L -30.570114 302.64 
L -33.791414 302.64 
z
" style="fill:#008000;opacity:0.8;"/>
   </g>
   <g id="patch_21">
    <path clip-path="url(#pca7fadcff2)" d="M -29.764789 302.64 
L -26.543489 302.64 
L -26.543489 302.64 
L -29.764789 302.64 
z
" style="fill:#008000;opacity:0.8;"/>
   </g>
   <g id="patch_22">
    <path clip-path="url(#pca7fadcff2)" d="M -25.738164 302.64 
L -22.516864 302.64 
L -22.516864 302.64 
L -25.738164 302.64 
z
" style="fill:#008000;opacity:0.8;"/>
   </g>
   <g id="patch_23">
    <path clip-path="url(#pca7fadcff2)" d="M -21.711539 302.64 
L -18.490239 302.64 
L -18.490239 302.64 
L -21.711539 302.64 
z
" style="fill:#008000;opacity:0.8;"/>
   </g>
   <g id="patch_24">
    <path clip-path="url(#pca7fadcff2)" d="M -17.684915 302.64 
L -14.463615 302.64 
L -14.463615 302.64 
L -17.684915 302.64 
z
" style="fill:#008000;opacity:0.8;"/>
   </g>
   <g id="patch_25">
    <path clip-path="url(#pca7fadcff2)" d="M -13.65829 302.64 
L -10.43699 302.64 
L -10.43699 302.64 
L -13.65829 302.64 
z
" style="fill:#008000;opacity:0.8;"/>
   </g>
   <g id="patch_26">
    <path clip-path="url(#pca7fadcff2)" d="M -9.631665 302.64 
L -6.410365 302.64 
L -6.410365 302.64 
L -9.631665 302.64 
z
" style="fill:#008000;opacity:0.8;"/>
   </g>
   <g id="patch_27">
    <path clip-path="url(#pca7fadcff2)" d="M -5.60504 302.64 
L -2.38374 302.64 
L -2.38374 302.64 
L -5.60504 302.64 
z
" style="fill:#008000;opacity:0.8;"/>
   </g>
   <g id="patch_28">
    <path clip-path="url(#pca7fadcff2)" d="M -1.578415 302.64 
L 1.642885 302.64 
L 1.642885 302.64 
L -1.578415 302.64 
z
" style="fill:#008000;opacity:0.8;"/>
   </g>
   <g id="patch_29">
    <path clip-path="url(#pca7fadcff2)" d="M 2.44821 302.64 
L 5.66951 302.64 
L 5.66951 302.64 
L 2.44821 302.64 
z
" style="fill:#008000;opacity:0.8;"/>
   </g>
   <g id="patch_30">
    <path clip-path="url(#pca7fadcff2)" d="M 6.474835 302.64 
L 9.696135 302.64 
L 9.696135 302.64 
L 6.474835 302.64 
z
" style="fill:#008000;opacity:0.8;"/>
   </g>
   <g id="patch_31">
    <path clip-path="url(#pca7fadcff2)" d="M 10.50146 302.64 
L 13.72276 302.64 
L 13.72276 302.64 
L 10.50146 302.64 
z
" style="fill:#008000;opacity:0.8;"/>
   </g>
   <g id="patch_32">
    <path clip-path="url(#pca7fadcff2)" d="M 14.528085 302.64 
L 17.749385 302.64 
L 17.749385 302.64 
L 14.528085 302.64 
z
" style="fill:#008000;opacity:0.8;"/>
   </g>
   <g id="patch_33">
    <path clip-path="url(#pca7fadcff2)" d="M 18.55471 302.64 
L 21.77601 302.64 
L 21.77601 302.64 
L 18.55471 302.64 
z
" style="fill:#008000;opacity:0.8;"/>
   </g>
   <g id="patch_34">
    <path clip-path="url(#pca7fadcff2)" d="M 22.581335 302.64 
L 25.802635 302.64 
L 25.802635 302.64 
L 22.581335 302.64 
z
" style="fill:#008000;opacity:0.8;"/>
   </g>
   <g id="patch_35">
    <path clip-path="url(#pca7fadcff2)" d="M 26.60796 302.64 
L 29.82926 302.64 
L 29.82926 302.64 
L 26.60796 302.64 
z
" style="fill:#008000;opacity:0.8;"/>
   </g>
   <g id="patch_36">
    <path clip-path="url(#pca7fadcff2)" d="M 30.634585 302.64 
L 33.855884 302.64 
L 33.855884 302.64 
L 30.634585 302.64 
z
" style="fill:#008000;opacity:0.8;"/>
   </g>
   <g id="patch_37">
    <path clip-path="url(#pca7fadcff2)" d="M 34.661209 302.64 
L 37.882509 302.64 
L 37.882509 302.64 
L 34.661209 302.64 
z
" style="fill:#008000;opacity:0.8;"/>
   </g>
   <g id="patch_38">
    <path clip-path="url(#pca7fadcff2)" d="M 38.687834 302.64 
L 41.909134 302.64 
L 41.909134 302.64 
L 38.687834 302.64 
z
" style="fill:#008000;opacity:0.8;"/>
   </g>
   <g id="patch_39">
    <path clip-path="url(#pca7fadcff2)" d="M 42.714459 302.64 
L 45.935759 302.64 
L 45.935759 302.64 
L 42.714459 302.64 
z
" style="fill:#008000;opacity:0.8;"/>
   </g>
   <g id="patch_40">
    <path clip-path="url(#pca7fadcff2)" d="M 46.741084 302.64 
L 49.962384 302.64 
L 49.962384 302.64 
L 46.741084 302.64 
z
" style="fill:#008000;opacity:0.8;"/>
   </g>
   <g id="patch_41">
    <path clip-path="url(#pca7fadcff2)" d="M 50.767709 302.64 
L 53.989009 302.64 
L 53.989009 302.64 
L 50.767709 302.64 
z
" style="fill:#008000;opacity:0.8;"/>
   </g>
   <g id="patch_42">
    <path clip-path="url(#pca7fadcff2)" d="M 54.794334 302.64 
L 58.015634 302.64 
L 58.015634 302.64 
L 54.794334 302.64 
z
" style="fill:#008000;opacity:0.8;"/>
   </g>
   <g id="patch_43">
    <path clip-path="url(#pca7fadcff2)" d="M 58.820959 302.64 
L 62.042259 302.64 
L 62.042259 302.64 
L 58.820959 302.64 
z
" style="fill:#008000;opacity:0.8;"/>
   </g>
   <g id="patch_44">
    <path clip-path="url(#pca7fadcff2)" d="M 62.847584 302.64 
L 66.068884 302.64 
L 66.068884 302.64 
L 62.847584 302.64 
z
" style="fill:#008000;opacity:0.8;"/>
   </g>
   <g id="patch_45">
    <path clip-path="url(#pca7fadcff2)" d="M 66.874209 302.64 
L 70.095509 302.64 
L 70.095509 302.64 
L 66.874209 302.64 
z
" style="fill:#008000;opacity:0.8;"/>
   </g>
   <g id="patch_46">
    <path clip-path="url(#pca7fadcff2)" d="M 70.900834 302.64 
L 74.122134 302.64 
L 74.122134 302.64 
L 70.900834 302.64 
z
" style="fill:#008000;opacity:0.8;"/>
   </g>
   <g id="patch_47">
    <path clip-path="url(#pca7fadcff2)" d="M 74.927459 302.64 
L 78.148759 302.64 
L 78.148759 302.64 
L 74.927459 302.64 
z
" style="fill:#008000;opacity:0.8;"/>
   </g>
   <g id="patch_48">
    <path clip-path="url(#pca7fadcff2)" d="M 78.954084 302.64 
L 82.175384 302.64 
L 82.175384 302.64 
L 78.954084 302.64 
z
" style="fill:#008000;opacity:0.8;"/>
   </g>
   <g id="patch_49">
    <path clip-path="url(#pca7fadcff2)" d="M 82.980709 302.64 
L 86.202008 302.64 
L 86.202008 302.64 
L 82.980709 302.64 
z
" style="fill:#008000;opacity:0.8;"/>
   </g>
   <g id="patch_50">
    <path clip-path="url(#pca7fadcff2)" d="M 87.007333 302.64 
L 90.228633 302.64 
L 90.228633 302.64 
L 87.007333 302.64 
z
" style="fill:#008000;opacity:0.8;"/>
   </g>
   <g id="patch_51">
    <path clip-path="url(#pca7fadcff2)" d="M 91.033958 302.64 
L 94.255258 302.64 
L 94.255258 302.64 
L 91.033958 302.64 
z
" style="fill:#008000;opacity:0.8;"/>
   </g>
   <g id="patch_52">
    <path clip-path="url(#pca7fadcff2)" d="M 95.060583 302.64 
L 98.281883 302.64 
L 98.281883 302.64 
L 95.060583 302.64 
z
" style="fill:#008000;opacity:0.8;"/>
   </g>
   <g id="patch_53">
    <path clip-path="url(#pca7fadcff2)" d="M 99.087208 302.64 
L 102.308508 302.64 
L 102.308508 302.487839 
L 99.087208 302.487839 
z
" style="fill:#008000;opacity:0.8;"/>
   </g>
   <g id="patch_54">
    <path clip-path="url(#pca7fadcff2)" d="M 103.113833 302.64 
L 106.335133 302.64 
L 106.335133 302.64 
L 103.113833 302.64 
z
" style="fill:#008000;opacity:0.8;"/>
   </g>
   <g id="patch_55">
    <path clip-path="url(#pca7fadcff2)" d="M 107.140458 302.64 
L 110.361758 302.64 
L 110.361758 302.64 
L 107.140458 302.64 
z
" style="fill:#008000;opacity:0.8;"/>
   </g>
   <g id="patch_56">
    <path clip-path="url(#pca7fadcff2)" d="M 111.167083 302.64 
L 114.388383 302.64 
L 114.388383 302.64 
L 111.167083 302.64 
z
" style="fill:#008000;opacity:0.8;"/>
   </g>
   <g id="patch_57">
    <path clip-path="url(#pca7fadcff2)" d="M 115.193708 302.64 
L 118.415008 302.64 
L 118.415008 302.487839 
L 115.193708 302.487839 
z
" style="fill:#008000;opacity:0.8;"/>
   </g>
   <g id="patch_58">
    <path clip-path="url(#pca7fadcff2)" d="M 119.220333 302.64 
L 122.441633 302.64 
L 122.441633 302.64 
L 119.220333 302.64 
z
" style="fill:#008000;opacity:0.8;"/>
   </g>
   <g id="patch_59">
    <path clip-path="url(#pca7fadcff2)" d="M 123.246958 302.64 
L 126.468258 302.64 
L 126.468258 302.64 
L 123.246958 302.64 
z
" style="fill:#008000;opacity:0.8;"/>
   </g>
   <g id="patch_60">
    <path clip-path="url(#pca7fadcff2)" d="M 127.273583 302.64 
L 130.494883 302.64 
L 130.494883 302.487839 
L 127.273583 302.487839 
z
" style="fill:#008000;opacity:0.8;"/>
   </g>
   <g id="patch_61">
    <path clip-path="url(#pca7fadcff2)" d="M 131.300208 302.64 
L 134.521507 302.64 
L 134.521507 302.64 
L 131.300208 302.64 
z
" style="fill:#008000;opacity:0.8;"/>
   </g>
   <g id="patch_62">
    <path clip-path="url(#pca7fadcff2)" d="M 135.326832 302.64 
L 138.548132 302.64 
L 138.548132 302.64 
L 135.326832 302.64 
z
" style="fill:#008000;opacity:0.8;"/>
   </g>
   <g id="patch_63">
    <path clip-path="url(#pca7fadcff2)" d="M 139.353457 302.64 
L 142.574757 302.64 
L 142.574757 302.487839 
L 139.353457 302.487839 
z
" style="fill:#008000;opacity:0.8;"/>
   </g>
   <g id="patch_64">
    <path clip-path="url(#pca7fadcff2)" d="M 143.380082 302.64 
L 146.601382 302.64 
L 146.601382 302.487839 
L 143.380082 302.487839 
z
" style="fill:#008000;opacity:0.8;"/>
   </g>
   <g id="patch_65">
    <path clip-path="url(#pca7fadcff2)" d="M 147.406707 302.64 
L 150.628007 302.64 
L 150.628007 302.64 
L 147.406707 302.64 
z
" style="fill:#008000;opacity:0.8;"/>
   </g>
   <g id="patch_66">
    <path clip-path="url(#pca7fadcff2)" d="M 151.433332 302.64 
L 154.654632 302.64 
L 154.654632 302.64 
L 151.433332 302.64 
z
" style="fill:#008000;opacity:0.8;"/>
   </g>
   <g id="patch_67">
    <path clip-path="url(#pca7fadcff2)" d="M 155.459957 302.64 
L 158.681257 302.64 
L 158.681257 302.64 
L 155.459957 302.64 
z
" style="fill:#008000;opacity:0.8;"/>
   </g>
   <g id="patch_68">
    <path clip-path="url(#pca7fadcff2)" d="M 159.486582 302.64 
L 162.707882 302.64 
L 162.707882 302.335677 
L 159.486582 302.335677 
z
" style="fill:#008000;opacity:0.8;"/>
   </g>
   <g id="patch_69">
    <path clip-path="url(#pca7fadcff2)" d="M 163.513207 302.64 
L 166.734507 302.64 
L 166.734507 302.487839 
L 163.513207 302.487839 
z
" style="fill:#008000;opacity:0.8;"/>
   </g>
   <g id="patch_70">
    <path clip-path="url(#pca7fadcff2)" d="M 167.539832 302.64 
L 170.761132 302.64 
L 170.761132 302.64 
L 167.539832 302.64 
z
" style="fill:#008000;opacity:0.8;"/>
   </g>
   <g id="patch_71">
    <path clip-path="url(#pca7fadcff2)" d="M 171.566457 302.64 
L 174.787757 302.64 
L 174.787757 302.335677 
L 171.566457 302.335677 
z
" style="fill:#008000;opacity:0.8;"/>
   </g>
   <g id="patch_72">
    <path clip-path="url(#pca7fadcff2)" d="M 175.593082 302.64 
L 178.814382 302.64 
L 178.814382 302.335677 
L 175.593082 302.335677 
z
" style="fill:#008000;opacity:0.8;"/>
   </g>
   <g id="patch_73">
    <path clip-path="url(#pca7fadcff2)" d="M 179.619707 302.64 
L 182.841007 302.64 
L 182.841007 302.487839 
L 179.619707 302.487839 
z
" style="fill:#008000;opacity:0.8;"/>
   </g>
   <g id="patch_74">
    <path clip-path="url(#pca7fadcff2)" d="M 183.646332 302.64 
L 186.867631 302.64 
L 186.867631 302.487839 
L 183.646332 302.487839 
z
" style="fill:#008000;opacity:0.8;"/>
   </g>
   <g id="patch_75">
    <path clip-path="url(#pca7fadcff2)" d="M 187.672956 302.64 
L 190.894256 302.64 
L 190.894256 302.335677 
L 187.672956 302.335677 
z
" style="fill:#008000;opacity:0.8;"/>
   </g>
   <g id="patch_76">
    <path clip-path="url(#pca7fadcff2)" d="M 191.699581 302.64 
L 194.920881 302.64 
L 194.920881 302.64 
L 191.699581 302.64 
z
" style="fill:#008000;opacity:0.8;"/>
   </g>
   <g id="patch_77">
    <path clip-path="url(#pca7fadcff2)" d="M 195.726206 302.64 
L 198.947506 302.64 
L 198.947506 302.183516 
L 195.726206 302.183516 
z
" style="fill:#008000;opacity:0.8;"/>
   </g>
   <g id="patch_78">
    <path clip-path="url(#pca7fadcff2)" d="M 199.752831 302.64 
L 202.974131 302.64 
L 202.974131 302.64 
L 199.752831 302.64 
z
" style="fill:#008000;opacity:0.8;"/>
   </g>
   <g id="patch_79">
    <path clip-path="url(#pca7fadcff2)" d="M 203.779456 302.64 
L 207.000756 302.64 
L 207.000756 302.335677 
L 203.779456 302.335677 
z
" style="fill:#008000;opacity:0.8;"/>
   </g>
   <g id="patch_80">
    <path clip-path="url(#pca7fadcff2)" d="M 207.806081 302.64 
L 211.027381 302.64 
L 211.027381 302.031354 
L 207.806081 302.031354 
z
" style="fill:#008000;opacity:0.8;"/>
   </g>
   <g id="patch_81">
    <path clip-path="url(#pca7fadcff2)" d="M 211.832706 302.64 
L 215.054006 302.64 
L 215.054006 301.879193 
L 211.832706 301.879193 
z
" style="fill:#008000;opacity:0.8;"/>
   </g>
   <g id="patch_82">
    <path clip-path="url(#pca7fadcff2)" d="M 215.859331 302.64 
L 219.080631 302.64 
L 219.080631 302.031354 
L 215.859331 302.031354 
z
" style="fill:#008000;opacity:0.8;"/>
   </g>
   <g id="patch_83">
    <path clip-path="url(#pca7fadcff2)" d="M 219.885956 302.64 
L 223.107256 302.64 
L 223.107256 301.879193 
L 219.885956 301.879193 
z
" style="fill:#008000;opacity:0.8;"/>
   </g>
   <g id="patch_84">
    <path clip-path="url(#pca7fadcff2)" d="M 223.912581 302.64 
L 227.133881 302.64 
L 227.133881 301.879193 
L 223.912581 301.879193 
z
" style="fill:#008000;opacity:0.8;"/>
   </g>
   <g id="patch_85">
    <path clip-path="url(#pca7fadcff2)" d="M 227.939206 302.64 
L 231.160506 302.64 
L 231.160506 302.031354 
L 227.939206 302.031354 
z
" style="fill:#008000;opacity:0.8;"/>
   </g>
   <g id="patch_86">
    <path clip-path="url(#pca7fadcff2)" d="M 231.965831 302.64 
L 235.187131 302.64 
L 235.187131 301.727032 
L 231.965831 301.727032 
z
" style="fill:#008000;opacity:0.8;"/>
   </g>
   <g id="patch_87">
    <path clip-path="url(#pca7fadcff2)" d="M 235.992456 302.64 
L 239.213755 302.64 
L 239.213755 301.270548 
L 235.992456 301.270548 
z
" style="fill:#008000;opacity:0.8;"/>
   </g>
   <g id="patch_88">
    <path clip-path="url(#pca7fadcff2)" d="M 240.01908 302.64 
L 243.24038 302.64 
L 243.24038 301.270548 
L 240.01908 301.270548 
z
" style="fill:#008000;opacity:0.8;"/>
   </g>
   <g id="patch_89">
    <path clip-path="url(#pca7fadcff2)" d="M 244.045705 302.64 
L 247.267005 302.64 
L 247.267005 301.270548 
L 244.045705 301.270548 
z
" style="fill:#008000;opacity:0.8;"/>
   </g>
   <g id="patch_90">
    <path clip-path="url(#pca7fadcff2)" d="M 248.07233 302.64 
L 251.29363 302.64 
L 251.29363 301.270548 
L 248.07233 301.270548 
z
" style="fill:#008000;opacity:0.8;"/>
   </g>
   <g id="patch_91">
    <path clip-path="url(#pca7fadcff2)" d="M 252.098955 302.64 
L 255.320255 302.64 
L 255.320255 300.053256 
L 252.098955 300.053256 
z
" style="fill:#008000;opacity:0.8;"/>
   </g>
   <g id="patch_92">
    <path clip-path="url(#pca7fadcff2)" d="M 256.12558 302.64 
L 259.34688 302.64 
L 259.34688 301.118386 
L 256.12558 301.118386 
z
" style="fill:#008000;opacity:0.8;"/>
   </g>
   <g id="patch_93">
    <path clip-path="url(#pca7fadcff2)" d="M 260.152205 302.64 
L 263.373505 302.64 
L 263.373505 299.901095 
L 260.152205 299.901095 
z
" style="fill:#008000;opacity:0.8;"/>
   </g>
   <g id="patch_94">
    <path clip-path="url(#pca7fadcff2)" d="M 264.17883 302.64 
L 267.40013 302.64 
L 267.40013 299.596772 
L 264.17883 299.596772 
z
" style="fill:#008000;opacity:0.8;"/>
   </g>
   <g id="patch_95">
    <path clip-path="url(#pca7fadcff2)" d="M 268.205455 302.64 
L 271.426755 302.64 
L 271.426755 298.379481 
L 268.205455 298.379481 
z
" style="fill:#008000;opacity:0.8;"/>
   </g>
   <g id="patch_96">
    <path clip-path="url(#pca7fadcff2)" d="M 272.23208 302.64 
L 275.45338 302.64 
L 275.45338 295.640576 
L 272.23208 295.640576 
z
" style="fill:#008000;opacity:0.8;"/>
   </g>
   <g id="patch_97">
    <path clip-path="url(#pca7fadcff2)" d="M 276.258705 302.64 
L 279.480005 302.64 
L 279.480005 295.336254 
L 276.258705 295.336254 
z
" style="fill:#008000;opacity:0.8;"/>
   </g>
   <g id="patch_98">
    <path clip-path="url(#pca7fadcff2)" d="M 280.28533 302.64 
L 283.50663 302.64 
L 283.50663 295.488415 
L 280.28533 295.488415 
z
" style="fill:#008000;opacity:0.8;"/>
   </g>
   <g id="patch_99">
    <path clip-path="url(#pca7fadcff2)" d="M 284.311955 302.64 
L 287.533254 302.64 
L 287.533254 291.836542 
L 284.311955 291.836542 
z
" style="fill:#008000;opacity:0.8;"/>
   </g>
   <g id="patch_100">
    <path clip-path="url(#pca7fadcff2)" d="M 288.338579 302.64 
L 291.559879 302.64 
L 291.559879 290.771412 
L 288.338579 290.771412 
z
" style="fill:#008000;opacity:0.8;"/>
   </g>
   <g id="patch_101">
    <path clip-path="url(#pca7fadcff2)" d="M 292.365204 302.64 
L 295.586504 302.64 
L 295.586504 287.2717 
L 292.365204 287.2717 
z
" style="fill:#008000;opacity:0.8;"/>
   </g>
   <g id="patch_102">
    <path clip-path="url(#pca7fadcff2)" d="M 296.391829 302.64 
L 299.613129 302.64 
L 299.613129 285.597925 
L 296.391829 285.597925 
z
" style="fill:#008000;opacity:0.8;"/>
   </g>
   <g id="patch_103">
    <path clip-path="url(#pca7fadcff2)" d="M 300.418454 302.64 
L 303.639754 302.64 
L 303.639754 284.076311 
L 300.418454 284.076311 
z
" style="fill:#008000;opacity:0.8;"/>
   </g>
   <g id="patch_104">
    <path clip-path="url(#pca7fadcff2)" d="M 304.445079 302.64 
L 307.666379 302.64 
L 307.666379 280.272277 
L 304.445079 280.272277 
z
" style="fill:#008000;opacity:0.8;"/>
   </g>
   <g id="patch_105">
    <path clip-path="url(#pca7fadcff2)" d="M 308.471704 302.64 
L 311.693004 302.64 
L 311.693004 274.946628 
L 308.471704 274.946628 
z
" style="fill:#008000;opacity:0.8;"/>
   </g>
   <g id="patch_106">
    <path clip-path="url(#pca7fadcff2)" d="M 312.498329 302.64 
L 315.719629 302.64 
L 315.719629 267.49072 
L 312.498329 267.49072 
z
" style="fill:#008000;opacity:0.8;"/>
   </g>
   <g id="patch_107">
    <path clip-path="url(#pca7fadcff2)" d="M 316.524954 302.64 
L 319.746254 302.64 
L 319.746254 262.317233 
L 316.524954 262.317233 
z
" style="fill:#008000;opacity:0.8;"/>
   </g>
   <g id="patch_108">
    <path clip-path="url(#pca7fadcff2)" d="M 320.551579 302.64 
L 323.772879 302.64 
L 323.772879 248.318386 
L 320.551579 248.318386 
z
" style="fill:#008000;opacity:0.8;"/>
   </g>
   <g id="patch_109">
    <path clip-path="url(#pca7fadcff2)" d="M 324.578204 302.64 
L 327.799504 302.64 
L 327.799504 241.775447 
L 324.578204 241.775447 
z
" style="fill:#008000;opacity:0.8;"/>
   </g>
   <g id="patch_110">
    <path clip-path="url(#pca7fadcff2)" d="M 328.604829 302.64 
L 331.826129 302.64 
L 331.826129 227.015793 
L 328.604829 227.015793 
z
" style="fill:#008000;opacity:0.8;"/>
   </g>
   <g id="patch_111">
    <path clip-path="url(#pca7fadcff2)" d="M 332.631454 302.64 
L 335.852754 302.64 
L 335.852754 200.844035 
L 332.631454 200.844035 
z
" style="fill:#008000;opacity:0.8;"/>
   </g>
   <g id="patch_112">
    <path clip-path="url(#pca7fadcff2)" d="M 336.658079 302.64 
L 339.879378 302.64 
L 339.879378 157.325879 
L 336.658079 157.325879 
z
" style="fill:#008000;opacity:0.8;"/>
   </g>
   <g id="patch_113">
    <path clip-path="url(#pca7fadcff2)" d="M 340.684703 302.64 
L 343.906003 302.64 
L 343.906003 103.004265 
L 340.684703 103.004265 
z
" style="fill:#008000;opacity:0.8;"/>
   </g>
   <g id="patch_114">
    <path clip-path="url(#pca7fadcff2)" d="M 344.711328 302.64 
L 347.932628 302.64 
L 347.932628 47.769683 
L 344.711328 47.769683 
z
" style="fill:#008000;opacity:0.8;"/>
   </g>
   <g id="patch_115">
    <path clip-path="url(#pca7fadcff2)" d="M 348.737953 302.64 
L 351.959253 302.64 
L 351.959253 38.64 
L 348.737953 38.64 
z
" style="fill:#008000;opacity:0.8;"/>
   </g>
   <g id="patch_116">
    <path clip-path="url(#pca7fadcff2)" d="M 352.764578 302.64 
L 355.985878 302.64 
L 355.985878 53.247493 
L 352.764578 53.247493 
z
" style="fill:#008000;opacity:0.8;"/>
   </g>
   <g id="patch_117">
    <path clip-path="url(#pca7fadcff2)" d="M 356.791203 302.64 
L 360.012503 302.64 
L 360.012503 65.876888 
L 356.791203 65.876888 
z
" style="fill:#008000;opacity:0.8;"/>
   </g>
   <g id="patch_118">
    <path clip-path="url(#pca7fadcff2)" d="M 360.817828 302.64 
L 364.039128 302.64 
L 364.039128 82.918963 
L 360.817828 82.918963 
z
" style="fill:#008000;opacity:0.8;"/>
   </g>
   <g id="patch_119">
    <path clip-path="url(#pca7fadcff2)" d="M 364.844453 302.64 
L 368.065753 302.64 
L 368.065753 86.875159 
L 364.844453 86.875159 
z
" style="fill:#008000;opacity:0.8;"/>
   </g>
   <g id="patch_120">
    <path clip-path="url(#pca7fadcff2)" d="M 368.871078 302.64 
L 372.092378 302.64 
L 372.092378 118.372565 
L 368.871078 118.372565 
z
" style="fill:#008000;opacity:0.8;"/>
   </g>
   <g id="patch_121">
    <path clip-path="url(#pca7fadcff2)" d="M 372.897703 302.64 
L 376.119003 302.64 
L 376.119003 136.631931 
L 372.897703 136.631931 
z
" style="fill:#008000;opacity:0.8;"/>
   </g>
   <g id="patch_122">
    <path clip-path="url(#pca7fadcff2)" d="M 376.924328 302.64 
L 380.145628 302.64 
L 380.145628 165.846916 
L 376.924328 165.846916 
z
" style="fill:#008000;opacity:0.8;"/>
   </g>
   <g id="patch_123">
    <path clip-path="url(#pca7fadcff2)" d="M 380.950953 302.64 
L 384.172253 302.64 
L 384.172253 210.734524 
L 380.950953 210.734524 
z
" style="fill:#008000;opacity:0.8;"/>
   </g>
   <g id="patch_124">
    <path clip-path="url(#pca7fadcff2)" d="M 384.977578 302.64 
L 388.198878 302.64 
L 388.198878 233.710893 
L 384.977578 233.710893 
z
" style="fill:#008000;opacity:0.8;"/>
   </g>
   <g id="patch_125">
    <path clip-path="url(#pca7fadcff2)" d="M 389.004203 302.64 
L 392.225502 302.64 
L 392.225502 262.317233 
L 389.004203 262.317233 
z
" style="fill:#008000;opacity:0.8;"/>
   </g>
   <g id="patch_126">
    <path clip-path="url(#pca7fadcff2)" d="M 393.030827 302.64 
L 396.252127 302.64 
L 396.252127 284.837118 
L 393.030827 284.837118 
z
" style="fill:#008000;opacity:0.8;"/>
   </g>
   <g id="patch_127">
    <path clip-path="url(#pca7fadcff2)" d="M 397.057452 302.64 
L 400.278752 302.64 
L 400.278752 295.488415 
L 397.057452 295.488415 
z
" style="fill:#008000;opacity:0.8;"/>
   </g>
   <g id="patch_128">
    <path clip-path="url(#pca7fadcff2)" d="M 401.084077 302.64 
L 404.305377 302.64 
L 404.305377 299.596772 
L 401.084077 299.596772 
z
" style="fill:#008000;opacity:0.8;"/>
   </g>
   <g id="patch_129">
    <path clip-path="url(#pca7fadcff2)" d="M 405.110702 302.64 
L 408.332002 302.64 
L 408.332002 302.183516 
L 405.110702 302.183516 
z
" style="fill:#008000;opacity:0.8;"/>
   </g>
   <g id="patch_130">
    <path clip-path="url(#pca7fadcff2)" d="M 409.137327 302.64 
L 412.358627 302.64 
L 412.358627 302.487839 
L 409.137327 302.487839 
z
" style="fill:#008000;opacity:0.8;"/>
   </g>
   <g id="patch_131">
    <path clip-path="url(#pca7fadcff2)" d="M 413.163952 302.64 
L 416.385252 302.64 
L 416.385252 302.64 
L 413.163952 302.64 
z
" style="fill:#008000;opacity:0.8;"/>
   </g>
   <g id="patch_132">
    <path clip-path="url(#pca7fadcff2)" d="M 417.190577 302.64 
L 420.411877 302.64 
L 420.411877 302.64 
L 417.190577 302.64 
z
" style="fill:#008000;opacity:0.8;"/>
   </g>
   <g id="patch_133">
    <path clip-path="url(#pca7fadcff2)" d="M 421.217202 302.64 
L 424.438502 302.64 
L 424.438502 302.64 
L 421.217202 302.64 
z
" style="fill:#008000;opacity:0.8;"/>
   </g>
   <g id="patch_134">
    <path clip-path="url(#pca7fadcff2)" d="M 425.243827 302.64 
L 428.465127 302.64 
L 428.465127 302.64 
L 425.243827 302.64 
z
" style="fill:#008000;opacity:0.8;"/>
   </g>
   <g id="patch_135">
    <path clip-path="url(#pca7fadcff2)" d="M 429.270452 302.64 
L 432.491752 302.64 
L 432.491752 302.64 
L 429.270452 302.64 
z
" style="fill:#008000;opacity:0.8;"/>
   </g>
   <g id="patch_136">
    <path clip-path="url(#pca7fadcff2)" d="M 433.297077 302.64 
L 436.518377 302.64 
L 436.518377 302.64 
L 433.297077 302.64 
z
" style="fill:#008000;opacity:0.8;"/>
   </g>
   <g id="patch_137">
    <path clip-path="url(#pca7fadcff2)" d="M 437.323702 302.64 
L 440.545001 302.64 
L 440.545001 302.64 
L 437.323702 302.64 
z
" style="fill:#008000;opacity:0.8;"/>
   </g>
   <g id="patch_138">
    <path clip-path="url(#pca7fadcff2)" d="M 441.350326 302.64 
L 444.571626 302.64 
L 444.571626 302.64 
L 441.350326 302.64 
z
" style="fill:#008000;opacity:0.8;"/>
   </g>
   <g id="patch_139">
    <path clip-path="url(#pca7fadcff2)" d="M 445.376951 302.64 
L 448.598251 302.64 
L 448.598251 302.64 
L 445.376951 302.64 
z
" style="fill:#008000;opacity:0.8;"/>
   </g>
   <g id="patch_140">
    <path clip-path="url(#pca7fadcff2)" d="M 449.403576 302.64 
L 452.624876 302.64 
L 452.624876 302.64 
L 449.403576 302.64 
z
" style="fill:#008000;opacity:0.8;"/>
   </g>
   <g id="patch_141">
    <path clip-path="url(#pca7fadcff2)" d="M 453.430201 302.64 
L 456.651501 302.64 
L 456.651501 302.64 
L 453.430201 302.64 
z
" style="fill:#008000;opacity:0.8;"/>
   </g>
   <g id="patch_142">
    <path clip-path="url(#pca7fadcff2)" d="M 457.456826 302.64 
L 460.678126 302.64 
L 460.678126 302.64 
L 457.456826 302.64 
z
" style="fill:#008000;opacity:0.8;"/>
   </g>
   <g id="patch_143">
    <path clip-path="url(#pca7fadcff2)" d="M 461.483451 302.64 
L 464.704751 302.64 
L 464.704751 302.64 
L 461.483451 302.64 
z
" style="fill:#008000;opacity:0.8;"/>
   </g>
   <g id="patch_144">
    <path clip-path="url(#pca7fadcff2)" d="M 465.510076 302.64 
L 468.731376 302.64 
L 468.731376 302.64 
L 465.510076 302.64 
z
" style="fill:#008000;opacity:0.8;"/>
   </g>
   <g id="patch_145">
    <path clip-path="url(#pca7fadcff2)" d="M 469.536701 302.64 
L 472.758001 302.64 
L 472.758001 302.64 
L 469.536701 302.64 
z
" style="fill:#008000;opacity:0.8;"/>
   </g>
   <g id="patch_146">
    <path clip-path="url(#pca7fadcff2)" d="M 473.563326 302.64 
L 476.784626 302.64 
L 476.784626 302.64 
L 473.563326 302.64 
z
" style="fill:#008000;opacity:0.8;"/>
   </g>
   <g id="patch_147">
    <path clip-path="url(#pca7fadcff2)" d="M 477.589951 302.64 
L 480.811251 302.64 
L 480.811251 302.64 
L 477.589951 302.64 
z
" style="fill:#008000;opacity:0.8;"/>
   </g>
   <g id="patch_148">
    <path clip-path="url(#pca7fadcff2)" d="M 481.616576 302.64 
L 484.837876 302.64 
L 484.837876 302.64 
L 481.616576 302.64 
z
" style="fill:#008000;opacity:0.8;"/>
   </g>
   <g id="patch_149">
    <path clip-path="url(#pca7fadcff2)" d="M 485.643201 302.64 
L 488.864501 302.64 
L 488.864501 302.64 
L 485.643201 302.64 
z
" style="fill:#008000;opacity:0.8;"/>
   </g>
   <g id="patch_150">
    <path clip-path="url(#pca7fadcff2)" d="M 489.669826 302.64 
L 492.891125 302.64 
L 492.891125 302.64 
L 489.669826 302.64 
z
" style="fill:#008000;opacity:0.8;"/>
   </g>
   <g id="patch_151">
    <path clip-path="url(#pca7fadcff2)" d="M 493.69645 302.64 
L 496.91775 302.64 
L 496.91775 302.64 
L 493.69645 302.64 
z
" style="fill:#008000;opacity:0.8;"/>
   </g>
   <g id="patch_152">
    <path clip-path="url(#pca7fadcff2)" d="M 497.723075 302.64 
L 500.944375 302.64 
L 500.944375 302.64 
L 497.723075 302.64 
z
" style="fill:#008000;opacity:0.8;"/>
   </g>
   <g id="patch_153">
    <path clip-path="url(#pca7fadcff2)" d="M 501.7497 302.64 
L 504.971 302.64 
L 504.971 302.64 
L 501.7497 302.64 
z
" style="fill:#008000;opacity:0.8;"/>
   </g>
   <g id="patch_154">
    <path clip-path="url(#pca7fadcff2)" d="M 505.776325 302.64 
L 508.997625 302.64 
L 508.997625 302.64 
L 505.776325 302.64 
z
" style="fill:#008000;opacity:0.8;"/>
   </g>
   <g id="patch_155">
    <path clip-path="url(#pca7fadcff2)" d="M 509.80295 302.64 
L 513.02425 302.64 
L 513.02425 302.64 
L 509.80295 302.64 
z
" style="fill:#008000;opacity:0.8;"/>
   </g>
   <g id="patch_156">
    <path clip-path="url(#pca7fadcff2)" d="M 513.829575 302.64 
L 517.050875 302.64 
L 517.050875 302.64 
L 513.829575 302.64 
z
" style="fill:#008000;opacity:0.8;"/>
   </g>
   <g id="patch_157">
    <path clip-path="url(#pca7fadcff2)" d="M 517.8562 302.64 
L 521.0775 302.64 
L 521.0775 302.64 
L 517.8562 302.64 
z
" style="fill:#008000;opacity:0.8;"/>
   </g>
   <g id="patch_158">
    <path clip-path="url(#pca7fadcff2)" d="M 521.882825 302.64 
L 525.104125 302.64 
L 525.104125 302.64 
L 521.882825 302.64 
z
" style="fill:#008000;opacity:0.8;"/>
   </g>
   <g id="patch_159">
    <path clip-path="url(#pca7fadcff2)" d="M 525.90945 302.64 
L 529.13075 302.64 
L 529.13075 302.64 
L 525.90945 302.64 
z
" style="fill:#008000;opacity:0.8;"/>
   </g>
   <g id="patch_160">
    <path clip-path="url(#pca7fadcff2)" d="M 529.936075 302.64 
L 533.157375 302.64 
L 533.157375 302.64 
L 529.936075 302.64 
z
" style="fill:#008000;opacity:0.8;"/>
   </g>
   <g id="patch_161">
    <path clip-path="url(#pca7fadcff2)" d="M 533.9627 302.64 
L 537.184 302.64 
L 537.184 302.64 
L 533.9627 302.64 
z
" style="fill:#008000;opacity:0.8;"/>
   </g>
   <g id="patch_162">
    <path clip-path="url(#pca7fadcff2)" d="M 537.989325 302.64 
L 541.210625 302.64 
L 541.210625 302.64 
L 537.989325 302.64 
z
" style="fill:#008000;opacity:0.8;"/>
   </g>
   <g id="patch_163">
    <path clip-path="url(#pca7fadcff2)" d="M 542.015949 302.64 
L 545.237249 302.64 
L 545.237249 302.64 
L 542.015949 302.64 
z
" style="fill:#008000;opacity:0.8;"/>
   </g>
   <g id="patch_164">
    <path clip-path="url(#pca7fadcff2)" d="M 546.042574 302.64 
L 549.263874 302.64 
L 549.263874 302.64 
L 546.042574 302.64 
z
" style="fill:#008000;opacity:0.8;"/>
   </g>
   <g id="patch_165">
    <path clip-path="url(#pca7fadcff2)" d="M 550.069199 302.64 
L 553.290499 302.64 
L 553.290499 302.64 
L 550.069199 302.64 
z
" style="fill:#008000;opacity:0.8;"/>
   </g>
   <g id="patch_166">
    <path clip-path="url(#pca7fadcff2)" d="M 554.095824 302.64 
L 557.317124 302.64 
L 557.317124 302.64 
L 554.095824 302.64 
z
" style="fill:#008000;opacity:0.8;"/>
   </g>
   <g id="patch_167">
    <path clip-path="url(#pca7fadcff2)" d="M 558.122449 302.64 
L 561.343749 302.64 
L 561.343749 302.64 
L 558.122449 302.64 
z
" style="fill:#008000;opacity:0.8;"/>
   </g>
   <g id="patch_168">
    <path clip-path="url(#pca7fadcff2)" d="M 562.149074 302.64 
L 565.370374 302.64 
L 565.370374 302.64 
L 562.149074 302.64 
z
" style="fill:#008000;opacity:0.8;"/>
   </g>
   <g id="patch_169">
    <path clip-path="url(#pca7fadcff2)" d="M 566.175699 302.64 
L 569.396999 302.64 
L 569.396999 302.64 
L 566.175699 302.64 
z
" style="fill:#008000;opacity:0.8;"/>
   </g>
   <g id="patch_170">
    <path clip-path="url(#pca7fadcff2)" d="M 570.202324 302.64 
L 573.423624 302.64 
L 573.423624 302.64 
L 570.202324 302.64 
z
" style="fill:#008000;opacity:0.8;"/>
   </g>
   <g id="patch_171">
    <path clip-path="url(#pca7fadcff2)" d="M 574.228949 302.64 
L 577.450249 302.64 
L 577.450249 302.64 
L 574.228949 302.64 
z
" style="fill:#008000;opacity:0.8;"/>
   </g>
   <g id="patch_172">
    <path clip-path="url(#pca7fadcff2)" d="M 578.255574 302.64 
L 581.476874 302.64 
L 581.476874 302.64 
L 578.255574 302.64 
z
" style="fill:#008000;opacity:0.8;"/>
   </g>
   <g id="patch_173">
    <path clip-path="url(#pca7fadcff2)" d="M 582.282199 302.64 
L 585.503499 302.64 
L 585.503499 302.64 
L 582.282199 302.64 
z
" style="fill:#008000;opacity:0.8;"/>
   </g>
   <g id="patch_174">
    <path clip-path="url(#pca7fadcff2)" d="M 586.308824 302.64 
L 589.530124 302.64 
L 589.530124 302.64 
L 586.308824 302.64 
z
" style="fill:#008000;opacity:0.8;"/>
   </g>
   <g id="patch_175">
    <path clip-path="url(#pca7fadcff2)" d="M 590.335449 302.64 
L 593.556748 302.64 
L 593.556748 302.64 
L 590.335449 302.64 
z
" style="fill:#008000;opacity:0.8;"/>
   </g>
   <g id="patch_176">
    <path clip-path="url(#pca7fadcff2)" d="M 594.362073 302.64 
L 597.583373 302.64 
L 597.583373 302.64 
L 594.362073 302.64 
z
" style="fill:#008000;opacity:0.8;"/>
   </g>
   <g id="patch_177">
    <path clip-path="url(#pca7fadcff2)" d="M 598.388698 302.64 
L 601.609998 302.64 
L 601.609998 302.64 
L 598.388698 302.64 
z
" style="fill:#008000;opacity:0.8;"/>
   </g>
   <g id="patch_178">
    <path clip-path="url(#pca7fadcff2)" d="M 602.415323 302.64 
L 605.636623 302.64 
L 605.636623 302.64 
L 602.415323 302.64 
z
" style="fill:#008000;opacity:0.8;"/>
   </g>
   <g id="patch_179">
    <path clip-path="url(#pca7fadcff2)" d="M 606.441948 302.64 
L 609.663248 302.64 
L 609.663248 302.64 
L 606.441948 302.64 
z
" style="fill:#008000;opacity:0.8;"/>
   </g>
   <g id="patch_180">
    <path clip-path="url(#pca7fadcff2)" d="M 610.468573 302.64 
L 613.689873 302.64 
L 613.689873 302.64 
L 610.468573 302.64 
z
" style="fill:#008000;opacity:0.8;"/>
   </g>
   <g id="patch_181">
    <path clip-path="url(#pca7fadcff2)" d="M 614.495198 302.64 
L 617.716498 302.64 
L 617.716498 302.64 
L 614.495198 302.64 
z
" style="fill:#008000;opacity:0.8;"/>
   </g>
   <g id="patch_182">
    <path clip-path="url(#pca7fadcff2)" d="M 618.521823 302.64 
L 621.743123 302.64 
L 621.743123 302.64 
L 618.521823 302.64 
z
" style="fill:#008000;opacity:0.8;"/>
   </g>
   <g id="patch_183">
    <path clip-path="url(#pca7fadcff2)" d="M 622.548448 302.64 
L 625.769748 302.64 
L 625.769748 302.64 
L 622.548448 302.64 
z
" style="fill:#008000;opacity:0.8;"/>
   </g>
   <g id="patch_184">
    <path clip-path="url(#pca7fadcff2)" d="M 626.575073 302.64 
L 629.796373 302.64 
L 629.796373 302.64 
L 626.575073 302.64 
z
" style="fill:#008000;opacity:0.8;"/>
   </g>
   <g id="patch_185">
    <path clip-path="url(#pca7fadcff2)" d="M 630.601698 302.64 
L 633.822998 302.64 
L 633.822998 302.64 
L 630.601698 302.64 
z
" style="fill:#008000;opacity:0.8;"/>
   </g>
   <g id="patch_186">
    <path clip-path="url(#pca7fadcff2)" d="M 634.628323 302.64 
L 637.849623 302.64 
L 637.849623 302.64 
L 634.628323 302.64 
z
" style="fill:#008000;opacity:0.8;"/>
   </g>
   <g id="patch_187">
    <path clip-path="url(#pca7fadcff2)" d="M 638.654948 302.64 
L 641.876248 302.64 
L 641.876248 302.64 
L 638.654948 302.64 
z
" style="fill:#008000;opacity:0.8;"/>
   </g>
   <g id="patch_188">
    <path clip-path="url(#pca7fadcff2)" d="M 642.681573 302.64 
L 645.902872 302.64 
L 645.902872 302.64 
L 642.681573 302.64 
z
" style="fill:#008000;opacity:0.8;"/>
   </g>
   <g id="patch_189">
    <path clip-path="url(#pca7fadcff2)" d="M 646.708197 302.64 
L 649.929497 302.64 
L 649.929497 302.64 
L 646.708197 302.64 
z
" style="fill:#008000;opacity:0.8;"/>
   </g>
   <g id="patch_190">
    <path clip-path="url(#pca7fadcff2)" d="M 650.734822 302.64 
L 653.956122 302.64 
L 653.956122 302.64 
L 650.734822 302.64 
z
" style="fill:#008000;opacity:0.8;"/>
   </g>
   <g id="patch_191">
    <path clip-path="url(#pca7fadcff2)" d="M 654.761447 302.64 
L 657.982747 302.64 
L 657.982747 302.64 
L 654.761447 302.64 
z
" style="fill:#008000;opacity:0.8;"/>
   </g>
   <g id="patch_192">
    <path clip-path="url(#pca7fadcff2)" d="M 658.788072 302.64 
L 662.009372 302.64 
L 662.009372 302.64 
L 658.788072 302.64 
z
" style="fill:#008000;opacity:0.8;"/>
   </g>
   <g id="patch_193">
    <path clip-path="url(#pca7fadcff2)" d="M 662.814697 302.64 
L 666.035997 302.64 
L 666.035997 302.64 
L 662.814697 302.64 
z
" style="fill:#008000;opacity:0.8;"/>
   </g>
   <g id="patch_194">
    <path clip-path="url(#pca7fadcff2)" d="M 666.841322 302.64 
L 670.062622 302.64 
L 670.062622 302.64 
L 666.841322 302.64 
z
" style="fill:#008000;opacity:0.8;"/>
   </g>
   <g id="patch_195">
    <path clip-path="url(#pca7fadcff2)" d="M 670.867947 302.64 
L 674.089247 302.64 
L 674.089247 302.64 
L 670.867947 302.64 
z
" style="fill:#008000;opacity:0.8;"/>
   </g>
   <g id="patch_196">
    <path clip-path="url(#pca7fadcff2)" d="M 674.894572 302.64 
L 678.115872 302.64 
L 678.115872 302.64 
L 674.894572 302.64 
z
" style="fill:#008000;opacity:0.8;"/>
   </g>
   <g id="patch_197">
    <path clip-path="url(#pca7fadcff2)" d="M 678.921197 302.64 
L 682.142497 302.64 
L 682.142497 302.64 
L 678.921197 302.64 
z
" style="fill:#008000;opacity:0.8;"/>
   </g>
   <g id="patch_198">
    <path clip-path="url(#pca7fadcff2)" d="M 682.947822 302.64 
L 686.169122 302.64 
L 686.169122 302.64 
L 682.947822 302.64 
z
" style="fill:#008000;opacity:0.8;"/>
   </g>
   <g id="patch_199">
    <path clip-path="url(#pca7fadcff2)" d="M 686.974447 302.64 
L 690.195747 302.64 
L 690.195747 302.64 
L 686.974447 302.64 
z
" style="fill:#008000;opacity:0.8;"/>
   </g>
   <g id="patch_200">
    <path clip-path="url(#pca7fadcff2)" d="M 691.001072 302.64 
L 694.222372 302.64 
L 694.222372 302.64 
L 691.001072 302.64 
z
" style="fill:#008000;opacity:0.8;"/>
   </g>
   <g id="patch_201">
    <path clip-path="url(#pca7fadcff2)" d="M 695.027696 302.64 
L 698.248996 302.64 
L 698.248996 302.64 
L 695.027696 302.64 
z
" style="fill:#008000;opacity:0.8;"/>
   </g>
   <g id="patch_202">
    <path clip-path="url(#pca7fadcff2)" d="M 699.054321 302.64 
L 702.275621 302.64 
L 702.275621 302.64 
L 699.054321 302.64 
z
" style="fill:#008000;opacity:0.8;"/>
   </g>
   <g id="matplotlib.axis_1">
    <g id="xtick_1">
     <g id="line2d_1">
      <defs>
       <path d="M 0 0 
L 0 3.5 
" id="md8f8b39eb4" style="stroke:#000000;stroke-width:0.8;"/>
      </defs>
      <g>
       <use style="stroke:#000000;stroke-width:0.8;" x="138.950795" xlink:href="#md8f8b39eb4" y="303.64"/>
      </g>
     </g>
     <g id="text_1">
      <!-- 60 -->
      <defs>
       <path d="M 33.015625 40.375 
Q 26.375 40.375 22.484375 35.828125 
Q 18.609375 31.296875 18.609375 23.390625 
Q 18.609375 15.53125 22.484375 10.953125 
Q 26.375 6.390625 33.015625 6.390625 
Q 39.65625 6.390625 43.53125 10.953125 
Q 47.40625 15.53125 47.40625 23.390625 
Q 47.40625 31.296875 43.53125 35.828125 
Q 39.65625 40.375 33.015625 40.375 
z
M 52.59375 71.296875 
L 52.59375 62.3125 
Q 48.875 64.0625 45.09375 64.984375 
Q 41.3125 65.921875 37.59375 65.921875 
Q 27.828125 65.921875 22.671875 59.328125 
Q 17.53125 52.734375 16.796875 39.40625 
Q 19.671875 43.65625 24.015625 45.921875 
Q 28.375 48.1875 33.59375 48.1875 
Q 44.578125 48.1875 50.953125 41.515625 
Q 57.328125 34.859375 57.328125 23.390625 
Q 57.328125 12.15625 50.6875 5.359375 
Q 44.046875 -1.421875 33.015625 -1.421875 
Q 20.359375 -1.421875 13.671875 8.265625 
Q 6.984375 17.96875 6.984375 36.375 
Q 6.984375 53.65625 15.1875 63.9375 
Q 23.390625 74.21875 37.203125 74.21875 
Q 40.921875 74.21875 44.703125 73.484375 
Q 48.484375 72.75 52.59375 71.296875 
z
" id="DejaVuSans-54"/>
       <path d="M 31.78125 66.40625 
Q 24.171875 66.40625 20.328125 58.90625 
Q 16.5 51.421875 16.5 36.375 
Q 16.5 21.390625 20.328125 13.890625 
Q 24.171875 6.390625 31.78125 6.390625 
Q 39.453125 6.390625 43.28125 13.890625 
Q 47.125 21.390625 47.125 36.375 
Q 47.125 51.421875 43.28125 58.90625 
Q 39.453125 66.40625 31.78125 66.40625 
z
M 31.78125 74.21875 
Q 44.046875 74.21875 50.515625 64.515625 
Q 56.984375 54.828125 56.984375 36.375 
Q 56.984375 17.96875 50.515625 8.265625 
Q 44.046875 -1.421875 31.78125 -1.421875 
Q 19.53125 -1.421875 13.0625 8.265625 
Q 6.59375 17.96875 6.59375 36.375 
Q 6.59375 54.828125 13.0625 64.515625 
Q 19.53125 74.21875 31.78125 74.21875 
z
" id="DejaVuSans-48"/>
      </defs>
      <g transform="translate(132.588295 318.238437)scale(0.1 -0.1)">
       <use xlink:href="#DejaVuSans-54"/>
       <use x="63.623047" xlink:href="#DejaVuSans-48"/>
      </g>
     </g>
    </g>
    <g id="xtick_2">
     <g id="line2d_2">
      <g>
       <use style="stroke:#000000;stroke-width:0.8;" x="219.483293" xlink:href="#md8f8b39eb4" y="303.64"/>
      </g>
     </g>
     <g id="text_2">
      <!-- 80 -->
      <defs>
       <path d="M 31.78125 34.625 
Q 24.75 34.625 20.71875 30.859375 
Q 16.703125 27.09375 16.703125 20.515625 
Q 16.703125 13.921875 20.71875 10.15625 
Q 24.75 6.390625 31.78125 6.390625 
Q 38.8125 6.390625 42.859375 10.171875 
Q 46.921875 13.96875 46.921875 20.515625 
Q 46.921875 27.09375 42.890625 30.859375 
Q 38.875 34.625 31.78125 34.625 
z
M 21.921875 38.8125 
Q 15.578125 40.375 12.03125 44.71875 
Q 8.5 49.078125 8.5 55.328125 
Q 8.5 64.0625 14.71875 69.140625 
Q 20.953125 74.21875 31.78125 74.21875 
Q 42.671875 74.21875 48.875 69.140625 
Q 55.078125 64.0625 55.078125 55.328125 
Q 55.078125 49.078125 51.53125 44.71875 
Q 48 40.375 41.703125 38.8125 
Q 48.828125 37.15625 52.796875 32.3125 
Q 56.78125 27.484375 56.78125 20.515625 
Q 56.78125 9.90625 50.3125 4.234375 
Q 43.84375 -1.421875 31.78125 -1.421875 
Q 19.734375 -1.421875 13.25 4.234375 
Q 6.78125 9.90625 6.78125 20.515625 
Q 6.78125 27.484375 10.78125 32.3125 
Q 14.796875 37.15625 21.921875 38.8125 
z
M 18.3125 54.390625 
Q 18.3125 48.734375 21.84375 45.5625 
Q 25.390625 42.390625 31.78125 42.390625 
Q 38.140625 42.390625 41.71875 45.5625 
Q 45.3125 48.734375 45.3125 54.390625 
Q 45.3125 60.0625 41.71875 63.234375 
Q 38.140625 66.40625 31.78125 66.40625 
Q 25.390625 66.40625 21.84375 63.234375 
Q 18.3125 60.0625 18.3125 54.390625 
z
" id="DejaVuSans-56"/>
      </defs>
      <g transform="translate(213.120793 318.238437)scale(0.1 -0.1)">
       <use xlink:href="#DejaVuSans-56"/>
       <use x="63.623047" xlink:href="#DejaVuSans-48"/>
      </g>
     </g>
    </g>
    <g id="xtick_3">
     <g id="line2d_3">
      <g>
       <use style="stroke:#000000;stroke-width:0.8;" x="300.015792" xlink:href="#md8f8b39eb4" y="303.64"/>
      </g>
     </g>
     <g id="text_3">
      <!-- 100 -->
      <defs>
       <path d="M 12.40625 8.296875 
L 28.515625 8.296875 
L 28.515625 63.921875 
L 10.984375 60.40625 
L 10.984375 69.390625 
L 28.421875 72.90625 
L 38.28125 72.90625 
L 38.28125 8.296875 
L 54.390625 8.296875 
L 54.390625 0 
L 12.40625 0 
z
" id="DejaVuSans-49"/>
      </defs>
      <g transform="translate(290.472042 318.238437)scale(0.1 -0.1)">
       <use xlink:href="#DejaVuSans-49"/>
       <use x="63.623047" xlink:href="#DejaVuSans-48"/>
       <use x="127.246094" xlink:href="#DejaVuSans-48"/>
      </g>
     </g>
    </g>
    <g id="xtick_4">
     <g id="line2d_4">
      <g>
       <use style="stroke:#000000;stroke-width:0.8;" x="380.54829" xlink:href="#md8f8b39eb4" y="303.64"/>
      </g>
     </g>
     <g id="text_4">
      <!-- 120 -->
      <defs>
       <path d="M 19.1875 8.296875 
L 53.609375 8.296875 
L 53.609375 0 
L 7.328125 0 
L 7.328125 8.296875 
Q 12.9375 14.109375 22.625 23.890625 
Q 32.328125 33.6875 34.8125 36.53125 
Q 39.546875 41.84375 41.421875 45.53125 
Q 43.3125 49.21875 43.3125 52.78125 
Q 43.3125 58.59375 39.234375 62.25 
Q 35.15625 65.921875 28.609375 65.921875 
Q 23.96875 65.921875 18.8125 64.3125 
Q 13.671875 62.703125 7.8125 59.421875 
L 7.8125 69.390625 
Q 13.765625 71.78125 18.9375 73 
Q 24.125 74.21875 28.421875 74.21875 
Q 39.75 74.21875 46.484375 68.546875 
Q 53.21875 62.890625 53.21875 53.421875 
Q 53.21875 48.921875 51.53125 44.890625 
Q 49.859375 40.875 45.40625 35.40625 
Q 44.1875 33.984375 37.640625 27.21875 
Q 31.109375 20.453125 19.1875 8.296875 
z
" id="DejaVuSans-50"/>
      </defs>
      <g transform="translate(371.00454 318.238437)scale(0.1 -0.1)">
       <use xlink:href="#DejaVuSans-49"/>
       <use x="63.623047" xlink:href="#DejaVuSans-50"/>
       <use x="127.246094" xlink:href="#DejaVuSans-48"/>
      </g>
     </g>
    </g>
    <g id="text_5">
     <!-- Million years ago -->
     <defs>
      <path d="M 9.8125 72.90625 
L 24.515625 72.90625 
L 43.109375 23.296875 
L 61.8125 72.90625 
L 76.515625 72.90625 
L 76.515625 0 
L 66.890625 0 
L 66.890625 64.015625 
L 48.09375 14.015625 
L 38.1875 14.015625 
L 19.390625 64.015625 
L 19.390625 0 
L 9.8125 0 
z
" id="DejaVuSans-77"/>
      <path d="M 9.421875 54.6875 
L 18.40625 54.6875 
L 18.40625 0 
L 9.421875 0 
z
M 9.421875 75.984375 
L 18.40625 75.984375 
L 18.40625 64.59375 
L 9.421875 64.59375 
z
" id="DejaVuSans-105"/>
      <path d="M 9.421875 75.984375 
L 18.40625 75.984375 
L 18.40625 0 
L 9.421875 0 
z
" id="DejaVuSans-108"/>
      <path d="M 30.609375 48.390625 
Q 23.390625 48.390625 19.1875 42.75 
Q 14.984375 37.109375 14.984375 27.296875 
Q 14.984375 17.484375 19.15625 11.84375 
Q 23.34375 6.203125 30.609375 6.203125 
Q 37.796875 6.203125 41.984375 11.859375 
Q 46.1875 17.53125 46.1875 27.296875 
Q 46.1875 37.015625 41.984375 42.703125 
Q 37.796875 48.390625 30.609375 48.390625 
z
M 30.609375 56 
Q 42.328125 56 49.015625 48.375 
Q 55.71875 40.765625 55.71875 27.296875 
Q 55.71875 13.875 49.015625 6.21875 
Q 42.328125 -1.421875 30.609375 -1.421875 
Q 18.84375 -1.421875 12.171875 6.21875 
Q 5.515625 13.875 5.515625 27.296875 
Q 5.515625 40.765625 12.171875 48.375 
Q 18.84375 56 30.609375 56 
z
" id="DejaVuSans-111"/>
      <path d="M 54.890625 33.015625 
L 54.890625 0 
L 45.90625 0 
L 45.90625 32.71875 
Q 45.90625 40.484375 42.875 44.328125 
Q 39.84375 48.1875 33.796875 48.1875 
Q 26.515625 48.1875 22.3125 43.546875 
Q 18.109375 38.921875 18.109375 30.90625 
L 18.109375 0 
L 9.078125 0 
L 9.078125 54.6875 
L 18.109375 54.6875 
L 18.109375 46.1875 
Q 21.34375 51.125 25.703125 53.5625 
Q 30.078125 56 35.796875 56 
Q 45.21875 56 50.046875 50.171875 
Q 54.890625 44.34375 54.890625 33.015625 
z
" id="DejaVuSans-110"/>
      <path id="DejaVuSans-32"/>
      <path d="M 32.171875 -5.078125 
Q 28.375 -14.84375 24.75 -17.8125 
Q 21.140625 -20.796875 15.09375 -20.796875 
L 7.90625 -20.796875 
L 7.90625 -13.28125 
L 13.1875 -13.28125 
Q 16.890625 -13.28125 18.9375 -11.515625 
Q 21 -9.765625 23.484375 -3.21875 
L 25.09375 0.875 
L 2.984375 54.6875 
L 12.5 54.6875 
L 29.59375 11.921875 
L 46.6875 54.6875 
L 56.203125 54.6875 
z
" id="DejaVuSans-121"/>
      <path d="M 56.203125 29.59375 
L 56.203125 25.203125 
L 14.890625 25.203125 
Q 15.484375 15.921875 20.484375 11.0625 
Q 25.484375 6.203125 34.421875 6.203125 
Q 39.59375 6.203125 44.453125 7.46875 
Q 49.3125 8.734375 54.109375 11.28125 
L 54.109375 2.78125 
Q 49.265625 0.734375 44.1875 -0.34375 
Q 39.109375 -1.421875 33.890625 -1.421875 
Q 20.796875 -1.421875 13.15625 6.1875 
Q 5.515625 13.8125 5.515625 26.8125 
Q 5.515625 40.234375 12.765625 48.109375 
Q 20.015625 56 32.328125 56 
Q 43.359375 56 49.78125 48.890625 
Q 56.203125 41.796875 56.203125 29.59375 
z
M 47.21875 32.234375 
Q 47.125 39.59375 43.09375 43.984375 
Q 39.0625 48.390625 32.421875 48.390625 
Q 24.90625 48.390625 20.390625 44.140625 
Q 15.875 39.890625 15.1875 32.171875 
z
" id="DejaVuSans-101"/>
      <path d="M 34.28125 27.484375 
Q 23.390625 27.484375 19.1875 25 
Q 14.984375 22.515625 14.984375 16.5 
Q 14.984375 11.71875 18.140625 8.90625 
Q 21.296875 6.109375 26.703125 6.109375 
Q 34.1875 6.109375 38.703125 11.40625 
Q 43.21875 16.703125 43.21875 25.484375 
L 43.21875 27.484375 
z
M 52.203125 31.203125 
L 52.203125 0 
L 43.21875 0 
L 43.21875 8.296875 
Q 40.140625 3.328125 35.546875 0.953125 
Q 30.953125 -1.421875 24.3125 -1.421875 
Q 15.921875 -1.421875 10.953125 3.296875 
Q 6 8.015625 6 15.921875 
Q 6 25.140625 12.171875 29.828125 
Q 18.359375 34.515625 30.609375 34.515625 
L 43.21875 34.515625 
L 43.21875 35.40625 
Q 43.21875 41.609375 39.140625 45 
Q 35.0625 48.390625 27.6875 48.390625 
Q 23 48.390625 18.546875 47.265625 
Q 14.109375 46.140625 10.015625 43.890625 
L 10.015625 52.203125 
Q 14.9375 54.109375 19.578125 55.046875 
Q 24.21875 56 28.609375 56 
Q 40.484375 56 46.34375 49.84375 
Q 52.203125 43.703125 52.203125 31.203125 
z
" id="DejaVuSans-97"/>
      <path d="M 41.109375 46.296875 
Q 39.59375 47.171875 37.8125 47.578125 
Q 36.03125 48 33.890625 48 
Q 26.265625 48 22.1875 43.046875 
Q 18.109375 38.09375 18.109375 28.8125 
L 18.109375 0 
L 9.078125 0 
L 9.078125 54.6875 
L 18.109375 54.6875 
L 18.109375 46.1875 
Q 20.953125 51.171875 25.484375 53.578125 
Q 30.03125 56 36.53125 56 
Q 37.453125 56 38.578125 55.875 
Q 39.703125 55.765625 41.0625 55.515625 
z
" id="DejaVuSans-114"/>
      <path d="M 44.28125 53.078125 
L 44.28125 44.578125 
Q 40.484375 46.53125 36.375 47.5 
Q 32.28125 48.484375 27.875 48.484375 
Q 21.1875 48.484375 17.84375 46.4375 
Q 14.5 44.390625 14.5 40.28125 
Q 14.5 37.15625 16.890625 35.375 
Q 19.28125 33.59375 26.515625 31.984375 
L 29.59375 31.296875 
Q 39.15625 29.25 43.1875 25.515625 
Q 47.21875 21.78125 47.21875 15.09375 
Q 47.21875 7.46875 41.1875 3.015625 
Q 35.15625 -1.421875 24.609375 -1.421875 
Q 20.21875 -1.421875 15.453125 -0.5625 
Q 10.6875 0.296875 5.421875 2 
L 5.421875 11.28125 
Q 10.40625 8.6875 15.234375 7.390625 
Q 20.0625 6.109375 24.8125 6.109375 
Q 31.15625 6.109375 34.5625 8.28125 
Q 37.984375 10.453125 37.984375 14.40625 
Q 37.984375 18.0625 35.515625 20.015625 
Q 33.0625 21.96875 24.703125 23.78125 
L 21.578125 24.515625 
Q 13.234375 26.265625 9.515625 29.90625 
Q 5.8125 33.546875 5.8125 39.890625 
Q 5.8125 47.609375 11.28125 51.796875 
Q 16.75 56 26.8125 56 
Q 31.78125 56 36.171875 55.265625 
Q 40.578125 54.546875 44.28125 53.078125 
z
" id="DejaVuSans-115"/>
      <path d="M 45.40625 27.984375 
Q 45.40625 37.75 41.375 43.109375 
Q 37.359375 48.484375 30.078125 48.484375 
Q 22.859375 48.484375 18.828125 43.109375 
Q 14.796875 37.75 14.796875 27.984375 
Q 14.796875 18.265625 18.828125 12.890625 
Q 22.859375 7.515625 30.078125 7.515625 
Q 37.359375 7.515625 41.375 12.890625 
Q 45.40625 18.265625 45.40625 27.984375 
z
M 54.390625 6.78125 
Q 54.390625 -7.171875 48.1875 -13.984375 
Q 42 -20.796875 29.203125 -20.796875 
Q 24.46875 -20.796875 20.265625 -20.09375 
Q 16.0625 -19.390625 12.109375 -17.921875 
L 12.109375 -9.1875 
Q 16.0625 -11.328125 19.921875 -12.34375 
Q 23.78125 -13.375 27.78125 -13.375 
Q 36.625 -13.375 41.015625 -8.765625 
Q 45.40625 -4.15625 45.40625 5.171875 
L 45.40625 9.625 
Q 42.625 4.78125 38.28125 2.390625 
Q 33.9375 0 27.875 0 
Q 17.828125 0 11.671875 7.65625 
Q 5.515625 15.328125 5.515625 27.984375 
Q 5.515625 40.671875 11.671875 48.328125 
Q 17.828125 56 27.875 56 
Q 33.9375 56 38.28125 53.609375 
Q 42.625 51.21875 45.40625 46.390625 
L 45.40625 54.6875 
L 54.390625 54.6875 
z
" id="DejaVuSans-103"/>
     </defs>
     <g transform="translate(211.885625 331.916562)scale(0.1 -0.1)">
      <use xlink:href="#DejaVuSans-77"/>
      <use x="86.279297" xlink:href="#DejaVuSans-105"/>
      <use x="114.0625" xlink:href="#DejaVuSans-108"/>
      <use x="141.845703" xlink:href="#DejaVuSans-108"/>
      <use x="169.628906" xlink:href="#DejaVuSans-105"/>
      <use x="197.412109" xlink:href="#DejaVuSans-111"/>
      <use x="258.59375" xlink:href="#DejaVuSans-110"/>
      <use x="321.972656" xlink:href="#DejaVuSans-32"/>
      <use x="353.759766" xlink:href="#DejaVuSans-121"/>
      <use x="412.939453" xlink:href="#DejaVuSans-101"/>
      <use x="474.462891" xlink:href="#DejaVuSans-97"/>
      <use x="535.742188" xlink:href="#DejaVuSans-114"/>
      <use x="576.855469" xlink:href="#DejaVuSans-115"/>
      <use x="628.955078" xlink:href="#DejaVuSans-32"/>
      <use x="660.742188" xlink:href="#DejaVuSans-97"/>
      <use x="722.021484" xlink:href="#DejaVuSans-103"/>
      <use x="785.498047" xlink:href="#DejaVuSans-111"/>
     </g>
    </g>
   </g>
   <g id="matplotlib.axis_2">
    <g id="ytick_1">
     <g id="line2d_5">
      <defs>
       <path d="M 0 0 
L -3.5 0 
" id="m2b06fa71df" style="stroke:#000000;stroke-width:0.8;"/>
      </defs>
      <g>
       <use style="stroke:#000000;stroke-width:0.8;" x="57.44" xlink:href="#m2b06fa71df" y="302.64"/>
      </g>
     </g>
     <g id="text_6">
      <!-- 0 -->
      <g transform="translate(44.0775 306.439219)scale(0.1 -0.1)">
       <use xlink:href="#DejaVuSans-48"/>
      </g>
     </g>
    </g>
    <g id="ytick_2">
     <g id="line2d_6">
      <g>
       <use style="stroke:#000000;stroke-width:0.8;" x="57.44" xlink:href="#m2b06fa71df" y="264.599654"/>
      </g>
     </g>
     <g id="text_7">
      <!-- 250 -->
      <defs>
       <path d="M 10.796875 72.90625 
L 49.515625 72.90625 
L 49.515625 64.59375 
L 19.828125 64.59375 
L 19.828125 46.734375 
Q 21.96875 47.46875 24.109375 47.828125 
Q 26.265625 48.1875 28.421875 48.1875 
Q 40.625 48.1875 47.75 41.5 
Q 54.890625 34.8125 54.890625 23.390625 
Q 54.890625 11.625 47.5625 5.09375 
Q 40.234375 -1.421875 26.90625 -1.421875 
Q 22.3125 -1.421875 17.546875 -0.640625 
Q 12.796875 0.140625 7.71875 1.703125 
L 7.71875 11.625 
Q 12.109375 9.234375 16.796875 8.0625 
Q 21.484375 6.890625 26.703125 6.890625 
Q 35.15625 6.890625 40.078125 11.328125 
Q 45.015625 15.765625 45.015625 23.390625 
Q 45.015625 31 40.078125 35.4375 
Q 35.15625 39.890625 26.703125 39.890625 
Q 22.75 39.890625 18.8125 39.015625 
Q 14.890625 38.140625 10.796875 36.28125 
z
" id="DejaVuSans-53"/>
      </defs>
      <g transform="translate(31.3525 268.398873)scale(0.1 -0.1)">
       <use xlink:href="#DejaVuSans-50"/>
       <use x="63.623047" xlink:href="#DejaVuSans-53"/>
       <use x="127.246094" xlink:href="#DejaVuSans-48"/>
      </g>
     </g>
    </g>
    <g id="ytick_3">
     <g id="line2d_7">
      <g>
       <use style="stroke:#000000;stroke-width:0.8;" x="57.44" xlink:href="#m2b06fa71df" y="226.559308"/>
      </g>
     </g>
     <g id="text_8">
      <!-- 500 -->
      <g transform="translate(31.3525 230.358527)scale(0.1 -0.1)">
       <use xlink:href="#DejaVuSans-53"/>
       <use x="63.623047" xlink:href="#DejaVuSans-48"/>
       <use x="127.246094" xlink:href="#DejaVuSans-48"/>
      </g>
     </g>
    </g>
    <g id="ytick_4">
     <g id="line2d_8">
      <g>
       <use style="stroke:#000000;stroke-width:0.8;" x="57.44" xlink:href="#m2b06fa71df" y="188.518963"/>
      </g>
     </g>
     <g id="text_9">
      <!-- 750 -->
      <defs>
       <path d="M 8.203125 72.90625 
L 55.078125 72.90625 
L 55.078125 68.703125 
L 28.609375 0 
L 18.3125 0 
L 43.21875 64.59375 
L 8.203125 64.59375 
z
" id="DejaVuSans-55"/>
      </defs>
      <g transform="translate(31.3525 192.318181)scale(0.1 -0.1)">
       <use xlink:href="#DejaVuSans-55"/>
       <use x="63.623047" xlink:href="#DejaVuSans-53"/>
       <use x="127.246094" xlink:href="#DejaVuSans-48"/>
      </g>
     </g>
    </g>
    <g id="ytick_5">
     <g id="line2d_9">
      <g>
       <use style="stroke:#000000;stroke-width:0.8;" x="57.44" xlink:href="#m2b06fa71df" y="150.478617"/>
      </g>
     </g>
     <g id="text_10">
      <!-- 1000 -->
      <g transform="translate(24.99 154.277835)scale(0.1 -0.1)">
       <use xlink:href="#DejaVuSans-49"/>
       <use x="63.623047" xlink:href="#DejaVuSans-48"/>
       <use x="127.246094" xlink:href="#DejaVuSans-48"/>
       <use x="190.869141" xlink:href="#DejaVuSans-48"/>
      </g>
     </g>
    </g>
    <g id="ytick_6">
     <g id="line2d_10">
      <g>
       <use style="stroke:#000000;stroke-width:0.8;" x="57.44" xlink:href="#m2b06fa71df" y="112.438271"/>
      </g>
     </g>
     <g id="text_11">
      <!-- 1250 -->
      <g transform="translate(24.99 116.23749)scale(0.1 -0.1)">
       <use xlink:href="#DejaVuSans-49"/>
       <use x="63.623047" xlink:href="#DejaVuSans-50"/>
       <use x="127.246094" xlink:href="#DejaVuSans-53"/>
       <use x="190.869141" xlink:href="#DejaVuSans-48"/>
      </g>
     </g>
    </g>
    <g id="ytick_7">
     <g id="line2d_11">
      <g>
       <use style="stroke:#000000;stroke-width:0.8;" x="57.44" xlink:href="#m2b06fa71df" y="74.397925"/>
      </g>
     </g>
     <g id="text_12">
      <!-- 1500 -->
      <g transform="translate(24.99 78.197144)scale(0.1 -0.1)">
       <use xlink:href="#DejaVuSans-49"/>
       <use x="63.623047" xlink:href="#DejaVuSans-53"/>
       <use x="127.246094" xlink:href="#DejaVuSans-48"/>
       <use x="190.869141" xlink:href="#DejaVuSans-48"/>
      </g>
     </g>
    </g>
    <g id="ytick_8">
     <g id="line2d_12">
      <g>
       <use style="stroke:#000000;stroke-width:0.8;" x="57.44" xlink:href="#m2b06fa71df" y="36.357579"/>
      </g>
     </g>
     <g id="text_13">
      <!-- 1750 -->
      <g transform="translate(24.99 40.156798)scale(0.1 -0.1)">
       <use xlink:href="#DejaVuSans-49"/>
       <use x="63.623047" xlink:href="#DejaVuSans-55"/>
       <use x="127.246094" xlink:href="#DejaVuSans-53"/>
       <use x="190.869141" xlink:href="#DejaVuSans-48"/>
      </g>
     </g>
    </g>
    <g id="text_14">
     <!-- Counts -->
     <defs>
      <path d="M 64.40625 67.28125 
L 64.40625 56.890625 
Q 59.421875 61.53125 53.78125 63.8125 
Q 48.140625 66.109375 41.796875 66.109375 
Q 29.296875 66.109375 22.65625 58.46875 
Q 16.015625 50.828125 16.015625 36.375 
Q 16.015625 21.96875 22.65625 14.328125 
Q 29.296875 6.6875 41.796875 6.6875 
Q 48.140625 6.6875 53.78125 8.984375 
Q 59.421875 11.28125 64.40625 15.921875 
L 64.40625 5.609375 
Q 59.234375 2.09375 53.4375 0.328125 
Q 47.65625 -1.421875 41.21875 -1.421875 
Q 24.65625 -1.421875 15.125 8.703125 
Q 5.609375 18.84375 5.609375 36.375 
Q 5.609375 53.953125 15.125 64.078125 
Q 24.65625 74.21875 41.21875 74.21875 
Q 47.75 74.21875 53.53125 72.484375 
Q 59.328125 70.75 64.40625 67.28125 
z
" id="DejaVuSans-67"/>
      <path d="M 8.5 21.578125 
L 8.5 54.6875 
L 17.484375 54.6875 
L 17.484375 21.921875 
Q 17.484375 14.15625 20.5 10.265625 
Q 23.53125 6.390625 29.59375 6.390625 
Q 36.859375 6.390625 41.078125 11.03125 
Q 45.3125 15.671875 45.3125 23.6875 
L 45.3125 54.6875 
L 54.296875 54.6875 
L 54.296875 0 
L 45.3125 0 
L 45.3125 8.40625 
Q 42.046875 3.421875 37.71875 1 
Q 33.40625 -1.421875 27.6875 -1.421875 
Q 18.265625 -1.421875 13.375 4.4375 
Q 8.5 10.296875 8.5 21.578125 
z
M 31.109375 56 
z
" id="DejaVuSans-117"/>
      <path d="M 18.3125 70.21875 
L 18.3125 54.6875 
L 36.8125 54.6875 
L 36.8125 47.703125 
L 18.3125 47.703125 
L 18.3125 18.015625 
Q 18.3125 11.328125 20.140625 9.421875 
Q 21.96875 7.515625 27.59375 7.515625 
L 36.8125 7.515625 
L 36.8125 0 
L 27.59375 0 
Q 17.1875 0 13.234375 3.875 
Q 9.28125 7.765625 9.28125 18.015625 
L 9.28125 47.703125 
L 2.6875 47.703125 
L 2.6875 54.6875 
L 9.28125 54.6875 
L 9.28125 70.21875 
z
" id="DejaVuSans-116"/>
     </defs>
     <g transform="translate(18.910312 181.493125)rotate(-90)scale(0.1 -0.1)">
      <use xlink:href="#DejaVuSans-67"/>
      <use x="69.824219" xlink:href="#DejaVuSans-111"/>
      <use x="131.005859" xlink:href="#DejaVuSans-117"/>
      <use x="194.384766" xlink:href="#DejaVuSans-110"/>
      <use x="257.763672" xlink:href="#DejaVuSans-116"/>
      <use x="296.972656" xlink:href="#DejaVuSans-115"/>
     </g>
    </g>
   </g>
   <g id="line2d_13">
    <path clip-path="url(#pca7fadcff2)" d="M 98.706249 302.569973 
L 141.71406 302.543055 
L 148.570378 302.567004 
L 155.426695 302.588217 
L 166.022823 302.50172 
L 171.632537 302.469597 
L 178.488855 302.380125 
L 189.708284 302.453088 
L 205.914126 302.292315 
L 212.770443 302.000946 
L 225.236475 301.917268 
L 231.469491 301.895364 
L 236.455904 301.506599 
L 240.819015 301.33381 
L 247.675333 301.030886 
L 260.141365 300.279724 
L 263.257873 299.838216 
L 266.374381 299.116893 
L 269.490889 298.160313 
L 272.607397 296.937178 
L 275.100604 296.026543 
L 276.970509 295.613217 
L 280.710318 295.003048 
L 281.956921 294.589942 
L 283.826826 293.682352 
L 296.91616 286.23342 
L 300.032668 284.611604 
L 301.902573 283.344681 
L 303.772478 281.781593 
L 306.265684 279.336129 
L 308.135589 277.18409 
L 310.005494 274.687834 
L 311.875399 271.865761 
L 314.368605 267.665094 
L 316.23851 264.129161 
L 318.108415 260.099807 
L 319.978319 255.522658 
L 324.964732 242.401507 
L 326.834637 236.901197 
L 328.08124 232.539731 
L 329.327844 227.355962 
L 330.574447 221.153096 
L 331.82105 213.764217 
L 333.067653 205.066873 
L 334.314256 195.00427 
L 336.184161 177.389694 
L 338.054066 156.950845 
L 339.923971 134.08587 
L 344.287082 79.066609 
L 345.533685 66.394893 
L 346.780289 56.525402 
L 347.40359 52.768072 
L 348.026892 49.813899 
L 348.650193 47.646853 
L 349.273495 46.229987 
L 349.896797 45.508619 
L 350.520098 45.413816 
L 351.1434 45.866048 
L 351.766701 46.779019 
L 352.390003 48.063775 
L 353.636606 51.406032 
L 356.129813 59.34938 
L 359.869622 71.903474 
L 366.102638 94.344906 
L 367.972543 102.251939 
L 369.842448 111.433975 
L 371.712353 121.680701 
L 373.582258 133.008311 
L 375.452162 145.809973 
L 377.322067 160.29195 
L 380.438575 186.803245 
L 383.555083 212.535991 
L 386.04829 231.025374 
L 388.541496 247.922999 
L 391.034703 263.247838 
L 392.904607 273.351072 
L 394.151211 279.21259 
L 395.397814 284.25807 
L 396.644417 288.44297 
L 397.89102 291.791991 
L 399.137623 294.393212 
L 400.384227 296.375474 
L 401.63083 297.880866 
L 402.877433 299.040625 
L 404.124036 299.957484 
L 405.993941 301.010817 
L 407.863846 301.749159 
L 409.733751 302.20807 
L 409.733751 302.20807 
" style="fill:none;stroke:#000000;stroke-linecap:square;stroke-opacity:0.8;"/>
   </g>
   <g id="line2d_14">
    <path clip-path="url(#pca7fadcff2)" d="M 389.873792 302.64 
L 389.873792 25.44 
" style="fill:none;stroke:#000000;stroke-dasharray:6.4,1.6,1,1.6;stroke-dashoffset:0;stroke-opacity:0.8;"/>
   </g>
   <g id="line2d_15">
    <path clip-path="url(#pca7fadcff2)" d="M 320.444148 302.64 
L 320.444148 25.44 
" style="fill:none;stroke:#000000;stroke-dasharray:6.4,1.6,1,1.6;stroke-dashoffset:0;stroke-opacity:0.8;"/>
   </g>
   <g id="line2d_16">
    <path clip-path="url(#pca7fadcff2)" d="M 352.029658 302.64 
L 352.029658 25.44 
" style="fill:none;stroke:#000000;stroke-dasharray:1,1.65;stroke-dashoffset:0;stroke-opacity:0.8;"/>
   </g>
   <g id="line2d_17">
    <path clip-path="url(#pca7fadcff2)" d="M 354.136812 302.64 
L 354.136812 25.44 
" style="fill:none;stroke:#000000;stroke-dasharray:3.7,1.6;stroke-dashoffset:0;stroke-opacity:0.8;"/>
   </g>
   <g id="line2d_18">
    <path clip-path="url(#pca7fadcff2)" d="M 350.520098 302.64 
L 350.520098 25.44 
" style="fill:none;stroke:#000000;stroke-linecap:square;stroke-opacity:0.8;"/>
   </g>
   <g id="patch_203">
    <path d="M 57.44 302.64 
L 57.44 25.44 
" style="fill:none;stroke:#000000;stroke-linecap:square;stroke-linejoin:miter;stroke-width:0.8;"/>
   </g>
   <g id="patch_204">
    <path d="M 58.44 303.64 
L 450 303.64 
" style="fill:none;stroke:#000000;stroke-linecap:square;stroke-linejoin:miter;stroke-width:0.8;"/>
   </g>
   <g id="text_15">
    <!-- WGD date -->
    <defs>
     <path d="M 3.328125 72.90625 
L 13.28125 72.90625 
L 28.609375 11.28125 
L 43.890625 72.90625 
L 54.984375 72.90625 
L 70.3125 11.28125 
L 85.59375 72.90625 
L 95.609375 72.90625 
L 77.296875 0 
L 64.890625 0 
L 49.515625 63.28125 
L 33.984375 0 
L 21.578125 0 
z
" id="DejaVuSans-87"/>
     <path d="M 59.515625 10.40625 
L 59.515625 29.984375 
L 43.40625 29.984375 
L 43.40625 38.09375 
L 69.28125 38.09375 
L 69.28125 6.78125 
Q 63.578125 2.734375 56.6875 0.65625 
Q 49.8125 -1.421875 42 -1.421875 
Q 24.90625 -1.421875 15.25 8.5625 
Q 5.609375 18.5625 5.609375 36.375 
Q 5.609375 54.25 15.25 64.234375 
Q 24.90625 74.21875 42 74.21875 
Q 49.125 74.21875 55.546875 72.453125 
Q 61.96875 70.703125 67.390625 67.28125 
L 67.390625 56.78125 
Q 61.921875 61.421875 55.765625 63.765625 
Q 49.609375 66.109375 42.828125 66.109375 
Q 29.4375 66.109375 22.71875 58.640625 
Q 16.015625 51.171875 16.015625 36.375 
Q 16.015625 21.625 22.71875 14.15625 
Q 29.4375 6.6875 42.828125 6.6875 
Q 48.046875 6.6875 52.140625 7.59375 
Q 56.25 8.5 59.515625 10.40625 
z
" id="DejaVuSans-71"/>
     <path d="M 19.671875 64.796875 
L 19.671875 8.109375 
L 31.59375 8.109375 
Q 46.6875 8.109375 53.6875 14.9375 
Q 60.6875 21.78125 60.6875 36.53125 
Q 60.6875 51.171875 53.6875 57.984375 
Q 46.6875 64.796875 31.59375 64.796875 
z
M 9.8125 72.90625 
L 30.078125 72.90625 
Q 51.265625 72.90625 61.171875 64.09375 
Q 71.09375 55.28125 71.09375 36.53125 
Q 71.09375 17.671875 61.125 8.828125 
Q 51.171875 0 30.078125 0 
L 9.8125 0 
z
" id="DejaVuSans-68"/>
     <path d="M 45.40625 46.390625 
L 45.40625 75.984375 
L 54.390625 75.984375 
L 54.390625 0 
L 45.40625 0 
L 45.40625 8.203125 
Q 42.578125 3.328125 38.25 0.953125 
Q 33.9375 -1.421875 27.875 -1.421875 
Q 17.96875 -1.421875 11.734375 6.484375 
Q 5.515625 14.40625 5.515625 27.296875 
Q 5.515625 40.1875 11.734375 48.09375 
Q 17.96875 56 27.875 56 
Q 33.9375 56 38.25 53.625 
Q 42.578125 51.265625 45.40625 46.390625 
z
M 14.796875 27.296875 
Q 14.796875 17.390625 18.875 11.75 
Q 22.953125 6.109375 30.078125 6.109375 
Q 37.203125 6.109375 41.296875 11.75 
Q 45.40625 17.390625 45.40625 27.296875 
Q 45.40625 37.203125 41.296875 42.84375 
Q 37.203125 48.484375 30.078125 48.484375 
Q 22.953125 48.484375 18.875 42.84375 
Q 14.796875 37.203125 14.796875 27.296875 
z
" id="DejaVuSans-100"/>
    </defs>
    <g transform="translate(223.581562 19.44)scale(0.12 -0.12)">
     <use xlink:href="#DejaVuSans-87"/>
     <use x="98.876953" xlink:href="#DejaVuSans-71"/>
     <use x="176.367188" xlink:href="#DejaVuSans-68"/>
     <use x="253.369141" xlink:href="#DejaVuSans-32"/>
     <use x="285.15625" xlink:href="#DejaVuSans-100"/>
     <use x="348.632812" xlink:href="#DejaVuSans-97"/>
     <use x="409.912109" xlink:href="#DejaVuSans-116"/>
     <use x="449.121094" xlink:href="#DejaVuSans-101"/>
    </g>
   </g>
   <g id="legend_1">
    <g id="line2d_19">
     <path d="M 65.937 36.350998 
L 82.597 36.350998 
" style="fill:none;stroke:#000000;stroke-dasharray:6.4,1.6,1,1.6;stroke-dashoffset:0;stroke-opacity:0.8;"/>
    </g>
    <g id="line2d_20"/>
    <g id="text_16">
     <!-- 90% HPD CI Upper 122.32 -->
     <defs>
      <path d="M 10.984375 1.515625 
L 10.984375 10.5 
Q 14.703125 8.734375 18.5 7.8125 
Q 22.3125 6.890625 25.984375 6.890625 
Q 35.75 6.890625 40.890625 13.453125 
Q 46.046875 20.015625 46.78125 33.40625 
Q 43.953125 29.203125 39.59375 26.953125 
Q 35.25 24.703125 29.984375 24.703125 
Q 19.046875 24.703125 12.671875 31.3125 
Q 6.296875 37.9375 6.296875 49.421875 
Q 6.296875 60.640625 12.9375 67.421875 
Q 19.578125 74.21875 30.609375 74.21875 
Q 43.265625 74.21875 49.921875 64.515625 
Q 56.59375 54.828125 56.59375 36.375 
Q 56.59375 19.140625 48.40625 8.859375 
Q 40.234375 -1.421875 26.421875 -1.421875 
Q 22.703125 -1.421875 18.890625 -0.6875 
Q 15.09375 0.046875 10.984375 1.515625 
z
M 30.609375 32.421875 
Q 37.25 32.421875 41.125 36.953125 
Q 45.015625 41.5 45.015625 49.421875 
Q 45.015625 57.28125 41.125 61.84375 
Q 37.25 66.40625 30.609375 66.40625 
Q 23.96875 66.40625 20.09375 61.84375 
Q 16.21875 57.28125 16.21875 49.421875 
Q 16.21875 41.5 20.09375 36.953125 
Q 23.96875 32.421875 30.609375 32.421875 
z
" id="DejaVuSans-57"/>
      <path d="M 72.703125 32.078125 
Q 68.453125 32.078125 66.03125 28.46875 
Q 63.625 24.859375 63.625 18.40625 
Q 63.625 12.0625 66.03125 8.421875 
Q 68.453125 4.78125 72.703125 4.78125 
Q 76.859375 4.78125 79.265625 8.421875 
Q 81.6875 12.0625 81.6875 18.40625 
Q 81.6875 24.8125 79.265625 28.4375 
Q 76.859375 32.078125 72.703125 32.078125 
z
M 72.703125 38.28125 
Q 80.421875 38.28125 84.953125 32.90625 
Q 89.5 27.546875 89.5 18.40625 
Q 89.5 9.28125 84.9375 3.921875 
Q 80.375 -1.421875 72.703125 -1.421875 
Q 64.890625 -1.421875 60.34375 3.921875 
Q 55.8125 9.28125 55.8125 18.40625 
Q 55.8125 27.59375 60.375 32.9375 
Q 64.9375 38.28125 72.703125 38.28125 
z
M 22.3125 68.015625 
Q 18.109375 68.015625 15.6875 64.375 
Q 13.28125 60.75 13.28125 54.390625 
Q 13.28125 47.953125 15.671875 44.328125 
Q 18.0625 40.71875 22.3125 40.71875 
Q 26.5625 40.71875 28.96875 44.328125 
Q 31.390625 47.953125 31.390625 54.390625 
Q 31.390625 60.6875 28.953125 64.34375 
Q 26.515625 68.015625 22.3125 68.015625 
z
M 66.40625 74.21875 
L 74.21875 74.21875 
L 28.609375 -1.421875 
L 20.796875 -1.421875 
z
M 22.3125 74.21875 
Q 30.03125 74.21875 34.609375 68.875 
Q 39.203125 63.53125 39.203125 54.390625 
Q 39.203125 45.171875 34.640625 39.84375 
Q 30.078125 34.515625 22.3125 34.515625 
Q 14.546875 34.515625 10.03125 39.859375 
Q 5.515625 45.21875 5.515625 54.390625 
Q 5.515625 63.484375 10.046875 68.84375 
Q 14.59375 74.21875 22.3125 74.21875 
z
" id="DejaVuSans-37"/>
      <path d="M 9.8125 72.90625 
L 19.671875 72.90625 
L 19.671875 43.015625 
L 55.515625 43.015625 
L 55.515625 72.90625 
L 65.375 72.90625 
L 65.375 0 
L 55.515625 0 
L 55.515625 34.71875 
L 19.671875 34.71875 
L 19.671875 0 
L 9.8125 0 
z
" id="DejaVuSans-72"/>
      <path d="M 19.671875 64.796875 
L 19.671875 37.40625 
L 32.078125 37.40625 
Q 38.96875 37.40625 42.71875 40.96875 
Q 46.484375 44.53125 46.484375 51.125 
Q 46.484375 57.671875 42.71875 61.234375 
Q 38.96875 64.796875 32.078125 64.796875 
z
M 9.8125 72.90625 
L 32.078125 72.90625 
Q 44.34375 72.90625 50.609375 67.359375 
Q 56.890625 61.8125 56.890625 51.125 
Q 56.890625 40.328125 50.609375 34.8125 
Q 44.34375 29.296875 32.078125 29.296875 
L 19.671875 29.296875 
L 19.671875 0 
L 9.8125 0 
z
" id="DejaVuSans-80"/>
      <path d="M 9.8125 72.90625 
L 19.671875 72.90625 
L 19.671875 0 
L 9.8125 0 
z
" id="DejaVuSans-73"/>
      <path d="M 8.6875 72.90625 
L 18.609375 72.90625 
L 18.609375 28.609375 
Q 18.609375 16.890625 22.84375 11.734375 
Q 27.09375 6.59375 36.625 6.59375 
Q 46.09375 6.59375 50.34375 11.734375 
Q 54.59375 16.890625 54.59375 28.609375 
L 54.59375 72.90625 
L 64.5 72.90625 
L 64.5 27.390625 
Q 64.5 13.140625 57.4375 5.859375 
Q 50.390625 -1.421875 36.625 -1.421875 
Q 22.796875 -1.421875 15.734375 5.859375 
Q 8.6875 13.140625 8.6875 27.390625 
z
" id="DejaVuSans-85"/>
      <path d="M 18.109375 8.203125 
L 18.109375 -20.796875 
L 9.078125 -20.796875 
L 9.078125 54.6875 
L 18.109375 54.6875 
L 18.109375 46.390625 
Q 20.953125 51.265625 25.265625 53.625 
Q 29.59375 56 35.59375 56 
Q 45.5625 56 51.78125 48.09375 
Q 58.015625 40.1875 58.015625 27.296875 
Q 58.015625 14.40625 51.78125 6.484375 
Q 45.5625 -1.421875 35.59375 -1.421875 
Q 29.59375 -1.421875 25.265625 0.953125 
Q 20.953125 3.328125 18.109375 8.203125 
z
M 48.6875 27.296875 
Q 48.6875 37.203125 44.609375 42.84375 
Q 40.53125 48.484375 33.40625 48.484375 
Q 26.265625 48.484375 22.1875 42.84375 
Q 18.109375 37.203125 18.109375 27.296875 
Q 18.109375 17.390625 22.1875 11.75 
Q 26.265625 6.109375 33.40625 6.109375 
Q 40.53125 6.109375 44.609375 11.75 
Q 48.6875 17.390625 48.6875 27.296875 
z
" id="DejaVuSans-112"/>
      <path d="M 10.6875 12.40625 
L 21 12.40625 
L 21 0 
L 10.6875 0 
z
" id="DejaVuSans-46"/>
      <path d="M 40.578125 39.3125 
Q 47.65625 37.796875 51.625 33 
Q 55.609375 28.21875 55.609375 21.1875 
Q 55.609375 10.40625 48.1875 4.484375 
Q 40.765625 -1.421875 27.09375 -1.421875 
Q 22.515625 -1.421875 17.65625 -0.515625 
Q 12.796875 0.390625 7.625 2.203125 
L 7.625 11.71875 
Q 11.71875 9.328125 16.59375 8.109375 
Q 21.484375 6.890625 26.8125 6.890625 
Q 36.078125 6.890625 40.9375 10.546875 
Q 45.796875 14.203125 45.796875 21.1875 
Q 45.796875 27.640625 41.28125 31.265625 
Q 36.765625 34.90625 28.71875 34.90625 
L 20.21875 34.90625 
L 20.21875 43.015625 
L 29.109375 43.015625 
Q 36.375 43.015625 40.234375 45.921875 
Q 44.09375 48.828125 44.09375 54.296875 
Q 44.09375 59.90625 40.109375 62.90625 
Q 36.140625 65.921875 28.71875 65.921875 
Q 24.65625 65.921875 20.015625 65.03125 
Q 15.375 64.15625 9.8125 62.3125 
L 9.8125 71.09375 
Q 15.4375 72.65625 20.34375 73.4375 
Q 25.25 74.21875 29.59375 74.21875 
Q 40.828125 74.21875 47.359375 69.109375 
Q 53.90625 64.015625 53.90625 55.328125 
Q 53.90625 49.265625 50.4375 45.09375 
Q 46.96875 40.921875 40.578125 39.3125 
z
" id="DejaVuSans-51"/>
     </defs>
     <g transform="translate(89.261 39.266498)scale(0.0833 -0.0833)">
      <use xlink:href="#DejaVuSans-57"/>
      <use x="63.623047" xlink:href="#DejaVuSans-48"/>
      <use x="127.246094" xlink:href="#DejaVuSans-37"/>
      <use x="222.265625" xlink:href="#DejaVuSans-32"/>
      <use x="254.052734" xlink:href="#DejaVuSans-72"/>
      <use x="329.248047" xlink:href="#DejaVuSans-80"/>
      <use x="389.550781" xlink:href="#DejaVuSans-68"/>
      <use x="466.552734" xlink:href="#DejaVuSans-32"/>
      <use x="498.339844" xlink:href="#DejaVuSans-67"/>
      <use x="568.164062" xlink:href="#DejaVuSans-73"/>
      <use x="597.65625" xlink:href="#DejaVuSans-32"/>
      <use x="629.443359" xlink:href="#DejaVuSans-85"/>
      <use x="702.636719" xlink:href="#DejaVuSans-112"/>
      <use x="766.113281" xlink:href="#DejaVuSans-112"/>
      <use x="829.589844" xlink:href="#DejaVuSans-101"/>
      <use x="891.113281" xlink:href="#DejaVuSans-114"/>
      <use x="932.226562" xlink:href="#DejaVuSans-32"/>
      <use x="964.013672" xlink:href="#DejaVuSans-49"/>
      <use x="1027.636719" xlink:href="#DejaVuSans-50"/>
      <use x="1091.259766" xlink:href="#DejaVuSans-50"/>
      <use x="1154.882812" xlink:href="#DejaVuSans-46"/>
      <use x="1186.669922" xlink:href="#DejaVuSans-51"/>
      <use x="1250.292969" xlink:href="#DejaVuSans-50"/>
     </g>
    </g>
    <g id="line2d_21">
     <path d="M 65.937 48.577877 
L 82.597 48.577877 
" style="fill:none;stroke:#000000;stroke-dasharray:6.4,1.6,1,1.6;stroke-dashoffset:0;stroke-opacity:0.8;"/>
    </g>
    <g id="line2d_22"/>
    <g id="text_17">
     <!-- 90% HPD CI Lower 105.07 -->
     <defs>
      <path d="M 9.8125 72.90625 
L 19.671875 72.90625 
L 19.671875 8.296875 
L 55.171875 8.296875 
L 55.171875 0 
L 9.8125 0 
z
" id="DejaVuSans-76"/>
      <path d="M 4.203125 54.6875 
L 13.1875 54.6875 
L 24.421875 12.015625 
L 35.59375 54.6875 
L 46.1875 54.6875 
L 57.421875 12.015625 
L 68.609375 54.6875 
L 77.59375 54.6875 
L 63.28125 0 
L 52.6875 0 
L 40.921875 44.828125 
L 29.109375 0 
L 18.5 0 
z
" id="DejaVuSans-119"/>
     </defs>
     <g transform="translate(89.261 51.493377)scale(0.0833 -0.0833)">
      <use xlink:href="#DejaVuSans-57"/>
      <use x="63.623047" xlink:href="#DejaVuSans-48"/>
      <use x="127.246094" xlink:href="#DejaVuSans-37"/>
      <use x="222.265625" xlink:href="#DejaVuSans-32"/>
      <use x="254.052734" xlink:href="#DejaVuSans-72"/>
      <use x="329.248047" xlink:href="#DejaVuSans-80"/>
      <use x="389.550781" xlink:href="#DejaVuSans-68"/>
      <use x="466.552734" xlink:href="#DejaVuSans-32"/>
      <use x="498.339844" xlink:href="#DejaVuSans-67"/>
      <use x="568.164062" xlink:href="#DejaVuSans-73"/>
      <use x="597.65625" xlink:href="#DejaVuSans-32"/>
      <use x="629.443359" xlink:href="#DejaVuSans-76"/>
      <use x="683.40625" xlink:href="#DejaVuSans-111"/>
      <use x="744.587891" xlink:href="#DejaVuSans-119"/>
      <use x="826.375" xlink:href="#DejaVuSans-101"/>
      <use x="887.898438" xlink:href="#DejaVuSans-114"/>
      <use x="929.011719" xlink:href="#DejaVuSans-32"/>
      <use x="960.798828" xlink:href="#DejaVuSans-49"/>
      <use x="1024.421875" xlink:href="#DejaVuSans-48"/>
      <use x="1088.044922" xlink:href="#DejaVuSans-53"/>
      <use x="1151.667969" xlink:href="#DejaVuSans-46"/>
      <use x="1183.455078" xlink:href="#DejaVuSans-48"/>
      <use x="1247.078125" xlink:href="#DejaVuSans-55"/>
     </g>
    </g>
    <g id="line2d_23">
     <path d="M 65.937 60.804755 
L 82.597 60.804755 
" style="fill:none;stroke:#000000;stroke-dasharray:1,1.65;stroke-dashoffset:0;stroke-opacity:0.8;"/>
    </g>
    <g id="line2d_24"/>
    <g id="text_18">
     <!-- Posterior Mean 112.92 -->
     <g transform="translate(89.261 63.720255)scale(0.0833 -0.0833)">
      <use xlink:href="#DejaVuSans-80"/>
      <use x="56.677734" xlink:href="#DejaVuSans-111"/>
      <use x="117.859375" xlink:href="#DejaVuSans-115"/>
      <use x="169.958984" xlink:href="#DejaVuSans-116"/>
      <use x="209.167969" xlink:href="#DejaVuSans-101"/>
      <use x="270.691406" xlink:href="#DejaVuSans-114"/>
      <use x="311.804688" xlink:href="#DejaVuSans-105"/>
      <use x="339.587891" xlink:href="#DejaVuSans-111"/>
      <use x="400.769531" xlink:href="#DejaVuSans-114"/>
      <use x="441.882812" xlink:href="#DejaVuSans-32"/>
      <use x="473.669922" xlink:href="#DejaVuSans-77"/>
      <use x="559.949219" xlink:href="#DejaVuSans-101"/>
      <use x="621.472656" xlink:href="#DejaVuSans-97"/>
      <use x="682.751953" xlink:href="#DejaVuSans-110"/>
      <use x="746.130859" xlink:href="#DejaVuSans-32"/>
      <use x="777.917969" xlink:href="#DejaVuSans-49"/>
      <use x="841.541016" xlink:href="#DejaVuSans-49"/>
      <use x="905.164062" xlink:href="#DejaVuSans-50"/>
      <use x="968.787109" xlink:href="#DejaVuSans-46"/>
      <use x="1000.574219" xlink:href="#DejaVuSans-57"/>
      <use x="1064.197266" xlink:href="#DejaVuSans-50"/>
     </g>
    </g>
    <g id="line2d_25">
     <path d="M 65.937 73.031633 
L 82.597 73.031633 
" style="fill:none;stroke:#000000;stroke-dasharray:3.7,1.6;stroke-dashoffset:0;stroke-opacity:0.8;"/>
    </g>
    <g id="line2d_26"/>
    <g id="text_19">
     <!-- Median 113.44 -->
     <defs>
      <path d="M 37.796875 64.3125 
L 12.890625 25.390625 
L 37.796875 25.390625 
z
M 35.203125 72.90625 
L 47.609375 72.90625 
L 47.609375 25.390625 
L 58.015625 25.390625 
L 58.015625 17.1875 
L 47.609375 17.1875 
L 47.609375 0 
L 37.796875 0 
L 37.796875 17.1875 
L 4.890625 17.1875 
L 4.890625 26.703125 
z
" id="DejaVuSans-52"/>
     </defs>
     <g transform="translate(89.261 75.947133)scale(0.0833 -0.0833)">
      <use xlink:href="#DejaVuSans-77"/>
      <use x="86.279297" xlink:href="#DejaVuSans-101"/>
      <use x="147.802734" xlink:href="#DejaVuSans-100"/>
      <use x="211.279297" xlink:href="#DejaVuSans-105"/>
      <use x="239.0625" xlink:href="#DejaVuSans-97"/>
      <use x="300.341797" xlink:href="#DejaVuSans-110"/>
      <use x="363.720703" xlink:href="#DejaVuSans-32"/>
      <use x="395.507812" xlink:href="#DejaVuSans-49"/>
      <use x="459.130859" xlink:href="#DejaVuSans-49"/>
      <use x="522.753906" xlink:href="#DejaVuSans-51"/>
      <use x="586.376953" xlink:href="#DejaVuSans-46"/>
      <use x="618.164062" xlink:href="#DejaVuSans-52"/>
      <use x="681.787109" xlink:href="#DejaVuSans-52"/>
     </g>
    </g>
    <g id="line2d_27">
     <path d="M 65.937 85.258511 
L 82.597 85.258511 
" style="fill:none;stroke:#000000;stroke-linecap:square;stroke-opacity:0.8;"/>
    </g>
    <g id="line2d_28"/>
    <g id="text_20">
     <!-- Mode 112.54 -->
     <g transform="translate(89.261 88.174011)scale(0.0833 -0.0833)">
      <use xlink:href="#DejaVuSans-77"/>
      <use x="86.279297" xlink:href="#DejaVuSans-111"/>
      <use x="147.460938" xlink:href="#DejaVuSans-100"/>
      <use x="210.9375" xlink:href="#DejaVuSans-101"/>
      <use x="272.460938" xlink:href="#DejaVuSans-32"/>
      <use x="304.248047" xlink:href="#DejaVuSans-49"/>
      <use x="367.871094" xlink:href="#DejaVuSans-49"/>
      <use x="431.494141" xlink:href="#DejaVuSans-50"/>
      <use x="495.117188" xlink:href="#DejaVuSans-46"/>
      <use x="526.904297" xlink:href="#DejaVuSans-53"/>
      <use x="590.527344" xlink:href="#DejaVuSans-52"/>
     </g>
    </g>
    <g id="patch_205">
     <path d="M 65.937 100.400889 
L 82.597 100.400889 
L 82.597 94.569889 
L 65.937 94.569889 
z
" style="fill:#008000;opacity:0.8;"/>
    </g>
    <g id="text_21">
     <!-- Raw dates -->
     <defs>
      <path d="M 44.390625 34.1875 
Q 47.5625 33.109375 50.5625 29.59375 
Q 53.5625 26.078125 56.59375 19.921875 
L 66.609375 0 
L 56 0 
L 46.6875 18.703125 
Q 43.0625 26.03125 39.671875 28.421875 
Q 36.28125 30.8125 30.421875 30.8125 
L 19.671875 30.8125 
L 19.671875 0 
L 9.8125 0 
L 9.8125 72.90625 
L 32.078125 72.90625 
Q 44.578125 72.90625 50.734375 67.671875 
Q 56.890625 62.453125 56.890625 51.90625 
Q 56.890625 45.015625 53.6875 40.46875 
Q 50.484375 35.9375 44.390625 34.1875 
z
M 19.671875 64.796875 
L 19.671875 38.921875 
L 32.078125 38.921875 
Q 39.203125 38.921875 42.84375 42.21875 
Q 46.484375 45.515625 46.484375 51.90625 
Q 46.484375 58.296875 42.84375 61.546875 
Q 39.203125 64.796875 32.078125 64.796875 
z
" id="DejaVuSans-82"/>
     </defs>
     <g transform="translate(89.261 100.400889)scale(0.0833 -0.0833)">
      <use xlink:href="#DejaVuSans-82"/>
      <use x="67.232422" xlink:href="#DejaVuSans-97"/>
      <use x="128.511719" xlink:href="#DejaVuSans-119"/>
      <use x="210.298828" xlink:href="#DejaVuSans-32"/>
      <use x="242.085938" xlink:href="#DejaVuSans-100"/>
      <use x="305.5625" xlink:href="#DejaVuSans-97"/>
      <use x="366.841797" xlink:href="#DejaVuSans-116"/>
      <use x="406.050781" xlink:href="#DejaVuSans-101"/>
      <use x="467.574219" xlink:href="#DejaVuSans-115"/>
     </g>
    </g>
   </g>
  </g>
 </g>
 <defs>
  <clipPath id="pca7fadcff2">
   <rect height="277.2" width="391.56" x="58.44" y="25.44"/>
  </clipPath>
 </defs>
</svg>
