<?xml version="1.0" encoding="utf-8" standalone="no"?>
<!DOCTYPE svg PUBLIC "-//W3C//DTD SVG 1.1//EN"
  "http://www.w3.org/Graphics/SVG/1.1/DTD/svg11.dtd">
<!-- Created with matplotlib (https://matplotlib.org/) -->
<svg height="326.98825pt" version="1.1" viewBox="0 0 773.71375 326.98825" width="773.71375pt" xmlns="http://www.w3.org/2000/svg" xmlns:xlink="http://www.w3.org/1999/xlink">
 <defs>
  <style type="text/css">
*{stroke-linecap:butt;stroke-linejoin:round;}
  </style>
 </defs>
 <g id="figure_1">
  <g id="patch_1">
   <path d="M 0 326.98825 
L 773.71375 326.98825 
L 773.71375 0 
L 0 0 
z
" style="fill:#ffffff;"/>
  </g>
  <g id="axes_1">
   <g id="patch_2">
    <path d="M 54.328125 288.432 
L 411.448125 288.432 
L 411.448125 22.32 
L 54.328125 22.32 
z
" style="fill:#ffffff;"/>
   </g>
   <g id="patch_3">
    <path clip-path="url(#p66ef80cdc4)" d="M 70.560852 288.432 
L 75.776186 288.432 
L 75.776186 287.424286 
L 70.560852 287.424286 
z
" style="fill:#440154;opacity:0.5;"/>
   </g>
   <g id="patch_4">
    <path clip-path="url(#p66ef80cdc4)" d="M 77.08002 288.432 
L 82.295354 288.432 
L 82.295354 288.432 
L 77.08002 288.432 
z
" style="fill:#440154;opacity:0.5;"/>
   </g>
   <g id="patch_5">
    <path clip-path="url(#p66ef80cdc4)" d="M 83.599187 288.432 
L 88.814521 288.432 
L 88.814521 288.180072 
L 83.599187 288.180072 
z
" style="fill:#440154;opacity:0.5;"/>
   </g>
   <g id="patch_6">
    <path clip-path="url(#p66ef80cdc4)" d="M 90.118355 288.432 
L 95.333689 288.432 
L 95.333689 288.180072 
L 90.118355 288.180072 
z
" style="fill:#440154;opacity:0.5;"/>
   </g>
   <g id="patch_7">
    <path clip-path="url(#p66ef80cdc4)" d="M 96.637523 288.432 
L 101.852857 288.432 
L 101.852857 288.432 
L 96.637523 288.432 
z
" style="fill:#440154;opacity:0.5;"/>
   </g>
   <g id="patch_8">
    <path clip-path="url(#p66ef80cdc4)" d="M 103.15669 288.432 
L 108.372024 288.432 
L 108.372024 287.424286 
L 103.15669 287.424286 
z
" style="fill:#440154;opacity:0.5;"/>
   </g>
   <g id="patch_9">
    <path clip-path="url(#p66ef80cdc4)" d="M 109.675858 288.432 
L 114.891192 288.432 
L 114.891192 284.905002 
L 109.675858 284.905002 
z
" style="fill:#440154;opacity:0.5;"/>
   </g>
   <g id="patch_10">
    <path clip-path="url(#p66ef80cdc4)" d="M 116.195025 288.432 
L 121.410359 288.432 
L 121.410359 271.804724 
L 116.195025 271.804724 
z
" style="fill:#440154;opacity:0.5;"/>
   </g>
   <g id="patch_11">
    <path clip-path="url(#p66ef80cdc4)" d="M 122.714193 288.432 
L 127.929527 288.432 
L 127.929527 221.670966 
L 122.714193 221.670966 
z
" style="fill:#440154;opacity:0.5;"/>
   </g>
   <g id="patch_12">
    <path clip-path="url(#p66ef80cdc4)" d="M 129.23336 288.432 
L 134.448695 288.432 
L 134.448695 123.418879 
L 129.23336 123.418879 
z
" style="fill:#440154;opacity:0.5;"/>
   </g>
   <g id="patch_13">
    <path clip-path="url(#p66ef80cdc4)" d="M 135.752528 288.432 
L 140.967862 288.432 
L 140.967862 55.398203 
L 135.752528 55.398203 
z
" style="fill:#440154;opacity:0.5;"/>
   </g>
   <g id="patch_14">
    <path clip-path="url(#p66ef80cdc4)" d="M 142.271696 288.432 
L 147.48703 288.432 
L 147.48703 34.992 
L 142.271696 34.992 
z
" style="fill:#440154;opacity:0.5;"/>
   </g>
   <g id="patch_15">
    <path clip-path="url(#p66ef80cdc4)" d="M 148.790863 288.432 
L 154.006197 288.432 
L 154.006197 87.645042 
L 148.790863 87.645042 
z
" style="fill:#440154;opacity:0.5;"/>
   </g>
   <g id="patch_16">
    <path clip-path="url(#p66ef80cdc4)" d="M 155.310031 288.432 
L 160.525365 288.432 
L 160.525365 123.16695 
L 155.310031 123.16695 
z
" style="fill:#440154;opacity:0.5;"/>
   </g>
   <g id="patch_17">
    <path clip-path="url(#p66ef80cdc4)" d="M 161.829198 288.432 
L 167.044532 288.432 
L 167.044532 160.200429 
L 161.829198 160.200429 
z
" style="fill:#440154;opacity:0.5;"/>
   </g>
   <g id="patch_18">
    <path clip-path="url(#p66ef80cdc4)" d="M 168.348366 288.432 
L 173.5637 288.432 
L 173.5637 184.13363 
L 168.348366 184.13363 
z
" style="fill:#440154;opacity:0.5;"/>
   </g>
   <g id="patch_19">
    <path clip-path="url(#p66ef80cdc4)" d="M 174.867534 288.432 
L 180.082868 288.432 
L 180.082868 216.128541 
L 174.867534 216.128541 
z
" style="fill:#440154;opacity:0.5;"/>
   </g>
   <g id="patch_20">
    <path clip-path="url(#p66ef80cdc4)" d="M 181.386701 288.432 
L 186.602035 288.432 
L 186.602035 226.709535 
L 181.386701 226.709535 
z
" style="fill:#440154;opacity:0.5;"/>
   </g>
   <g id="patch_21">
    <path clip-path="url(#p66ef80cdc4)" d="M 187.905869 288.432 
L 193.121203 288.432 
L 193.121203 240.565598 
L 187.905869 240.565598 
z
" style="fill:#440154;opacity:0.5;"/>
   </g>
   <g id="patch_22">
    <path clip-path="url(#p66ef80cdc4)" d="M 194.425036 288.432 
L 199.64037 288.432 
L 199.64037 250.138879 
L 194.425036 250.138879 
z
" style="fill:#440154;opacity:0.5;"/>
   </g>
   <g id="patch_23">
    <path clip-path="url(#p66ef80cdc4)" d="M 200.944204 288.432 
L 206.159538 288.432 
L 206.159538 254.169734 
L 200.944204 254.169734 
z
" style="fill:#440154;opacity:0.5;"/>
   </g>
   <g id="patch_24">
    <path clip-path="url(#p66ef80cdc4)" d="M 207.463371 288.432 
L 212.678706 288.432 
L 212.678706 265.506513 
L 207.463371 265.506513 
z
" style="fill:#440154;opacity:0.5;"/>
   </g>
   <g id="patch_25">
    <path clip-path="url(#p66ef80cdc4)" d="M 213.982539 288.432 
L 219.197873 288.432 
L 219.197873 268.529654 
L 213.982539 268.529654 
z
" style="fill:#440154;opacity:0.5;"/>
   </g>
   <g id="patch_26">
    <path clip-path="url(#p66ef80cdc4)" d="M 220.501707 288.432 
L 225.717041 288.432 
L 225.717041 269.789296 
L 220.501707 269.789296 
z
" style="fill:#440154;opacity:0.5;"/>
   </g>
   <g id="patch_27">
    <path clip-path="url(#p66ef80cdc4)" d="M 227.020874 288.432 
L 232.236208 288.432 
L 232.236208 278.354863 
L 227.020874 278.354863 
z
" style="fill:#440154;opacity:0.5;"/>
   </g>
   <g id="patch_28">
    <path clip-path="url(#p66ef80cdc4)" d="M 233.540042 288.432 
L 238.755376 288.432 
L 238.755376 274.07208 
L 233.540042 274.07208 
z
" style="fill:#440154;opacity:0.5;"/>
   </g>
   <g id="patch_29">
    <path clip-path="url(#p66ef80cdc4)" d="M 240.059209 288.432 
L 245.274543 288.432 
L 245.274543 274.575936 
L 240.059209 274.575936 
z
" style="fill:#440154;opacity:0.5;"/>
   </g>
   <g id="patch_30">
    <path clip-path="url(#p66ef80cdc4)" d="M 246.578377 288.432 
L 251.793711 288.432 
L 251.793711 276.087507 
L 246.578377 276.087507 
z
" style="fill:#440154;opacity:0.5;"/>
   </g>
   <g id="patch_31">
    <path clip-path="url(#p66ef80cdc4)" d="M 253.097544 288.432 
L 258.312879 288.432 
L 258.312879 275.331722 
L 253.097544 275.331722 
z
" style="fill:#440154;opacity:0.5;"/>
   </g>
   <g id="patch_32">
    <path clip-path="url(#p66ef80cdc4)" d="M 259.616712 288.432 
L 264.832046 288.432 
L 264.832046 279.110648 
L 259.616712 279.110648 
z
" style="fill:#440154;opacity:0.5;"/>
   </g>
   <g id="patch_33">
    <path clip-path="url(#p66ef80cdc4)" d="M 266.13588 288.432 
L 271.351214 288.432 
L 271.351214 281.881861 
L 266.13588 281.881861 
z
" style="fill:#440154;opacity:0.5;"/>
   </g>
   <g id="patch_34">
    <path clip-path="url(#p66ef80cdc4)" d="M 272.655047 288.432 
L 277.870381 288.432 
L 277.870381 281.629932 
L 272.655047 281.629932 
z
" style="fill:#440154;opacity:0.5;"/>
   </g>
   <g id="patch_35">
    <path clip-path="url(#p66ef80cdc4)" d="M 279.174215 288.432 
L 284.389549 288.432 
L 284.389549 282.637646 
L 279.174215 282.637646 
z
" style="fill:#440154;opacity:0.5;"/>
   </g>
   <g id="patch_36">
    <path clip-path="url(#p66ef80cdc4)" d="M 285.693382 288.432 
L 290.908716 288.432 
L 290.908716 283.141503 
L 285.693382 283.141503 
z
" style="fill:#440154;opacity:0.5;"/>
   </g>
   <g id="patch_37">
    <path clip-path="url(#p66ef80cdc4)" d="M 292.21255 288.432 
L 297.427884 288.432 
L 297.427884 283.64536 
L 292.21255 283.64536 
z
" style="fill:#440154;opacity:0.5;"/>
   </g>
   <g id="patch_38">
    <path clip-path="url(#p66ef80cdc4)" d="M 298.731718 288.432 
L 303.947052 288.432 
L 303.947052 283.897288 
L 298.731718 283.897288 
z
" style="fill:#440154;opacity:0.5;"/>
   </g>
   <g id="patch_39">
    <path clip-path="url(#p66ef80cdc4)" d="M 305.250885 288.432 
L 310.466219 288.432 
L 310.466219 283.897288 
L 305.250885 283.897288 
z
" style="fill:#440154;opacity:0.5;"/>
   </g>
   <g id="patch_40">
    <path clip-path="url(#p66ef80cdc4)" d="M 311.770053 288.432 
L 316.985387 288.432 
L 316.985387 285.15693 
L 311.770053 285.15693 
z
" style="fill:#440154;opacity:0.5;"/>
   </g>
   <g id="patch_41">
    <path clip-path="url(#p66ef80cdc4)" d="M 318.28922 288.432 
L 323.504554 288.432 
L 323.504554 286.416573 
L 318.28922 286.416573 
z
" style="fill:#440154;opacity:0.5;"/>
   </g>
   <g id="patch_42">
    <path clip-path="url(#p66ef80cdc4)" d="M 324.808388 288.432 
L 330.023722 288.432 
L 330.023722 285.660787 
L 324.808388 285.660787 
z
" style="fill:#440154;opacity:0.5;"/>
   </g>
   <g id="patch_43">
    <path clip-path="url(#p66ef80cdc4)" d="M 331.327555 288.432 
L 336.54289 288.432 
L 336.54289 285.912716 
L 331.327555 285.912716 
z
" style="fill:#440154;opacity:0.5;"/>
   </g>
   <g id="patch_44">
    <path clip-path="url(#p66ef80cdc4)" d="M 337.846723 288.432 
L 343.062057 288.432 
L 343.062057 286.164644 
L 337.846723 286.164644 
z
" style="fill:#440154;opacity:0.5;"/>
   </g>
   <g id="patch_45">
    <path clip-path="url(#p66ef80cdc4)" d="M 344.365891 288.432 
L 349.581225 288.432 
L 349.581225 285.408859 
L 344.365891 285.408859 
z
" style="fill:#440154;opacity:0.5;"/>
   </g>
   <g id="patch_46">
    <path clip-path="url(#p66ef80cdc4)" d="M 350.885058 288.432 
L 356.100392 288.432 
L 356.100392 285.15693 
L 350.885058 285.15693 
z
" style="fill:#440154;opacity:0.5;"/>
   </g>
   <g id="patch_47">
    <path clip-path="url(#p66ef80cdc4)" d="M 357.404226 288.432 
L 362.61956 288.432 
L 362.61956 286.416573 
L 357.404226 286.416573 
z
" style="fill:#440154;opacity:0.5;"/>
   </g>
   <g id="patch_48">
    <path clip-path="url(#p66ef80cdc4)" d="M 363.923393 288.432 
L 369.138727 288.432 
L 369.138727 287.172358 
L 363.923393 287.172358 
z
" style="fill:#440154;opacity:0.5;"/>
   </g>
   <g id="patch_49">
    <path clip-path="url(#p66ef80cdc4)" d="M 370.442561 288.432 
L 375.657895 288.432 
L 375.657895 286.416573 
L 370.442561 286.416573 
z
" style="fill:#440154;opacity:0.5;"/>
   </g>
   <g id="patch_50">
    <path clip-path="url(#p66ef80cdc4)" d="M 376.961729 288.432 
L 382.177063 288.432 
L 382.177063 286.164644 
L 376.961729 286.164644 
z
" style="fill:#440154;opacity:0.5;"/>
   </g>
   <g id="patch_51">
    <path clip-path="url(#p66ef80cdc4)" d="M 383.480896 288.432 
L 388.69623 288.432 
L 388.69623 286.920429 
L 383.480896 286.920429 
z
" style="fill:#440154;opacity:0.5;"/>
   </g>
   <g id="patch_52">
    <path clip-path="url(#p66ef80cdc4)" d="M 390.000064 288.432 
L 395.215398 288.432 
L 395.215398 287.424286 
L 390.000064 287.424286 
z
" style="fill:#440154;opacity:0.5;"/>
   </g>
   <g id="patch_53">
    <path clip-path="url(#p66ef80cdc4)" d="M 70.560852 288.432 
L 75.776186 288.432 
L 75.776186 287.928143 
L 70.560852 287.928143 
z
" style="fill:#21918c;opacity:0.5;"/>
   </g>
   <g id="patch_54">
    <path clip-path="url(#p66ef80cdc4)" d="M 77.08002 288.432 
L 82.295354 288.432 
L 82.295354 287.928143 
L 77.08002 287.928143 
z
" style="fill:#21918c;opacity:0.5;"/>
   </g>
   <g id="patch_55">
    <path clip-path="url(#p66ef80cdc4)" d="M 83.599187 288.432 
L 88.814521 288.432 
L 88.814521 288.432 
L 83.599187 288.432 
z
" style="fill:#21918c;opacity:0.5;"/>
   </g>
   <g id="patch_56">
    <path clip-path="url(#p66ef80cdc4)" d="M 90.118355 288.432 
L 95.333689 288.432 
L 95.333689 288.180072 
L 90.118355 288.180072 
z
" style="fill:#21918c;opacity:0.5;"/>
   </g>
   <g id="patch_57">
    <path clip-path="url(#p66ef80cdc4)" d="M 96.637523 288.432 
L 101.852857 288.432 
L 101.852857 288.180072 
L 96.637523 288.180072 
z
" style="fill:#21918c;opacity:0.5;"/>
   </g>
   <g id="patch_58">
    <path clip-path="url(#p66ef80cdc4)" d="M 103.15669 288.432 
L 108.372024 288.432 
L 108.372024 287.928143 
L 103.15669 287.928143 
z
" style="fill:#21918c;opacity:0.5;"/>
   </g>
   <g id="patch_59">
    <path clip-path="url(#p66ef80cdc4)" d="M 109.675858 288.432 
L 114.891192 288.432 
L 114.891192 287.928143 
L 109.675858 287.928143 
z
" style="fill:#21918c;opacity:0.5;"/>
   </g>
   <g id="patch_60">
    <path clip-path="url(#p66ef80cdc4)" d="M 116.195025 288.432 
L 121.410359 288.432 
L 121.410359 285.15693 
L 116.195025 285.15693 
z
" style="fill:#21918c;opacity:0.5;"/>
   </g>
   <g id="patch_61">
    <path clip-path="url(#p66ef80cdc4)" d="M 122.714193 288.432 
L 127.929527 288.432 
L 127.929527 273.316294 
L 122.714193 273.316294 
z
" style="fill:#21918c;opacity:0.5;"/>
   </g>
   <g id="patch_62">
    <path clip-path="url(#p66ef80cdc4)" d="M 129.23336 288.432 
L 134.448695 288.432 
L 134.448695 243.336811 
L 129.23336 243.336811 
z
" style="fill:#21918c;opacity:0.5;"/>
   </g>
   <g id="patch_63">
    <path clip-path="url(#p66ef80cdc4)" d="M 135.752528 288.432 
L 140.967862 288.432 
L 140.967862 181.866274 
L 135.752528 181.866274 
z
" style="fill:#21918c;opacity:0.5;"/>
   </g>
   <g id="patch_64">
    <path clip-path="url(#p66ef80cdc4)" d="M 142.271696 288.432 
L 147.48703 288.432 
L 147.48703 114.853312 
L 142.271696 114.853312 
z
" style="fill:#21918c;opacity:0.5;"/>
   </g>
   <g id="patch_65">
    <path clip-path="url(#p66ef80cdc4)" d="M 148.790863 288.432 
L 154.006197 288.432 
L 154.006197 78.071761 
L 148.790863 78.071761 
z
" style="fill:#21918c;opacity:0.5;"/>
   </g>
   <g id="patch_66">
    <path clip-path="url(#p66ef80cdc4)" d="M 155.310031 288.432 
L 160.525365 288.432 
L 160.525365 99.737606 
L 155.310031 99.737606 
z
" style="fill:#21918c;opacity:0.5;"/>
   </g>
   <g id="patch_67">
    <path clip-path="url(#p66ef80cdc4)" d="M 161.829198 288.432 
L 167.044532 288.432 
L 167.044532 109.058958 
L 161.829198 109.058958 
z
" style="fill:#21918c;opacity:0.5;"/>
   </g>
   <g id="patch_68">
    <path clip-path="url(#p66ef80cdc4)" d="M 168.348366 288.432 
L 173.5637 288.432 
L 173.5637 146.092437 
L 168.348366 146.092437 
z
" style="fill:#21918c;opacity:0.5;"/>
   </g>
   <g id="patch_69">
    <path clip-path="url(#p66ef80cdc4)" d="M 174.867534 288.432 
L 180.082868 288.432 
L 180.082868 174.056493 
L 174.867534 174.056493 
z
" style="fill:#21918c;opacity:0.5;"/>
   </g>
   <g id="patch_70">
    <path clip-path="url(#p66ef80cdc4)" d="M 181.386701 288.432 
L 186.602035 288.432 
L 186.602035 190.935698 
L 181.386701 190.935698 
z
" style="fill:#21918c;opacity:0.5;"/>
   </g>
   <g id="patch_71">
    <path clip-path="url(#p66ef80cdc4)" d="M 187.905869 288.432 
L 193.121203 288.432 
L 193.121203 223.434465 
L 187.905869 223.434465 
z
" style="fill:#21918c;opacity:0.5;"/>
   </g>
   <g id="patch_72">
    <path clip-path="url(#p66ef80cdc4)" d="M 194.425036 288.432 
L 199.64037 288.432 
L 199.64037 226.961463 
L 194.425036 226.961463 
z
" style="fill:#21918c;opacity:0.5;"/>
   </g>
   <g id="patch_73">
    <path clip-path="url(#p66ef80cdc4)" d="M 200.944204 288.432 
L 206.159538 288.432 
L 206.159538 239.305956 
L 200.944204 239.305956 
z
" style="fill:#21918c;opacity:0.5;"/>
   </g>
   <g id="patch_74">
    <path clip-path="url(#p66ef80cdc4)" d="M 207.463371 288.432 
L 212.678706 288.432 
L 212.678706 252.910091 
L 207.463371 252.910091 
z
" style="fill:#21918c;opacity:0.5;"/>
   </g>
   <g id="patch_75">
    <path clip-path="url(#p66ef80cdc4)" d="M 213.982539 288.432 
L 219.197873 288.432 
L 219.197873 257.444803 
L 213.982539 257.444803 
z
" style="fill:#21918c;opacity:0.5;"/>
   </g>
   <g id="patch_76">
    <path clip-path="url(#p66ef80cdc4)" d="M 220.501707 288.432 
L 225.717041 288.432 
L 225.717041 262.7353 
L 220.501707 262.7353 
z
" style="fill:#21918c;opacity:0.5;"/>
   </g>
   <g id="patch_77">
    <path clip-path="url(#p66ef80cdc4)" d="M 227.020874 288.432 
L 232.236208 288.432 
L 232.236208 262.987229 
L 227.020874 262.987229 
z
" style="fill:#21918c;opacity:0.5;"/>
   </g>
   <g id="patch_78">
    <path clip-path="url(#p66ef80cdc4)" d="M 233.540042 288.432 
L 238.755376 288.432 
L 238.755376 266.262298 
L 233.540042 266.262298 
z
" style="fill:#21918c;opacity:0.5;"/>
   </g>
   <g id="patch_79">
    <path clip-path="url(#p66ef80cdc4)" d="M 240.059209 288.432 
L 245.274543 288.432 
L 245.274543 271.552795 
L 240.059209 271.552795 
z
" style="fill:#21918c;opacity:0.5;"/>
   </g>
   <g id="patch_80">
    <path clip-path="url(#p66ef80cdc4)" d="M 246.578377 288.432 
L 251.793711 288.432 
L 251.793711 274.07208 
L 246.578377 274.07208 
z
" style="fill:#21918c;opacity:0.5;"/>
   </g>
   <g id="patch_81">
    <path clip-path="url(#p66ef80cdc4)" d="M 253.097544 288.432 
L 258.312879 288.432 
L 258.312879 271.804724 
L 253.097544 271.804724 
z
" style="fill:#21918c;opacity:0.5;"/>
   </g>
   <g id="patch_82">
    <path clip-path="url(#p66ef80cdc4)" d="M 259.616712 288.432 
L 264.832046 288.432 
L 264.832046 276.339435 
L 259.616712 276.339435 
z
" style="fill:#21918c;opacity:0.5;"/>
   </g>
   <g id="patch_83">
    <path clip-path="url(#p66ef80cdc4)" d="M 266.13588 288.432 
L 271.351214 288.432 
L 271.351214 277.851006 
L 266.13588 277.851006 
z
" style="fill:#21918c;opacity:0.5;"/>
   </g>
   <g id="patch_84">
    <path clip-path="url(#p66ef80cdc4)" d="M 272.655047 288.432 
L 277.870381 288.432 
L 277.870381 277.851006 
L 272.655047 277.851006 
z
" style="fill:#21918c;opacity:0.5;"/>
   </g>
   <g id="patch_85">
    <path clip-path="url(#p66ef80cdc4)" d="M 279.174215 288.432 
L 284.389549 288.432 
L 284.389549 281.378004 
L 279.174215 281.378004 
z
" style="fill:#21918c;opacity:0.5;"/>
   </g>
   <g id="patch_86">
    <path clip-path="url(#p66ef80cdc4)" d="M 285.693382 288.432 
L 290.908716 288.432 
L 290.908716 280.622219 
L 285.693382 280.622219 
z
" style="fill:#21918c;opacity:0.5;"/>
   </g>
   <g id="patch_87">
    <path clip-path="url(#p66ef80cdc4)" d="M 292.21255 288.432 
L 297.427884 288.432 
L 297.427884 280.874147 
L 292.21255 280.874147 
z
" style="fill:#21918c;opacity:0.5;"/>
   </g>
   <g id="patch_88">
    <path clip-path="url(#p66ef80cdc4)" d="M 298.731718 288.432 
L 303.947052 288.432 
L 303.947052 282.889575 
L 298.731718 282.889575 
z
" style="fill:#21918c;opacity:0.5;"/>
   </g>
   <g id="patch_89">
    <path clip-path="url(#p66ef80cdc4)" d="M 305.250885 288.432 
L 310.466219 288.432 
L 310.466219 280.622219 
L 305.250885 280.622219 
z
" style="fill:#21918c;opacity:0.5;"/>
   </g>
   <g id="patch_90">
    <path clip-path="url(#p66ef80cdc4)" d="M 311.770053 288.432 
L 316.985387 288.432 
L 316.985387 282.637646 
L 311.770053 282.637646 
z
" style="fill:#21918c;opacity:0.5;"/>
   </g>
   <g id="patch_91">
    <path clip-path="url(#p66ef80cdc4)" d="M 318.28922 288.432 
L 323.504554 288.432 
L 323.504554 284.401145 
L 318.28922 284.401145 
z
" style="fill:#21918c;opacity:0.5;"/>
   </g>
   <g id="patch_92">
    <path clip-path="url(#p66ef80cdc4)" d="M 324.808388 288.432 
L 330.023722 288.432 
L 330.023722 283.393431 
L 324.808388 283.393431 
z
" style="fill:#21918c;opacity:0.5;"/>
   </g>
   <g id="patch_93">
    <path clip-path="url(#p66ef80cdc4)" d="M 331.327555 288.432 
L 336.54289 288.432 
L 336.54289 282.889575 
L 331.327555 282.889575 
z
" style="fill:#21918c;opacity:0.5;"/>
   </g>
   <g id="patch_94">
    <path clip-path="url(#p66ef80cdc4)" d="M 337.846723 288.432 
L 343.062057 288.432 
L 343.062057 284.653074 
L 337.846723 284.653074 
z
" style="fill:#21918c;opacity:0.5;"/>
   </g>
   <g id="patch_95">
    <path clip-path="url(#p66ef80cdc4)" d="M 344.365891 288.432 
L 349.581225 288.432 
L 349.581225 284.653074 
L 344.365891 284.653074 
z
" style="fill:#21918c;opacity:0.5;"/>
   </g>
   <g id="patch_96">
    <path clip-path="url(#p66ef80cdc4)" d="M 350.885058 288.432 
L 356.100392 288.432 
L 356.100392 284.905002 
L 350.885058 284.905002 
z
" style="fill:#21918c;opacity:0.5;"/>
   </g>
   <g id="patch_97">
    <path clip-path="url(#p66ef80cdc4)" d="M 357.404226 288.432 
L 362.61956 288.432 
L 362.61956 284.653074 
L 357.404226 284.653074 
z
" style="fill:#21918c;opacity:0.5;"/>
   </g>
   <g id="patch_98">
    <path clip-path="url(#p66ef80cdc4)" d="M 363.923393 288.432 
L 369.138727 288.432 
L 369.138727 284.905002 
L 363.923393 284.905002 
z
" style="fill:#21918c;opacity:0.5;"/>
   </g>
   <g id="patch_99">
    <path clip-path="url(#p66ef80cdc4)" d="M 370.442561 288.432 
L 375.657895 288.432 
L 375.657895 284.401145 
L 370.442561 284.401145 
z
" style="fill:#21918c;opacity:0.5;"/>
   </g>
   <g id="patch_100">
    <path clip-path="url(#p66ef80cdc4)" d="M 376.961729 288.432 
L 382.177063 288.432 
L 382.177063 286.668501 
L 376.961729 286.668501 
z
" style="fill:#21918c;opacity:0.5;"/>
   </g>
   <g id="patch_101">
    <path clip-path="url(#p66ef80cdc4)" d="M 383.480896 288.432 
L 388.69623 288.432 
L 388.69623 285.408859 
L 383.480896 285.408859 
z
" style="fill:#21918c;opacity:0.5;"/>
   </g>
   <g id="patch_102">
    <path clip-path="url(#p66ef80cdc4)" d="M 390.000064 288.432 
L 395.215398 288.432 
L 395.215398 285.912716 
L 390.000064 285.912716 
z
" style="fill:#21918c;opacity:0.5;"/>
   </g>
   <g id="patch_103">
    <path clip-path="url(#p66ef80cdc4)" d="M 70.560852 288.432 
L 75.776186 288.432 
L 75.776186 288.432 
L 70.560852 288.432 
z
" style="fill:#fde725;opacity:0.5;"/>
   </g>
   <g id="patch_104">
    <path clip-path="url(#p66ef80cdc4)" d="M 77.08002 288.432 
L 82.295354 288.432 
L 82.295354 287.928143 
L 77.08002 287.928143 
z
" style="fill:#fde725;opacity:0.5;"/>
   </g>
   <g id="patch_105">
    <path clip-path="url(#p66ef80cdc4)" d="M 83.599187 288.432 
L 88.814521 288.432 
L 88.814521 288.180072 
L 83.599187 288.180072 
z
" style="fill:#fde725;opacity:0.5;"/>
   </g>
   <g id="patch_106">
    <path clip-path="url(#p66ef80cdc4)" d="M 90.118355 288.432 
L 95.333689 288.432 
L 95.333689 288.180072 
L 90.118355 288.180072 
z
" style="fill:#fde725;opacity:0.5;"/>
   </g>
   <g id="patch_107">
    <path clip-path="url(#p66ef80cdc4)" d="M 96.637523 288.432 
L 101.852857 288.432 
L 101.852857 288.432 
L 96.637523 288.432 
z
" style="fill:#fde725;opacity:0.5;"/>
   </g>
   <g id="patch_108">
    <path clip-path="url(#p66ef80cdc4)" d="M 103.15669 288.432 
L 108.372024 288.432 
L 108.372024 288.432 
L 103.15669 288.432 
z
" style="fill:#fde725;opacity:0.5;"/>
   </g>
   <g id="patch_109">
    <path clip-path="url(#p66ef80cdc4)" d="M 109.675858 288.432 
L 114.891192 288.432 
L 114.891192 288.432 
L 109.675858 288.432 
z
" style="fill:#fde725;opacity:0.5;"/>
   </g>
   <g id="patch_110">
    <path clip-path="url(#p66ef80cdc4)" d="M 116.195025 288.432 
L 121.410359 288.432 
L 121.410359 288.180072 
L 116.195025 288.180072 
z
" style="fill:#fde725;opacity:0.5;"/>
   </g>
   <g id="patch_111">
    <path clip-path="url(#p66ef80cdc4)" d="M 122.714193 288.432 
L 127.929527 288.432 
L 127.929527 288.432 
L 122.714193 288.432 
z
" style="fill:#fde725;opacity:0.5;"/>
   </g>
   <g id="patch_112">
    <path clip-path="url(#p66ef80cdc4)" d="M 129.23336 288.432 
L 134.448695 288.432 
L 134.448695 286.416573 
L 129.23336 286.416573 
z
" style="fill:#fde725;opacity:0.5;"/>
   </g>
   <g id="patch_113">
    <path clip-path="url(#p66ef80cdc4)" d="M 135.752528 288.432 
L 140.967862 288.432 
L 140.967862 281.126076 
L 135.752528 281.126076 
z
" style="fill:#fde725;opacity:0.5;"/>
   </g>
   <g id="patch_114">
    <path clip-path="url(#p66ef80cdc4)" d="M 142.271696 288.432 
L 147.48703 288.432 
L 147.48703 273.064366 
L 142.271696 273.064366 
z
" style="fill:#fde725;opacity:0.5;"/>
   </g>
   <g id="patch_115">
    <path clip-path="url(#p66ef80cdc4)" d="M 148.790863 288.432 
L 154.006197 288.432 
L 154.006197 259.460231 
L 148.790863 259.460231 
z
" style="fill:#fde725;opacity:0.5;"/>
   </g>
   <g id="patch_116">
    <path clip-path="url(#p66ef80cdc4)" d="M 155.310031 288.432 
L 160.525365 288.432 
L 160.525365 235.023173 
L 155.310031 235.023173 
z
" style="fill:#fde725;opacity:0.5;"/>
   </g>
   <g id="patch_117">
    <path clip-path="url(#p66ef80cdc4)" d="M 161.829198 288.432 
L 167.044532 288.432 
L 167.044532 214.365042 
L 161.829198 214.365042 
z
" style="fill:#fde725;opacity:0.5;"/>
   </g>
   <g id="patch_118">
    <path clip-path="url(#p66ef80cdc4)" d="M 168.348366 288.432 
L 173.5637 288.432 
L 173.5637 192.447268 
L 168.348366 192.447268 
z
" style="fill:#fde725;opacity:0.5;"/>
   </g>
   <g id="patch_119">
    <path clip-path="url(#p66ef80cdc4)" d="M 174.867534 288.432 
L 180.082868 288.432 
L 180.082868 187.912557 
L 174.867534 187.912557 
z
" style="fill:#fde725;opacity:0.5;"/>
   </g>
   <g id="patch_120">
    <path clip-path="url(#p66ef80cdc4)" d="M 181.386701 288.432 
L 186.602035 288.432 
L 186.602035 177.583491 
L 181.386701 177.583491 
z
" style="fill:#fde725;opacity:0.5;"/>
   </g>
   <g id="patch_121">
    <path clip-path="url(#p66ef80cdc4)" d="M 187.905869 288.432 
L 193.121203 288.432 
L 193.121203 195.722338 
L 187.905869 195.722338 
z
" style="fill:#fde725;opacity:0.5;"/>
   </g>
   <g id="patch_122">
    <path clip-path="url(#p66ef80cdc4)" d="M 194.425036 288.432 
L 199.64037 288.432 
L 199.64037 190.179913 
L 194.425036 190.179913 
z
" style="fill:#fde725;opacity:0.5;"/>
   </g>
   <g id="patch_123">
    <path clip-path="url(#p66ef80cdc4)" d="M 200.944204 288.432 
L 206.159538 288.432 
L 206.159538 218.395897 
L 200.944204 218.395897 
z
" style="fill:#fde725;opacity:0.5;"/>
   </g>
   <g id="patch_124">
    <path clip-path="url(#p66ef80cdc4)" d="M 207.463371 288.432 
L 212.678706 288.432 
L 212.678706 220.663252 
L 207.463371 220.663252 
z
" style="fill:#fde725;opacity:0.5;"/>
   </g>
   <g id="patch_125">
    <path clip-path="url(#p66ef80cdc4)" d="M 213.982539 288.432 
L 219.197873 288.432 
L 219.197873 224.694107 
L 213.982539 224.694107 
z
" style="fill:#fde725;opacity:0.5;"/>
   </g>
   <g id="patch_126">
    <path clip-path="url(#p66ef80cdc4)" d="M 220.501707 288.432 
L 225.717041 288.432 
L 225.717041 231.748103 
L 220.501707 231.748103 
z
" style="fill:#fde725;opacity:0.5;"/>
   </g>
   <g id="patch_127">
    <path clip-path="url(#p66ef80cdc4)" d="M 227.020874 288.432 
L 232.236208 288.432 
L 232.236208 238.046314 
L 227.020874 238.046314 
z
" style="fill:#fde725;opacity:0.5;"/>
   </g>
   <g id="patch_128">
    <path clip-path="url(#p66ef80cdc4)" d="M 233.540042 288.432 
L 238.755376 288.432 
L 238.755376 250.138879 
L 233.540042 250.138879 
z
" style="fill:#fde725;opacity:0.5;"/>
   </g>
   <g id="patch_129">
    <path clip-path="url(#p66ef80cdc4)" d="M 240.059209 288.432 
L 245.274543 288.432 
L 245.274543 249.635022 
L 240.059209 249.635022 
z
" style="fill:#fde725;opacity:0.5;"/>
   </g>
   <g id="patch_130">
    <path clip-path="url(#p66ef80cdc4)" d="M 246.578377 288.432 
L 251.793711 288.432 
L 251.793711 258.704445 
L 246.578377 258.704445 
z
" style="fill:#fde725;opacity:0.5;"/>
   </g>
   <g id="patch_131">
    <path clip-path="url(#p66ef80cdc4)" d="M 253.097544 288.432 
L 258.312879 288.432 
L 258.312879 255.429376 
L 253.097544 255.429376 
z
" style="fill:#fde725;opacity:0.5;"/>
   </g>
   <g id="patch_132">
    <path clip-path="url(#p66ef80cdc4)" d="M 259.616712 288.432 
L 264.832046 288.432 
L 264.832046 261.979515 
L 259.616712 261.979515 
z
" style="fill:#fde725;opacity:0.5;"/>
   </g>
   <g id="patch_133">
    <path clip-path="url(#p66ef80cdc4)" d="M 266.13588 288.432 
L 271.351214 288.432 
L 271.351214 261.979515 
L 266.13588 261.979515 
z
" style="fill:#fde725;opacity:0.5;"/>
   </g>
   <g id="patch_134">
    <path clip-path="url(#p66ef80cdc4)" d="M 272.655047 288.432 
L 277.870381 288.432 
L 277.870381 267.773869 
L 272.655047 267.773869 
z
" style="fill:#fde725;opacity:0.5;"/>
   </g>
   <g id="patch_135">
    <path clip-path="url(#p66ef80cdc4)" d="M 279.174215 288.432 
L 284.389549 288.432 
L 284.389549 268.277726 
L 279.174215 268.277726 
z
" style="fill:#fde725;opacity:0.5;"/>
   </g>
   <g id="patch_136">
    <path clip-path="url(#p66ef80cdc4)" d="M 285.693382 288.432 
L 290.908716 288.432 
L 290.908716 270.293153 
L 285.693382 270.293153 
z
" style="fill:#fde725;opacity:0.5;"/>
   </g>
   <g id="patch_137">
    <path clip-path="url(#p66ef80cdc4)" d="M 292.21255 288.432 
L 297.427884 288.432 
L 297.427884 270.545082 
L 292.21255 270.545082 
z
" style="fill:#fde725;opacity:0.5;"/>
   </g>
   <g id="patch_138">
    <path clip-path="url(#p66ef80cdc4)" d="M 298.731718 288.432 
L 303.947052 288.432 
L 303.947052 270.545082 
L 298.731718 270.545082 
z
" style="fill:#fde725;opacity:0.5;"/>
   </g>
   <g id="patch_139">
    <path clip-path="url(#p66ef80cdc4)" d="M 305.250885 288.432 
L 310.466219 288.432 
L 310.466219 270.041225 
L 305.250885 270.041225 
z
" style="fill:#fde725;opacity:0.5;"/>
   </g>
   <g id="patch_140">
    <path clip-path="url(#p66ef80cdc4)" d="M 311.770053 288.432 
L 316.985387 288.432 
L 316.985387 274.827865 
L 311.770053 274.827865 
z
" style="fill:#fde725;opacity:0.5;"/>
   </g>
   <g id="patch_141">
    <path clip-path="url(#p66ef80cdc4)" d="M 318.28922 288.432 
L 323.504554 288.432 
L 323.504554 273.568223 
L 318.28922 273.568223 
z
" style="fill:#fde725;opacity:0.5;"/>
   </g>
   <g id="patch_142">
    <path clip-path="url(#p66ef80cdc4)" d="M 324.808388 288.432 
L 330.023722 288.432 
L 330.023722 271.048938 
L 324.808388 271.048938 
z
" style="fill:#fde725;opacity:0.5;"/>
   </g>
   <g id="patch_143">
    <path clip-path="url(#p66ef80cdc4)" d="M 331.327555 288.432 
L 336.54289 288.432 
L 336.54289 279.362577 
L 331.327555 279.362577 
z
" style="fill:#fde725;opacity:0.5;"/>
   </g>
   <g id="patch_144">
    <path clip-path="url(#p66ef80cdc4)" d="M 337.846723 288.432 
L 343.062057 288.432 
L 343.062057 279.110648 
L 337.846723 279.110648 
z
" style="fill:#fde725;opacity:0.5;"/>
   </g>
   <g id="patch_145">
    <path clip-path="url(#p66ef80cdc4)" d="M 344.365891 288.432 
L 349.581225 288.432 
L 349.581225 277.347149 
L 344.365891 277.347149 
z
" style="fill:#fde725;opacity:0.5;"/>
   </g>
   <g id="patch_146">
    <path clip-path="url(#p66ef80cdc4)" d="M 350.885058 288.432 
L 356.100392 288.432 
L 356.100392 279.362577 
L 350.885058 279.362577 
z
" style="fill:#fde725;opacity:0.5;"/>
   </g>
   <g id="patch_147">
    <path clip-path="url(#p66ef80cdc4)" d="M 357.404226 288.432 
L 362.61956 288.432 
L 362.61956 281.378004 
L 357.404226 281.378004 
z
" style="fill:#fde725;opacity:0.5;"/>
   </g>
   <g id="patch_148">
    <path clip-path="url(#p66ef80cdc4)" d="M 363.923393 288.432 
L 369.138727 288.432 
L 369.138727 276.339435 
L 363.923393 276.339435 
z
" style="fill:#fde725;opacity:0.5;"/>
   </g>
   <g id="patch_149">
    <path clip-path="url(#p66ef80cdc4)" d="M 370.442561 288.432 
L 375.657895 288.432 
L 375.657895 280.37029 
L 370.442561 280.37029 
z
" style="fill:#fde725;opacity:0.5;"/>
   </g>
   <g id="patch_150">
    <path clip-path="url(#p66ef80cdc4)" d="M 376.961729 288.432 
L 382.177063 288.432 
L 382.177063 277.095221 
L 376.961729 277.095221 
z
" style="fill:#fde725;opacity:0.5;"/>
   </g>
   <g id="patch_151">
    <path clip-path="url(#p66ef80cdc4)" d="M 383.480896 288.432 
L 388.69623 288.432 
L 388.69623 280.118362 
L 383.480896 280.118362 
z
" style="fill:#fde725;opacity:0.5;"/>
   </g>
   <g id="patch_152">
    <path clip-path="url(#p66ef80cdc4)" d="M 390.000064 288.432 
L 395.215398 288.432 
L 395.215398 279.614505 
L 390.000064 279.614505 
z
" style="fill:#fde725;opacity:0.5;"/>
   </g>
   <g id="matplotlib.axis_1">
    <g id="xtick_1">
     <g id="line2d_1">
      <defs>
       <path d="M 0 0 
L 0 3.5 
" id="m5906cc5b4a" style="stroke:#000000;stroke-width:0.8;"/>
      </defs>
      <g>
       <use style="stroke:#000000;stroke-width:0.8;" x="69.908936" xlink:href="#m5906cc5b4a" y="289.432"/>
      </g>
     </g>
     <g id="text_1">
      <!-- 0 -->
      <defs>
       <path d="M 31.78125 66.40625 
Q 24.171875 66.40625 20.328125 58.90625 
Q 16.5 51.421875 16.5 36.375 
Q 16.5 21.390625 20.328125 13.890625 
Q 24.171875 6.390625 31.78125 6.390625 
Q 39.453125 6.390625 43.28125 13.890625 
Q 47.125 21.390625 47.125 36.375 
Q 47.125 51.421875 43.28125 58.90625 
Q 39.453125 66.40625 31.78125 66.40625 
z
M 31.78125 74.21875 
Q 44.046875 74.21875 50.515625 64.515625 
Q 56.984375 54.828125 56.984375 36.375 
Q 56.984375 17.96875 50.515625 8.265625 
Q 44.046875 -1.421875 31.78125 -1.421875 
Q 19.53125 -1.421875 13.0625 8.265625 
Q 6.59375 17.96875 6.59375 36.375 
Q 6.59375 54.828125 13.0625 64.515625 
Q 19.53125 74.21875 31.78125 74.21875 
z
" id="DejaVuSans-48"/>
      </defs>
      <g transform="translate(66.727686 304.030437)scale(0.1 -0.1)">
       <use xlink:href="#DejaVuSans-48"/>
      </g>
     </g>
    </g>
    <g id="xtick_2">
     <g id="line2d_2">
      <g>
       <use style="stroke:#000000;stroke-width:0.8;" x="135.100611" xlink:href="#m5906cc5b4a" y="289.432"/>
      </g>
     </g>
     <g id="text_2">
      <!-- 1 -->
      <defs>
       <path d="M 12.40625 8.296875 
L 28.515625 8.296875 
L 28.515625 63.921875 
L 10.984375 60.40625 
L 10.984375 69.390625 
L 28.421875 72.90625 
L 38.28125 72.90625 
L 38.28125 8.296875 
L 54.390625 8.296875 
L 54.390625 0 
L 12.40625 0 
z
" id="DejaVuSans-49"/>
      </defs>
      <g transform="translate(131.919361 304.030437)scale(0.1 -0.1)">
       <use xlink:href="#DejaVuSans-49"/>
      </g>
     </g>
    </g>
    <g id="xtick_3">
     <g id="line2d_3">
      <g>
       <use style="stroke:#000000;stroke-width:0.8;" x="200.292287" xlink:href="#m5906cc5b4a" y="289.432"/>
      </g>
     </g>
     <g id="text_3">
      <!-- 2 -->
      <defs>
       <path d="M 19.1875 8.296875 
L 53.609375 8.296875 
L 53.609375 0 
L 7.328125 0 
L 7.328125 8.296875 
Q 12.9375 14.109375 22.625 23.890625 
Q 32.328125 33.6875 34.8125 36.53125 
Q 39.546875 41.84375 41.421875 45.53125 
Q 43.3125 49.21875 43.3125 52.78125 
Q 43.3125 58.59375 39.234375 62.25 
Q 35.15625 65.921875 28.609375 65.921875 
Q 23.96875 65.921875 18.8125 64.3125 
Q 13.671875 62.703125 7.8125 59.421875 
L 7.8125 69.390625 
Q 13.765625 71.78125 18.9375 73 
Q 24.125 74.21875 28.421875 74.21875 
Q 39.75 74.21875 46.484375 68.546875 
Q 53.21875 62.890625 53.21875 53.421875 
Q 53.21875 48.921875 51.53125 44.890625 
Q 49.859375 40.875 45.40625 35.40625 
Q 44.1875 33.984375 37.640625 27.21875 
Q 31.109375 20.453125 19.1875 8.296875 
z
" id="DejaVuSans-50"/>
      </defs>
      <g transform="translate(197.111037 304.030437)scale(0.1 -0.1)">
       <use xlink:href="#DejaVuSans-50"/>
      </g>
     </g>
    </g>
    <g id="xtick_4">
     <g id="line2d_4">
      <g>
       <use style="stroke:#000000;stroke-width:0.8;" x="265.483963" xlink:href="#m5906cc5b4a" y="289.432"/>
      </g>
     </g>
     <g id="text_4">
      <!-- 3 -->
      <defs>
       <path d="M 40.578125 39.3125 
Q 47.65625 37.796875 51.625 33 
Q 55.609375 28.21875 55.609375 21.1875 
Q 55.609375 10.40625 48.1875 4.484375 
Q 40.765625 -1.421875 27.09375 -1.421875 
Q 22.515625 -1.421875 17.65625 -0.515625 
Q 12.796875 0.390625 7.625 2.203125 
L 7.625 11.71875 
Q 11.71875 9.328125 16.59375 8.109375 
Q 21.484375 6.890625 26.8125 6.890625 
Q 36.078125 6.890625 40.9375 10.546875 
Q 45.796875 14.203125 45.796875 21.1875 
Q 45.796875 27.640625 41.28125 31.265625 
Q 36.765625 34.90625 28.71875 34.90625 
L 20.21875 34.90625 
L 20.21875 43.015625 
L 29.109375 43.015625 
Q 36.375 43.015625 40.234375 45.921875 
Q 44.09375 48.828125 44.09375 54.296875 
Q 44.09375 59.90625 40.109375 62.90625 
Q 36.140625 65.921875 28.71875 65.921875 
Q 24.65625 65.921875 20.015625 65.03125 
Q 15.375 64.15625 9.8125 62.3125 
L 9.8125 71.09375 
Q 15.4375 72.65625 20.34375 73.4375 
Q 25.25 74.21875 29.59375 74.21875 
Q 40.828125 74.21875 47.359375 69.109375 
Q 53.90625 64.015625 53.90625 55.328125 
Q 53.90625 49.265625 50.4375 45.09375 
Q 46.96875 40.921875 40.578125 39.3125 
z
" id="DejaVuSans-51"/>
      </defs>
      <g transform="translate(262.302713 304.030437)scale(0.1 -0.1)">
       <use xlink:href="#DejaVuSans-51"/>
      </g>
     </g>
    </g>
    <g id="xtick_5">
     <g id="line2d_5">
      <g>
       <use style="stroke:#000000;stroke-width:0.8;" x="330.675639" xlink:href="#m5906cc5b4a" y="289.432"/>
      </g>
     </g>
     <g id="text_5">
      <!-- 4 -->
      <defs>
       <path d="M 37.796875 64.3125 
L 12.890625 25.390625 
L 37.796875 25.390625 
z
M 35.203125 72.90625 
L 47.609375 72.90625 
L 47.609375 25.390625 
L 58.015625 25.390625 
L 58.015625 17.1875 
L 47.609375 17.1875 
L 47.609375 0 
L 37.796875 0 
L 37.796875 17.1875 
L 4.890625 17.1875 
L 4.890625 26.703125 
z
" id="DejaVuSans-52"/>
      </defs>
      <g transform="translate(327.494389 304.030437)scale(0.1 -0.1)">
       <use xlink:href="#DejaVuSans-52"/>
      </g>
     </g>
    </g>
    <g id="xtick_6">
     <g id="line2d_6">
      <g>
       <use style="stroke:#000000;stroke-width:0.8;" x="395.867314" xlink:href="#m5906cc5b4a" y="289.432"/>
      </g>
     </g>
     <g id="text_6">
      <!-- 5 -->
      <defs>
       <path d="M 10.796875 72.90625 
L 49.515625 72.90625 
L 49.515625 64.59375 
L 19.828125 64.59375 
L 19.828125 46.734375 
Q 21.96875 47.46875 24.109375 47.828125 
Q 26.265625 48.1875 28.421875 48.1875 
Q 40.625 48.1875 47.75 41.5 
Q 54.890625 34.8125 54.890625 23.390625 
Q 54.890625 11.625 47.5625 5.09375 
Q 40.234375 -1.421875 26.90625 -1.421875 
Q 22.3125 -1.421875 17.546875 -0.640625 
Q 12.796875 0.140625 7.71875 1.703125 
L 7.71875 11.625 
Q 12.109375 9.234375 16.796875 8.0625 
Q 21.484375 6.890625 26.703125 6.890625 
Q 35.15625 6.890625 40.078125 11.328125 
Q 45.015625 15.765625 45.015625 23.390625 
Q 45.015625 31 40.078125 35.4375 
Q 35.15625 39.890625 26.703125 39.890625 
Q 22.75 39.890625 18.8125 39.015625 
Q 14.890625 38.140625 10.796875 36.28125 
z
" id="DejaVuSans-53"/>
      </defs>
      <g transform="translate(392.686064 304.030437)scale(0.1 -0.1)">
       <use xlink:href="#DejaVuSans-53"/>
      </g>
     </g>
    </g>
    <g id="text_7">
     <!-- $K_\mathrm{S}$ -->
     <defs>
      <path d="M 16.890625 72.90625 
L 26.8125 72.90625 
L 20.796875 42.1875 
L 59.078125 72.90625 
L 72.21875 72.90625 
L 28.90625 38.09375 
L 60.59375 0 
L 48.578125 0 
L 19.484375 35.5 
L 12.59375 0 
L 2.6875 0 
z
" id="DejaVuSans-Oblique-75"/>
      <path d="M 53.515625 70.515625 
L 53.515625 60.890625 
Q 47.90625 63.578125 42.921875 64.890625 
Q 37.9375 66.21875 33.296875 66.21875 
Q 25.25 66.21875 20.875 63.09375 
Q 16.5 59.96875 16.5 54.203125 
Q 16.5 49.359375 19.40625 46.890625 
Q 22.3125 44.4375 30.421875 42.921875 
L 36.375 41.703125 
Q 47.40625 39.59375 52.65625 34.296875 
Q 57.90625 29 57.90625 20.125 
Q 57.90625 9.515625 50.796875 4.046875 
Q 43.703125 -1.421875 29.984375 -1.421875 
Q 24.8125 -1.421875 18.96875 -0.25 
Q 13.140625 0.921875 6.890625 3.21875 
L 6.890625 13.375 
Q 12.890625 10.015625 18.65625 8.296875 
Q 24.421875 6.59375 29.984375 6.59375 
Q 38.421875 6.59375 43.015625 9.90625 
Q 47.609375 13.234375 47.609375 19.390625 
Q 47.609375 24.75 44.3125 27.78125 
Q 41.015625 30.8125 33.5 32.328125 
L 27.484375 33.5 
Q 16.453125 35.6875 11.515625 40.375 
Q 6.59375 45.0625 6.59375 53.421875 
Q 6.59375 63.09375 13.40625 68.65625 
Q 20.21875 74.21875 32.171875 74.21875 
Q 37.3125 74.21875 42.625 73.28125 
Q 47.953125 72.359375 53.515625 70.515625 
z
" id="DejaVuSans-83"/>
     </defs>
     <g transform="translate(227.238125 317.708562)scale(0.1 -0.1)">
      <use transform="translate(0 0.09375)" xlink:href="#DejaVuSans-Oblique-75"/>
      <use transform="translate(65.576172 -16.3125)scale(0.7)" xlink:href="#DejaVuSans-83"/>
     </g>
    </g>
   </g>
   <g id="matplotlib.axis_2">
    <g id="ytick_1">
     <g id="line2d_7">
      <defs>
       <path d="M 0 0 
L -3.5 0 
" id="mfc9e8e4c57" style="stroke:#000000;stroke-width:0.8;"/>
      </defs>
      <g>
       <use style="stroke:#000000;stroke-width:0.8;" x="53.328125" xlink:href="#mfc9e8e4c57" y="288.432"/>
      </g>
     </g>
     <g id="text_8">
      <!-- 0 -->
      <g transform="translate(39.965625 292.231219)scale(0.1 -0.1)">
       <use xlink:href="#DejaVuSans-48"/>
      </g>
     </g>
    </g>
    <g id="ytick_2">
     <g id="line2d_8">
      <g>
       <use style="stroke:#000000;stroke-width:0.8;" x="53.328125" xlink:href="#mfc9e8e4c57" y="238.046314"/>
      </g>
     </g>
     <g id="text_9">
      <!-- 200 -->
      <g transform="translate(27.240625 241.845533)scale(0.1 -0.1)">
       <use xlink:href="#DejaVuSans-50"/>
       <use x="63.623047" xlink:href="#DejaVuSans-48"/>
       <use x="127.246094" xlink:href="#DejaVuSans-48"/>
      </g>
     </g>
    </g>
    <g id="ytick_3">
     <g id="line2d_9">
      <g>
       <use style="stroke:#000000;stroke-width:0.8;" x="53.328125" xlink:href="#mfc9e8e4c57" y="187.660628"/>
      </g>
     </g>
     <g id="text_10">
      <!-- 400 -->
      <g transform="translate(27.240625 191.459847)scale(0.1 -0.1)">
       <use xlink:href="#DejaVuSans-52"/>
       <use x="63.623047" xlink:href="#DejaVuSans-48"/>
       <use x="127.246094" xlink:href="#DejaVuSans-48"/>
      </g>
     </g>
    </g>
    <g id="ytick_4">
     <g id="line2d_10">
      <g>
       <use style="stroke:#000000;stroke-width:0.8;" x="53.328125" xlink:href="#mfc9e8e4c57" y="137.274942"/>
      </g>
     </g>
     <g id="text_11">
      <!-- 600 -->
      <defs>
       <path d="M 33.015625 40.375 
Q 26.375 40.375 22.484375 35.828125 
Q 18.609375 31.296875 18.609375 23.390625 
Q 18.609375 15.53125 22.484375 10.953125 
Q 26.375 6.390625 33.015625 6.390625 
Q 39.65625 6.390625 43.53125 10.953125 
Q 47.40625 15.53125 47.40625 23.390625 
Q 47.40625 31.296875 43.53125 35.828125 
Q 39.65625 40.375 33.015625 40.375 
z
M 52.59375 71.296875 
L 52.59375 62.3125 
Q 48.875 64.0625 45.09375 64.984375 
Q 41.3125 65.921875 37.59375 65.921875 
Q 27.828125 65.921875 22.671875 59.328125 
Q 17.53125 52.734375 16.796875 39.40625 
Q 19.671875 43.65625 24.015625 45.921875 
Q 28.375 48.1875 33.59375 48.1875 
Q 44.578125 48.1875 50.953125 41.515625 
Q 57.328125 34.859375 57.328125 23.390625 
Q 57.328125 12.15625 50.6875 5.359375 
Q 44.046875 -1.421875 33.015625 -1.421875 
Q 20.359375 -1.421875 13.671875 8.265625 
Q 6.984375 17.96875 6.984375 36.375 
Q 6.984375 53.65625 15.1875 63.9375 
Q 23.390625 74.21875 37.203125 74.21875 
Q 40.921875 74.21875 44.703125 73.484375 
Q 48.484375 72.75 52.59375 71.296875 
z
" id="DejaVuSans-54"/>
      </defs>
      <g transform="translate(27.240625 141.074161)scale(0.1 -0.1)">
       <use xlink:href="#DejaVuSans-54"/>
       <use x="63.623047" xlink:href="#DejaVuSans-48"/>
       <use x="127.246094" xlink:href="#DejaVuSans-48"/>
      </g>
     </g>
    </g>
    <g id="ytick_5">
     <g id="line2d_11">
      <g>
       <use style="stroke:#000000;stroke-width:0.8;" x="53.328125" xlink:href="#mfc9e8e4c57" y="86.889256"/>
      </g>
     </g>
     <g id="text_12">
      <!-- 800 -->
      <defs>
       <path d="M 31.78125 34.625 
Q 24.75 34.625 20.71875 30.859375 
Q 16.703125 27.09375 16.703125 20.515625 
Q 16.703125 13.921875 20.71875 10.15625 
Q 24.75 6.390625 31.78125 6.390625 
Q 38.8125 6.390625 42.859375 10.171875 
Q 46.921875 13.96875 46.921875 20.515625 
Q 46.921875 27.09375 42.890625 30.859375 
Q 38.875 34.625 31.78125 34.625 
z
M 21.921875 38.8125 
Q 15.578125 40.375 12.03125 44.71875 
Q 8.5 49.078125 8.5 55.328125 
Q 8.5 64.0625 14.71875 69.140625 
Q 20.953125 74.21875 31.78125 74.21875 
Q 42.671875 74.21875 48.875 69.140625 
Q 55.078125 64.0625 55.078125 55.328125 
Q 55.078125 49.078125 51.53125 44.71875 
Q 48 40.375 41.703125 38.8125 
Q 48.828125 37.15625 52.796875 32.3125 
Q 56.78125 27.484375 56.78125 20.515625 
Q 56.78125 9.90625 50.3125 4.234375 
Q 43.84375 -1.421875 31.78125 -1.421875 
Q 19.734375 -1.421875 13.25 4.234375 
Q 6.78125 9.90625 6.78125 20.515625 
Q 6.78125 27.484375 10.78125 32.3125 
Q 14.796875 37.15625 21.921875 38.8125 
z
M 18.3125 54.390625 
Q 18.3125 48.734375 21.84375 45.5625 
Q 25.390625 42.390625 31.78125 42.390625 
Q 38.140625 42.390625 41.71875 45.5625 
Q 45.3125 48.734375 45.3125 54.390625 
Q 45.3125 60.0625 41.71875 63.234375 
Q 38.140625 66.40625 31.78125 66.40625 
Q 25.390625 66.40625 21.84375 63.234375 
Q 18.3125 60.0625 18.3125 54.390625 
z
" id="DejaVuSans-56"/>
      </defs>
      <g transform="translate(27.240625 90.688475)scale(0.1 -0.1)">
       <use xlink:href="#DejaVuSans-56"/>
       <use x="63.623047" xlink:href="#DejaVuSans-48"/>
       <use x="127.246094" xlink:href="#DejaVuSans-48"/>
      </g>
     </g>
    </g>
    <g id="ytick_6">
     <g id="line2d_12">
      <g>
       <use style="stroke:#000000;stroke-width:0.8;" x="53.328125" xlink:href="#mfc9e8e4c57" y="36.503571"/>
      </g>
     </g>
     <g id="text_13">
      <!-- 1000 -->
      <g transform="translate(20.878125 40.302789)scale(0.1 -0.1)">
       <use xlink:href="#DejaVuSans-49"/>
       <use x="63.623047" xlink:href="#DejaVuSans-48"/>
       <use x="127.246094" xlink:href="#DejaVuSans-48"/>
       <use x="190.869141" xlink:href="#DejaVuSans-48"/>
      </g>
     </g>
    </g>
    <g id="text_14">
     <!-- Homologous pairs -->
     <defs>
      <path d="M 9.8125 72.90625 
L 19.671875 72.90625 
L 19.671875 43.015625 
L 55.515625 43.015625 
L 55.515625 72.90625 
L 65.375 72.90625 
L 65.375 0 
L 55.515625 0 
L 55.515625 34.71875 
L 19.671875 34.71875 
L 19.671875 0 
L 9.8125 0 
z
" id="DejaVuSans-72"/>
      <path d="M 30.609375 48.390625 
Q 23.390625 48.390625 19.1875 42.75 
Q 14.984375 37.109375 14.984375 27.296875 
Q 14.984375 17.484375 19.15625 11.84375 
Q 23.34375 6.203125 30.609375 6.203125 
Q 37.796875 6.203125 41.984375 11.859375 
Q 46.1875 17.53125 46.1875 27.296875 
Q 46.1875 37.015625 41.984375 42.703125 
Q 37.796875 48.390625 30.609375 48.390625 
z
M 30.609375 56 
Q 42.328125 56 49.015625 48.375 
Q 55.71875 40.765625 55.71875 27.296875 
Q 55.71875 13.875 49.015625 6.21875 
Q 42.328125 -1.421875 30.609375 -1.421875 
Q 18.84375 -1.421875 12.171875 6.21875 
Q 5.515625 13.875 5.515625 27.296875 
Q 5.515625 40.765625 12.171875 48.375 
Q 18.84375 56 30.609375 56 
z
" id="DejaVuSans-111"/>
      <path d="M 52 44.1875 
Q 55.375 50.25 60.0625 53.125 
Q 64.75 56 71.09375 56 
Q 79.640625 56 84.28125 50.015625 
Q 88.921875 44.046875 88.921875 33.015625 
L 88.921875 0 
L 79.890625 0 
L 79.890625 32.71875 
Q 79.890625 40.578125 77.09375 44.375 
Q 74.3125 48.1875 68.609375 48.1875 
Q 61.625 48.1875 57.5625 43.546875 
Q 53.515625 38.921875 53.515625 30.90625 
L 53.515625 0 
L 44.484375 0 
L 44.484375 32.71875 
Q 44.484375 40.625 41.703125 44.40625 
Q 38.921875 48.1875 33.109375 48.1875 
Q 26.21875 48.1875 22.15625 43.53125 
Q 18.109375 38.875 18.109375 30.90625 
L 18.109375 0 
L 9.078125 0 
L 9.078125 54.6875 
L 18.109375 54.6875 
L 18.109375 46.1875 
Q 21.1875 51.21875 25.484375 53.609375 
Q 29.78125 56 35.6875 56 
Q 41.65625 56 45.828125 52.96875 
Q 50 49.953125 52 44.1875 
z
" id="DejaVuSans-109"/>
      <path d="M 9.421875 75.984375 
L 18.40625 75.984375 
L 18.40625 0 
L 9.421875 0 
z
" id="DejaVuSans-108"/>
      <path d="M 45.40625 27.984375 
Q 45.40625 37.75 41.375 43.109375 
Q 37.359375 48.484375 30.078125 48.484375 
Q 22.859375 48.484375 18.828125 43.109375 
Q 14.796875 37.75 14.796875 27.984375 
Q 14.796875 18.265625 18.828125 12.890625 
Q 22.859375 7.515625 30.078125 7.515625 
Q 37.359375 7.515625 41.375 12.890625 
Q 45.40625 18.265625 45.40625 27.984375 
z
M 54.390625 6.78125 
Q 54.390625 -7.171875 48.1875 -13.984375 
Q 42 -20.796875 29.203125 -20.796875 
Q 24.46875 -20.796875 20.265625 -20.09375 
Q 16.0625 -19.390625 12.109375 -17.921875 
L 12.109375 -9.1875 
Q 16.0625 -11.328125 19.921875 -12.34375 
Q 23.78125 -13.375 27.78125 -13.375 
Q 36.625 -13.375 41.015625 -8.765625 
Q 45.40625 -4.15625 45.40625 5.171875 
L 45.40625 9.625 
Q 42.625 4.78125 38.28125 2.390625 
Q 33.9375 0 27.875 0 
Q 17.828125 0 11.671875 7.65625 
Q 5.515625 15.328125 5.515625 27.984375 
Q 5.515625 40.671875 11.671875 48.328125 
Q 17.828125 56 27.875 56 
Q 33.9375 56 38.28125 53.609375 
Q 42.625 51.21875 45.40625 46.390625 
L 45.40625 54.6875 
L 54.390625 54.6875 
z
" id="DejaVuSans-103"/>
      <path d="M 8.5 21.578125 
L 8.5 54.6875 
L 17.484375 54.6875 
L 17.484375 21.921875 
Q 17.484375 14.15625 20.5 10.265625 
Q 23.53125 6.390625 29.59375 6.390625 
Q 36.859375 6.390625 41.078125 11.03125 
Q 45.3125 15.671875 45.3125 23.6875 
L 45.3125 54.6875 
L 54.296875 54.6875 
L 54.296875 0 
L 45.3125 0 
L 45.3125 8.40625 
Q 42.046875 3.421875 37.71875 1 
Q 33.40625 -1.421875 27.6875 -1.421875 
Q 18.265625 -1.421875 13.375 4.4375 
Q 8.5 10.296875 8.5 21.578125 
z
M 31.109375 56 
z
" id="DejaVuSans-117"/>
      <path d="M 44.28125 53.078125 
L 44.28125 44.578125 
Q 40.484375 46.53125 36.375 47.5 
Q 32.28125 48.484375 27.875 48.484375 
Q 21.1875 48.484375 17.84375 46.4375 
Q 14.5 44.390625 14.5 40.28125 
Q 14.5 37.15625 16.890625 35.375 
Q 19.28125 33.59375 26.515625 31.984375 
L 29.59375 31.296875 
Q 39.15625 29.25 43.1875 25.515625 
Q 47.21875 21.78125 47.21875 15.09375 
Q 47.21875 7.46875 41.1875 3.015625 
Q 35.15625 -1.421875 24.609375 -1.421875 
Q 20.21875 -1.421875 15.453125 -0.5625 
Q 10.6875 0.296875 5.421875 2 
L 5.421875 11.28125 
Q 10.40625 8.6875 15.234375 7.390625 
Q 20.0625 6.109375 24.8125 6.109375 
Q 31.15625 6.109375 34.5625 8.28125 
Q 37.984375 10.453125 37.984375 14.40625 
Q 37.984375 18.0625 35.515625 20.015625 
Q 33.0625 21.96875 24.703125 23.78125 
L 21.578125 24.515625 
Q 13.234375 26.265625 9.515625 29.90625 
Q 5.8125 33.546875 5.8125 39.890625 
Q 5.8125 47.609375 11.28125 51.796875 
Q 16.75 56 26.8125 56 
Q 31.78125 56 36.171875 55.265625 
Q 40.578125 54.546875 44.28125 53.078125 
z
" id="DejaVuSans-115"/>
      <path id="DejaVuSans-32"/>
      <path d="M 18.109375 8.203125 
L 18.109375 -20.796875 
L 9.078125 -20.796875 
L 9.078125 54.6875 
L 18.109375 54.6875 
L 18.109375 46.390625 
Q 20.953125 51.265625 25.265625 53.625 
Q 29.59375 56 35.59375 56 
Q 45.5625 56 51.78125 48.09375 
Q 58.015625 40.1875 58.015625 27.296875 
Q 58.015625 14.40625 51.78125 6.484375 
Q 45.5625 -1.421875 35.59375 -1.421875 
Q 29.59375 -1.421875 25.265625 0.953125 
Q 20.953125 3.328125 18.109375 8.203125 
z
M 48.6875 27.296875 
Q 48.6875 37.203125 44.609375 42.84375 
Q 40.53125 48.484375 33.40625 48.484375 
Q 26.265625 48.484375 22.1875 42.84375 
Q 18.109375 37.203125 18.109375 27.296875 
Q 18.109375 17.390625 22.1875 11.75 
Q 26.265625 6.109375 33.40625 6.109375 
Q 40.53125 6.109375 44.609375 11.75 
Q 48.6875 17.390625 48.6875 27.296875 
z
" id="DejaVuSans-112"/>
      <path d="M 34.28125 27.484375 
Q 23.390625 27.484375 19.1875 25 
Q 14.984375 22.515625 14.984375 16.5 
Q 14.984375 11.71875 18.140625 8.90625 
Q 21.296875 6.109375 26.703125 6.109375 
Q 34.1875 6.109375 38.703125 11.40625 
Q 43.21875 16.703125 43.21875 25.484375 
L 43.21875 27.484375 
z
M 52.203125 31.203125 
L 52.203125 0 
L 43.21875 0 
L 43.21875 8.296875 
Q 40.140625 3.328125 35.546875 0.953125 
Q 30.953125 -1.421875 24.3125 -1.421875 
Q 15.921875 -1.421875 10.953125 3.296875 
Q 6 8.015625 6 15.921875 
Q 6 25.140625 12.171875 29.828125 
Q 18.359375 34.515625 30.609375 34.515625 
L 43.21875 34.515625 
L 43.21875 35.40625 
Q 43.21875 41.609375 39.140625 45 
Q 35.0625 48.390625 27.6875 48.390625 
Q 23 48.390625 18.546875 47.265625 
Q 14.109375 46.140625 10.015625 43.890625 
L 10.015625 52.203125 
Q 14.9375 54.109375 19.578125 55.046875 
Q 24.21875 56 28.609375 56 
Q 40.484375 56 46.34375 49.84375 
Q 52.203125 43.703125 52.203125 31.203125 
z
" id="DejaVuSans-97"/>
      <path d="M 9.421875 54.6875 
L 18.40625 54.6875 
L 18.40625 0 
L 9.421875 0 
z
M 9.421875 75.984375 
L 18.40625 75.984375 
L 18.40625 64.59375 
L 9.421875 64.59375 
z
" id="DejaVuSans-105"/>
      <path d="M 41.109375 46.296875 
Q 39.59375 47.171875 37.8125 47.578125 
Q 36.03125 48 33.890625 48 
Q 26.265625 48 22.1875 43.046875 
Q 18.109375 38.09375 18.109375 28.8125 
L 18.109375 0 
L 9.078125 0 
L 9.078125 54.6875 
L 18.109375 54.6875 
L 18.109375 46.1875 
Q 20.953125 51.171875 25.484375 53.578125 
Q 30.03125 56 36.53125 56 
Q 37.453125 56 38.578125 55.875 
Q 39.703125 55.765625 41.0625 55.515625 
z
" id="DejaVuSans-114"/>
     </defs>
     <g transform="translate(14.798438 200.45725)rotate(-90)scale(0.1 -0.1)">
      <use xlink:href="#DejaVuSans-72"/>
      <use x="75.195312" xlink:href="#DejaVuSans-111"/>
      <use x="136.376953" xlink:href="#DejaVuSans-109"/>
      <use x="233.789062" xlink:href="#DejaVuSans-111"/>
      <use x="294.970703" xlink:href="#DejaVuSans-108"/>
      <use x="322.753906" xlink:href="#DejaVuSans-111"/>
      <use x="383.935547" xlink:href="#DejaVuSans-103"/>
      <use x="447.412109" xlink:href="#DejaVuSans-111"/>
      <use x="508.59375" xlink:href="#DejaVuSans-117"/>
      <use x="571.972656" xlink:href="#DejaVuSans-115"/>
      <use x="624.072266" xlink:href="#DejaVuSans-32"/>
      <use x="655.859375" xlink:href="#DejaVuSans-112"/>
      <use x="719.335938" xlink:href="#DejaVuSans-97"/>
      <use x="780.615234" xlink:href="#DejaVuSans-105"/>
      <use x="808.398438" xlink:href="#DejaVuSans-114"/>
      <use x="849.511719" xlink:href="#DejaVuSans-115"/>
     </g>
    </g>
   </g>
   <g id="line2d_13">
    <path clip-path="url(#p66ef80cdc4)" d="M 143.264242 288.432 
L 143.264242 22.32 
" style="fill:none;stroke:#440154;stroke-dasharray:1,1.65;stroke-dashoffset:0;stroke-opacity:0.8;"/>
   </g>
   <g id="line2d_14">
    <path clip-path="url(#p66ef80cdc4)" d="M 153.175359 288.432 
L 153.175359 22.32 
" style="fill:none;stroke:#21918c;stroke-dasharray:1,1.65;stroke-dashoffset:0;stroke-opacity:0.8;"/>
   </g>
   <g id="line2d_15">
    <path clip-path="url(#p66ef80cdc4)" d="M 182.321867 288.432 
L 182.321867 22.32 
" style="fill:none;stroke:#fde725;stroke-dasharray:1,1.65;stroke-dashoffset:0;stroke-opacity:0.8;"/>
   </g>
   <g id="patch_153">
    <path d="M 53.328125 288.432 
L 53.328125 22.32 
" style="fill:none;stroke:#000000;stroke-linecap:square;stroke-linejoin:miter;stroke-width:0.8;"/>
   </g>
   <g id="patch_154">
    <path d="M 54.328125 289.432 
L 411.448125 289.432 
" style="fill:none;stroke:#000000;stroke-linecap:square;stroke-linejoin:miter;stroke-width:0.8;"/>
   </g>
   <g id="text_15">
    <!-- Orthologous $K_\mathrm{S}$ distribution -->
    <defs>
     <path d="M 39.40625 66.21875 
Q 28.65625 66.21875 22.328125 58.203125 
Q 16.015625 50.203125 16.015625 36.375 
Q 16.015625 22.609375 22.328125 14.59375 
Q 28.65625 6.59375 39.40625 6.59375 
Q 50.140625 6.59375 56.421875 14.59375 
Q 62.703125 22.609375 62.703125 36.375 
Q 62.703125 50.203125 56.421875 58.203125 
Q 50.140625 66.21875 39.40625 66.21875 
z
M 39.40625 74.21875 
Q 54.734375 74.21875 63.90625 63.9375 
Q 73.09375 53.65625 73.09375 36.375 
Q 73.09375 19.140625 63.90625 8.859375 
Q 54.734375 -1.421875 39.40625 -1.421875 
Q 24.03125 -1.421875 14.8125 8.828125 
Q 5.609375 19.09375 5.609375 36.375 
Q 5.609375 53.65625 14.8125 63.9375 
Q 24.03125 74.21875 39.40625 74.21875 
z
" id="DejaVuSans-79"/>
     <path d="M 18.3125 70.21875 
L 18.3125 54.6875 
L 36.8125 54.6875 
L 36.8125 47.703125 
L 18.3125 47.703125 
L 18.3125 18.015625 
Q 18.3125 11.328125 20.140625 9.421875 
Q 21.96875 7.515625 27.59375 7.515625 
L 36.8125 7.515625 
L 36.8125 0 
L 27.59375 0 
Q 17.1875 0 13.234375 3.875 
Q 9.28125 7.765625 9.28125 18.015625 
L 9.28125 47.703125 
L 2.6875 47.703125 
L 2.6875 54.6875 
L 9.28125 54.6875 
L 9.28125 70.21875 
z
" id="DejaVuSans-116"/>
     <path d="M 54.890625 33.015625 
L 54.890625 0 
L 45.90625 0 
L 45.90625 32.71875 
Q 45.90625 40.484375 42.875 44.328125 
Q 39.84375 48.1875 33.796875 48.1875 
Q 26.515625 48.1875 22.3125 43.546875 
Q 18.109375 38.921875 18.109375 30.90625 
L 18.109375 0 
L 9.078125 0 
L 9.078125 75.984375 
L 18.109375 75.984375 
L 18.109375 46.1875 
Q 21.34375 51.125 25.703125 53.5625 
Q 30.078125 56 35.796875 56 
Q 45.21875 56 50.046875 50.171875 
Q 54.890625 44.34375 54.890625 33.015625 
z
" id="DejaVuSans-104"/>
     <path d="M 45.40625 46.390625 
L 45.40625 75.984375 
L 54.390625 75.984375 
L 54.390625 0 
L 45.40625 0 
L 45.40625 8.203125 
Q 42.578125 3.328125 38.25 0.953125 
Q 33.9375 -1.421875 27.875 -1.421875 
Q 17.96875 -1.421875 11.734375 6.484375 
Q 5.515625 14.40625 5.515625 27.296875 
Q 5.515625 40.1875 11.734375 48.09375 
Q 17.96875 56 27.875 56 
Q 33.9375 56 38.25 53.625 
Q 42.578125 51.265625 45.40625 46.390625 
z
M 14.796875 27.296875 
Q 14.796875 17.390625 18.875 11.75 
Q 22.953125 6.109375 30.078125 6.109375 
Q 37.203125 6.109375 41.296875 11.75 
Q 45.40625 17.390625 45.40625 27.296875 
Q 45.40625 37.203125 41.296875 42.84375 
Q 37.203125 48.484375 30.078125 48.484375 
Q 22.953125 48.484375 18.875 42.84375 
Q 14.796875 37.203125 14.796875 27.296875 
z
" id="DejaVuSans-100"/>
     <path d="M 48.6875 27.296875 
Q 48.6875 37.203125 44.609375 42.84375 
Q 40.53125 48.484375 33.40625 48.484375 
Q 26.265625 48.484375 22.1875 42.84375 
Q 18.109375 37.203125 18.109375 27.296875 
Q 18.109375 17.390625 22.1875 11.75 
Q 26.265625 6.109375 33.40625 6.109375 
Q 40.53125 6.109375 44.609375 11.75 
Q 48.6875 17.390625 48.6875 27.296875 
z
M 18.109375 46.390625 
Q 20.953125 51.265625 25.265625 53.625 
Q 29.59375 56 35.59375 56 
Q 45.5625 56 51.78125 48.09375 
Q 58.015625 40.1875 58.015625 27.296875 
Q 58.015625 14.40625 51.78125 6.484375 
Q 45.5625 -1.421875 35.59375 -1.421875 
Q 29.59375 -1.421875 25.265625 0.953125 
Q 20.953125 3.328125 18.109375 8.203125 
L 18.109375 0 
L 9.078125 0 
L 9.078125 75.984375 
L 18.109375 75.984375 
z
" id="DejaVuSans-98"/>
     <path d="M 54.890625 33.015625 
L 54.890625 0 
L 45.90625 0 
L 45.90625 32.71875 
Q 45.90625 40.484375 42.875 44.328125 
Q 39.84375 48.1875 33.796875 48.1875 
Q 26.515625 48.1875 22.3125 43.546875 
Q 18.109375 38.921875 18.109375 30.90625 
L 18.109375 0 
L 9.078125 0 
L 9.078125 54.6875 
L 18.109375 54.6875 
L 18.109375 46.1875 
Q 21.34375 51.125 25.703125 53.5625 
Q 30.078125 56 35.796875 56 
Q 45.21875 56 50.046875 50.171875 
Q 54.890625 44.34375 54.890625 33.015625 
z
" id="DejaVuSans-110"/>
    </defs>
    <g transform="translate(151.348125 16.32)scale(0.12 -0.12)">
     <use transform="translate(0 0.015625)" xlink:href="#DejaVuSans-79"/>
     <use transform="translate(78.710938 0.015625)" xlink:href="#DejaVuSans-114"/>
     <use transform="translate(119.824219 0.015625)" xlink:href="#DejaVuSans-116"/>
     <use transform="translate(159.033203 0.015625)" xlink:href="#DejaVuSans-104"/>
     <use transform="translate(222.412109 0.015625)" xlink:href="#DejaVuSans-111"/>
     <use transform="translate(283.59375 0.015625)" xlink:href="#DejaVuSans-108"/>
     <use transform="translate(311.376953 0.015625)" xlink:href="#DejaVuSans-111"/>
     <use transform="translate(372.558594 0.015625)" xlink:href="#DejaVuSans-103"/>
     <use transform="translate(436.035156 0.015625)" xlink:href="#DejaVuSans-111"/>
     <use transform="translate(497.216797 0.015625)" xlink:href="#DejaVuSans-117"/>
     <use transform="translate(560.595703 0.015625)" xlink:href="#DejaVuSans-115"/>
     <use transform="translate(612.695312 0.015625)" xlink:href="#DejaVuSans-32"/>
     <use transform="translate(644.482422 0.015625)" xlink:href="#DejaVuSans-Oblique-75"/>
     <use transform="translate(710.058594 -16.390625)scale(0.7)" xlink:href="#DejaVuSans-83"/>
     <use transform="translate(757.226562 0.015625)" xlink:href="#DejaVuSans-32"/>
     <use transform="translate(789.013672 0.015625)" xlink:href="#DejaVuSans-100"/>
     <use transform="translate(852.490234 0.015625)" xlink:href="#DejaVuSans-105"/>
     <use transform="translate(880.273438 0.015625)" xlink:href="#DejaVuSans-115"/>
     <use transform="translate(932.373047 0.015625)" xlink:href="#DejaVuSans-116"/>
     <use transform="translate(971.582031 0.015625)" xlink:href="#DejaVuSans-114"/>
     <use transform="translate(1012.695312 0.015625)" xlink:href="#DejaVuSans-105"/>
     <use transform="translate(1040.478516 0.015625)" xlink:href="#DejaVuSans-98"/>
     <use transform="translate(1103.955078 0.015625)" xlink:href="#DejaVuSans-117"/>
     <use transform="translate(1167.333984 0.015625)" xlink:href="#DejaVuSans-116"/>
     <use transform="translate(1206.542969 0.015625)" xlink:href="#DejaVuSans-105"/>
     <use transform="translate(1234.326172 0.015625)" xlink:href="#DejaVuSans-111"/>
     <use transform="translate(1295.507812 0.015625)" xlink:href="#DejaVuSans-110"/>
    </g>
   </g>
   <g id="legend_1">
    <g id="line2d_16">
     <path d="M 420.448125 117.105687 
L 440.448125 117.105687 
" style="fill:none;stroke:#440154;stroke-dasharray:1,1.65;stroke-dashoffset:0;stroke-opacity:0.8;"/>
    </g>
    <g id="line2d_17"/>
    <g id="text_16">
     <!-- Original mode 1.13 of Aquilegia_coerulea__Protea_cynaroides -->
     <defs>
      <path d="M 56.203125 29.59375 
L 56.203125 25.203125 
L 14.890625 25.203125 
Q 15.484375 15.921875 20.484375 11.0625 
Q 25.484375 6.203125 34.421875 6.203125 
Q 39.59375 6.203125 44.453125 7.46875 
Q 49.3125 8.734375 54.109375 11.28125 
L 54.109375 2.78125 
Q 49.265625 0.734375 44.1875 -0.34375 
Q 39.109375 -1.421875 33.890625 -1.421875 
Q 20.796875 -1.421875 13.15625 6.1875 
Q 5.515625 13.8125 5.515625 26.8125 
Q 5.515625 40.234375 12.765625 48.109375 
Q 20.015625 56 32.328125 56 
Q 43.359375 56 49.78125 48.890625 
Q 56.203125 41.796875 56.203125 29.59375 
z
M 47.21875 32.234375 
Q 47.125 39.59375 43.09375 43.984375 
Q 39.0625 48.390625 32.421875 48.390625 
Q 24.90625 48.390625 20.390625 44.140625 
Q 15.875 39.890625 15.1875 32.171875 
z
" id="DejaVuSans-101"/>
      <path d="M 10.6875 12.40625 
L 21 12.40625 
L 21 0 
L 10.6875 0 
z
" id="DejaVuSans-46"/>
      <path d="M 37.109375 75.984375 
L 37.109375 68.5 
L 28.515625 68.5 
Q 23.6875 68.5 21.796875 66.546875 
Q 19.921875 64.59375 19.921875 59.515625 
L 19.921875 54.6875 
L 34.71875 54.6875 
L 34.71875 47.703125 
L 19.921875 47.703125 
L 19.921875 0 
L 10.890625 0 
L 10.890625 47.703125 
L 2.296875 47.703125 
L 2.296875 54.6875 
L 10.890625 54.6875 
L 10.890625 58.5 
Q 10.890625 67.625 15.140625 71.796875 
Q 19.390625 75.984375 28.609375 75.984375 
z
" id="DejaVuSans-102"/>
      <path d="M 34.1875 63.1875 
L 20.796875 26.90625 
L 47.609375 26.90625 
z
M 28.609375 72.90625 
L 39.796875 72.90625 
L 67.578125 0 
L 57.328125 0 
L 50.6875 18.703125 
L 17.828125 18.703125 
L 11.1875 0 
L 0.78125 0 
z
" id="DejaVuSans-65"/>
      <path d="M 14.796875 27.296875 
Q 14.796875 17.390625 18.875 11.75 
Q 22.953125 6.109375 30.078125 6.109375 
Q 37.203125 6.109375 41.296875 11.75 
Q 45.40625 17.390625 45.40625 27.296875 
Q 45.40625 37.203125 41.296875 42.84375 
Q 37.203125 48.484375 30.078125 48.484375 
Q 22.953125 48.484375 18.875 42.84375 
Q 14.796875 37.203125 14.796875 27.296875 
z
M 45.40625 8.203125 
Q 42.578125 3.328125 38.25 0.953125 
Q 33.9375 -1.421875 27.875 -1.421875 
Q 17.96875 -1.421875 11.734375 6.484375 
Q 5.515625 14.40625 5.515625 27.296875 
Q 5.515625 40.1875 11.734375 48.09375 
Q 17.96875 56 27.875 56 
Q 33.9375 56 38.25 53.625 
Q 42.578125 51.265625 45.40625 46.390625 
L 45.40625 54.6875 
L 54.390625 54.6875 
L 54.390625 -20.796875 
L 45.40625 -20.796875 
z
" id="DejaVuSans-113"/>
      <path d="M 50.984375 -16.609375 
L 50.984375 -23.578125 
L -0.984375 -23.578125 
L -0.984375 -16.609375 
z
" id="DejaVuSans-95"/>
      <path d="M 48.78125 52.59375 
L 48.78125 44.1875 
Q 44.96875 46.296875 41.140625 47.34375 
Q 37.3125 48.390625 33.40625 48.390625 
Q 24.65625 48.390625 19.8125 42.84375 
Q 14.984375 37.3125 14.984375 27.296875 
Q 14.984375 17.28125 19.8125 11.734375 
Q 24.65625 6.203125 33.40625 6.203125 
Q 37.3125 6.203125 41.140625 7.25 
Q 44.96875 8.296875 48.78125 10.40625 
L 48.78125 2.09375 
Q 45.015625 0.34375 40.984375 -0.53125 
Q 36.96875 -1.421875 32.421875 -1.421875 
Q 20.0625 -1.421875 12.78125 6.34375 
Q 5.515625 14.109375 5.515625 27.296875 
Q 5.515625 40.671875 12.859375 48.328125 
Q 20.21875 56 33.015625 56 
Q 37.15625 56 41.109375 55.140625 
Q 45.0625 54.296875 48.78125 52.59375 
z
" id="DejaVuSans-99"/>
      <path d="M 19.671875 64.796875 
L 19.671875 37.40625 
L 32.078125 37.40625 
Q 38.96875 37.40625 42.71875 40.96875 
Q 46.484375 44.53125 46.484375 51.125 
Q 46.484375 57.671875 42.71875 61.234375 
Q 38.96875 64.796875 32.078125 64.796875 
z
M 9.8125 72.90625 
L 32.078125 72.90625 
Q 44.34375 72.90625 50.609375 67.359375 
Q 56.890625 61.8125 56.890625 51.125 
Q 56.890625 40.328125 50.609375 34.8125 
Q 44.34375 29.296875 32.078125 29.296875 
L 19.671875 29.296875 
L 19.671875 0 
L 9.8125 0 
z
" id="DejaVuSans-80"/>
      <path d="M 32.171875 -5.078125 
Q 28.375 -14.84375 24.75 -17.8125 
Q 21.140625 -20.796875 15.09375 -20.796875 
L 7.90625 -20.796875 
L 7.90625 -13.28125 
L 13.1875 -13.28125 
Q 16.890625 -13.28125 18.9375 -11.515625 
Q 21 -9.765625 23.484375 -3.21875 
L 25.09375 0.875 
L 2.984375 54.6875 
L 12.5 54.6875 
L 29.59375 11.921875 
L 46.6875 54.6875 
L 56.203125 54.6875 
z
" id="DejaVuSans-121"/>
     </defs>
     <g transform="translate(448.448125 120.605687)scale(0.1 -0.1)">
      <use xlink:href="#DejaVuSans-79"/>
      <use x="78.710938" xlink:href="#DejaVuSans-114"/>
      <use x="119.824219" xlink:href="#DejaVuSans-105"/>
      <use x="147.607422" xlink:href="#DejaVuSans-103"/>
      <use x="211.083984" xlink:href="#DejaVuSans-105"/>
      <use x="238.867188" xlink:href="#DejaVuSans-110"/>
      <use x="302.246094" xlink:href="#DejaVuSans-97"/>
      <use x="363.525391" xlink:href="#DejaVuSans-108"/>
      <use x="391.308594" xlink:href="#DejaVuSans-32"/>
      <use x="423.095703" xlink:href="#DejaVuSans-109"/>
      <use x="520.507812" xlink:href="#DejaVuSans-111"/>
      <use x="581.689453" xlink:href="#DejaVuSans-100"/>
      <use x="645.166016" xlink:href="#DejaVuSans-101"/>
      <use x="706.689453" xlink:href="#DejaVuSans-32"/>
      <use x="738.476562" xlink:href="#DejaVuSans-49"/>
      <use x="802.099609" xlink:href="#DejaVuSans-46"/>
      <use x="833.886719" xlink:href="#DejaVuSans-49"/>
      <use x="897.509766" xlink:href="#DejaVuSans-51"/>
      <use x="961.132812" xlink:href="#DejaVuSans-32"/>
      <use x="992.919922" xlink:href="#DejaVuSans-111"/>
      <use x="1054.101562" xlink:href="#DejaVuSans-102"/>
      <use x="1089.306641" xlink:href="#DejaVuSans-32"/>
      <use x="1121.09375" xlink:href="#DejaVuSans-65"/>
      <use x="1187.751953" xlink:href="#DejaVuSans-113"/>
      <use x="1251.228516" xlink:href="#DejaVuSans-117"/>
      <use x="1314.607422" xlink:href="#DejaVuSans-105"/>
      <use x="1342.390625" xlink:href="#DejaVuSans-108"/>
      <use x="1370.173828" xlink:href="#DejaVuSans-101"/>
      <use x="1431.697266" xlink:href="#DejaVuSans-103"/>
      <use x="1495.173828" xlink:href="#DejaVuSans-105"/>
      <use x="1522.957031" xlink:href="#DejaVuSans-97"/>
      <use x="1584.236328" xlink:href="#DejaVuSans-95"/>
      <use x="1634.236328" xlink:href="#DejaVuSans-99"/>
      <use x="1689.216797" xlink:href="#DejaVuSans-111"/>
      <use x="1750.398438" xlink:href="#DejaVuSans-101"/>
      <use x="1811.921875" xlink:href="#DejaVuSans-114"/>
      <use x="1853.035156" xlink:href="#DejaVuSans-117"/>
      <use x="1916.414062" xlink:href="#DejaVuSans-108"/>
      <use x="1944.197266" xlink:href="#DejaVuSans-101"/>
      <use x="2005.720703" xlink:href="#DejaVuSans-97"/>
      <use x="2067" xlink:href="#DejaVuSans-95"/>
      <use x="2117" xlink:href="#DejaVuSans-95"/>
      <use x="2167" xlink:href="#DejaVuSans-80"/>
      <use x="2225.552734" xlink:href="#DejaVuSans-114"/>
      <use x="2264.416016" xlink:href="#DejaVuSans-111"/>
      <use x="2325.597656" xlink:href="#DejaVuSans-116"/>
      <use x="2364.806641" xlink:href="#DejaVuSans-101"/>
      <use x="2426.330078" xlink:href="#DejaVuSans-97"/>
      <use x="2487.609375" xlink:href="#DejaVuSans-95"/>
      <use x="2537.609375" xlink:href="#DejaVuSans-99"/>
      <use x="2592.589844" xlink:href="#DejaVuSans-121"/>
      <use x="2651.769531" xlink:href="#DejaVuSans-110"/>
      <use x="2715.148438" xlink:href="#DejaVuSans-97"/>
      <use x="2776.427734" xlink:href="#DejaVuSans-114"/>
      <use x="2815.291016" xlink:href="#DejaVuSans-111"/>
      <use x="2876.472656" xlink:href="#DejaVuSans-105"/>
      <use x="2904.255859" xlink:href="#DejaVuSans-100"/>
      <use x="2967.732422" xlink:href="#DejaVuSans-101"/>
      <use x="3029.255859" xlink:href="#DejaVuSans-115"/>
     </g>
    </g>
    <g id="line2d_18">
     <path d="M 420.448125 132.061937 
L 440.448125 132.061937 
" style="fill:none;stroke:#21918c;stroke-dasharray:1,1.65;stroke-dashoffset:0;stroke-opacity:0.8;"/>
    </g>
    <g id="line2d_19"/>
    <g id="text_17">
     <!-- Original mode 1.28 of Aquilegia_coerulea__Vitis_vinifera -->
     <defs>
      <path d="M 28.609375 0 
L 0.78125 72.90625 
L 11.078125 72.90625 
L 34.1875 11.53125 
L 57.328125 72.90625 
L 67.578125 72.90625 
L 39.796875 0 
z
" id="DejaVuSans-86"/>
      <path d="M 2.984375 54.6875 
L 12.5 54.6875 
L 29.59375 8.796875 
L 46.6875 54.6875 
L 56.203125 54.6875 
L 35.6875 0 
L 23.484375 0 
z
" id="DejaVuSans-118"/>
     </defs>
     <g transform="translate(448.448125 135.561937)scale(0.1 -0.1)">
      <use xlink:href="#DejaVuSans-79"/>
      <use x="78.710938" xlink:href="#DejaVuSans-114"/>
      <use x="119.824219" xlink:href="#DejaVuSans-105"/>
      <use x="147.607422" xlink:href="#DejaVuSans-103"/>
      <use x="211.083984" xlink:href="#DejaVuSans-105"/>
      <use x="238.867188" xlink:href="#DejaVuSans-110"/>
      <use x="302.246094" xlink:href="#DejaVuSans-97"/>
      <use x="363.525391" xlink:href="#DejaVuSans-108"/>
      <use x="391.308594" xlink:href="#DejaVuSans-32"/>
      <use x="423.095703" xlink:href="#DejaVuSans-109"/>
      <use x="520.507812" xlink:href="#DejaVuSans-111"/>
      <use x="581.689453" xlink:href="#DejaVuSans-100"/>
      <use x="645.166016" xlink:href="#DejaVuSans-101"/>
      <use x="706.689453" xlink:href="#DejaVuSans-32"/>
      <use x="738.476562" xlink:href="#DejaVuSans-49"/>
      <use x="802.099609" xlink:href="#DejaVuSans-46"/>
      <use x="833.886719" xlink:href="#DejaVuSans-50"/>
      <use x="897.509766" xlink:href="#DejaVuSans-56"/>
      <use x="961.132812" xlink:href="#DejaVuSans-32"/>
      <use x="992.919922" xlink:href="#DejaVuSans-111"/>
      <use x="1054.101562" xlink:href="#DejaVuSans-102"/>
      <use x="1089.306641" xlink:href="#DejaVuSans-32"/>
      <use x="1121.09375" xlink:href="#DejaVuSans-65"/>
      <use x="1187.751953" xlink:href="#DejaVuSans-113"/>
      <use x="1251.228516" xlink:href="#DejaVuSans-117"/>
      <use x="1314.607422" xlink:href="#DejaVuSans-105"/>
      <use x="1342.390625" xlink:href="#DejaVuSans-108"/>
      <use x="1370.173828" xlink:href="#DejaVuSans-101"/>
      <use x="1431.697266" xlink:href="#DejaVuSans-103"/>
      <use x="1495.173828" xlink:href="#DejaVuSans-105"/>
      <use x="1522.957031" xlink:href="#DejaVuSans-97"/>
      <use x="1584.236328" xlink:href="#DejaVuSans-95"/>
      <use x="1634.236328" xlink:href="#DejaVuSans-99"/>
      <use x="1689.216797" xlink:href="#DejaVuSans-111"/>
      <use x="1750.398438" xlink:href="#DejaVuSans-101"/>
      <use x="1811.921875" xlink:href="#DejaVuSans-114"/>
      <use x="1853.035156" xlink:href="#DejaVuSans-117"/>
      <use x="1916.414062" xlink:href="#DejaVuSans-108"/>
      <use x="1944.197266" xlink:href="#DejaVuSans-101"/>
      <use x="2005.720703" xlink:href="#DejaVuSans-97"/>
      <use x="2067" xlink:href="#DejaVuSans-95"/>
      <use x="2117" xlink:href="#DejaVuSans-95"/>
      <use x="2167" xlink:href="#DejaVuSans-86"/>
      <use x="2233.158203" xlink:href="#DejaVuSans-105"/>
      <use x="2260.941406" xlink:href="#DejaVuSans-116"/>
      <use x="2300.150391" xlink:href="#DejaVuSans-105"/>
      <use x="2327.933594" xlink:href="#DejaVuSans-115"/>
      <use x="2380.033203" xlink:href="#DejaVuSans-95"/>
      <use x="2430.033203" xlink:href="#DejaVuSans-118"/>
      <use x="2489.212891" xlink:href="#DejaVuSans-105"/>
      <use x="2516.996094" xlink:href="#DejaVuSans-110"/>
      <use x="2580.375" xlink:href="#DejaVuSans-105"/>
      <use x="2608.158203" xlink:href="#DejaVuSans-102"/>
      <use x="2643.363281" xlink:href="#DejaVuSans-101"/>
      <use x="2704.886719" xlink:href="#DejaVuSans-114"/>
      <use x="2746" xlink:href="#DejaVuSans-97"/>
     </g>
    </g>
    <g id="line2d_20">
     <path d="M 420.448125 147.018187 
L 440.448125 147.018187 
" style="fill:none;stroke:#fde725;stroke-dasharray:1,1.65;stroke-dashoffset:0;stroke-opacity:0.8;"/>
    </g>
    <g id="line2d_21"/>
    <g id="text_18">
     <!-- Original mode 1.72 of Acorus_americanus__Aquilegia_coerulea -->
     <defs>
      <path d="M 8.203125 72.90625 
L 55.078125 72.90625 
L 55.078125 68.703125 
L 28.609375 0 
L 18.3125 0 
L 43.21875 64.59375 
L 8.203125 64.59375 
z
" id="DejaVuSans-55"/>
     </defs>
     <g transform="translate(448.448125 150.518187)scale(0.1 -0.1)">
      <use xlink:href="#DejaVuSans-79"/>
      <use x="78.710938" xlink:href="#DejaVuSans-114"/>
      <use x="119.824219" xlink:href="#DejaVuSans-105"/>
      <use x="147.607422" xlink:href="#DejaVuSans-103"/>
      <use x="211.083984" xlink:href="#DejaVuSans-105"/>
      <use x="238.867188" xlink:href="#DejaVuSans-110"/>
      <use x="302.246094" xlink:href="#DejaVuSans-97"/>
      <use x="363.525391" xlink:href="#DejaVuSans-108"/>
      <use x="391.308594" xlink:href="#DejaVuSans-32"/>
      <use x="423.095703" xlink:href="#DejaVuSans-109"/>
      <use x="520.507812" xlink:href="#DejaVuSans-111"/>
      <use x="581.689453" xlink:href="#DejaVuSans-100"/>
      <use x="645.166016" xlink:href="#DejaVuSans-101"/>
      <use x="706.689453" xlink:href="#DejaVuSans-32"/>
      <use x="738.476562" xlink:href="#DejaVuSans-49"/>
      <use x="802.099609" xlink:href="#DejaVuSans-46"/>
      <use x="833.886719" xlink:href="#DejaVuSans-55"/>
      <use x="897.509766" xlink:href="#DejaVuSans-50"/>
      <use x="961.132812" xlink:href="#DejaVuSans-32"/>
      <use x="992.919922" xlink:href="#DejaVuSans-111"/>
      <use x="1054.101562" xlink:href="#DejaVuSans-102"/>
      <use x="1089.306641" xlink:href="#DejaVuSans-32"/>
      <use x="1121.09375" xlink:href="#DejaVuSans-65"/>
      <use x="1187.751953" xlink:href="#DejaVuSans-99"/>
      <use x="1242.732422" xlink:href="#DejaVuSans-111"/>
      <use x="1303.914062" xlink:href="#DejaVuSans-114"/>
      <use x="1345.027344" xlink:href="#DejaVuSans-117"/>
      <use x="1408.40625" xlink:href="#DejaVuSans-115"/>
      <use x="1460.505859" xlink:href="#DejaVuSans-95"/>
      <use x="1510.505859" xlink:href="#DejaVuSans-97"/>
      <use x="1571.785156" xlink:href="#DejaVuSans-109"/>
      <use x="1669.197266" xlink:href="#DejaVuSans-101"/>
      <use x="1730.720703" xlink:href="#DejaVuSans-114"/>
      <use x="1771.833984" xlink:href="#DejaVuSans-105"/>
      <use x="1799.617188" xlink:href="#DejaVuSans-99"/>
      <use x="1854.597656" xlink:href="#DejaVuSans-97"/>
      <use x="1915.876953" xlink:href="#DejaVuSans-110"/>
      <use x="1979.255859" xlink:href="#DejaVuSans-117"/>
      <use x="2042.634766" xlink:href="#DejaVuSans-115"/>
      <use x="2094.734375" xlink:href="#DejaVuSans-95"/>
      <use x="2144.734375" xlink:href="#DejaVuSans-95"/>
      <use x="2194.734375" xlink:href="#DejaVuSans-65"/>
      <use x="2261.392578" xlink:href="#DejaVuSans-113"/>
      <use x="2324.869141" xlink:href="#DejaVuSans-117"/>
      <use x="2388.248047" xlink:href="#DejaVuSans-105"/>
      <use x="2416.03125" xlink:href="#DejaVuSans-108"/>
      <use x="2443.814453" xlink:href="#DejaVuSans-101"/>
      <use x="2505.337891" xlink:href="#DejaVuSans-103"/>
      <use x="2568.814453" xlink:href="#DejaVuSans-105"/>
      <use x="2596.597656" xlink:href="#DejaVuSans-97"/>
      <use x="2657.876953" xlink:href="#DejaVuSans-95"/>
      <use x="2707.876953" xlink:href="#DejaVuSans-99"/>
      <use x="2762.857422" xlink:href="#DejaVuSans-111"/>
      <use x="2824.039062" xlink:href="#DejaVuSans-101"/>
      <use x="2885.5625" xlink:href="#DejaVuSans-114"/>
      <use x="2926.675781" xlink:href="#DejaVuSans-117"/>
      <use x="2990.054688" xlink:href="#DejaVuSans-108"/>
      <use x="3017.837891" xlink:href="#DejaVuSans-101"/>
      <use x="3079.361328" xlink:href="#DejaVuSans-97"/>
     </g>
    </g>
    <g id="patch_155">
     <path d="M 420.448125 165.474437 
L 440.448125 165.474437 
L 440.448125 158.474437 
L 420.448125 158.474437 
z
" style="fill:#440154;opacity:0.5;"/>
    </g>
    <g id="text_19">
     <!-- Aquilegia_coerulea__Protea_cynaroides -->
     <g transform="translate(448.448125 165.474437)scale(0.1 -0.1)">
      <use xlink:href="#DejaVuSans-65"/>
      <use x="66.658203" xlink:href="#DejaVuSans-113"/>
      <use x="130.134766" xlink:href="#DejaVuSans-117"/>
      <use x="193.513672" xlink:href="#DejaVuSans-105"/>
      <use x="221.296875" xlink:href="#DejaVuSans-108"/>
      <use x="249.080078" xlink:href="#DejaVuSans-101"/>
      <use x="310.603516" xlink:href="#DejaVuSans-103"/>
      <use x="374.080078" xlink:href="#DejaVuSans-105"/>
      <use x="401.863281" xlink:href="#DejaVuSans-97"/>
      <use x="463.142578" xlink:href="#DejaVuSans-95"/>
      <use x="513.142578" xlink:href="#DejaVuSans-99"/>
      <use x="568.123047" xlink:href="#DejaVuSans-111"/>
      <use x="629.304688" xlink:href="#DejaVuSans-101"/>
      <use x="690.828125" xlink:href="#DejaVuSans-114"/>
      <use x="731.941406" xlink:href="#DejaVuSans-117"/>
      <use x="795.320312" xlink:href="#DejaVuSans-108"/>
      <use x="823.103516" xlink:href="#DejaVuSans-101"/>
      <use x="884.626953" xlink:href="#DejaVuSans-97"/>
      <use x="945.90625" xlink:href="#DejaVuSans-95"/>
      <use x="995.90625" xlink:href="#DejaVuSans-95"/>
      <use x="1045.90625" xlink:href="#DejaVuSans-80"/>
      <use x="1104.458984" xlink:href="#DejaVuSans-114"/>
      <use x="1143.322266" xlink:href="#DejaVuSans-111"/>
      <use x="1204.503906" xlink:href="#DejaVuSans-116"/>
      <use x="1243.712891" xlink:href="#DejaVuSans-101"/>
      <use x="1305.236328" xlink:href="#DejaVuSans-97"/>
      <use x="1366.515625" xlink:href="#DejaVuSans-95"/>
      <use x="1416.515625" xlink:href="#DejaVuSans-99"/>
      <use x="1471.496094" xlink:href="#DejaVuSans-121"/>
      <use x="1530.675781" xlink:href="#DejaVuSans-110"/>
      <use x="1594.054688" xlink:href="#DejaVuSans-97"/>
      <use x="1655.333984" xlink:href="#DejaVuSans-114"/>
      <use x="1694.197266" xlink:href="#DejaVuSans-111"/>
      <use x="1755.378906" xlink:href="#DejaVuSans-105"/>
      <use x="1783.162109" xlink:href="#DejaVuSans-100"/>
      <use x="1846.638672" xlink:href="#DejaVuSans-101"/>
      <use x="1908.162109" xlink:href="#DejaVuSans-115"/>
     </g>
    </g>
    <g id="patch_156">
     <path d="M 420.448125 180.430687 
L 440.448125 180.430687 
L 440.448125 173.430687 
L 420.448125 173.430687 
z
" style="fill:#21918c;opacity:0.5;"/>
    </g>
    <g id="text_20">
     <!-- Aquilegia_coerulea__Vitis_vinifera -->
     <g transform="translate(448.448125 180.430687)scale(0.1 -0.1)">
      <use xlink:href="#DejaVuSans-65"/>
      <use x="66.658203" xlink:href="#DejaVuSans-113"/>
      <use x="130.134766" xlink:href="#DejaVuSans-117"/>
      <use x="193.513672" xlink:href="#DejaVuSans-105"/>
      <use x="221.296875" xlink:href="#DejaVuSans-108"/>
      <use x="249.080078" xlink:href="#DejaVuSans-101"/>
      <use x="310.603516" xlink:href="#DejaVuSans-103"/>
      <use x="374.080078" xlink:href="#DejaVuSans-105"/>
      <use x="401.863281" xlink:href="#DejaVuSans-97"/>
      <use x="463.142578" xlink:href="#DejaVuSans-95"/>
      <use x="513.142578" xlink:href="#DejaVuSans-99"/>
      <use x="568.123047" xlink:href="#DejaVuSans-111"/>
      <use x="629.304688" xlink:href="#DejaVuSans-101"/>
      <use x="690.828125" xlink:href="#DejaVuSans-114"/>
      <use x="731.941406" xlink:href="#DejaVuSans-117"/>
      <use x="795.320312" xlink:href="#DejaVuSans-108"/>
      <use x="823.103516" xlink:href="#DejaVuSans-101"/>
      <use x="884.626953" xlink:href="#DejaVuSans-97"/>
      <use x="945.90625" xlink:href="#DejaVuSans-95"/>
      <use x="995.90625" xlink:href="#DejaVuSans-95"/>
      <use x="1045.90625" xlink:href="#DejaVuSans-86"/>
      <use x="1112.064453" xlink:href="#DejaVuSans-105"/>
      <use x="1139.847656" xlink:href="#DejaVuSans-116"/>
      <use x="1179.056641" xlink:href="#DejaVuSans-105"/>
      <use x="1206.839844" xlink:href="#DejaVuSans-115"/>
      <use x="1258.939453" xlink:href="#DejaVuSans-95"/>
      <use x="1308.939453" xlink:href="#DejaVuSans-118"/>
      <use x="1368.119141" xlink:href="#DejaVuSans-105"/>
      <use x="1395.902344" xlink:href="#DejaVuSans-110"/>
      <use x="1459.28125" xlink:href="#DejaVuSans-105"/>
      <use x="1487.064453" xlink:href="#DejaVuSans-102"/>
      <use x="1522.269531" xlink:href="#DejaVuSans-101"/>
      <use x="1583.792969" xlink:href="#DejaVuSans-114"/>
      <use x="1624.90625" xlink:href="#DejaVuSans-97"/>
     </g>
    </g>
    <g id="patch_157">
     <path d="M 420.448125 195.386937 
L 440.448125 195.386937 
L 440.448125 188.386937 
L 420.448125 188.386937 
z
" style="fill:#fde725;opacity:0.5;"/>
    </g>
    <g id="text_21">
     <!-- Acorus_americanus__Aquilegia_coerulea -->
     <g transform="translate(448.448125 195.386937)scale(0.1 -0.1)">
      <use xlink:href="#DejaVuSans-65"/>
      <use x="66.658203" xlink:href="#DejaVuSans-99"/>
      <use x="121.638672" xlink:href="#DejaVuSans-111"/>
      <use x="182.820312" xlink:href="#DejaVuSans-114"/>
      <use x="223.933594" xlink:href="#DejaVuSans-117"/>
      <use x="287.3125" xlink:href="#DejaVuSans-115"/>
      <use x="339.412109" xlink:href="#DejaVuSans-95"/>
      <use x="389.412109" xlink:href="#DejaVuSans-97"/>
      <use x="450.691406" xlink:href="#DejaVuSans-109"/>
      <use x="548.103516" xlink:href="#DejaVuSans-101"/>
      <use x="609.626953" xlink:href="#DejaVuSans-114"/>
      <use x="650.740234" xlink:href="#DejaVuSans-105"/>
      <use x="678.523438" xlink:href="#DejaVuSans-99"/>
      <use x="733.503906" xlink:href="#DejaVuSans-97"/>
      <use x="794.783203" xlink:href="#DejaVuSans-110"/>
      <use x="858.162109" xlink:href="#DejaVuSans-117"/>
      <use x="921.541016" xlink:href="#DejaVuSans-115"/>
      <use x="973.640625" xlink:href="#DejaVuSans-95"/>
      <use x="1023.640625" xlink:href="#DejaVuSans-95"/>
      <use x="1073.640625" xlink:href="#DejaVuSans-65"/>
      <use x="1140.298828" xlink:href="#DejaVuSans-113"/>
      <use x="1203.775391" xlink:href="#DejaVuSans-117"/>
      <use x="1267.154297" xlink:href="#DejaVuSans-105"/>
      <use x="1294.9375" xlink:href="#DejaVuSans-108"/>
      <use x="1322.720703" xlink:href="#DejaVuSans-101"/>
      <use x="1384.244141" xlink:href="#DejaVuSans-103"/>
      <use x="1447.720703" xlink:href="#DejaVuSans-105"/>
      <use x="1475.503906" xlink:href="#DejaVuSans-97"/>
      <use x="1536.783203" xlink:href="#DejaVuSans-95"/>
      <use x="1586.783203" xlink:href="#DejaVuSans-99"/>
      <use x="1641.763672" xlink:href="#DejaVuSans-111"/>
      <use x="1702.945312" xlink:href="#DejaVuSans-101"/>
      <use x="1764.46875" xlink:href="#DejaVuSans-114"/>
      <use x="1805.582031" xlink:href="#DejaVuSans-117"/>
      <use x="1868.960938" xlink:href="#DejaVuSans-108"/>
      <use x="1896.744141" xlink:href="#DejaVuSans-101"/>
      <use x="1958.267578" xlink:href="#DejaVuSans-97"/>
     </g>
    </g>
   </g>
  </g>
 </g>
 <defs>
  <clipPath id="p66ef80cdc4">
   <rect height="266.112" width="357.12" x="54.328125" y="22.32"/>
  </clipPath>
 </defs>
</svg>
