<?xml version="1.0" encoding="utf-8" standalone="no"?>
<!DOCTYPE svg PUBLIC "-//W3C//DTD SVG 1.1//EN"
  "http://www.w3.org/Graphics/SVG/1.1/DTD/svg11.dtd">
<!-- Created with matplotlib (https://matplotlib.org/) -->
<svg height="326.98825pt" version="1.1" viewBox="0 0 767.35125 326.98825" width="767.35125pt" xmlns="http://www.w3.org/2000/svg" xmlns:xlink="http://www.w3.org/1999/xlink">
 <defs>
  <style type="text/css">
*{stroke-linecap:butt;stroke-linejoin:round;}
  </style>
 </defs>
 <g id="figure_1">
  <g id="patch_1">
   <path d="M 0 326.98825 
L 767.35125 326.98825 
L 767.35125 0 
L 0 0 
z
" style="fill:#ffffff;"/>
  </g>
  <g id="axes_1">
   <g id="patch_2">
    <path d="M 47.965625 288.432 
L 405.085625 288.432 
L 405.085625 22.32 
L 47.965625 22.32 
z
" style="fill:#ffffff;"/>
   </g>
   <g id="patch_3">
    <path clip-path="url(#pa029d128da)" d="M 64.847661 288.432 
L 70.042134 288.432 
L 70.042134 288.432 
L 64.847661 288.432 
z
" style="fill:#440154;opacity:0.5;"/>
   </g>
   <g id="patch_4">
    <path clip-path="url(#pa029d128da)" d="M 71.340752 288.432 
L 76.535225 288.432 
L 76.535225 287.578667 
L 71.340752 287.578667 
z
" style="fill:#440154;opacity:0.5;"/>
   </g>
   <g id="patch_5">
    <path clip-path="url(#pa029d128da)" d="M 77.833843 288.432 
L 83.028316 288.432 
L 83.028316 288.005333 
L 77.833843 288.005333 
z
" style="fill:#440154;opacity:0.5;"/>
   </g>
   <g id="patch_6">
    <path clip-path="url(#pa029d128da)" d="M 84.326934 288.432 
L 89.521407 288.432 
L 89.521407 288.005333 
L 84.326934 288.005333 
z
" style="fill:#440154;opacity:0.5;"/>
   </g>
   <g id="patch_7">
    <path clip-path="url(#pa029d128da)" d="M 90.820025 288.432 
L 96.014498 288.432 
L 96.014498 288.432 
L 90.820025 288.432 
z
" style="fill:#440154;opacity:0.5;"/>
   </g>
   <g id="patch_8">
    <path clip-path="url(#pa029d128da)" d="M 97.313116 288.432 
L 102.507589 288.432 
L 102.507589 288.432 
L 97.313116 288.432 
z
" style="fill:#440154;opacity:0.5;"/>
   </g>
   <g id="patch_9">
    <path clip-path="url(#pa029d128da)" d="M 103.806207 288.432 
L 109.00068 288.432 
L 109.00068 288.432 
L 103.806207 288.432 
z
" style="fill:#440154;opacity:0.5;"/>
   </g>
   <g id="patch_10">
    <path clip-path="url(#pa029d128da)" d="M 110.299298 288.432 
L 115.49377 288.432 
L 115.49377 287.152 
L 110.299298 287.152 
z
" style="fill:#440154;opacity:0.5;"/>
   </g>
   <g id="patch_11">
    <path clip-path="url(#pa029d128da)" d="M 116.792389 288.432 
L 121.986861 288.432 
L 121.986861 285.018667 
L 116.792389 285.018667 
z
" style="fill:#440154;opacity:0.5;"/>
   </g>
   <g id="patch_12">
    <path clip-path="url(#pa029d128da)" d="M 123.28548 288.432 
L 128.479952 288.432 
L 128.479952 271.792 
L 123.28548 271.792 
z
" style="fill:#440154;opacity:0.5;"/>
   </g>
   <g id="patch_13">
    <path clip-path="url(#pa029d128da)" d="M 129.77857 288.432 
L 134.973043 288.432 
L 134.973043 243.205333 
L 129.77857 243.205333 
z
" style="fill:#440154;opacity:0.5;"/>
   </g>
   <g id="patch_14">
    <path clip-path="url(#pa029d128da)" d="M 136.271661 288.432 
L 141.466134 288.432 
L 141.466134 174.085333 
L 136.271661 174.085333 
z
" style="fill:#440154;opacity:0.5;"/>
   </g>
   <g id="patch_15">
    <path clip-path="url(#pa029d128da)" d="M 142.764752 288.432 
L 147.959225 288.432 
L 147.959225 100.698667 
L 142.764752 100.698667 
z
" style="fill:#440154;opacity:0.5;"/>
   </g>
   <g id="patch_16">
    <path clip-path="url(#pa029d128da)" d="M 149.257843 288.432 
L 154.452316 288.432 
L 154.452316 37.552 
L 149.257843 37.552 
z
" style="fill:#440154;opacity:0.5;"/>
   </g>
   <g id="patch_17">
    <path clip-path="url(#pa029d128da)" d="M 155.750934 288.432 
L 160.945407 288.432 
L 160.945407 43.952 
L 155.750934 43.952 
z
" style="fill:#440154;opacity:0.5;"/>
   </g>
   <g id="patch_18">
    <path clip-path="url(#pa029d128da)" d="M 162.244025 288.432 
L 167.438498 288.432 
L 167.438498 34.992 
L 162.244025 34.992 
z
" style="fill:#440154;opacity:0.5;"/>
   </g>
   <g id="patch_19">
    <path clip-path="url(#pa029d128da)" d="M 168.737116 288.432 
L 173.931589 288.432 
L 173.931589 95.152 
L 168.737116 95.152 
z
" style="fill:#440154;opacity:0.5;"/>
   </g>
   <g id="patch_20">
    <path clip-path="url(#pa029d128da)" d="M 175.230207 288.432 
L 180.42468 288.432 
L 180.42468 121.605333 
L 175.230207 121.605333 
z
" style="fill:#440154;opacity:0.5;"/>
   </g>
   <g id="patch_21">
    <path clip-path="url(#pa029d128da)" d="M 181.723298 288.432 
L 186.91777 288.432 
L 186.91777 138.672 
L 181.723298 138.672 
z
" style="fill:#440154;opacity:0.5;"/>
   </g>
   <g id="patch_22">
    <path clip-path="url(#pa029d128da)" d="M 188.216389 288.432 
L 193.410861 288.432 
L 193.410861 162.138667 
L 188.216389 162.138667 
z
" style="fill:#440154;opacity:0.5;"/>
   </g>
   <g id="patch_23">
    <path clip-path="url(#pa029d128da)" d="M 194.70948 288.432 
L 199.903952 288.432 
L 199.903952 193.712 
L 194.70948 193.712 
z
" style="fill:#440154;opacity:0.5;"/>
   </g>
   <g id="patch_24">
    <path clip-path="url(#pa029d128da)" d="M 201.20257 288.432 
L 206.397043 288.432 
L 206.397043 205.232 
L 201.20257 205.232 
z
" style="fill:#440154;opacity:0.5;"/>
   </g>
   <g id="patch_25">
    <path clip-path="url(#pa029d128da)" d="M 207.695661 288.432 
L 212.890134 288.432 
L 212.890134 207.365333 
L 207.695661 207.365333 
z
" style="fill:#440154;opacity:0.5;"/>
   </g>
   <g id="patch_26">
    <path clip-path="url(#pa029d128da)" d="M 214.188752 288.432 
L 219.383225 288.432 
L 219.383225 217.605333 
L 214.188752 217.605333 
z
" style="fill:#440154;opacity:0.5;"/>
   </g>
   <g id="patch_27">
    <path clip-path="url(#pa029d128da)" d="M 220.681843 288.432 
L 225.876316 288.432 
L 225.876316 223.578667 
L 220.681843 223.578667 
z
" style="fill:#440154;opacity:0.5;"/>
   </g>
   <g id="patch_28">
    <path clip-path="url(#pa029d128da)" d="M 227.174934 288.432 
L 232.369407 288.432 
L 232.369407 237.658667 
L 227.174934 237.658667 
z
" style="fill:#440154;opacity:0.5;"/>
   </g>
   <g id="patch_29">
    <path clip-path="url(#pa029d128da)" d="M 233.668025 288.432 
L 238.862498 288.432 
L 238.862498 237.232 
L 233.668025 237.232 
z
" style="fill:#440154;opacity:0.5;"/>
   </g>
   <g id="patch_30">
    <path clip-path="url(#pa029d128da)" d="M 240.161116 288.432 
L 245.355589 288.432 
L 245.355589 256.432 
L 240.161116 256.432 
z
" style="fill:#440154;opacity:0.5;"/>
   </g>
   <g id="patch_31">
    <path clip-path="url(#pa029d128da)" d="M 246.654207 288.432 
L 251.84868 288.432 
L 251.84868 246.618667 
L 246.654207 246.618667 
z
" style="fill:#440154;opacity:0.5;"/>
   </g>
   <g id="patch_32">
    <path clip-path="url(#pa029d128da)" d="M 253.147298 288.432 
L 258.34177 288.432 
L 258.34177 261.978667 
L 253.147298 261.978667 
z
" style="fill:#440154;opacity:0.5;"/>
   </g>
   <g id="patch_33">
    <path clip-path="url(#pa029d128da)" d="M 259.640389 288.432 
L 264.834861 288.432 
L 264.834861 254.725333 
L 259.640389 254.725333 
z
" style="fill:#440154;opacity:0.5;"/>
   </g>
   <g id="patch_34">
    <path clip-path="url(#pa029d128da)" d="M 266.13348 288.432 
L 271.327952 288.432 
L 271.327952 260.272 
L 266.13348 260.272 
z
" style="fill:#440154;opacity:0.5;"/>
   </g>
   <g id="patch_35">
    <path clip-path="url(#pa029d128da)" d="M 272.62657 288.432 
L 277.821043 288.432 
L 277.821043 269.232 
L 272.62657 269.232 
z
" style="fill:#440154;opacity:0.5;"/>
   </g>
   <g id="patch_36">
    <path clip-path="url(#pa029d128da)" d="M 279.119661 288.432 
L 284.314134 288.432 
L 284.314134 266.245333 
L 279.119661 266.245333 
z
" style="fill:#440154;opacity:0.5;"/>
   </g>
   <g id="patch_37">
    <path clip-path="url(#pa029d128da)" d="M 285.612752 288.432 
L 290.807225 288.432 
L 290.807225 266.245333 
L 285.612752 266.245333 
z
" style="fill:#440154;opacity:0.5;"/>
   </g>
   <g id="patch_38">
    <path clip-path="url(#pa029d128da)" d="M 292.105843 288.432 
L 297.300316 288.432 
L 297.300316 270.085333 
L 292.105843 270.085333 
z
" style="fill:#440154;opacity:0.5;"/>
   </g>
   <g id="patch_39">
    <path clip-path="url(#pa029d128da)" d="M 298.598934 288.432 
L 303.793407 288.432 
L 303.793407 267.952 
L 298.598934 267.952 
z
" style="fill:#440154;opacity:0.5;"/>
   </g>
   <g id="patch_40">
    <path clip-path="url(#pa029d128da)" d="M 305.092025 288.432 
L 310.286498 288.432 
L 310.286498 270.085333 
L 305.092025 270.085333 
z
" style="fill:#440154;opacity:0.5;"/>
   </g>
   <g id="patch_41">
    <path clip-path="url(#pa029d128da)" d="M 311.585116 288.432 
L 316.779589 288.432 
L 316.779589 270.512 
L 311.585116 270.512 
z
" style="fill:#440154;opacity:0.5;"/>
   </g>
   <g id="patch_42">
    <path clip-path="url(#pa029d128da)" d="M 318.078207 288.432 
L 323.27268 288.432 
L 323.27268 275.205333 
L 318.078207 275.205333 
z
" style="fill:#440154;opacity:0.5;"/>
   </g>
   <g id="patch_43">
    <path clip-path="url(#pa029d128da)" d="M 324.571298 288.432 
L 329.76577 288.432 
L 329.76577 272.218667 
L 324.571298 272.218667 
z
" style="fill:#440154;opacity:0.5;"/>
   </g>
   <g id="patch_44">
    <path clip-path="url(#pa029d128da)" d="M 331.064389 288.432 
L 336.258861 288.432 
L 336.258861 278.192 
L 331.064389 278.192 
z
" style="fill:#440154;opacity:0.5;"/>
   </g>
   <g id="patch_45">
    <path clip-path="url(#pa029d128da)" d="M 337.55748 288.432 
L 342.751952 288.432 
L 342.751952 273.072 
L 337.55748 273.072 
z
" style="fill:#440154;opacity:0.5;"/>
   </g>
   <g id="patch_46">
    <path clip-path="url(#pa029d128da)" d="M 344.05057 288.432 
L 349.245043 288.432 
L 349.245043 276.485333 
L 344.05057 276.485333 
z
" style="fill:#440154;opacity:0.5;"/>
   </g>
   <g id="patch_47">
    <path clip-path="url(#pa029d128da)" d="M 350.543661 288.432 
L 355.738134 288.432 
L 355.738134 277.338667 
L 350.543661 277.338667 
z
" style="fill:#440154;opacity:0.5;"/>
   </g>
   <g id="patch_48">
    <path clip-path="url(#pa029d128da)" d="M 357.036752 288.432 
L 362.231225 288.432 
L 362.231225 279.898667 
L 357.036752 279.898667 
z
" style="fill:#440154;opacity:0.5;"/>
   </g>
   <g id="patch_49">
    <path clip-path="url(#pa029d128da)" d="M 363.529843 288.432 
L 368.724316 288.432 
L 368.724316 276.912 
L 363.529843 276.912 
z
" style="fill:#440154;opacity:0.5;"/>
   </g>
   <g id="patch_50">
    <path clip-path="url(#pa029d128da)" d="M 370.022934 288.432 
L 375.217407 288.432 
L 375.217407 279.045333 
L 370.022934 279.045333 
z
" style="fill:#440154;opacity:0.5;"/>
   </g>
   <g id="patch_51">
    <path clip-path="url(#pa029d128da)" d="M 376.516025 288.432 
L 381.710498 288.432 
L 381.710498 281.178667 
L 376.516025 281.178667 
z
" style="fill:#440154;opacity:0.5;"/>
   </g>
   <g id="patch_52">
    <path clip-path="url(#pa029d128da)" d="M 383.009116 288.432 
L 388.203589 288.432 
L 388.203589 282.032 
L 383.009116 282.032 
z
" style="fill:#440154;opacity:0.5;"/>
   </g>
   <g id="patch_53">
    <path clip-path="url(#pa029d128da)" d="M 64.847661 288.432 
L 70.042134 288.432 
L 70.042134 288.432 
L 64.847661 288.432 
z
" style="fill:#21918c;opacity:0.5;"/>
   </g>
   <g id="patch_54">
    <path clip-path="url(#pa029d128da)" d="M 71.340752 288.432 
L 76.535225 288.432 
L 76.535225 287.578667 
L 71.340752 287.578667 
z
" style="fill:#21918c;opacity:0.5;"/>
   </g>
   <g id="patch_55">
    <path clip-path="url(#pa029d128da)" d="M 77.833843 288.432 
L 83.028316 288.432 
L 83.028316 288.005333 
L 77.833843 288.005333 
z
" style="fill:#21918c;opacity:0.5;"/>
   </g>
   <g id="patch_56">
    <path clip-path="url(#pa029d128da)" d="M 84.326934 288.432 
L 89.521407 288.432 
L 89.521407 288.005333 
L 84.326934 288.005333 
z
" style="fill:#21918c;opacity:0.5;"/>
   </g>
   <g id="patch_57">
    <path clip-path="url(#pa029d128da)" d="M 90.820025 288.432 
L 96.014498 288.432 
L 96.014498 288.432 
L 90.820025 288.432 
z
" style="fill:#21918c;opacity:0.5;"/>
   </g>
   <g id="patch_58">
    <path clip-path="url(#pa029d128da)" d="M 97.313116 288.432 
L 102.507589 288.432 
L 102.507589 288.432 
L 97.313116 288.432 
z
" style="fill:#21918c;opacity:0.5;"/>
   </g>
   <g id="patch_59">
    <path clip-path="url(#pa029d128da)" d="M 103.806207 288.432 
L 109.00068 288.432 
L 109.00068 288.432 
L 103.806207 288.432 
z
" style="fill:#21918c;opacity:0.5;"/>
   </g>
   <g id="patch_60">
    <path clip-path="url(#pa029d128da)" d="M 110.299298 288.432 
L 115.49377 288.432 
L 115.49377 288.005333 
L 110.299298 288.005333 
z
" style="fill:#21918c;opacity:0.5;"/>
   </g>
   <g id="patch_61">
    <path clip-path="url(#pa029d128da)" d="M 116.792389 288.432 
L 121.986861 288.432 
L 121.986861 288.432 
L 116.792389 288.432 
z
" style="fill:#21918c;opacity:0.5;"/>
   </g>
   <g id="patch_62">
    <path clip-path="url(#pa029d128da)" d="M 123.28548 288.432 
L 128.479952 288.432 
L 128.479952 285.018667 
L 123.28548 285.018667 
z
" style="fill:#21918c;opacity:0.5;"/>
   </g>
   <g id="patch_63">
    <path clip-path="url(#pa029d128da)" d="M 129.77857 288.432 
L 134.973043 288.432 
L 134.973043 276.058667 
L 129.77857 276.058667 
z
" style="fill:#21918c;opacity:0.5;"/>
   </g>
   <g id="patch_64">
    <path clip-path="url(#pa029d128da)" d="M 136.271661 288.432 
L 141.466134 288.432 
L 141.466134 262.405333 
L 136.271661 262.405333 
z
" style="fill:#21918c;opacity:0.5;"/>
   </g>
   <g id="patch_65">
    <path clip-path="url(#pa029d128da)" d="M 142.764752 288.432 
L 147.959225 288.432 
L 147.959225 239.365333 
L 142.764752 239.365333 
z
" style="fill:#21918c;opacity:0.5;"/>
   </g>
   <g id="patch_66">
    <path clip-path="url(#pa029d128da)" d="M 149.257843 288.432 
L 154.452316 288.432 
L 154.452316 197.978667 
L 149.257843 197.978667 
z
" style="fill:#21918c;opacity:0.5;"/>
   </g>
   <g id="patch_67">
    <path clip-path="url(#pa029d128da)" d="M 155.750934 288.432 
L 160.945407 288.432 
L 160.945407 162.992 
L 155.750934 162.992 
z
" style="fill:#21918c;opacity:0.5;"/>
   </g>
   <g id="patch_68">
    <path clip-path="url(#pa029d128da)" d="M 162.244025 288.432 
L 167.438498 288.432 
L 167.438498 125.872 
L 162.244025 125.872 
z
" style="fill:#21918c;opacity:0.5;"/>
   </g>
   <g id="patch_69">
    <path clip-path="url(#pa029d128da)" d="M 168.737116 288.432 
L 173.931589 288.432 
L 173.931589 118.192 
L 168.737116 118.192 
z
" style="fill:#21918c;opacity:0.5;"/>
   </g>
   <g id="patch_70">
    <path clip-path="url(#pa029d128da)" d="M 175.230207 288.432 
L 180.42468 288.432 
L 180.42468 100.698667 
L 175.230207 100.698667 
z
" style="fill:#21918c;opacity:0.5;"/>
   </g>
   <g id="patch_71">
    <path clip-path="url(#pa029d128da)" d="M 181.723298 288.432 
L 186.91777 288.432 
L 186.91777 131.418667 
L 181.723298 131.418667 
z
" style="fill:#21918c;opacity:0.5;"/>
   </g>
   <g id="patch_72">
    <path clip-path="url(#pa029d128da)" d="M 188.216389 288.432 
L 193.410861 288.432 
L 193.410861 122.032 
L 188.216389 122.032 
z
" style="fill:#21918c;opacity:0.5;"/>
   </g>
   <g id="patch_73">
    <path clip-path="url(#pa029d128da)" d="M 194.70948 288.432 
L 199.903952 288.432 
L 199.903952 169.818667 
L 194.70948 169.818667 
z
" style="fill:#21918c;opacity:0.5;"/>
   </g>
   <g id="patch_74">
    <path clip-path="url(#pa029d128da)" d="M 201.20257 288.432 
L 206.397043 288.432 
L 206.397043 173.658667 
L 201.20257 173.658667 
z
" style="fill:#21918c;opacity:0.5;"/>
   </g>
   <g id="patch_75">
    <path clip-path="url(#pa029d128da)" d="M 207.695661 288.432 
L 212.890134 288.432 
L 212.890134 180.485333 
L 207.695661 180.485333 
z
" style="fill:#21918c;opacity:0.5;"/>
   </g>
   <g id="patch_76">
    <path clip-path="url(#pa029d128da)" d="M 214.188752 288.432 
L 219.383225 288.432 
L 219.383225 192.432 
L 214.188752 192.432 
z
" style="fill:#21918c;opacity:0.5;"/>
   </g>
   <g id="patch_77">
    <path clip-path="url(#pa029d128da)" d="M 220.681843 288.432 
L 225.876316 288.432 
L 225.876316 203.098667 
L 220.681843 203.098667 
z
" style="fill:#21918c;opacity:0.5;"/>
   </g>
   <g id="patch_78">
    <path clip-path="url(#pa029d128da)" d="M 227.174934 288.432 
L 232.369407 288.432 
L 232.369407 223.578667 
L 227.174934 223.578667 
z
" style="fill:#21918c;opacity:0.5;"/>
   </g>
   <g id="patch_79">
    <path clip-path="url(#pa029d128da)" d="M 233.668025 288.432 
L 238.862498 288.432 
L 238.862498 222.725333 
L 233.668025 222.725333 
z
" style="fill:#21918c;opacity:0.5;"/>
   </g>
   <g id="patch_80">
    <path clip-path="url(#pa029d128da)" d="M 240.161116 288.432 
L 245.355589 288.432 
L 245.355589 238.085333 
L 240.161116 238.085333 
z
" style="fill:#21918c;opacity:0.5;"/>
   </g>
   <g id="patch_81">
    <path clip-path="url(#pa029d128da)" d="M 246.654207 288.432 
L 251.84868 288.432 
L 251.84868 232.538667 
L 246.654207 232.538667 
z
" style="fill:#21918c;opacity:0.5;"/>
   </g>
   <g id="patch_82">
    <path clip-path="url(#pa029d128da)" d="M 253.147298 288.432 
L 258.34177 288.432 
L 258.34177 243.632 
L 253.147298 243.632 
z
" style="fill:#21918c;opacity:0.5;"/>
   </g>
   <g id="patch_83">
    <path clip-path="url(#pa029d128da)" d="M 259.640389 288.432 
L 264.834861 288.432 
L 264.834861 243.632 
L 259.640389 243.632 
z
" style="fill:#21918c;opacity:0.5;"/>
   </g>
   <g id="patch_84">
    <path clip-path="url(#pa029d128da)" d="M 266.13348 288.432 
L 271.327952 288.432 
L 271.327952 253.445333 
L 266.13348 253.445333 
z
" style="fill:#21918c;opacity:0.5;"/>
   </g>
   <g id="patch_85">
    <path clip-path="url(#pa029d128da)" d="M 272.62657 288.432 
L 277.821043 288.432 
L 277.821043 254.298667 
L 272.62657 254.298667 
z
" style="fill:#21918c;opacity:0.5;"/>
   </g>
   <g id="patch_86">
    <path clip-path="url(#pa029d128da)" d="M 279.119661 288.432 
L 284.314134 288.432 
L 284.314134 257.712 
L 279.119661 257.712 
z
" style="fill:#21918c;opacity:0.5;"/>
   </g>
   <g id="patch_87">
    <path clip-path="url(#pa029d128da)" d="M 285.612752 288.432 
L 290.807225 288.432 
L 290.807225 258.138667 
L 285.612752 258.138667 
z
" style="fill:#21918c;opacity:0.5;"/>
   </g>
   <g id="patch_88">
    <path clip-path="url(#pa029d128da)" d="M 292.105843 288.432 
L 297.300316 288.432 
L 297.300316 258.138667 
L 292.105843 258.138667 
z
" style="fill:#21918c;opacity:0.5;"/>
   </g>
   <g id="patch_89">
    <path clip-path="url(#pa029d128da)" d="M 298.598934 288.432 
L 303.793407 288.432 
L 303.793407 257.285333 
L 298.598934 257.285333 
z
" style="fill:#21918c;opacity:0.5;"/>
   </g>
   <g id="patch_90">
    <path clip-path="url(#pa029d128da)" d="M 305.092025 288.432 
L 310.286498 288.432 
L 310.286498 265.392 
L 305.092025 265.392 
z
" style="fill:#21918c;opacity:0.5;"/>
   </g>
   <g id="patch_91">
    <path clip-path="url(#pa029d128da)" d="M 311.585116 288.432 
L 316.779589 288.432 
L 316.779589 263.258667 
L 311.585116 263.258667 
z
" style="fill:#21918c;opacity:0.5;"/>
   </g>
   <g id="patch_92">
    <path clip-path="url(#pa029d128da)" d="M 318.078207 288.432 
L 323.27268 288.432 
L 323.27268 258.992 
L 318.078207 258.992 
z
" style="fill:#21918c;opacity:0.5;"/>
   </g>
   <g id="patch_93">
    <path clip-path="url(#pa029d128da)" d="M 324.571298 288.432 
L 329.76577 288.432 
L 329.76577 273.072 
L 324.571298 273.072 
z
" style="fill:#21918c;opacity:0.5;"/>
   </g>
   <g id="patch_94">
    <path clip-path="url(#pa029d128da)" d="M 331.064389 288.432 
L 336.258861 288.432 
L 336.258861 272.645333 
L 331.064389 272.645333 
z
" style="fill:#21918c;opacity:0.5;"/>
   </g>
   <g id="patch_95">
    <path clip-path="url(#pa029d128da)" d="M 337.55748 288.432 
L 342.751952 288.432 
L 342.751952 269.658667 
L 337.55748 269.658667 
z
" style="fill:#21918c;opacity:0.5;"/>
   </g>
   <g id="patch_96">
    <path clip-path="url(#pa029d128da)" d="M 344.05057 288.432 
L 349.245043 288.432 
L 349.245043 273.072 
L 344.05057 273.072 
z
" style="fill:#21918c;opacity:0.5;"/>
   </g>
   <g id="patch_97">
    <path clip-path="url(#pa029d128da)" d="M 350.543661 288.432 
L 355.738134 288.432 
L 355.738134 276.485333 
L 350.543661 276.485333 
z
" style="fill:#21918c;opacity:0.5;"/>
   </g>
   <g id="patch_98">
    <path clip-path="url(#pa029d128da)" d="M 357.036752 288.432 
L 362.231225 288.432 
L 362.231225 267.952 
L 357.036752 267.952 
z
" style="fill:#21918c;opacity:0.5;"/>
   </g>
   <g id="patch_99">
    <path clip-path="url(#pa029d128da)" d="M 363.529843 288.432 
L 368.724316 288.432 
L 368.724316 274.778667 
L 363.529843 274.778667 
z
" style="fill:#21918c;opacity:0.5;"/>
   </g>
   <g id="patch_100">
    <path clip-path="url(#pa029d128da)" d="M 370.022934 288.432 
L 375.217407 288.432 
L 375.217407 269.232 
L 370.022934 269.232 
z
" style="fill:#21918c;opacity:0.5;"/>
   </g>
   <g id="patch_101">
    <path clip-path="url(#pa029d128da)" d="M 376.516025 288.432 
L 381.710498 288.432 
L 381.710498 274.352 
L 376.516025 274.352 
z
" style="fill:#21918c;opacity:0.5;"/>
   </g>
   <g id="patch_102">
    <path clip-path="url(#pa029d128da)" d="M 383.009116 288.432 
L 388.203589 288.432 
L 388.203589 273.498667 
L 383.009116 273.498667 
z
" style="fill:#21918c;opacity:0.5;"/>
   </g>
   <g id="patch_103">
    <path clip-path="url(#pa029d128da)" d="M 64.847661 288.432 
L 70.042134 288.432 
L 70.042134 288.432 
L 64.847661 288.432 
z
" style="fill:#fde725;opacity:0.5;"/>
   </g>
   <g id="patch_104">
    <path clip-path="url(#pa029d128da)" d="M 71.340752 288.432 
L 76.535225 288.432 
L 76.535225 287.578667 
L 71.340752 287.578667 
z
" style="fill:#fde725;opacity:0.5;"/>
   </g>
   <g id="patch_105">
    <path clip-path="url(#pa029d128da)" d="M 77.833843 288.432 
L 83.028316 288.432 
L 83.028316 288.005333 
L 77.833843 288.005333 
z
" style="fill:#fde725;opacity:0.5;"/>
   </g>
   <g id="patch_106">
    <path clip-path="url(#pa029d128da)" d="M 84.326934 288.432 
L 89.521407 288.432 
L 89.521407 288.432 
L 84.326934 288.432 
z
" style="fill:#fde725;opacity:0.5;"/>
   </g>
   <g id="patch_107">
    <path clip-path="url(#pa029d128da)" d="M 90.820025 288.432 
L 96.014498 288.432 
L 96.014498 288.432 
L 90.820025 288.432 
z
" style="fill:#fde725;opacity:0.5;"/>
   </g>
   <g id="patch_108">
    <path clip-path="url(#pa029d128da)" d="M 97.313116 288.432 
L 102.507589 288.432 
L 102.507589 288.432 
L 97.313116 288.432 
z
" style="fill:#fde725;opacity:0.5;"/>
   </g>
   <g id="patch_109">
    <path clip-path="url(#pa029d128da)" d="M 103.806207 288.432 
L 109.00068 288.432 
L 109.00068 288.432 
L 103.806207 288.432 
z
" style="fill:#fde725;opacity:0.5;"/>
   </g>
   <g id="patch_110">
    <path clip-path="url(#pa029d128da)" d="M 110.299298 288.432 
L 115.49377 288.432 
L 115.49377 286.298667 
L 110.299298 286.298667 
z
" style="fill:#fde725;opacity:0.5;"/>
   </g>
   <g id="patch_111">
    <path clip-path="url(#pa029d128da)" d="M 116.792389 288.432 
L 121.986861 288.432 
L 121.986861 287.152 
L 116.792389 287.152 
z
" style="fill:#fde725;opacity:0.5;"/>
   </g>
   <g id="patch_112">
    <path clip-path="url(#pa029d128da)" d="M 123.28548 288.432 
L 128.479952 288.432 
L 128.479952 279.898667 
L 123.28548 279.898667 
z
" style="fill:#fde725;opacity:0.5;"/>
   </g>
   <g id="patch_113">
    <path clip-path="url(#pa029d128da)" d="M 129.77857 288.432 
L 134.973043 288.432 
L 134.973043 266.672 
L 129.77857 266.672 
z
" style="fill:#fde725;opacity:0.5;"/>
   </g>
   <g id="patch_114">
    <path clip-path="url(#pa029d128da)" d="M 136.271661 288.432 
L 141.466134 288.432 
L 141.466134 227.845333 
L 136.271661 227.845333 
z
" style="fill:#fde725;opacity:0.5;"/>
   </g>
   <g id="patch_115">
    <path clip-path="url(#pa029d128da)" d="M 142.764752 288.432 
L 147.959225 288.432 
L 147.959225 161.285333 
L 142.764752 161.285333 
z
" style="fill:#fde725;opacity:0.5;"/>
   </g>
   <g id="patch_116">
    <path clip-path="url(#pa029d128da)" d="M 149.257843 288.432 
L 154.452316 288.432 
L 154.452316 105.818667 
L 149.257843 105.818667 
z
" style="fill:#fde725;opacity:0.5;"/>
   </g>
   <g id="patch_117">
    <path clip-path="url(#pa029d128da)" d="M 155.750934 288.432 
L 160.945407 288.432 
L 160.945407 56.752 
L 155.750934 56.752 
z
" style="fill:#fde725;opacity:0.5;"/>
   </g>
   <g id="patch_118">
    <path clip-path="url(#pa029d128da)" d="M 162.244025 288.432 
L 167.438498 288.432 
L 167.438498 46.938667 
L 162.244025 46.938667 
z
" style="fill:#fde725;opacity:0.5;"/>
   </g>
   <g id="patch_119">
    <path clip-path="url(#pa029d128da)" d="M 168.737116 288.432 
L 173.931589 288.432 
L 173.931589 74.245333 
L 168.737116 74.245333 
z
" style="fill:#fde725;opacity:0.5;"/>
   </g>
   <g id="patch_120">
    <path clip-path="url(#pa029d128da)" d="M 175.230207 288.432 
L 180.42468 288.432 
L 180.42468 87.045333 
L 175.230207 87.045333 
z
" style="fill:#fde725;opacity:0.5;"/>
   </g>
   <g id="patch_121">
    <path clip-path="url(#pa029d128da)" d="M 181.723298 288.432 
L 186.91777 288.432 
L 186.91777 121.178667 
L 181.723298 121.178667 
z
" style="fill:#fde725;opacity:0.5;"/>
   </g>
   <g id="patch_122">
    <path clip-path="url(#pa029d128da)" d="M 188.216389 288.432 
L 193.410861 288.432 
L 193.410861 140.805333 
L 188.216389 140.805333 
z
" style="fill:#fde725;opacity:0.5;"/>
   </g>
   <g id="patch_123">
    <path clip-path="url(#pa029d128da)" d="M 194.70948 288.432 
L 199.903952 288.432 
L 199.903952 172.805333 
L 194.70948 172.805333 
z
" style="fill:#fde725;opacity:0.5;"/>
   </g>
   <g id="patch_124">
    <path clip-path="url(#pa029d128da)" d="M 201.20257 288.432 
L 206.397043 288.432 
L 206.397043 181.338667 
L 201.20257 181.338667 
z
" style="fill:#fde725;opacity:0.5;"/>
   </g>
   <g id="patch_125">
    <path clip-path="url(#pa029d128da)" d="M 207.695661 288.432 
L 212.890134 288.432 
L 212.890134 194.138667 
L 207.695661 194.138667 
z
" style="fill:#fde725;opacity:0.5;"/>
   </g>
   <g id="patch_126">
    <path clip-path="url(#pa029d128da)" d="M 214.188752 288.432 
L 219.383225 288.432 
L 219.383225 218.458667 
L 214.188752 218.458667 
z
" style="fill:#fde725;opacity:0.5;"/>
   </g>
   <g id="patch_127">
    <path clip-path="url(#pa029d128da)" d="M 220.681843 288.432 
L 225.876316 288.432 
L 225.876316 220.592 
L 220.681843 220.592 
z
" style="fill:#fde725;opacity:0.5;"/>
   </g>
   <g id="patch_128">
    <path clip-path="url(#pa029d128da)" d="M 227.174934 288.432 
L 232.369407 288.432 
L 232.369407 226.138667 
L 227.174934 226.138667 
z
" style="fill:#fde725;opacity:0.5;"/>
   </g>
   <g id="patch_129">
    <path clip-path="url(#pa029d128da)" d="M 233.668025 288.432 
L 238.862498 288.432 
L 238.862498 236.378667 
L 233.668025 236.378667 
z
" style="fill:#fde725;opacity:0.5;"/>
   </g>
   <g id="patch_130">
    <path clip-path="url(#pa029d128da)" d="M 240.161116 288.432 
L 245.355589 288.432 
L 245.355589 244.485333 
L 240.161116 244.485333 
z
" style="fill:#fde725;opacity:0.5;"/>
   </g>
   <g id="patch_131">
    <path clip-path="url(#pa029d128da)" d="M 246.654207 288.432 
L 251.84868 288.432 
L 251.84868 254.725333 
L 246.654207 254.725333 
z
" style="fill:#fde725;opacity:0.5;"/>
   </g>
   <g id="patch_132">
    <path clip-path="url(#pa029d128da)" d="M 253.147298 288.432 
L 258.34177 288.432 
L 258.34177 260.272 
L 253.147298 260.272 
z
" style="fill:#fde725;opacity:0.5;"/>
   </g>
   <g id="patch_133">
    <path clip-path="url(#pa029d128da)" d="M 259.640389 288.432 
L 264.834861 288.432 
L 264.834861 261.978667 
L 259.640389 261.978667 
z
" style="fill:#fde725;opacity:0.5;"/>
   </g>
   <g id="patch_134">
    <path clip-path="url(#pa029d128da)" d="M 266.13348 288.432 
L 271.327952 288.432 
L 271.327952 250.885333 
L 266.13348 250.885333 
z
" style="fill:#fde725;opacity:0.5;"/>
   </g>
   <g id="patch_135">
    <path clip-path="url(#pa029d128da)" d="M 272.62657 288.432 
L 277.821043 288.432 
L 277.821043 262.832 
L 272.62657 262.832 
z
" style="fill:#fde725;opacity:0.5;"/>
   </g>
   <g id="patch_136">
    <path clip-path="url(#pa029d128da)" d="M 279.119661 288.432 
L 284.314134 288.432 
L 284.314134 264.112 
L 279.119661 264.112 
z
" style="fill:#fde725;opacity:0.5;"/>
   </g>
   <g id="patch_137">
    <path clip-path="url(#pa029d128da)" d="M 285.612752 288.432 
L 290.807225 288.432 
L 290.807225 264.965333 
L 285.612752 264.965333 
z
" style="fill:#fde725;opacity:0.5;"/>
   </g>
   <g id="patch_138">
    <path clip-path="url(#pa029d128da)" d="M 292.105843 288.432 
L 297.300316 288.432 
L 297.300316 268.805333 
L 292.105843 268.805333 
z
" style="fill:#fde725;opacity:0.5;"/>
   </g>
   <g id="patch_139">
    <path clip-path="url(#pa029d128da)" d="M 298.598934 288.432 
L 303.793407 288.432 
L 303.793407 268.805333 
L 298.598934 268.805333 
z
" style="fill:#fde725;opacity:0.5;"/>
   </g>
   <g id="patch_140">
    <path clip-path="url(#pa029d128da)" d="M 305.092025 288.432 
L 310.286498 288.432 
L 310.286498 275.205333 
L 305.092025 275.205333 
z
" style="fill:#fde725;opacity:0.5;"/>
   </g>
   <g id="patch_141">
    <path clip-path="url(#pa029d128da)" d="M 311.585116 288.432 
L 316.779589 288.432 
L 316.779589 268.378667 
L 311.585116 268.378667 
z
" style="fill:#fde725;opacity:0.5;"/>
   </g>
   <g id="patch_142">
    <path clip-path="url(#pa029d128da)" d="M 318.078207 288.432 
L 323.27268 288.432 
L 323.27268 272.218667 
L 318.078207 272.218667 
z
" style="fill:#fde725;opacity:0.5;"/>
   </g>
   <g id="patch_143">
    <path clip-path="url(#pa029d128da)" d="M 324.571298 288.432 
L 329.76577 288.432 
L 329.76577 270.512 
L 324.571298 270.512 
z
" style="fill:#fde725;opacity:0.5;"/>
   </g>
   <g id="patch_144">
    <path clip-path="url(#pa029d128da)" d="M 331.064389 288.432 
L 336.258861 288.432 
L 336.258861 276.058667 
L 331.064389 276.058667 
z
" style="fill:#fde725;opacity:0.5;"/>
   </g>
   <g id="patch_145">
    <path clip-path="url(#pa029d128da)" d="M 337.55748 288.432 
L 342.751952 288.432 
L 342.751952 278.192 
L 337.55748 278.192 
z
" style="fill:#fde725;opacity:0.5;"/>
   </g>
   <g id="patch_146">
    <path clip-path="url(#pa029d128da)" d="M 344.05057 288.432 
L 349.245043 288.432 
L 349.245043 273.072 
L 344.05057 273.072 
z
" style="fill:#fde725;opacity:0.5;"/>
   </g>
   <g id="patch_147">
    <path clip-path="url(#pa029d128da)" d="M 350.543661 288.432 
L 355.738134 288.432 
L 355.738134 275.205333 
L 350.543661 275.205333 
z
" style="fill:#fde725;opacity:0.5;"/>
   </g>
   <g id="patch_148">
    <path clip-path="url(#pa029d128da)" d="M 357.036752 288.432 
L 362.231225 288.432 
L 362.231225 276.912 
L 357.036752 276.912 
z
" style="fill:#fde725;opacity:0.5;"/>
   </g>
   <g id="patch_149">
    <path clip-path="url(#pa029d128da)" d="M 363.529843 288.432 
L 368.724316 288.432 
L 368.724316 275.205333 
L 363.529843 275.205333 
z
" style="fill:#fde725;opacity:0.5;"/>
   </g>
   <g id="patch_150">
    <path clip-path="url(#pa029d128da)" d="M 370.022934 288.432 
L 375.217407 288.432 
L 375.217407 279.472 
L 370.022934 279.472 
z
" style="fill:#fde725;opacity:0.5;"/>
   </g>
   <g id="patch_151">
    <path clip-path="url(#pa029d128da)" d="M 376.516025 288.432 
L 381.710498 288.432 
L 381.710498 281.178667 
L 376.516025 281.178667 
z
" style="fill:#fde725;opacity:0.5;"/>
   </g>
   <g id="patch_152">
    <path clip-path="url(#pa029d128da)" d="M 383.009116 288.432 
L 388.203589 288.432 
L 388.203589 278.618667 
L 383.009116 278.618667 
z
" style="fill:#fde725;opacity:0.5;"/>
   </g>
   <g id="matplotlib.axis_1">
    <g id="xtick_1">
     <g id="line2d_1">
      <defs>
       <path d="M 0 0 
L 0 3.5 
" id="m93a1778bb9" style="stroke:#000000;stroke-width:0.8;"/>
      </defs>
      <g>
       <use style="stroke:#000000;stroke-width:0.8;" x="64.198352" xlink:href="#m93a1778bb9" y="289.432"/>
      </g>
     </g>
     <g id="text_1">
      <!-- 0 -->
      <defs>
       <path d="M 31.78125 66.40625 
Q 24.171875 66.40625 20.328125 58.90625 
Q 16.5 51.421875 16.5 36.375 
Q 16.5 21.390625 20.328125 13.890625 
Q 24.171875 6.390625 31.78125 6.390625 
Q 39.453125 6.390625 43.28125 13.890625 
Q 47.125 21.390625 47.125 36.375 
Q 47.125 51.421875 43.28125 58.90625 
Q 39.453125 66.40625 31.78125 66.40625 
z
M 31.78125 74.21875 
Q 44.046875 74.21875 50.515625 64.515625 
Q 56.984375 54.828125 56.984375 36.375 
Q 56.984375 17.96875 50.515625 8.265625 
Q 44.046875 -1.421875 31.78125 -1.421875 
Q 19.53125 -1.421875 13.0625 8.265625 
Q 6.59375 17.96875 6.59375 36.375 
Q 6.59375 54.828125 13.0625 64.515625 
Q 19.53125 74.21875 31.78125 74.21875 
z
" id="DejaVuSans-48"/>
      </defs>
      <g transform="translate(61.017102 304.030437)scale(0.1 -0.1)">
       <use xlink:href="#DejaVuSans-48"/>
      </g>
     </g>
    </g>
    <g id="xtick_2">
     <g id="line2d_2">
      <g>
       <use style="stroke:#000000;stroke-width:0.8;" x="129.129261" xlink:href="#m93a1778bb9" y="289.432"/>
      </g>
     </g>
     <g id="text_2">
      <!-- 1 -->
      <defs>
       <path d="M 12.40625 8.296875 
L 28.515625 8.296875 
L 28.515625 63.921875 
L 10.984375 60.40625 
L 10.984375 69.390625 
L 28.421875 72.90625 
L 38.28125 72.90625 
L 38.28125 8.296875 
L 54.390625 8.296875 
L 54.390625 0 
L 12.40625 0 
z
" id="DejaVuSans-49"/>
      </defs>
      <g transform="translate(125.948011 304.030437)scale(0.1 -0.1)">
       <use xlink:href="#DejaVuSans-49"/>
      </g>
     </g>
    </g>
    <g id="xtick_3">
     <g id="line2d_3">
      <g>
       <use style="stroke:#000000;stroke-width:0.8;" x="194.06017" xlink:href="#m93a1778bb9" y="289.432"/>
      </g>
     </g>
     <g id="text_3">
      <!-- 2 -->
      <defs>
       <path d="M 19.1875 8.296875 
L 53.609375 8.296875 
L 53.609375 0 
L 7.328125 0 
L 7.328125 8.296875 
Q 12.9375 14.109375 22.625 23.890625 
Q 32.328125 33.6875 34.8125 36.53125 
Q 39.546875 41.84375 41.421875 45.53125 
Q 43.3125 49.21875 43.3125 52.78125 
Q 43.3125 58.59375 39.234375 62.25 
Q 35.15625 65.921875 28.609375 65.921875 
Q 23.96875 65.921875 18.8125 64.3125 
Q 13.671875 62.703125 7.8125 59.421875 
L 7.8125 69.390625 
Q 13.765625 71.78125 18.9375 73 
Q 24.125 74.21875 28.421875 74.21875 
Q 39.75 74.21875 46.484375 68.546875 
Q 53.21875 62.890625 53.21875 53.421875 
Q 53.21875 48.921875 51.53125 44.890625 
Q 49.859375 40.875 45.40625 35.40625 
Q 44.1875 33.984375 37.640625 27.21875 
Q 31.109375 20.453125 19.1875 8.296875 
z
" id="DejaVuSans-50"/>
      </defs>
      <g transform="translate(190.87892 304.030437)scale(0.1 -0.1)">
       <use xlink:href="#DejaVuSans-50"/>
      </g>
     </g>
    </g>
    <g id="xtick_4">
     <g id="line2d_4">
      <g>
       <use style="stroke:#000000;stroke-width:0.8;" x="258.99108" xlink:href="#m93a1778bb9" y="289.432"/>
      </g>
     </g>
     <g id="text_4">
      <!-- 3 -->
      <defs>
       <path d="M 40.578125 39.3125 
Q 47.65625 37.796875 51.625 33 
Q 55.609375 28.21875 55.609375 21.1875 
Q 55.609375 10.40625 48.1875 4.484375 
Q 40.765625 -1.421875 27.09375 -1.421875 
Q 22.515625 -1.421875 17.65625 -0.515625 
Q 12.796875 0.390625 7.625 2.203125 
L 7.625 11.71875 
Q 11.71875 9.328125 16.59375 8.109375 
Q 21.484375 6.890625 26.8125 6.890625 
Q 36.078125 6.890625 40.9375 10.546875 
Q 45.796875 14.203125 45.796875 21.1875 
Q 45.796875 27.640625 41.28125 31.265625 
Q 36.765625 34.90625 28.71875 34.90625 
L 20.21875 34.90625 
L 20.21875 43.015625 
L 29.109375 43.015625 
Q 36.375 43.015625 40.234375 45.921875 
Q 44.09375 48.828125 44.09375 54.296875 
Q 44.09375 59.90625 40.109375 62.90625 
Q 36.140625 65.921875 28.71875 65.921875 
Q 24.65625 65.921875 20.015625 65.03125 
Q 15.375 64.15625 9.8125 62.3125 
L 9.8125 71.09375 
Q 15.4375 72.65625 20.34375 73.4375 
Q 25.25 74.21875 29.59375 74.21875 
Q 40.828125 74.21875 47.359375 69.109375 
Q 53.90625 64.015625 53.90625 55.328125 
Q 53.90625 49.265625 50.4375 45.09375 
Q 46.96875 40.921875 40.578125 39.3125 
z
" id="DejaVuSans-51"/>
      </defs>
      <g transform="translate(255.80983 304.030437)scale(0.1 -0.1)">
       <use xlink:href="#DejaVuSans-51"/>
      </g>
     </g>
    </g>
    <g id="xtick_5">
     <g id="line2d_5">
      <g>
       <use style="stroke:#000000;stroke-width:0.8;" x="323.921989" xlink:href="#m93a1778bb9" y="289.432"/>
      </g>
     </g>
     <g id="text_5">
      <!-- 4 -->
      <defs>
       <path d="M 37.796875 64.3125 
L 12.890625 25.390625 
L 37.796875 25.390625 
z
M 35.203125 72.90625 
L 47.609375 72.90625 
L 47.609375 25.390625 
L 58.015625 25.390625 
L 58.015625 17.1875 
L 47.609375 17.1875 
L 47.609375 0 
L 37.796875 0 
L 37.796875 17.1875 
L 4.890625 17.1875 
L 4.890625 26.703125 
z
" id="DejaVuSans-52"/>
      </defs>
      <g transform="translate(320.740739 304.030437)scale(0.1 -0.1)">
       <use xlink:href="#DejaVuSans-52"/>
      </g>
     </g>
    </g>
    <g id="xtick_6">
     <g id="line2d_6">
      <g>
       <use style="stroke:#000000;stroke-width:0.8;" x="388.852898" xlink:href="#m93a1778bb9" y="289.432"/>
      </g>
     </g>
     <g id="text_6">
      <!-- 5 -->
      <defs>
       <path d="M 10.796875 72.90625 
L 49.515625 72.90625 
L 49.515625 64.59375 
L 19.828125 64.59375 
L 19.828125 46.734375 
Q 21.96875 47.46875 24.109375 47.828125 
Q 26.265625 48.1875 28.421875 48.1875 
Q 40.625 48.1875 47.75 41.5 
Q 54.890625 34.8125 54.890625 23.390625 
Q 54.890625 11.625 47.5625 5.09375 
Q 40.234375 -1.421875 26.90625 -1.421875 
Q 22.3125 -1.421875 17.546875 -0.640625 
Q 12.796875 0.140625 7.71875 1.703125 
L 7.71875 11.625 
Q 12.109375 9.234375 16.796875 8.0625 
Q 21.484375 6.890625 26.703125 6.890625 
Q 35.15625 6.890625 40.078125 11.328125 
Q 45.015625 15.765625 45.015625 23.390625 
Q 45.015625 31 40.078125 35.4375 
Q 35.15625 39.890625 26.703125 39.890625 
Q 22.75 39.890625 18.8125 39.015625 
Q 14.890625 38.140625 10.796875 36.28125 
z
" id="DejaVuSans-53"/>
      </defs>
      <g transform="translate(385.671648 304.030437)scale(0.1 -0.1)">
       <use xlink:href="#DejaVuSans-53"/>
      </g>
     </g>
    </g>
    <g id="text_7">
     <!-- $K_\mathrm{S}$ -->
     <defs>
      <path d="M 16.890625 72.90625 
L 26.8125 72.90625 
L 20.796875 42.1875 
L 59.078125 72.90625 
L 72.21875 72.90625 
L 28.90625 38.09375 
L 60.59375 0 
L 48.578125 0 
L 19.484375 35.5 
L 12.59375 0 
L 2.6875 0 
z
" id="DejaVuSans-Oblique-75"/>
      <path d="M 53.515625 70.515625 
L 53.515625 60.890625 
Q 47.90625 63.578125 42.921875 64.890625 
Q 37.9375 66.21875 33.296875 66.21875 
Q 25.25 66.21875 20.875 63.09375 
Q 16.5 59.96875 16.5 54.203125 
Q 16.5 49.359375 19.40625 46.890625 
Q 22.3125 44.4375 30.421875 42.921875 
L 36.375 41.703125 
Q 47.40625 39.59375 52.65625 34.296875 
Q 57.90625 29 57.90625 20.125 
Q 57.90625 9.515625 50.796875 4.046875 
Q 43.703125 -1.421875 29.984375 -1.421875 
Q 24.8125 -1.421875 18.96875 -0.25 
Q 13.140625 0.921875 6.890625 3.21875 
L 6.890625 13.375 
Q 12.890625 10.015625 18.65625 8.296875 
Q 24.421875 6.59375 29.984375 6.59375 
Q 38.421875 6.59375 43.015625 9.90625 
Q 47.609375 13.234375 47.609375 19.390625 
Q 47.609375 24.75 44.3125 27.78125 
Q 41.015625 30.8125 33.5 32.328125 
L 27.484375 33.5 
Q 16.453125 35.6875 11.515625 40.375 
Q 6.59375 45.0625 6.59375 53.421875 
Q 6.59375 63.09375 13.40625 68.65625 
Q 20.21875 74.21875 32.171875 74.21875 
Q 37.3125 74.21875 42.625 73.28125 
Q 47.953125 72.359375 53.515625 70.515625 
z
" id="DejaVuSans-83"/>
     </defs>
     <g transform="translate(220.875625 317.708562)scale(0.1 -0.1)">
      <use transform="translate(0 0.09375)" xlink:href="#DejaVuSans-Oblique-75"/>
      <use transform="translate(65.576172 -16.3125)scale(0.7)" xlink:href="#DejaVuSans-83"/>
     </g>
    </g>
   </g>
   <g id="matplotlib.axis_2">
    <g id="ytick_1">
     <g id="line2d_7">
      <defs>
       <path d="M 0 0 
L -3.5 0 
" id="mf775a84205" style="stroke:#000000;stroke-width:0.8;"/>
      </defs>
      <g>
       <use style="stroke:#000000;stroke-width:0.8;" x="46.965625" xlink:href="#mf775a84205" y="288.432"/>
      </g>
     </g>
     <g id="text_8">
      <!-- 0 -->
      <g transform="translate(33.603125 292.231219)scale(0.1 -0.1)">
       <use xlink:href="#DejaVuSans-48"/>
      </g>
     </g>
    </g>
    <g id="ytick_2">
     <g id="line2d_8">
      <g>
       <use style="stroke:#000000;stroke-width:0.8;" x="46.965625" xlink:href="#mf775a84205" y="245.765333"/>
      </g>
     </g>
     <g id="text_9">
      <!-- 100 -->
      <g transform="translate(20.878125 249.564552)scale(0.1 -0.1)">
       <use xlink:href="#DejaVuSans-49"/>
       <use x="63.623047" xlink:href="#DejaVuSans-48"/>
       <use x="127.246094" xlink:href="#DejaVuSans-48"/>
      </g>
     </g>
    </g>
    <g id="ytick_3">
     <g id="line2d_9">
      <g>
       <use style="stroke:#000000;stroke-width:0.8;" x="46.965625" xlink:href="#mf775a84205" y="203.098667"/>
      </g>
     </g>
     <g id="text_10">
      <!-- 200 -->
      <g transform="translate(20.878125 206.897885)scale(0.1 -0.1)">
       <use xlink:href="#DejaVuSans-50"/>
       <use x="63.623047" xlink:href="#DejaVuSans-48"/>
       <use x="127.246094" xlink:href="#DejaVuSans-48"/>
      </g>
     </g>
    </g>
    <g id="ytick_4">
     <g id="line2d_10">
      <g>
       <use style="stroke:#000000;stroke-width:0.8;" x="46.965625" xlink:href="#mf775a84205" y="160.432"/>
      </g>
     </g>
     <g id="text_11">
      <!-- 300 -->
      <g transform="translate(20.878125 164.231219)scale(0.1 -0.1)">
       <use xlink:href="#DejaVuSans-51"/>
       <use x="63.623047" xlink:href="#DejaVuSans-48"/>
       <use x="127.246094" xlink:href="#DejaVuSans-48"/>
      </g>
     </g>
    </g>
    <g id="ytick_5">
     <g id="line2d_11">
      <g>
       <use style="stroke:#000000;stroke-width:0.8;" x="46.965625" xlink:href="#mf775a84205" y="117.765333"/>
      </g>
     </g>
     <g id="text_12">
      <!-- 400 -->
      <g transform="translate(20.878125 121.564552)scale(0.1 -0.1)">
       <use xlink:href="#DejaVuSans-52"/>
       <use x="63.623047" xlink:href="#DejaVuSans-48"/>
       <use x="127.246094" xlink:href="#DejaVuSans-48"/>
      </g>
     </g>
    </g>
    <g id="ytick_6">
     <g id="line2d_12">
      <g>
       <use style="stroke:#000000;stroke-width:0.8;" x="46.965625" xlink:href="#mf775a84205" y="75.098667"/>
      </g>
     </g>
     <g id="text_13">
      <!-- 500 -->
      <g transform="translate(20.878125 78.897885)scale(0.1 -0.1)">
       <use xlink:href="#DejaVuSans-53"/>
       <use x="63.623047" xlink:href="#DejaVuSans-48"/>
       <use x="127.246094" xlink:href="#DejaVuSans-48"/>
      </g>
     </g>
    </g>
    <g id="ytick_7">
     <g id="line2d_13">
      <g>
       <use style="stroke:#000000;stroke-width:0.8;" x="46.965625" xlink:href="#mf775a84205" y="32.432"/>
      </g>
     </g>
     <g id="text_14">
      <!-- 600 -->
      <defs>
       <path d="M 33.015625 40.375 
Q 26.375 40.375 22.484375 35.828125 
Q 18.609375 31.296875 18.609375 23.390625 
Q 18.609375 15.53125 22.484375 10.953125 
Q 26.375 6.390625 33.015625 6.390625 
Q 39.65625 6.390625 43.53125 10.953125 
Q 47.40625 15.53125 47.40625 23.390625 
Q 47.40625 31.296875 43.53125 35.828125 
Q 39.65625 40.375 33.015625 40.375 
z
M 52.59375 71.296875 
L 52.59375 62.3125 
Q 48.875 64.0625 45.09375 64.984375 
Q 41.3125 65.921875 37.59375 65.921875 
Q 27.828125 65.921875 22.671875 59.328125 
Q 17.53125 52.734375 16.796875 39.40625 
Q 19.671875 43.65625 24.015625 45.921875 
Q 28.375 48.1875 33.59375 48.1875 
Q 44.578125 48.1875 50.953125 41.515625 
Q 57.328125 34.859375 57.328125 23.390625 
Q 57.328125 12.15625 50.6875 5.359375 
Q 44.046875 -1.421875 33.015625 -1.421875 
Q 20.359375 -1.421875 13.671875 8.265625 
Q 6.984375 17.96875 6.984375 36.375 
Q 6.984375 53.65625 15.1875 63.9375 
Q 23.390625 74.21875 37.203125 74.21875 
Q 40.921875 74.21875 44.703125 73.484375 
Q 48.484375 72.75 52.59375 71.296875 
z
" id="DejaVuSans-54"/>
      </defs>
      <g transform="translate(20.878125 36.231219)scale(0.1 -0.1)">
       <use xlink:href="#DejaVuSans-54"/>
       <use x="63.623047" xlink:href="#DejaVuSans-48"/>
       <use x="127.246094" xlink:href="#DejaVuSans-48"/>
      </g>
     </g>
    </g>
    <g id="text_15">
     <!-- Homologous pairs -->
     <defs>
      <path d="M 9.8125 72.90625 
L 19.671875 72.90625 
L 19.671875 43.015625 
L 55.515625 43.015625 
L 55.515625 72.90625 
L 65.375 72.90625 
L 65.375 0 
L 55.515625 0 
L 55.515625 34.71875 
L 19.671875 34.71875 
L 19.671875 0 
L 9.8125 0 
z
" id="DejaVuSans-72"/>
      <path d="M 30.609375 48.390625 
Q 23.390625 48.390625 19.1875 42.75 
Q 14.984375 37.109375 14.984375 27.296875 
Q 14.984375 17.484375 19.15625 11.84375 
Q 23.34375 6.203125 30.609375 6.203125 
Q 37.796875 6.203125 41.984375 11.859375 
Q 46.1875 17.53125 46.1875 27.296875 
Q 46.1875 37.015625 41.984375 42.703125 
Q 37.796875 48.390625 30.609375 48.390625 
z
M 30.609375 56 
Q 42.328125 56 49.015625 48.375 
Q 55.71875 40.765625 55.71875 27.296875 
Q 55.71875 13.875 49.015625 6.21875 
Q 42.328125 -1.421875 30.609375 -1.421875 
Q 18.84375 -1.421875 12.171875 6.21875 
Q 5.515625 13.875 5.515625 27.296875 
Q 5.515625 40.765625 12.171875 48.375 
Q 18.84375 56 30.609375 56 
z
" id="DejaVuSans-111"/>
      <path d="M 52 44.1875 
Q 55.375 50.25 60.0625 53.125 
Q 64.75 56 71.09375 56 
Q 79.640625 56 84.28125 50.015625 
Q 88.921875 44.046875 88.921875 33.015625 
L 88.921875 0 
L 79.890625 0 
L 79.890625 32.71875 
Q 79.890625 40.578125 77.09375 44.375 
Q 74.3125 48.1875 68.609375 48.1875 
Q 61.625 48.1875 57.5625 43.546875 
Q 53.515625 38.921875 53.515625 30.90625 
L 53.515625 0 
L 44.484375 0 
L 44.484375 32.71875 
Q 44.484375 40.625 41.703125 44.40625 
Q 38.921875 48.1875 33.109375 48.1875 
Q 26.21875 48.1875 22.15625 43.53125 
Q 18.109375 38.875 18.109375 30.90625 
L 18.109375 0 
L 9.078125 0 
L 9.078125 54.6875 
L 18.109375 54.6875 
L 18.109375 46.1875 
Q 21.1875 51.21875 25.484375 53.609375 
Q 29.78125 56 35.6875 56 
Q 41.65625 56 45.828125 52.96875 
Q 50 49.953125 52 44.1875 
z
" id="DejaVuSans-109"/>
      <path d="M 9.421875 75.984375 
L 18.40625 75.984375 
L 18.40625 0 
L 9.421875 0 
z
" id="DejaVuSans-108"/>
      <path d="M 45.40625 27.984375 
Q 45.40625 37.75 41.375 43.109375 
Q 37.359375 48.484375 30.078125 48.484375 
Q 22.859375 48.484375 18.828125 43.109375 
Q 14.796875 37.75 14.796875 27.984375 
Q 14.796875 18.265625 18.828125 12.890625 
Q 22.859375 7.515625 30.078125 7.515625 
Q 37.359375 7.515625 41.375 12.890625 
Q 45.40625 18.265625 45.40625 27.984375 
z
M 54.390625 6.78125 
Q 54.390625 -7.171875 48.1875 -13.984375 
Q 42 -20.796875 29.203125 -20.796875 
Q 24.46875 -20.796875 20.265625 -20.09375 
Q 16.0625 -19.390625 12.109375 -17.921875 
L 12.109375 -9.1875 
Q 16.0625 -11.328125 19.921875 -12.34375 
Q 23.78125 -13.375 27.78125 -13.375 
Q 36.625 -13.375 41.015625 -8.765625 
Q 45.40625 -4.15625 45.40625 5.171875 
L 45.40625 9.625 
Q 42.625 4.78125 38.28125 2.390625 
Q 33.9375 0 27.875 0 
Q 17.828125 0 11.671875 7.65625 
Q 5.515625 15.328125 5.515625 27.984375 
Q 5.515625 40.671875 11.671875 48.328125 
Q 17.828125 56 27.875 56 
Q 33.9375 56 38.28125 53.609375 
Q 42.625 51.21875 45.40625 46.390625 
L 45.40625 54.6875 
L 54.390625 54.6875 
z
" id="DejaVuSans-103"/>
      <path d="M 8.5 21.578125 
L 8.5 54.6875 
L 17.484375 54.6875 
L 17.484375 21.921875 
Q 17.484375 14.15625 20.5 10.265625 
Q 23.53125 6.390625 29.59375 6.390625 
Q 36.859375 6.390625 41.078125 11.03125 
Q 45.3125 15.671875 45.3125 23.6875 
L 45.3125 54.6875 
L 54.296875 54.6875 
L 54.296875 0 
L 45.3125 0 
L 45.3125 8.40625 
Q 42.046875 3.421875 37.71875 1 
Q 33.40625 -1.421875 27.6875 -1.421875 
Q 18.265625 -1.421875 13.375 4.4375 
Q 8.5 10.296875 8.5 21.578125 
z
M 31.109375 56 
z
" id="DejaVuSans-117"/>
      <path d="M 44.28125 53.078125 
L 44.28125 44.578125 
Q 40.484375 46.53125 36.375 47.5 
Q 32.28125 48.484375 27.875 48.484375 
Q 21.1875 48.484375 17.84375 46.4375 
Q 14.5 44.390625 14.5 40.28125 
Q 14.5 37.15625 16.890625 35.375 
Q 19.28125 33.59375 26.515625 31.984375 
L 29.59375 31.296875 
Q 39.15625 29.25 43.1875 25.515625 
Q 47.21875 21.78125 47.21875 15.09375 
Q 47.21875 7.46875 41.1875 3.015625 
Q 35.15625 -1.421875 24.609375 -1.421875 
Q 20.21875 -1.421875 15.453125 -0.5625 
Q 10.6875 0.296875 5.421875 2 
L 5.421875 11.28125 
Q 10.40625 8.6875 15.234375 7.390625 
Q 20.0625 6.109375 24.8125 6.109375 
Q 31.15625 6.109375 34.5625 8.28125 
Q 37.984375 10.453125 37.984375 14.40625 
Q 37.984375 18.0625 35.515625 20.015625 
Q 33.0625 21.96875 24.703125 23.78125 
L 21.578125 24.515625 
Q 13.234375 26.265625 9.515625 29.90625 
Q 5.8125 33.546875 5.8125 39.890625 
Q 5.8125 47.609375 11.28125 51.796875 
Q 16.75 56 26.8125 56 
Q 31.78125 56 36.171875 55.265625 
Q 40.578125 54.546875 44.28125 53.078125 
z
" id="DejaVuSans-115"/>
      <path id="DejaVuSans-32"/>
      <path d="M 18.109375 8.203125 
L 18.109375 -20.796875 
L 9.078125 -20.796875 
L 9.078125 54.6875 
L 18.109375 54.6875 
L 18.109375 46.390625 
Q 20.953125 51.265625 25.265625 53.625 
Q 29.59375 56 35.59375 56 
Q 45.5625 56 51.78125 48.09375 
Q 58.015625 40.1875 58.015625 27.296875 
Q 58.015625 14.40625 51.78125 6.484375 
Q 45.5625 -1.421875 35.59375 -1.421875 
Q 29.59375 -1.421875 25.265625 0.953125 
Q 20.953125 3.328125 18.109375 8.203125 
z
M 48.6875 27.296875 
Q 48.6875 37.203125 44.609375 42.84375 
Q 40.53125 48.484375 33.40625 48.484375 
Q 26.265625 48.484375 22.1875 42.84375 
Q 18.109375 37.203125 18.109375 27.296875 
Q 18.109375 17.390625 22.1875 11.75 
Q 26.265625 6.109375 33.40625 6.109375 
Q 40.53125 6.109375 44.609375 11.75 
Q 48.6875 17.390625 48.6875 27.296875 
z
" id="DejaVuSans-112"/>
      <path d="M 34.28125 27.484375 
Q 23.390625 27.484375 19.1875 25 
Q 14.984375 22.515625 14.984375 16.5 
Q 14.984375 11.71875 18.140625 8.90625 
Q 21.296875 6.109375 26.703125 6.109375 
Q 34.1875 6.109375 38.703125 11.40625 
Q 43.21875 16.703125 43.21875 25.484375 
L 43.21875 27.484375 
z
M 52.203125 31.203125 
L 52.203125 0 
L 43.21875 0 
L 43.21875 8.296875 
Q 40.140625 3.328125 35.546875 0.953125 
Q 30.953125 -1.421875 24.3125 -1.421875 
Q 15.921875 -1.421875 10.953125 3.296875 
Q 6 8.015625 6 15.921875 
Q 6 25.140625 12.171875 29.828125 
Q 18.359375 34.515625 30.609375 34.515625 
L 43.21875 34.515625 
L 43.21875 35.40625 
Q 43.21875 41.609375 39.140625 45 
Q 35.0625 48.390625 27.6875 48.390625 
Q 23 48.390625 18.546875 47.265625 
Q 14.109375 46.140625 10.015625 43.890625 
L 10.015625 52.203125 
Q 14.9375 54.109375 19.578125 55.046875 
Q 24.21875 56 28.609375 56 
Q 40.484375 56 46.34375 49.84375 
Q 52.203125 43.703125 52.203125 31.203125 
z
" id="DejaVuSans-97"/>
      <path d="M 9.421875 54.6875 
L 18.40625 54.6875 
L 18.40625 0 
L 9.421875 0 
z
M 9.421875 75.984375 
L 18.40625 75.984375 
L 18.40625 64.59375 
L 9.421875 64.59375 
z
" id="DejaVuSans-105"/>
      <path d="M 41.109375 46.296875 
Q 39.59375 47.171875 37.8125 47.578125 
Q 36.03125 48 33.890625 48 
Q 26.265625 48 22.1875 43.046875 
Q 18.109375 38.09375 18.109375 28.8125 
L 18.109375 0 
L 9.078125 0 
L 9.078125 54.6875 
L 18.109375 54.6875 
L 18.109375 46.1875 
Q 20.953125 51.171875 25.484375 53.578125 
Q 30.03125 56 36.53125 56 
Q 37.453125 56 38.578125 55.875 
Q 39.703125 55.765625 41.0625 55.515625 
z
" id="DejaVuSans-114"/>
     </defs>
     <g transform="translate(14.798438 200.45725)rotate(-90)scale(0.1 -0.1)">
      <use xlink:href="#DejaVuSans-72"/>
      <use x="75.195312" xlink:href="#DejaVuSans-111"/>
      <use x="136.376953" xlink:href="#DejaVuSans-109"/>
      <use x="233.789062" xlink:href="#DejaVuSans-111"/>
      <use x="294.970703" xlink:href="#DejaVuSans-108"/>
      <use x="322.753906" xlink:href="#DejaVuSans-111"/>
      <use x="383.935547" xlink:href="#DejaVuSans-103"/>
      <use x="447.412109" xlink:href="#DejaVuSans-111"/>
      <use x="508.59375" xlink:href="#DejaVuSans-117"/>
      <use x="571.972656" xlink:href="#DejaVuSans-115"/>
      <use x="624.072266" xlink:href="#DejaVuSans-32"/>
      <use x="655.859375" xlink:href="#DejaVuSans-112"/>
      <use x="719.335938" xlink:href="#DejaVuSans-97"/>
      <use x="780.615234" xlink:href="#DejaVuSans-105"/>
      <use x="808.398438" xlink:href="#DejaVuSans-114"/>
      <use x="849.511719" xlink:href="#DejaVuSans-115"/>
     </g>
    </g>
   </g>
   <g id="line2d_14">
    <path clip-path="url(#pa029d128da)" d="M 64.198352 288.326736 
L 79.070505 287.959486 
L 87.448268 288.069494 
L 98.423786 288.403975 
L 103.81413 288.300629 
L 107.256157 288.0242 
L 109.918856 287.59121 
L 112.062005 287.023942 
L 113.880434 286.312945 
L 115.439088 285.46434 
L 116.867853 284.427158 
L 118.166731 283.213738 
L 119.465609 281.689942 
L 120.764487 279.801933 
L 121.998421 277.616914 
L 123.232355 274.989406 
L 124.466289 271.845414 
L 125.700224 268.094504 
L 126.934158 263.631693 
L 128.168092 258.345182 
L 129.46697 251.774722 
L 130.830791 243.662836 
L 132.259557 233.773471 
L 133.818211 221.391073 
L 135.63664 205.059805 
L 137.909676 182.485368 
L 146.222495 97.854347 
L 148.170812 81.189049 
L 149.729466 69.614956 
L 151.093288 61.054569 
L 152.262278 55.010186 
L 153.366324 50.432097 
L 154.340483 47.280046 
L 155.249697 45.037328 
L 156.093968 43.50204 
L 156.873295 42.502206 
L 157.652621 41.859513 
L 158.367004 41.554433 
L 159.081387 41.502385 
L 159.79577 41.695465 
L 160.510153 42.136168 
L 161.224536 42.836476 
L 162.003862 43.919401 
L 162.848133 45.50301 
L 163.757348 47.729567 
L 164.731506 50.756169 
L 165.770609 54.733092 
L 167.004543 60.41241 
L 168.498252 68.446132 
L 170.901176 82.827292 
L 173.563876 98.34909 
L 175.317362 107.249634 
L 176.940959 114.378625 
L 178.759388 121.354739 
L 181.876695 132.23115 
L 185.578497 145.454092 
L 196.164353 184.039529 
L 197.917838 189.251083 
L 199.476492 193.219744 
L 200.970201 196.428325 
L 202.528855 199.240462 
L 204.28234 201.938506 
L 207.074928 205.769259 
L 212.919878 213.405763 
L 215.712466 216.639689 
L 222.661463 224.452927 
L 226.558097 229.469967 
L 230.065067 233.825774 
L 235.650243 240.616705 
L 240.975642 247.501053 
L 242.469352 248.940326 
L 243.898118 250.004183 
L 245.586659 250.968609 
L 249.418349 253.061342 
L 251.756329 254.709295 
L 254.224197 256.391268 
L 255.652963 257.106043 
L 257.016785 257.53723 
L 258.445551 257.743644 
L 260.458812 257.774521 
L 262.796792 257.853053 
L 264.160614 258.119176 
L 265.459492 258.602508 
L 266.75837 259.327923 
L 268.252079 260.431282 
L 270.395228 262.330635 
L 273.187816 264.755775 
L 274.746469 265.801835 
L 276.110291 266.450119 
L 277.409169 266.828749 
L 278.837935 267.008264 
L 280.59142 266.986557 
L 285.5921 266.778715 
L 287.345585 267.016054 
L 289.228958 267.500624 
L 292.865817 268.742877 
L 295.073909 269.345377 
L 296.957282 269.623141 
L 298.970543 269.686108 
L 302.672345 269.516226 
L 305.91954 269.479781 
L 308.58224 269.671757 
L 310.855276 270.054641 
L 313.063369 270.656303 
L 315.855957 271.671126 
L 319.947422 273.147089 
L 322.41529 273.77673 
L 325.662485 274.345992 
L 332.156875 275.245421 
L 334.754631 275.350331 
L 338.91104 275.235841 
L 342.223179 275.260022 
L 345.015767 275.504795 
L 347.613523 275.955666 
L 350.341166 276.661426 
L 356.121173 278.241386 
L 358.134434 278.496493 
L 360.342527 278.540932 
L 366.317365 278.510814 
L 368.980065 278.847807 
L 376.188838 280.097838 
L 378.916481 280.797466 
L 381.838957 281.790113 
L 385.216039 283.174822 
L 388.852898 284.917951 
L 388.852898 284.917951 
" style="fill:none;stroke:#440154;stroke-dasharray:5.55,2.4;stroke-dashoffset:0;stroke-opacity:0.4;stroke-width:1.5;"/>
   </g>
   <g id="line2d_15">
    <path clip-path="url(#pa029d128da)" d="M 158.886555 288.432 
L 158.886555 22.32 
" style="fill:none;stroke:#440154;stroke-dasharray:1,1.65;stroke-dashoffset:0;stroke-opacity:0.8;"/>
   </g>
   <g id="line2d_16">
    <path clip-path="url(#pa029d128da)" d="M 64.198352 288.369677 
L 70.82263 288.121334 
L 77.901515 287.888964 
L 83.811409 287.956377 
L 103.034803 288.345956 
L 114.464929 288.042587 
L 117.062685 287.744599 
L 119.075946 287.294949 
L 120.894375 286.661673 
L 122.582916 285.842574 
L 124.271458 284.773533 
L 125.959999 283.430142 
L 127.583597 281.852752 
L 129.207194 279.959126 
L 130.765848 277.798664 
L 132.324501 275.249264 
L 133.883155 272.254191 
L 135.441808 268.759673 
L 137.000462 264.720068 
L 138.624059 259.893311 
L 140.312601 254.169264 
L 142.066086 247.438616 
L 143.949459 239.317559 
L 146.092607 229.046327 
L 148.820251 214.799752 
L 160.055546 154.9087 
L 162.393526 143.927164 
L 164.211955 136.40847 
L 165.770609 130.887603 
L 167.13443 126.829545 
L 168.433308 123.638874 
L 169.667242 121.184397 
L 170.836233 119.332494 
L 172.005223 117.89618 
L 173.109269 116.888263 
L 174.148371 116.2305 
L 175.12253 115.862223 
L 176.096688 115.731032 
L 177.070847 115.833498 
L 178.045005 116.162051 
L 179.084108 116.74538 
L 180.253098 117.656243 
L 181.681864 119.070111 
L 183.370405 121.072047 
L 185.12389 123.493885 
L 186.682544 126.024585 
L 188.046366 128.657497 
L 189.410187 131.793925 
L 190.838953 135.681501 
L 192.462551 140.794418 
L 194.995363 149.648741 
L 197.593118 158.482725 
L 199.216716 163.25956 
L 200.710426 166.980353 
L 202.139191 169.953078 
L 203.632901 172.555431 
L 205.45133 175.252064 
L 212.789991 185.6237 
L 215.063027 189.516284 
L 217.465951 194.083029 
L 220.583258 200.529458 
L 225.129331 209.920015 
L 227.27248 213.818959 
L 229.285741 217.024026 
L 231.428889 220.009337 
L 234.416309 223.74575 
L 238.247999 228.206981 
L 240.391147 230.390475 
L 242.144632 231.875268 
L 243.898118 233.070689 
L 246.171154 234.322423 
L 249.678125 236.250886 
L 251.821273 237.724349 
L 254.354085 239.757092 
L 259.419709 244.182199 
L 269.031406 252.636508 
L 270.849835 253.78948 
L 272.603321 254.639145 
L 274.356806 255.235699 
L 276.175235 255.617892 
L 278.318384 255.830966 
L 285.851876 256.344117 
L 288.384688 256.930837 
L 293.515256 258.176146 
L 300.269421 259.524746 
L 302.607401 260.380209 
L 306.828755 261.974045 
L 308.517296 262.339354 
L 310.140894 262.468026 
L 312.08921 262.386246 
L 315.855957 262.17105 
L 317.284722 262.356153 
L 318.5836 262.752685 
L 319.882478 263.388364 
L 321.311244 264.346905 
L 323.129673 265.857816 
L 327.480914 269.582461 
L 329.039568 270.570736 
L 330.533277 271.257196 
L 332.026987 271.700472 
L 333.715528 271.965559 
L 336.053509 272.08465 
L 340.794413 272.288817 
L 343.91172 272.703732 
L 348.133074 273.259478 
L 350.211278 273.291374 
L 352.159595 273.100114 
L 354.497576 272.633546 
L 359.108593 271.657347 
L 361.251741 271.481592 
L 363.654665 271.524673 
L 367.811075 271.871335 
L 375.344567 272.697707 
L 378.461874 273.227786 
L 380.280303 273.756346 
L 381.774013 274.418259 
L 383.202779 275.301587 
L 384.631544 276.449336 
L 386.320086 278.111034 
L 388.852898 280.957366 
L 388.852898 280.957366 
" style="fill:none;stroke:#21918c;stroke-dasharray:5.55,2.4;stroke-dashoffset:0;stroke-opacity:0.4;stroke-width:1.5;"/>
   </g>
   <g id="line2d_17">
    <path clip-path="url(#pa029d128da)" d="M 176.161632 288.432 
L 176.161632 22.32 
" style="fill:none;stroke:#21918c;stroke-dasharray:1,1.65;stroke-dashoffset:0;stroke-opacity:0.8;"/>
   </g>
   <g id="line2d_18">
    <path clip-path="url(#pa029d128da)" d="M 64.198352 288.398681 
L 70.108247 288.203832 
L 77.771627 287.91922 
L 82.642419 288.031508 
L 95.241535 288.410933 
L 101.930757 288.34204 
L 105.632559 288.093845 
L 109.334361 287.608234 
L 114.464929 286.699557 
L 116.673022 286.105714 
L 118.361563 285.422574 
L 119.855273 284.575177 
L 121.284039 283.502283 
L 122.64786 282.203878 
L 124.011682 280.601542 
L 125.375504 278.645623 
L 126.674382 276.387726 
L 127.97326 273.658282 
L 129.207194 270.535682 
L 130.441128 266.801597 
L 131.675062 262.366369 
L 132.97394 256.858056 
L 134.337762 250.084946 
L 135.831472 241.479063 
L 137.455069 230.768669 
L 139.338442 216.786257 
L 141.741366 197.131342 
L 145.702944 162.549229 
L 152.002502 107.729758 
L 154.145651 91.051717 
L 155.834192 79.585299 
L 157.262958 71.374038 
L 158.496892 65.531637 
L 159.600938 61.350762 
L 160.575097 58.508146 
L 161.419367 56.693172 
L 162.13375 55.626253 
L 162.783189 55.024092 
L 163.367684 54.774933 
L 163.887236 54.779414 
L 164.471731 55.028802 
L 165.12117 55.593444 
L 165.835552 56.538185 
L 166.679823 58.04501 
L 167.718925 60.38707 
L 169.082747 64.07009 
L 171.096008 70.230532 
L 175.12253 83.395728 
L 177.78523 92.794014 
L 180.447929 103.076959 
L 186.552656 126.980121 
L 195.255138 158.826134 
L 197.528175 166.39299 
L 199.606379 172.53982 
L 201.814472 178.371917 
L 204.542116 184.930713 
L 207.659423 191.847236 
L 214.738308 207.272191 
L 217.530895 213.298295 
L 219.154493 216.300666 
L 220.583258 218.506683 
L 222.012024 220.314029 
L 223.635622 222.004172 
L 228.701246 227.010193 
L 230.844394 229.642795 
L 238.507774 239.365186 
L 242.404408 244.259951 
L 250.132732 254.255427 
L 251.951161 256.095036 
L 253.574758 257.436577 
L 255.068468 258.391346 
L 256.43229 259.008568 
L 257.731168 259.35455 
L 258.965102 259.456764 
L 260.26398 259.331906 
L 261.692746 258.955931 
L 263.835894 258.116472 
L 265.914099 257.37375 
L 267.212977 257.146982 
L 268.317023 257.169599 
L 269.42107 257.408124 
L 270.655004 257.912381 
L 272.213657 258.818283 
L 277.279281 261.974516 
L 279.032766 262.694568 
L 281.110971 263.295284 
L 288.059968 265.091272 
L 290.852556 266.196517 
L 298.775711 269.471011 
L 303.126953 270.979633 
L 305.140213 271.4517 
L 306.893699 271.632676 
L 308.712128 271.586033 
L 311.699547 271.231504 
L 314.362247 271.014053 
L 316.960003 271.043678 
L 325.792373 271.520198 
L 327.351026 271.957208 
L 328.974624 272.656831 
L 330.987885 273.793543 
L 334.689687 275.920807 
L 336.183397 276.497822 
L 337.547218 276.789822 
L 338.846096 276.845735 
L 340.274862 276.676188 
L 341.963403 276.238476 
L 347.158915 274.721886 
L 348.782513 274.583432 
L 350.471054 274.668457 
L 352.614203 275.020865 
L 358.978705 276.216355 
L 361.771292 276.421459 
L 366.512197 276.72752 
L 368.39557 277.114796 
L 370.473775 277.784485 
L 375.994006 279.719034 
L 378.007267 280.085551 
L 383.462554 280.913147 
L 385.021208 281.502325 
L 386.644805 282.368135 
L 388.787954 283.794133 
L 388.852898 283.839914 
L 388.852898 283.839914 
" style="fill:none;stroke:#fde725;stroke-dasharray:5.55,2.4;stroke-dashoffset:0;stroke-opacity:0.4;stroke-width:1.5;"/>
   </g>
   <g id="line2d_19">
    <path clip-path="url(#pa029d128da)" d="M 163.62746 288.432 
L 163.62746 22.32 
" style="fill:none;stroke:#fde725;stroke-dasharray:1,1.65;stroke-dashoffset:0;stroke-opacity:0.8;"/>
   </g>
   <g id="patch_153">
    <path d="M 46.965625 288.432 
L 46.965625 22.32 
" style="fill:none;stroke:#000000;stroke-linecap:square;stroke-linejoin:miter;stroke-width:0.8;"/>
   </g>
   <g id="patch_154">
    <path d="M 47.965625 289.432 
L 405.085625 289.432 
" style="fill:none;stroke:#000000;stroke-linecap:square;stroke-linejoin:miter;stroke-width:0.8;"/>
   </g>
   <g id="text_16">
    <!-- Orthologous $K_\mathrm{S}$ distribution -->
    <defs>
     <path d="M 39.40625 66.21875 
Q 28.65625 66.21875 22.328125 58.203125 
Q 16.015625 50.203125 16.015625 36.375 
Q 16.015625 22.609375 22.328125 14.59375 
Q 28.65625 6.59375 39.40625 6.59375 
Q 50.140625 6.59375 56.421875 14.59375 
Q 62.703125 22.609375 62.703125 36.375 
Q 62.703125 50.203125 56.421875 58.203125 
Q 50.140625 66.21875 39.40625 66.21875 
z
M 39.40625 74.21875 
Q 54.734375 74.21875 63.90625 63.9375 
Q 73.09375 53.65625 73.09375 36.375 
Q 73.09375 19.140625 63.90625 8.859375 
Q 54.734375 -1.421875 39.40625 -1.421875 
Q 24.03125 -1.421875 14.8125 8.828125 
Q 5.609375 19.09375 5.609375 36.375 
Q 5.609375 53.65625 14.8125 63.9375 
Q 24.03125 74.21875 39.40625 74.21875 
z
" id="DejaVuSans-79"/>
     <path d="M 18.3125 70.21875 
L 18.3125 54.6875 
L 36.8125 54.6875 
L 36.8125 47.703125 
L 18.3125 47.703125 
L 18.3125 18.015625 
Q 18.3125 11.328125 20.140625 9.421875 
Q 21.96875 7.515625 27.59375 7.515625 
L 36.8125 7.515625 
L 36.8125 0 
L 27.59375 0 
Q 17.1875 0 13.234375 3.875 
Q 9.28125 7.765625 9.28125 18.015625 
L 9.28125 47.703125 
L 2.6875 47.703125 
L 2.6875 54.6875 
L 9.28125 54.6875 
L 9.28125 70.21875 
z
" id="DejaVuSans-116"/>
     <path d="M 54.890625 33.015625 
L 54.890625 0 
L 45.90625 0 
L 45.90625 32.71875 
Q 45.90625 40.484375 42.875 44.328125 
Q 39.84375 48.1875 33.796875 48.1875 
Q 26.515625 48.1875 22.3125 43.546875 
Q 18.109375 38.921875 18.109375 30.90625 
L 18.109375 0 
L 9.078125 0 
L 9.078125 75.984375 
L 18.109375 75.984375 
L 18.109375 46.1875 
Q 21.34375 51.125 25.703125 53.5625 
Q 30.078125 56 35.796875 56 
Q 45.21875 56 50.046875 50.171875 
Q 54.890625 44.34375 54.890625 33.015625 
z
" id="DejaVuSans-104"/>
     <path d="M 45.40625 46.390625 
L 45.40625 75.984375 
L 54.390625 75.984375 
L 54.390625 0 
L 45.40625 0 
L 45.40625 8.203125 
Q 42.578125 3.328125 38.25 0.953125 
Q 33.9375 -1.421875 27.875 -1.421875 
Q 17.96875 -1.421875 11.734375 6.484375 
Q 5.515625 14.40625 5.515625 27.296875 
Q 5.515625 40.1875 11.734375 48.09375 
Q 17.96875 56 27.875 56 
Q 33.9375 56 38.25 53.625 
Q 42.578125 51.265625 45.40625 46.390625 
z
M 14.796875 27.296875 
Q 14.796875 17.390625 18.875 11.75 
Q 22.953125 6.109375 30.078125 6.109375 
Q 37.203125 6.109375 41.296875 11.75 
Q 45.40625 17.390625 45.40625 27.296875 
Q 45.40625 37.203125 41.296875 42.84375 
Q 37.203125 48.484375 30.078125 48.484375 
Q 22.953125 48.484375 18.875 42.84375 
Q 14.796875 37.203125 14.796875 27.296875 
z
" id="DejaVuSans-100"/>
     <path d="M 48.6875 27.296875 
Q 48.6875 37.203125 44.609375 42.84375 
Q 40.53125 48.484375 33.40625 48.484375 
Q 26.265625 48.484375 22.1875 42.84375 
Q 18.109375 37.203125 18.109375 27.296875 
Q 18.109375 17.390625 22.1875 11.75 
Q 26.265625 6.109375 33.40625 6.109375 
Q 40.53125 6.109375 44.609375 11.75 
Q 48.6875 17.390625 48.6875 27.296875 
z
M 18.109375 46.390625 
Q 20.953125 51.265625 25.265625 53.625 
Q 29.59375 56 35.59375 56 
Q 45.5625 56 51.78125 48.09375 
Q 58.015625 40.1875 58.015625 27.296875 
Q 58.015625 14.40625 51.78125 6.484375 
Q 45.5625 -1.421875 35.59375 -1.421875 
Q 29.59375 -1.421875 25.265625 0.953125 
Q 20.953125 3.328125 18.109375 8.203125 
L 18.109375 0 
L 9.078125 0 
L 9.078125 75.984375 
L 18.109375 75.984375 
z
" id="DejaVuSans-98"/>
     <path d="M 54.890625 33.015625 
L 54.890625 0 
L 45.90625 0 
L 45.90625 32.71875 
Q 45.90625 40.484375 42.875 44.328125 
Q 39.84375 48.1875 33.796875 48.1875 
Q 26.515625 48.1875 22.3125 43.546875 
Q 18.109375 38.921875 18.109375 30.90625 
L 18.109375 0 
L 9.078125 0 
L 9.078125 54.6875 
L 18.109375 54.6875 
L 18.109375 46.1875 
Q 21.34375 51.125 25.703125 53.5625 
Q 30.078125 56 35.796875 56 
Q 45.21875 56 50.046875 50.171875 
Q 54.890625 44.34375 54.890625 33.015625 
z
" id="DejaVuSans-110"/>
    </defs>
    <g transform="translate(144.985625 16.32)scale(0.12 -0.12)">
     <use transform="translate(0 0.015625)" xlink:href="#DejaVuSans-79"/>
     <use transform="translate(78.710938 0.015625)" xlink:href="#DejaVuSans-114"/>
     <use transform="translate(119.824219 0.015625)" xlink:href="#DejaVuSans-116"/>
     <use transform="translate(159.033203 0.015625)" xlink:href="#DejaVuSans-104"/>
     <use transform="translate(222.412109 0.015625)" xlink:href="#DejaVuSans-111"/>
     <use transform="translate(283.59375 0.015625)" xlink:href="#DejaVuSans-108"/>
     <use transform="translate(311.376953 0.015625)" xlink:href="#DejaVuSans-111"/>
     <use transform="translate(372.558594 0.015625)" xlink:href="#DejaVuSans-103"/>
     <use transform="translate(436.035156 0.015625)" xlink:href="#DejaVuSans-111"/>
     <use transform="translate(497.216797 0.015625)" xlink:href="#DejaVuSans-117"/>
     <use transform="translate(560.595703 0.015625)" xlink:href="#DejaVuSans-115"/>
     <use transform="translate(612.695312 0.015625)" xlink:href="#DejaVuSans-32"/>
     <use transform="translate(644.482422 0.015625)" xlink:href="#DejaVuSans-Oblique-75"/>
     <use transform="translate(710.058594 -16.390625)scale(0.7)" xlink:href="#DejaVuSans-83"/>
     <use transform="translate(757.226562 0.015625)" xlink:href="#DejaVuSans-32"/>
     <use transform="translate(789.013672 0.015625)" xlink:href="#DejaVuSans-100"/>
     <use transform="translate(852.490234 0.015625)" xlink:href="#DejaVuSans-105"/>
     <use transform="translate(880.273438 0.015625)" xlink:href="#DejaVuSans-115"/>
     <use transform="translate(932.373047 0.015625)" xlink:href="#DejaVuSans-116"/>
     <use transform="translate(971.582031 0.015625)" xlink:href="#DejaVuSans-114"/>
     <use transform="translate(1012.695312 0.015625)" xlink:href="#DejaVuSans-105"/>
     <use transform="translate(1040.478516 0.015625)" xlink:href="#DejaVuSans-98"/>
     <use transform="translate(1103.955078 0.015625)" xlink:href="#DejaVuSans-117"/>
     <use transform="translate(1167.333984 0.015625)" xlink:href="#DejaVuSans-116"/>
     <use transform="translate(1206.542969 0.015625)" xlink:href="#DejaVuSans-105"/>
     <use transform="translate(1234.326172 0.015625)" xlink:href="#DejaVuSans-111"/>
     <use transform="translate(1295.507812 0.015625)" xlink:href="#DejaVuSans-110"/>
    </g>
   </g>
   <g id="legend_1">
    <g id="line2d_20">
     <path d="M 414.085625 117.105687 
L 434.085625 117.105687 
" style="fill:none;stroke:#440154;stroke-dasharray:1,1.65;stroke-dashoffset:0;stroke-opacity:0.8;"/>
    </g>
    <g id="line2d_21"/>
    <g id="text_17">
     <!-- Original mode 1.46 of Acorus_americanus__Protea_cynaroides -->
     <defs>
      <path d="M 56.203125 29.59375 
L 56.203125 25.203125 
L 14.890625 25.203125 
Q 15.484375 15.921875 20.484375 11.0625 
Q 25.484375 6.203125 34.421875 6.203125 
Q 39.59375 6.203125 44.453125 7.46875 
Q 49.3125 8.734375 54.109375 11.28125 
L 54.109375 2.78125 
Q 49.265625 0.734375 44.1875 -0.34375 
Q 39.109375 -1.421875 33.890625 -1.421875 
Q 20.796875 -1.421875 13.15625 6.1875 
Q 5.515625 13.8125 5.515625 26.8125 
Q 5.515625 40.234375 12.765625 48.109375 
Q 20.015625 56 32.328125 56 
Q 43.359375 56 49.78125 48.890625 
Q 56.203125 41.796875 56.203125 29.59375 
z
M 47.21875 32.234375 
Q 47.125 39.59375 43.09375 43.984375 
Q 39.0625 48.390625 32.421875 48.390625 
Q 24.90625 48.390625 20.390625 44.140625 
Q 15.875 39.890625 15.1875 32.171875 
z
" id="DejaVuSans-101"/>
      <path d="M 10.6875 12.40625 
L 21 12.40625 
L 21 0 
L 10.6875 0 
z
" id="DejaVuSans-46"/>
      <path d="M 37.109375 75.984375 
L 37.109375 68.5 
L 28.515625 68.5 
Q 23.6875 68.5 21.796875 66.546875 
Q 19.921875 64.59375 19.921875 59.515625 
L 19.921875 54.6875 
L 34.71875 54.6875 
L 34.71875 47.703125 
L 19.921875 47.703125 
L 19.921875 0 
L 10.890625 0 
L 10.890625 47.703125 
L 2.296875 47.703125 
L 2.296875 54.6875 
L 10.890625 54.6875 
L 10.890625 58.5 
Q 10.890625 67.625 15.140625 71.796875 
Q 19.390625 75.984375 28.609375 75.984375 
z
" id="DejaVuSans-102"/>
      <path d="M 34.1875 63.1875 
L 20.796875 26.90625 
L 47.609375 26.90625 
z
M 28.609375 72.90625 
L 39.796875 72.90625 
L 67.578125 0 
L 57.328125 0 
L 50.6875 18.703125 
L 17.828125 18.703125 
L 11.1875 0 
L 0.78125 0 
z
" id="DejaVuSans-65"/>
      <path d="M 48.78125 52.59375 
L 48.78125 44.1875 
Q 44.96875 46.296875 41.140625 47.34375 
Q 37.3125 48.390625 33.40625 48.390625 
Q 24.65625 48.390625 19.8125 42.84375 
Q 14.984375 37.3125 14.984375 27.296875 
Q 14.984375 17.28125 19.8125 11.734375 
Q 24.65625 6.203125 33.40625 6.203125 
Q 37.3125 6.203125 41.140625 7.25 
Q 44.96875 8.296875 48.78125 10.40625 
L 48.78125 2.09375 
Q 45.015625 0.34375 40.984375 -0.53125 
Q 36.96875 -1.421875 32.421875 -1.421875 
Q 20.0625 -1.421875 12.78125 6.34375 
Q 5.515625 14.109375 5.515625 27.296875 
Q 5.515625 40.671875 12.859375 48.328125 
Q 20.21875 56 33.015625 56 
Q 37.15625 56 41.109375 55.140625 
Q 45.0625 54.296875 48.78125 52.59375 
z
" id="DejaVuSans-99"/>
      <path d="M 50.984375 -16.609375 
L 50.984375 -23.578125 
L -0.984375 -23.578125 
L -0.984375 -16.609375 
z
" id="DejaVuSans-95"/>
      <path d="M 19.671875 64.796875 
L 19.671875 37.40625 
L 32.078125 37.40625 
Q 38.96875 37.40625 42.71875 40.96875 
Q 46.484375 44.53125 46.484375 51.125 
Q 46.484375 57.671875 42.71875 61.234375 
Q 38.96875 64.796875 32.078125 64.796875 
z
M 9.8125 72.90625 
L 32.078125 72.90625 
Q 44.34375 72.90625 50.609375 67.359375 
Q 56.890625 61.8125 56.890625 51.125 
Q 56.890625 40.328125 50.609375 34.8125 
Q 44.34375 29.296875 32.078125 29.296875 
L 19.671875 29.296875 
L 19.671875 0 
L 9.8125 0 
z
" id="DejaVuSans-80"/>
      <path d="M 32.171875 -5.078125 
Q 28.375 -14.84375 24.75 -17.8125 
Q 21.140625 -20.796875 15.09375 -20.796875 
L 7.90625 -20.796875 
L 7.90625 -13.28125 
L 13.1875 -13.28125 
Q 16.890625 -13.28125 18.9375 -11.515625 
Q 21 -9.765625 23.484375 -3.21875 
L 25.09375 0.875 
L 2.984375 54.6875 
L 12.5 54.6875 
L 29.59375 11.921875 
L 46.6875 54.6875 
L 56.203125 54.6875 
z
" id="DejaVuSans-121"/>
     </defs>
     <g transform="translate(442.085625 120.605687)scale(0.1 -0.1)">
      <use xlink:href="#DejaVuSans-79"/>
      <use x="78.710938" xlink:href="#DejaVuSans-114"/>
      <use x="119.824219" xlink:href="#DejaVuSans-105"/>
      <use x="147.607422" xlink:href="#DejaVuSans-103"/>
      <use x="211.083984" xlink:href="#DejaVuSans-105"/>
      <use x="238.867188" xlink:href="#DejaVuSans-110"/>
      <use x="302.246094" xlink:href="#DejaVuSans-97"/>
      <use x="363.525391" xlink:href="#DejaVuSans-108"/>
      <use x="391.308594" xlink:href="#DejaVuSans-32"/>
      <use x="423.095703" xlink:href="#DejaVuSans-109"/>
      <use x="520.507812" xlink:href="#DejaVuSans-111"/>
      <use x="581.689453" xlink:href="#DejaVuSans-100"/>
      <use x="645.166016" xlink:href="#DejaVuSans-101"/>
      <use x="706.689453" xlink:href="#DejaVuSans-32"/>
      <use x="738.476562" xlink:href="#DejaVuSans-49"/>
      <use x="802.099609" xlink:href="#DejaVuSans-46"/>
      <use x="833.886719" xlink:href="#DejaVuSans-52"/>
      <use x="897.509766" xlink:href="#DejaVuSans-54"/>
      <use x="961.132812" xlink:href="#DejaVuSans-32"/>
      <use x="992.919922" xlink:href="#DejaVuSans-111"/>
      <use x="1054.101562" xlink:href="#DejaVuSans-102"/>
      <use x="1089.306641" xlink:href="#DejaVuSans-32"/>
      <use x="1121.09375" xlink:href="#DejaVuSans-65"/>
      <use x="1187.751953" xlink:href="#DejaVuSans-99"/>
      <use x="1242.732422" xlink:href="#DejaVuSans-111"/>
      <use x="1303.914062" xlink:href="#DejaVuSans-114"/>
      <use x="1345.027344" xlink:href="#DejaVuSans-117"/>
      <use x="1408.40625" xlink:href="#DejaVuSans-115"/>
      <use x="1460.505859" xlink:href="#DejaVuSans-95"/>
      <use x="1510.505859" xlink:href="#DejaVuSans-97"/>
      <use x="1571.785156" xlink:href="#DejaVuSans-109"/>
      <use x="1669.197266" xlink:href="#DejaVuSans-101"/>
      <use x="1730.720703" xlink:href="#DejaVuSans-114"/>
      <use x="1771.833984" xlink:href="#DejaVuSans-105"/>
      <use x="1799.617188" xlink:href="#DejaVuSans-99"/>
      <use x="1854.597656" xlink:href="#DejaVuSans-97"/>
      <use x="1915.876953" xlink:href="#DejaVuSans-110"/>
      <use x="1979.255859" xlink:href="#DejaVuSans-117"/>
      <use x="2042.634766" xlink:href="#DejaVuSans-115"/>
      <use x="2094.734375" xlink:href="#DejaVuSans-95"/>
      <use x="2144.734375" xlink:href="#DejaVuSans-95"/>
      <use x="2194.734375" xlink:href="#DejaVuSans-80"/>
      <use x="2253.287109" xlink:href="#DejaVuSans-114"/>
      <use x="2292.150391" xlink:href="#DejaVuSans-111"/>
      <use x="2353.332031" xlink:href="#DejaVuSans-116"/>
      <use x="2392.541016" xlink:href="#DejaVuSans-101"/>
      <use x="2454.064453" xlink:href="#DejaVuSans-97"/>
      <use x="2515.34375" xlink:href="#DejaVuSans-95"/>
      <use x="2565.34375" xlink:href="#DejaVuSans-99"/>
      <use x="2620.324219" xlink:href="#DejaVuSans-121"/>
      <use x="2679.503906" xlink:href="#DejaVuSans-110"/>
      <use x="2742.882812" xlink:href="#DejaVuSans-97"/>
      <use x="2804.162109" xlink:href="#DejaVuSans-114"/>
      <use x="2843.025391" xlink:href="#DejaVuSans-111"/>
      <use x="2904.207031" xlink:href="#DejaVuSans-105"/>
      <use x="2931.990234" xlink:href="#DejaVuSans-100"/>
      <use x="2995.466797" xlink:href="#DejaVuSans-101"/>
      <use x="3056.990234" xlink:href="#DejaVuSans-115"/>
     </g>
    </g>
    <g id="line2d_22">
     <path d="M 414.085625 132.061937 
L 434.085625 132.061937 
" style="fill:none;stroke:#21918c;stroke-dasharray:1,1.65;stroke-dashoffset:0;stroke-opacity:0.8;"/>
    </g>
    <g id="line2d_23"/>
    <g id="text_18">
     <!-- Original mode 1.72 of Acorus_americanus__Aquilegia_coerulea -->
     <defs>
      <path d="M 8.203125 72.90625 
L 55.078125 72.90625 
L 55.078125 68.703125 
L 28.609375 0 
L 18.3125 0 
L 43.21875 64.59375 
L 8.203125 64.59375 
z
" id="DejaVuSans-55"/>
      <path d="M 14.796875 27.296875 
Q 14.796875 17.390625 18.875 11.75 
Q 22.953125 6.109375 30.078125 6.109375 
Q 37.203125 6.109375 41.296875 11.75 
Q 45.40625 17.390625 45.40625 27.296875 
Q 45.40625 37.203125 41.296875 42.84375 
Q 37.203125 48.484375 30.078125 48.484375 
Q 22.953125 48.484375 18.875 42.84375 
Q 14.796875 37.203125 14.796875 27.296875 
z
M 45.40625 8.203125 
Q 42.578125 3.328125 38.25 0.953125 
Q 33.9375 -1.421875 27.875 -1.421875 
Q 17.96875 -1.421875 11.734375 6.484375 
Q 5.515625 14.40625 5.515625 27.296875 
Q 5.515625 40.1875 11.734375 48.09375 
Q 17.96875 56 27.875 56 
Q 33.9375 56 38.25 53.625 
Q 42.578125 51.265625 45.40625 46.390625 
L 45.40625 54.6875 
L 54.390625 54.6875 
L 54.390625 -20.796875 
L 45.40625 -20.796875 
z
" id="DejaVuSans-113"/>
     </defs>
     <g transform="translate(442.085625 135.561937)scale(0.1 -0.1)">
      <use xlink:href="#DejaVuSans-79"/>
      <use x="78.710938" xlink:href="#DejaVuSans-114"/>
      <use x="119.824219" xlink:href="#DejaVuSans-105"/>
      <use x="147.607422" xlink:href="#DejaVuSans-103"/>
      <use x="211.083984" xlink:href="#DejaVuSans-105"/>
      <use x="238.867188" xlink:href="#DejaVuSans-110"/>
      <use x="302.246094" xlink:href="#DejaVuSans-97"/>
      <use x="363.525391" xlink:href="#DejaVuSans-108"/>
      <use x="391.308594" xlink:href="#DejaVuSans-32"/>
      <use x="423.095703" xlink:href="#DejaVuSans-109"/>
      <use x="520.507812" xlink:href="#DejaVuSans-111"/>
      <use x="581.689453" xlink:href="#DejaVuSans-100"/>
      <use x="645.166016" xlink:href="#DejaVuSans-101"/>
      <use x="706.689453" xlink:href="#DejaVuSans-32"/>
      <use x="738.476562" xlink:href="#DejaVuSans-49"/>
      <use x="802.099609" xlink:href="#DejaVuSans-46"/>
      <use x="833.886719" xlink:href="#DejaVuSans-55"/>
      <use x="897.509766" xlink:href="#DejaVuSans-50"/>
      <use x="961.132812" xlink:href="#DejaVuSans-32"/>
      <use x="992.919922" xlink:href="#DejaVuSans-111"/>
      <use x="1054.101562" xlink:href="#DejaVuSans-102"/>
      <use x="1089.306641" xlink:href="#DejaVuSans-32"/>
      <use x="1121.09375" xlink:href="#DejaVuSans-65"/>
      <use x="1187.751953" xlink:href="#DejaVuSans-99"/>
      <use x="1242.732422" xlink:href="#DejaVuSans-111"/>
      <use x="1303.914062" xlink:href="#DejaVuSans-114"/>
      <use x="1345.027344" xlink:href="#DejaVuSans-117"/>
      <use x="1408.40625" xlink:href="#DejaVuSans-115"/>
      <use x="1460.505859" xlink:href="#DejaVuSans-95"/>
      <use x="1510.505859" xlink:href="#DejaVuSans-97"/>
      <use x="1571.785156" xlink:href="#DejaVuSans-109"/>
      <use x="1669.197266" xlink:href="#DejaVuSans-101"/>
      <use x="1730.720703" xlink:href="#DejaVuSans-114"/>
      <use x="1771.833984" xlink:href="#DejaVuSans-105"/>
      <use x="1799.617188" xlink:href="#DejaVuSans-99"/>
      <use x="1854.597656" xlink:href="#DejaVuSans-97"/>
      <use x="1915.876953" xlink:href="#DejaVuSans-110"/>
      <use x="1979.255859" xlink:href="#DejaVuSans-117"/>
      <use x="2042.634766" xlink:href="#DejaVuSans-115"/>
      <use x="2094.734375" xlink:href="#DejaVuSans-95"/>
      <use x="2144.734375" xlink:href="#DejaVuSans-95"/>
      <use x="2194.734375" xlink:href="#DejaVuSans-65"/>
      <use x="2261.392578" xlink:href="#DejaVuSans-113"/>
      <use x="2324.869141" xlink:href="#DejaVuSans-117"/>
      <use x="2388.248047" xlink:href="#DejaVuSans-105"/>
      <use x="2416.03125" xlink:href="#DejaVuSans-108"/>
      <use x="2443.814453" xlink:href="#DejaVuSans-101"/>
      <use x="2505.337891" xlink:href="#DejaVuSans-103"/>
      <use x="2568.814453" xlink:href="#DejaVuSans-105"/>
      <use x="2596.597656" xlink:href="#DejaVuSans-97"/>
      <use x="2657.876953" xlink:href="#DejaVuSans-95"/>
      <use x="2707.876953" xlink:href="#DejaVuSans-99"/>
      <use x="2762.857422" xlink:href="#DejaVuSans-111"/>
      <use x="2824.039062" xlink:href="#DejaVuSans-101"/>
      <use x="2885.5625" xlink:href="#DejaVuSans-114"/>
      <use x="2926.675781" xlink:href="#DejaVuSans-117"/>
      <use x="2990.054688" xlink:href="#DejaVuSans-108"/>
      <use x="3017.837891" xlink:href="#DejaVuSans-101"/>
      <use x="3079.361328" xlink:href="#DejaVuSans-97"/>
     </g>
    </g>
    <g id="line2d_24">
     <path d="M 414.085625 147.018187 
L 434.085625 147.018187 
" style="fill:none;stroke:#fde725;stroke-dasharray:1,1.65;stroke-dashoffset:0;stroke-opacity:0.8;"/>
    </g>
    <g id="line2d_25"/>
    <g id="text_19">
     <!-- Original mode 1.53 of Acorus_americanus__Vitis_vinifera -->
     <defs>
      <path d="M 28.609375 0 
L 0.78125 72.90625 
L 11.078125 72.90625 
L 34.1875 11.53125 
L 57.328125 72.90625 
L 67.578125 72.90625 
L 39.796875 0 
z
" id="DejaVuSans-86"/>
      <path d="M 2.984375 54.6875 
L 12.5 54.6875 
L 29.59375 8.796875 
L 46.6875 54.6875 
L 56.203125 54.6875 
L 35.6875 0 
L 23.484375 0 
z
" id="DejaVuSans-118"/>
     </defs>
     <g transform="translate(442.085625 150.518187)scale(0.1 -0.1)">
      <use xlink:href="#DejaVuSans-79"/>
      <use x="78.710938" xlink:href="#DejaVuSans-114"/>
      <use x="119.824219" xlink:href="#DejaVuSans-105"/>
      <use x="147.607422" xlink:href="#DejaVuSans-103"/>
      <use x="211.083984" xlink:href="#DejaVuSans-105"/>
      <use x="238.867188" xlink:href="#DejaVuSans-110"/>
      <use x="302.246094" xlink:href="#DejaVuSans-97"/>
      <use x="363.525391" xlink:href="#DejaVuSans-108"/>
      <use x="391.308594" xlink:href="#DejaVuSans-32"/>
      <use x="423.095703" xlink:href="#DejaVuSans-109"/>
      <use x="520.507812" xlink:href="#DejaVuSans-111"/>
      <use x="581.689453" xlink:href="#DejaVuSans-100"/>
      <use x="645.166016" xlink:href="#DejaVuSans-101"/>
      <use x="706.689453" xlink:href="#DejaVuSans-32"/>
      <use x="738.476562" xlink:href="#DejaVuSans-49"/>
      <use x="802.099609" xlink:href="#DejaVuSans-46"/>
      <use x="833.886719" xlink:href="#DejaVuSans-53"/>
      <use x="897.509766" xlink:href="#DejaVuSans-51"/>
      <use x="961.132812" xlink:href="#DejaVuSans-32"/>
      <use x="992.919922" xlink:href="#DejaVuSans-111"/>
      <use x="1054.101562" xlink:href="#DejaVuSans-102"/>
      <use x="1089.306641" xlink:href="#DejaVuSans-32"/>
      <use x="1121.09375" xlink:href="#DejaVuSans-65"/>
      <use x="1187.751953" xlink:href="#DejaVuSans-99"/>
      <use x="1242.732422" xlink:href="#DejaVuSans-111"/>
      <use x="1303.914062" xlink:href="#DejaVuSans-114"/>
      <use x="1345.027344" xlink:href="#DejaVuSans-117"/>
      <use x="1408.40625" xlink:href="#DejaVuSans-115"/>
      <use x="1460.505859" xlink:href="#DejaVuSans-95"/>
      <use x="1510.505859" xlink:href="#DejaVuSans-97"/>
      <use x="1571.785156" xlink:href="#DejaVuSans-109"/>
      <use x="1669.197266" xlink:href="#DejaVuSans-101"/>
      <use x="1730.720703" xlink:href="#DejaVuSans-114"/>
      <use x="1771.833984" xlink:href="#DejaVuSans-105"/>
      <use x="1799.617188" xlink:href="#DejaVuSans-99"/>
      <use x="1854.597656" xlink:href="#DejaVuSans-97"/>
      <use x="1915.876953" xlink:href="#DejaVuSans-110"/>
      <use x="1979.255859" xlink:href="#DejaVuSans-117"/>
      <use x="2042.634766" xlink:href="#DejaVuSans-115"/>
      <use x="2094.734375" xlink:href="#DejaVuSans-95"/>
      <use x="2144.734375" xlink:href="#DejaVuSans-95"/>
      <use x="2194.734375" xlink:href="#DejaVuSans-86"/>
      <use x="2260.892578" xlink:href="#DejaVuSans-105"/>
      <use x="2288.675781" xlink:href="#DejaVuSans-116"/>
      <use x="2327.884766" xlink:href="#DejaVuSans-105"/>
      <use x="2355.667969" xlink:href="#DejaVuSans-115"/>
      <use x="2407.767578" xlink:href="#DejaVuSans-95"/>
      <use x="2457.767578" xlink:href="#DejaVuSans-118"/>
      <use x="2516.947266" xlink:href="#DejaVuSans-105"/>
      <use x="2544.730469" xlink:href="#DejaVuSans-110"/>
      <use x="2608.109375" xlink:href="#DejaVuSans-105"/>
      <use x="2635.892578" xlink:href="#DejaVuSans-102"/>
      <use x="2671.097656" xlink:href="#DejaVuSans-101"/>
      <use x="2732.621094" xlink:href="#DejaVuSans-114"/>
      <use x="2773.734375" xlink:href="#DejaVuSans-97"/>
     </g>
    </g>
    <g id="patch_155">
     <path d="M 414.085625 165.474437 
L 434.085625 165.474437 
L 434.085625 158.474437 
L 414.085625 158.474437 
z
" style="fill:#440154;opacity:0.5;"/>
    </g>
    <g id="text_20">
     <!-- Acorus_americanus__Protea_cynaroides -->
     <g transform="translate(442.085625 165.474437)scale(0.1 -0.1)">
      <use xlink:href="#DejaVuSans-65"/>
      <use x="66.658203" xlink:href="#DejaVuSans-99"/>
      <use x="121.638672" xlink:href="#DejaVuSans-111"/>
      <use x="182.820312" xlink:href="#DejaVuSans-114"/>
      <use x="223.933594" xlink:href="#DejaVuSans-117"/>
      <use x="287.3125" xlink:href="#DejaVuSans-115"/>
      <use x="339.412109" xlink:href="#DejaVuSans-95"/>
      <use x="389.412109" xlink:href="#DejaVuSans-97"/>
      <use x="450.691406" xlink:href="#DejaVuSans-109"/>
      <use x="548.103516" xlink:href="#DejaVuSans-101"/>
      <use x="609.626953" xlink:href="#DejaVuSans-114"/>
      <use x="650.740234" xlink:href="#DejaVuSans-105"/>
      <use x="678.523438" xlink:href="#DejaVuSans-99"/>
      <use x="733.503906" xlink:href="#DejaVuSans-97"/>
      <use x="794.783203" xlink:href="#DejaVuSans-110"/>
      <use x="858.162109" xlink:href="#DejaVuSans-117"/>
      <use x="921.541016" xlink:href="#DejaVuSans-115"/>
      <use x="973.640625" xlink:href="#DejaVuSans-95"/>
      <use x="1023.640625" xlink:href="#DejaVuSans-95"/>
      <use x="1073.640625" xlink:href="#DejaVuSans-80"/>
      <use x="1132.193359" xlink:href="#DejaVuSans-114"/>
      <use x="1171.056641" xlink:href="#DejaVuSans-111"/>
      <use x="1232.238281" xlink:href="#DejaVuSans-116"/>
      <use x="1271.447266" xlink:href="#DejaVuSans-101"/>
      <use x="1332.970703" xlink:href="#DejaVuSans-97"/>
      <use x="1394.25" xlink:href="#DejaVuSans-95"/>
      <use x="1444.25" xlink:href="#DejaVuSans-99"/>
      <use x="1499.230469" xlink:href="#DejaVuSans-121"/>
      <use x="1558.410156" xlink:href="#DejaVuSans-110"/>
      <use x="1621.789062" xlink:href="#DejaVuSans-97"/>
      <use x="1683.068359" xlink:href="#DejaVuSans-114"/>
      <use x="1721.931641" xlink:href="#DejaVuSans-111"/>
      <use x="1783.113281" xlink:href="#DejaVuSans-105"/>
      <use x="1810.896484" xlink:href="#DejaVuSans-100"/>
      <use x="1874.373047" xlink:href="#DejaVuSans-101"/>
      <use x="1935.896484" xlink:href="#DejaVuSans-115"/>
     </g>
    </g>
    <g id="patch_156">
     <path d="M 414.085625 180.430687 
L 434.085625 180.430687 
L 434.085625 173.430687 
L 414.085625 173.430687 
z
" style="fill:#21918c;opacity:0.5;"/>
    </g>
    <g id="text_21">
     <!-- Acorus_americanus__Aquilegia_coerulea -->
     <g transform="translate(442.085625 180.430687)scale(0.1 -0.1)">
      <use xlink:href="#DejaVuSans-65"/>
      <use x="66.658203" xlink:href="#DejaVuSans-99"/>
      <use x="121.638672" xlink:href="#DejaVuSans-111"/>
      <use x="182.820312" xlink:href="#DejaVuSans-114"/>
      <use x="223.933594" xlink:href="#DejaVuSans-117"/>
      <use x="287.3125" xlink:href="#DejaVuSans-115"/>
      <use x="339.412109" xlink:href="#DejaVuSans-95"/>
      <use x="389.412109" xlink:href="#DejaVuSans-97"/>
      <use x="450.691406" xlink:href="#DejaVuSans-109"/>
      <use x="548.103516" xlink:href="#DejaVuSans-101"/>
      <use x="609.626953" xlink:href="#DejaVuSans-114"/>
      <use x="650.740234" xlink:href="#DejaVuSans-105"/>
      <use x="678.523438" xlink:href="#DejaVuSans-99"/>
      <use x="733.503906" xlink:href="#DejaVuSans-97"/>
      <use x="794.783203" xlink:href="#DejaVuSans-110"/>
      <use x="858.162109" xlink:href="#DejaVuSans-117"/>
      <use x="921.541016" xlink:href="#DejaVuSans-115"/>
      <use x="973.640625" xlink:href="#DejaVuSans-95"/>
      <use x="1023.640625" xlink:href="#DejaVuSans-95"/>
      <use x="1073.640625" xlink:href="#DejaVuSans-65"/>
      <use x="1140.298828" xlink:href="#DejaVuSans-113"/>
      <use x="1203.775391" xlink:href="#DejaVuSans-117"/>
      <use x="1267.154297" xlink:href="#DejaVuSans-105"/>
      <use x="1294.9375" xlink:href="#DejaVuSans-108"/>
      <use x="1322.720703" xlink:href="#DejaVuSans-101"/>
      <use x="1384.244141" xlink:href="#DejaVuSans-103"/>
      <use x="1447.720703" xlink:href="#DejaVuSans-105"/>
      <use x="1475.503906" xlink:href="#DejaVuSans-97"/>
      <use x="1536.783203" xlink:href="#DejaVuSans-95"/>
      <use x="1586.783203" xlink:href="#DejaVuSans-99"/>
      <use x="1641.763672" xlink:href="#DejaVuSans-111"/>
      <use x="1702.945312" xlink:href="#DejaVuSans-101"/>
      <use x="1764.46875" xlink:href="#DejaVuSans-114"/>
      <use x="1805.582031" xlink:href="#DejaVuSans-117"/>
      <use x="1868.960938" xlink:href="#DejaVuSans-108"/>
      <use x="1896.744141" xlink:href="#DejaVuSans-101"/>
      <use x="1958.267578" xlink:href="#DejaVuSans-97"/>
     </g>
    </g>
    <g id="patch_157">
     <path d="M 414.085625 195.386937 
L 434.085625 195.386937 
L 434.085625 188.386937 
L 414.085625 188.386937 
z
" style="fill:#fde725;opacity:0.5;"/>
    </g>
    <g id="text_22">
     <!-- Acorus_americanus__Vitis_vinifera -->
     <g transform="translate(442.085625 195.386937)scale(0.1 -0.1)">
      <use xlink:href="#DejaVuSans-65"/>
      <use x="66.658203" xlink:href="#DejaVuSans-99"/>
      <use x="121.638672" xlink:href="#DejaVuSans-111"/>
      <use x="182.820312" xlink:href="#DejaVuSans-114"/>
      <use x="223.933594" xlink:href="#DejaVuSans-117"/>
      <use x="287.3125" xlink:href="#DejaVuSans-115"/>
      <use x="339.412109" xlink:href="#DejaVuSans-95"/>
      <use x="389.412109" xlink:href="#DejaVuSans-97"/>
      <use x="450.691406" xlink:href="#DejaVuSans-109"/>
      <use x="548.103516" xlink:href="#DejaVuSans-101"/>
      <use x="609.626953" xlink:href="#DejaVuSans-114"/>
      <use x="650.740234" xlink:href="#DejaVuSans-105"/>
      <use x="678.523438" xlink:href="#DejaVuSans-99"/>
      <use x="733.503906" xlink:href="#DejaVuSans-97"/>
      <use x="794.783203" xlink:href="#DejaVuSans-110"/>
      <use x="858.162109" xlink:href="#DejaVuSans-117"/>
      <use x="921.541016" xlink:href="#DejaVuSans-115"/>
      <use x="973.640625" xlink:href="#DejaVuSans-95"/>
      <use x="1023.640625" xlink:href="#DejaVuSans-95"/>
      <use x="1073.640625" xlink:href="#DejaVuSans-86"/>
      <use x="1139.798828" xlink:href="#DejaVuSans-105"/>
      <use x="1167.582031" xlink:href="#DejaVuSans-116"/>
      <use x="1206.791016" xlink:href="#DejaVuSans-105"/>
      <use x="1234.574219" xlink:href="#DejaVuSans-115"/>
      <use x="1286.673828" xlink:href="#DejaVuSans-95"/>
      <use x="1336.673828" xlink:href="#DejaVuSans-118"/>
      <use x="1395.853516" xlink:href="#DejaVuSans-105"/>
      <use x="1423.636719" xlink:href="#DejaVuSans-110"/>
      <use x="1487.015625" xlink:href="#DejaVuSans-105"/>
      <use x="1514.798828" xlink:href="#DejaVuSans-102"/>
      <use x="1550.003906" xlink:href="#DejaVuSans-101"/>
      <use x="1611.527344" xlink:href="#DejaVuSans-114"/>
      <use x="1652.640625" xlink:href="#DejaVuSans-97"/>
     </g>
    </g>
   </g>
  </g>
 </g>
 <defs>
  <clipPath id="pa029d128da">
   <rect height="266.112" width="357.12" x="47.965625" y="22.32"/>
  </clipPath>
 </defs>
</svg>
