<?xml version="1.0" encoding="utf-8" standalone="no"?>
<!DOCTYPE svg PUBLIC "-//W3C//DTD SVG 1.1//EN"
  "http://www.w3.org/Graphics/SVG/1.1/DTD/svg11.dtd">
<!-- Created with matplotlib (https://matplotlib.org/) -->
<svg height="326.98825pt" version="1.1" viewBox="0 0 767.35125 326.98825" width="767.35125pt" xmlns="http://www.w3.org/2000/svg" xmlns:xlink="http://www.w3.org/1999/xlink">
 <defs>
  <style type="text/css">
*{stroke-linecap:butt;stroke-linejoin:round;}
  </style>
 </defs>
 <g id="figure_1">
  <g id="patch_1">
   <path d="M 0 326.98825 
L 767.35125 326.98825 
L 767.35125 0 
L 0 0 
z
" style="fill:#ffffff;"/>
  </g>
  <g id="axes_1">
   <g id="patch_2">
    <path d="M 47.965625 288.432 
L 405.085625 288.432 
L 405.085625 22.32 
L 47.965625 22.32 
z
" style="fill:#ffffff;"/>
   </g>
   <g id="patch_3">
    <path clip-path="url(#p073b2927c1)" d="M 64.198352 288.432 
L 69.413686 288.432 
L 69.413686 236.067441 
L 64.198352 236.067441 
z
" style="fill:#440154;opacity:0.5;"/>
   </g>
   <g id="patch_4">
    <path clip-path="url(#p073b2927c1)" d="M 70.71752 288.432 
L 75.932854 288.432 
L 75.932854 269.120021 
L 70.71752 269.120021 
z
" style="fill:#440154;opacity:0.5;"/>
   </g>
   <g id="patch_5">
    <path clip-path="url(#p073b2927c1)" d="M 77.236687 288.432 
L 82.452021 288.432 
L 82.452021 267.046142 
L 77.236687 267.046142 
z
" style="fill:#440154;opacity:0.5;"/>
   </g>
   <g id="patch_6">
    <path clip-path="url(#p073b2927c1)" d="M 83.755855 288.432 
L 88.971189 288.432 
L 88.971189 272.87815 
L 83.755855 272.87815 
z
" style="fill:#440154;opacity:0.5;"/>
   </g>
   <g id="patch_7">
    <path clip-path="url(#p073b2927c1)" d="M 90.275023 288.432 
L 95.490357 288.432 
L 95.490357 263.992267 
L 90.275023 263.992267 
z
" style="fill:#440154;opacity:0.5;"/>
   </g>
   <g id="patch_8">
    <path clip-path="url(#p073b2927c1)" d="M 96.79419 288.432 
L 102.009524 288.432 
L 102.009524 257.663902 
L 96.79419 257.663902 
z
" style="fill:#440154;opacity:0.5;"/>
   </g>
   <g id="patch_9">
    <path clip-path="url(#p073b2927c1)" d="M 103.313358 288.432 
L 108.528692 288.432 
L 108.528692 240.403718 
L 103.313358 240.403718 
z
" style="fill:#440154;opacity:0.5;"/>
   </g>
   <g id="patch_10">
    <path clip-path="url(#p073b2927c1)" d="M 109.832525 288.432 
L 115.047859 288.432 
L 115.047859 207.446403 
L 109.832525 207.446403 
z
" style="fill:#440154;opacity:0.5;"/>
   </g>
   <g id="patch_11">
    <path clip-path="url(#p073b2927c1)" d="M 116.351693 288.432 
L 121.567027 288.432 
L 121.567027 159.207146 
L 116.351693 159.207146 
z
" style="fill:#440154;opacity:0.5;"/>
   </g>
   <g id="patch_12">
    <path clip-path="url(#p073b2927c1)" d="M 122.87086 288.432 
L 128.086195 288.432 
L 128.086195 104.555805 
L 122.87086 104.555805 
z
" style="fill:#440154;opacity:0.5;"/>
   </g>
   <g id="patch_13">
    <path clip-path="url(#p073b2927c1)" d="M 129.390028 288.432 
L 134.605362 288.432 
L 134.605362 34.992 
L 129.390028 34.992 
z
" style="fill:#440154;opacity:0.5;"/>
   </g>
   <g id="patch_14">
    <path clip-path="url(#p073b2927c1)" d="M 135.909196 288.432 
L 141.12453 288.432 
L 141.12453 52.648505 
L 135.909196 52.648505 
z
" style="fill:#440154;opacity:0.5;"/>
   </g>
   <g id="patch_15">
    <path clip-path="url(#p073b2927c1)" d="M 142.428363 288.432 
L 147.643697 288.432 
L 147.643697 75.163883 
L 142.428363 75.163883 
z
" style="fill:#440154;opacity:0.5;"/>
   </g>
   <g id="patch_16">
    <path clip-path="url(#p073b2927c1)" d="M 148.947531 288.432 
L 154.162865 288.432 
L 154.162865 93.966935 
L 148.947531 93.966935 
z
" style="fill:#440154;opacity:0.5;"/>
   </g>
   <g id="patch_17">
    <path clip-path="url(#p073b2927c1)" d="M 155.466698 288.432 
L 160.682032 288.432 
L 160.682032 130.414024 
L 155.466698 130.414024 
z
" style="fill:#440154;opacity:0.5;"/>
   </g>
   <g id="patch_18">
    <path clip-path="url(#p073b2927c1)" d="M 161.985866 288.432 
L 167.2012 288.432 
L 167.2012 143.592411 
L 161.985866 143.592411 
z
" style="fill:#440154;opacity:0.5;"/>
   </g>
   <g id="patch_19">
    <path clip-path="url(#p073b2927c1)" d="M 168.505034 288.432 
L 173.720368 288.432 
L 173.720368 172.055093 
L 168.505034 172.055093 
z
" style="fill:#440154;opacity:0.5;"/>
   </g>
   <g id="patch_20">
    <path clip-path="url(#p073b2927c1)" d="M 175.024201 288.432 
L 180.239535 288.432 
L 180.239535 190.234376 
L 175.024201 190.234376 
z
" style="fill:#440154;opacity:0.5;"/>
   </g>
   <g id="patch_21">
    <path clip-path="url(#p073b2927c1)" d="M 181.543369 288.432 
L 186.758703 288.432 
L 186.758703 198.406037 
L 181.543369 198.406037 
z
" style="fill:#440154;opacity:0.5;"/>
   </g>
   <g id="patch_22">
    <path clip-path="url(#p073b2927c1)" d="M 188.062536 288.432 
L 193.27787 288.432 
L 193.27787 204.880791 
L 188.062536 204.880791 
z
" style="fill:#440154;opacity:0.5;"/>
   </g>
   <g id="patch_23">
    <path clip-path="url(#p073b2927c1)" d="M 194.581704 288.432 
L 199.797038 288.432 
L 199.797038 205.662258 
L 194.581704 205.662258 
z
" style="fill:#440154;opacity:0.5;"/>
   </g>
   <g id="patch_24">
    <path clip-path="url(#p073b2927c1)" d="M 201.100871 288.432 
L 206.316206 288.432 
L 206.316206 216.24926 
L 201.100871 216.24926 
z
" style="fill:#440154;opacity:0.5;"/>
   </g>
   <g id="patch_25">
    <path clip-path="url(#p073b2927c1)" d="M 207.620039 288.432 
L 212.835373 288.432 
L 212.835373 217.607012 
L 207.620039 217.607012 
z
" style="fill:#440154;opacity:0.5;"/>
   </g>
   <g id="patch_26">
    <path clip-path="url(#p073b2927c1)" d="M 214.139207 288.432 
L 219.354541 288.432 
L 219.354541 227.625155 
L 214.139207 227.625155 
z
" style="fill:#440154;opacity:0.5;"/>
   </g>
   <g id="patch_27">
    <path clip-path="url(#p073b2927c1)" d="M 220.658374 288.432 
L 225.873708 288.432 
L 225.873708 238.162973 
L 220.658374 238.162973 
z
" style="fill:#440154;opacity:0.5;"/>
   </g>
   <g id="patch_28">
    <path clip-path="url(#p073b2927c1)" d="M 227.177542 288.432 
L 232.392876 288.432 
L 232.392876 236.501255 
L 227.177542 236.501255 
z
" style="fill:#440154;opacity:0.5;"/>
   </g>
   <g id="patch_29">
    <path clip-path="url(#p073b2927c1)" d="M 233.696709 288.432 
L 238.912043 288.432 
L 238.912043 247.558655 
L 233.696709 247.558655 
z
" style="fill:#440154;opacity:0.5;"/>
   </g>
   <g id="patch_30">
    <path clip-path="url(#p073b2927c1)" d="M 240.215877 288.432 
L 245.431211 288.432 
L 245.431211 238.897021 
L 240.215877 238.897021 
z
" style="fill:#440154;opacity:0.5;"/>
   </g>
   <g id="patch_31">
    <path clip-path="url(#p073b2927c1)" d="M 246.735044 288.432 
L 251.950379 288.432 
L 251.950379 246.205288 
L 246.735044 246.205288 
z
" style="fill:#440154;opacity:0.5;"/>
   </g>
   <g id="patch_32">
    <path clip-path="url(#p073b2927c1)" d="M 253.254212 288.432 
L 258.469546 288.432 
L 258.469546 251.731088 
L 253.254212 251.731088 
z
" style="fill:#440154;opacity:0.5;"/>
   </g>
   <g id="patch_33">
    <path clip-path="url(#p073b2927c1)" d="M 259.77338 288.432 
L 264.988714 288.432 
L 264.988714 251.535713 
L 259.77338 251.535713 
z
" style="fill:#440154;opacity:0.5;"/>
   </g>
   <g id="patch_34">
    <path clip-path="url(#p073b2927c1)" d="M 266.292547 288.432 
L 271.507881 288.432 
L 271.507881 249.486381 
L 266.292547 249.486381 
z
" style="fill:#440154;opacity:0.5;"/>
   </g>
   <g id="patch_35">
    <path clip-path="url(#p073b2927c1)" d="M 272.811715 288.432 
L 278.027049 288.432 
L 278.027049 249.983748 
L 272.811715 249.983748 
z
" style="fill:#440154;opacity:0.5;"/>
   </g>
   <g id="patch_36">
    <path clip-path="url(#p073b2927c1)" d="M 279.330882 288.432 
L 284.546216 288.432 
L 284.546216 254.309277 
L 279.330882 254.309277 
z
" style="fill:#440154;opacity:0.5;"/>
   </g>
   <g id="patch_37">
    <path clip-path="url(#p073b2927c1)" d="M 285.85005 288.432 
L 291.065384 288.432 
L 291.065384 256.785691 
L 285.85005 256.785691 
z
" style="fill:#440154;opacity:0.5;"/>
   </g>
   <g id="patch_38">
    <path clip-path="url(#p073b2927c1)" d="M 292.369218 288.432 
L 297.584552 288.432 
L 297.584552 252.568443 
L 292.369218 252.568443 
z
" style="fill:#440154;opacity:0.5;"/>
   </g>
   <g id="patch_39">
    <path clip-path="url(#p073b2927c1)" d="M 298.888385 288.432 
L 304.103719 288.432 
L 304.103719 255.456659 
L 298.888385 255.456659 
z
" style="fill:#440154;opacity:0.5;"/>
   </g>
   <g id="patch_40">
    <path clip-path="url(#p073b2927c1)" d="M 305.407553 288.432 
L 310.622887 288.432 
L 310.622887 258.731602 
L 305.407553 258.731602 
z
" style="fill:#440154;opacity:0.5;"/>
   </g>
   <g id="patch_41">
    <path clip-path="url(#p073b2927c1)" d="M 311.92672 288.432 
L 317.142054 288.432 
L 317.142054 260.24057 
L 311.92672 260.24057 
z
" style="fill:#440154;opacity:0.5;"/>
   </g>
   <g id="patch_42">
    <path clip-path="url(#p073b2927c1)" d="M 318.445888 288.432 
L 323.661222 288.432 
L 323.661222 259.592392 
L 318.445888 259.592392 
z
" style="fill:#440154;opacity:0.5;"/>
   </g>
   <g id="patch_43">
    <path clip-path="url(#p073b2927c1)" d="M 324.965055 288.432 
L 330.18039 288.432 
L 330.18039 267.051894 
L 324.965055 267.051894 
z
" style="fill:#440154;opacity:0.5;"/>
   </g>
   <g id="patch_44">
    <path clip-path="url(#p073b2927c1)" d="M 331.484223 288.432 
L 336.699557 288.432 
L 336.699557 262.47121 
L 331.484223 262.47121 
z
" style="fill:#440154;opacity:0.5;"/>
   </g>
   <g id="patch_45">
    <path clip-path="url(#p073b2927c1)" d="M 338.003391 288.432 
L 343.218725 288.432 
L 343.218725 263.730136 
L 338.003391 263.730136 
z
" style="fill:#440154;opacity:0.5;"/>
   </g>
   <g id="patch_46">
    <path clip-path="url(#p073b2927c1)" d="M 344.522558 288.432 
L 349.737892 288.432 
L 349.737892 265.0361 
L 344.522558 265.0361 
z
" style="fill:#440154;opacity:0.5;"/>
   </g>
   <g id="patch_47">
    <path clip-path="url(#p073b2927c1)" d="M 351.041726 288.432 
L 356.25706 288.432 
L 356.25706 265.654725 
L 351.041726 265.654725 
z
" style="fill:#440154;opacity:0.5;"/>
   </g>
   <g id="patch_48">
    <path clip-path="url(#p073b2927c1)" d="M 357.560893 288.432 
L 362.776227 288.432 
L 362.776227 265.434 
L 357.560893 265.434 
z
" style="fill:#440154;opacity:0.5;"/>
   </g>
   <g id="patch_49">
    <path clip-path="url(#p073b2927c1)" d="M 364.080061 288.432 
L 369.295395 288.432 
L 369.295395 265.819417 
L 364.080061 265.819417 
z
" style="fill:#440154;opacity:0.5;"/>
   </g>
   <g id="patch_50">
    <path clip-path="url(#p073b2927c1)" d="M 370.599229 288.432 
L 375.814563 288.432 
L 375.814563 257.523238 
L 370.599229 257.523238 
z
" style="fill:#440154;opacity:0.5;"/>
   </g>
   <g id="patch_51">
    <path clip-path="url(#p073b2927c1)" d="M 377.118396 288.432 
L 382.33373 288.432 
L 382.33373 265.465387 
L 377.118396 265.465387 
z
" style="fill:#440154;opacity:0.5;"/>
   </g>
   <g id="patch_52">
    <path clip-path="url(#p073b2927c1)" d="M 383.637564 288.432 
L 388.852898 288.432 
L 388.852898 265.300704 
L 383.637564 265.300704 
z
" style="fill:#440154;opacity:0.5;"/>
   </g>
   <g id="patch_53">
    <path clip-path="url(#p073b2927c1)" d="M 64.198352 288.432 
L 69.413686 288.432 
L 69.413686 230.15494 
L 64.198352 230.15494 
z
" style="fill:#21918c;opacity:0.5;"/>
   </g>
   <g id="patch_54">
    <path clip-path="url(#p073b2927c1)" d="M 70.71752 288.432 
L 75.932854 288.432 
L 75.932854 266.90904 
L 70.71752 266.90904 
z
" style="fill:#21918c;opacity:0.5;"/>
   </g>
   <g id="patch_55">
    <path clip-path="url(#p073b2927c1)" d="M 77.236687 288.432 
L 82.452021 288.432 
L 82.452021 262.137322 
L 77.236687 262.137322 
z
" style="fill:#21918c;opacity:0.5;"/>
   </g>
   <g id="patch_56">
    <path clip-path="url(#p073b2927c1)" d="M 83.755855 288.432 
L 88.971189 288.432 
L 88.971189 272.811332 
L 83.755855 272.811332 
z
" style="fill:#21918c;opacity:0.5;"/>
   </g>
   <g id="patch_57">
    <path clip-path="url(#p073b2927c1)" d="M 90.275023 288.432 
L 95.490357 288.432 
L 95.490357 267.929687 
L 90.275023 267.929687 
z
" style="fill:#21918c;opacity:0.5;"/>
   </g>
   <g id="patch_58">
    <path clip-path="url(#p073b2927c1)" d="M 96.79419 288.432 
L 102.009524 288.432 
L 102.009524 264.360031 
L 96.79419 264.360031 
z
" style="fill:#21918c;opacity:0.5;"/>
   </g>
   <g id="patch_59">
    <path clip-path="url(#p073b2927c1)" d="M 103.313358 288.432 
L 108.528692 288.432 
L 108.528692 254.706655 
L 103.313358 254.706655 
z
" style="fill:#21918c;opacity:0.5;"/>
   </g>
   <g id="patch_60">
    <path clip-path="url(#p073b2927c1)" d="M 109.832525 288.432 
L 115.047859 288.432 
L 115.047859 238.590276 
L 109.832525 238.590276 
z
" style="fill:#21918c;opacity:0.5;"/>
   </g>
   <g id="patch_61">
    <path clip-path="url(#p073b2927c1)" d="M 116.351693 288.432 
L 121.567027 288.432 
L 121.567027 215.677129 
L 116.351693 215.677129 
z
" style="fill:#21918c;opacity:0.5;"/>
   </g>
   <g id="patch_62">
    <path clip-path="url(#p073b2927c1)" d="M 122.87086 288.432 
L 128.086195 288.432 
L 128.086195 171.762 
L 122.87086 171.762 
z
" style="fill:#21918c;opacity:0.5;"/>
   </g>
   <g id="patch_63">
    <path clip-path="url(#p073b2927c1)" d="M 129.390028 288.432 
L 134.605362 288.432 
L 134.605362 132.188555 
L 129.390028 132.188555 
z
" style="fill:#21918c;opacity:0.5;"/>
   </g>
   <g id="patch_64">
    <path clip-path="url(#p073b2927c1)" d="M 135.909196 288.432 
L 141.12453 288.432 
L 141.12453 81.416793 
L 135.909196 81.416793 
z
" style="fill:#21918c;opacity:0.5;"/>
   </g>
   <g id="patch_65">
    <path clip-path="url(#p073b2927c1)" d="M 142.428363 288.432 
L 147.643697 288.432 
L 147.643697 71.768538 
L 142.428363 71.768538 
z
" style="fill:#21918c;opacity:0.5;"/>
   </g>
   <g id="patch_66">
    <path clip-path="url(#p073b2927c1)" d="M 148.947531 288.432 
L 154.162865 288.432 
L 154.162865 80.782424 
L 148.947531 80.782424 
z
" style="fill:#21918c;opacity:0.5;"/>
   </g>
   <g id="patch_67">
    <path clip-path="url(#p073b2927c1)" d="M 155.466698 288.432 
L 160.682032 288.432 
L 160.682032 87.269077 
L 155.466698 87.269077 
z
" style="fill:#21918c;opacity:0.5;"/>
   </g>
   <g id="patch_68">
    <path clip-path="url(#p073b2927c1)" d="M 161.985866 288.432 
L 167.2012 288.432 
L 167.2012 117.5857 
L 161.985866 117.5857 
z
" style="fill:#21918c;opacity:0.5;"/>
   </g>
   <g id="patch_69">
    <path clip-path="url(#p073b2927c1)" d="M 168.505034 288.432 
L 173.720368 288.432 
L 173.720368 137.348094 
L 168.505034 137.348094 
z
" style="fill:#21918c;opacity:0.5;"/>
   </g>
   <g id="patch_70">
    <path clip-path="url(#p073b2927c1)" d="M 175.024201 288.432 
L 180.239535 288.432 
L 180.239535 150.075311 
L 175.024201 150.075311 
z
" style="fill:#21918c;opacity:0.5;"/>
   </g>
   <g id="patch_71">
    <path clip-path="url(#p073b2927c1)" d="M 181.543369 288.432 
L 186.758703 288.432 
L 186.758703 175.97654 
L 181.543369 175.97654 
z
" style="fill:#21918c;opacity:0.5;"/>
   </g>
   <g id="patch_72">
    <path clip-path="url(#p073b2927c1)" d="M 188.062536 288.432 
L 193.27787 288.432 
L 193.27787 178.049514 
L 188.062536 178.049514 
z
" style="fill:#21918c;opacity:0.5;"/>
   </g>
   <g id="patch_73">
    <path clip-path="url(#p073b2927c1)" d="M 194.581704 288.432 
L 199.797038 288.432 
L 199.797038 180.862146 
L 194.581704 180.862146 
z
" style="fill:#21918c;opacity:0.5;"/>
   </g>
   <g id="patch_74">
    <path clip-path="url(#p073b2927c1)" d="M 201.100871 288.432 
L 206.316206 288.432 
L 206.316206 196.488342 
L 201.100871 196.488342 
z
" style="fill:#21918c;opacity:0.5;"/>
   </g>
   <g id="patch_75">
    <path clip-path="url(#p073b2927c1)" d="M 207.620039 288.432 
L 212.835373 288.432 
L 212.835373 208.467718 
L 207.620039 208.467718 
z
" style="fill:#21918c;opacity:0.5;"/>
   </g>
   <g id="patch_76">
    <path clip-path="url(#p073b2927c1)" d="M 214.139207 288.432 
L 219.354541 288.432 
L 219.354541 222.735525 
L 214.139207 222.735525 
z
" style="fill:#21918c;opacity:0.5;"/>
   </g>
   <g id="patch_77">
    <path clip-path="url(#p073b2927c1)" d="M 220.658374 288.432 
L 225.873708 288.432 
L 225.873708 219.870212 
L 220.658374 219.870212 
z
" style="fill:#21918c;opacity:0.5;"/>
   </g>
   <g id="patch_78">
    <path clip-path="url(#p073b2927c1)" d="M 227.177542 288.432 
L 232.392876 288.432 
L 232.392876 222.92006 
L 227.177542 222.92006 
z
" style="fill:#21918c;opacity:0.5;"/>
   </g>
   <g id="patch_79">
    <path clip-path="url(#p073b2927c1)" d="M 233.696709 288.432 
L 238.912043 288.432 
L 238.912043 231.313658 
L 233.696709 231.313658 
z
" style="fill:#21918c;opacity:0.5;"/>
   </g>
   <g id="patch_80">
    <path clip-path="url(#p073b2927c1)" d="M 240.215877 288.432 
L 245.431211 288.432 
L 245.431211 233.637651 
L 240.215877 233.637651 
z
" style="fill:#21918c;opacity:0.5;"/>
   </g>
   <g id="patch_81">
    <path clip-path="url(#p073b2927c1)" d="M 246.735044 288.432 
L 251.950379 288.432 
L 251.950379 239.451916 
L 246.735044 239.451916 
z
" style="fill:#21918c;opacity:0.5;"/>
   </g>
   <g id="patch_82">
    <path clip-path="url(#p073b2927c1)" d="M 253.254212 288.432 
L 258.469546 288.432 
L 258.469546 241.948821 
L 253.254212 241.948821 
z
" style="fill:#21918c;opacity:0.5;"/>
   </g>
   <g id="patch_83">
    <path clip-path="url(#p073b2927c1)" d="M 259.77338 288.432 
L 264.988714 288.432 
L 264.988714 243.998735 
L 259.77338 243.998735 
z
" style="fill:#21918c;opacity:0.5;"/>
   </g>
   <g id="patch_84">
    <path clip-path="url(#p073b2927c1)" d="M 266.292547 288.432 
L 271.507881 288.432 
L 271.507881 249.196181 
L 266.292547 249.196181 
z
" style="fill:#21918c;opacity:0.5;"/>
   </g>
   <g id="patch_85">
    <path clip-path="url(#p073b2927c1)" d="M 272.811715 288.432 
L 278.027049 288.432 
L 278.027049 251.351208 
L 272.811715 251.351208 
z
" style="fill:#21918c;opacity:0.5;"/>
   </g>
   <g id="patch_86">
    <path clip-path="url(#p073b2927c1)" d="M 279.330882 288.432 
L 284.546216 288.432 
L 284.546216 253.639046 
L 279.330882 253.639046 
z
" style="fill:#21918c;opacity:0.5;"/>
   </g>
   <g id="patch_87">
    <path clip-path="url(#p073b2927c1)" d="M 285.85005 288.432 
L 291.065384 288.432 
L 291.065384 250.317028 
L 285.85005 250.317028 
z
" style="fill:#21918c;opacity:0.5;"/>
   </g>
   <g id="patch_88">
    <path clip-path="url(#p073b2927c1)" d="M 292.369218 288.432 
L 297.584552 288.432 
L 297.584552 252.419857 
L 292.369218 252.419857 
z
" style="fill:#21918c;opacity:0.5;"/>
   </g>
   <g id="patch_89">
    <path clip-path="url(#p073b2927c1)" d="M 298.888385 288.432 
L 304.103719 288.432 
L 304.103719 253.322534 
L 298.888385 253.322534 
z
" style="fill:#21918c;opacity:0.5;"/>
   </g>
   <g id="patch_90">
    <path clip-path="url(#p073b2927c1)" d="M 305.407553 288.432 
L 310.622887 288.432 
L 310.622887 254.321999 
L 305.407553 254.321999 
z
" style="fill:#21918c;opacity:0.5;"/>
   </g>
   <g id="patch_91">
    <path clip-path="url(#p073b2927c1)" d="M 311.92672 288.432 
L 317.142054 288.432 
L 317.142054 256.162651 
L 311.92672 256.162651 
z
" style="fill:#21918c;opacity:0.5;"/>
   </g>
   <g id="patch_92">
    <path clip-path="url(#p073b2927c1)" d="M 318.445888 288.432 
L 323.661222 288.432 
L 323.661222 255.346884 
L 318.445888 255.346884 
z
" style="fill:#21918c;opacity:0.5;"/>
   </g>
   <g id="patch_93">
    <path clip-path="url(#p073b2927c1)" d="M 324.965055 288.432 
L 330.18039 288.432 
L 330.18039 262.544768 
L 324.965055 262.544768 
z
" style="fill:#21918c;opacity:0.5;"/>
   </g>
   <g id="patch_94">
    <path clip-path="url(#p073b2927c1)" d="M 331.484223 288.432 
L 336.699557 288.432 
L 336.699557 263.782258 
L 331.484223 263.782258 
z
" style="fill:#21918c;opacity:0.5;"/>
   </g>
   <g id="patch_95">
    <path clip-path="url(#p073b2927c1)" d="M 338.003391 288.432 
L 343.218725 288.432 
L 343.218725 258.866149 
L 338.003391 258.866149 
z
" style="fill:#21918c;opacity:0.5;"/>
   </g>
   <g id="patch_96">
    <path clip-path="url(#p073b2927c1)" d="M 344.522558 288.432 
L 349.737892 288.432 
L 349.737892 255.585652 
L 344.522558 255.585652 
z
" style="fill:#21918c;opacity:0.5;"/>
   </g>
   <g id="patch_97">
    <path clip-path="url(#p073b2927c1)" d="M 351.041726 288.432 
L 356.25706 288.432 
L 356.25706 257.59995 
L 351.041726 257.59995 
z
" style="fill:#21918c;opacity:0.5;"/>
   </g>
   <g id="patch_98">
    <path clip-path="url(#p073b2927c1)" d="M 357.560893 288.432 
L 362.776227 288.432 
L 362.776227 264.69688 
L 357.560893 264.69688 
z
" style="fill:#21918c;opacity:0.5;"/>
   </g>
   <g id="patch_99">
    <path clip-path="url(#p073b2927c1)" d="M 364.080061 288.432 
L 369.295395 288.432 
L 369.295395 262.644366 
L 364.080061 262.644366 
z
" style="fill:#21918c;opacity:0.5;"/>
   </g>
   <g id="patch_100">
    <path clip-path="url(#p073b2927c1)" d="M 370.599229 288.432 
L 375.814563 288.432 
L 375.814563 263.912869 
L 370.599229 263.912869 
z
" style="fill:#21918c;opacity:0.5;"/>
   </g>
   <g id="patch_101">
    <path clip-path="url(#p073b2927c1)" d="M 377.118396 288.432 
L 382.33373 288.432 
L 382.33373 259.758193 
L 377.118396 259.758193 
z
" style="fill:#21918c;opacity:0.5;"/>
   </g>
   <g id="patch_102">
    <path clip-path="url(#p073b2927c1)" d="M 383.637564 288.432 
L 388.852898 288.432 
L 388.852898 268.713783 
L 383.637564 268.713783 
z
" style="fill:#21918c;opacity:0.5;"/>
   </g>
   <g id="patch_103">
    <path clip-path="url(#p073b2927c1)" d="M 64.198352 288.432 
L 69.413686 288.432 
L 69.413686 249.386831 
L 64.198352 249.386831 
z
" style="fill:#fde725;opacity:0.5;"/>
   </g>
   <g id="patch_104">
    <path clip-path="url(#p073b2927c1)" d="M 70.71752 288.432 
L 75.932854 288.432 
L 75.932854 272.870447 
L 70.71752 272.870447 
z
" style="fill:#fde725;opacity:0.5;"/>
   </g>
   <g id="patch_105">
    <path clip-path="url(#p073b2927c1)" d="M 77.236687 288.432 
L 82.452021 288.432 
L 82.452021 269.802981 
L 77.236687 269.802981 
z
" style="fill:#fde725;opacity:0.5;"/>
   </g>
   <g id="patch_106">
    <path clip-path="url(#p073b2927c1)" d="M 83.755855 288.432 
L 88.971189 288.432 
L 88.971189 273.817011 
L 83.755855 273.817011 
z
" style="fill:#fde725;opacity:0.5;"/>
   </g>
   <g id="patch_107">
    <path clip-path="url(#p073b2927c1)" d="M 90.275023 288.432 
L 95.490357 288.432 
L 95.490357 273.363582 
L 90.275023 273.363582 
z
" style="fill:#fde725;opacity:0.5;"/>
   </g>
   <g id="patch_108">
    <path clip-path="url(#p073b2927c1)" d="M 96.79419 288.432 
L 102.009524 288.432 
L 102.009524 275.620703 
L 96.79419 275.620703 
z
" style="fill:#fde725;opacity:0.5;"/>
   </g>
   <g id="patch_109">
    <path clip-path="url(#p073b2927c1)" d="M 103.313358 288.432 
L 108.528692 288.432 
L 108.528692 274.460083 
L 103.313358 274.460083 
z
" style="fill:#fde725;opacity:0.5;"/>
   </g>
   <g id="patch_110">
    <path clip-path="url(#p073b2927c1)" d="M 109.832525 288.432 
L 115.047859 288.432 
L 115.047859 270.937284 
L 109.832525 270.937284 
z
" style="fill:#fde725;opacity:0.5;"/>
   </g>
   <g id="patch_111">
    <path clip-path="url(#p073b2927c1)" d="M 116.351693 288.432 
L 121.567027 288.432 
L 121.567027 265.947218 
L 116.351693 265.947218 
z
" style="fill:#fde725;opacity:0.5;"/>
   </g>
   <g id="patch_112">
    <path clip-path="url(#p073b2927c1)" d="M 122.87086 288.432 
L 128.086195 288.432 
L 128.086195 263.578651 
L 122.87086 263.578651 
z
" style="fill:#fde725;opacity:0.5;"/>
   </g>
   <g id="patch_113">
    <path clip-path="url(#p073b2927c1)" d="M 129.390028 288.432 
L 134.605362 288.432 
L 134.605362 245.29843 
L 129.390028 245.29843 
z
" style="fill:#fde725;opacity:0.5;"/>
   </g>
   <g id="patch_114">
    <path clip-path="url(#p073b2927c1)" d="M 135.909196 288.432 
L 141.12453 288.432 
L 141.12453 237.949373 
L 135.909196 237.949373 
z
" style="fill:#fde725;opacity:0.5;"/>
   </g>
   <g id="patch_115">
    <path clip-path="url(#p073b2927c1)" d="M 142.428363 288.432 
L 147.643697 288.432 
L 147.643697 221.408461 
L 142.428363 221.408461 
z
" style="fill:#fde725;opacity:0.5;"/>
   </g>
   <g id="patch_116">
    <path clip-path="url(#p073b2927c1)" d="M 148.947531 288.432 
L 154.162865 288.432 
L 154.162865 205.065835 
L 148.947531 205.065835 
z
" style="fill:#fde725;opacity:0.5;"/>
   </g>
   <g id="patch_117">
    <path clip-path="url(#p073b2927c1)" d="M 155.466698 288.432 
L 160.682032 288.432 
L 160.682032 195.109857 
L 155.466698 195.109857 
z
" style="fill:#fde725;opacity:0.5;"/>
   </g>
   <g id="patch_118">
    <path clip-path="url(#p073b2927c1)" d="M 161.985866 288.432 
L 167.2012 288.432 
L 167.2012 172.793588 
L 161.985866 172.793588 
z
" style="fill:#fde725;opacity:0.5;"/>
   </g>
   <g id="patch_119">
    <path clip-path="url(#p073b2927c1)" d="M 168.505034 288.432 
L 173.720368 288.432 
L 173.720368 179.106542 
L 168.505034 179.106542 
z
" style="fill:#fde725;opacity:0.5;"/>
   </g>
   <g id="patch_120">
    <path clip-path="url(#p073b2927c1)" d="M 175.024201 288.432 
L 180.239535 288.432 
L 180.239535 180.674565 
L 175.024201 180.674565 
z
" style="fill:#fde725;opacity:0.5;"/>
   </g>
   <g id="patch_121">
    <path clip-path="url(#p073b2927c1)" d="M 181.543369 288.432 
L 186.758703 288.432 
L 186.758703 186.454557 
L 181.543369 186.454557 
z
" style="fill:#fde725;opacity:0.5;"/>
   </g>
   <g id="patch_122">
    <path clip-path="url(#p073b2927c1)" d="M 188.062536 288.432 
L 193.27787 288.432 
L 193.27787 187.837467 
L 188.062536 187.837467 
z
" style="fill:#fde725;opacity:0.5;"/>
   </g>
   <g id="patch_123">
    <path clip-path="url(#p073b2927c1)" d="M 194.581704 288.432 
L 199.797038 288.432 
L 199.797038 189.997382 
L 194.581704 189.997382 
z
" style="fill:#fde725;opacity:0.5;"/>
   </g>
   <g id="patch_124">
    <path clip-path="url(#p073b2927c1)" d="M 201.100871 288.432 
L 206.316206 288.432 
L 206.316206 202.464813 
L 201.100871 202.464813 
z
" style="fill:#fde725;opacity:0.5;"/>
   </g>
   <g id="patch_125">
    <path clip-path="url(#p073b2927c1)" d="M 207.620039 288.432 
L 212.835373 288.432 
L 212.835373 204.437544 
L 207.620039 204.437544 
z
" style="fill:#fde725;opacity:0.5;"/>
   </g>
   <g id="patch_126">
    <path clip-path="url(#p073b2927c1)" d="M 214.139207 288.432 
L 219.354541 288.432 
L 219.354541 212.429173 
L 214.139207 212.429173 
z
" style="fill:#fde725;opacity:0.5;"/>
   </g>
   <g id="patch_127">
    <path clip-path="url(#p073b2927c1)" d="M 220.658374 288.432 
L 225.873708 288.432 
L 225.873708 215.491419 
L 220.658374 215.491419 
z
" style="fill:#fde725;opacity:0.5;"/>
   </g>
   <g id="patch_128">
    <path clip-path="url(#p073b2927c1)" d="M 227.177542 288.432 
L 232.392876 288.432 
L 232.392876 225.885414 
L 227.177542 225.885414 
z
" style="fill:#fde725;opacity:0.5;"/>
   </g>
   <g id="patch_129">
    <path clip-path="url(#p073b2927c1)" d="M 233.696709 288.432 
L 238.912043 288.432 
L 238.912043 226.384841 
L 233.696709 226.384841 
z
" style="fill:#fde725;opacity:0.5;"/>
   </g>
   <g id="patch_130">
    <path clip-path="url(#p073b2927c1)" d="M 240.215877 288.432 
L 245.431211 288.432 
L 245.431211 236.546093 
L 240.215877 236.546093 
z
" style="fill:#fde725;opacity:0.5;"/>
   </g>
   <g id="patch_131">
    <path clip-path="url(#p073b2927c1)" d="M 246.735044 288.432 
L 251.950379 288.432 
L 251.950379 228.61647 
L 246.735044 228.61647 
z
" style="fill:#fde725;opacity:0.5;"/>
   </g>
   <g id="patch_132">
    <path clip-path="url(#p073b2927c1)" d="M 253.254212 288.432 
L 258.469546 288.432 
L 258.469546 239.865526 
L 253.254212 239.865526 
z
" style="fill:#fde725;opacity:0.5;"/>
   </g>
   <g id="patch_133">
    <path clip-path="url(#p073b2927c1)" d="M 259.77338 288.432 
L 264.988714 288.432 
L 264.988714 240.94163 
L 259.77338 240.94163 
z
" style="fill:#fde725;opacity:0.5;"/>
   </g>
   <g id="patch_134">
    <path clip-path="url(#p073b2927c1)" d="M 266.292547 288.432 
L 271.507881 288.432 
L 271.507881 245.315363 
L 266.292547 245.315363 
z
" style="fill:#fde725;opacity:0.5;"/>
   </g>
   <g id="patch_135">
    <path clip-path="url(#p073b2927c1)" d="M 272.811715 288.432 
L 278.027049 288.432 
L 278.027049 241.995318 
L 272.811715 241.995318 
z
" style="fill:#fde725;opacity:0.5;"/>
   </g>
   <g id="patch_136">
    <path clip-path="url(#p073b2927c1)" d="M 279.330882 288.432 
L 284.546216 288.432 
L 284.546216 241.79513 
L 279.330882 241.79513 
z
" style="fill:#fde725;opacity:0.5;"/>
   </g>
   <g id="patch_137">
    <path clip-path="url(#p073b2927c1)" d="M 285.85005 288.432 
L 291.065384 288.432 
L 291.065384 250.993639 
L 285.85005 250.993639 
z
" style="fill:#fde725;opacity:0.5;"/>
   </g>
   <g id="patch_138">
    <path clip-path="url(#p073b2927c1)" d="M 292.369218 288.432 
L 297.584552 288.432 
L 297.584552 246.483632 
L 292.369218 246.483632 
z
" style="fill:#fde725;opacity:0.5;"/>
   </g>
   <g id="patch_139">
    <path clip-path="url(#p073b2927c1)" d="M 298.888385 288.432 
L 304.103719 288.432 
L 304.103719 247.78197 
L 298.888385 247.78197 
z
" style="fill:#fde725;opacity:0.5;"/>
   </g>
   <g id="patch_140">
    <path clip-path="url(#p073b2927c1)" d="M 305.407553 288.432 
L 310.622887 288.432 
L 310.622887 249.630037 
L 305.407553 249.630037 
z
" style="fill:#fde725;opacity:0.5;"/>
   </g>
   <g id="patch_141">
    <path clip-path="url(#p073b2927c1)" d="M 311.92672 288.432 
L 317.142054 288.432 
L 317.142054 247.096502 
L 311.92672 247.096502 
z
" style="fill:#fde725;opacity:0.5;"/>
   </g>
   <g id="patch_142">
    <path clip-path="url(#p073b2927c1)" d="M 318.445888 288.432 
L 323.661222 288.432 
L 323.661222 255.832706 
L 318.445888 255.832706 
z
" style="fill:#fde725;opacity:0.5;"/>
   </g>
   <g id="patch_143">
    <path clip-path="url(#p073b2927c1)" d="M 324.965055 288.432 
L 330.18039 288.432 
L 330.18039 254.16534 
L 324.965055 254.16534 
z
" style="fill:#fde725;opacity:0.5;"/>
   </g>
   <g id="patch_144">
    <path clip-path="url(#p073b2927c1)" d="M 331.484223 288.432 
L 336.699557 288.432 
L 336.699557 255.591043 
L 331.484223 255.591043 
z
" style="fill:#fde725;opacity:0.5;"/>
   </g>
   <g id="patch_145">
    <path clip-path="url(#p073b2927c1)" d="M 338.003391 288.432 
L 343.218725 288.432 
L 343.218725 253.672006 
L 338.003391 253.672006 
z
" style="fill:#fde725;opacity:0.5;"/>
   </g>
   <g id="patch_146">
    <path clip-path="url(#p073b2927c1)" d="M 344.522558 288.432 
L 349.737892 288.432 
L 349.737892 259.351888 
L 344.522558 259.351888 
z
" style="fill:#fde725;opacity:0.5;"/>
   </g>
   <g id="patch_147">
    <path clip-path="url(#p073b2927c1)" d="M 351.041726 288.432 
L 356.25706 288.432 
L 356.25706 257.41741 
L 351.041726 257.41741 
z
" style="fill:#fde725;opacity:0.5;"/>
   </g>
   <g id="patch_148">
    <path clip-path="url(#p073b2927c1)" d="M 357.560893 288.432 
L 362.776227 288.432 
L 362.776227 255.518461 
L 357.560893 255.518461 
z
" style="fill:#fde725;opacity:0.5;"/>
   </g>
   <g id="patch_149">
    <path clip-path="url(#p073b2927c1)" d="M 364.080061 288.432 
L 369.295395 288.432 
L 369.295395 258.730353 
L 364.080061 258.730353 
z
" style="fill:#fde725;opacity:0.5;"/>
   </g>
   <g id="patch_150">
    <path clip-path="url(#p073b2927c1)" d="M 370.599229 288.432 
L 375.814563 288.432 
L 375.814563 257.303595 
L 370.599229 257.303595 
z
" style="fill:#fde725;opacity:0.5;"/>
   </g>
   <g id="patch_151">
    <path clip-path="url(#p073b2927c1)" d="M 377.118396 288.432 
L 382.33373 288.432 
L 382.33373 257.865037 
L 377.118396 257.865037 
z
" style="fill:#fde725;opacity:0.5;"/>
   </g>
   <g id="patch_152">
    <path clip-path="url(#p073b2927c1)" d="M 383.637564 288.432 
L 388.852898 288.432 
L 388.852898 258.318984 
L 383.637564 258.318984 
z
" style="fill:#fde725;opacity:0.5;"/>
   </g>
   <g id="matplotlib.axis_1">
    <g id="xtick_1">
     <g id="line2d_1">
      <defs>
       <path d="M 0 0 
L 0 3.5 
" id="m8690dffa47" style="stroke:#000000;stroke-width:0.8;"/>
      </defs>
      <g>
       <use style="stroke:#000000;stroke-width:0.8;" x="63.546436" xlink:href="#m8690dffa47" y="289.432"/>
      </g>
     </g>
     <g id="text_1">
      <!-- 0 -->
      <defs>
       <path d="M 31.78125 66.40625 
Q 24.171875 66.40625 20.328125 58.90625 
Q 16.5 51.421875 16.5 36.375 
Q 16.5 21.390625 20.328125 13.890625 
Q 24.171875 6.390625 31.78125 6.390625 
Q 39.453125 6.390625 43.28125 13.890625 
Q 47.125 21.390625 47.125 36.375 
Q 47.125 51.421875 43.28125 58.90625 
Q 39.453125 66.40625 31.78125 66.40625 
z
M 31.78125 74.21875 
Q 44.046875 74.21875 50.515625 64.515625 
Q 56.984375 54.828125 56.984375 36.375 
Q 56.984375 17.96875 50.515625 8.265625 
Q 44.046875 -1.421875 31.78125 -1.421875 
Q 19.53125 -1.421875 13.0625 8.265625 
Q 6.59375 17.96875 6.59375 36.375 
Q 6.59375 54.828125 13.0625 64.515625 
Q 19.53125 74.21875 31.78125 74.21875 
z
" id="DejaVuSans-48"/>
      </defs>
      <g transform="translate(60.365186 304.030437)scale(0.1 -0.1)">
       <use xlink:href="#DejaVuSans-48"/>
      </g>
     </g>
    </g>
    <g id="xtick_2">
     <g id="line2d_2">
      <g>
       <use style="stroke:#000000;stroke-width:0.8;" x="128.738111" xlink:href="#m8690dffa47" y="289.432"/>
      </g>
     </g>
     <g id="text_2">
      <!-- 1 -->
      <defs>
       <path d="M 12.40625 8.296875 
L 28.515625 8.296875 
L 28.515625 63.921875 
L 10.984375 60.40625 
L 10.984375 69.390625 
L 28.421875 72.90625 
L 38.28125 72.90625 
L 38.28125 8.296875 
L 54.390625 8.296875 
L 54.390625 0 
L 12.40625 0 
z
" id="DejaVuSans-49"/>
      </defs>
      <g transform="translate(125.556861 304.030437)scale(0.1 -0.1)">
       <use xlink:href="#DejaVuSans-49"/>
      </g>
     </g>
    </g>
    <g id="xtick_3">
     <g id="line2d_3">
      <g>
       <use style="stroke:#000000;stroke-width:0.8;" x="193.929787" xlink:href="#m8690dffa47" y="289.432"/>
      </g>
     </g>
     <g id="text_3">
      <!-- 2 -->
      <defs>
       <path d="M 19.1875 8.296875 
L 53.609375 8.296875 
L 53.609375 0 
L 7.328125 0 
L 7.328125 8.296875 
Q 12.9375 14.109375 22.625 23.890625 
Q 32.328125 33.6875 34.8125 36.53125 
Q 39.546875 41.84375 41.421875 45.53125 
Q 43.3125 49.21875 43.3125 52.78125 
Q 43.3125 58.59375 39.234375 62.25 
Q 35.15625 65.921875 28.609375 65.921875 
Q 23.96875 65.921875 18.8125 64.3125 
Q 13.671875 62.703125 7.8125 59.421875 
L 7.8125 69.390625 
Q 13.765625 71.78125 18.9375 73 
Q 24.125 74.21875 28.421875 74.21875 
Q 39.75 74.21875 46.484375 68.546875 
Q 53.21875 62.890625 53.21875 53.421875 
Q 53.21875 48.921875 51.53125 44.890625 
Q 49.859375 40.875 45.40625 35.40625 
Q 44.1875 33.984375 37.640625 27.21875 
Q 31.109375 20.453125 19.1875 8.296875 
z
" id="DejaVuSans-50"/>
      </defs>
      <g transform="translate(190.748537 304.030437)scale(0.1 -0.1)">
       <use xlink:href="#DejaVuSans-50"/>
      </g>
     </g>
    </g>
    <g id="xtick_4">
     <g id="line2d_4">
      <g>
       <use style="stroke:#000000;stroke-width:0.8;" x="259.121463" xlink:href="#m8690dffa47" y="289.432"/>
      </g>
     </g>
     <g id="text_4">
      <!-- 3 -->
      <defs>
       <path d="M 40.578125 39.3125 
Q 47.65625 37.796875 51.625 33 
Q 55.609375 28.21875 55.609375 21.1875 
Q 55.609375 10.40625 48.1875 4.484375 
Q 40.765625 -1.421875 27.09375 -1.421875 
Q 22.515625 -1.421875 17.65625 -0.515625 
Q 12.796875 0.390625 7.625 2.203125 
L 7.625 11.71875 
Q 11.71875 9.328125 16.59375 8.109375 
Q 21.484375 6.890625 26.8125 6.890625 
Q 36.078125 6.890625 40.9375 10.546875 
Q 45.796875 14.203125 45.796875 21.1875 
Q 45.796875 27.640625 41.28125 31.265625 
Q 36.765625 34.90625 28.71875 34.90625 
L 20.21875 34.90625 
L 20.21875 43.015625 
L 29.109375 43.015625 
Q 36.375 43.015625 40.234375 45.921875 
Q 44.09375 48.828125 44.09375 54.296875 
Q 44.09375 59.90625 40.109375 62.90625 
Q 36.140625 65.921875 28.71875 65.921875 
Q 24.65625 65.921875 20.015625 65.03125 
Q 15.375 64.15625 9.8125 62.3125 
L 9.8125 71.09375 
Q 15.4375 72.65625 20.34375 73.4375 
Q 25.25 74.21875 29.59375 74.21875 
Q 40.828125 74.21875 47.359375 69.109375 
Q 53.90625 64.015625 53.90625 55.328125 
Q 53.90625 49.265625 50.4375 45.09375 
Q 46.96875 40.921875 40.578125 39.3125 
z
" id="DejaVuSans-51"/>
      </defs>
      <g transform="translate(255.940213 304.030437)scale(0.1 -0.1)">
       <use xlink:href="#DejaVuSans-51"/>
      </g>
     </g>
    </g>
    <g id="xtick_5">
     <g id="line2d_5">
      <g>
       <use style="stroke:#000000;stroke-width:0.8;" x="324.313139" xlink:href="#m8690dffa47" y="289.432"/>
      </g>
     </g>
     <g id="text_5">
      <!-- 4 -->
      <defs>
       <path d="M 37.796875 64.3125 
L 12.890625 25.390625 
L 37.796875 25.390625 
z
M 35.203125 72.90625 
L 47.609375 72.90625 
L 47.609375 25.390625 
L 58.015625 25.390625 
L 58.015625 17.1875 
L 47.609375 17.1875 
L 47.609375 0 
L 37.796875 0 
L 37.796875 17.1875 
L 4.890625 17.1875 
L 4.890625 26.703125 
z
" id="DejaVuSans-52"/>
      </defs>
      <g transform="translate(321.131889 304.030437)scale(0.1 -0.1)">
       <use xlink:href="#DejaVuSans-52"/>
      </g>
     </g>
    </g>
    <g id="xtick_6">
     <g id="line2d_6">
      <g>
       <use style="stroke:#000000;stroke-width:0.8;" x="389.504814" xlink:href="#m8690dffa47" y="289.432"/>
      </g>
     </g>
     <g id="text_6">
      <!-- 5 -->
      <defs>
       <path d="M 10.796875 72.90625 
L 49.515625 72.90625 
L 49.515625 64.59375 
L 19.828125 64.59375 
L 19.828125 46.734375 
Q 21.96875 47.46875 24.109375 47.828125 
Q 26.265625 48.1875 28.421875 48.1875 
Q 40.625 48.1875 47.75 41.5 
Q 54.890625 34.8125 54.890625 23.390625 
Q 54.890625 11.625 47.5625 5.09375 
Q 40.234375 -1.421875 26.90625 -1.421875 
Q 22.3125 -1.421875 17.546875 -0.640625 
Q 12.796875 0.140625 7.71875 1.703125 
L 7.71875 11.625 
Q 12.109375 9.234375 16.796875 8.0625 
Q 21.484375 6.890625 26.703125 6.890625 
Q 35.15625 6.890625 40.078125 11.328125 
Q 45.015625 15.765625 45.015625 23.390625 
Q 45.015625 31 40.078125 35.4375 
Q 35.15625 39.890625 26.703125 39.890625 
Q 22.75 39.890625 18.8125 39.015625 
Q 14.890625 38.140625 10.796875 36.28125 
z
" id="DejaVuSans-53"/>
      </defs>
      <g transform="translate(386.323564 304.030437)scale(0.1 -0.1)">
       <use xlink:href="#DejaVuSans-53"/>
      </g>
     </g>
    </g>
    <g id="text_7">
     <!-- $K_\mathrm{S}$ -->
     <defs>
      <path d="M 16.890625 72.90625 
L 26.8125 72.90625 
L 20.796875 42.1875 
L 59.078125 72.90625 
L 72.21875 72.90625 
L 28.90625 38.09375 
L 60.59375 0 
L 48.578125 0 
L 19.484375 35.5 
L 12.59375 0 
L 2.6875 0 
z
" id="DejaVuSans-Oblique-75"/>
      <path d="M 53.515625 70.515625 
L 53.515625 60.890625 
Q 47.90625 63.578125 42.921875 64.890625 
Q 37.9375 66.21875 33.296875 66.21875 
Q 25.25 66.21875 20.875 63.09375 
Q 16.5 59.96875 16.5 54.203125 
Q 16.5 49.359375 19.40625 46.890625 
Q 22.3125 44.4375 30.421875 42.921875 
L 36.375 41.703125 
Q 47.40625 39.59375 52.65625 34.296875 
Q 57.90625 29 57.90625 20.125 
Q 57.90625 9.515625 50.796875 4.046875 
Q 43.703125 -1.421875 29.984375 -1.421875 
Q 24.8125 -1.421875 18.96875 -0.25 
Q 13.140625 0.921875 6.890625 3.21875 
L 6.890625 13.375 
Q 12.890625 10.015625 18.65625 8.296875 
Q 24.421875 6.59375 29.984375 6.59375 
Q 38.421875 6.59375 43.015625 9.90625 
Q 47.609375 13.234375 47.609375 19.390625 
Q 47.609375 24.75 44.3125 27.78125 
Q 41.015625 30.8125 33.5 32.328125 
L 27.484375 33.5 
Q 16.453125 35.6875 11.515625 40.375 
Q 6.59375 45.0625 6.59375 53.421875 
Q 6.59375 63.09375 13.40625 68.65625 
Q 20.21875 74.21875 32.171875 74.21875 
Q 37.3125 74.21875 42.625 73.28125 
Q 47.953125 72.359375 53.515625 70.515625 
z
" id="DejaVuSans-83"/>
     </defs>
     <g transform="translate(220.875625 317.708562)scale(0.1 -0.1)">
      <use transform="translate(0 0.09375)" xlink:href="#DejaVuSans-Oblique-75"/>
      <use transform="translate(65.576172 -16.3125)scale(0.7)" xlink:href="#DejaVuSans-83"/>
     </g>
    </g>
   </g>
   <g id="matplotlib.axis_2">
    <g id="ytick_1">
     <g id="line2d_7">
      <defs>
       <path d="M 0 0 
L -3.5 0 
" id="m85e06c1a3f" style="stroke:#000000;stroke-width:0.8;"/>
      </defs>
      <g>
       <use style="stroke:#000000;stroke-width:0.8;" x="46.965625" xlink:href="#m85e06c1a3f" y="288.432"/>
      </g>
     </g>
     <g id="text_8">
      <!-- 0 -->
      <g transform="translate(33.603125 292.231219)scale(0.1 -0.1)">
       <use xlink:href="#DejaVuSans-48"/>
      </g>
     </g>
    </g>
    <g id="ytick_2">
     <g id="line2d_8">
      <g>
       <use style="stroke:#000000;stroke-width:0.8;" x="46.965625" xlink:href="#m85e06c1a3f" y="254.623085"/>
      </g>
     </g>
     <g id="text_9">
      <!-- 100 -->
      <g transform="translate(20.878125 258.422304)scale(0.1 -0.1)">
       <use xlink:href="#DejaVuSans-49"/>
       <use x="63.623047" xlink:href="#DejaVuSans-48"/>
       <use x="127.246094" xlink:href="#DejaVuSans-48"/>
      </g>
     </g>
    </g>
    <g id="ytick_3">
     <g id="line2d_9">
      <g>
       <use style="stroke:#000000;stroke-width:0.8;" x="46.965625" xlink:href="#m85e06c1a3f" y="220.81417"/>
      </g>
     </g>
     <g id="text_10">
      <!-- 200 -->
      <g transform="translate(20.878125 224.613388)scale(0.1 -0.1)">
       <use xlink:href="#DejaVuSans-50"/>
       <use x="63.623047" xlink:href="#DejaVuSans-48"/>
       <use x="127.246094" xlink:href="#DejaVuSans-48"/>
      </g>
     </g>
    </g>
    <g id="ytick_4">
     <g id="line2d_10">
      <g>
       <use style="stroke:#000000;stroke-width:0.8;" x="46.965625" xlink:href="#m85e06c1a3f" y="187.005254"/>
      </g>
     </g>
     <g id="text_11">
      <!-- 300 -->
      <g transform="translate(20.878125 190.804473)scale(0.1 -0.1)">
       <use xlink:href="#DejaVuSans-51"/>
       <use x="63.623047" xlink:href="#DejaVuSans-48"/>
       <use x="127.246094" xlink:href="#DejaVuSans-48"/>
      </g>
     </g>
    </g>
    <g id="ytick_5">
     <g id="line2d_11">
      <g>
       <use style="stroke:#000000;stroke-width:0.8;" x="46.965625" xlink:href="#m85e06c1a3f" y="153.196339"/>
      </g>
     </g>
     <g id="text_12">
      <!-- 400 -->
      <g transform="translate(20.878125 156.995558)scale(0.1 -0.1)">
       <use xlink:href="#DejaVuSans-52"/>
       <use x="63.623047" xlink:href="#DejaVuSans-48"/>
       <use x="127.246094" xlink:href="#DejaVuSans-48"/>
      </g>
     </g>
    </g>
    <g id="ytick_6">
     <g id="line2d_12">
      <g>
       <use style="stroke:#000000;stroke-width:0.8;" x="46.965625" xlink:href="#m85e06c1a3f" y="119.387424"/>
      </g>
     </g>
     <g id="text_13">
      <!-- 500 -->
      <g transform="translate(20.878125 123.186643)scale(0.1 -0.1)">
       <use xlink:href="#DejaVuSans-53"/>
       <use x="63.623047" xlink:href="#DejaVuSans-48"/>
       <use x="127.246094" xlink:href="#DejaVuSans-48"/>
      </g>
     </g>
    </g>
    <g id="ytick_7">
     <g id="line2d_13">
      <g>
       <use style="stroke:#000000;stroke-width:0.8;" x="46.965625" xlink:href="#m85e06c1a3f" y="85.578509"/>
      </g>
     </g>
     <g id="text_14">
      <!-- 600 -->
      <defs>
       <path d="M 33.015625 40.375 
Q 26.375 40.375 22.484375 35.828125 
Q 18.609375 31.296875 18.609375 23.390625 
Q 18.609375 15.53125 22.484375 10.953125 
Q 26.375 6.390625 33.015625 6.390625 
Q 39.65625 6.390625 43.53125 10.953125 
Q 47.40625 15.53125 47.40625 23.390625 
Q 47.40625 31.296875 43.53125 35.828125 
Q 39.65625 40.375 33.015625 40.375 
z
M 52.59375 71.296875 
L 52.59375 62.3125 
Q 48.875 64.0625 45.09375 64.984375 
Q 41.3125 65.921875 37.59375 65.921875 
Q 27.828125 65.921875 22.671875 59.328125 
Q 17.53125 52.734375 16.796875 39.40625 
Q 19.671875 43.65625 24.015625 45.921875 
Q 28.375 48.1875 33.59375 48.1875 
Q 44.578125 48.1875 50.953125 41.515625 
Q 57.328125 34.859375 57.328125 23.390625 
Q 57.328125 12.15625 50.6875 5.359375 
Q 44.046875 -1.421875 33.015625 -1.421875 
Q 20.359375 -1.421875 13.671875 8.265625 
Q 6.984375 17.96875 6.984375 36.375 
Q 6.984375 53.65625 15.1875 63.9375 
Q 23.390625 74.21875 37.203125 74.21875 
Q 40.921875 74.21875 44.703125 73.484375 
Q 48.484375 72.75 52.59375 71.296875 
z
" id="DejaVuSans-54"/>
      </defs>
      <g transform="translate(20.878125 89.377728)scale(0.1 -0.1)">
       <use xlink:href="#DejaVuSans-54"/>
       <use x="63.623047" xlink:href="#DejaVuSans-48"/>
       <use x="127.246094" xlink:href="#DejaVuSans-48"/>
      </g>
     </g>
    </g>
    <g id="ytick_8">
     <g id="line2d_14">
      <g>
       <use style="stroke:#000000;stroke-width:0.8;" x="46.965625" xlink:href="#m85e06c1a3f" y="51.769594"/>
      </g>
     </g>
     <g id="text_15">
      <!-- 700 -->
      <defs>
       <path d="M 8.203125 72.90625 
L 55.078125 72.90625 
L 55.078125 68.703125 
L 28.609375 0 
L 18.3125 0 
L 43.21875 64.59375 
L 8.203125 64.59375 
z
" id="DejaVuSans-55"/>
      </defs>
      <g transform="translate(20.878125 55.568813)scale(0.1 -0.1)">
       <use xlink:href="#DejaVuSans-55"/>
       <use x="63.623047" xlink:href="#DejaVuSans-48"/>
       <use x="127.246094" xlink:href="#DejaVuSans-48"/>
      </g>
     </g>
    </g>
    <g id="text_16">
     <!-- Homologous pairs -->
     <defs>
      <path d="M 9.8125 72.90625 
L 19.671875 72.90625 
L 19.671875 43.015625 
L 55.515625 43.015625 
L 55.515625 72.90625 
L 65.375 72.90625 
L 65.375 0 
L 55.515625 0 
L 55.515625 34.71875 
L 19.671875 34.71875 
L 19.671875 0 
L 9.8125 0 
z
" id="DejaVuSans-72"/>
      <path d="M 30.609375 48.390625 
Q 23.390625 48.390625 19.1875 42.75 
Q 14.984375 37.109375 14.984375 27.296875 
Q 14.984375 17.484375 19.15625 11.84375 
Q 23.34375 6.203125 30.609375 6.203125 
Q 37.796875 6.203125 41.984375 11.859375 
Q 46.1875 17.53125 46.1875 27.296875 
Q 46.1875 37.015625 41.984375 42.703125 
Q 37.796875 48.390625 30.609375 48.390625 
z
M 30.609375 56 
Q 42.328125 56 49.015625 48.375 
Q 55.71875 40.765625 55.71875 27.296875 
Q 55.71875 13.875 49.015625 6.21875 
Q 42.328125 -1.421875 30.609375 -1.421875 
Q 18.84375 -1.421875 12.171875 6.21875 
Q 5.515625 13.875 5.515625 27.296875 
Q 5.515625 40.765625 12.171875 48.375 
Q 18.84375 56 30.609375 56 
z
" id="DejaVuSans-111"/>
      <path d="M 52 44.1875 
Q 55.375 50.25 60.0625 53.125 
Q 64.75 56 71.09375 56 
Q 79.640625 56 84.28125 50.015625 
Q 88.921875 44.046875 88.921875 33.015625 
L 88.921875 0 
L 79.890625 0 
L 79.890625 32.71875 
Q 79.890625 40.578125 77.09375 44.375 
Q 74.3125 48.1875 68.609375 48.1875 
Q 61.625 48.1875 57.5625 43.546875 
Q 53.515625 38.921875 53.515625 30.90625 
L 53.515625 0 
L 44.484375 0 
L 44.484375 32.71875 
Q 44.484375 40.625 41.703125 44.40625 
Q 38.921875 48.1875 33.109375 48.1875 
Q 26.21875 48.1875 22.15625 43.53125 
Q 18.109375 38.875 18.109375 30.90625 
L 18.109375 0 
L 9.078125 0 
L 9.078125 54.6875 
L 18.109375 54.6875 
L 18.109375 46.1875 
Q 21.1875 51.21875 25.484375 53.609375 
Q 29.78125 56 35.6875 56 
Q 41.65625 56 45.828125 52.96875 
Q 50 49.953125 52 44.1875 
z
" id="DejaVuSans-109"/>
      <path d="M 9.421875 75.984375 
L 18.40625 75.984375 
L 18.40625 0 
L 9.421875 0 
z
" id="DejaVuSans-108"/>
      <path d="M 45.40625 27.984375 
Q 45.40625 37.75 41.375 43.109375 
Q 37.359375 48.484375 30.078125 48.484375 
Q 22.859375 48.484375 18.828125 43.109375 
Q 14.796875 37.75 14.796875 27.984375 
Q 14.796875 18.265625 18.828125 12.890625 
Q 22.859375 7.515625 30.078125 7.515625 
Q 37.359375 7.515625 41.375 12.890625 
Q 45.40625 18.265625 45.40625 27.984375 
z
M 54.390625 6.78125 
Q 54.390625 -7.171875 48.1875 -13.984375 
Q 42 -20.796875 29.203125 -20.796875 
Q 24.46875 -20.796875 20.265625 -20.09375 
Q 16.0625 -19.390625 12.109375 -17.921875 
L 12.109375 -9.1875 
Q 16.0625 -11.328125 19.921875 -12.34375 
Q 23.78125 -13.375 27.78125 -13.375 
Q 36.625 -13.375 41.015625 -8.765625 
Q 45.40625 -4.15625 45.40625 5.171875 
L 45.40625 9.625 
Q 42.625 4.78125 38.28125 2.390625 
Q 33.9375 0 27.875 0 
Q 17.828125 0 11.671875 7.65625 
Q 5.515625 15.328125 5.515625 27.984375 
Q 5.515625 40.671875 11.671875 48.328125 
Q 17.828125 56 27.875 56 
Q 33.9375 56 38.28125 53.609375 
Q 42.625 51.21875 45.40625 46.390625 
L 45.40625 54.6875 
L 54.390625 54.6875 
z
" id="DejaVuSans-103"/>
      <path d="M 8.5 21.578125 
L 8.5 54.6875 
L 17.484375 54.6875 
L 17.484375 21.921875 
Q 17.484375 14.15625 20.5 10.265625 
Q 23.53125 6.390625 29.59375 6.390625 
Q 36.859375 6.390625 41.078125 11.03125 
Q 45.3125 15.671875 45.3125 23.6875 
L 45.3125 54.6875 
L 54.296875 54.6875 
L 54.296875 0 
L 45.3125 0 
L 45.3125 8.40625 
Q 42.046875 3.421875 37.71875 1 
Q 33.40625 -1.421875 27.6875 -1.421875 
Q 18.265625 -1.421875 13.375 4.4375 
Q 8.5 10.296875 8.5 21.578125 
z
M 31.109375 56 
z
" id="DejaVuSans-117"/>
      <path d="M 44.28125 53.078125 
L 44.28125 44.578125 
Q 40.484375 46.53125 36.375 47.5 
Q 32.28125 48.484375 27.875 48.484375 
Q 21.1875 48.484375 17.84375 46.4375 
Q 14.5 44.390625 14.5 40.28125 
Q 14.5 37.15625 16.890625 35.375 
Q 19.28125 33.59375 26.515625 31.984375 
L 29.59375 31.296875 
Q 39.15625 29.25 43.1875 25.515625 
Q 47.21875 21.78125 47.21875 15.09375 
Q 47.21875 7.46875 41.1875 3.015625 
Q 35.15625 -1.421875 24.609375 -1.421875 
Q 20.21875 -1.421875 15.453125 -0.5625 
Q 10.6875 0.296875 5.421875 2 
L 5.421875 11.28125 
Q 10.40625 8.6875 15.234375 7.390625 
Q 20.0625 6.109375 24.8125 6.109375 
Q 31.15625 6.109375 34.5625 8.28125 
Q 37.984375 10.453125 37.984375 14.40625 
Q 37.984375 18.0625 35.515625 20.015625 
Q 33.0625 21.96875 24.703125 23.78125 
L 21.578125 24.515625 
Q 13.234375 26.265625 9.515625 29.90625 
Q 5.8125 33.546875 5.8125 39.890625 
Q 5.8125 47.609375 11.28125 51.796875 
Q 16.75 56 26.8125 56 
Q 31.78125 56 36.171875 55.265625 
Q 40.578125 54.546875 44.28125 53.078125 
z
" id="DejaVuSans-115"/>
      <path id="DejaVuSans-32"/>
      <path d="M 18.109375 8.203125 
L 18.109375 -20.796875 
L 9.078125 -20.796875 
L 9.078125 54.6875 
L 18.109375 54.6875 
L 18.109375 46.390625 
Q 20.953125 51.265625 25.265625 53.625 
Q 29.59375 56 35.59375 56 
Q 45.5625 56 51.78125 48.09375 
Q 58.015625 40.1875 58.015625 27.296875 
Q 58.015625 14.40625 51.78125 6.484375 
Q 45.5625 -1.421875 35.59375 -1.421875 
Q 29.59375 -1.421875 25.265625 0.953125 
Q 20.953125 3.328125 18.109375 8.203125 
z
M 48.6875 27.296875 
Q 48.6875 37.203125 44.609375 42.84375 
Q 40.53125 48.484375 33.40625 48.484375 
Q 26.265625 48.484375 22.1875 42.84375 
Q 18.109375 37.203125 18.109375 27.296875 
Q 18.109375 17.390625 22.1875 11.75 
Q 26.265625 6.109375 33.40625 6.109375 
Q 40.53125 6.109375 44.609375 11.75 
Q 48.6875 17.390625 48.6875 27.296875 
z
" id="DejaVuSans-112"/>
      <path d="M 34.28125 27.484375 
Q 23.390625 27.484375 19.1875 25 
Q 14.984375 22.515625 14.984375 16.5 
Q 14.984375 11.71875 18.140625 8.90625 
Q 21.296875 6.109375 26.703125 6.109375 
Q 34.1875 6.109375 38.703125 11.40625 
Q 43.21875 16.703125 43.21875 25.484375 
L 43.21875 27.484375 
z
M 52.203125 31.203125 
L 52.203125 0 
L 43.21875 0 
L 43.21875 8.296875 
Q 40.140625 3.328125 35.546875 0.953125 
Q 30.953125 -1.421875 24.3125 -1.421875 
Q 15.921875 -1.421875 10.953125 3.296875 
Q 6 8.015625 6 15.921875 
Q 6 25.140625 12.171875 29.828125 
Q 18.359375 34.515625 30.609375 34.515625 
L 43.21875 34.515625 
L 43.21875 35.40625 
Q 43.21875 41.609375 39.140625 45 
Q 35.0625 48.390625 27.6875 48.390625 
Q 23 48.390625 18.546875 47.265625 
Q 14.109375 46.140625 10.015625 43.890625 
L 10.015625 52.203125 
Q 14.9375 54.109375 19.578125 55.046875 
Q 24.21875 56 28.609375 56 
Q 40.484375 56 46.34375 49.84375 
Q 52.203125 43.703125 52.203125 31.203125 
z
" id="DejaVuSans-97"/>
      <path d="M 9.421875 54.6875 
L 18.40625 54.6875 
L 18.40625 0 
L 9.421875 0 
z
M 9.421875 75.984375 
L 18.40625 75.984375 
L 18.40625 64.59375 
L 9.421875 64.59375 
z
" id="DejaVuSans-105"/>
      <path d="M 41.109375 46.296875 
Q 39.59375 47.171875 37.8125 47.578125 
Q 36.03125 48 33.890625 48 
Q 26.265625 48 22.1875 43.046875 
Q 18.109375 38.09375 18.109375 28.8125 
L 18.109375 0 
L 9.078125 0 
L 9.078125 54.6875 
L 18.109375 54.6875 
L 18.109375 46.1875 
Q 20.953125 51.171875 25.484375 53.578125 
Q 30.03125 56 36.53125 56 
Q 37.453125 56 38.578125 55.875 
Q 39.703125 55.765625 41.0625 55.515625 
z
" id="DejaVuSans-114"/>
     </defs>
     <g transform="translate(14.798438 200.45725)rotate(-90)scale(0.1 -0.1)">
      <use xlink:href="#DejaVuSans-72"/>
      <use x="75.195312" xlink:href="#DejaVuSans-111"/>
      <use x="136.376953" xlink:href="#DejaVuSans-109"/>
      <use x="233.789062" xlink:href="#DejaVuSans-111"/>
      <use x="294.970703" xlink:href="#DejaVuSans-108"/>
      <use x="322.753906" xlink:href="#DejaVuSans-111"/>
      <use x="383.935547" xlink:href="#DejaVuSans-103"/>
      <use x="447.412109" xlink:href="#DejaVuSans-111"/>
      <use x="508.59375" xlink:href="#DejaVuSans-117"/>
      <use x="571.972656" xlink:href="#DejaVuSans-115"/>
      <use x="624.072266" xlink:href="#DejaVuSans-32"/>
      <use x="655.859375" xlink:href="#DejaVuSans-112"/>
      <use x="719.335938" xlink:href="#DejaVuSans-97"/>
      <use x="780.615234" xlink:href="#DejaVuSans-105"/>
      <use x="808.398438" xlink:href="#DejaVuSans-114"/>
      <use x="849.511719" xlink:href="#DejaVuSans-115"/>
     </g>
    </g>
   </g>
   <g id="line2d_15">
    <path clip-path="url(#p073b2927c1)" d="M 137.097356 288.432 
L 137.097356 22.32 
" style="fill:none;stroke:#440154;stroke-dasharray:1,1.65;stroke-dashoffset:0;stroke-opacity:0.8;"/>
   </g>
   <g id="line2d_16">
    <path clip-path="url(#p073b2927c1)" d="M 147.986544 288.432 
L 147.986544 22.32 
" style="fill:none;stroke:#21918c;stroke-dasharray:1,1.65;stroke-dashoffset:0;stroke-opacity:0.8;"/>
   </g>
   <g id="line2d_17">
    <path clip-path="url(#p073b2927c1)" d="M 170.938604 288.432 
L 170.938604 22.32 
" style="fill:none;stroke:#fde725;stroke-dasharray:1,1.65;stroke-dashoffset:0;stroke-opacity:0.8;"/>
   </g>
   <g id="patch_153">
    <path d="M 46.965625 288.432 
L 46.965625 22.32 
" style="fill:none;stroke:#000000;stroke-linecap:square;stroke-linejoin:miter;stroke-width:0.8;"/>
   </g>
   <g id="patch_154">
    <path d="M 47.965625 289.432 
L 405.085625 289.432 
" style="fill:none;stroke:#000000;stroke-linecap:square;stroke-linejoin:miter;stroke-width:0.8;"/>
   </g>
   <g id="text_17">
    <!-- Orthologous $K_\mathrm{S}$ distribution -->
    <defs>
     <path d="M 39.40625 66.21875 
Q 28.65625 66.21875 22.328125 58.203125 
Q 16.015625 50.203125 16.015625 36.375 
Q 16.015625 22.609375 22.328125 14.59375 
Q 28.65625 6.59375 39.40625 6.59375 
Q 50.140625 6.59375 56.421875 14.59375 
Q 62.703125 22.609375 62.703125 36.375 
Q 62.703125 50.203125 56.421875 58.203125 
Q 50.140625 66.21875 39.40625 66.21875 
z
M 39.40625 74.21875 
Q 54.734375 74.21875 63.90625 63.9375 
Q 73.09375 53.65625 73.09375 36.375 
Q 73.09375 19.140625 63.90625 8.859375 
Q 54.734375 -1.421875 39.40625 -1.421875 
Q 24.03125 -1.421875 14.8125 8.828125 
Q 5.609375 19.09375 5.609375 36.375 
Q 5.609375 53.65625 14.8125 63.9375 
Q 24.03125 74.21875 39.40625 74.21875 
z
" id="DejaVuSans-79"/>
     <path d="M 18.3125 70.21875 
L 18.3125 54.6875 
L 36.8125 54.6875 
L 36.8125 47.703125 
L 18.3125 47.703125 
L 18.3125 18.015625 
Q 18.3125 11.328125 20.140625 9.421875 
Q 21.96875 7.515625 27.59375 7.515625 
L 36.8125 7.515625 
L 36.8125 0 
L 27.59375 0 
Q 17.1875 0 13.234375 3.875 
Q 9.28125 7.765625 9.28125 18.015625 
L 9.28125 47.703125 
L 2.6875 47.703125 
L 2.6875 54.6875 
L 9.28125 54.6875 
L 9.28125 70.21875 
z
" id="DejaVuSans-116"/>
     <path d="M 54.890625 33.015625 
L 54.890625 0 
L 45.90625 0 
L 45.90625 32.71875 
Q 45.90625 40.484375 42.875 44.328125 
Q 39.84375 48.1875 33.796875 48.1875 
Q 26.515625 48.1875 22.3125 43.546875 
Q 18.109375 38.921875 18.109375 30.90625 
L 18.109375 0 
L 9.078125 0 
L 9.078125 75.984375 
L 18.109375 75.984375 
L 18.109375 46.1875 
Q 21.34375 51.125 25.703125 53.5625 
Q 30.078125 56 35.796875 56 
Q 45.21875 56 50.046875 50.171875 
Q 54.890625 44.34375 54.890625 33.015625 
z
" id="DejaVuSans-104"/>
     <path d="M 45.40625 46.390625 
L 45.40625 75.984375 
L 54.390625 75.984375 
L 54.390625 0 
L 45.40625 0 
L 45.40625 8.203125 
Q 42.578125 3.328125 38.25 0.953125 
Q 33.9375 -1.421875 27.875 -1.421875 
Q 17.96875 -1.421875 11.734375 6.484375 
Q 5.515625 14.40625 5.515625 27.296875 
Q 5.515625 40.1875 11.734375 48.09375 
Q 17.96875 56 27.875 56 
Q 33.9375 56 38.25 53.625 
Q 42.578125 51.265625 45.40625 46.390625 
z
M 14.796875 27.296875 
Q 14.796875 17.390625 18.875 11.75 
Q 22.953125 6.109375 30.078125 6.109375 
Q 37.203125 6.109375 41.296875 11.75 
Q 45.40625 17.390625 45.40625 27.296875 
Q 45.40625 37.203125 41.296875 42.84375 
Q 37.203125 48.484375 30.078125 48.484375 
Q 22.953125 48.484375 18.875 42.84375 
Q 14.796875 37.203125 14.796875 27.296875 
z
" id="DejaVuSans-100"/>
     <path d="M 48.6875 27.296875 
Q 48.6875 37.203125 44.609375 42.84375 
Q 40.53125 48.484375 33.40625 48.484375 
Q 26.265625 48.484375 22.1875 42.84375 
Q 18.109375 37.203125 18.109375 27.296875 
Q 18.109375 17.390625 22.1875 11.75 
Q 26.265625 6.109375 33.40625 6.109375 
Q 40.53125 6.109375 44.609375 11.75 
Q 48.6875 17.390625 48.6875 27.296875 
z
M 18.109375 46.390625 
Q 20.953125 51.265625 25.265625 53.625 
Q 29.59375 56 35.59375 56 
Q 45.5625 56 51.78125 48.09375 
Q 58.015625 40.1875 58.015625 27.296875 
Q 58.015625 14.40625 51.78125 6.484375 
Q 45.5625 -1.421875 35.59375 -1.421875 
Q 29.59375 -1.421875 25.265625 0.953125 
Q 20.953125 3.328125 18.109375 8.203125 
L 18.109375 0 
L 9.078125 0 
L 9.078125 75.984375 
L 18.109375 75.984375 
z
" id="DejaVuSans-98"/>
     <path d="M 54.890625 33.015625 
L 54.890625 0 
L 45.90625 0 
L 45.90625 32.71875 
Q 45.90625 40.484375 42.875 44.328125 
Q 39.84375 48.1875 33.796875 48.1875 
Q 26.515625 48.1875 22.3125 43.546875 
Q 18.109375 38.921875 18.109375 30.90625 
L 18.109375 0 
L 9.078125 0 
L 9.078125 54.6875 
L 18.109375 54.6875 
L 18.109375 46.1875 
Q 21.34375 51.125 25.703125 53.5625 
Q 30.078125 56 35.796875 56 
Q 45.21875 56 50.046875 50.171875 
Q 54.890625 44.34375 54.890625 33.015625 
z
" id="DejaVuSans-110"/>
    </defs>
    <g transform="translate(144.985625 16.32)scale(0.12 -0.12)">
     <use transform="translate(0 0.015625)" xlink:href="#DejaVuSans-79"/>
     <use transform="translate(78.710938 0.015625)" xlink:href="#DejaVuSans-114"/>
     <use transform="translate(119.824219 0.015625)" xlink:href="#DejaVuSans-116"/>
     <use transform="translate(159.033203 0.015625)" xlink:href="#DejaVuSans-104"/>
     <use transform="translate(222.412109 0.015625)" xlink:href="#DejaVuSans-111"/>
     <use transform="translate(283.59375 0.015625)" xlink:href="#DejaVuSans-108"/>
     <use transform="translate(311.376953 0.015625)" xlink:href="#DejaVuSans-111"/>
     <use transform="translate(372.558594 0.015625)" xlink:href="#DejaVuSans-103"/>
     <use transform="translate(436.035156 0.015625)" xlink:href="#DejaVuSans-111"/>
     <use transform="translate(497.216797 0.015625)" xlink:href="#DejaVuSans-117"/>
     <use transform="translate(560.595703 0.015625)" xlink:href="#DejaVuSans-115"/>
     <use transform="translate(612.695312 0.015625)" xlink:href="#DejaVuSans-32"/>
     <use transform="translate(644.482422 0.015625)" xlink:href="#DejaVuSans-Oblique-75"/>
     <use transform="translate(710.058594 -16.390625)scale(0.7)" xlink:href="#DejaVuSans-83"/>
     <use transform="translate(757.226562 0.015625)" xlink:href="#DejaVuSans-32"/>
     <use transform="translate(789.013672 0.015625)" xlink:href="#DejaVuSans-100"/>
     <use transform="translate(852.490234 0.015625)" xlink:href="#DejaVuSans-105"/>
     <use transform="translate(880.273438 0.015625)" xlink:href="#DejaVuSans-115"/>
     <use transform="translate(932.373047 0.015625)" xlink:href="#DejaVuSans-116"/>
     <use transform="translate(971.582031 0.015625)" xlink:href="#DejaVuSans-114"/>
     <use transform="translate(1012.695312 0.015625)" xlink:href="#DejaVuSans-105"/>
     <use transform="translate(1040.478516 0.015625)" xlink:href="#DejaVuSans-98"/>
     <use transform="translate(1103.955078 0.015625)" xlink:href="#DejaVuSans-117"/>
     <use transform="translate(1167.333984 0.015625)" xlink:href="#DejaVuSans-116"/>
     <use transform="translate(1206.542969 0.015625)" xlink:href="#DejaVuSans-105"/>
     <use transform="translate(1234.326172 0.015625)" xlink:href="#DejaVuSans-111"/>
     <use transform="translate(1295.507812 0.015625)" xlink:href="#DejaVuSans-110"/>
    </g>
   </g>
   <g id="legend_1">
    <g id="line2d_18">
     <path d="M 414.085625 117.105687 
L 434.085625 117.105687 
" style="fill:none;stroke:#440154;stroke-dasharray:1,1.65;stroke-dashoffset:0;stroke-opacity:0.8;"/>
    </g>
    <g id="line2d_19"/>
    <g id="text_18">
     <!-- Original mode 1.13 of Aquilegia_coerulea__Protea_cynaroides -->
     <defs>
      <path d="M 56.203125 29.59375 
L 56.203125 25.203125 
L 14.890625 25.203125 
Q 15.484375 15.921875 20.484375 11.0625 
Q 25.484375 6.203125 34.421875 6.203125 
Q 39.59375 6.203125 44.453125 7.46875 
Q 49.3125 8.734375 54.109375 11.28125 
L 54.109375 2.78125 
Q 49.265625 0.734375 44.1875 -0.34375 
Q 39.109375 -1.421875 33.890625 -1.421875 
Q 20.796875 -1.421875 13.15625 6.1875 
Q 5.515625 13.8125 5.515625 26.8125 
Q 5.515625 40.234375 12.765625 48.109375 
Q 20.015625 56 32.328125 56 
Q 43.359375 56 49.78125 48.890625 
Q 56.203125 41.796875 56.203125 29.59375 
z
M 47.21875 32.234375 
Q 47.125 39.59375 43.09375 43.984375 
Q 39.0625 48.390625 32.421875 48.390625 
Q 24.90625 48.390625 20.390625 44.140625 
Q 15.875 39.890625 15.1875 32.171875 
z
" id="DejaVuSans-101"/>
      <path d="M 10.6875 12.40625 
L 21 12.40625 
L 21 0 
L 10.6875 0 
z
" id="DejaVuSans-46"/>
      <path d="M 37.109375 75.984375 
L 37.109375 68.5 
L 28.515625 68.5 
Q 23.6875 68.5 21.796875 66.546875 
Q 19.921875 64.59375 19.921875 59.515625 
L 19.921875 54.6875 
L 34.71875 54.6875 
L 34.71875 47.703125 
L 19.921875 47.703125 
L 19.921875 0 
L 10.890625 0 
L 10.890625 47.703125 
L 2.296875 47.703125 
L 2.296875 54.6875 
L 10.890625 54.6875 
L 10.890625 58.5 
Q 10.890625 67.625 15.140625 71.796875 
Q 19.390625 75.984375 28.609375 75.984375 
z
" id="DejaVuSans-102"/>
      <path d="M 34.1875 63.1875 
L 20.796875 26.90625 
L 47.609375 26.90625 
z
M 28.609375 72.90625 
L 39.796875 72.90625 
L 67.578125 0 
L 57.328125 0 
L 50.6875 18.703125 
L 17.828125 18.703125 
L 11.1875 0 
L 0.78125 0 
z
" id="DejaVuSans-65"/>
      <path d="M 14.796875 27.296875 
Q 14.796875 17.390625 18.875 11.75 
Q 22.953125 6.109375 30.078125 6.109375 
Q 37.203125 6.109375 41.296875 11.75 
Q 45.40625 17.390625 45.40625 27.296875 
Q 45.40625 37.203125 41.296875 42.84375 
Q 37.203125 48.484375 30.078125 48.484375 
Q 22.953125 48.484375 18.875 42.84375 
Q 14.796875 37.203125 14.796875 27.296875 
z
M 45.40625 8.203125 
Q 42.578125 3.328125 38.25 0.953125 
Q 33.9375 -1.421875 27.875 -1.421875 
Q 17.96875 -1.421875 11.734375 6.484375 
Q 5.515625 14.40625 5.515625 27.296875 
Q 5.515625 40.1875 11.734375 48.09375 
Q 17.96875 56 27.875 56 
Q 33.9375 56 38.25 53.625 
Q 42.578125 51.265625 45.40625 46.390625 
L 45.40625 54.6875 
L 54.390625 54.6875 
L 54.390625 -20.796875 
L 45.40625 -20.796875 
z
" id="DejaVuSans-113"/>
      <path d="M 50.984375 -16.609375 
L 50.984375 -23.578125 
L -0.984375 -23.578125 
L -0.984375 -16.609375 
z
" id="DejaVuSans-95"/>
      <path d="M 48.78125 52.59375 
L 48.78125 44.1875 
Q 44.96875 46.296875 41.140625 47.34375 
Q 37.3125 48.390625 33.40625 48.390625 
Q 24.65625 48.390625 19.8125 42.84375 
Q 14.984375 37.3125 14.984375 27.296875 
Q 14.984375 17.28125 19.8125 11.734375 
Q 24.65625 6.203125 33.40625 6.203125 
Q 37.3125 6.203125 41.140625 7.25 
Q 44.96875 8.296875 48.78125 10.40625 
L 48.78125 2.09375 
Q 45.015625 0.34375 40.984375 -0.53125 
Q 36.96875 -1.421875 32.421875 -1.421875 
Q 20.0625 -1.421875 12.78125 6.34375 
Q 5.515625 14.109375 5.515625 27.296875 
Q 5.515625 40.671875 12.859375 48.328125 
Q 20.21875 56 33.015625 56 
Q 37.15625 56 41.109375 55.140625 
Q 45.0625 54.296875 48.78125 52.59375 
z
" id="DejaVuSans-99"/>
      <path d="M 19.671875 64.796875 
L 19.671875 37.40625 
L 32.078125 37.40625 
Q 38.96875 37.40625 42.71875 40.96875 
Q 46.484375 44.53125 46.484375 51.125 
Q 46.484375 57.671875 42.71875 61.234375 
Q 38.96875 64.796875 32.078125 64.796875 
z
M 9.8125 72.90625 
L 32.078125 72.90625 
Q 44.34375 72.90625 50.609375 67.359375 
Q 56.890625 61.8125 56.890625 51.125 
Q 56.890625 40.328125 50.609375 34.8125 
Q 44.34375 29.296875 32.078125 29.296875 
L 19.671875 29.296875 
L 19.671875 0 
L 9.8125 0 
z
" id="DejaVuSans-80"/>
      <path d="M 32.171875 -5.078125 
Q 28.375 -14.84375 24.75 -17.8125 
Q 21.140625 -20.796875 15.09375 -20.796875 
L 7.90625 -20.796875 
L 7.90625 -13.28125 
L 13.1875 -13.28125 
Q 16.890625 -13.28125 18.9375 -11.515625 
Q 21 -9.765625 23.484375 -3.21875 
L 25.09375 0.875 
L 2.984375 54.6875 
L 12.5 54.6875 
L 29.59375 11.921875 
L 46.6875 54.6875 
L 56.203125 54.6875 
z
" id="DejaVuSans-121"/>
     </defs>
     <g transform="translate(442.085625 120.605687)scale(0.1 -0.1)">
      <use xlink:href="#DejaVuSans-79"/>
      <use x="78.710938" xlink:href="#DejaVuSans-114"/>
      <use x="119.824219" xlink:href="#DejaVuSans-105"/>
      <use x="147.607422" xlink:href="#DejaVuSans-103"/>
      <use x="211.083984" xlink:href="#DejaVuSans-105"/>
      <use x="238.867188" xlink:href="#DejaVuSans-110"/>
      <use x="302.246094" xlink:href="#DejaVuSans-97"/>
      <use x="363.525391" xlink:href="#DejaVuSans-108"/>
      <use x="391.308594" xlink:href="#DejaVuSans-32"/>
      <use x="423.095703" xlink:href="#DejaVuSans-109"/>
      <use x="520.507812" xlink:href="#DejaVuSans-111"/>
      <use x="581.689453" xlink:href="#DejaVuSans-100"/>
      <use x="645.166016" xlink:href="#DejaVuSans-101"/>
      <use x="706.689453" xlink:href="#DejaVuSans-32"/>
      <use x="738.476562" xlink:href="#DejaVuSans-49"/>
      <use x="802.099609" xlink:href="#DejaVuSans-46"/>
      <use x="833.886719" xlink:href="#DejaVuSans-49"/>
      <use x="897.509766" xlink:href="#DejaVuSans-51"/>
      <use x="961.132812" xlink:href="#DejaVuSans-32"/>
      <use x="992.919922" xlink:href="#DejaVuSans-111"/>
      <use x="1054.101562" xlink:href="#DejaVuSans-102"/>
      <use x="1089.306641" xlink:href="#DejaVuSans-32"/>
      <use x="1121.09375" xlink:href="#DejaVuSans-65"/>
      <use x="1187.751953" xlink:href="#DejaVuSans-113"/>
      <use x="1251.228516" xlink:href="#DejaVuSans-117"/>
      <use x="1314.607422" xlink:href="#DejaVuSans-105"/>
      <use x="1342.390625" xlink:href="#DejaVuSans-108"/>
      <use x="1370.173828" xlink:href="#DejaVuSans-101"/>
      <use x="1431.697266" xlink:href="#DejaVuSans-103"/>
      <use x="1495.173828" xlink:href="#DejaVuSans-105"/>
      <use x="1522.957031" xlink:href="#DejaVuSans-97"/>
      <use x="1584.236328" xlink:href="#DejaVuSans-95"/>
      <use x="1634.236328" xlink:href="#DejaVuSans-99"/>
      <use x="1689.216797" xlink:href="#DejaVuSans-111"/>
      <use x="1750.398438" xlink:href="#DejaVuSans-101"/>
      <use x="1811.921875" xlink:href="#DejaVuSans-114"/>
      <use x="1853.035156" xlink:href="#DejaVuSans-117"/>
      <use x="1916.414062" xlink:href="#DejaVuSans-108"/>
      <use x="1944.197266" xlink:href="#DejaVuSans-101"/>
      <use x="2005.720703" xlink:href="#DejaVuSans-97"/>
      <use x="2067" xlink:href="#DejaVuSans-95"/>
      <use x="2117" xlink:href="#DejaVuSans-95"/>
      <use x="2167" xlink:href="#DejaVuSans-80"/>
      <use x="2225.552734" xlink:href="#DejaVuSans-114"/>
      <use x="2264.416016" xlink:href="#DejaVuSans-111"/>
      <use x="2325.597656" xlink:href="#DejaVuSans-116"/>
      <use x="2364.806641" xlink:href="#DejaVuSans-101"/>
      <use x="2426.330078" xlink:href="#DejaVuSans-97"/>
      <use x="2487.609375" xlink:href="#DejaVuSans-95"/>
      <use x="2537.609375" xlink:href="#DejaVuSans-99"/>
      <use x="2592.589844" xlink:href="#DejaVuSans-121"/>
      <use x="2651.769531" xlink:href="#DejaVuSans-110"/>
      <use x="2715.148438" xlink:href="#DejaVuSans-97"/>
      <use x="2776.427734" xlink:href="#DejaVuSans-114"/>
      <use x="2815.291016" xlink:href="#DejaVuSans-111"/>
      <use x="2876.472656" xlink:href="#DejaVuSans-105"/>
      <use x="2904.255859" xlink:href="#DejaVuSans-100"/>
      <use x="2967.732422" xlink:href="#DejaVuSans-101"/>
      <use x="3029.255859" xlink:href="#DejaVuSans-115"/>
     </g>
    </g>
    <g id="line2d_20">
     <path d="M 414.085625 132.061937 
L 434.085625 132.061937 
" style="fill:none;stroke:#21918c;stroke-dasharray:1,1.65;stroke-dashoffset:0;stroke-opacity:0.8;"/>
    </g>
    <g id="line2d_21"/>
    <g id="text_19">
     <!-- Original mode 1.30 of Aquilegia_coerulea__Vitis_vinifera -->
     <defs>
      <path d="M 28.609375 0 
L 0.78125 72.90625 
L 11.078125 72.90625 
L 34.1875 11.53125 
L 57.328125 72.90625 
L 67.578125 72.90625 
L 39.796875 0 
z
" id="DejaVuSans-86"/>
      <path d="M 2.984375 54.6875 
L 12.5 54.6875 
L 29.59375 8.796875 
L 46.6875 54.6875 
L 56.203125 54.6875 
L 35.6875 0 
L 23.484375 0 
z
" id="DejaVuSans-118"/>
     </defs>
     <g transform="translate(442.085625 135.561937)scale(0.1 -0.1)">
      <use xlink:href="#DejaVuSans-79"/>
      <use x="78.710938" xlink:href="#DejaVuSans-114"/>
      <use x="119.824219" xlink:href="#DejaVuSans-105"/>
      <use x="147.607422" xlink:href="#DejaVuSans-103"/>
      <use x="211.083984" xlink:href="#DejaVuSans-105"/>
      <use x="238.867188" xlink:href="#DejaVuSans-110"/>
      <use x="302.246094" xlink:href="#DejaVuSans-97"/>
      <use x="363.525391" xlink:href="#DejaVuSans-108"/>
      <use x="391.308594" xlink:href="#DejaVuSans-32"/>
      <use x="423.095703" xlink:href="#DejaVuSans-109"/>
      <use x="520.507812" xlink:href="#DejaVuSans-111"/>
      <use x="581.689453" xlink:href="#DejaVuSans-100"/>
      <use x="645.166016" xlink:href="#DejaVuSans-101"/>
      <use x="706.689453" xlink:href="#DejaVuSans-32"/>
      <use x="738.476562" xlink:href="#DejaVuSans-49"/>
      <use x="802.099609" xlink:href="#DejaVuSans-46"/>
      <use x="833.886719" xlink:href="#DejaVuSans-51"/>
      <use x="897.509766" xlink:href="#DejaVuSans-48"/>
      <use x="961.132812" xlink:href="#DejaVuSans-32"/>
      <use x="992.919922" xlink:href="#DejaVuSans-111"/>
      <use x="1054.101562" xlink:href="#DejaVuSans-102"/>
      <use x="1089.306641" xlink:href="#DejaVuSans-32"/>
      <use x="1121.09375" xlink:href="#DejaVuSans-65"/>
      <use x="1187.751953" xlink:href="#DejaVuSans-113"/>
      <use x="1251.228516" xlink:href="#DejaVuSans-117"/>
      <use x="1314.607422" xlink:href="#DejaVuSans-105"/>
      <use x="1342.390625" xlink:href="#DejaVuSans-108"/>
      <use x="1370.173828" xlink:href="#DejaVuSans-101"/>
      <use x="1431.697266" xlink:href="#DejaVuSans-103"/>
      <use x="1495.173828" xlink:href="#DejaVuSans-105"/>
      <use x="1522.957031" xlink:href="#DejaVuSans-97"/>
      <use x="1584.236328" xlink:href="#DejaVuSans-95"/>
      <use x="1634.236328" xlink:href="#DejaVuSans-99"/>
      <use x="1689.216797" xlink:href="#DejaVuSans-111"/>
      <use x="1750.398438" xlink:href="#DejaVuSans-101"/>
      <use x="1811.921875" xlink:href="#DejaVuSans-114"/>
      <use x="1853.035156" xlink:href="#DejaVuSans-117"/>
      <use x="1916.414062" xlink:href="#DejaVuSans-108"/>
      <use x="1944.197266" xlink:href="#DejaVuSans-101"/>
      <use x="2005.720703" xlink:href="#DejaVuSans-97"/>
      <use x="2067" xlink:href="#DejaVuSans-95"/>
      <use x="2117" xlink:href="#DejaVuSans-95"/>
      <use x="2167" xlink:href="#DejaVuSans-86"/>
      <use x="2233.158203" xlink:href="#DejaVuSans-105"/>
      <use x="2260.941406" xlink:href="#DejaVuSans-116"/>
      <use x="2300.150391" xlink:href="#DejaVuSans-105"/>
      <use x="2327.933594" xlink:href="#DejaVuSans-115"/>
      <use x="2380.033203" xlink:href="#DejaVuSans-95"/>
      <use x="2430.033203" xlink:href="#DejaVuSans-118"/>
      <use x="2489.212891" xlink:href="#DejaVuSans-105"/>
      <use x="2516.996094" xlink:href="#DejaVuSans-110"/>
      <use x="2580.375" xlink:href="#DejaVuSans-105"/>
      <use x="2608.158203" xlink:href="#DejaVuSans-102"/>
      <use x="2643.363281" xlink:href="#DejaVuSans-101"/>
      <use x="2704.886719" xlink:href="#DejaVuSans-114"/>
      <use x="2746" xlink:href="#DejaVuSans-97"/>
     </g>
    </g>
    <g id="line2d_22">
     <path d="M 414.085625 147.018187 
L 434.085625 147.018187 
" style="fill:none;stroke:#fde725;stroke-dasharray:1,1.65;stroke-dashoffset:0;stroke-opacity:0.8;"/>
    </g>
    <g id="line2d_23"/>
    <g id="text_20">
     <!-- Original mode 1.65 of Acorus_americanus__Aquilegia_coerulea -->
     <g transform="translate(442.085625 150.518187)scale(0.1 -0.1)">
      <use xlink:href="#DejaVuSans-79"/>
      <use x="78.710938" xlink:href="#DejaVuSans-114"/>
      <use x="119.824219" xlink:href="#DejaVuSans-105"/>
      <use x="147.607422" xlink:href="#DejaVuSans-103"/>
      <use x="211.083984" xlink:href="#DejaVuSans-105"/>
      <use x="238.867188" xlink:href="#DejaVuSans-110"/>
      <use x="302.246094" xlink:href="#DejaVuSans-97"/>
      <use x="363.525391" xlink:href="#DejaVuSans-108"/>
      <use x="391.308594" xlink:href="#DejaVuSans-32"/>
      <use x="423.095703" xlink:href="#DejaVuSans-109"/>
      <use x="520.507812" xlink:href="#DejaVuSans-111"/>
      <use x="581.689453" xlink:href="#DejaVuSans-100"/>
      <use x="645.166016" xlink:href="#DejaVuSans-101"/>
      <use x="706.689453" xlink:href="#DejaVuSans-32"/>
      <use x="738.476562" xlink:href="#DejaVuSans-49"/>
      <use x="802.099609" xlink:href="#DejaVuSans-46"/>
      <use x="833.886719" xlink:href="#DejaVuSans-54"/>
      <use x="897.509766" xlink:href="#DejaVuSans-53"/>
      <use x="961.132812" xlink:href="#DejaVuSans-32"/>
      <use x="992.919922" xlink:href="#DejaVuSans-111"/>
      <use x="1054.101562" xlink:href="#DejaVuSans-102"/>
      <use x="1089.306641" xlink:href="#DejaVuSans-32"/>
      <use x="1121.09375" xlink:href="#DejaVuSans-65"/>
      <use x="1187.751953" xlink:href="#DejaVuSans-99"/>
      <use x="1242.732422" xlink:href="#DejaVuSans-111"/>
      <use x="1303.914062" xlink:href="#DejaVuSans-114"/>
      <use x="1345.027344" xlink:href="#DejaVuSans-117"/>
      <use x="1408.40625" xlink:href="#DejaVuSans-115"/>
      <use x="1460.505859" xlink:href="#DejaVuSans-95"/>
      <use x="1510.505859" xlink:href="#DejaVuSans-97"/>
      <use x="1571.785156" xlink:href="#DejaVuSans-109"/>
      <use x="1669.197266" xlink:href="#DejaVuSans-101"/>
      <use x="1730.720703" xlink:href="#DejaVuSans-114"/>
      <use x="1771.833984" xlink:href="#DejaVuSans-105"/>
      <use x="1799.617188" xlink:href="#DejaVuSans-99"/>
      <use x="1854.597656" xlink:href="#DejaVuSans-97"/>
      <use x="1915.876953" xlink:href="#DejaVuSans-110"/>
      <use x="1979.255859" xlink:href="#DejaVuSans-117"/>
      <use x="2042.634766" xlink:href="#DejaVuSans-115"/>
      <use x="2094.734375" xlink:href="#DejaVuSans-95"/>
      <use x="2144.734375" xlink:href="#DejaVuSans-95"/>
      <use x="2194.734375" xlink:href="#DejaVuSans-65"/>
      <use x="2261.392578" xlink:href="#DejaVuSans-113"/>
      <use x="2324.869141" xlink:href="#DejaVuSans-117"/>
      <use x="2388.248047" xlink:href="#DejaVuSans-105"/>
      <use x="2416.03125" xlink:href="#DejaVuSans-108"/>
      <use x="2443.814453" xlink:href="#DejaVuSans-101"/>
      <use x="2505.337891" xlink:href="#DejaVuSans-103"/>
      <use x="2568.814453" xlink:href="#DejaVuSans-105"/>
      <use x="2596.597656" xlink:href="#DejaVuSans-97"/>
      <use x="2657.876953" xlink:href="#DejaVuSans-95"/>
      <use x="2707.876953" xlink:href="#DejaVuSans-99"/>
      <use x="2762.857422" xlink:href="#DejaVuSans-111"/>
      <use x="2824.039062" xlink:href="#DejaVuSans-101"/>
      <use x="2885.5625" xlink:href="#DejaVuSans-114"/>
      <use x="2926.675781" xlink:href="#DejaVuSans-117"/>
      <use x="2990.054688" xlink:href="#DejaVuSans-108"/>
      <use x="3017.837891" xlink:href="#DejaVuSans-101"/>
      <use x="3079.361328" xlink:href="#DejaVuSans-97"/>
     </g>
    </g>
    <g id="patch_155">
     <path d="M 414.085625 165.474437 
L 434.085625 165.474437 
L 434.085625 158.474437 
L 414.085625 158.474437 
z
" style="fill:#440154;opacity:0.5;"/>
    </g>
    <g id="text_21">
     <!-- Aquilegia_coerulea__Protea_cynaroides -->
     <g transform="translate(442.085625 165.474437)scale(0.1 -0.1)">
      <use xlink:href="#DejaVuSans-65"/>
      <use x="66.658203" xlink:href="#DejaVuSans-113"/>
      <use x="130.134766" xlink:href="#DejaVuSans-117"/>
      <use x="193.513672" xlink:href="#DejaVuSans-105"/>
      <use x="221.296875" xlink:href="#DejaVuSans-108"/>
      <use x="249.080078" xlink:href="#DejaVuSans-101"/>
      <use x="310.603516" xlink:href="#DejaVuSans-103"/>
      <use x="374.080078" xlink:href="#DejaVuSans-105"/>
      <use x="401.863281" xlink:href="#DejaVuSans-97"/>
      <use x="463.142578" xlink:href="#DejaVuSans-95"/>
      <use x="513.142578" xlink:href="#DejaVuSans-99"/>
      <use x="568.123047" xlink:href="#DejaVuSans-111"/>
      <use x="629.304688" xlink:href="#DejaVuSans-101"/>
      <use x="690.828125" xlink:href="#DejaVuSans-114"/>
      <use x="731.941406" xlink:href="#DejaVuSans-117"/>
      <use x="795.320312" xlink:href="#DejaVuSans-108"/>
      <use x="823.103516" xlink:href="#DejaVuSans-101"/>
      <use x="884.626953" xlink:href="#DejaVuSans-97"/>
      <use x="945.90625" xlink:href="#DejaVuSans-95"/>
      <use x="995.90625" xlink:href="#DejaVuSans-95"/>
      <use x="1045.90625" xlink:href="#DejaVuSans-80"/>
      <use x="1104.458984" xlink:href="#DejaVuSans-114"/>
      <use x="1143.322266" xlink:href="#DejaVuSans-111"/>
      <use x="1204.503906" xlink:href="#DejaVuSans-116"/>
      <use x="1243.712891" xlink:href="#DejaVuSans-101"/>
      <use x="1305.236328" xlink:href="#DejaVuSans-97"/>
      <use x="1366.515625" xlink:href="#DejaVuSans-95"/>
      <use x="1416.515625" xlink:href="#DejaVuSans-99"/>
      <use x="1471.496094" xlink:href="#DejaVuSans-121"/>
      <use x="1530.675781" xlink:href="#DejaVuSans-110"/>
      <use x="1594.054688" xlink:href="#DejaVuSans-97"/>
      <use x="1655.333984" xlink:href="#DejaVuSans-114"/>
      <use x="1694.197266" xlink:href="#DejaVuSans-111"/>
      <use x="1755.378906" xlink:href="#DejaVuSans-105"/>
      <use x="1783.162109" xlink:href="#DejaVuSans-100"/>
      <use x="1846.638672" xlink:href="#DejaVuSans-101"/>
      <use x="1908.162109" xlink:href="#DejaVuSans-115"/>
     </g>
    </g>
    <g id="patch_156">
     <path d="M 414.085625 180.430687 
L 434.085625 180.430687 
L 434.085625 173.430687 
L 414.085625 173.430687 
z
" style="fill:#21918c;opacity:0.5;"/>
    </g>
    <g id="text_22">
     <!-- Aquilegia_coerulea__Vitis_vinifera -->
     <g transform="translate(442.085625 180.430687)scale(0.1 -0.1)">
      <use xlink:href="#DejaVuSans-65"/>
      <use x="66.658203" xlink:href="#DejaVuSans-113"/>
      <use x="130.134766" xlink:href="#DejaVuSans-117"/>
      <use x="193.513672" xlink:href="#DejaVuSans-105"/>
      <use x="221.296875" xlink:href="#DejaVuSans-108"/>
      <use x="249.080078" xlink:href="#DejaVuSans-101"/>
      <use x="310.603516" xlink:href="#DejaVuSans-103"/>
      <use x="374.080078" xlink:href="#DejaVuSans-105"/>
      <use x="401.863281" xlink:href="#DejaVuSans-97"/>
      <use x="463.142578" xlink:href="#DejaVuSans-95"/>
      <use x="513.142578" xlink:href="#DejaVuSans-99"/>
      <use x="568.123047" xlink:href="#DejaVuSans-111"/>
      <use x="629.304688" xlink:href="#DejaVuSans-101"/>
      <use x="690.828125" xlink:href="#DejaVuSans-114"/>
      <use x="731.941406" xlink:href="#DejaVuSans-117"/>
      <use x="795.320312" xlink:href="#DejaVuSans-108"/>
      <use x="823.103516" xlink:href="#DejaVuSans-101"/>
      <use x="884.626953" xlink:href="#DejaVuSans-97"/>
      <use x="945.90625" xlink:href="#DejaVuSans-95"/>
      <use x="995.90625" xlink:href="#DejaVuSans-95"/>
      <use x="1045.90625" xlink:href="#DejaVuSans-86"/>
      <use x="1112.064453" xlink:href="#DejaVuSans-105"/>
      <use x="1139.847656" xlink:href="#DejaVuSans-116"/>
      <use x="1179.056641" xlink:href="#DejaVuSans-105"/>
      <use x="1206.839844" xlink:href="#DejaVuSans-115"/>
      <use x="1258.939453" xlink:href="#DejaVuSans-95"/>
      <use x="1308.939453" xlink:href="#DejaVuSans-118"/>
      <use x="1368.119141" xlink:href="#DejaVuSans-105"/>
      <use x="1395.902344" xlink:href="#DejaVuSans-110"/>
      <use x="1459.28125" xlink:href="#DejaVuSans-105"/>
      <use x="1487.064453" xlink:href="#DejaVuSans-102"/>
      <use x="1522.269531" xlink:href="#DejaVuSans-101"/>
      <use x="1583.792969" xlink:href="#DejaVuSans-114"/>
      <use x="1624.90625" xlink:href="#DejaVuSans-97"/>
     </g>
    </g>
    <g id="patch_157">
     <path d="M 414.085625 195.386937 
L 434.085625 195.386937 
L 434.085625 188.386937 
L 414.085625 188.386937 
z
" style="fill:#fde725;opacity:0.5;"/>
    </g>
    <g id="text_23">
     <!-- Acorus_americanus__Aquilegia_coerulea -->
     <g transform="translate(442.085625 195.386937)scale(0.1 -0.1)">
      <use xlink:href="#DejaVuSans-65"/>
      <use x="66.658203" xlink:href="#DejaVuSans-99"/>
      <use x="121.638672" xlink:href="#DejaVuSans-111"/>
      <use x="182.820312" xlink:href="#DejaVuSans-114"/>
      <use x="223.933594" xlink:href="#DejaVuSans-117"/>
      <use x="287.3125" xlink:href="#DejaVuSans-115"/>
      <use x="339.412109" xlink:href="#DejaVuSans-95"/>
      <use x="389.412109" xlink:href="#DejaVuSans-97"/>
      <use x="450.691406" xlink:href="#DejaVuSans-109"/>
      <use x="548.103516" xlink:href="#DejaVuSans-101"/>
      <use x="609.626953" xlink:href="#DejaVuSans-114"/>
      <use x="650.740234" xlink:href="#DejaVuSans-105"/>
      <use x="678.523438" xlink:href="#DejaVuSans-99"/>
      <use x="733.503906" xlink:href="#DejaVuSans-97"/>
      <use x="794.783203" xlink:href="#DejaVuSans-110"/>
      <use x="858.162109" xlink:href="#DejaVuSans-117"/>
      <use x="921.541016" xlink:href="#DejaVuSans-115"/>
      <use x="973.640625" xlink:href="#DejaVuSans-95"/>
      <use x="1023.640625" xlink:href="#DejaVuSans-95"/>
      <use x="1073.640625" xlink:href="#DejaVuSans-65"/>
      <use x="1140.298828" xlink:href="#DejaVuSans-113"/>
      <use x="1203.775391" xlink:href="#DejaVuSans-117"/>
      <use x="1267.154297" xlink:href="#DejaVuSans-105"/>
      <use x="1294.9375" xlink:href="#DejaVuSans-108"/>
      <use x="1322.720703" xlink:href="#DejaVuSans-101"/>
      <use x="1384.244141" xlink:href="#DejaVuSans-103"/>
      <use x="1447.720703" xlink:href="#DejaVuSans-105"/>
      <use x="1475.503906" xlink:href="#DejaVuSans-97"/>
      <use x="1536.783203" xlink:href="#DejaVuSans-95"/>
      <use x="1586.783203" xlink:href="#DejaVuSans-99"/>
      <use x="1641.763672" xlink:href="#DejaVuSans-111"/>
      <use x="1702.945312" xlink:href="#DejaVuSans-101"/>
      <use x="1764.46875" xlink:href="#DejaVuSans-114"/>
      <use x="1805.582031" xlink:href="#DejaVuSans-117"/>
      <use x="1868.960938" xlink:href="#DejaVuSans-108"/>
      <use x="1896.744141" xlink:href="#DejaVuSans-101"/>
      <use x="1958.267578" xlink:href="#DejaVuSans-97"/>
     </g>
    </g>
   </g>
  </g>
 </g>
 <defs>
  <clipPath id="p073b2927c1">
   <rect height="266.112" width="357.12" x="47.965625" y="22.32"/>
  </clipPath>
 </defs>
</svg>
