<?xml version="1.0" encoding="utf-8" standalone="no"?>
<!DOCTYPE svg PUBLIC "-//W3C//DTD SVG 1.1//EN"
  "http://www.w3.org/Graphics/SVG/1.1/DTD/svg11.dtd">
<!-- Created with matplotlib (https://matplotlib.org/) -->
<svg height="326.98825pt" version="1.1" viewBox="0 0 767.35125 326.98825" width="767.35125pt" xmlns="http://www.w3.org/2000/svg" xmlns:xlink="http://www.w3.org/1999/xlink">
 <defs>
  <style type="text/css">
*{stroke-linecap:butt;stroke-linejoin:round;}
  </style>
 </defs>
 <g id="figure_1">
  <g id="patch_1">
   <path d="M 0 326.98825 
L 767.35125 326.98825 
L 767.35125 0 
L 0 0 
z
" style="fill:#ffffff;"/>
  </g>
  <g id="axes_1">
   <g id="patch_2">
    <path d="M 47.965625 288.432 
L 405.085625 288.432 
L 405.085625 22.32 
L 47.965625 22.32 
z
" style="fill:#ffffff;"/>
   </g>
   <g id="patch_3">
    <path clip-path="url(#pce49fad309)" d="M 64.847661 288.432 
L 70.042134 288.432 
L 70.042134 236.067441 
L 64.847661 236.067441 
z
" style="fill:#440154;opacity:0.5;"/>
   </g>
   <g id="patch_4">
    <path clip-path="url(#pce49fad309)" d="M 71.340752 288.432 
L 76.535225 288.432 
L 76.535225 269.120021 
L 71.340752 269.120021 
z
" style="fill:#440154;opacity:0.5;"/>
   </g>
   <g id="patch_5">
    <path clip-path="url(#pce49fad309)" d="M 77.833843 288.432 
L 83.028316 288.432 
L 83.028316 267.046142 
L 77.833843 267.046142 
z
" style="fill:#440154;opacity:0.5;"/>
   </g>
   <g id="patch_6">
    <path clip-path="url(#pce49fad309)" d="M 84.326934 288.432 
L 89.521407 288.432 
L 89.521407 272.87815 
L 84.326934 272.87815 
z
" style="fill:#440154;opacity:0.5;"/>
   </g>
   <g id="patch_7">
    <path clip-path="url(#pce49fad309)" d="M 90.820025 288.432 
L 96.014498 288.432 
L 96.014498 263.992267 
L 90.820025 263.992267 
z
" style="fill:#440154;opacity:0.5;"/>
   </g>
   <g id="patch_8">
    <path clip-path="url(#pce49fad309)" d="M 97.313116 288.432 
L 102.507589 288.432 
L 102.507589 257.663902 
L 97.313116 257.663902 
z
" style="fill:#440154;opacity:0.5;"/>
   </g>
   <g id="patch_9">
    <path clip-path="url(#pce49fad309)" d="M 103.806207 288.432 
L 109.00068 288.432 
L 109.00068 240.403718 
L 103.806207 240.403718 
z
" style="fill:#440154;opacity:0.5;"/>
   </g>
   <g id="patch_10">
    <path clip-path="url(#pce49fad309)" d="M 110.299298 288.432 
L 115.49377 288.432 
L 115.49377 207.446403 
L 110.299298 207.446403 
z
" style="fill:#440154;opacity:0.5;"/>
   </g>
   <g id="patch_11">
    <path clip-path="url(#pce49fad309)" d="M 116.792389 288.432 
L 121.986861 288.432 
L 121.986861 159.207146 
L 116.792389 159.207146 
z
" style="fill:#440154;opacity:0.5;"/>
   </g>
   <g id="patch_12">
    <path clip-path="url(#pce49fad309)" d="M 123.28548 288.432 
L 128.479952 288.432 
L 128.479952 104.555805 
L 123.28548 104.555805 
z
" style="fill:#440154;opacity:0.5;"/>
   </g>
   <g id="patch_13">
    <path clip-path="url(#pce49fad309)" d="M 129.77857 288.432 
L 134.973043 288.432 
L 134.973043 34.992 
L 129.77857 34.992 
z
" style="fill:#440154;opacity:0.5;"/>
   </g>
   <g id="patch_14">
    <path clip-path="url(#pce49fad309)" d="M 136.271661 288.432 
L 141.466134 288.432 
L 141.466134 52.648505 
L 136.271661 52.648505 
z
" style="fill:#440154;opacity:0.5;"/>
   </g>
   <g id="patch_15">
    <path clip-path="url(#pce49fad309)" d="M 142.764752 288.432 
L 147.959225 288.432 
L 147.959225 75.163883 
L 142.764752 75.163883 
z
" style="fill:#440154;opacity:0.5;"/>
   </g>
   <g id="patch_16">
    <path clip-path="url(#pce49fad309)" d="M 149.257843 288.432 
L 154.452316 288.432 
L 154.452316 93.966935 
L 149.257843 93.966935 
z
" style="fill:#440154;opacity:0.5;"/>
   </g>
   <g id="patch_17">
    <path clip-path="url(#pce49fad309)" d="M 155.750934 288.432 
L 160.945407 288.432 
L 160.945407 130.414024 
L 155.750934 130.414024 
z
" style="fill:#440154;opacity:0.5;"/>
   </g>
   <g id="patch_18">
    <path clip-path="url(#pce49fad309)" d="M 162.244025 288.432 
L 167.438498 288.432 
L 167.438498 143.592411 
L 162.244025 143.592411 
z
" style="fill:#440154;opacity:0.5;"/>
   </g>
   <g id="patch_19">
    <path clip-path="url(#pce49fad309)" d="M 168.737116 288.432 
L 173.931589 288.432 
L 173.931589 172.055093 
L 168.737116 172.055093 
z
" style="fill:#440154;opacity:0.5;"/>
   </g>
   <g id="patch_20">
    <path clip-path="url(#pce49fad309)" d="M 175.230207 288.432 
L 180.42468 288.432 
L 180.42468 190.234376 
L 175.230207 190.234376 
z
" style="fill:#440154;opacity:0.5;"/>
   </g>
   <g id="patch_21">
    <path clip-path="url(#pce49fad309)" d="M 181.723298 288.432 
L 186.91777 288.432 
L 186.91777 198.406037 
L 181.723298 198.406037 
z
" style="fill:#440154;opacity:0.5;"/>
   </g>
   <g id="patch_22">
    <path clip-path="url(#pce49fad309)" d="M 188.216389 288.432 
L 193.410861 288.432 
L 193.410861 204.880791 
L 188.216389 204.880791 
z
" style="fill:#440154;opacity:0.5;"/>
   </g>
   <g id="patch_23">
    <path clip-path="url(#pce49fad309)" d="M 194.70948 288.432 
L 199.903952 288.432 
L 199.903952 205.662258 
L 194.70948 205.662258 
z
" style="fill:#440154;opacity:0.5;"/>
   </g>
   <g id="patch_24">
    <path clip-path="url(#pce49fad309)" d="M 201.20257 288.432 
L 206.397043 288.432 
L 206.397043 216.24926 
L 201.20257 216.24926 
z
" style="fill:#440154;opacity:0.5;"/>
   </g>
   <g id="patch_25">
    <path clip-path="url(#pce49fad309)" d="M 207.695661 288.432 
L 212.890134 288.432 
L 212.890134 217.607012 
L 207.695661 217.607012 
z
" style="fill:#440154;opacity:0.5;"/>
   </g>
   <g id="patch_26">
    <path clip-path="url(#pce49fad309)" d="M 214.188752 288.432 
L 219.383225 288.432 
L 219.383225 227.625155 
L 214.188752 227.625155 
z
" style="fill:#440154;opacity:0.5;"/>
   </g>
   <g id="patch_27">
    <path clip-path="url(#pce49fad309)" d="M 220.681843 288.432 
L 225.876316 288.432 
L 225.876316 238.162973 
L 220.681843 238.162973 
z
" style="fill:#440154;opacity:0.5;"/>
   </g>
   <g id="patch_28">
    <path clip-path="url(#pce49fad309)" d="M 227.174934 288.432 
L 232.369407 288.432 
L 232.369407 236.501255 
L 227.174934 236.501255 
z
" style="fill:#440154;opacity:0.5;"/>
   </g>
   <g id="patch_29">
    <path clip-path="url(#pce49fad309)" d="M 233.668025 288.432 
L 238.862498 288.432 
L 238.862498 247.558655 
L 233.668025 247.558655 
z
" style="fill:#440154;opacity:0.5;"/>
   </g>
   <g id="patch_30">
    <path clip-path="url(#pce49fad309)" d="M 240.161116 288.432 
L 245.355589 288.432 
L 245.355589 238.897021 
L 240.161116 238.897021 
z
" style="fill:#440154;opacity:0.5;"/>
   </g>
   <g id="patch_31">
    <path clip-path="url(#pce49fad309)" d="M 246.654207 288.432 
L 251.84868 288.432 
L 251.84868 246.205288 
L 246.654207 246.205288 
z
" style="fill:#440154;opacity:0.5;"/>
   </g>
   <g id="patch_32">
    <path clip-path="url(#pce49fad309)" d="M 253.147298 288.432 
L 258.34177 288.432 
L 258.34177 251.731088 
L 253.147298 251.731088 
z
" style="fill:#440154;opacity:0.5;"/>
   </g>
   <g id="patch_33">
    <path clip-path="url(#pce49fad309)" d="M 259.640389 288.432 
L 264.834861 288.432 
L 264.834861 251.535713 
L 259.640389 251.535713 
z
" style="fill:#440154;opacity:0.5;"/>
   </g>
   <g id="patch_34">
    <path clip-path="url(#pce49fad309)" d="M 266.13348 288.432 
L 271.327952 288.432 
L 271.327952 249.486381 
L 266.13348 249.486381 
z
" style="fill:#440154;opacity:0.5;"/>
   </g>
   <g id="patch_35">
    <path clip-path="url(#pce49fad309)" d="M 272.62657 288.432 
L 277.821043 288.432 
L 277.821043 249.983748 
L 272.62657 249.983748 
z
" style="fill:#440154;opacity:0.5;"/>
   </g>
   <g id="patch_36">
    <path clip-path="url(#pce49fad309)" d="M 279.119661 288.432 
L 284.314134 288.432 
L 284.314134 254.309277 
L 279.119661 254.309277 
z
" style="fill:#440154;opacity:0.5;"/>
   </g>
   <g id="patch_37">
    <path clip-path="url(#pce49fad309)" d="M 285.612752 288.432 
L 290.807225 288.432 
L 290.807225 256.785691 
L 285.612752 256.785691 
z
" style="fill:#440154;opacity:0.5;"/>
   </g>
   <g id="patch_38">
    <path clip-path="url(#pce49fad309)" d="M 292.105843 288.432 
L 297.300316 288.432 
L 297.300316 252.568443 
L 292.105843 252.568443 
z
" style="fill:#440154;opacity:0.5;"/>
   </g>
   <g id="patch_39">
    <path clip-path="url(#pce49fad309)" d="M 298.598934 288.432 
L 303.793407 288.432 
L 303.793407 255.456659 
L 298.598934 255.456659 
z
" style="fill:#440154;opacity:0.5;"/>
   </g>
   <g id="patch_40">
    <path clip-path="url(#pce49fad309)" d="M 305.092025 288.432 
L 310.286498 288.432 
L 310.286498 258.731602 
L 305.092025 258.731602 
z
" style="fill:#440154;opacity:0.5;"/>
   </g>
   <g id="patch_41">
    <path clip-path="url(#pce49fad309)" d="M 311.585116 288.432 
L 316.779589 288.432 
L 316.779589 260.24057 
L 311.585116 260.24057 
z
" style="fill:#440154;opacity:0.5;"/>
   </g>
   <g id="patch_42">
    <path clip-path="url(#pce49fad309)" d="M 318.078207 288.432 
L 323.27268 288.432 
L 323.27268 259.592392 
L 318.078207 259.592392 
z
" style="fill:#440154;opacity:0.5;"/>
   </g>
   <g id="patch_43">
    <path clip-path="url(#pce49fad309)" d="M 324.571298 288.432 
L 329.76577 288.432 
L 329.76577 267.051894 
L 324.571298 267.051894 
z
" style="fill:#440154;opacity:0.5;"/>
   </g>
   <g id="patch_44">
    <path clip-path="url(#pce49fad309)" d="M 331.064389 288.432 
L 336.258861 288.432 
L 336.258861 262.47121 
L 331.064389 262.47121 
z
" style="fill:#440154;opacity:0.5;"/>
   </g>
   <g id="patch_45">
    <path clip-path="url(#pce49fad309)" d="M 337.55748 288.432 
L 342.751952 288.432 
L 342.751952 263.730136 
L 337.55748 263.730136 
z
" style="fill:#440154;opacity:0.5;"/>
   </g>
   <g id="patch_46">
    <path clip-path="url(#pce49fad309)" d="M 344.05057 288.432 
L 349.245043 288.432 
L 349.245043 265.0361 
L 344.05057 265.0361 
z
" style="fill:#440154;opacity:0.5;"/>
   </g>
   <g id="patch_47">
    <path clip-path="url(#pce49fad309)" d="M 350.543661 288.432 
L 355.738134 288.432 
L 355.738134 265.654725 
L 350.543661 265.654725 
z
" style="fill:#440154;opacity:0.5;"/>
   </g>
   <g id="patch_48">
    <path clip-path="url(#pce49fad309)" d="M 357.036752 288.432 
L 362.231225 288.432 
L 362.231225 265.434 
L 357.036752 265.434 
z
" style="fill:#440154;opacity:0.5;"/>
   </g>
   <g id="patch_49">
    <path clip-path="url(#pce49fad309)" d="M 363.529843 288.432 
L 368.724316 288.432 
L 368.724316 265.819417 
L 363.529843 265.819417 
z
" style="fill:#440154;opacity:0.5;"/>
   </g>
   <g id="patch_50">
    <path clip-path="url(#pce49fad309)" d="M 370.022934 288.432 
L 375.217407 288.432 
L 375.217407 257.523238 
L 370.022934 257.523238 
z
" style="fill:#440154;opacity:0.5;"/>
   </g>
   <g id="patch_51">
    <path clip-path="url(#pce49fad309)" d="M 376.516025 288.432 
L 381.710498 288.432 
L 381.710498 265.465387 
L 376.516025 265.465387 
z
" style="fill:#440154;opacity:0.5;"/>
   </g>
   <g id="patch_52">
    <path clip-path="url(#pce49fad309)" d="M 383.009116 288.432 
L 388.203589 288.432 
L 388.203589 265.300704 
L 383.009116 265.300704 
z
" style="fill:#440154;opacity:0.5;"/>
   </g>
   <g id="patch_53">
    <path clip-path="url(#pce49fad309)" d="M 64.847661 288.432 
L 70.042134 288.432 
L 70.042134 230.15494 
L 64.847661 230.15494 
z
" style="fill:#21918c;opacity:0.5;"/>
   </g>
   <g id="patch_54">
    <path clip-path="url(#pce49fad309)" d="M 71.340752 288.432 
L 76.535225 288.432 
L 76.535225 266.90904 
L 71.340752 266.90904 
z
" style="fill:#21918c;opacity:0.5;"/>
   </g>
   <g id="patch_55">
    <path clip-path="url(#pce49fad309)" d="M 77.833843 288.432 
L 83.028316 288.432 
L 83.028316 262.137322 
L 77.833843 262.137322 
z
" style="fill:#21918c;opacity:0.5;"/>
   </g>
   <g id="patch_56">
    <path clip-path="url(#pce49fad309)" d="M 84.326934 288.432 
L 89.521407 288.432 
L 89.521407 272.811332 
L 84.326934 272.811332 
z
" style="fill:#21918c;opacity:0.5;"/>
   </g>
   <g id="patch_57">
    <path clip-path="url(#pce49fad309)" d="M 90.820025 288.432 
L 96.014498 288.432 
L 96.014498 267.929687 
L 90.820025 267.929687 
z
" style="fill:#21918c;opacity:0.5;"/>
   </g>
   <g id="patch_58">
    <path clip-path="url(#pce49fad309)" d="M 97.313116 288.432 
L 102.507589 288.432 
L 102.507589 264.360031 
L 97.313116 264.360031 
z
" style="fill:#21918c;opacity:0.5;"/>
   </g>
   <g id="patch_59">
    <path clip-path="url(#pce49fad309)" d="M 103.806207 288.432 
L 109.00068 288.432 
L 109.00068 254.706655 
L 103.806207 254.706655 
z
" style="fill:#21918c;opacity:0.5;"/>
   </g>
   <g id="patch_60">
    <path clip-path="url(#pce49fad309)" d="M 110.299298 288.432 
L 115.49377 288.432 
L 115.49377 238.590276 
L 110.299298 238.590276 
z
" style="fill:#21918c;opacity:0.5;"/>
   </g>
   <g id="patch_61">
    <path clip-path="url(#pce49fad309)" d="M 116.792389 288.432 
L 121.986861 288.432 
L 121.986861 215.677129 
L 116.792389 215.677129 
z
" style="fill:#21918c;opacity:0.5;"/>
   </g>
   <g id="patch_62">
    <path clip-path="url(#pce49fad309)" d="M 123.28548 288.432 
L 128.479952 288.432 
L 128.479952 171.762 
L 123.28548 171.762 
z
" style="fill:#21918c;opacity:0.5;"/>
   </g>
   <g id="patch_63">
    <path clip-path="url(#pce49fad309)" d="M 129.77857 288.432 
L 134.973043 288.432 
L 134.973043 132.188555 
L 129.77857 132.188555 
z
" style="fill:#21918c;opacity:0.5;"/>
   </g>
   <g id="patch_64">
    <path clip-path="url(#pce49fad309)" d="M 136.271661 288.432 
L 141.466134 288.432 
L 141.466134 81.416793 
L 136.271661 81.416793 
z
" style="fill:#21918c;opacity:0.5;"/>
   </g>
   <g id="patch_65">
    <path clip-path="url(#pce49fad309)" d="M 142.764752 288.432 
L 147.959225 288.432 
L 147.959225 71.768538 
L 142.764752 71.768538 
z
" style="fill:#21918c;opacity:0.5;"/>
   </g>
   <g id="patch_66">
    <path clip-path="url(#pce49fad309)" d="M 149.257843 288.432 
L 154.452316 288.432 
L 154.452316 80.782424 
L 149.257843 80.782424 
z
" style="fill:#21918c;opacity:0.5;"/>
   </g>
   <g id="patch_67">
    <path clip-path="url(#pce49fad309)" d="M 155.750934 288.432 
L 160.945407 288.432 
L 160.945407 87.269077 
L 155.750934 87.269077 
z
" style="fill:#21918c;opacity:0.5;"/>
   </g>
   <g id="patch_68">
    <path clip-path="url(#pce49fad309)" d="M 162.244025 288.432 
L 167.438498 288.432 
L 167.438498 117.5857 
L 162.244025 117.5857 
z
" style="fill:#21918c;opacity:0.5;"/>
   </g>
   <g id="patch_69">
    <path clip-path="url(#pce49fad309)" d="M 168.737116 288.432 
L 173.931589 288.432 
L 173.931589 137.348094 
L 168.737116 137.348094 
z
" style="fill:#21918c;opacity:0.5;"/>
   </g>
   <g id="patch_70">
    <path clip-path="url(#pce49fad309)" d="M 175.230207 288.432 
L 180.42468 288.432 
L 180.42468 150.075311 
L 175.230207 150.075311 
z
" style="fill:#21918c;opacity:0.5;"/>
   </g>
   <g id="patch_71">
    <path clip-path="url(#pce49fad309)" d="M 181.723298 288.432 
L 186.91777 288.432 
L 186.91777 175.97654 
L 181.723298 175.97654 
z
" style="fill:#21918c;opacity:0.5;"/>
   </g>
   <g id="patch_72">
    <path clip-path="url(#pce49fad309)" d="M 188.216389 288.432 
L 193.410861 288.432 
L 193.410861 178.049514 
L 188.216389 178.049514 
z
" style="fill:#21918c;opacity:0.5;"/>
   </g>
   <g id="patch_73">
    <path clip-path="url(#pce49fad309)" d="M 194.70948 288.432 
L 199.903952 288.432 
L 199.903952 180.862146 
L 194.70948 180.862146 
z
" style="fill:#21918c;opacity:0.5;"/>
   </g>
   <g id="patch_74">
    <path clip-path="url(#pce49fad309)" d="M 201.20257 288.432 
L 206.397043 288.432 
L 206.397043 196.488342 
L 201.20257 196.488342 
z
" style="fill:#21918c;opacity:0.5;"/>
   </g>
   <g id="patch_75">
    <path clip-path="url(#pce49fad309)" d="M 207.695661 288.432 
L 212.890134 288.432 
L 212.890134 208.467718 
L 207.695661 208.467718 
z
" style="fill:#21918c;opacity:0.5;"/>
   </g>
   <g id="patch_76">
    <path clip-path="url(#pce49fad309)" d="M 214.188752 288.432 
L 219.383225 288.432 
L 219.383225 222.735525 
L 214.188752 222.735525 
z
" style="fill:#21918c;opacity:0.5;"/>
   </g>
   <g id="patch_77">
    <path clip-path="url(#pce49fad309)" d="M 220.681843 288.432 
L 225.876316 288.432 
L 225.876316 219.870212 
L 220.681843 219.870212 
z
" style="fill:#21918c;opacity:0.5;"/>
   </g>
   <g id="patch_78">
    <path clip-path="url(#pce49fad309)" d="M 227.174934 288.432 
L 232.369407 288.432 
L 232.369407 222.92006 
L 227.174934 222.92006 
z
" style="fill:#21918c;opacity:0.5;"/>
   </g>
   <g id="patch_79">
    <path clip-path="url(#pce49fad309)" d="M 233.668025 288.432 
L 238.862498 288.432 
L 238.862498 231.313658 
L 233.668025 231.313658 
z
" style="fill:#21918c;opacity:0.5;"/>
   </g>
   <g id="patch_80">
    <path clip-path="url(#pce49fad309)" d="M 240.161116 288.432 
L 245.355589 288.432 
L 245.355589 233.637651 
L 240.161116 233.637651 
z
" style="fill:#21918c;opacity:0.5;"/>
   </g>
   <g id="patch_81">
    <path clip-path="url(#pce49fad309)" d="M 246.654207 288.432 
L 251.84868 288.432 
L 251.84868 239.451916 
L 246.654207 239.451916 
z
" style="fill:#21918c;opacity:0.5;"/>
   </g>
   <g id="patch_82">
    <path clip-path="url(#pce49fad309)" d="M 253.147298 288.432 
L 258.34177 288.432 
L 258.34177 241.948821 
L 253.147298 241.948821 
z
" style="fill:#21918c;opacity:0.5;"/>
   </g>
   <g id="patch_83">
    <path clip-path="url(#pce49fad309)" d="M 259.640389 288.432 
L 264.834861 288.432 
L 264.834861 243.998735 
L 259.640389 243.998735 
z
" style="fill:#21918c;opacity:0.5;"/>
   </g>
   <g id="patch_84">
    <path clip-path="url(#pce49fad309)" d="M 266.13348 288.432 
L 271.327952 288.432 
L 271.327952 249.196181 
L 266.13348 249.196181 
z
" style="fill:#21918c;opacity:0.5;"/>
   </g>
   <g id="patch_85">
    <path clip-path="url(#pce49fad309)" d="M 272.62657 288.432 
L 277.821043 288.432 
L 277.821043 251.351208 
L 272.62657 251.351208 
z
" style="fill:#21918c;opacity:0.5;"/>
   </g>
   <g id="patch_86">
    <path clip-path="url(#pce49fad309)" d="M 279.119661 288.432 
L 284.314134 288.432 
L 284.314134 253.639046 
L 279.119661 253.639046 
z
" style="fill:#21918c;opacity:0.5;"/>
   </g>
   <g id="patch_87">
    <path clip-path="url(#pce49fad309)" d="M 285.612752 288.432 
L 290.807225 288.432 
L 290.807225 250.317028 
L 285.612752 250.317028 
z
" style="fill:#21918c;opacity:0.5;"/>
   </g>
   <g id="patch_88">
    <path clip-path="url(#pce49fad309)" d="M 292.105843 288.432 
L 297.300316 288.432 
L 297.300316 252.419857 
L 292.105843 252.419857 
z
" style="fill:#21918c;opacity:0.5;"/>
   </g>
   <g id="patch_89">
    <path clip-path="url(#pce49fad309)" d="M 298.598934 288.432 
L 303.793407 288.432 
L 303.793407 253.322534 
L 298.598934 253.322534 
z
" style="fill:#21918c;opacity:0.5;"/>
   </g>
   <g id="patch_90">
    <path clip-path="url(#pce49fad309)" d="M 305.092025 288.432 
L 310.286498 288.432 
L 310.286498 254.321999 
L 305.092025 254.321999 
z
" style="fill:#21918c;opacity:0.5;"/>
   </g>
   <g id="patch_91">
    <path clip-path="url(#pce49fad309)" d="M 311.585116 288.432 
L 316.779589 288.432 
L 316.779589 256.162651 
L 311.585116 256.162651 
z
" style="fill:#21918c;opacity:0.5;"/>
   </g>
   <g id="patch_92">
    <path clip-path="url(#pce49fad309)" d="M 318.078207 288.432 
L 323.27268 288.432 
L 323.27268 255.346884 
L 318.078207 255.346884 
z
" style="fill:#21918c;opacity:0.5;"/>
   </g>
   <g id="patch_93">
    <path clip-path="url(#pce49fad309)" d="M 324.571298 288.432 
L 329.76577 288.432 
L 329.76577 262.544768 
L 324.571298 262.544768 
z
" style="fill:#21918c;opacity:0.5;"/>
   </g>
   <g id="patch_94">
    <path clip-path="url(#pce49fad309)" d="M 331.064389 288.432 
L 336.258861 288.432 
L 336.258861 263.782258 
L 331.064389 263.782258 
z
" style="fill:#21918c;opacity:0.5;"/>
   </g>
   <g id="patch_95">
    <path clip-path="url(#pce49fad309)" d="M 337.55748 288.432 
L 342.751952 288.432 
L 342.751952 258.866149 
L 337.55748 258.866149 
z
" style="fill:#21918c;opacity:0.5;"/>
   </g>
   <g id="patch_96">
    <path clip-path="url(#pce49fad309)" d="M 344.05057 288.432 
L 349.245043 288.432 
L 349.245043 255.585652 
L 344.05057 255.585652 
z
" style="fill:#21918c;opacity:0.5;"/>
   </g>
   <g id="patch_97">
    <path clip-path="url(#pce49fad309)" d="M 350.543661 288.432 
L 355.738134 288.432 
L 355.738134 257.59995 
L 350.543661 257.59995 
z
" style="fill:#21918c;opacity:0.5;"/>
   </g>
   <g id="patch_98">
    <path clip-path="url(#pce49fad309)" d="M 357.036752 288.432 
L 362.231225 288.432 
L 362.231225 264.69688 
L 357.036752 264.69688 
z
" style="fill:#21918c;opacity:0.5;"/>
   </g>
   <g id="patch_99">
    <path clip-path="url(#pce49fad309)" d="M 363.529843 288.432 
L 368.724316 288.432 
L 368.724316 262.644366 
L 363.529843 262.644366 
z
" style="fill:#21918c;opacity:0.5;"/>
   </g>
   <g id="patch_100">
    <path clip-path="url(#pce49fad309)" d="M 370.022934 288.432 
L 375.217407 288.432 
L 375.217407 263.912869 
L 370.022934 263.912869 
z
" style="fill:#21918c;opacity:0.5;"/>
   </g>
   <g id="patch_101">
    <path clip-path="url(#pce49fad309)" d="M 376.516025 288.432 
L 381.710498 288.432 
L 381.710498 259.758193 
L 376.516025 259.758193 
z
" style="fill:#21918c;opacity:0.5;"/>
   </g>
   <g id="patch_102">
    <path clip-path="url(#pce49fad309)" d="M 383.009116 288.432 
L 388.203589 288.432 
L 388.203589 268.713783 
L 383.009116 268.713783 
z
" style="fill:#21918c;opacity:0.5;"/>
   </g>
   <g id="patch_103">
    <path clip-path="url(#pce49fad309)" d="M 64.847661 288.432 
L 70.042134 288.432 
L 70.042134 249.386831 
L 64.847661 249.386831 
z
" style="fill:#fde725;opacity:0.5;"/>
   </g>
   <g id="patch_104">
    <path clip-path="url(#pce49fad309)" d="M 71.340752 288.432 
L 76.535225 288.432 
L 76.535225 272.870447 
L 71.340752 272.870447 
z
" style="fill:#fde725;opacity:0.5;"/>
   </g>
   <g id="patch_105">
    <path clip-path="url(#pce49fad309)" d="M 77.833843 288.432 
L 83.028316 288.432 
L 83.028316 269.802981 
L 77.833843 269.802981 
z
" style="fill:#fde725;opacity:0.5;"/>
   </g>
   <g id="patch_106">
    <path clip-path="url(#pce49fad309)" d="M 84.326934 288.432 
L 89.521407 288.432 
L 89.521407 273.817011 
L 84.326934 273.817011 
z
" style="fill:#fde725;opacity:0.5;"/>
   </g>
   <g id="patch_107">
    <path clip-path="url(#pce49fad309)" d="M 90.820025 288.432 
L 96.014498 288.432 
L 96.014498 273.363582 
L 90.820025 273.363582 
z
" style="fill:#fde725;opacity:0.5;"/>
   </g>
   <g id="patch_108">
    <path clip-path="url(#pce49fad309)" d="M 97.313116 288.432 
L 102.507589 288.432 
L 102.507589 275.620703 
L 97.313116 275.620703 
z
" style="fill:#fde725;opacity:0.5;"/>
   </g>
   <g id="patch_109">
    <path clip-path="url(#pce49fad309)" d="M 103.806207 288.432 
L 109.00068 288.432 
L 109.00068 274.460083 
L 103.806207 274.460083 
z
" style="fill:#fde725;opacity:0.5;"/>
   </g>
   <g id="patch_110">
    <path clip-path="url(#pce49fad309)" d="M 110.299298 288.432 
L 115.49377 288.432 
L 115.49377 270.937284 
L 110.299298 270.937284 
z
" style="fill:#fde725;opacity:0.5;"/>
   </g>
   <g id="patch_111">
    <path clip-path="url(#pce49fad309)" d="M 116.792389 288.432 
L 121.986861 288.432 
L 121.986861 265.947218 
L 116.792389 265.947218 
z
" style="fill:#fde725;opacity:0.5;"/>
   </g>
   <g id="patch_112">
    <path clip-path="url(#pce49fad309)" d="M 123.28548 288.432 
L 128.479952 288.432 
L 128.479952 263.578651 
L 123.28548 263.578651 
z
" style="fill:#fde725;opacity:0.5;"/>
   </g>
   <g id="patch_113">
    <path clip-path="url(#pce49fad309)" d="M 129.77857 288.432 
L 134.973043 288.432 
L 134.973043 245.29843 
L 129.77857 245.29843 
z
" style="fill:#fde725;opacity:0.5;"/>
   </g>
   <g id="patch_114">
    <path clip-path="url(#pce49fad309)" d="M 136.271661 288.432 
L 141.466134 288.432 
L 141.466134 237.949373 
L 136.271661 237.949373 
z
" style="fill:#fde725;opacity:0.5;"/>
   </g>
   <g id="patch_115">
    <path clip-path="url(#pce49fad309)" d="M 142.764752 288.432 
L 147.959225 288.432 
L 147.959225 221.408461 
L 142.764752 221.408461 
z
" style="fill:#fde725;opacity:0.5;"/>
   </g>
   <g id="patch_116">
    <path clip-path="url(#pce49fad309)" d="M 149.257843 288.432 
L 154.452316 288.432 
L 154.452316 205.065835 
L 149.257843 205.065835 
z
" style="fill:#fde725;opacity:0.5;"/>
   </g>
   <g id="patch_117">
    <path clip-path="url(#pce49fad309)" d="M 155.750934 288.432 
L 160.945407 288.432 
L 160.945407 195.109857 
L 155.750934 195.109857 
z
" style="fill:#fde725;opacity:0.5;"/>
   </g>
   <g id="patch_118">
    <path clip-path="url(#pce49fad309)" d="M 162.244025 288.432 
L 167.438498 288.432 
L 167.438498 172.793588 
L 162.244025 172.793588 
z
" style="fill:#fde725;opacity:0.5;"/>
   </g>
   <g id="patch_119">
    <path clip-path="url(#pce49fad309)" d="M 168.737116 288.432 
L 173.931589 288.432 
L 173.931589 179.106542 
L 168.737116 179.106542 
z
" style="fill:#fde725;opacity:0.5;"/>
   </g>
   <g id="patch_120">
    <path clip-path="url(#pce49fad309)" d="M 175.230207 288.432 
L 180.42468 288.432 
L 180.42468 180.674565 
L 175.230207 180.674565 
z
" style="fill:#fde725;opacity:0.5;"/>
   </g>
   <g id="patch_121">
    <path clip-path="url(#pce49fad309)" d="M 181.723298 288.432 
L 186.91777 288.432 
L 186.91777 186.454557 
L 181.723298 186.454557 
z
" style="fill:#fde725;opacity:0.5;"/>
   </g>
   <g id="patch_122">
    <path clip-path="url(#pce49fad309)" d="M 188.216389 288.432 
L 193.410861 288.432 
L 193.410861 187.837467 
L 188.216389 187.837467 
z
" style="fill:#fde725;opacity:0.5;"/>
   </g>
   <g id="patch_123">
    <path clip-path="url(#pce49fad309)" d="M 194.70948 288.432 
L 199.903952 288.432 
L 199.903952 189.997382 
L 194.70948 189.997382 
z
" style="fill:#fde725;opacity:0.5;"/>
   </g>
   <g id="patch_124">
    <path clip-path="url(#pce49fad309)" d="M 201.20257 288.432 
L 206.397043 288.432 
L 206.397043 202.464813 
L 201.20257 202.464813 
z
" style="fill:#fde725;opacity:0.5;"/>
   </g>
   <g id="patch_125">
    <path clip-path="url(#pce49fad309)" d="M 207.695661 288.432 
L 212.890134 288.432 
L 212.890134 204.437544 
L 207.695661 204.437544 
z
" style="fill:#fde725;opacity:0.5;"/>
   </g>
   <g id="patch_126">
    <path clip-path="url(#pce49fad309)" d="M 214.188752 288.432 
L 219.383225 288.432 
L 219.383225 212.429173 
L 214.188752 212.429173 
z
" style="fill:#fde725;opacity:0.5;"/>
   </g>
   <g id="patch_127">
    <path clip-path="url(#pce49fad309)" d="M 220.681843 288.432 
L 225.876316 288.432 
L 225.876316 215.491419 
L 220.681843 215.491419 
z
" style="fill:#fde725;opacity:0.5;"/>
   </g>
   <g id="patch_128">
    <path clip-path="url(#pce49fad309)" d="M 227.174934 288.432 
L 232.369407 288.432 
L 232.369407 225.885414 
L 227.174934 225.885414 
z
" style="fill:#fde725;opacity:0.5;"/>
   </g>
   <g id="patch_129">
    <path clip-path="url(#pce49fad309)" d="M 233.668025 288.432 
L 238.862498 288.432 
L 238.862498 226.384841 
L 233.668025 226.384841 
z
" style="fill:#fde725;opacity:0.5;"/>
   </g>
   <g id="patch_130">
    <path clip-path="url(#pce49fad309)" d="M 240.161116 288.432 
L 245.355589 288.432 
L 245.355589 236.546093 
L 240.161116 236.546093 
z
" style="fill:#fde725;opacity:0.5;"/>
   </g>
   <g id="patch_131">
    <path clip-path="url(#pce49fad309)" d="M 246.654207 288.432 
L 251.84868 288.432 
L 251.84868 228.61647 
L 246.654207 228.61647 
z
" style="fill:#fde725;opacity:0.5;"/>
   </g>
   <g id="patch_132">
    <path clip-path="url(#pce49fad309)" d="M 253.147298 288.432 
L 258.34177 288.432 
L 258.34177 239.865526 
L 253.147298 239.865526 
z
" style="fill:#fde725;opacity:0.5;"/>
   </g>
   <g id="patch_133">
    <path clip-path="url(#pce49fad309)" d="M 259.640389 288.432 
L 264.834861 288.432 
L 264.834861 240.94163 
L 259.640389 240.94163 
z
" style="fill:#fde725;opacity:0.5;"/>
   </g>
   <g id="patch_134">
    <path clip-path="url(#pce49fad309)" d="M 266.13348 288.432 
L 271.327952 288.432 
L 271.327952 245.315363 
L 266.13348 245.315363 
z
" style="fill:#fde725;opacity:0.5;"/>
   </g>
   <g id="patch_135">
    <path clip-path="url(#pce49fad309)" d="M 272.62657 288.432 
L 277.821043 288.432 
L 277.821043 241.995318 
L 272.62657 241.995318 
z
" style="fill:#fde725;opacity:0.5;"/>
   </g>
   <g id="patch_136">
    <path clip-path="url(#pce49fad309)" d="M 279.119661 288.432 
L 284.314134 288.432 
L 284.314134 241.79513 
L 279.119661 241.79513 
z
" style="fill:#fde725;opacity:0.5;"/>
   </g>
   <g id="patch_137">
    <path clip-path="url(#pce49fad309)" d="M 285.612752 288.432 
L 290.807225 288.432 
L 290.807225 250.993639 
L 285.612752 250.993639 
z
" style="fill:#fde725;opacity:0.5;"/>
   </g>
   <g id="patch_138">
    <path clip-path="url(#pce49fad309)" d="M 292.105843 288.432 
L 297.300316 288.432 
L 297.300316 246.483632 
L 292.105843 246.483632 
z
" style="fill:#fde725;opacity:0.5;"/>
   </g>
   <g id="patch_139">
    <path clip-path="url(#pce49fad309)" d="M 298.598934 288.432 
L 303.793407 288.432 
L 303.793407 247.78197 
L 298.598934 247.78197 
z
" style="fill:#fde725;opacity:0.5;"/>
   </g>
   <g id="patch_140">
    <path clip-path="url(#pce49fad309)" d="M 305.092025 288.432 
L 310.286498 288.432 
L 310.286498 249.630037 
L 305.092025 249.630037 
z
" style="fill:#fde725;opacity:0.5;"/>
   </g>
   <g id="patch_141">
    <path clip-path="url(#pce49fad309)" d="M 311.585116 288.432 
L 316.779589 288.432 
L 316.779589 247.096502 
L 311.585116 247.096502 
z
" style="fill:#fde725;opacity:0.5;"/>
   </g>
   <g id="patch_142">
    <path clip-path="url(#pce49fad309)" d="M 318.078207 288.432 
L 323.27268 288.432 
L 323.27268 255.832706 
L 318.078207 255.832706 
z
" style="fill:#fde725;opacity:0.5;"/>
   </g>
   <g id="patch_143">
    <path clip-path="url(#pce49fad309)" d="M 324.571298 288.432 
L 329.76577 288.432 
L 329.76577 254.16534 
L 324.571298 254.16534 
z
" style="fill:#fde725;opacity:0.5;"/>
   </g>
   <g id="patch_144">
    <path clip-path="url(#pce49fad309)" d="M 331.064389 288.432 
L 336.258861 288.432 
L 336.258861 255.591043 
L 331.064389 255.591043 
z
" style="fill:#fde725;opacity:0.5;"/>
   </g>
   <g id="patch_145">
    <path clip-path="url(#pce49fad309)" d="M 337.55748 288.432 
L 342.751952 288.432 
L 342.751952 253.672006 
L 337.55748 253.672006 
z
" style="fill:#fde725;opacity:0.5;"/>
   </g>
   <g id="patch_146">
    <path clip-path="url(#pce49fad309)" d="M 344.05057 288.432 
L 349.245043 288.432 
L 349.245043 259.351888 
L 344.05057 259.351888 
z
" style="fill:#fde725;opacity:0.5;"/>
   </g>
   <g id="patch_147">
    <path clip-path="url(#pce49fad309)" d="M 350.543661 288.432 
L 355.738134 288.432 
L 355.738134 257.41741 
L 350.543661 257.41741 
z
" style="fill:#fde725;opacity:0.5;"/>
   </g>
   <g id="patch_148">
    <path clip-path="url(#pce49fad309)" d="M 357.036752 288.432 
L 362.231225 288.432 
L 362.231225 255.518461 
L 357.036752 255.518461 
z
" style="fill:#fde725;opacity:0.5;"/>
   </g>
   <g id="patch_149">
    <path clip-path="url(#pce49fad309)" d="M 363.529843 288.432 
L 368.724316 288.432 
L 368.724316 258.730353 
L 363.529843 258.730353 
z
" style="fill:#fde725;opacity:0.5;"/>
   </g>
   <g id="patch_150">
    <path clip-path="url(#pce49fad309)" d="M 370.022934 288.432 
L 375.217407 288.432 
L 375.217407 257.303595 
L 370.022934 257.303595 
z
" style="fill:#fde725;opacity:0.5;"/>
   </g>
   <g id="patch_151">
    <path clip-path="url(#pce49fad309)" d="M 376.516025 288.432 
L 381.710498 288.432 
L 381.710498 257.865037 
L 376.516025 257.865037 
z
" style="fill:#fde725;opacity:0.5;"/>
   </g>
   <g id="patch_152">
    <path clip-path="url(#pce49fad309)" d="M 383.009116 288.432 
L 388.203589 288.432 
L 388.203589 258.318984 
L 383.009116 258.318984 
z
" style="fill:#fde725;opacity:0.5;"/>
   </g>
   <g id="matplotlib.axis_1">
    <g id="xtick_1">
     <g id="line2d_1">
      <defs>
       <path d="M 0 0 
L 0 3.5 
" id="mec06a4971b" style="stroke:#000000;stroke-width:0.8;"/>
      </defs>
      <g>
       <use style="stroke:#000000;stroke-width:0.8;" x="64.198352" xlink:href="#mec06a4971b" y="289.432"/>
      </g>
     </g>
     <g id="text_1">
      <!-- 0 -->
      <defs>
       <path d="M 31.78125 66.40625 
Q 24.171875 66.40625 20.328125 58.90625 
Q 16.5 51.421875 16.5 36.375 
Q 16.5 21.390625 20.328125 13.890625 
Q 24.171875 6.390625 31.78125 6.390625 
Q 39.453125 6.390625 43.28125 13.890625 
Q 47.125 21.390625 47.125 36.375 
Q 47.125 51.421875 43.28125 58.90625 
Q 39.453125 66.40625 31.78125 66.40625 
z
M 31.78125 74.21875 
Q 44.046875 74.21875 50.515625 64.515625 
Q 56.984375 54.828125 56.984375 36.375 
Q 56.984375 17.96875 50.515625 8.265625 
Q 44.046875 -1.421875 31.78125 -1.421875 
Q 19.53125 -1.421875 13.0625 8.265625 
Q 6.59375 17.96875 6.59375 36.375 
Q 6.59375 54.828125 13.0625 64.515625 
Q 19.53125 74.21875 31.78125 74.21875 
z
" id="DejaVuSans-48"/>
      </defs>
      <g transform="translate(61.017102 304.030437)scale(0.1 -0.1)">
       <use xlink:href="#DejaVuSans-48"/>
      </g>
     </g>
    </g>
    <g id="xtick_2">
     <g id="line2d_2">
      <g>
       <use style="stroke:#000000;stroke-width:0.8;" x="129.129261" xlink:href="#mec06a4971b" y="289.432"/>
      </g>
     </g>
     <g id="text_2">
      <!-- 1 -->
      <defs>
       <path d="M 12.40625 8.296875 
L 28.515625 8.296875 
L 28.515625 63.921875 
L 10.984375 60.40625 
L 10.984375 69.390625 
L 28.421875 72.90625 
L 38.28125 72.90625 
L 38.28125 8.296875 
L 54.390625 8.296875 
L 54.390625 0 
L 12.40625 0 
z
" id="DejaVuSans-49"/>
      </defs>
      <g transform="translate(125.948011 304.030437)scale(0.1 -0.1)">
       <use xlink:href="#DejaVuSans-49"/>
      </g>
     </g>
    </g>
    <g id="xtick_3">
     <g id="line2d_3">
      <g>
       <use style="stroke:#000000;stroke-width:0.8;" x="194.06017" xlink:href="#mec06a4971b" y="289.432"/>
      </g>
     </g>
     <g id="text_3">
      <!-- 2 -->
      <defs>
       <path d="M 19.1875 8.296875 
L 53.609375 8.296875 
L 53.609375 0 
L 7.328125 0 
L 7.328125 8.296875 
Q 12.9375 14.109375 22.625 23.890625 
Q 32.328125 33.6875 34.8125 36.53125 
Q 39.546875 41.84375 41.421875 45.53125 
Q 43.3125 49.21875 43.3125 52.78125 
Q 43.3125 58.59375 39.234375 62.25 
Q 35.15625 65.921875 28.609375 65.921875 
Q 23.96875 65.921875 18.8125 64.3125 
Q 13.671875 62.703125 7.8125 59.421875 
L 7.8125 69.390625 
Q 13.765625 71.78125 18.9375 73 
Q 24.125 74.21875 28.421875 74.21875 
Q 39.75 74.21875 46.484375 68.546875 
Q 53.21875 62.890625 53.21875 53.421875 
Q 53.21875 48.921875 51.53125 44.890625 
Q 49.859375 40.875 45.40625 35.40625 
Q 44.1875 33.984375 37.640625 27.21875 
Q 31.109375 20.453125 19.1875 8.296875 
z
" id="DejaVuSans-50"/>
      </defs>
      <g transform="translate(190.87892 304.030437)scale(0.1 -0.1)">
       <use xlink:href="#DejaVuSans-50"/>
      </g>
     </g>
    </g>
    <g id="xtick_4">
     <g id="line2d_4">
      <g>
       <use style="stroke:#000000;stroke-width:0.8;" x="258.99108" xlink:href="#mec06a4971b" y="289.432"/>
      </g>
     </g>
     <g id="text_4">
      <!-- 3 -->
      <defs>
       <path d="M 40.578125 39.3125 
Q 47.65625 37.796875 51.625 33 
Q 55.609375 28.21875 55.609375 21.1875 
Q 55.609375 10.40625 48.1875 4.484375 
Q 40.765625 -1.421875 27.09375 -1.421875 
Q 22.515625 -1.421875 17.65625 -0.515625 
Q 12.796875 0.390625 7.625 2.203125 
L 7.625 11.71875 
Q 11.71875 9.328125 16.59375 8.109375 
Q 21.484375 6.890625 26.8125 6.890625 
Q 36.078125 6.890625 40.9375 10.546875 
Q 45.796875 14.203125 45.796875 21.1875 
Q 45.796875 27.640625 41.28125 31.265625 
Q 36.765625 34.90625 28.71875 34.90625 
L 20.21875 34.90625 
L 20.21875 43.015625 
L 29.109375 43.015625 
Q 36.375 43.015625 40.234375 45.921875 
Q 44.09375 48.828125 44.09375 54.296875 
Q 44.09375 59.90625 40.109375 62.90625 
Q 36.140625 65.921875 28.71875 65.921875 
Q 24.65625 65.921875 20.015625 65.03125 
Q 15.375 64.15625 9.8125 62.3125 
L 9.8125 71.09375 
Q 15.4375 72.65625 20.34375 73.4375 
Q 25.25 74.21875 29.59375 74.21875 
Q 40.828125 74.21875 47.359375 69.109375 
Q 53.90625 64.015625 53.90625 55.328125 
Q 53.90625 49.265625 50.4375 45.09375 
Q 46.96875 40.921875 40.578125 39.3125 
z
" id="DejaVuSans-51"/>
      </defs>
      <g transform="translate(255.80983 304.030437)scale(0.1 -0.1)">
       <use xlink:href="#DejaVuSans-51"/>
      </g>
     </g>
    </g>
    <g id="xtick_5">
     <g id="line2d_5">
      <g>
       <use style="stroke:#000000;stroke-width:0.8;" x="323.921989" xlink:href="#mec06a4971b" y="289.432"/>
      </g>
     </g>
     <g id="text_5">
      <!-- 4 -->
      <defs>
       <path d="M 37.796875 64.3125 
L 12.890625 25.390625 
L 37.796875 25.390625 
z
M 35.203125 72.90625 
L 47.609375 72.90625 
L 47.609375 25.390625 
L 58.015625 25.390625 
L 58.015625 17.1875 
L 47.609375 17.1875 
L 47.609375 0 
L 37.796875 0 
L 37.796875 17.1875 
L 4.890625 17.1875 
L 4.890625 26.703125 
z
" id="DejaVuSans-52"/>
      </defs>
      <g transform="translate(320.740739 304.030437)scale(0.1 -0.1)">
       <use xlink:href="#DejaVuSans-52"/>
      </g>
     </g>
    </g>
    <g id="xtick_6">
     <g id="line2d_6">
      <g>
       <use style="stroke:#000000;stroke-width:0.8;" x="388.852898" xlink:href="#mec06a4971b" y="289.432"/>
      </g>
     </g>
     <g id="text_6">
      <!-- 5 -->
      <defs>
       <path d="M 10.796875 72.90625 
L 49.515625 72.90625 
L 49.515625 64.59375 
L 19.828125 64.59375 
L 19.828125 46.734375 
Q 21.96875 47.46875 24.109375 47.828125 
Q 26.265625 48.1875 28.421875 48.1875 
Q 40.625 48.1875 47.75 41.5 
Q 54.890625 34.8125 54.890625 23.390625 
Q 54.890625 11.625 47.5625 5.09375 
Q 40.234375 -1.421875 26.90625 -1.421875 
Q 22.3125 -1.421875 17.546875 -0.640625 
Q 12.796875 0.140625 7.71875 1.703125 
L 7.71875 11.625 
Q 12.109375 9.234375 16.796875 8.0625 
Q 21.484375 6.890625 26.703125 6.890625 
Q 35.15625 6.890625 40.078125 11.328125 
Q 45.015625 15.765625 45.015625 23.390625 
Q 45.015625 31 40.078125 35.4375 
Q 35.15625 39.890625 26.703125 39.890625 
Q 22.75 39.890625 18.8125 39.015625 
Q 14.890625 38.140625 10.796875 36.28125 
z
" id="DejaVuSans-53"/>
      </defs>
      <g transform="translate(385.671648 304.030437)scale(0.1 -0.1)">
       <use xlink:href="#DejaVuSans-53"/>
      </g>
     </g>
    </g>
    <g id="text_7">
     <!-- $K_\mathrm{S}$ -->
     <defs>
      <path d="M 16.890625 72.90625 
L 26.8125 72.90625 
L 20.796875 42.1875 
L 59.078125 72.90625 
L 72.21875 72.90625 
L 28.90625 38.09375 
L 60.59375 0 
L 48.578125 0 
L 19.484375 35.5 
L 12.59375 0 
L 2.6875 0 
z
" id="DejaVuSans-Oblique-75"/>
      <path d="M 53.515625 70.515625 
L 53.515625 60.890625 
Q 47.90625 63.578125 42.921875 64.890625 
Q 37.9375 66.21875 33.296875 66.21875 
Q 25.25 66.21875 20.875 63.09375 
Q 16.5 59.96875 16.5 54.203125 
Q 16.5 49.359375 19.40625 46.890625 
Q 22.3125 44.4375 30.421875 42.921875 
L 36.375 41.703125 
Q 47.40625 39.59375 52.65625 34.296875 
Q 57.90625 29 57.90625 20.125 
Q 57.90625 9.515625 50.796875 4.046875 
Q 43.703125 -1.421875 29.984375 -1.421875 
Q 24.8125 -1.421875 18.96875 -0.25 
Q 13.140625 0.921875 6.890625 3.21875 
L 6.890625 13.375 
Q 12.890625 10.015625 18.65625 8.296875 
Q 24.421875 6.59375 29.984375 6.59375 
Q 38.421875 6.59375 43.015625 9.90625 
Q 47.609375 13.234375 47.609375 19.390625 
Q 47.609375 24.75 44.3125 27.78125 
Q 41.015625 30.8125 33.5 32.328125 
L 27.484375 33.5 
Q 16.453125 35.6875 11.515625 40.375 
Q 6.59375 45.0625 6.59375 53.421875 
Q 6.59375 63.09375 13.40625 68.65625 
Q 20.21875 74.21875 32.171875 74.21875 
Q 37.3125 74.21875 42.625 73.28125 
Q 47.953125 72.359375 53.515625 70.515625 
z
" id="DejaVuSans-83"/>
     </defs>
     <g transform="translate(220.875625 317.708562)scale(0.1 -0.1)">
      <use transform="translate(0 0.09375)" xlink:href="#DejaVuSans-Oblique-75"/>
      <use transform="translate(65.576172 -16.3125)scale(0.7)" xlink:href="#DejaVuSans-83"/>
     </g>
    </g>
   </g>
   <g id="matplotlib.axis_2">
    <g id="ytick_1">
     <g id="line2d_7">
      <defs>
       <path d="M 0 0 
L -3.5 0 
" id="m7bb57b1f64" style="stroke:#000000;stroke-width:0.8;"/>
      </defs>
      <g>
       <use style="stroke:#000000;stroke-width:0.8;" x="46.965625" xlink:href="#m7bb57b1f64" y="288.432"/>
      </g>
     </g>
     <g id="text_8">
      <!-- 0 -->
      <g transform="translate(33.603125 292.231219)scale(0.1 -0.1)">
       <use xlink:href="#DejaVuSans-48"/>
      </g>
     </g>
    </g>
    <g id="ytick_2">
     <g id="line2d_8">
      <g>
       <use style="stroke:#000000;stroke-width:0.8;" x="46.965625" xlink:href="#m7bb57b1f64" y="254.623085"/>
      </g>
     </g>
     <g id="text_9">
      <!-- 100 -->
      <g transform="translate(20.878125 258.422304)scale(0.1 -0.1)">
       <use xlink:href="#DejaVuSans-49"/>
       <use x="63.623047" xlink:href="#DejaVuSans-48"/>
       <use x="127.246094" xlink:href="#DejaVuSans-48"/>
      </g>
     </g>
    </g>
    <g id="ytick_3">
     <g id="line2d_9">
      <g>
       <use style="stroke:#000000;stroke-width:0.8;" x="46.965625" xlink:href="#m7bb57b1f64" y="220.81417"/>
      </g>
     </g>
     <g id="text_10">
      <!-- 200 -->
      <g transform="translate(20.878125 224.613388)scale(0.1 -0.1)">
       <use xlink:href="#DejaVuSans-50"/>
       <use x="63.623047" xlink:href="#DejaVuSans-48"/>
       <use x="127.246094" xlink:href="#DejaVuSans-48"/>
      </g>
     </g>
    </g>
    <g id="ytick_4">
     <g id="line2d_10">
      <g>
       <use style="stroke:#000000;stroke-width:0.8;" x="46.965625" xlink:href="#m7bb57b1f64" y="187.005254"/>
      </g>
     </g>
     <g id="text_11">
      <!-- 300 -->
      <g transform="translate(20.878125 190.804473)scale(0.1 -0.1)">
       <use xlink:href="#DejaVuSans-51"/>
       <use x="63.623047" xlink:href="#DejaVuSans-48"/>
       <use x="127.246094" xlink:href="#DejaVuSans-48"/>
      </g>
     </g>
    </g>
    <g id="ytick_5">
     <g id="line2d_11">
      <g>
       <use style="stroke:#000000;stroke-width:0.8;" x="46.965625" xlink:href="#m7bb57b1f64" y="153.196339"/>
      </g>
     </g>
     <g id="text_12">
      <!-- 400 -->
      <g transform="translate(20.878125 156.995558)scale(0.1 -0.1)">
       <use xlink:href="#DejaVuSans-52"/>
       <use x="63.623047" xlink:href="#DejaVuSans-48"/>
       <use x="127.246094" xlink:href="#DejaVuSans-48"/>
      </g>
     </g>
    </g>
    <g id="ytick_6">
     <g id="line2d_12">
      <g>
       <use style="stroke:#000000;stroke-width:0.8;" x="46.965625" xlink:href="#m7bb57b1f64" y="119.387424"/>
      </g>
     </g>
     <g id="text_13">
      <!-- 500 -->
      <g transform="translate(20.878125 123.186643)scale(0.1 -0.1)">
       <use xlink:href="#DejaVuSans-53"/>
       <use x="63.623047" xlink:href="#DejaVuSans-48"/>
       <use x="127.246094" xlink:href="#DejaVuSans-48"/>
      </g>
     </g>
    </g>
    <g id="ytick_7">
     <g id="line2d_13">
      <g>
       <use style="stroke:#000000;stroke-width:0.8;" x="46.965625" xlink:href="#m7bb57b1f64" y="85.578509"/>
      </g>
     </g>
     <g id="text_14">
      <!-- 600 -->
      <defs>
       <path d="M 33.015625 40.375 
Q 26.375 40.375 22.484375 35.828125 
Q 18.609375 31.296875 18.609375 23.390625 
Q 18.609375 15.53125 22.484375 10.953125 
Q 26.375 6.390625 33.015625 6.390625 
Q 39.65625 6.390625 43.53125 10.953125 
Q 47.40625 15.53125 47.40625 23.390625 
Q 47.40625 31.296875 43.53125 35.828125 
Q 39.65625 40.375 33.015625 40.375 
z
M 52.59375 71.296875 
L 52.59375 62.3125 
Q 48.875 64.0625 45.09375 64.984375 
Q 41.3125 65.921875 37.59375 65.921875 
Q 27.828125 65.921875 22.671875 59.328125 
Q 17.53125 52.734375 16.796875 39.40625 
Q 19.671875 43.65625 24.015625 45.921875 
Q 28.375 48.1875 33.59375 48.1875 
Q 44.578125 48.1875 50.953125 41.515625 
Q 57.328125 34.859375 57.328125 23.390625 
Q 57.328125 12.15625 50.6875 5.359375 
Q 44.046875 -1.421875 33.015625 -1.421875 
Q 20.359375 -1.421875 13.671875 8.265625 
Q 6.984375 17.96875 6.984375 36.375 
Q 6.984375 53.65625 15.1875 63.9375 
Q 23.390625 74.21875 37.203125 74.21875 
Q 40.921875 74.21875 44.703125 73.484375 
Q 48.484375 72.75 52.59375 71.296875 
z
" id="DejaVuSans-54"/>
      </defs>
      <g transform="translate(20.878125 89.377728)scale(0.1 -0.1)">
       <use xlink:href="#DejaVuSans-54"/>
       <use x="63.623047" xlink:href="#DejaVuSans-48"/>
       <use x="127.246094" xlink:href="#DejaVuSans-48"/>
      </g>
     </g>
    </g>
    <g id="ytick_8">
     <g id="line2d_14">
      <g>
       <use style="stroke:#000000;stroke-width:0.8;" x="46.965625" xlink:href="#m7bb57b1f64" y="51.769594"/>
      </g>
     </g>
     <g id="text_15">
      <!-- 700 -->
      <defs>
       <path d="M 8.203125 72.90625 
L 55.078125 72.90625 
L 55.078125 68.703125 
L 28.609375 0 
L 18.3125 0 
L 43.21875 64.59375 
L 8.203125 64.59375 
z
" id="DejaVuSans-55"/>
      </defs>
      <g transform="translate(20.878125 55.568813)scale(0.1 -0.1)">
       <use xlink:href="#DejaVuSans-55"/>
       <use x="63.623047" xlink:href="#DejaVuSans-48"/>
       <use x="127.246094" xlink:href="#DejaVuSans-48"/>
      </g>
     </g>
    </g>
    <g id="text_16">
     <!-- Homologous pairs -->
     <defs>
      <path d="M 9.8125 72.90625 
L 19.671875 72.90625 
L 19.671875 43.015625 
L 55.515625 43.015625 
L 55.515625 72.90625 
L 65.375 72.90625 
L 65.375 0 
L 55.515625 0 
L 55.515625 34.71875 
L 19.671875 34.71875 
L 19.671875 0 
L 9.8125 0 
z
" id="DejaVuSans-72"/>
      <path d="M 30.609375 48.390625 
Q 23.390625 48.390625 19.1875 42.75 
Q 14.984375 37.109375 14.984375 27.296875 
Q 14.984375 17.484375 19.15625 11.84375 
Q 23.34375 6.203125 30.609375 6.203125 
Q 37.796875 6.203125 41.984375 11.859375 
Q 46.1875 17.53125 46.1875 27.296875 
Q 46.1875 37.015625 41.984375 42.703125 
Q 37.796875 48.390625 30.609375 48.390625 
z
M 30.609375 56 
Q 42.328125 56 49.015625 48.375 
Q 55.71875 40.765625 55.71875 27.296875 
Q 55.71875 13.875 49.015625 6.21875 
Q 42.328125 -1.421875 30.609375 -1.421875 
Q 18.84375 -1.421875 12.171875 6.21875 
Q 5.515625 13.875 5.515625 27.296875 
Q 5.515625 40.765625 12.171875 48.375 
Q 18.84375 56 30.609375 56 
z
" id="DejaVuSans-111"/>
      <path d="M 52 44.1875 
Q 55.375 50.25 60.0625 53.125 
Q 64.75 56 71.09375 56 
Q 79.640625 56 84.28125 50.015625 
Q 88.921875 44.046875 88.921875 33.015625 
L 88.921875 0 
L 79.890625 0 
L 79.890625 32.71875 
Q 79.890625 40.578125 77.09375 44.375 
Q 74.3125 48.1875 68.609375 48.1875 
Q 61.625 48.1875 57.5625 43.546875 
Q 53.515625 38.921875 53.515625 30.90625 
L 53.515625 0 
L 44.484375 0 
L 44.484375 32.71875 
Q 44.484375 40.625 41.703125 44.40625 
Q 38.921875 48.1875 33.109375 48.1875 
Q 26.21875 48.1875 22.15625 43.53125 
Q 18.109375 38.875 18.109375 30.90625 
L 18.109375 0 
L 9.078125 0 
L 9.078125 54.6875 
L 18.109375 54.6875 
L 18.109375 46.1875 
Q 21.1875 51.21875 25.484375 53.609375 
Q 29.78125 56 35.6875 56 
Q 41.65625 56 45.828125 52.96875 
Q 50 49.953125 52 44.1875 
z
" id="DejaVuSans-109"/>
      <path d="M 9.421875 75.984375 
L 18.40625 75.984375 
L 18.40625 0 
L 9.421875 0 
z
" id="DejaVuSans-108"/>
      <path d="M 45.40625 27.984375 
Q 45.40625 37.75 41.375 43.109375 
Q 37.359375 48.484375 30.078125 48.484375 
Q 22.859375 48.484375 18.828125 43.109375 
Q 14.796875 37.75 14.796875 27.984375 
Q 14.796875 18.265625 18.828125 12.890625 
Q 22.859375 7.515625 30.078125 7.515625 
Q 37.359375 7.515625 41.375 12.890625 
Q 45.40625 18.265625 45.40625 27.984375 
z
M 54.390625 6.78125 
Q 54.390625 -7.171875 48.1875 -13.984375 
Q 42 -20.796875 29.203125 -20.796875 
Q 24.46875 -20.796875 20.265625 -20.09375 
Q 16.0625 -19.390625 12.109375 -17.921875 
L 12.109375 -9.1875 
Q 16.0625 -11.328125 19.921875 -12.34375 
Q 23.78125 -13.375 27.78125 -13.375 
Q 36.625 -13.375 41.015625 -8.765625 
Q 45.40625 -4.15625 45.40625 5.171875 
L 45.40625 9.625 
Q 42.625 4.78125 38.28125 2.390625 
Q 33.9375 0 27.875 0 
Q 17.828125 0 11.671875 7.65625 
Q 5.515625 15.328125 5.515625 27.984375 
Q 5.515625 40.671875 11.671875 48.328125 
Q 17.828125 56 27.875 56 
Q 33.9375 56 38.28125 53.609375 
Q 42.625 51.21875 45.40625 46.390625 
L 45.40625 54.6875 
L 54.390625 54.6875 
z
" id="DejaVuSans-103"/>
      <path d="M 8.5 21.578125 
L 8.5 54.6875 
L 17.484375 54.6875 
L 17.484375 21.921875 
Q 17.484375 14.15625 20.5 10.265625 
Q 23.53125 6.390625 29.59375 6.390625 
Q 36.859375 6.390625 41.078125 11.03125 
Q 45.3125 15.671875 45.3125 23.6875 
L 45.3125 54.6875 
L 54.296875 54.6875 
L 54.296875 0 
L 45.3125 0 
L 45.3125 8.40625 
Q 42.046875 3.421875 37.71875 1 
Q 33.40625 -1.421875 27.6875 -1.421875 
Q 18.265625 -1.421875 13.375 4.4375 
Q 8.5 10.296875 8.5 21.578125 
z
M 31.109375 56 
z
" id="DejaVuSans-117"/>
      <path d="M 44.28125 53.078125 
L 44.28125 44.578125 
Q 40.484375 46.53125 36.375 47.5 
Q 32.28125 48.484375 27.875 48.484375 
Q 21.1875 48.484375 17.84375 46.4375 
Q 14.5 44.390625 14.5 40.28125 
Q 14.5 37.15625 16.890625 35.375 
Q 19.28125 33.59375 26.515625 31.984375 
L 29.59375 31.296875 
Q 39.15625 29.25 43.1875 25.515625 
Q 47.21875 21.78125 47.21875 15.09375 
Q 47.21875 7.46875 41.1875 3.015625 
Q 35.15625 -1.421875 24.609375 -1.421875 
Q 20.21875 -1.421875 15.453125 -0.5625 
Q 10.6875 0.296875 5.421875 2 
L 5.421875 11.28125 
Q 10.40625 8.6875 15.234375 7.390625 
Q 20.0625 6.109375 24.8125 6.109375 
Q 31.15625 6.109375 34.5625 8.28125 
Q 37.984375 10.453125 37.984375 14.40625 
Q 37.984375 18.0625 35.515625 20.015625 
Q 33.0625 21.96875 24.703125 23.78125 
L 21.578125 24.515625 
Q 13.234375 26.265625 9.515625 29.90625 
Q 5.8125 33.546875 5.8125 39.890625 
Q 5.8125 47.609375 11.28125 51.796875 
Q 16.75 56 26.8125 56 
Q 31.78125 56 36.171875 55.265625 
Q 40.578125 54.546875 44.28125 53.078125 
z
" id="DejaVuSans-115"/>
      <path id="DejaVuSans-32"/>
      <path d="M 18.109375 8.203125 
L 18.109375 -20.796875 
L 9.078125 -20.796875 
L 9.078125 54.6875 
L 18.109375 54.6875 
L 18.109375 46.390625 
Q 20.953125 51.265625 25.265625 53.625 
Q 29.59375 56 35.59375 56 
Q 45.5625 56 51.78125 48.09375 
Q 58.015625 40.1875 58.015625 27.296875 
Q 58.015625 14.40625 51.78125 6.484375 
Q 45.5625 -1.421875 35.59375 -1.421875 
Q 29.59375 -1.421875 25.265625 0.953125 
Q 20.953125 3.328125 18.109375 8.203125 
z
M 48.6875 27.296875 
Q 48.6875 37.203125 44.609375 42.84375 
Q 40.53125 48.484375 33.40625 48.484375 
Q 26.265625 48.484375 22.1875 42.84375 
Q 18.109375 37.203125 18.109375 27.296875 
Q 18.109375 17.390625 22.1875 11.75 
Q 26.265625 6.109375 33.40625 6.109375 
Q 40.53125 6.109375 44.609375 11.75 
Q 48.6875 17.390625 48.6875 27.296875 
z
" id="DejaVuSans-112"/>
      <path d="M 34.28125 27.484375 
Q 23.390625 27.484375 19.1875 25 
Q 14.984375 22.515625 14.984375 16.5 
Q 14.984375 11.71875 18.140625 8.90625 
Q 21.296875 6.109375 26.703125 6.109375 
Q 34.1875 6.109375 38.703125 11.40625 
Q 43.21875 16.703125 43.21875 25.484375 
L 43.21875 27.484375 
z
M 52.203125 31.203125 
L 52.203125 0 
L 43.21875 0 
L 43.21875 8.296875 
Q 40.140625 3.328125 35.546875 0.953125 
Q 30.953125 -1.421875 24.3125 -1.421875 
Q 15.921875 -1.421875 10.953125 3.296875 
Q 6 8.015625 6 15.921875 
Q 6 25.140625 12.171875 29.828125 
Q 18.359375 34.515625 30.609375 34.515625 
L 43.21875 34.515625 
L 43.21875 35.40625 
Q 43.21875 41.609375 39.140625 45 
Q 35.0625 48.390625 27.6875 48.390625 
Q 23 48.390625 18.546875 47.265625 
Q 14.109375 46.140625 10.015625 43.890625 
L 10.015625 52.203125 
Q 14.9375 54.109375 19.578125 55.046875 
Q 24.21875 56 28.609375 56 
Q 40.484375 56 46.34375 49.84375 
Q 52.203125 43.703125 52.203125 31.203125 
z
" id="DejaVuSans-97"/>
      <path d="M 9.421875 54.6875 
L 18.40625 54.6875 
L 18.40625 0 
L 9.421875 0 
z
M 9.421875 75.984375 
L 18.40625 75.984375 
L 18.40625 64.59375 
L 9.421875 64.59375 
z
" id="DejaVuSans-105"/>
      <path d="M 41.109375 46.296875 
Q 39.59375 47.171875 37.8125 47.578125 
Q 36.03125 48 33.890625 48 
Q 26.265625 48 22.1875 43.046875 
Q 18.109375 38.09375 18.109375 28.8125 
L 18.109375 0 
L 9.078125 0 
L 9.078125 54.6875 
L 18.109375 54.6875 
L 18.109375 46.1875 
Q 20.953125 51.171875 25.484375 53.578125 
Q 30.03125 56 36.53125 56 
Q 37.453125 56 38.578125 55.875 
Q 39.703125 55.765625 41.0625 55.515625 
z
" id="DejaVuSans-114"/>
     </defs>
     <g transform="translate(14.798438 200.45725)rotate(-90)scale(0.1 -0.1)">
      <use xlink:href="#DejaVuSans-72"/>
      <use x="75.195312" xlink:href="#DejaVuSans-111"/>
      <use x="136.376953" xlink:href="#DejaVuSans-109"/>
      <use x="233.789062" xlink:href="#DejaVuSans-111"/>
      <use x="294.970703" xlink:href="#DejaVuSans-108"/>
      <use x="322.753906" xlink:href="#DejaVuSans-111"/>
      <use x="383.935547" xlink:href="#DejaVuSans-103"/>
      <use x="447.412109" xlink:href="#DejaVuSans-111"/>
      <use x="508.59375" xlink:href="#DejaVuSans-117"/>
      <use x="571.972656" xlink:href="#DejaVuSans-115"/>
      <use x="624.072266" xlink:href="#DejaVuSans-32"/>
      <use x="655.859375" xlink:href="#DejaVuSans-112"/>
      <use x="719.335938" xlink:href="#DejaVuSans-97"/>
      <use x="780.615234" xlink:href="#DejaVuSans-105"/>
      <use x="808.398438" xlink:href="#DejaVuSans-114"/>
      <use x="849.511719" xlink:href="#DejaVuSans-115"/>
     </g>
    </g>
   </g>
   <g id="line2d_15">
    <path clip-path="url(#pce49fad309)" d="M 64.198352 267.160128 
L 65.49723 265.662259 
L 66.66622 264.641995 
L 67.770267 263.976065 
L 68.809369 263.606979 
L 69.848471 263.46883 
L 70.952518 263.543594 
L 72.251396 263.868711 
L 73.874993 264.53025 
L 76.602637 265.935433 
L 79.590056 267.399303 
L 81.538373 268.106634 
L 83.16197 268.467357 
L 84.65568 268.571937 
L 86.019502 268.447512 
L 87.31838 268.112579 
L 88.617258 267.550692 
L 89.916136 266.750692 
L 91.279958 265.646724 
L 92.708723 264.195147 
L 94.202433 262.350483 
L 95.761087 260.061577 
L 97.384684 257.265308 
L 99.008282 254.018451 
L 100.631879 250.275592 
L 102.255476 245.977516 
L 103.879074 241.055005 
L 105.567615 235.194382 
L 107.256157 228.500495 
L 109.009642 220.597939 
L 110.828071 211.331903 
L 112.776388 200.188136 
L 114.919537 186.551283 
L 117.387405 169.304816 
L 120.699543 144.392564 
L 125.895055 105.277923 
L 127.97326 91.379596 
L 129.661801 81.532378 
L 131.090567 74.478341 
L 132.324501 69.460622 
L 133.428547 65.876532 
L 134.402706 63.446514 
L 135.246977 61.898276 
L 136.026303 60.922483 
L 136.675742 60.433423 
L 137.260237 60.237081 
L 137.844732 60.263181 
L 138.429228 60.502265 
L 139.078667 61.004985 
L 139.857993 61.916526 
L 140.767208 63.369357 
L 141.80631 65.486789 
L 143.040244 68.54396 
L 144.533954 72.885565 
L 146.417327 79.108732 
L 148.950139 88.331459 
L 153.561156 106.156729 
L 158.691724 125.671664 
L 162.588358 139.590313 
L 166.614879 153.149298 
L 170.12185 164.228011 
L 172.849493 172.146983 
L 175.187474 178.273877 
L 177.330622 183.282272 
L 179.408827 187.580487 
L 181.487032 191.364882 
L 183.565237 194.686826 
L 185.643441 197.598734 
L 187.78659 200.227894 
L 190.12457 202.740253 
L 192.852214 205.333565 
L 196.683904 208.643154 
L 210.45201 220.293781 
L 213.894037 223.741853 
L 224.869556 235.024964 
L 227.597199 237.336324 
L 230.000124 239.092732 
L 232.208216 240.443261 
L 234.351365 241.493459 
L 236.494513 242.296813 
L 239.157213 243.039215 
L 244.417669 244.446957 
L 246.820593 245.371205 
L 249.678125 246.726773 
L 254.808693 249.198546 
L 257.016785 249.987885 
L 259.09499 250.497576 
L 261.238138 250.791913 
L 263.706007 250.899899 
L 268.381967 250.818089 
L 271.629162 250.888552 
L 274.291862 251.173172 
L 277.019506 251.694878 
L 280.981083 252.714574 
L 285.397268 253.792545 
L 288.449632 254.299161 
L 292.411209 254.703223 
L 297.08717 255.225638 
L 300.269421 255.818978 
L 304.101111 256.774272 
L 312.803593 259.251888 
L 320.337085 261.563156 
L 325.857317 263.221711 
L 328.649904 263.815498 
L 331.182716 264.128259 
L 334.105192 264.253685 
L 343.587001 264.473759 
L 352.744091 265.083572 
L 356.445893 265.005977 
L 360.277583 264.702694 
L 364.174217 264.168792 
L 370.213999 263.305004 
L 372.22726 263.278941 
L 373.915801 263.471226 
L 375.474455 263.864718 
L 377.033108 264.492503 
L 378.591762 265.369645 
L 380.215359 266.55245 
L 381.903901 268.064173 
L 383.787274 270.056487 
L 386.06031 272.800654 
L 388.852898 276.438103 
L 388.852898 276.438103 
" style="fill:none;stroke:#440154;stroke-dasharray:5.55,2.4;stroke-dashoffset:0;stroke-opacity:0.4;stroke-width:1.5;"/>
   </g>
   <g id="line2d_16">
    <path clip-path="url(#pce49fad309)" d="M 137.455069 288.432 
L 137.455069 22.32 
" style="fill:none;stroke:#440154;stroke-dasharray:1,1.65;stroke-dashoffset:0;stroke-opacity:0.8;"/>
   </g>
   <g id="line2d_17">
    <path clip-path="url(#pce49fad309)" d="M 64.198352 264.801844 
L 65.49723 263.128265 
L 66.601276 262.040027 
L 67.640379 261.30651 
L 68.679481 260.846883 
L 69.718584 260.639903 
L 70.82263 260.661971 
L 72.056564 260.927967 
L 73.550274 261.501371 
L 75.563534 262.537259 
L 83.032083 266.598932 
L 84.9804 267.320906 
L 86.668941 267.718045 
L 88.227594 267.856258 
L 89.721304 267.759993 
L 91.15007 267.448518 
L 92.64378 266.892513 
L 94.202433 266.067263 
L 95.826031 264.951621 
L 97.514572 263.523841 
L 99.333001 261.684471 
L 101.15143 259.521966 
L 102.969859 257.008649 
L 104.723345 254.209381 
L 106.47683 250.982259 
L 108.165371 247.402648 
L 109.853912 243.286177 
L 111.542454 238.558984 
L 113.230995 233.155295 
L 114.98448 226.77668 
L 116.80291 219.312208 
L 118.81617 210.058771 
L 121.024263 198.808803 
L 123.557075 184.707838 
L 126.869214 164.903817 
L 133.818211 122.98343 
L 136.026303 111.278289 
L 137.844732 102.812471 
L 139.403386 96.565674 
L 140.832152 91.734349 
L 142.13103 88.113658 
L 143.30002 85.487092 
L 144.404066 83.5486 
L 145.378225 82.264234 
L 146.287439 81.414086 
L 147.13171 80.915211 
L 147.911037 80.693742 
L 148.690363 80.692917 
L 149.46969 80.903982 
L 150.313961 81.361535 
L 151.223175 82.107995 
L 152.262278 83.265751 
L 153.431268 84.931576 
L 154.730146 87.197834 
L 156.223856 90.289175 
L 157.912397 94.321838 
L 159.990602 99.907203 
L 162.783189 108.122862 
L 174.927698 144.619857 
L 178.824332 155.481343 
L 181.357144 161.930601 
L 183.435349 166.644028 
L 185.318722 170.372336 
L 187.072207 173.364085 
L 188.890636 176.021509 
L 190.838953 178.47247 
L 193.566597 181.512786 
L 197.463231 185.882854 
L 199.671323 188.716721 
L 201.814472 191.835334 
L 204.087508 195.549352 
L 206.94504 200.685489 
L 212.465271 210.705484 
L 214.478532 213.845487 
L 216.232017 216.193561 
L 217.920559 218.091305 
L 219.6091 219.654907 
L 221.427529 221.029473 
L 223.635622 222.401447 
L 227.921919 224.723335 
L 231.883497 227.000933 
L 235.585299 229.395843 
L 240.585979 232.931417 
L 245.26194 236.152271 
L 248.314303 237.978486 
L 251.626442 239.690095 
L 265.26466 246.430823 
L 270.005565 248.781371 
L 272.992984 250.01897 
L 275.525796 250.835271 
L 277.92872 251.375521 
L 280.331644 251.687213 
L 283.189176 251.821096 
L 292.865817 252.073464 
L 297.736609 252.591092 
L 303.191896 253.379132 
L 308.127633 254.323193 
L 313.712808 255.612992 
L 317.349666 256.667423 
L 321.051468 257.989768 
L 326.311924 259.876927 
L 328.714848 260.481271 
L 330.857997 260.792771 
L 332.936202 260.871497 
L 335.144294 260.725259 
L 337.677106 260.320747 
L 346.119813 258.760548 
L 348.198018 258.73436 
L 350.276222 258.933722 
L 352.549259 259.384465 
L 355.601622 260.242145 
L 361.121853 261.8153 
L 363.979385 262.367833 
L 367.096692 262.733344 
L 373.656026 263.415566 
L 375.539399 263.903318 
L 377.162996 264.555787 
L 378.656706 265.393996 
L 380.150415 266.490056 
L 381.709069 267.919885 
L 383.39761 269.781249 
L 385.410871 272.345465 
L 388.852898 277.134197 
L 388.852898 277.134197 
" style="fill:none;stroke:#21918c;stroke-dasharray:5.55,2.4;stroke-dashoffset:0;stroke-opacity:0.4;stroke-width:1.5;"/>
   </g>
   <g id="line2d_18">
    <path clip-path="url(#pce49fad309)" d="M 148.3007 288.432 
L 148.3007 22.32 
" style="fill:none;stroke:#21918c;stroke-dasharray:1,1.65;stroke-dashoffset:0;stroke-opacity:0.8;"/>
   </g>
   <g id="line2d_19">
    <path clip-path="url(#pce49fad309)" d="M 64.198352 272.729696 
L 65.757006 271.342612 
L 67.120828 270.418352 
L 68.419706 269.802176 
L 69.718584 269.433784 
L 71.082405 269.284366 
L 72.576115 269.347785 
L 74.459488 269.665924 
L 77.446907 270.435489 
L 83.16197 271.906101 
L 88.097707 272.907535 
L 93.098387 273.713403 
L 96.410526 274.037036 
L 99.073225 274.078561 
L 101.541094 273.891781 
L 103.944018 273.487023 
L 106.47683 272.832141 
L 109.074586 271.931238 
L 111.607398 270.819476 
L 113.945378 269.551608 
L 116.153471 268.096478 
L 118.296619 266.408148 
L 120.439768 264.424402 
L 122.582916 262.134236 
L 124.855953 259.367713 
L 127.193933 256.162416 
L 129.661801 252.39193 
L 132.259557 248.013237 
L 135.117089 242.754173 
L 138.364284 236.300755 
L 142.260918 228.040348 
L 147.066766 217.306423 
L 155.899136 197.449339 
L 158.367004 192.547388 
L 160.380265 189.025815 
L 162.13375 186.400233 
L 163.692404 184.459981 
L 165.12117 183.028778 
L 166.484991 181.977671 
L 167.783869 181.25608 
L 169.082747 180.791488 
L 170.381625 180.560985 
L 171.745447 180.540032 
L 173.304101 180.748108 
L 175.057586 181.21422 
L 177.200735 182.021021 
L 180.188154 183.404759 
L 185.903217 186.355083 
L 192.267719 189.830339 
L 195.44997 191.824182 
L 198.242557 193.838429 
L 201.035145 196.13221 
L 204.28234 199.104493 
L 209.218076 203.96971 
L 222.791351 217.411636 
L 226.817873 221.113934 
L 229.93518 223.681387 
L 232.857655 225.80294 
L 235.78013 227.651984 
L 238.832494 229.316599 
L 242.469352 231.027872 
L 248.833854 233.983316 
L 252.275881 235.88605 
L 260.069148 240.315373 
L 262.60196 241.423257 
L 264.874997 242.180257 
L 267.148033 242.702575 
L 269.615901 243.034797 
L 273.25276 243.264584 
L 277.084449 243.57228 
L 279.682205 244.010251 
L 282.539737 244.727097 
L 290.982444 247.009367 
L 294.684246 247.651984 
L 299.684926 248.282534 
L 304.75055 248.696957 
L 309.426511 249.122874 
L 312.024267 249.592938 
L 314.557079 250.280432 
L 317.934161 251.455543 
L 322.610122 253.059189 
L 325.337766 253.739028 
L 328.130353 254.200708 
L 333.260921 254.75692 
L 336.832836 255.281946 
L 340.469694 256.063562 
L 345.535318 257.1496 
L 348.133074 257.457869 
L 350.860717 257.548365 
L 362.096012 257.626288 
L 371.90254 258.413842 
L 374.305465 258.82204 
L 376.188838 259.363041 
L 377.812435 260.060838 
L 379.306145 260.944206 
L 380.799854 262.09703 
L 382.293564 263.541385 
L 383.852218 265.359892 
L 385.670647 267.84309 
L 388.008627 271.446942 
L 388.852898 272.807645 
L 388.852898 272.807645 
" style="fill:none;stroke:#fde725;stroke-dasharray:5.55,2.4;stroke-dashoffset:0;stroke-opacity:0.4;stroke-width:1.5;"/>
   </g>
   <g id="line2d_20">
    <path clip-path="url(#pce49fad309)" d="M 171.160952 288.432 
L 171.160952 22.32 
" style="fill:none;stroke:#fde725;stroke-dasharray:1,1.65;stroke-dashoffset:0;stroke-opacity:0.8;"/>
   </g>
   <g id="patch_153">
    <path d="M 46.965625 288.432 
L 46.965625 22.32 
" style="fill:none;stroke:#000000;stroke-linecap:square;stroke-linejoin:miter;stroke-width:0.8;"/>
   </g>
   <g id="patch_154">
    <path d="M 47.965625 289.432 
L 405.085625 289.432 
" style="fill:none;stroke:#000000;stroke-linecap:square;stroke-linejoin:miter;stroke-width:0.8;"/>
   </g>
   <g id="text_17">
    <!-- Orthologous $K_\mathrm{S}$ distribution -->
    <defs>
     <path d="M 39.40625 66.21875 
Q 28.65625 66.21875 22.328125 58.203125 
Q 16.015625 50.203125 16.015625 36.375 
Q 16.015625 22.609375 22.328125 14.59375 
Q 28.65625 6.59375 39.40625 6.59375 
Q 50.140625 6.59375 56.421875 14.59375 
Q 62.703125 22.609375 62.703125 36.375 
Q 62.703125 50.203125 56.421875 58.203125 
Q 50.140625 66.21875 39.40625 66.21875 
z
M 39.40625 74.21875 
Q 54.734375 74.21875 63.90625 63.9375 
Q 73.09375 53.65625 73.09375 36.375 
Q 73.09375 19.140625 63.90625 8.859375 
Q 54.734375 -1.421875 39.40625 -1.421875 
Q 24.03125 -1.421875 14.8125 8.828125 
Q 5.609375 19.09375 5.609375 36.375 
Q 5.609375 53.65625 14.8125 63.9375 
Q 24.03125 74.21875 39.40625 74.21875 
z
" id="DejaVuSans-79"/>
     <path d="M 18.3125 70.21875 
L 18.3125 54.6875 
L 36.8125 54.6875 
L 36.8125 47.703125 
L 18.3125 47.703125 
L 18.3125 18.015625 
Q 18.3125 11.328125 20.140625 9.421875 
Q 21.96875 7.515625 27.59375 7.515625 
L 36.8125 7.515625 
L 36.8125 0 
L 27.59375 0 
Q 17.1875 0 13.234375 3.875 
Q 9.28125 7.765625 9.28125 18.015625 
L 9.28125 47.703125 
L 2.6875 47.703125 
L 2.6875 54.6875 
L 9.28125 54.6875 
L 9.28125 70.21875 
z
" id="DejaVuSans-116"/>
     <path d="M 54.890625 33.015625 
L 54.890625 0 
L 45.90625 0 
L 45.90625 32.71875 
Q 45.90625 40.484375 42.875 44.328125 
Q 39.84375 48.1875 33.796875 48.1875 
Q 26.515625 48.1875 22.3125 43.546875 
Q 18.109375 38.921875 18.109375 30.90625 
L 18.109375 0 
L 9.078125 0 
L 9.078125 75.984375 
L 18.109375 75.984375 
L 18.109375 46.1875 
Q 21.34375 51.125 25.703125 53.5625 
Q 30.078125 56 35.796875 56 
Q 45.21875 56 50.046875 50.171875 
Q 54.890625 44.34375 54.890625 33.015625 
z
" id="DejaVuSans-104"/>
     <path d="M 45.40625 46.390625 
L 45.40625 75.984375 
L 54.390625 75.984375 
L 54.390625 0 
L 45.40625 0 
L 45.40625 8.203125 
Q 42.578125 3.328125 38.25 0.953125 
Q 33.9375 -1.421875 27.875 -1.421875 
Q 17.96875 -1.421875 11.734375 6.484375 
Q 5.515625 14.40625 5.515625 27.296875 
Q 5.515625 40.1875 11.734375 48.09375 
Q 17.96875 56 27.875 56 
Q 33.9375 56 38.25 53.625 
Q 42.578125 51.265625 45.40625 46.390625 
z
M 14.796875 27.296875 
Q 14.796875 17.390625 18.875 11.75 
Q 22.953125 6.109375 30.078125 6.109375 
Q 37.203125 6.109375 41.296875 11.75 
Q 45.40625 17.390625 45.40625 27.296875 
Q 45.40625 37.203125 41.296875 42.84375 
Q 37.203125 48.484375 30.078125 48.484375 
Q 22.953125 48.484375 18.875 42.84375 
Q 14.796875 37.203125 14.796875 27.296875 
z
" id="DejaVuSans-100"/>
     <path d="M 48.6875 27.296875 
Q 48.6875 37.203125 44.609375 42.84375 
Q 40.53125 48.484375 33.40625 48.484375 
Q 26.265625 48.484375 22.1875 42.84375 
Q 18.109375 37.203125 18.109375 27.296875 
Q 18.109375 17.390625 22.1875 11.75 
Q 26.265625 6.109375 33.40625 6.109375 
Q 40.53125 6.109375 44.609375 11.75 
Q 48.6875 17.390625 48.6875 27.296875 
z
M 18.109375 46.390625 
Q 20.953125 51.265625 25.265625 53.625 
Q 29.59375 56 35.59375 56 
Q 45.5625 56 51.78125 48.09375 
Q 58.015625 40.1875 58.015625 27.296875 
Q 58.015625 14.40625 51.78125 6.484375 
Q 45.5625 -1.421875 35.59375 -1.421875 
Q 29.59375 -1.421875 25.265625 0.953125 
Q 20.953125 3.328125 18.109375 8.203125 
L 18.109375 0 
L 9.078125 0 
L 9.078125 75.984375 
L 18.109375 75.984375 
z
" id="DejaVuSans-98"/>
     <path d="M 54.890625 33.015625 
L 54.890625 0 
L 45.90625 0 
L 45.90625 32.71875 
Q 45.90625 40.484375 42.875 44.328125 
Q 39.84375 48.1875 33.796875 48.1875 
Q 26.515625 48.1875 22.3125 43.546875 
Q 18.109375 38.921875 18.109375 30.90625 
L 18.109375 0 
L 9.078125 0 
L 9.078125 54.6875 
L 18.109375 54.6875 
L 18.109375 46.1875 
Q 21.34375 51.125 25.703125 53.5625 
Q 30.078125 56 35.796875 56 
Q 45.21875 56 50.046875 50.171875 
Q 54.890625 44.34375 54.890625 33.015625 
z
" id="DejaVuSans-110"/>
    </defs>
    <g transform="translate(144.985625 16.32)scale(0.12 -0.12)">
     <use transform="translate(0 0.015625)" xlink:href="#DejaVuSans-79"/>
     <use transform="translate(78.710938 0.015625)" xlink:href="#DejaVuSans-114"/>
     <use transform="translate(119.824219 0.015625)" xlink:href="#DejaVuSans-116"/>
     <use transform="translate(159.033203 0.015625)" xlink:href="#DejaVuSans-104"/>
     <use transform="translate(222.412109 0.015625)" xlink:href="#DejaVuSans-111"/>
     <use transform="translate(283.59375 0.015625)" xlink:href="#DejaVuSans-108"/>
     <use transform="translate(311.376953 0.015625)" xlink:href="#DejaVuSans-111"/>
     <use transform="translate(372.558594 0.015625)" xlink:href="#DejaVuSans-103"/>
     <use transform="translate(436.035156 0.015625)" xlink:href="#DejaVuSans-111"/>
     <use transform="translate(497.216797 0.015625)" xlink:href="#DejaVuSans-117"/>
     <use transform="translate(560.595703 0.015625)" xlink:href="#DejaVuSans-115"/>
     <use transform="translate(612.695312 0.015625)" xlink:href="#DejaVuSans-32"/>
     <use transform="translate(644.482422 0.015625)" xlink:href="#DejaVuSans-Oblique-75"/>
     <use transform="translate(710.058594 -16.390625)scale(0.7)" xlink:href="#DejaVuSans-83"/>
     <use transform="translate(757.226562 0.015625)" xlink:href="#DejaVuSans-32"/>
     <use transform="translate(789.013672 0.015625)" xlink:href="#DejaVuSans-100"/>
     <use transform="translate(852.490234 0.015625)" xlink:href="#DejaVuSans-105"/>
     <use transform="translate(880.273438 0.015625)" xlink:href="#DejaVuSans-115"/>
     <use transform="translate(932.373047 0.015625)" xlink:href="#DejaVuSans-116"/>
     <use transform="translate(971.582031 0.015625)" xlink:href="#DejaVuSans-114"/>
     <use transform="translate(1012.695312 0.015625)" xlink:href="#DejaVuSans-105"/>
     <use transform="translate(1040.478516 0.015625)" xlink:href="#DejaVuSans-98"/>
     <use transform="translate(1103.955078 0.015625)" xlink:href="#DejaVuSans-117"/>
     <use transform="translate(1167.333984 0.015625)" xlink:href="#DejaVuSans-116"/>
     <use transform="translate(1206.542969 0.015625)" xlink:href="#DejaVuSans-105"/>
     <use transform="translate(1234.326172 0.015625)" xlink:href="#DejaVuSans-111"/>
     <use transform="translate(1295.507812 0.015625)" xlink:href="#DejaVuSans-110"/>
    </g>
   </g>
   <g id="legend_1">
    <g id="line2d_21">
     <path d="M 414.085625 117.105687 
L 434.085625 117.105687 
" style="fill:none;stroke:#440154;stroke-dasharray:1,1.65;stroke-dashoffset:0;stroke-opacity:0.8;"/>
    </g>
    <g id="line2d_22"/>
    <g id="text_18">
     <!-- Original mode 1.13 of Aquilegia_coerulea__Protea_cynaroides -->
     <defs>
      <path d="M 56.203125 29.59375 
L 56.203125 25.203125 
L 14.890625 25.203125 
Q 15.484375 15.921875 20.484375 11.0625 
Q 25.484375 6.203125 34.421875 6.203125 
Q 39.59375 6.203125 44.453125 7.46875 
Q 49.3125 8.734375 54.109375 11.28125 
L 54.109375 2.78125 
Q 49.265625 0.734375 44.1875 -0.34375 
Q 39.109375 -1.421875 33.890625 -1.421875 
Q 20.796875 -1.421875 13.15625 6.1875 
Q 5.515625 13.8125 5.515625 26.8125 
Q 5.515625 40.234375 12.765625 48.109375 
Q 20.015625 56 32.328125 56 
Q 43.359375 56 49.78125 48.890625 
Q 56.203125 41.796875 56.203125 29.59375 
z
M 47.21875 32.234375 
Q 47.125 39.59375 43.09375 43.984375 
Q 39.0625 48.390625 32.421875 48.390625 
Q 24.90625 48.390625 20.390625 44.140625 
Q 15.875 39.890625 15.1875 32.171875 
z
" id="DejaVuSans-101"/>
      <path d="M 10.6875 12.40625 
L 21 12.40625 
L 21 0 
L 10.6875 0 
z
" id="DejaVuSans-46"/>
      <path d="M 37.109375 75.984375 
L 37.109375 68.5 
L 28.515625 68.5 
Q 23.6875 68.5 21.796875 66.546875 
Q 19.921875 64.59375 19.921875 59.515625 
L 19.921875 54.6875 
L 34.71875 54.6875 
L 34.71875 47.703125 
L 19.921875 47.703125 
L 19.921875 0 
L 10.890625 0 
L 10.890625 47.703125 
L 2.296875 47.703125 
L 2.296875 54.6875 
L 10.890625 54.6875 
L 10.890625 58.5 
Q 10.890625 67.625 15.140625 71.796875 
Q 19.390625 75.984375 28.609375 75.984375 
z
" id="DejaVuSans-102"/>
      <path d="M 34.1875 63.1875 
L 20.796875 26.90625 
L 47.609375 26.90625 
z
M 28.609375 72.90625 
L 39.796875 72.90625 
L 67.578125 0 
L 57.328125 0 
L 50.6875 18.703125 
L 17.828125 18.703125 
L 11.1875 0 
L 0.78125 0 
z
" id="DejaVuSans-65"/>
      <path d="M 14.796875 27.296875 
Q 14.796875 17.390625 18.875 11.75 
Q 22.953125 6.109375 30.078125 6.109375 
Q 37.203125 6.109375 41.296875 11.75 
Q 45.40625 17.390625 45.40625 27.296875 
Q 45.40625 37.203125 41.296875 42.84375 
Q 37.203125 48.484375 30.078125 48.484375 
Q 22.953125 48.484375 18.875 42.84375 
Q 14.796875 37.203125 14.796875 27.296875 
z
M 45.40625 8.203125 
Q 42.578125 3.328125 38.25 0.953125 
Q 33.9375 -1.421875 27.875 -1.421875 
Q 17.96875 -1.421875 11.734375 6.484375 
Q 5.515625 14.40625 5.515625 27.296875 
Q 5.515625 40.1875 11.734375 48.09375 
Q 17.96875 56 27.875 56 
Q 33.9375 56 38.25 53.625 
Q 42.578125 51.265625 45.40625 46.390625 
L 45.40625 54.6875 
L 54.390625 54.6875 
L 54.390625 -20.796875 
L 45.40625 -20.796875 
z
" id="DejaVuSans-113"/>
      <path d="M 50.984375 -16.609375 
L 50.984375 -23.578125 
L -0.984375 -23.578125 
L -0.984375 -16.609375 
z
" id="DejaVuSans-95"/>
      <path d="M 48.78125 52.59375 
L 48.78125 44.1875 
Q 44.96875 46.296875 41.140625 47.34375 
Q 37.3125 48.390625 33.40625 48.390625 
Q 24.65625 48.390625 19.8125 42.84375 
Q 14.984375 37.3125 14.984375 27.296875 
Q 14.984375 17.28125 19.8125 11.734375 
Q 24.65625 6.203125 33.40625 6.203125 
Q 37.3125 6.203125 41.140625 7.25 
Q 44.96875 8.296875 48.78125 10.40625 
L 48.78125 2.09375 
Q 45.015625 0.34375 40.984375 -0.53125 
Q 36.96875 -1.421875 32.421875 -1.421875 
Q 20.0625 -1.421875 12.78125 6.34375 
Q 5.515625 14.109375 5.515625 27.296875 
Q 5.515625 40.671875 12.859375 48.328125 
Q 20.21875 56 33.015625 56 
Q 37.15625 56 41.109375 55.140625 
Q 45.0625 54.296875 48.78125 52.59375 
z
" id="DejaVuSans-99"/>
      <path d="M 19.671875 64.796875 
L 19.671875 37.40625 
L 32.078125 37.40625 
Q 38.96875 37.40625 42.71875 40.96875 
Q 46.484375 44.53125 46.484375 51.125 
Q 46.484375 57.671875 42.71875 61.234375 
Q 38.96875 64.796875 32.078125 64.796875 
z
M 9.8125 72.90625 
L 32.078125 72.90625 
Q 44.34375 72.90625 50.609375 67.359375 
Q 56.890625 61.8125 56.890625 51.125 
Q 56.890625 40.328125 50.609375 34.8125 
Q 44.34375 29.296875 32.078125 29.296875 
L 19.671875 29.296875 
L 19.671875 0 
L 9.8125 0 
z
" id="DejaVuSans-80"/>
      <path d="M 32.171875 -5.078125 
Q 28.375 -14.84375 24.75 -17.8125 
Q 21.140625 -20.796875 15.09375 -20.796875 
L 7.90625 -20.796875 
L 7.90625 -13.28125 
L 13.1875 -13.28125 
Q 16.890625 -13.28125 18.9375 -11.515625 
Q 21 -9.765625 23.484375 -3.21875 
L 25.09375 0.875 
L 2.984375 54.6875 
L 12.5 54.6875 
L 29.59375 11.921875 
L 46.6875 54.6875 
L 56.203125 54.6875 
z
" id="DejaVuSans-121"/>
     </defs>
     <g transform="translate(442.085625 120.605687)scale(0.1 -0.1)">
      <use xlink:href="#DejaVuSans-79"/>
      <use x="78.710938" xlink:href="#DejaVuSans-114"/>
      <use x="119.824219" xlink:href="#DejaVuSans-105"/>
      <use x="147.607422" xlink:href="#DejaVuSans-103"/>
      <use x="211.083984" xlink:href="#DejaVuSans-105"/>
      <use x="238.867188" xlink:href="#DejaVuSans-110"/>
      <use x="302.246094" xlink:href="#DejaVuSans-97"/>
      <use x="363.525391" xlink:href="#DejaVuSans-108"/>
      <use x="391.308594" xlink:href="#DejaVuSans-32"/>
      <use x="423.095703" xlink:href="#DejaVuSans-109"/>
      <use x="520.507812" xlink:href="#DejaVuSans-111"/>
      <use x="581.689453" xlink:href="#DejaVuSans-100"/>
      <use x="645.166016" xlink:href="#DejaVuSans-101"/>
      <use x="706.689453" xlink:href="#DejaVuSans-32"/>
      <use x="738.476562" xlink:href="#DejaVuSans-49"/>
      <use x="802.099609" xlink:href="#DejaVuSans-46"/>
      <use x="833.886719" xlink:href="#DejaVuSans-49"/>
      <use x="897.509766" xlink:href="#DejaVuSans-51"/>
      <use x="961.132812" xlink:href="#DejaVuSans-32"/>
      <use x="992.919922" xlink:href="#DejaVuSans-111"/>
      <use x="1054.101562" xlink:href="#DejaVuSans-102"/>
      <use x="1089.306641" xlink:href="#DejaVuSans-32"/>
      <use x="1121.09375" xlink:href="#DejaVuSans-65"/>
      <use x="1187.751953" xlink:href="#DejaVuSans-113"/>
      <use x="1251.228516" xlink:href="#DejaVuSans-117"/>
      <use x="1314.607422" xlink:href="#DejaVuSans-105"/>
      <use x="1342.390625" xlink:href="#DejaVuSans-108"/>
      <use x="1370.173828" xlink:href="#DejaVuSans-101"/>
      <use x="1431.697266" xlink:href="#DejaVuSans-103"/>
      <use x="1495.173828" xlink:href="#DejaVuSans-105"/>
      <use x="1522.957031" xlink:href="#DejaVuSans-97"/>
      <use x="1584.236328" xlink:href="#DejaVuSans-95"/>
      <use x="1634.236328" xlink:href="#DejaVuSans-99"/>
      <use x="1689.216797" xlink:href="#DejaVuSans-111"/>
      <use x="1750.398438" xlink:href="#DejaVuSans-101"/>
      <use x="1811.921875" xlink:href="#DejaVuSans-114"/>
      <use x="1853.035156" xlink:href="#DejaVuSans-117"/>
      <use x="1916.414062" xlink:href="#DejaVuSans-108"/>
      <use x="1944.197266" xlink:href="#DejaVuSans-101"/>
      <use x="2005.720703" xlink:href="#DejaVuSans-97"/>
      <use x="2067" xlink:href="#DejaVuSans-95"/>
      <use x="2117" xlink:href="#DejaVuSans-95"/>
      <use x="2167" xlink:href="#DejaVuSans-80"/>
      <use x="2225.552734" xlink:href="#DejaVuSans-114"/>
      <use x="2264.416016" xlink:href="#DejaVuSans-111"/>
      <use x="2325.597656" xlink:href="#DejaVuSans-116"/>
      <use x="2364.806641" xlink:href="#DejaVuSans-101"/>
      <use x="2426.330078" xlink:href="#DejaVuSans-97"/>
      <use x="2487.609375" xlink:href="#DejaVuSans-95"/>
      <use x="2537.609375" xlink:href="#DejaVuSans-99"/>
      <use x="2592.589844" xlink:href="#DejaVuSans-121"/>
      <use x="2651.769531" xlink:href="#DejaVuSans-110"/>
      <use x="2715.148438" xlink:href="#DejaVuSans-97"/>
      <use x="2776.427734" xlink:href="#DejaVuSans-114"/>
      <use x="2815.291016" xlink:href="#DejaVuSans-111"/>
      <use x="2876.472656" xlink:href="#DejaVuSans-105"/>
      <use x="2904.255859" xlink:href="#DejaVuSans-100"/>
      <use x="2967.732422" xlink:href="#DejaVuSans-101"/>
      <use x="3029.255859" xlink:href="#DejaVuSans-115"/>
     </g>
    </g>
    <g id="line2d_23">
     <path d="M 414.085625 132.061937 
L 434.085625 132.061937 
" style="fill:none;stroke:#21918c;stroke-dasharray:1,1.65;stroke-dashoffset:0;stroke-opacity:0.8;"/>
    </g>
    <g id="line2d_24"/>
    <g id="text_19">
     <!-- Original mode 1.30 of Aquilegia_coerulea__Vitis_vinifera -->
     <defs>
      <path d="M 28.609375 0 
L 0.78125 72.90625 
L 11.078125 72.90625 
L 34.1875 11.53125 
L 57.328125 72.90625 
L 67.578125 72.90625 
L 39.796875 0 
z
" id="DejaVuSans-86"/>
      <path d="M 2.984375 54.6875 
L 12.5 54.6875 
L 29.59375 8.796875 
L 46.6875 54.6875 
L 56.203125 54.6875 
L 35.6875 0 
L 23.484375 0 
z
" id="DejaVuSans-118"/>
     </defs>
     <g transform="translate(442.085625 135.561937)scale(0.1 -0.1)">
      <use xlink:href="#DejaVuSans-79"/>
      <use x="78.710938" xlink:href="#DejaVuSans-114"/>
      <use x="119.824219" xlink:href="#DejaVuSans-105"/>
      <use x="147.607422" xlink:href="#DejaVuSans-103"/>
      <use x="211.083984" xlink:href="#DejaVuSans-105"/>
      <use x="238.867188" xlink:href="#DejaVuSans-110"/>
      <use x="302.246094" xlink:href="#DejaVuSans-97"/>
      <use x="363.525391" xlink:href="#DejaVuSans-108"/>
      <use x="391.308594" xlink:href="#DejaVuSans-32"/>
      <use x="423.095703" xlink:href="#DejaVuSans-109"/>
      <use x="520.507812" xlink:href="#DejaVuSans-111"/>
      <use x="581.689453" xlink:href="#DejaVuSans-100"/>
      <use x="645.166016" xlink:href="#DejaVuSans-101"/>
      <use x="706.689453" xlink:href="#DejaVuSans-32"/>
      <use x="738.476562" xlink:href="#DejaVuSans-49"/>
      <use x="802.099609" xlink:href="#DejaVuSans-46"/>
      <use x="833.886719" xlink:href="#DejaVuSans-51"/>
      <use x="897.509766" xlink:href="#DejaVuSans-48"/>
      <use x="961.132812" xlink:href="#DejaVuSans-32"/>
      <use x="992.919922" xlink:href="#DejaVuSans-111"/>
      <use x="1054.101562" xlink:href="#DejaVuSans-102"/>
      <use x="1089.306641" xlink:href="#DejaVuSans-32"/>
      <use x="1121.09375" xlink:href="#DejaVuSans-65"/>
      <use x="1187.751953" xlink:href="#DejaVuSans-113"/>
      <use x="1251.228516" xlink:href="#DejaVuSans-117"/>
      <use x="1314.607422" xlink:href="#DejaVuSans-105"/>
      <use x="1342.390625" xlink:href="#DejaVuSans-108"/>
      <use x="1370.173828" xlink:href="#DejaVuSans-101"/>
      <use x="1431.697266" xlink:href="#DejaVuSans-103"/>
      <use x="1495.173828" xlink:href="#DejaVuSans-105"/>
      <use x="1522.957031" xlink:href="#DejaVuSans-97"/>
      <use x="1584.236328" xlink:href="#DejaVuSans-95"/>
      <use x="1634.236328" xlink:href="#DejaVuSans-99"/>
      <use x="1689.216797" xlink:href="#DejaVuSans-111"/>
      <use x="1750.398438" xlink:href="#DejaVuSans-101"/>
      <use x="1811.921875" xlink:href="#DejaVuSans-114"/>
      <use x="1853.035156" xlink:href="#DejaVuSans-117"/>
      <use x="1916.414062" xlink:href="#DejaVuSans-108"/>
      <use x="1944.197266" xlink:href="#DejaVuSans-101"/>
      <use x="2005.720703" xlink:href="#DejaVuSans-97"/>
      <use x="2067" xlink:href="#DejaVuSans-95"/>
      <use x="2117" xlink:href="#DejaVuSans-95"/>
      <use x="2167" xlink:href="#DejaVuSans-86"/>
      <use x="2233.158203" xlink:href="#DejaVuSans-105"/>
      <use x="2260.941406" xlink:href="#DejaVuSans-116"/>
      <use x="2300.150391" xlink:href="#DejaVuSans-105"/>
      <use x="2327.933594" xlink:href="#DejaVuSans-115"/>
      <use x="2380.033203" xlink:href="#DejaVuSans-95"/>
      <use x="2430.033203" xlink:href="#DejaVuSans-118"/>
      <use x="2489.212891" xlink:href="#DejaVuSans-105"/>
      <use x="2516.996094" xlink:href="#DejaVuSans-110"/>
      <use x="2580.375" xlink:href="#DejaVuSans-105"/>
      <use x="2608.158203" xlink:href="#DejaVuSans-102"/>
      <use x="2643.363281" xlink:href="#DejaVuSans-101"/>
      <use x="2704.886719" xlink:href="#DejaVuSans-114"/>
      <use x="2746" xlink:href="#DejaVuSans-97"/>
     </g>
    </g>
    <g id="line2d_25">
     <path d="M 414.085625 147.018187 
L 434.085625 147.018187 
" style="fill:none;stroke:#fde725;stroke-dasharray:1,1.65;stroke-dashoffset:0;stroke-opacity:0.8;"/>
    </g>
    <g id="line2d_26"/>
    <g id="text_20">
     <!-- Original mode 1.65 of Acorus_americanus__Aquilegia_coerulea -->
     <g transform="translate(442.085625 150.518187)scale(0.1 -0.1)">
      <use xlink:href="#DejaVuSans-79"/>
      <use x="78.710938" xlink:href="#DejaVuSans-114"/>
      <use x="119.824219" xlink:href="#DejaVuSans-105"/>
      <use x="147.607422" xlink:href="#DejaVuSans-103"/>
      <use x="211.083984" xlink:href="#DejaVuSans-105"/>
      <use x="238.867188" xlink:href="#DejaVuSans-110"/>
      <use x="302.246094" xlink:href="#DejaVuSans-97"/>
      <use x="363.525391" xlink:href="#DejaVuSans-108"/>
      <use x="391.308594" xlink:href="#DejaVuSans-32"/>
      <use x="423.095703" xlink:href="#DejaVuSans-109"/>
      <use x="520.507812" xlink:href="#DejaVuSans-111"/>
      <use x="581.689453" xlink:href="#DejaVuSans-100"/>
      <use x="645.166016" xlink:href="#DejaVuSans-101"/>
      <use x="706.689453" xlink:href="#DejaVuSans-32"/>
      <use x="738.476562" xlink:href="#DejaVuSans-49"/>
      <use x="802.099609" xlink:href="#DejaVuSans-46"/>
      <use x="833.886719" xlink:href="#DejaVuSans-54"/>
      <use x="897.509766" xlink:href="#DejaVuSans-53"/>
      <use x="961.132812" xlink:href="#DejaVuSans-32"/>
      <use x="992.919922" xlink:href="#DejaVuSans-111"/>
      <use x="1054.101562" xlink:href="#DejaVuSans-102"/>
      <use x="1089.306641" xlink:href="#DejaVuSans-32"/>
      <use x="1121.09375" xlink:href="#DejaVuSans-65"/>
      <use x="1187.751953" xlink:href="#DejaVuSans-99"/>
      <use x="1242.732422" xlink:href="#DejaVuSans-111"/>
      <use x="1303.914062" xlink:href="#DejaVuSans-114"/>
      <use x="1345.027344" xlink:href="#DejaVuSans-117"/>
      <use x="1408.40625" xlink:href="#DejaVuSans-115"/>
      <use x="1460.505859" xlink:href="#DejaVuSans-95"/>
      <use x="1510.505859" xlink:href="#DejaVuSans-97"/>
      <use x="1571.785156" xlink:href="#DejaVuSans-109"/>
      <use x="1669.197266" xlink:href="#DejaVuSans-101"/>
      <use x="1730.720703" xlink:href="#DejaVuSans-114"/>
      <use x="1771.833984" xlink:href="#DejaVuSans-105"/>
      <use x="1799.617188" xlink:href="#DejaVuSans-99"/>
      <use x="1854.597656" xlink:href="#DejaVuSans-97"/>
      <use x="1915.876953" xlink:href="#DejaVuSans-110"/>
      <use x="1979.255859" xlink:href="#DejaVuSans-117"/>
      <use x="2042.634766" xlink:href="#DejaVuSans-115"/>
      <use x="2094.734375" xlink:href="#DejaVuSans-95"/>
      <use x="2144.734375" xlink:href="#DejaVuSans-95"/>
      <use x="2194.734375" xlink:href="#DejaVuSans-65"/>
      <use x="2261.392578" xlink:href="#DejaVuSans-113"/>
      <use x="2324.869141" xlink:href="#DejaVuSans-117"/>
      <use x="2388.248047" xlink:href="#DejaVuSans-105"/>
      <use x="2416.03125" xlink:href="#DejaVuSans-108"/>
      <use x="2443.814453" xlink:href="#DejaVuSans-101"/>
      <use x="2505.337891" xlink:href="#DejaVuSans-103"/>
      <use x="2568.814453" xlink:href="#DejaVuSans-105"/>
      <use x="2596.597656" xlink:href="#DejaVuSans-97"/>
      <use x="2657.876953" xlink:href="#DejaVuSans-95"/>
      <use x="2707.876953" xlink:href="#DejaVuSans-99"/>
      <use x="2762.857422" xlink:href="#DejaVuSans-111"/>
      <use x="2824.039062" xlink:href="#DejaVuSans-101"/>
      <use x="2885.5625" xlink:href="#DejaVuSans-114"/>
      <use x="2926.675781" xlink:href="#DejaVuSans-117"/>
      <use x="2990.054688" xlink:href="#DejaVuSans-108"/>
      <use x="3017.837891" xlink:href="#DejaVuSans-101"/>
      <use x="3079.361328" xlink:href="#DejaVuSans-97"/>
     </g>
    </g>
    <g id="patch_155">
     <path d="M 414.085625 165.474437 
L 434.085625 165.474437 
L 434.085625 158.474437 
L 414.085625 158.474437 
z
" style="fill:#440154;opacity:0.5;"/>
    </g>
    <g id="text_21">
     <!-- Aquilegia_coerulea__Protea_cynaroides -->
     <g transform="translate(442.085625 165.474437)scale(0.1 -0.1)">
      <use xlink:href="#DejaVuSans-65"/>
      <use x="66.658203" xlink:href="#DejaVuSans-113"/>
      <use x="130.134766" xlink:href="#DejaVuSans-117"/>
      <use x="193.513672" xlink:href="#DejaVuSans-105"/>
      <use x="221.296875" xlink:href="#DejaVuSans-108"/>
      <use x="249.080078" xlink:href="#DejaVuSans-101"/>
      <use x="310.603516" xlink:href="#DejaVuSans-103"/>
      <use x="374.080078" xlink:href="#DejaVuSans-105"/>
      <use x="401.863281" xlink:href="#DejaVuSans-97"/>
      <use x="463.142578" xlink:href="#DejaVuSans-95"/>
      <use x="513.142578" xlink:href="#DejaVuSans-99"/>
      <use x="568.123047" xlink:href="#DejaVuSans-111"/>
      <use x="629.304688" xlink:href="#DejaVuSans-101"/>
      <use x="690.828125" xlink:href="#DejaVuSans-114"/>
      <use x="731.941406" xlink:href="#DejaVuSans-117"/>
      <use x="795.320312" xlink:href="#DejaVuSans-108"/>
      <use x="823.103516" xlink:href="#DejaVuSans-101"/>
      <use x="884.626953" xlink:href="#DejaVuSans-97"/>
      <use x="945.90625" xlink:href="#DejaVuSans-95"/>
      <use x="995.90625" xlink:href="#DejaVuSans-95"/>
      <use x="1045.90625" xlink:href="#DejaVuSans-80"/>
      <use x="1104.458984" xlink:href="#DejaVuSans-114"/>
      <use x="1143.322266" xlink:href="#DejaVuSans-111"/>
      <use x="1204.503906" xlink:href="#DejaVuSans-116"/>
      <use x="1243.712891" xlink:href="#DejaVuSans-101"/>
      <use x="1305.236328" xlink:href="#DejaVuSans-97"/>
      <use x="1366.515625" xlink:href="#DejaVuSans-95"/>
      <use x="1416.515625" xlink:href="#DejaVuSans-99"/>
      <use x="1471.496094" xlink:href="#DejaVuSans-121"/>
      <use x="1530.675781" xlink:href="#DejaVuSans-110"/>
      <use x="1594.054688" xlink:href="#DejaVuSans-97"/>
      <use x="1655.333984" xlink:href="#DejaVuSans-114"/>
      <use x="1694.197266" xlink:href="#DejaVuSans-111"/>
      <use x="1755.378906" xlink:href="#DejaVuSans-105"/>
      <use x="1783.162109" xlink:href="#DejaVuSans-100"/>
      <use x="1846.638672" xlink:href="#DejaVuSans-101"/>
      <use x="1908.162109" xlink:href="#DejaVuSans-115"/>
     </g>
    </g>
    <g id="patch_156">
     <path d="M 414.085625 180.430687 
L 434.085625 180.430687 
L 434.085625 173.430687 
L 414.085625 173.430687 
z
" style="fill:#21918c;opacity:0.5;"/>
    </g>
    <g id="text_22">
     <!-- Aquilegia_coerulea__Vitis_vinifera -->
     <g transform="translate(442.085625 180.430687)scale(0.1 -0.1)">
      <use xlink:href="#DejaVuSans-65"/>
      <use x="66.658203" xlink:href="#DejaVuSans-113"/>
      <use x="130.134766" xlink:href="#DejaVuSans-117"/>
      <use x="193.513672" xlink:href="#DejaVuSans-105"/>
      <use x="221.296875" xlink:href="#DejaVuSans-108"/>
      <use x="249.080078" xlink:href="#DejaVuSans-101"/>
      <use x="310.603516" xlink:href="#DejaVuSans-103"/>
      <use x="374.080078" xlink:href="#DejaVuSans-105"/>
      <use x="401.863281" xlink:href="#DejaVuSans-97"/>
      <use x="463.142578" xlink:href="#DejaVuSans-95"/>
      <use x="513.142578" xlink:href="#DejaVuSans-99"/>
      <use x="568.123047" xlink:href="#DejaVuSans-111"/>
      <use x="629.304688" xlink:href="#DejaVuSans-101"/>
      <use x="690.828125" xlink:href="#DejaVuSans-114"/>
      <use x="731.941406" xlink:href="#DejaVuSans-117"/>
      <use x="795.320312" xlink:href="#DejaVuSans-108"/>
      <use x="823.103516" xlink:href="#DejaVuSans-101"/>
      <use x="884.626953" xlink:href="#DejaVuSans-97"/>
      <use x="945.90625" xlink:href="#DejaVuSans-95"/>
      <use x="995.90625" xlink:href="#DejaVuSans-95"/>
      <use x="1045.90625" xlink:href="#DejaVuSans-86"/>
      <use x="1112.064453" xlink:href="#DejaVuSans-105"/>
      <use x="1139.847656" xlink:href="#DejaVuSans-116"/>
      <use x="1179.056641" xlink:href="#DejaVuSans-105"/>
      <use x="1206.839844" xlink:href="#DejaVuSans-115"/>
      <use x="1258.939453" xlink:href="#DejaVuSans-95"/>
      <use x="1308.939453" xlink:href="#DejaVuSans-118"/>
      <use x="1368.119141" xlink:href="#DejaVuSans-105"/>
      <use x="1395.902344" xlink:href="#DejaVuSans-110"/>
      <use x="1459.28125" xlink:href="#DejaVuSans-105"/>
      <use x="1487.064453" xlink:href="#DejaVuSans-102"/>
      <use x="1522.269531" xlink:href="#DejaVuSans-101"/>
      <use x="1583.792969" xlink:href="#DejaVuSans-114"/>
      <use x="1624.90625" xlink:href="#DejaVuSans-97"/>
     </g>
    </g>
    <g id="patch_157">
     <path d="M 414.085625 195.386937 
L 434.085625 195.386937 
L 434.085625 188.386937 
L 414.085625 188.386937 
z
" style="fill:#fde725;opacity:0.5;"/>
    </g>
    <g id="text_23">
     <!-- Acorus_americanus__Aquilegia_coerulea -->
     <g transform="translate(442.085625 195.386937)scale(0.1 -0.1)">
      <use xlink:href="#DejaVuSans-65"/>
      <use x="66.658203" xlink:href="#DejaVuSans-99"/>
      <use x="121.638672" xlink:href="#DejaVuSans-111"/>
      <use x="182.820312" xlink:href="#DejaVuSans-114"/>
      <use x="223.933594" xlink:href="#DejaVuSans-117"/>
      <use x="287.3125" xlink:href="#DejaVuSans-115"/>
      <use x="339.412109" xlink:href="#DejaVuSans-95"/>
      <use x="389.412109" xlink:href="#DejaVuSans-97"/>
      <use x="450.691406" xlink:href="#DejaVuSans-109"/>
      <use x="548.103516" xlink:href="#DejaVuSans-101"/>
      <use x="609.626953" xlink:href="#DejaVuSans-114"/>
      <use x="650.740234" xlink:href="#DejaVuSans-105"/>
      <use x="678.523438" xlink:href="#DejaVuSans-99"/>
      <use x="733.503906" xlink:href="#DejaVuSans-97"/>
      <use x="794.783203" xlink:href="#DejaVuSans-110"/>
      <use x="858.162109" xlink:href="#DejaVuSans-117"/>
      <use x="921.541016" xlink:href="#DejaVuSans-115"/>
      <use x="973.640625" xlink:href="#DejaVuSans-95"/>
      <use x="1023.640625" xlink:href="#DejaVuSans-95"/>
      <use x="1073.640625" xlink:href="#DejaVuSans-65"/>
      <use x="1140.298828" xlink:href="#DejaVuSans-113"/>
      <use x="1203.775391" xlink:href="#DejaVuSans-117"/>
      <use x="1267.154297" xlink:href="#DejaVuSans-105"/>
      <use x="1294.9375" xlink:href="#DejaVuSans-108"/>
      <use x="1322.720703" xlink:href="#DejaVuSans-101"/>
      <use x="1384.244141" xlink:href="#DejaVuSans-103"/>
      <use x="1447.720703" xlink:href="#DejaVuSans-105"/>
      <use x="1475.503906" xlink:href="#DejaVuSans-97"/>
      <use x="1536.783203" xlink:href="#DejaVuSans-95"/>
      <use x="1586.783203" xlink:href="#DejaVuSans-99"/>
      <use x="1641.763672" xlink:href="#DejaVuSans-111"/>
      <use x="1702.945312" xlink:href="#DejaVuSans-101"/>
      <use x="1764.46875" xlink:href="#DejaVuSans-114"/>
      <use x="1805.582031" xlink:href="#DejaVuSans-117"/>
      <use x="1868.960938" xlink:href="#DejaVuSans-108"/>
      <use x="1896.744141" xlink:href="#DejaVuSans-101"/>
      <use x="1958.267578" xlink:href="#DejaVuSans-97"/>
     </g>
    </g>
   </g>
  </g>
 </g>
 <defs>
  <clipPath id="pce49fad309">
   <rect height="266.112" width="357.12" x="47.965625" y="22.32"/>
  </clipPath>
 </defs>
</svg>
