<?xml version="1.0" encoding="utf-8" standalone="no"?>
<!DOCTYPE svg PUBLIC "-//W3C//DTD SVG 1.1//EN"
  "http://www.w3.org/Graphics/SVG/1.1/DTD/svg11.dtd">
<!-- Created with matplotlib (https://matplotlib.org/) -->
<svg height="1440pt" version="1.1" viewBox="0 0 720 1440" width="720pt" xmlns="http://www.w3.org/2000/svg" xmlns:xlink="http://www.w3.org/1999/xlink">
 <defs>
  <style type="text/css">
*{stroke-linecap:butt;stroke-linejoin:round;}
  </style>
 </defs>
 <g id="figure_1">
  <g id="patch_1">
   <path d="M 0 1440 
L 720 1440 
L 720 0 
L 0 0 
z
" style="fill:#ffffff;"/>
  </g>
  <g id="axes_1">
   <g id="patch_2">
    <path d="M 102.49 1362.04 
L 674.775 1362.04 
L 674.775 10.8 
L 102.49 10.8 
z
" style="fill:#ffffff;"/>
   </g>
   <g id="patch_3">
    <path clip-path="url(#pa48b639021)" d="M 102.49 1300.62 
L 674.775 1300.62 
L 674.775 1269.91 
L 102.49 1269.91 
z
" style="opacity:0.3;"/>
   </g>
   <g id="patch_4">
    <path clip-path="url(#pa48b639021)" d="M 102.49 1116.36 
L 662.545042 1116.36 
L 662.545042 1085.65 
L 102.49 1085.65 
z
" style="opacity:0.3;"/>
   </g>
   <g id="patch_5">
    <path clip-path="url(#pa48b639021)" d="M 102.49 932.1 
L 658.702771 932.1 
L 658.702771 901.39 
L 102.49 901.39 
z
" style="opacity:0.3;"/>
   </g>
   <g id="patch_6">
    <path clip-path="url(#pa48b639021)" d="M 102.49 747.84 
L 646.76534 747.84 
L 646.76534 717.13 
L 102.49 717.13 
z
" style="opacity:0.3;"/>
   </g>
   <g id="patch_7">
    <path clip-path="url(#pa48b639021)" d="M 102.49 563.58 
L 641.889569 563.58 
L 641.889569 532.87 
L 102.49 532.87 
z
" style="opacity:0.3;"/>
   </g>
   <g id="patch_8">
    <path clip-path="url(#pa48b639021)" d="M 102.49 379.32 
L 635.967082 379.32 
L 635.967082 348.61 
L 102.49 348.61 
z
" style="opacity:0.3;"/>
   </g>
   <g id="patch_9">
    <path clip-path="url(#pa48b639021)" d="M 102.49 195.06 
L 482.394727 195.06 
L 482.394727 164.35 
L 102.49 164.35 
z
" style="opacity:0.3;"/>
   </g>
   <g id="patch_10">
    <path clip-path="url(#pa48b639021)" d="M 456.496976 1263.768 
L 471.071543 1263.768 
L 471.071543 1228.4515 
L 456.496976 1228.4515 
z
" style="fill:url(#h3e9dc5f617);opacity:0.4;"/>
   </g>
   <g id="patch_11">
    <path clip-path="url(#pa48b639021)" d="M 213.819725 1263.768 
L 234.907167 1263.768 
L 234.907167 1228.4515 
L 213.819725 1228.4515 
z
" style="fill:url(#h3e9dc5f617);opacity:0.4;"/>
   </g>
   <g id="patch_12">
    <path clip-path="url(#pa48b639021)" d="M 149.024585 1263.768 
L 155.807061 1263.768 
L 155.807061 1228.4515 
L 149.024585 1228.4515 
z
" style="fill:url(#h3e9dc5f617);opacity:0.4;"/>
   </g>
   <g id="patch_13">
    <path clip-path="url(#pa48b639021)" d="M 179.552939 1263.768 
L 189.034402 1263.768 
L 189.034402 1228.4515 
L 179.552939 1228.4515 
z
" style="fill:url(#h3e9dc5f617);opacity:0.4;"/>
   </g>
   <g id="patch_14">
    <path clip-path="url(#pa48b639021)" d="M 428.976963 1263.768 
L 451.026958 1263.768 
L 451.026958 1228.4515 
L 428.976963 1228.4515 
z
" style="fill:url(#h3e9dc5f617);opacity:0.4;"/>
   </g>
   <g id="patch_15">
    <path clip-path="url(#pa48b639021)" d="M 627.803762 1263.768 
L 633.405739 1263.768 
L 633.405739 1228.4515 
L 627.803762 1228.4515 
z
" style="fill:url(#h3e9dc5f617);opacity:0.4;"/>
   </g>
   <g id="patch_16">
    <path clip-path="url(#pa48b639021)" d="M 628.9612 1263.768 
L 632.385669 1263.768 
L 632.385669 1228.4515 
L 628.9612 1228.4515 
z
" style="fill:url(#h3e9dc5f617);opacity:0.4;"/>
   </g>
   <g id="patch_17">
    <path clip-path="url(#pa48b639021)" d="M 250.057417 1263.768 
L 256.039619 1263.768 
L 256.039619 1228.4515 
L 250.057417 1228.4515 
z
" style="fill:url(#h3e9dc5f617);opacity:0.4;"/>
   </g>
   <g id="patch_18">
    <path clip-path="url(#pa48b639021)" d="M 129.014541 1263.768 
L 133.863703 1263.768 
L 133.863703 1228.4515 
L 129.014541 1228.4515 
z
" style="fill:url(#h3e9dc5f617);opacity:0.4;"/>
   </g>
   <g id="patch_19">
    <path clip-path="url(#pa48b639021)" d="M 314.340711 1263.768 
L 320.720515 1263.768 
L 320.720515 1228.4515 
L 314.340711 1228.4515 
z
" style="fill:url(#h3e9dc5f617);opacity:0.4;"/>
   </g>
   <g id="patch_20">
    <path clip-path="url(#pa48b639021)" d="M 112.433339 1263.768 
L 116.552808 1263.768 
L 116.552808 1228.4515 
L 112.433339 1228.4515 
z
" style="fill:url(#h3e9dc5f617);opacity:0.4;"/>
   </g>
   <g id="patch_21">
    <path clip-path="url(#pa48b639021)" d="M 659.867593 1263.768 
L 663.404095 1263.768 
L 663.404095 1228.4515 
L 659.867593 1228.4515 
z
" style="fill:url(#h3e9dc5f617);opacity:0.4;"/>
   </g>
   <g id="patch_22">
    <path clip-path="url(#pa48b639021)" d="M 622.110764 1263.768 
L 629.563705 1263.768 
L 629.563705 1228.4515 
L 622.110764 1228.4515 
z
" style="fill:url(#h3e9dc5f617);opacity:0.4;"/>
   </g>
   <g id="patch_23">
    <path clip-path="url(#pa48b639021)" d="M 548.404359 1263.768 
L 557.66353 1263.768 
L 557.66353 1228.4515 
L 548.404359 1228.4515 
z
" style="fill:url(#h3e9dc5f617);opacity:0.4;"/>
   </g>
   <g id="patch_24">
    <path clip-path="url(#pa48b639021)" d="M 452.158537 1263.768 
L 459.306535 1263.768 
L 459.306535 1228.4515 
L 452.158537 1228.4515 
z
" style="fill:url(#h3e9dc5f617);opacity:0.4;"/>
   </g>
   <g id="patch_25">
    <path clip-path="url(#pa48b639021)" d="M 503.926417 1263.768 
L 519.582381 1263.768 
L 519.582381 1228.4515 
L 503.926417 1228.4515 
z
" style="fill:url(#h3e9dc5f617);opacity:0.4;"/>
   </g>
   <g id="patch_26">
    <path clip-path="url(#pa48b639021)" d="M 143.164823 1263.768 
L 148.333969 1263.768 
L 148.333969 1228.4515 
L 143.164823 1228.4515 
z
" style="fill:url(#h3e9dc5f617);opacity:0.4;"/>
   </g>
   <g id="patch_27">
    <path clip-path="url(#pa48b639021)" d="M 258.772086 1263.768 
L 267.163546 1263.768 
L 267.163546 1228.4515 
L 258.772086 1228.4515 
z
" style="fill:url(#h3e9dc5f617);opacity:0.4;"/>
   </g>
   <g id="patch_28">
    <path clip-path="url(#pa48b639021)" d="M 124.943731 1263.768 
L 128.989169 1263.768 
L 128.989169 1228.4515 
L 124.943731 1228.4515 
z
" style="fill:url(#h3e9dc5f617);opacity:0.4;"/>
   </g>
   <g id="patch_29">
    <path clip-path="url(#pa48b639021)" d="M 591.167556 1079.508 
L 608.612833 1079.508 
L 608.612833 1044.1915 
L 591.167556 1044.1915 
z
" style="fill:url(#h3e9dc5f617);opacity:0.4;"/>
   </g>
   <g id="patch_30">
    <path clip-path="url(#pa48b639021)" d="M 632.53157 1079.508 
L 644.057021 1079.508 
L 644.057021 1044.1915 
L 632.53157 1044.1915 
z
" style="fill:url(#h3e9dc5f617);opacity:0.4;"/>
   </g>
   <g id="patch_31">
    <path clip-path="url(#pa48b639021)" d="M 186.666919 1079.508 
L 195.519343 1079.508 
L 195.519343 1044.1915 
L 186.666919 1044.1915 
z
" style="fill:url(#h3e9dc5f617);opacity:0.4;"/>
   </g>
   <g id="patch_32">
    <path clip-path="url(#pa48b639021)" d="M 188.701624 1079.508 
L 191.09468 1079.508 
L 191.09468 1044.1915 
L 188.701624 1044.1915 
z
" style="fill:url(#h3e9dc5f617);opacity:0.4;"/>
   </g>
   <g id="patch_33">
    <path clip-path="url(#pa48b639021)" d="M 314.669079 1079.508 
L 326.150893 1079.508 
L 326.150893 1044.1915 
L 314.669079 1044.1915 
z
" style="fill:url(#h3e9dc5f617);opacity:0.4;"/>
   </g>
   <g id="patch_34">
    <path clip-path="url(#pa48b639021)" d="M 619.098488 1079.508 
L 627.495645 1079.508 
L 627.495645 1044.1915 
L 619.098488 1044.1915 
z
" style="fill:url(#h3e9dc5f617);opacity:0.4;"/>
   </g>
   <g id="patch_35">
    <path clip-path="url(#pa48b639021)" d="M 612.502826 1079.508 
L 617.621589 1079.508 
L 617.621589 1044.1915 
L 612.502826 1044.1915 
z
" style="fill:url(#h3e9dc5f617);opacity:0.4;"/>
   </g>
   <g id="patch_36">
    <path clip-path="url(#pa48b639021)" d="M 182.686605 1079.508 
L 185.836386 1079.508 
L 185.836386 1044.1915 
L 182.686605 1044.1915 
z
" style="fill:url(#h3e9dc5f617);opacity:0.4;"/>
   </g>
   <g id="patch_37">
    <path clip-path="url(#pa48b639021)" d="M 140.657473 1079.508 
L 147.689027 1079.508 
L 147.689027 1044.1915 
L 140.657473 1044.1915 
z
" style="fill:url(#h3e9dc5f617);opacity:0.4;"/>
   </g>
   <g id="patch_38">
    <path clip-path="url(#pa48b639021)" d="M 178.921063 1079.508 
L 181.323413 1079.508 
L 181.323413 1044.1915 
L 178.921063 1044.1915 
z
" style="fill:url(#h3e9dc5f617);opacity:0.4;"/>
   </g>
   <g id="patch_39">
    <path clip-path="url(#pa48b639021)" d="M 273.067106 1079.508 
L 278.823217 1079.508 
L 278.823217 1044.1915 
L 273.067106 1044.1915 
z
" style="fill:url(#h3e9dc5f617);opacity:0.4;"/>
   </g>
   <g id="patch_40">
    <path clip-path="url(#pa48b639021)" d="M 206.311016 1079.508 
L 209.881848 1079.508 
L 209.881848 1044.1915 
L 206.311016 1044.1915 
z
" style="fill:url(#h3e9dc5f617);opacity:0.4;"/>
   </g>
   <g id="patch_41">
    <path clip-path="url(#pa48b639021)" d="M 628.215855 1079.508 
L 632.418712 1079.508 
L 632.418712 1044.1915 
L 628.215855 1044.1915 
z
" style="fill:url(#h3e9dc5f617);opacity:0.4;"/>
   </g>
   <g id="patch_42">
    <path clip-path="url(#pa48b639021)" d="M 171.754439 1079.508 
L 175.378652 1079.508 
L 175.378652 1044.1915 
L 171.754439 1044.1915 
z
" style="fill:url(#h3e9dc5f617);opacity:0.4;"/>
   </g>
   <g id="patch_43">
    <path clip-path="url(#pa48b639021)" d="M 301.179281 1079.508 
L 309.731708 1079.508 
L 309.731708 1044.1915 
L 301.179281 1044.1915 
z
" style="fill:url(#h3e9dc5f617);opacity:0.4;"/>
   </g>
   <g id="patch_44">
    <path clip-path="url(#pa48b639021)" d="M 578.94703 1079.508 
L 585.767759 1079.508 
L 585.767759 1044.1915 
L 578.94703 1044.1915 
z
" style="fill:url(#h3e9dc5f617);opacity:0.4;"/>
   </g>
   <g id="patch_45">
    <path clip-path="url(#pa48b639021)" d="M 326.609721 1079.508 
L 338.527852 1079.508 
L 338.527852 1044.1915 
L 326.609721 1044.1915 
z
" style="fill:url(#h3e9dc5f617);opacity:0.4;"/>
   </g>
   <g id="patch_46">
    <path clip-path="url(#pa48b639021)" d="M 332.920478 1079.508 
L 339.128633 1079.508 
L 339.128633 1044.1915 
L 332.920478 1044.1915 
z
" style="fill:url(#h3e9dc5f617);opacity:0.4;"/>
   </g>
   <g id="patch_47">
    <path clip-path="url(#pa48b639021)" d="M 260.819696 1079.508 
L 265.029811 1079.508 
L 265.029811 1044.1915 
L 260.819696 1044.1915 
z
" style="fill:url(#h3e9dc5f617);opacity:0.4;"/>
   </g>
   <g id="patch_48">
    <path clip-path="url(#pa48b639021)" d="M 260.97789 1079.508 
L 263.641285 1079.508 
L 263.641285 1044.1915 
L 260.97789 1044.1915 
z
" style="fill:url(#h3e9dc5f617);opacity:0.4;"/>
   </g>
   <g id="patch_49">
    <path clip-path="url(#pa48b639021)" d="M 448.796569 1079.508 
L 459.767399 1079.508 
L 459.767399 1044.1915 
L 448.796569 1044.1915 
z
" style="fill:url(#h3e9dc5f617);opacity:0.4;"/>
   </g>
   <g id="patch_50">
    <path clip-path="url(#pa48b639021)" d="M 162.987065 1079.508 
L 167.42542 1079.508 
L 167.42542 1044.1915 
L 162.987065 1044.1915 
z
" style="fill:url(#h3e9dc5f617);opacity:0.4;"/>
   </g>
   <g id="patch_51">
    <path clip-path="url(#pa48b639021)" d="M 644.65774 1079.508 
L 647.870871 1079.508 
L 647.870871 1044.1915 
L 644.65774 1044.1915 
z
" style="fill:url(#h3e9dc5f617);opacity:0.4;"/>
   </g>
   <g id="patch_52">
    <path clip-path="url(#pa48b639021)" d="M 250.856206 1079.508 
L 253.519714 1079.508 
L 253.519714 1044.1915 
L 250.856206 1044.1915 
z
" style="fill:url(#h3e9dc5f617);opacity:0.4;"/>
   </g>
   <g id="patch_53">
    <path clip-path="url(#pa48b639021)" d="M 113.826238 895.248 
L 145.011902 895.248 
L 145.011902 859.9315 
L 113.826238 859.9315 
z
" style="fill:url(#h3e9dc5f617);opacity:0.4;"/>
   </g>
   <g id="patch_54">
    <path clip-path="url(#pa48b639021)" d="M 202.766456 895.248 
L 221.909164 895.248 
L 221.909164 859.9315 
L 202.766456 859.9315 
z
" style="fill:url(#h3e9dc5f617);opacity:0.4;"/>
   </g>
   <g id="patch_55">
    <path clip-path="url(#pa48b639021)" d="M 242.78332 895.248 
L 258.816609 895.248 
L 258.816609 859.9315 
L 242.78332 859.9315 
z
" style="fill:url(#h3e9dc5f617);opacity:0.4;"/>
   </g>
   <g id="patch_56">
    <path clip-path="url(#pa48b639021)" d="M 250.114321 895.248 
L 255.870457 895.248 
L 255.870457 859.9315 
L 250.114321 859.9315 
z
" style="fill:url(#h3e9dc5f617);opacity:0.4;"/>
   </g>
   <g id="patch_57">
    <path clip-path="url(#pa48b639021)" d="M 250.114321 848.159333 
L 255.870457 848.159333 
L 255.870457 812.842833 
L 250.114321 812.842833 
z
" style="fill:url(#h3e9dc5f617);opacity:0.4;"/>
   </g>
   <g id="patch_58">
    <path clip-path="url(#pa48b639021)" d="M 622.609268 895.248 
L 628.385167 895.248 
L 628.385167 859.9315 
L 622.609268 859.9315 
z
" style="fill:url(#h3e9dc5f617);opacity:0.4;"/>
   </g>
   <g id="patch_59">
    <path clip-path="url(#pa48b639021)" d="M 622.609268 848.159333 
L 628.385167 848.159333 
L 628.385167 812.842833 
L 622.609268 812.842833 
z
" style="fill:url(#h3e9dc5f617);opacity:0.4;"/>
   </g>
   <g id="patch_60">
    <path clip-path="url(#pa48b639021)" d="M 145.111081 895.248 
L 152.670734 895.248 
L 152.670734 859.9315 
L 145.111081 859.9315 
z
" style="fill:url(#h3e9dc5f617);opacity:0.4;"/>
   </g>
   <g id="patch_61">
    <path clip-path="url(#pa48b639021)" d="M 158.870944 895.248 
L 166.123217 895.248 
L 166.123217 859.9315 
L 158.870944 859.9315 
z
" style="fill:url(#h3e9dc5f617);opacity:0.4;"/>
   </g>
   <g id="patch_62">
    <path clip-path="url(#pa48b639021)" d="M 583.092746 895.248 
L 595.819834 895.248 
L 595.819834 859.9315 
L 583.092746 859.9315 
z
" style="fill:url(#h3e9dc5f617);opacity:0.4;"/>
   </g>
   <g id="patch_63">
    <path clip-path="url(#pa48b639021)" d="M 591.967357 895.248 
L 595.225999 895.248 
L 595.225999 859.9315 
L 591.967357 859.9315 
z
" style="fill:url(#h3e9dc5f617);opacity:0.4;"/>
   </g>
   <g id="patch_64">
    <path clip-path="url(#pa48b639021)" d="M 228.362436 895.248 
L 239.178508 895.248 
L 239.178508 859.9315 
L 228.362436 859.9315 
z
" style="fill:url(#h3e9dc5f617);opacity:0.4;"/>
   </g>
   <g id="patch_65">
    <path clip-path="url(#pa48b639021)" d="M 220.873528 895.248 
L 226.257572 895.248 
L 226.257572 859.9315 
L 220.873528 859.9315 
z
" style="fill:url(#h3e9dc5f617);opacity:0.4;"/>
   </g>
   <g id="patch_66">
    <path clip-path="url(#pa48b639021)" d="M 407.858789 895.248 
L 413.566641 895.248 
L 413.566641 859.9315 
L 407.858789 859.9315 
z
" style="fill:url(#h3e9dc5f617);opacity:0.4;"/>
   </g>
   <g id="patch_67">
    <path clip-path="url(#pa48b639021)" d="M 596.74521 895.248 
L 603.280359 895.248 
L 603.280359 859.9315 
L 596.74521 859.9315 
z
" style="fill:url(#h3e9dc5f617);opacity:0.4;"/>
   </g>
   <g id="patch_68">
    <path clip-path="url(#pa48b639021)" d="M 153.618597 895.248 
L 158.189898 895.248 
L 158.189898 859.9315 
L 153.618597 859.9315 
z
" style="fill:url(#h3e9dc5f617);opacity:0.4;"/>
   </g>
   <g id="patch_69">
    <path clip-path="url(#pa48b639021)" d="M 177.573912 895.248 
L 180.023609 895.248 
L 180.023609 859.9315 
L 177.573912 859.9315 
z
" style="fill:url(#h3e9dc5f617);opacity:0.4;"/>
   </g>
   <g id="patch_70">
    <path clip-path="url(#pa48b639021)" d="M 618.052196 895.248 
L 622.609268 895.248 
L 622.609268 859.9315 
L 618.052196 859.9315 
z
" style="fill:url(#h3e9dc5f617);opacity:0.4;"/>
   </g>
   <g id="patch_71">
    <path clip-path="url(#pa48b639021)" d="M 615.399033 895.248 
L 618.529051 895.248 
L 618.529051 859.9315 
L 615.399033 859.9315 
z
" style="fill:url(#h3e9dc5f617);opacity:0.4;"/>
   </g>
   <g id="patch_72">
    <path clip-path="url(#pa48b639021)" d="M 255.270488 710.988 
L 260.684189 710.988 
L 260.684189 675.6715 
L 255.270488 675.6715 
z
" style="fill:url(#h3e9dc5f617);opacity:0.4;"/>
   </g>
   <g id="patch_73">
    <path clip-path="url(#pa48b639021)" d="M 355.91294 710.988 
L 357.382993 710.988 
L 357.382993 675.6715 
L 355.91294 675.6715 
z
" style="fill:url(#h3e9dc5f617);opacity:0.4;"/>
   </g>
   <g id="patch_74">
    <path clip-path="url(#pa48b639021)" d="M 623.610986 710.988 
L 626.602762 710.988 
L 626.602762 675.6715 
L 623.610986 675.6715 
z
" style="fill:url(#h3e9dc5f617);opacity:0.4;"/>
   </g>
   <g id="patch_75">
    <path clip-path="url(#pa48b639021)" d="M 211.660981 710.988 
L 218.019809 710.988 
L 218.019809 675.6715 
L 211.660981 675.6715 
z
" style="fill:url(#h3e9dc5f617);opacity:0.4;"/>
   </g>
   <g id="patch_76">
    <path clip-path="url(#pa48b639021)" d="M 621.477802 710.988 
L 623.579105 710.988 
L 623.579105 675.6715 
L 621.477802 675.6715 
z
" style="fill:url(#h3e9dc5f617);opacity:0.4;"/>
   </g>
   <g id="patch_77">
    <path clip-path="url(#pa48b639021)" d="M 237.696874 710.988 
L 242.486171 710.988 
L 242.486171 675.6715 
L 237.696874 675.6715 
z
" style="fill:url(#h3e9dc5f617);opacity:0.4;"/>
   </g>
   <g id="patch_78">
    <path clip-path="url(#pa48b639021)" d="M 565.700275 710.988 
L 571.976939 710.988 
L 571.976939 675.6715 
L 565.700275 675.6715 
z
" style="fill:url(#h3e9dc5f617);opacity:0.4;"/>
   </g>
   <g id="patch_79">
    <path clip-path="url(#pa48b639021)" d="M 334.658709 710.988 
L 347.621858 710.988 
L 347.621858 675.6715 
L 334.658709 675.6715 
z
" style="fill:url(#h3e9dc5f617);opacity:0.4;"/>
   </g>
   <g id="patch_80">
    <path clip-path="url(#pa48b639021)" d="M 226.828171 710.988 
L 237.137269 710.988 
L 237.137269 675.6715 
L 226.828171 675.6715 
z
" style="fill:url(#h3e9dc5f617);opacity:0.4;"/>
   </g>
   <g id="patch_81">
    <path clip-path="url(#pa48b639021)" d="M 565.850848 526.728 
L 603.744908 526.728 
L 603.744908 491.4115 
L 565.850848 491.4115 
z
" style="fill:url(#h3e9dc5f617);opacity:0.4;"/>
   </g>
   <g id="patch_82">
    <path clip-path="url(#pa48b639021)" d="M 181.532364 526.728 
L 198.979228 526.728 
L 198.979228 491.4115 
L 181.532364 491.4115 
z
" style="fill:url(#h3e9dc5f617);opacity:0.4;"/>
   </g>
   <g id="patch_83">
    <path clip-path="url(#pa48b639021)" d="M 554.238574 526.728 
L 563.547952 526.728 
L 563.547952 491.4115 
L 554.238574 491.4115 
z
" style="fill:url(#h3e9dc5f617);opacity:0.4;"/>
   </g>
   <g id="patch_84">
    <path clip-path="url(#pa48b639021)" d="M 361.949446 526.728 
L 386.156425 526.728 
L 386.156425 491.4115 
L 361.949446 491.4115 
z
" style="fill:url(#h3e9dc5f617);opacity:0.4;"/>
   </g>
   <g id="patch_85">
    <path clip-path="url(#pa48b639021)" d="M 530.539231 526.728 
L 544.34057 526.728 
L 544.34057 491.4115 
L 530.539231 491.4115 
z
" style="fill:url(#h3e9dc5f617);opacity:0.4;"/>
   </g>
   <g id="patch_86">
    <path clip-path="url(#pa48b639021)" d="M 405.890032 526.728 
L 440.544788 526.728 
L 440.544788 491.4115 
L 405.890032 491.4115 
z
" style="fill:url(#h3e9dc5f617);opacity:0.4;"/>
   </g>
   <g id="patch_87">
    <path clip-path="url(#pa48b639021)" d="M 411.37183 526.728 
L 421.348887 526.728 
L 421.348887 491.4115 
L 411.37183 491.4115 
z
" style="fill:url(#h3e9dc5f617);opacity:0.4;"/>
   </g>
   <g id="patch_88">
    <path clip-path="url(#pa48b639021)" d="M 424.065076 526.728 
L 434.839348 526.728 
L 434.839348 491.4115 
L 424.065076 491.4115 
z
" style="fill:url(#h3e9dc5f617);opacity:0.4;"/>
   </g>
   <g id="patch_89">
    <path clip-path="url(#pa48b639021)" d="M 236.300428 526.728 
L 263.717052 526.728 
L 263.717052 491.4115 
L 236.300428 491.4115 
z
" style="fill:url(#h3e9dc5f617);opacity:0.4;"/>
   </g>
   <g id="patch_90">
    <path clip-path="url(#pa48b639021)" d="M 393.336878 526.728 
L 395.472649 526.728 
L 395.472649 491.4115 
L 393.336878 491.4115 
z
" style="fill:url(#h3e9dc5f617);opacity:0.4;"/>
   </g>
   <g id="patch_91">
    <path clip-path="url(#pa48b639021)" d="M 220.779796 526.728 
L 229.311211 526.728 
L 229.311211 491.4115 
L 220.779796 491.4115 
z
" style="fill:url(#h3e9dc5f617);opacity:0.4;"/>
   </g>
   <g id="patch_92">
    <path clip-path="url(#pa48b639021)" d="M 394.627763 526.728 
L 398.765208 526.728 
L 398.765208 491.4115 
L 394.627763 491.4115 
z
" style="fill:url(#h3e9dc5f617);opacity:0.4;"/>
   </g>
   <g id="patch_93">
    <path clip-path="url(#pa48b639021)" d="M 392.697732 526.728 
L 395.900258 526.728 
L 395.900258 491.4115 
L 392.697732 491.4115 
z
" style="fill:url(#h3e9dc5f617);opacity:0.4;"/>
   </g>
   <g id="patch_94">
    <path clip-path="url(#pa48b639021)" d="M 307.84018 526.728 
L 327.161969 526.728 
L 327.161969 491.4115 
L 307.84018 491.4115 
z
" style="fill:url(#h3e9dc5f617);opacity:0.4;"/>
   </g>
   <g id="patch_95">
    <path clip-path="url(#pa48b639021)" d="M 484.3992 526.728 
L 492.437145 526.728 
L 492.437145 491.4115 
L 484.3992 491.4115 
z
" style="fill:url(#h3e9dc5f617);opacity:0.4;"/>
   </g>
   <g id="patch_96">
    <path clip-path="url(#pa48b639021)" d="M 155.959708 526.728 
L 163.306413 526.728 
L 163.306413 491.4115 
L 155.959708 491.4115 
z
" style="fill:url(#h3e9dc5f617);opacity:0.4;"/>
   </g>
   <g id="patch_97">
    <path clip-path="url(#pa48b639021)" d="M 388.717156 526.728 
L 391.81668 526.728 
L 391.81668 491.4115 
L 388.717156 491.4115 
z
" style="fill:url(#h3e9dc5f617);opacity:0.4;"/>
   </g>
   <g id="patch_98">
    <path clip-path="url(#pa48b639021)" d="M 176.708801 526.728 
L 180.363683 526.728 
L 180.363683 491.4115 
L 176.708801 491.4115 
z
" style="fill:url(#h3e9dc5f617);opacity:0.4;"/>
   </g>
   <g id="patch_99">
    <path clip-path="url(#pa48b639021)" d="M 285.656688 526.728 
L 294.357352 526.728 
L 294.357352 491.4115 
L 285.656688 491.4115 
z
" style="fill:url(#h3e9dc5f617);opacity:0.4;"/>
   </g>
   <g id="patch_100">
    <path clip-path="url(#pa48b639021)" d="M 451.1458 526.728 
L 458.912218 526.728 
L 458.912218 491.4115 
L 451.1458 491.4115 
z
" style="fill:url(#h3e9dc5f617);opacity:0.4;"/>
   </g>
   <g id="patch_101">
    <path clip-path="url(#pa48b639021)" d="M 169.583477 526.728 
L 174.489967 526.728 
L 174.489967 491.4115 
L 169.583477 491.4115 
z
" style="fill:url(#h3e9dc5f617);opacity:0.4;"/>
   </g>
   <g id="patch_102">
    <path clip-path="url(#pa48b639021)" d="M 461.198762 526.728 
L 464.799876 526.728 
L 464.799876 491.4115 
L 461.198762 491.4115 
z
" style="fill:url(#h3e9dc5f617);opacity:0.4;"/>
   </g>
   <g id="patch_103">
    <path clip-path="url(#pa48b639021)" d="M 199.281286 526.728 
L 209.903273 526.728 
L 209.903273 491.4115 
L 199.281286 491.4115 
z
" style="fill:url(#h3e9dc5f617);opacity:0.4;"/>
   </g>
   <g id="patch_104">
    <path clip-path="url(#pa48b639021)" d="M 544.604363 526.728 
L 550.099167 526.728 
L 550.099167 491.4115 
L 544.604363 491.4115 
z
" style="fill:url(#h3e9dc5f617);opacity:0.4;"/>
   </g>
   <g id="patch_105">
    <path clip-path="url(#pa48b639021)" d="M 345.938194 526.728 
L 362.061905 526.728 
L 362.061905 491.4115 
L 345.938194 491.4115 
z
" style="fill:url(#h3e9dc5f617);opacity:0.4;"/>
   </g>
   <g id="patch_106">
    <path clip-path="url(#pa48b639021)" d="M 547.207544 526.728 
L 550.660059 526.728 
L 550.660059 491.4115 
L 547.207544 491.4115 
z
" style="fill:url(#h3e9dc5f617);opacity:0.4;"/>
   </g>
   <g id="patch_107">
    <path clip-path="url(#pa48b639021)" d="M 504.382284 526.728 
L 510.236574 526.728 
L 510.236574 491.4115 
L 504.382284 491.4115 
z
" style="fill:url(#h3e9dc5f617);opacity:0.4;"/>
   </g>
   <g id="patch_108">
    <path clip-path="url(#pa48b639021)" d="M 511.062622 342.468 
L 559.731965 342.468 
L 559.731965 307.1515 
L 511.062622 307.1515 
z
" style="fill:url(#h3e9dc5f617);opacity:0.4;"/>
   </g>
   <g id="patch_109">
    <path clip-path="url(#pa48b639021)" d="M 163.987384 342.468 
L 214.839832 342.468 
L 214.839832 307.1515 
L 163.987384 307.1515 
z
" style="fill:url(#h3e9dc5f617);opacity:0.4;"/>
   </g>
   <g id="patch_110">
    <path clip-path="url(#pa48b639021)" d="M 230.378528 342.468 
L 246.080789 342.468 
L 246.080789 307.1515 
L 230.378528 307.1515 
z
" style="fill:url(#h3e9dc5f617);opacity:0.4;"/>
   </g>
   <g id="patch_111">
    <path clip-path="url(#pa48b639021)" d="M 588.333599 342.468 
L 594.296038 342.468 
L 594.296038 307.1515 
L 588.333599 307.1515 
z
" style="fill:url(#h3e9dc5f617);opacity:0.4;"/>
   </g>
   <g id="patch_112">
    <path clip-path="url(#pa48b639021)" d="M 155.637587 342.468 
L 161.346738 342.468 
L 161.346738 307.1515 
L 155.637587 307.1515 
z
" style="fill:url(#h3e9dc5f617);opacity:0.4;"/>
   </g>
   <g id="patch_113">
    <path clip-path="url(#pa48b639021)" d="M 599.755599 342.468 
L 603.562491 342.468 
L 603.562491 307.1515 
L 599.755599 307.1515 
z
" style="fill:url(#h3e9dc5f617);opacity:0.4;"/>
   </g>
   <g id="patch_114">
    <path clip-path="url(#pa48b639021)" d="M 139.409588 342.468 
L 142.045762 342.468 
L 142.045762 307.1515 
L 139.409588 307.1515 
z
" style="fill:url(#h3e9dc5f617);opacity:0.4;"/>
   </g>
   <g id="patch_115">
    <path clip-path="url(#pa48b639021)" d="M 519.192862 342.468 
L 527.26265 342.468 
L 527.26265 307.1515 
L 519.192862 307.1515 
z
" style="fill:url(#h3e9dc5f617);opacity:0.4;"/>
   </g>
   <g id="patch_116">
    <path clip-path="url(#pa48b639021)" d="M 497.244893 342.468 
L 504.405071 342.468 
L 504.405071 307.1515 
L 497.244893 307.1515 
z
" style="fill:url(#h3e9dc5f617);opacity:0.4;"/>
   </g>
   <g id="patch_117">
    <path clip-path="url(#pa48b639021)" d="M 220.290349 342.468 
L 226.534446 342.468 
L 226.534446 307.1515 
L 220.290349 307.1515 
z
" style="fill:url(#h3e9dc5f617);opacity:0.4;"/>
   </g>
   <g id="patch_118">
    <path clip-path="url(#pa48b639021)" d="M 183.385415 342.468 
L 188.503742 342.468 
L 188.503742 307.1515 
L 183.385415 307.1515 
z
" style="fill:url(#h3e9dc5f617);opacity:0.4;"/>
   </g>
   <g id="patch_119">
    <path clip-path="url(#pa48b639021)" d="M 518.791587 342.468 
L 523.997224 342.468 
L 523.997224 307.1515 
L 518.791587 307.1515 
z
" style="fill:url(#h3e9dc5f617);opacity:0.4;"/>
   </g>
   <g id="patch_120">
    <path clip-path="url(#pa48b639021)" d="M 194.627734 158.208 
L 218.128282 158.208 
L 218.128282 122.8915 
L 194.627734 122.8915 
z
" style="fill:url(#h3e9dc5f617);opacity:0.4;"/>
   </g>
   <g id="patch_121">
    <path clip-path="url(#pa48b639021)" d="M 170.689708 158.208 
L 185.489205 158.208 
L 185.489205 122.8915 
L 170.689708 122.8915 
z
" style="fill:url(#h3e9dc5f617);opacity:0.4;"/>
   </g>
   <g id="patch_122">
    <path clip-path="url(#pa48b639021)" d="M 179.968892 158.208 
L 182.834567 158.208 
L 182.834567 122.8915 
L 179.968892 122.8915 
z
" style="fill:url(#h3e9dc5f617);opacity:0.4;"/>
   </g>
   <g id="patch_123">
    <path clip-path="url(#pa48b639021)" d="M 172.636629 158.208 
L 177.684884 158.208 
L 177.684884 122.8915 
L 172.636629 122.8915 
z
" style="fill:url(#h3e9dc5f617);opacity:0.4;"/>
   </g>
   <g id="patch_124">
    <path clip-path="url(#pa48b639021)" d="M 172.636629 111.119333 
L 177.684884 111.119333 
L 177.684884 75.802833 
L 172.636629 75.802833 
z
" style="fill:url(#h3e9dc5f617);opacity:0.4;"/>
   </g>
   <g id="patch_125">
    <path clip-path="url(#pa48b639021)" d="M 352.91152 158.208 
L 359.023807 158.208 
L 359.023807 122.8915 
L 352.91152 122.8915 
z
" style="fill:url(#h3e9dc5f617);opacity:0.4;"/>
   </g>
   <g id="patch_126">
    <path clip-path="url(#pa48b639021)" d="M 189.317109 158.208 
L 198.891268 158.208 
L 198.891268 122.8915 
L 189.317109 122.8915 
z
" style="fill:url(#h3e9dc5f617);opacity:0.4;"/>
   </g>
   <g id="patch_127">
    <path clip-path="url(#pa48b639021)" d="M 162.079891 158.208 
L 168.127928 158.208 
L 168.127928 122.8915 
L 162.079891 122.8915 
z
" style="fill:url(#h3e9dc5f617);opacity:0.4;"/>
   </g>
   <g id="matplotlib.axis_1">
    <g id="xtick_1">
     <g id="line2d_1">
      <defs>
       <path d="M 0 0 
L 0 3.5 
" id="mf997677e5c" style="stroke:#000000;stroke-width:0.8;"/>
      </defs>
      <g>
       <use style="stroke:#000000;stroke-width:0.8;" x="102.49" xlink:href="#mf997677e5c" y="1362.04"/>
      </g>
     </g>
     <g id="text_1">
      <!-- 0.00 -->
      <defs>
       <path d="M 31.78125 66.40625 
Q 24.171875 66.40625 20.328125 58.90625 
Q 16.5 51.421875 16.5 36.375 
Q 16.5 21.390625 20.328125 13.890625 
Q 24.171875 6.390625 31.78125 6.390625 
Q 39.453125 6.390625 43.28125 13.890625 
Q 47.125 21.390625 47.125 36.375 
Q 47.125 51.421875 43.28125 58.90625 
Q 39.453125 66.40625 31.78125 66.40625 
z
M 31.78125 74.21875 
Q 44.046875 74.21875 50.515625 64.515625 
Q 56.984375 54.828125 56.984375 36.375 
Q 56.984375 17.96875 50.515625 8.265625 
Q 44.046875 -1.421875 31.78125 -1.421875 
Q 19.53125 -1.421875 13.0625 8.265625 
Q 6.59375 17.96875 6.59375 36.375 
Q 6.59375 54.828125 13.0625 64.515625 
Q 19.53125 74.21875 31.78125 74.21875 
z
" id="DejaVuSans-48"/>
       <path d="M 10.6875 12.40625 
L 21 12.40625 
L 21 0 
L 10.6875 0 
z
" id="DejaVuSans-46"/>
      </defs>
      <g transform="translate(75.77125 1387.27625)scale(0.24 -0.24)">
       <use xlink:href="#DejaVuSans-48"/>
       <use x="63.623047" xlink:href="#DejaVuSans-46"/>
       <use x="95.410156" xlink:href="#DejaVuSans-48"/>
       <use x="159.033203" xlink:href="#DejaVuSans-48"/>
      </g>
     </g>
    </g>
    <g id="xtick_2">
     <g id="line2d_2">
      <g>
       <use style="stroke:#000000;stroke-width:0.8;" x="216.947" xlink:href="#mf997677e5c" y="1362.04"/>
      </g>
     </g>
     <g id="text_2">
      <!-- 9.16 -->
      <defs>
       <path d="M 10.984375 1.515625 
L 10.984375 10.5 
Q 14.703125 8.734375 18.5 7.8125 
Q 22.3125 6.890625 25.984375 6.890625 
Q 35.75 6.890625 40.890625 13.453125 
Q 46.046875 20.015625 46.78125 33.40625 
Q 43.953125 29.203125 39.59375 26.953125 
Q 35.25 24.703125 29.984375 24.703125 
Q 19.046875 24.703125 12.671875 31.3125 
Q 6.296875 37.9375 6.296875 49.421875 
Q 6.296875 60.640625 12.9375 67.421875 
Q 19.578125 74.21875 30.609375 74.21875 
Q 43.265625 74.21875 49.921875 64.515625 
Q 56.59375 54.828125 56.59375 36.375 
Q 56.59375 19.140625 48.40625 8.859375 
Q 40.234375 -1.421875 26.421875 -1.421875 
Q 22.703125 -1.421875 18.890625 -0.6875 
Q 15.09375 0.046875 10.984375 1.515625 
z
M 30.609375 32.421875 
Q 37.25 32.421875 41.125 36.953125 
Q 45.015625 41.5 45.015625 49.421875 
Q 45.015625 57.28125 41.125 61.84375 
Q 37.25 66.40625 30.609375 66.40625 
Q 23.96875 66.40625 20.09375 61.84375 
Q 16.21875 57.28125 16.21875 49.421875 
Q 16.21875 41.5 20.09375 36.953125 
Q 23.96875 32.421875 30.609375 32.421875 
z
" id="DejaVuSans-57"/>
       <path d="M 12.40625 8.296875 
L 28.515625 8.296875 
L 28.515625 63.921875 
L 10.984375 60.40625 
L 10.984375 69.390625 
L 28.421875 72.90625 
L 38.28125 72.90625 
L 38.28125 8.296875 
L 54.390625 8.296875 
L 54.390625 0 
L 12.40625 0 
z
" id="DejaVuSans-49"/>
       <path d="M 33.015625 40.375 
Q 26.375 40.375 22.484375 35.828125 
Q 18.609375 31.296875 18.609375 23.390625 
Q 18.609375 15.53125 22.484375 10.953125 
Q 26.375 6.390625 33.015625 6.390625 
Q 39.65625 6.390625 43.53125 10.953125 
Q 47.40625 15.53125 47.40625 23.390625 
Q 47.40625 31.296875 43.53125 35.828125 
Q 39.65625 40.375 33.015625 40.375 
z
M 52.59375 71.296875 
L 52.59375 62.3125 
Q 48.875 64.0625 45.09375 64.984375 
Q 41.3125 65.921875 37.59375 65.921875 
Q 27.828125 65.921875 22.671875 59.328125 
Q 17.53125 52.734375 16.796875 39.40625 
Q 19.671875 43.65625 24.015625 45.921875 
Q 28.375 48.1875 33.59375 48.1875 
Q 44.578125 48.1875 50.953125 41.515625 
Q 57.328125 34.859375 57.328125 23.390625 
Q 57.328125 12.15625 50.6875 5.359375 
Q 44.046875 -1.421875 33.015625 -1.421875 
Q 20.359375 -1.421875 13.671875 8.265625 
Q 6.984375 17.96875 6.984375 36.375 
Q 6.984375 53.65625 15.1875 63.9375 
Q 23.390625 74.21875 37.203125 74.21875 
Q 40.921875 74.21875 44.703125 73.484375 
Q 48.484375 72.75 52.59375 71.296875 
z
" id="DejaVuSans-54"/>
      </defs>
      <g transform="translate(190.22825 1387.27625)scale(0.24 -0.24)">
       <use xlink:href="#DejaVuSans-57"/>
       <use x="63.623047" xlink:href="#DejaVuSans-46"/>
       <use x="95.410156" xlink:href="#DejaVuSans-49"/>
       <use x="159.033203" xlink:href="#DejaVuSans-54"/>
      </g>
     </g>
    </g>
    <g id="xtick_3">
     <g id="line2d_3">
      <g>
       <use style="stroke:#000000;stroke-width:0.8;" x="331.404" xlink:href="#mf997677e5c" y="1362.04"/>
      </g>
     </g>
     <g id="text_3">
      <!-- 18.32 -->
      <defs>
       <path d="M 31.78125 34.625 
Q 24.75 34.625 20.71875 30.859375 
Q 16.703125 27.09375 16.703125 20.515625 
Q 16.703125 13.921875 20.71875 10.15625 
Q 24.75 6.390625 31.78125 6.390625 
Q 38.8125 6.390625 42.859375 10.171875 
Q 46.921875 13.96875 46.921875 20.515625 
Q 46.921875 27.09375 42.890625 30.859375 
Q 38.875 34.625 31.78125 34.625 
z
M 21.921875 38.8125 
Q 15.578125 40.375 12.03125 44.71875 
Q 8.5 49.078125 8.5 55.328125 
Q 8.5 64.0625 14.71875 69.140625 
Q 20.953125 74.21875 31.78125 74.21875 
Q 42.671875 74.21875 48.875 69.140625 
Q 55.078125 64.0625 55.078125 55.328125 
Q 55.078125 49.078125 51.53125 44.71875 
Q 48 40.375 41.703125 38.8125 
Q 48.828125 37.15625 52.796875 32.3125 
Q 56.78125 27.484375 56.78125 20.515625 
Q 56.78125 9.90625 50.3125 4.234375 
Q 43.84375 -1.421875 31.78125 -1.421875 
Q 19.734375 -1.421875 13.25 4.234375 
Q 6.78125 9.90625 6.78125 20.515625 
Q 6.78125 27.484375 10.78125 32.3125 
Q 14.796875 37.15625 21.921875 38.8125 
z
M 18.3125 54.390625 
Q 18.3125 48.734375 21.84375 45.5625 
Q 25.390625 42.390625 31.78125 42.390625 
Q 38.140625 42.390625 41.71875 45.5625 
Q 45.3125 48.734375 45.3125 54.390625 
Q 45.3125 60.0625 41.71875 63.234375 
Q 38.140625 66.40625 31.78125 66.40625 
Q 25.390625 66.40625 21.84375 63.234375 
Q 18.3125 60.0625 18.3125 54.390625 
z
" id="DejaVuSans-56"/>
       <path d="M 40.578125 39.3125 
Q 47.65625 37.796875 51.625 33 
Q 55.609375 28.21875 55.609375 21.1875 
Q 55.609375 10.40625 48.1875 4.484375 
Q 40.765625 -1.421875 27.09375 -1.421875 
Q 22.515625 -1.421875 17.65625 -0.515625 
Q 12.796875 0.390625 7.625 2.203125 
L 7.625 11.71875 
Q 11.71875 9.328125 16.59375 8.109375 
Q 21.484375 6.890625 26.8125 6.890625 
Q 36.078125 6.890625 40.9375 10.546875 
Q 45.796875 14.203125 45.796875 21.1875 
Q 45.796875 27.640625 41.28125 31.265625 
Q 36.765625 34.90625 28.71875 34.90625 
L 20.21875 34.90625 
L 20.21875 43.015625 
L 29.109375 43.015625 
Q 36.375 43.015625 40.234375 45.921875 
Q 44.09375 48.828125 44.09375 54.296875 
Q 44.09375 59.90625 40.109375 62.90625 
Q 36.140625 65.921875 28.71875 65.921875 
Q 24.65625 65.921875 20.015625 65.03125 
Q 15.375 64.15625 9.8125 62.3125 
L 9.8125 71.09375 
Q 15.4375 72.65625 20.34375 73.4375 
Q 25.25 74.21875 29.59375 74.21875 
Q 40.828125 74.21875 47.359375 69.109375 
Q 53.90625 64.015625 53.90625 55.328125 
Q 53.90625 49.265625 50.4375 45.09375 
Q 46.96875 40.921875 40.578125 39.3125 
z
" id="DejaVuSans-51"/>
       <path d="M 19.1875 8.296875 
L 53.609375 8.296875 
L 53.609375 0 
L 7.328125 0 
L 7.328125 8.296875 
Q 12.9375 14.109375 22.625 23.890625 
Q 32.328125 33.6875 34.8125 36.53125 
Q 39.546875 41.84375 41.421875 45.53125 
Q 43.3125 49.21875 43.3125 52.78125 
Q 43.3125 58.59375 39.234375 62.25 
Q 35.15625 65.921875 28.609375 65.921875 
Q 23.96875 65.921875 18.8125 64.3125 
Q 13.671875 62.703125 7.8125 59.421875 
L 7.8125 69.390625 
Q 13.765625 71.78125 18.9375 73 
Q 24.125 74.21875 28.421875 74.21875 
Q 39.75 74.21875 46.484375 68.546875 
Q 53.21875 62.890625 53.21875 53.421875 
Q 53.21875 48.921875 51.53125 44.890625 
Q 49.859375 40.875 45.40625 35.40625 
Q 44.1875 33.984375 37.640625 27.21875 
Q 31.109375 20.453125 19.1875 8.296875 
z
" id="DejaVuSans-50"/>
      </defs>
      <g transform="translate(297.05025 1387.27625)scale(0.24 -0.24)">
       <use xlink:href="#DejaVuSans-49"/>
       <use x="63.623047" xlink:href="#DejaVuSans-56"/>
       <use x="127.246094" xlink:href="#DejaVuSans-46"/>
       <use x="159.033203" xlink:href="#DejaVuSans-51"/>
       <use x="222.65625" xlink:href="#DejaVuSans-50"/>
      </g>
     </g>
    </g>
    <g id="xtick_4">
     <g id="line2d_4">
      <g>
       <use style="stroke:#000000;stroke-width:0.8;" x="445.861" xlink:href="#mf997677e5c" y="1362.04"/>
      </g>
     </g>
     <g id="text_4">
      <!-- 27.49 -->
      <defs>
       <path d="M 8.203125 72.90625 
L 55.078125 72.90625 
L 55.078125 68.703125 
L 28.609375 0 
L 18.3125 0 
L 43.21875 64.59375 
L 8.203125 64.59375 
z
" id="DejaVuSans-55"/>
       <path d="M 37.796875 64.3125 
L 12.890625 25.390625 
L 37.796875 25.390625 
z
M 35.203125 72.90625 
L 47.609375 72.90625 
L 47.609375 25.390625 
L 58.015625 25.390625 
L 58.015625 17.1875 
L 47.609375 17.1875 
L 47.609375 0 
L 37.796875 0 
L 37.796875 17.1875 
L 4.890625 17.1875 
L 4.890625 26.703125 
z
" id="DejaVuSans-52"/>
      </defs>
      <g transform="translate(411.50725 1387.27625)scale(0.24 -0.24)">
       <use xlink:href="#DejaVuSans-50"/>
       <use x="63.623047" xlink:href="#DejaVuSans-55"/>
       <use x="127.246094" xlink:href="#DejaVuSans-46"/>
       <use x="159.033203" xlink:href="#DejaVuSans-52"/>
       <use x="222.65625" xlink:href="#DejaVuSans-57"/>
      </g>
     </g>
    </g>
    <g id="xtick_5">
     <g id="line2d_5">
      <g>
       <use style="stroke:#000000;stroke-width:0.8;" x="560.318" xlink:href="#mf997677e5c" y="1362.04"/>
      </g>
     </g>
     <g id="text_5">
      <!-- 36.65 -->
      <defs>
       <path d="M 10.796875 72.90625 
L 49.515625 72.90625 
L 49.515625 64.59375 
L 19.828125 64.59375 
L 19.828125 46.734375 
Q 21.96875 47.46875 24.109375 47.828125 
Q 26.265625 48.1875 28.421875 48.1875 
Q 40.625 48.1875 47.75 41.5 
Q 54.890625 34.8125 54.890625 23.390625 
Q 54.890625 11.625 47.5625 5.09375 
Q 40.234375 -1.421875 26.90625 -1.421875 
Q 22.3125 -1.421875 17.546875 -0.640625 
Q 12.796875 0.140625 7.71875 1.703125 
L 7.71875 11.625 
Q 12.109375 9.234375 16.796875 8.0625 
Q 21.484375 6.890625 26.703125 6.890625 
Q 35.15625 6.890625 40.078125 11.328125 
Q 45.015625 15.765625 45.015625 23.390625 
Q 45.015625 31 40.078125 35.4375 
Q 35.15625 39.890625 26.703125 39.890625 
Q 22.75 39.890625 18.8125 39.015625 
Q 14.890625 38.140625 10.796875 36.28125 
z
" id="DejaVuSans-53"/>
      </defs>
      <g transform="translate(525.96425 1387.27625)scale(0.24 -0.24)">
       <use xlink:href="#DejaVuSans-51"/>
       <use x="63.623047" xlink:href="#DejaVuSans-54"/>
       <use x="127.246094" xlink:href="#DejaVuSans-46"/>
       <use x="159.033203" xlink:href="#DejaVuSans-54"/>
       <use x="222.65625" xlink:href="#DejaVuSans-53"/>
      </g>
     </g>
    </g>
    <g id="xtick_6">
     <g id="line2d_6">
      <g>
       <use style="stroke:#000000;stroke-width:0.8;" x="674.775" xlink:href="#mf997677e5c" y="1362.04"/>
      </g>
     </g>
     <g id="text_6">
      <!-- 45.81 -->
      <g transform="translate(640.42125 1387.27625)scale(0.24 -0.24)">
       <use xlink:href="#DejaVuSans-52"/>
       <use x="63.623047" xlink:href="#DejaVuSans-53"/>
       <use x="127.246094" xlink:href="#DejaVuSans-46"/>
       <use x="159.033203" xlink:href="#DejaVuSans-56"/>
       <use x="222.65625" xlink:href="#DejaVuSans-49"/>
      </g>
     </g>
    </g>
    <g id="text_7">
     <!-- Aquilegia_coerulea (Mb) -->
     <defs>
      <path d="M 34.1875 63.1875 
L 20.796875 26.90625 
L 47.609375 26.90625 
z
M 28.609375 72.90625 
L 39.796875 72.90625 
L 67.578125 0 
L 57.328125 0 
L 50.6875 18.703125 
L 17.828125 18.703125 
L 11.1875 0 
L 0.78125 0 
z
" id="DejaVuSans-65"/>
      <path d="M 14.796875 27.296875 
Q 14.796875 17.390625 18.875 11.75 
Q 22.953125 6.109375 30.078125 6.109375 
Q 37.203125 6.109375 41.296875 11.75 
Q 45.40625 17.390625 45.40625 27.296875 
Q 45.40625 37.203125 41.296875 42.84375 
Q 37.203125 48.484375 30.078125 48.484375 
Q 22.953125 48.484375 18.875 42.84375 
Q 14.796875 37.203125 14.796875 27.296875 
z
M 45.40625 8.203125 
Q 42.578125 3.328125 38.25 0.953125 
Q 33.9375 -1.421875 27.875 -1.421875 
Q 17.96875 -1.421875 11.734375 6.484375 
Q 5.515625 14.40625 5.515625 27.296875 
Q 5.515625 40.1875 11.734375 48.09375 
Q 17.96875 56 27.875 56 
Q 33.9375 56 38.25 53.625 
Q 42.578125 51.265625 45.40625 46.390625 
L 45.40625 54.6875 
L 54.390625 54.6875 
L 54.390625 -20.796875 
L 45.40625 -20.796875 
z
" id="DejaVuSans-113"/>
      <path d="M 8.5 21.578125 
L 8.5 54.6875 
L 17.484375 54.6875 
L 17.484375 21.921875 
Q 17.484375 14.15625 20.5 10.265625 
Q 23.53125 6.390625 29.59375 6.390625 
Q 36.859375 6.390625 41.078125 11.03125 
Q 45.3125 15.671875 45.3125 23.6875 
L 45.3125 54.6875 
L 54.296875 54.6875 
L 54.296875 0 
L 45.3125 0 
L 45.3125 8.40625 
Q 42.046875 3.421875 37.71875 1 
Q 33.40625 -1.421875 27.6875 -1.421875 
Q 18.265625 -1.421875 13.375 4.4375 
Q 8.5 10.296875 8.5 21.578125 
z
M 31.109375 56 
z
" id="DejaVuSans-117"/>
      <path d="M 9.421875 54.6875 
L 18.40625 54.6875 
L 18.40625 0 
L 9.421875 0 
z
M 9.421875 75.984375 
L 18.40625 75.984375 
L 18.40625 64.59375 
L 9.421875 64.59375 
z
" id="DejaVuSans-105"/>
      <path d="M 9.421875 75.984375 
L 18.40625 75.984375 
L 18.40625 0 
L 9.421875 0 
z
" id="DejaVuSans-108"/>
      <path d="M 56.203125 29.59375 
L 56.203125 25.203125 
L 14.890625 25.203125 
Q 15.484375 15.921875 20.484375 11.0625 
Q 25.484375 6.203125 34.421875 6.203125 
Q 39.59375 6.203125 44.453125 7.46875 
Q 49.3125 8.734375 54.109375 11.28125 
L 54.109375 2.78125 
Q 49.265625 0.734375 44.1875 -0.34375 
Q 39.109375 -1.421875 33.890625 -1.421875 
Q 20.796875 -1.421875 13.15625 6.1875 
Q 5.515625 13.8125 5.515625 26.8125 
Q 5.515625 40.234375 12.765625 48.109375 
Q 20.015625 56 32.328125 56 
Q 43.359375 56 49.78125 48.890625 
Q 56.203125 41.796875 56.203125 29.59375 
z
M 47.21875 32.234375 
Q 47.125 39.59375 43.09375 43.984375 
Q 39.0625 48.390625 32.421875 48.390625 
Q 24.90625 48.390625 20.390625 44.140625 
Q 15.875 39.890625 15.1875 32.171875 
z
" id="DejaVuSans-101"/>
      <path d="M 45.40625 27.984375 
Q 45.40625 37.75 41.375 43.109375 
Q 37.359375 48.484375 30.078125 48.484375 
Q 22.859375 48.484375 18.828125 43.109375 
Q 14.796875 37.75 14.796875 27.984375 
Q 14.796875 18.265625 18.828125 12.890625 
Q 22.859375 7.515625 30.078125 7.515625 
Q 37.359375 7.515625 41.375 12.890625 
Q 45.40625 18.265625 45.40625 27.984375 
z
M 54.390625 6.78125 
Q 54.390625 -7.171875 48.1875 -13.984375 
Q 42 -20.796875 29.203125 -20.796875 
Q 24.46875 -20.796875 20.265625 -20.09375 
Q 16.0625 -19.390625 12.109375 -17.921875 
L 12.109375 -9.1875 
Q 16.0625 -11.328125 19.921875 -12.34375 
Q 23.78125 -13.375 27.78125 -13.375 
Q 36.625 -13.375 41.015625 -8.765625 
Q 45.40625 -4.15625 45.40625 5.171875 
L 45.40625 9.625 
Q 42.625 4.78125 38.28125 2.390625 
Q 33.9375 0 27.875 0 
Q 17.828125 0 11.671875 7.65625 
Q 5.515625 15.328125 5.515625 27.984375 
Q 5.515625 40.671875 11.671875 48.328125 
Q 17.828125 56 27.875 56 
Q 33.9375 56 38.28125 53.609375 
Q 42.625 51.21875 45.40625 46.390625 
L 45.40625 54.6875 
L 54.390625 54.6875 
z
" id="DejaVuSans-103"/>
      <path d="M 34.28125 27.484375 
Q 23.390625 27.484375 19.1875 25 
Q 14.984375 22.515625 14.984375 16.5 
Q 14.984375 11.71875 18.140625 8.90625 
Q 21.296875 6.109375 26.703125 6.109375 
Q 34.1875 6.109375 38.703125 11.40625 
Q 43.21875 16.703125 43.21875 25.484375 
L 43.21875 27.484375 
z
M 52.203125 31.203125 
L 52.203125 0 
L 43.21875 0 
L 43.21875 8.296875 
Q 40.140625 3.328125 35.546875 0.953125 
Q 30.953125 -1.421875 24.3125 -1.421875 
Q 15.921875 -1.421875 10.953125 3.296875 
Q 6 8.015625 6 15.921875 
Q 6 25.140625 12.171875 29.828125 
Q 18.359375 34.515625 30.609375 34.515625 
L 43.21875 34.515625 
L 43.21875 35.40625 
Q 43.21875 41.609375 39.140625 45 
Q 35.0625 48.390625 27.6875 48.390625 
Q 23 48.390625 18.546875 47.265625 
Q 14.109375 46.140625 10.015625 43.890625 
L 10.015625 52.203125 
Q 14.9375 54.109375 19.578125 55.046875 
Q 24.21875 56 28.609375 56 
Q 40.484375 56 46.34375 49.84375 
Q 52.203125 43.703125 52.203125 31.203125 
z
" id="DejaVuSans-97"/>
      <path d="M 50.984375 -16.609375 
L 50.984375 -23.578125 
L -0.984375 -23.578125 
L -0.984375 -16.609375 
z
" id="DejaVuSans-95"/>
      <path d="M 48.78125 52.59375 
L 48.78125 44.1875 
Q 44.96875 46.296875 41.140625 47.34375 
Q 37.3125 48.390625 33.40625 48.390625 
Q 24.65625 48.390625 19.8125 42.84375 
Q 14.984375 37.3125 14.984375 27.296875 
Q 14.984375 17.28125 19.8125 11.734375 
Q 24.65625 6.203125 33.40625 6.203125 
Q 37.3125 6.203125 41.140625 7.25 
Q 44.96875 8.296875 48.78125 10.40625 
L 48.78125 2.09375 
Q 45.015625 0.34375 40.984375 -0.53125 
Q 36.96875 -1.421875 32.421875 -1.421875 
Q 20.0625 -1.421875 12.78125 6.34375 
Q 5.515625 14.109375 5.515625 27.296875 
Q 5.515625 40.671875 12.859375 48.328125 
Q 20.21875 56 33.015625 56 
Q 37.15625 56 41.109375 55.140625 
Q 45.0625 54.296875 48.78125 52.59375 
z
" id="DejaVuSans-99"/>
      <path d="M 30.609375 48.390625 
Q 23.390625 48.390625 19.1875 42.75 
Q 14.984375 37.109375 14.984375 27.296875 
Q 14.984375 17.484375 19.15625 11.84375 
Q 23.34375 6.203125 30.609375 6.203125 
Q 37.796875 6.203125 41.984375 11.859375 
Q 46.1875 17.53125 46.1875 27.296875 
Q 46.1875 37.015625 41.984375 42.703125 
Q 37.796875 48.390625 30.609375 48.390625 
z
M 30.609375 56 
Q 42.328125 56 49.015625 48.375 
Q 55.71875 40.765625 55.71875 27.296875 
Q 55.71875 13.875 49.015625 6.21875 
Q 42.328125 -1.421875 30.609375 -1.421875 
Q 18.84375 -1.421875 12.171875 6.21875 
Q 5.515625 13.875 5.515625 27.296875 
Q 5.515625 40.765625 12.171875 48.375 
Q 18.84375 56 30.609375 56 
z
" id="DejaVuSans-111"/>
      <path d="M 41.109375 46.296875 
Q 39.59375 47.171875 37.8125 47.578125 
Q 36.03125 48 33.890625 48 
Q 26.265625 48 22.1875 43.046875 
Q 18.109375 38.09375 18.109375 28.8125 
L 18.109375 0 
L 9.078125 0 
L 9.078125 54.6875 
L 18.109375 54.6875 
L 18.109375 46.1875 
Q 20.953125 51.171875 25.484375 53.578125 
Q 30.03125 56 36.53125 56 
Q 37.453125 56 38.578125 55.875 
Q 39.703125 55.765625 41.0625 55.515625 
z
" id="DejaVuSans-114"/>
      <path id="DejaVuSans-32"/>
      <path d="M 31 75.875 
Q 24.46875 64.65625 21.28125 53.65625 
Q 18.109375 42.671875 18.109375 31.390625 
Q 18.109375 20.125 21.3125 9.0625 
Q 24.515625 -2 31 -13.1875 
L 23.1875 -13.1875 
Q 15.875 -1.703125 12.234375 9.375 
Q 8.59375 20.453125 8.59375 31.390625 
Q 8.59375 42.28125 12.203125 53.3125 
Q 15.828125 64.359375 23.1875 75.875 
z
" id="DejaVuSans-40"/>
      <path d="M 9.8125 72.90625 
L 24.515625 72.90625 
L 43.109375 23.296875 
L 61.8125 72.90625 
L 76.515625 72.90625 
L 76.515625 0 
L 66.890625 0 
L 66.890625 64.015625 
L 48.09375 14.015625 
L 38.1875 14.015625 
L 19.390625 64.015625 
L 19.390625 0 
L 9.8125 0 
z
" id="DejaVuSans-77"/>
      <path d="M 48.6875 27.296875 
Q 48.6875 37.203125 44.609375 42.84375 
Q 40.53125 48.484375 33.40625 48.484375 
Q 26.265625 48.484375 22.1875 42.84375 
Q 18.109375 37.203125 18.109375 27.296875 
Q 18.109375 17.390625 22.1875 11.75 
Q 26.265625 6.109375 33.40625 6.109375 
Q 40.53125 6.109375 44.609375 11.75 
Q 48.6875 17.390625 48.6875 27.296875 
z
M 18.109375 46.390625 
Q 20.953125 51.265625 25.265625 53.625 
Q 29.59375 56 35.59375 56 
Q 45.5625 56 51.78125 48.09375 
Q 58.015625 40.1875 58.015625 27.296875 
Q 58.015625 14.40625 51.78125 6.484375 
Q 45.5625 -1.421875 35.59375 -1.421875 
Q 29.59375 -1.421875 25.265625 0.953125 
Q 20.953125 3.328125 18.109375 8.203125 
L 18.109375 0 
L 9.078125 0 
L 9.078125 75.984375 
L 18.109375 75.984375 
z
" id="DejaVuSans-98"/>
      <path d="M 8.015625 75.875 
L 15.828125 75.875 
Q 23.140625 64.359375 26.78125 53.3125 
Q 30.421875 42.28125 30.421875 31.390625 
Q 30.421875 20.453125 26.78125 9.375 
Q 23.140625 -1.703125 15.828125 -13.1875 
L 8.015625 -13.1875 
Q 14.5 -2 17.703125 9.0625 
Q 20.90625 20.125 20.90625 31.390625 
Q 20.90625 42.671875 17.703125 53.65625 
Q 14.5 64.65625 8.015625 75.875 
z
" id="DejaVuSans-41"/>
     </defs>
     <g transform="translate(195.75 1420.5825)scale(0.32 -0.32)">
      <use xlink:href="#DejaVuSans-65"/>
      <use x="66.658203" xlink:href="#DejaVuSans-113"/>
      <use x="130.134766" xlink:href="#DejaVuSans-117"/>
      <use x="193.513672" xlink:href="#DejaVuSans-105"/>
      <use x="221.296875" xlink:href="#DejaVuSans-108"/>
      <use x="249.080078" xlink:href="#DejaVuSans-101"/>
      <use x="310.603516" xlink:href="#DejaVuSans-103"/>
      <use x="374.080078" xlink:href="#DejaVuSans-105"/>
      <use x="401.863281" xlink:href="#DejaVuSans-97"/>
      <use x="463.142578" xlink:href="#DejaVuSans-95"/>
      <use x="513.142578" xlink:href="#DejaVuSans-99"/>
      <use x="568.123047" xlink:href="#DejaVuSans-111"/>
      <use x="629.304688" xlink:href="#DejaVuSans-101"/>
      <use x="690.828125" xlink:href="#DejaVuSans-114"/>
      <use x="731.941406" xlink:href="#DejaVuSans-117"/>
      <use x="795.320312" xlink:href="#DejaVuSans-108"/>
      <use x="823.103516" xlink:href="#DejaVuSans-101"/>
      <use x="884.626953" xlink:href="#DejaVuSans-97"/>
      <use x="945.90625" xlink:href="#DejaVuSans-32"/>
      <use x="977.693359" xlink:href="#DejaVuSans-40"/>
      <use x="1016.707031" xlink:href="#DejaVuSans-77"/>
      <use x="1102.986328" xlink:href="#DejaVuSans-98"/>
      <use x="1166.462891" xlink:href="#DejaVuSans-41"/>
     </g>
    </g>
   </g>
   <g id="matplotlib.axis_2">
    <g id="ytick_1">
     <g id="line2d_7">
      <defs>
       <path d="M 0 0 
L -3.5 0 
" id="m6204dc7cab" style="stroke:#000000;stroke-width:0.8;"/>
      </defs>
      <g>
       <use style="stroke:#000000;stroke-width:0.8;" x="102.49" xlink:href="#m6204dc7cab" y="1285.265"/>
      </g>
     </g>
     <g id="text_8">
      <!-- Chr_04 -->
      <defs>
       <path d="M 64.40625 67.28125 
L 64.40625 56.890625 
Q 59.421875 61.53125 53.78125 63.8125 
Q 48.140625 66.109375 41.796875 66.109375 
Q 29.296875 66.109375 22.65625 58.46875 
Q 16.015625 50.828125 16.015625 36.375 
Q 16.015625 21.96875 22.65625 14.328125 
Q 29.296875 6.6875 41.796875 6.6875 
Q 48.140625 6.6875 53.78125 8.984375 
Q 59.421875 11.28125 64.40625 15.921875 
L 64.40625 5.609375 
Q 59.234375 2.09375 53.4375 0.328125 
Q 47.65625 -1.421875 41.21875 -1.421875 
Q 24.65625 -1.421875 15.125 8.703125 
Q 5.609375 18.84375 5.609375 36.375 
Q 5.609375 53.953125 15.125 64.078125 
Q 24.65625 74.21875 41.21875 74.21875 
Q 47.75 74.21875 53.53125 72.484375 
Q 59.328125 70.75 64.40625 67.28125 
z
" id="DejaVuSans-67"/>
       <path d="M 54.890625 33.015625 
L 54.890625 0 
L 45.90625 0 
L 45.90625 32.71875 
Q 45.90625 40.484375 42.875 44.328125 
Q 39.84375 48.1875 33.796875 48.1875 
Q 26.515625 48.1875 22.3125 43.546875 
Q 18.109375 38.921875 18.109375 30.90625 
L 18.109375 0 
L 9.078125 0 
L 9.078125 75.984375 
L 18.109375 75.984375 
L 18.109375 46.1875 
Q 21.34375 51.125 25.703125 53.5625 
Q 30.078125 56 35.796875 56 
Q 45.21875 56 50.046875 50.171875 
Q 54.890625 44.34375 54.890625 33.015625 
z
" id="DejaVuSans-104"/>
      </defs>
      <g transform="translate(11.115 1294.383125)scale(0.24 -0.24)">
       <use xlink:href="#DejaVuSans-67"/>
       <use x="69.824219" xlink:href="#DejaVuSans-104"/>
       <use x="133.203125" xlink:href="#DejaVuSans-114"/>
       <use x="174.316406" xlink:href="#DejaVuSans-95"/>
       <use x="224.316406" xlink:href="#DejaVuSans-48"/>
       <use x="287.939453" xlink:href="#DejaVuSans-52"/>
      </g>
     </g>
    </g>
    <g id="ytick_2">
     <g id="line2d_8">
      <g>
       <use style="stroke:#000000;stroke-width:0.8;" x="102.49" xlink:href="#m6204dc7cab" y="1101.005"/>
      </g>
     </g>
     <g id="text_9">
      <!-- Chr_01 -->
      <g transform="translate(11.115 1110.123125)scale(0.24 -0.24)">
       <use xlink:href="#DejaVuSans-67"/>
       <use x="69.824219" xlink:href="#DejaVuSans-104"/>
       <use x="133.203125" xlink:href="#DejaVuSans-114"/>
       <use x="174.316406" xlink:href="#DejaVuSans-95"/>
       <use x="224.316406" xlink:href="#DejaVuSans-48"/>
       <use x="287.939453" xlink:href="#DejaVuSans-49"/>
      </g>
     </g>
    </g>
    <g id="ytick_3">
     <g id="line2d_9">
      <g>
       <use style="stroke:#000000;stroke-width:0.8;" x="102.49" xlink:href="#m6204dc7cab" y="916.745"/>
      </g>
     </g>
     <g id="text_10">
      <!-- Chr_05 -->
      <g transform="translate(11.115 925.863125)scale(0.24 -0.24)">
       <use xlink:href="#DejaVuSans-67"/>
       <use x="69.824219" xlink:href="#DejaVuSans-104"/>
       <use x="133.203125" xlink:href="#DejaVuSans-114"/>
       <use x="174.316406" xlink:href="#DejaVuSans-95"/>
       <use x="224.316406" xlink:href="#DejaVuSans-48"/>
       <use x="287.939453" xlink:href="#DejaVuSans-53"/>
      </g>
     </g>
    </g>
    <g id="ytick_4">
     <g id="line2d_10">
      <g>
       <use style="stroke:#000000;stroke-width:0.8;" x="102.49" xlink:href="#m6204dc7cab" y="732.485"/>
      </g>
     </g>
     <g id="text_11">
      <!-- Chr_07 -->
      <g transform="translate(11.115 741.603125)scale(0.24 -0.24)">
       <use xlink:href="#DejaVuSans-67"/>
       <use x="69.824219" xlink:href="#DejaVuSans-104"/>
       <use x="133.203125" xlink:href="#DejaVuSans-114"/>
       <use x="174.316406" xlink:href="#DejaVuSans-95"/>
       <use x="224.316406" xlink:href="#DejaVuSans-48"/>
       <use x="287.939453" xlink:href="#DejaVuSans-55"/>
      </g>
     </g>
    </g>
    <g id="ytick_5">
     <g id="line2d_11">
      <g>
       <use style="stroke:#000000;stroke-width:0.8;" x="102.49" xlink:href="#m6204dc7cab" y="548.225"/>
      </g>
     </g>
     <g id="text_12">
      <!-- Chr_02 -->
      <g transform="translate(11.115 557.343125)scale(0.24 -0.24)">
       <use xlink:href="#DejaVuSans-67"/>
       <use x="69.824219" xlink:href="#DejaVuSans-104"/>
       <use x="133.203125" xlink:href="#DejaVuSans-114"/>
       <use x="174.316406" xlink:href="#DejaVuSans-95"/>
       <use x="224.316406" xlink:href="#DejaVuSans-48"/>
       <use x="287.939453" xlink:href="#DejaVuSans-50"/>
      </g>
     </g>
    </g>
    <g id="ytick_6">
     <g id="line2d_12">
      <g>
       <use style="stroke:#000000;stroke-width:0.8;" x="102.49" xlink:href="#m6204dc7cab" y="363.965"/>
      </g>
     </g>
     <g id="text_13">
      <!-- Chr_03 -->
      <g transform="translate(11.115 373.083125)scale(0.24 -0.24)">
       <use xlink:href="#DejaVuSans-67"/>
       <use x="69.824219" xlink:href="#DejaVuSans-104"/>
       <use x="133.203125" xlink:href="#DejaVuSans-114"/>
       <use x="174.316406" xlink:href="#DejaVuSans-95"/>
       <use x="224.316406" xlink:href="#DejaVuSans-48"/>
       <use x="287.939453" xlink:href="#DejaVuSans-51"/>
      </g>
     </g>
    </g>
    <g id="ytick_7">
     <g id="line2d_13">
      <g>
       <use style="stroke:#000000;stroke-width:0.8;" x="102.49" xlink:href="#m6204dc7cab" y="179.705"/>
      </g>
     </g>
     <g id="text_14">
      <!-- Chr_06 -->
      <g transform="translate(11.115 188.823125)scale(0.24 -0.24)">
       <use xlink:href="#DejaVuSans-67"/>
       <use x="69.824219" xlink:href="#DejaVuSans-104"/>
       <use x="133.203125" xlink:href="#DejaVuSans-114"/>
       <use x="174.316406" xlink:href="#DejaVuSans-95"/>
       <use x="224.316406" xlink:href="#DejaVuSans-48"/>
       <use x="287.939453" xlink:href="#DejaVuSans-54"/>
      </g>
     </g>
    </g>
   </g>
   <g id="patch_128">
    <path clip-path="url(#pa48b639021)" d="M 456.496976 1300.62 
L 471.071543 1300.62 
L 471.071543 1269.91 
L 456.496976 1269.91 
z
" style="fill:#008000;opacity:0.4;"/>
   </g>
   <g id="patch_129">
    <path clip-path="url(#pa48b639021)" d="M 213.819725 1300.62 
L 234.907167 1300.62 
L 234.907167 1269.91 
L 213.819725 1269.91 
z
" style="fill:#008000;opacity:0.4;"/>
   </g>
   <g id="patch_130">
    <path clip-path="url(#pa48b639021)" d="M 149.024585 1300.62 
L 155.807061 1300.62 
L 155.807061 1269.91 
L 149.024585 1269.91 
z
" style="fill:#008000;opacity:0.4;"/>
   </g>
   <g id="patch_131">
    <path clip-path="url(#pa48b639021)" d="M 179.552939 1300.62 
L 189.034402 1300.62 
L 189.034402 1269.91 
L 179.552939 1269.91 
z
" style="fill:#008000;opacity:0.4;"/>
   </g>
   <g id="patch_132">
    <path clip-path="url(#pa48b639021)" d="M 428.976963 1300.62 
L 451.026958 1300.62 
L 451.026958 1269.91 
L 428.976963 1269.91 
z
" style="fill:#008000;opacity:0.4;"/>
   </g>
   <g id="patch_133">
    <path clip-path="url(#pa48b639021)" d="M 381.747128 1300.62 
L 390.753423 1300.62 
L 390.753423 1269.91 
L 381.747128 1269.91 
z
" style="fill:#008000;opacity:0.4;"/>
   </g>
   <g id="patch_134">
    <path clip-path="url(#pa48b639021)" d="M 627.803762 1300.62 
L 633.405739 1300.62 
L 633.405739 1269.91 
L 627.803762 1269.91 
z
" style="fill:#008000;opacity:0.4;"/>
   </g>
   <g id="patch_135">
    <path clip-path="url(#pa48b639021)" d="M 628.9612 1300.62 
L 632.385669 1300.62 
L 632.385669 1269.91 
L 628.9612 1269.91 
z
" style="fill:#008000;opacity:0.4;"/>
   </g>
   <g id="patch_136">
    <path clip-path="url(#pa48b639021)" d="M 250.057417 1300.62 
L 256.039619 1300.62 
L 256.039619 1269.91 
L 250.057417 1269.91 
z
" style="fill:#008000;opacity:0.4;"/>
   </g>
   <g id="patch_137">
    <path clip-path="url(#pa48b639021)" d="M 129.014541 1300.62 
L 133.863703 1300.62 
L 133.863703 1269.91 
L 129.014541 1269.91 
z
" style="fill:#008000;opacity:0.4;"/>
   </g>
   <g id="patch_138">
    <path clip-path="url(#pa48b639021)" d="M 649.430096 1300.62 
L 655.09185 1300.62 
L 655.09185 1269.91 
L 649.430096 1269.91 
z
" style="fill:#008000;opacity:0.4;"/>
   </g>
   <g id="patch_139">
    <path clip-path="url(#pa48b639021)" d="M 175.342236 1300.62 
L 179.180484 1300.62 
L 179.180484 1269.91 
L 175.342236 1269.91 
z
" style="fill:#008000;opacity:0.4;"/>
   </g>
   <g id="patch_140">
    <path clip-path="url(#pa48b639021)" d="M 314.340711 1300.62 
L 320.720515 1300.62 
L 320.720515 1269.91 
L 314.340711 1269.91 
z
" style="fill:#008000;opacity:0.4;"/>
   </g>
   <g id="patch_141">
    <path clip-path="url(#pa48b639021)" d="M 112.433339 1300.62 
L 116.552808 1300.62 
L 116.552808 1269.91 
L 112.433339 1269.91 
z
" style="fill:#008000;opacity:0.4;"/>
   </g>
   <g id="patch_142">
    <path clip-path="url(#pa48b639021)" d="M 659.867593 1300.62 
L 663.404095 1300.62 
L 663.404095 1269.91 
L 659.867593 1269.91 
z
" style="fill:#008000;opacity:0.4;"/>
   </g>
   <g id="patch_143">
    <path clip-path="url(#pa48b639021)" d="M 622.110764 1300.62 
L 629.563705 1300.62 
L 629.563705 1269.91 
L 622.110764 1269.91 
z
" style="fill:#008000;opacity:0.4;"/>
   </g>
   <g id="patch_144">
    <path clip-path="url(#pa48b639021)" d="M 548.404359 1300.62 
L 557.66353 1300.62 
L 557.66353 1269.91 
L 548.404359 1269.91 
z
" style="fill:#008000;opacity:0.4;"/>
   </g>
   <g id="patch_145">
    <path clip-path="url(#pa48b639021)" d="M 452.158537 1300.62 
L 459.306535 1300.62 
L 459.306535 1269.91 
L 452.158537 1269.91 
z
" style="fill:#008000;opacity:0.4;"/>
   </g>
   <g id="patch_146">
    <path clip-path="url(#pa48b639021)" d="M 595.882184 1300.62 
L 604.089429 1300.62 
L 604.089429 1269.91 
L 595.882184 1269.91 
z
" style="fill:#008000;opacity:0.4;"/>
   </g>
   <g id="patch_147">
    <path clip-path="url(#pa48b639021)" d="M 312.36281 1300.62 
L 316.8052 1300.62 
L 316.8052 1269.91 
L 312.36281 1269.91 
z
" style="fill:#008000;opacity:0.4;"/>
   </g>
   <g id="patch_148">
    <path clip-path="url(#pa48b639021)" d="M 503.926417 1300.62 
L 519.582381 1300.62 
L 519.582381 1269.91 
L 503.926417 1269.91 
z
" style="fill:#008000;opacity:0.4;"/>
   </g>
   <g id="patch_149">
    <path clip-path="url(#pa48b639021)" d="M 143.164823 1300.62 
L 148.333969 1300.62 
L 148.333969 1269.91 
L 143.164823 1269.91 
z
" style="fill:#008000;opacity:0.4;"/>
   </g>
   <g id="patch_150">
    <path clip-path="url(#pa48b639021)" d="M 258.772086 1300.62 
L 267.163546 1300.62 
L 267.163546 1269.91 
L 258.772086 1269.91 
z
" style="fill:#008000;opacity:0.4;"/>
   </g>
   <g id="patch_151">
    <path clip-path="url(#pa48b639021)" d="M 124.943731 1300.62 
L 128.989169 1300.62 
L 128.989169 1269.91 
L 124.943731 1269.91 
z
" style="fill:#008000;opacity:0.4;"/>
   </g>
   <g id="patch_152">
    <path clip-path="url(#pa48b639021)" d="M 591.167556 1116.36 
L 608.612833 1116.36 
L 608.612833 1085.65 
L 591.167556 1085.65 
z
" style="fill:#008000;opacity:0.4;"/>
   </g>
   <g id="patch_153">
    <path clip-path="url(#pa48b639021)" d="M 632.53157 1116.36 
L 644.057021 1116.36 
L 644.057021 1085.65 
L 632.53157 1085.65 
z
" style="fill:#008000;opacity:0.4;"/>
   </g>
   <g id="patch_154">
    <path clip-path="url(#pa48b639021)" d="M 186.666919 1116.36 
L 195.519343 1116.36 
L 195.519343 1085.65 
L 186.666919 1085.65 
z
" style="fill:#008000;opacity:0.4;"/>
   </g>
   <g id="patch_155">
    <path clip-path="url(#pa48b639021)" d="M 113.043028 1116.36 
L 116.154082 1116.36 
L 116.154082 1085.65 
L 113.043028 1085.65 
z
" style="fill:#008000;opacity:0.4;"/>
   </g>
   <g id="patch_156">
    <path clip-path="url(#pa48b639021)" d="M 188.701624 1116.36 
L 191.09468 1116.36 
L 191.09468 1085.65 
L 188.701624 1085.65 
z
" style="fill:#008000;opacity:0.4;"/>
   </g>
   <g id="patch_157">
    <path clip-path="url(#pa48b639021)" d="M 314.669079 1116.36 
L 326.150893 1116.36 
L 326.150893 1085.65 
L 314.669079 1085.65 
z
" style="fill:#008000;opacity:0.4;"/>
   </g>
   <g id="patch_158">
    <path clip-path="url(#pa48b639021)" d="M 619.098488 1116.36 
L 627.495645 1116.36 
L 627.495645 1085.65 
L 619.098488 1085.65 
z
" style="fill:#008000;opacity:0.4;"/>
   </g>
   <g id="patch_159">
    <path clip-path="url(#pa48b639021)" d="M 612.502826 1116.36 
L 617.621589 1116.36 
L 617.621589 1085.65 
L 612.502826 1085.65 
z
" style="fill:#008000;opacity:0.4;"/>
   </g>
   <g id="patch_160">
    <path clip-path="url(#pa48b639021)" d="M 165.561825 1116.36 
L 171.04491 1116.36 
L 171.04491 1085.65 
L 165.561825 1085.65 
z
" style="fill:#008000;opacity:0.4;"/>
   </g>
   <g id="patch_161">
    <path clip-path="url(#pa48b639021)" d="M 182.686605 1116.36 
L 185.836386 1116.36 
L 185.836386 1085.65 
L 182.686605 1085.65 
z
" style="fill:#008000;opacity:0.4;"/>
   </g>
   <g id="patch_162">
    <path clip-path="url(#pa48b639021)" d="M 140.657473 1116.36 
L 147.689027 1116.36 
L 147.689027 1085.65 
L 140.657473 1085.65 
z
" style="fill:#008000;opacity:0.4;"/>
   </g>
   <g id="patch_163">
    <path clip-path="url(#pa48b639021)" d="M 178.921063 1116.36 
L 181.323413 1116.36 
L 181.323413 1085.65 
L 178.921063 1085.65 
z
" style="fill:#008000;opacity:0.4;"/>
   </g>
   <g id="patch_164">
    <path clip-path="url(#pa48b639021)" d="M 273.067106 1116.36 
L 278.823217 1116.36 
L 278.823217 1085.65 
L 273.067106 1085.65 
z
" style="fill:#008000;opacity:0.4;"/>
   </g>
   <g id="patch_165">
    <path clip-path="url(#pa48b639021)" d="M 206.311016 1116.36 
L 209.881848 1116.36 
L 209.881848 1085.65 
L 206.311016 1085.65 
z
" style="fill:#008000;opacity:0.4;"/>
   </g>
   <g id="patch_166">
    <path clip-path="url(#pa48b639021)" d="M 628.215855 1116.36 
L 632.418712 1116.36 
L 632.418712 1085.65 
L 628.215855 1085.65 
z
" style="fill:#008000;opacity:0.4;"/>
   </g>
   <g id="patch_167">
    <path clip-path="url(#pa48b639021)" d="M 171.754439 1116.36 
L 175.378652 1116.36 
L 175.378652 1085.65 
L 171.754439 1085.65 
z
" style="fill:#008000;opacity:0.4;"/>
   </g>
   <g id="patch_168">
    <path clip-path="url(#pa48b639021)" d="M 301.179281 1116.36 
L 309.731708 1116.36 
L 309.731708 1085.65 
L 301.179281 1085.65 
z
" style="fill:#008000;opacity:0.4;"/>
   </g>
   <g id="patch_169">
    <path clip-path="url(#pa48b639021)" d="M 289.920484 1116.36 
L 298.138809 1116.36 
L 298.138809 1085.65 
L 289.920484 1085.65 
z
" style="fill:#008000;opacity:0.4;"/>
   </g>
   <g id="patch_170">
    <path clip-path="url(#pa48b639021)" d="M 578.94703 1116.36 
L 585.767759 1116.36 
L 585.767759 1085.65 
L 578.94703 1085.65 
z
" style="fill:#008000;opacity:0.4;"/>
   </g>
   <g id="patch_171">
    <path clip-path="url(#pa48b639021)" d="M 326.609721 1116.36 
L 338.527852 1116.36 
L 338.527852 1085.65 
L 326.609721 1085.65 
z
" style="fill:#008000;opacity:0.4;"/>
   </g>
   <g id="patch_172">
    <path clip-path="url(#pa48b639021)" d="M 332.920478 1116.36 
L 339.128633 1116.36 
L 339.128633 1085.65 
L 332.920478 1085.65 
z
" style="fill:#008000;opacity:0.4;"/>
   </g>
   <g id="patch_173">
    <path clip-path="url(#pa48b639021)" d="M 392.67993 1116.36 
L 400.912472 1116.36 
L 400.912472 1085.65 
L 392.67993 1085.65 
z
" style="fill:#008000;opacity:0.4;"/>
   </g>
   <g id="patch_174">
    <path clip-path="url(#pa48b639021)" d="M 260.819696 1116.36 
L 265.029811 1116.36 
L 265.029811 1085.65 
L 260.819696 1085.65 
z
" style="fill:#008000;opacity:0.4;"/>
   </g>
   <g id="patch_175">
    <path clip-path="url(#pa48b639021)" d="M 260.97789 1116.36 
L 263.641285 1116.36 
L 263.641285 1085.65 
L 260.97789 1085.65 
z
" style="fill:#008000;opacity:0.4;"/>
   </g>
   <g id="patch_176">
    <path clip-path="url(#pa48b639021)" d="M 448.796569 1116.36 
L 459.767399 1116.36 
L 459.767399 1085.65 
L 448.796569 1085.65 
z
" style="fill:#008000;opacity:0.4;"/>
   </g>
   <g id="patch_177">
    <path clip-path="url(#pa48b639021)" d="M 162.987065 1116.36 
L 167.42542 1116.36 
L 167.42542 1085.65 
L 162.987065 1085.65 
z
" style="fill:#008000;opacity:0.4;"/>
   </g>
   <g id="patch_178">
    <path clip-path="url(#pa48b639021)" d="M 219.181507 1116.36 
L 221.843416 1116.36 
L 221.843416 1085.65 
L 219.181507 1085.65 
z
" style="fill:#008000;opacity:0.4;"/>
   </g>
   <g id="patch_179">
    <path clip-path="url(#pa48b639021)" d="M 279.788532 1116.36 
L 284.155879 1116.36 
L 284.155879 1085.65 
L 279.788532 1085.65 
z
" style="fill:#008000;opacity:0.4;"/>
   </g>
   <g id="patch_180">
    <path clip-path="url(#pa48b639021)" d="M 644.65774 1116.36 
L 647.870871 1116.36 
L 647.870871 1085.65 
L 644.65774 1085.65 
z
" style="fill:#008000;opacity:0.4;"/>
   </g>
   <g id="patch_181">
    <path clip-path="url(#pa48b639021)" d="M 250.856206 1116.36 
L 253.519714 1116.36 
L 253.519714 1085.65 
L 250.856206 1085.65 
z
" style="fill:#008000;opacity:0.4;"/>
   </g>
   <g id="patch_182">
    <path clip-path="url(#pa48b639021)" d="M 113.826238 932.1 
L 145.011902 932.1 
L 145.011902 901.39 
L 113.826238 901.39 
z
" style="fill:#008000;opacity:0.4;"/>
   </g>
   <g id="patch_183">
    <path clip-path="url(#pa48b639021)" d="M 202.766456 932.1 
L 221.909164 932.1 
L 221.909164 901.39 
L 202.766456 901.39 
z
" style="fill:#008000;opacity:0.4;"/>
   </g>
   <g id="patch_184">
    <path clip-path="url(#pa48b639021)" d="M 242.78332 932.1 
L 258.816609 932.1 
L 258.816609 901.39 
L 242.78332 901.39 
z
" style="fill:#008000;opacity:0.4;"/>
   </g>
   <g id="patch_185">
    <path clip-path="url(#pa48b639021)" d="M 250.114321 932.1 
L 255.870457 932.1 
L 255.870457 901.39 
L 250.114321 901.39 
z
" style="fill:#008000;opacity:0.4;"/>
   </g>
   <g id="patch_186">
    <path clip-path="url(#pa48b639021)" d="M 622.609268 932.1 
L 628.385167 932.1 
L 628.385167 901.39 
L 622.609268 901.39 
z
" style="fill:#008000;opacity:0.4;"/>
   </g>
   <g id="patch_187">
    <path clip-path="url(#pa48b639021)" d="M 145.111081 932.1 
L 152.670734 932.1 
L 152.670734 901.39 
L 145.111081 901.39 
z
" style="fill:#008000;opacity:0.4;"/>
   </g>
   <g id="patch_188">
    <path clip-path="url(#pa48b639021)" d="M 158.870944 932.1 
L 166.123217 932.1 
L 166.123217 901.39 
L 158.870944 901.39 
z
" style="fill:#008000;opacity:0.4;"/>
   </g>
   <g id="patch_189">
    <path clip-path="url(#pa48b639021)" d="M 583.092746 932.1 
L 595.819834 932.1 
L 595.819834 901.39 
L 583.092746 901.39 
z
" style="fill:#008000;opacity:0.4;"/>
   </g>
   <g id="patch_190">
    <path clip-path="url(#pa48b639021)" d="M 591.967357 932.1 
L 595.225999 932.1 
L 595.225999 901.39 
L 591.967357 901.39 
z
" style="fill:#008000;opacity:0.4;"/>
   </g>
   <g id="patch_191">
    <path clip-path="url(#pa48b639021)" d="M 228.362436 932.1 
L 239.178508 932.1 
L 239.178508 901.39 
L 228.362436 901.39 
z
" style="fill:#008000;opacity:0.4;"/>
   </g>
   <g id="patch_192">
    <path clip-path="url(#pa48b639021)" d="M 220.873528 932.1 
L 226.257572 932.1 
L 226.257572 901.39 
L 220.873528 901.39 
z
" style="fill:#008000;opacity:0.4;"/>
   </g>
   <g id="patch_193">
    <path clip-path="url(#pa48b639021)" d="M 407.858789 932.1 
L 413.566641 932.1 
L 413.566641 901.39 
L 407.858789 901.39 
z
" style="fill:#008000;opacity:0.4;"/>
   </g>
   <g id="patch_194">
    <path clip-path="url(#pa48b639021)" d="M 185.866456 932.1 
L 188.817393 932.1 
L 188.817393 901.39 
L 185.866456 901.39 
z
" style="fill:#008000;opacity:0.4;"/>
   </g>
   <g id="patch_195">
    <path clip-path="url(#pa48b639021)" d="M 596.74521 932.1 
L 603.280359 932.1 
L 603.280359 901.39 
L 596.74521 901.39 
z
" style="fill:#008000;opacity:0.4;"/>
   </g>
   <g id="patch_196">
    <path clip-path="url(#pa48b639021)" d="M 153.618597 932.1 
L 158.189898 932.1 
L 158.189898 901.39 
L 153.618597 901.39 
z
" style="fill:#008000;opacity:0.4;"/>
   </g>
   <g id="patch_197">
    <path clip-path="url(#pa48b639021)" d="M 177.573912 932.1 
L 180.023609 932.1 
L 180.023609 901.39 
L 177.573912 901.39 
z
" style="fill:#008000;opacity:0.4;"/>
   </g>
   <g id="patch_198">
    <path clip-path="url(#pa48b639021)" d="M 618.052196 932.1 
L 622.609268 932.1 
L 622.609268 901.39 
L 618.052196 901.39 
z
" style="fill:#008000;opacity:0.4;"/>
   </g>
   <g id="patch_199">
    <path clip-path="url(#pa48b639021)" d="M 615.399033 932.1 
L 618.529051 932.1 
L 618.529051 901.39 
L 615.399033 901.39 
z
" style="fill:#008000;opacity:0.4;"/>
   </g>
   <g id="patch_200">
    <path clip-path="url(#pa48b639021)" d="M 255.270488 747.84 
L 260.684189 747.84 
L 260.684189 717.13 
L 255.270488 717.13 
z
" style="fill:#008000;opacity:0.4;"/>
   </g>
   <g id="patch_201">
    <path clip-path="url(#pa48b639021)" d="M 355.91294 747.84 
L 357.382993 747.84 
L 357.382993 717.13 
L 355.91294 717.13 
z
" style="fill:#008000;opacity:0.4;"/>
   </g>
   <g id="patch_202">
    <path clip-path="url(#pa48b639021)" d="M 623.610986 747.84 
L 626.602762 747.84 
L 626.602762 717.13 
L 623.610986 717.13 
z
" style="fill:#008000;opacity:0.4;"/>
   </g>
   <g id="patch_203">
    <path clip-path="url(#pa48b639021)" d="M 211.660981 747.84 
L 218.019809 747.84 
L 218.019809 717.13 
L 211.660981 717.13 
z
" style="fill:#008000;opacity:0.4;"/>
   </g>
   <g id="patch_204">
    <path clip-path="url(#pa48b639021)" d="M 621.477802 747.84 
L 623.579105 747.84 
L 623.579105 717.13 
L 621.477802 717.13 
z
" style="fill:#008000;opacity:0.4;"/>
   </g>
   <g id="patch_205">
    <path clip-path="url(#pa48b639021)" d="M 237.696874 747.84 
L 242.486171 747.84 
L 242.486171 717.13 
L 237.696874 717.13 
z
" style="fill:#008000;opacity:0.4;"/>
   </g>
   <g id="patch_206">
    <path clip-path="url(#pa48b639021)" d="M 565.700275 747.84 
L 571.976939 747.84 
L 571.976939 717.13 
L 565.700275 717.13 
z
" style="fill:#008000;opacity:0.4;"/>
   </g>
   <g id="patch_207">
    <path clip-path="url(#pa48b639021)" d="M 334.658709 747.84 
L 347.621858 747.84 
L 347.621858 717.13 
L 334.658709 717.13 
z
" style="fill:#008000;opacity:0.4;"/>
   </g>
   <g id="patch_208">
    <path clip-path="url(#pa48b639021)" d="M 535.641555 747.84 
L 540.312747 747.84 
L 540.312747 717.13 
L 535.641555 717.13 
z
" style="fill:#008000;opacity:0.4;"/>
   </g>
   <g id="patch_209">
    <path clip-path="url(#pa48b639021)" d="M 226.828171 747.84 
L 237.137269 747.84 
L 237.137269 717.13 
L 226.828171 717.13 
z
" style="fill:#008000;opacity:0.4;"/>
   </g>
   <g id="patch_210">
    <path clip-path="url(#pa48b639021)" d="M 565.850848 563.58 
L 603.744908 563.58 
L 603.744908 532.87 
L 565.850848 532.87 
z
" style="fill:#008000;opacity:0.4;"/>
   </g>
   <g id="patch_211">
    <path clip-path="url(#pa48b639021)" d="M 181.532364 563.58 
L 198.979228 563.58 
L 198.979228 532.87 
L 181.532364 532.87 
z
" style="fill:#008000;opacity:0.4;"/>
   </g>
   <g id="patch_212">
    <path clip-path="url(#pa48b639021)" d="M 554.238574 563.58 
L 563.547952 563.58 
L 563.547952 532.87 
L 554.238574 532.87 
z
" style="fill:#008000;opacity:0.4;"/>
   </g>
   <g id="patch_213">
    <path clip-path="url(#pa48b639021)" d="M 361.949446 563.58 
L 386.156425 563.58 
L 386.156425 532.87 
L 361.949446 532.87 
z
" style="fill:#008000;opacity:0.4;"/>
   </g>
   <g id="patch_214">
    <path clip-path="url(#pa48b639021)" d="M 530.539231 563.58 
L 544.34057 563.58 
L 544.34057 532.87 
L 530.539231 532.87 
z
" style="fill:#008000;opacity:0.4;"/>
   </g>
   <g id="patch_215">
    <path clip-path="url(#pa48b639021)" d="M 405.890032 563.58 
L 440.544788 563.58 
L 440.544788 532.87 
L 405.890032 532.87 
z
" style="fill:#008000;opacity:0.4;"/>
   </g>
   <g id="patch_216">
    <path clip-path="url(#pa48b639021)" d="M 411.37183 563.58 
L 421.348887 563.58 
L 421.348887 532.87 
L 411.37183 532.87 
z
" style="fill:#008000;opacity:0.4;"/>
   </g>
   <g id="patch_217">
    <path clip-path="url(#pa48b639021)" d="M 424.065076 563.58 
L 434.839348 563.58 
L 434.839348 532.87 
L 424.065076 532.87 
z
" style="fill:#008000;opacity:0.4;"/>
   </g>
   <g id="patch_218">
    <path clip-path="url(#pa48b639021)" d="M 236.300428 563.58 
L 263.717052 563.58 
L 263.717052 532.87 
L 236.300428 532.87 
z
" style="fill:#008000;opacity:0.4;"/>
   </g>
   <g id="patch_219">
    <path clip-path="url(#pa48b639021)" d="M 393.336878 563.58 
L 395.472649 563.58 
L 395.472649 532.87 
L 393.336878 532.87 
z
" style="fill:#008000;opacity:0.4;"/>
   </g>
   <g id="patch_220">
    <path clip-path="url(#pa48b639021)" d="M 220.779796 563.58 
L 229.311211 563.58 
L 229.311211 532.87 
L 220.779796 532.87 
z
" style="fill:#008000;opacity:0.4;"/>
   </g>
   <g id="patch_221">
    <path clip-path="url(#pa48b639021)" d="M 394.627763 563.58 
L 398.765208 563.58 
L 398.765208 532.87 
L 394.627763 532.87 
z
" style="fill:#008000;opacity:0.4;"/>
   </g>
   <g id="patch_222">
    <path clip-path="url(#pa48b639021)" d="M 392.697732 563.58 
L 395.900258 563.58 
L 395.900258 532.87 
L 392.697732 532.87 
z
" style="fill:#008000;opacity:0.4;"/>
   </g>
   <g id="patch_223">
    <path clip-path="url(#pa48b639021)" d="M 307.84018 563.58 
L 327.161969 563.58 
L 327.161969 532.87 
L 307.84018 532.87 
z
" style="fill:#008000;opacity:0.4;"/>
   </g>
   <g id="patch_224">
    <path clip-path="url(#pa48b639021)" d="M 484.3992 563.58 
L 492.437145 563.58 
L 492.437145 532.87 
L 484.3992 532.87 
z
" style="fill:#008000;opacity:0.4;"/>
   </g>
   <g id="patch_225">
    <path clip-path="url(#pa48b639021)" d="M 155.959708 563.58 
L 163.306413 563.58 
L 163.306413 532.87 
L 155.959708 532.87 
z
" style="fill:#008000;opacity:0.4;"/>
   </g>
   <g id="patch_226">
    <path clip-path="url(#pa48b639021)" d="M 388.717156 563.58 
L 391.81668 563.58 
L 391.81668 532.87 
L 388.717156 532.87 
z
" style="fill:#008000;opacity:0.4;"/>
   </g>
   <g id="patch_227">
    <path clip-path="url(#pa48b639021)" d="M 176.708801 563.58 
L 180.363683 563.58 
L 180.363683 532.87 
L 176.708801 532.87 
z
" style="fill:#008000;opacity:0.4;"/>
   </g>
   <g id="patch_228">
    <path clip-path="url(#pa48b639021)" d="M 285.656688 563.58 
L 294.357352 563.58 
L 294.357352 532.87 
L 285.656688 532.87 
z
" style="fill:#008000;opacity:0.4;"/>
   </g>
   <g id="patch_229">
    <path clip-path="url(#pa48b639021)" d="M 451.1458 563.58 
L 458.912218 563.58 
L 458.912218 532.87 
L 451.1458 532.87 
z
" style="fill:#008000;opacity:0.4;"/>
   </g>
   <g id="patch_230">
    <path clip-path="url(#pa48b639021)" d="M 169.583477 563.58 
L 174.489967 563.58 
L 174.489967 532.87 
L 169.583477 532.87 
z
" style="fill:#008000;opacity:0.4;"/>
   </g>
   <g id="patch_231">
    <path clip-path="url(#pa48b639021)" d="M 474.026091 563.58 
L 477.894434 563.58 
L 477.894434 532.87 
L 474.026091 532.87 
z
" style="fill:#008000;opacity:0.4;"/>
   </g>
   <g id="patch_232">
    <path clip-path="url(#pa48b639021)" d="M 461.198762 563.58 
L 464.799876 563.58 
L 464.799876 532.87 
L 461.198762 532.87 
z
" style="fill:#008000;opacity:0.4;"/>
   </g>
   <g id="patch_233">
    <path clip-path="url(#pa48b639021)" d="M 199.281286 563.58 
L 209.903273 563.58 
L 209.903273 532.87 
L 199.281286 532.87 
z
" style="fill:#008000;opacity:0.4;"/>
   </g>
   <g id="patch_234">
    <path clip-path="url(#pa48b639021)" d="M 544.604363 563.58 
L 550.099167 563.58 
L 550.099167 532.87 
L 544.604363 532.87 
z
" style="fill:#008000;opacity:0.4;"/>
   </g>
   <g id="patch_235">
    <path clip-path="url(#pa48b639021)" d="M 345.938194 563.58 
L 362.061905 563.58 
L 362.061905 532.87 
L 345.938194 532.87 
z
" style="fill:#008000;opacity:0.4;"/>
   </g>
   <g id="patch_236">
    <path clip-path="url(#pa48b639021)" d="M 547.207544 563.58 
L 550.660059 563.58 
L 550.660059 532.87 
L 547.207544 532.87 
z
" style="fill:#008000;opacity:0.4;"/>
   </g>
   <g id="patch_237">
    <path clip-path="url(#pa48b639021)" d="M 504.382284 563.58 
L 510.236574 563.58 
L 510.236574 532.87 
L 504.382284 532.87 
z
" style="fill:#008000;opacity:0.4;"/>
   </g>
   <g id="patch_238">
    <path clip-path="url(#pa48b639021)" d="M 511.062622 379.32 
L 559.731965 379.32 
L 559.731965 348.61 
L 511.062622 348.61 
z
" style="fill:#008000;opacity:0.4;"/>
   </g>
   <g id="patch_239">
    <path clip-path="url(#pa48b639021)" d="M 163.987384 379.32 
L 214.839832 379.32 
L 214.839832 348.61 
L 163.987384 348.61 
z
" style="fill:#008000;opacity:0.4;"/>
   </g>
   <g id="patch_240">
    <path clip-path="url(#pa48b639021)" d="M 230.378528 379.32 
L 246.080789 379.32 
L 246.080789 348.61 
L 230.378528 348.61 
z
" style="fill:#008000;opacity:0.4;"/>
   </g>
   <g id="patch_241">
    <path clip-path="url(#pa48b639021)" d="M 588.333599 379.32 
L 594.296038 379.32 
L 594.296038 348.61 
L 588.333599 348.61 
z
" style="fill:#008000;opacity:0.4;"/>
   </g>
   <g id="patch_242">
    <path clip-path="url(#pa48b639021)" d="M 155.637587 379.32 
L 161.346738 379.32 
L 161.346738 348.61 
L 155.637587 348.61 
z
" style="fill:#008000;opacity:0.4;"/>
   </g>
   <g id="patch_243">
    <path clip-path="url(#pa48b639021)" d="M 599.755599 379.32 
L 603.562491 379.32 
L 603.562491 348.61 
L 599.755599 348.61 
z
" style="fill:#008000;opacity:0.4;"/>
   </g>
   <g id="patch_244">
    <path clip-path="url(#pa48b639021)" d="M 139.409588 379.32 
L 142.045762 379.32 
L 142.045762 348.61 
L 139.409588 348.61 
z
" style="fill:#008000;opacity:0.4;"/>
   </g>
   <g id="patch_245">
    <path clip-path="url(#pa48b639021)" d="M 519.192862 379.32 
L 527.26265 379.32 
L 527.26265 348.61 
L 519.192862 348.61 
z
" style="fill:#008000;opacity:0.4;"/>
   </g>
   <g id="patch_246">
    <path clip-path="url(#pa48b639021)" d="M 497.244893 379.32 
L 504.405071 379.32 
L 504.405071 348.61 
L 497.244893 348.61 
z
" style="fill:#008000;opacity:0.4;"/>
   </g>
   <g id="patch_247">
    <path clip-path="url(#pa48b639021)" d="M 220.290349 379.32 
L 226.534446 379.32 
L 226.534446 348.61 
L 220.290349 348.61 
z
" style="fill:#008000;opacity:0.4;"/>
   </g>
   <g id="patch_248">
    <path clip-path="url(#pa48b639021)" d="M 183.385415 379.32 
L 188.503742 379.32 
L 188.503742 348.61 
L 183.385415 348.61 
z
" style="fill:#008000;opacity:0.4;"/>
   </g>
   <g id="patch_249">
    <path clip-path="url(#pa48b639021)" d="M 518.791587 379.32 
L 523.997224 379.32 
L 523.997224 348.61 
L 518.791587 348.61 
z
" style="fill:#008000;opacity:0.4;"/>
   </g>
   <g id="patch_250">
    <path clip-path="url(#pa48b639021)" d="M 194.627734 195.06 
L 218.128282 195.06 
L 218.128282 164.35 
L 194.627734 164.35 
z
" style="fill:#008000;opacity:0.4;"/>
   </g>
   <g id="patch_251">
    <path clip-path="url(#pa48b639021)" d="M 170.689708 195.06 
L 185.489205 195.06 
L 185.489205 164.35 
L 170.689708 164.35 
z
" style="fill:#008000;opacity:0.4;"/>
   </g>
   <g id="patch_252">
    <path clip-path="url(#pa48b639021)" d="M 179.968892 195.06 
L 182.834567 195.06 
L 182.834567 164.35 
L 179.968892 164.35 
z
" style="fill:#008000;opacity:0.4;"/>
   </g>
   <g id="patch_253">
    <path clip-path="url(#pa48b639021)" d="M 172.636629 195.06 
L 177.684884 195.06 
L 177.684884 164.35 
L 172.636629 164.35 
z
" style="fill:#008000;opacity:0.4;"/>
   </g>
   <g id="patch_254">
    <path clip-path="url(#pa48b639021)" d="M 352.91152 195.06 
L 359.023807 195.06 
L 359.023807 164.35 
L 352.91152 164.35 
z
" style="fill:#008000;opacity:0.4;"/>
   </g>
   <g id="patch_255">
    <path clip-path="url(#pa48b639021)" d="M 189.317109 195.06 
L 198.891268 195.06 
L 198.891268 164.35 
L 189.317109 164.35 
z
" style="fill:#008000;opacity:0.4;"/>
   </g>
   <g id="patch_256">
    <path clip-path="url(#pa48b639021)" d="M 435.446263 195.06 
L 441.002042 195.06 
L 441.002042 164.35 
L 435.446263 164.35 
z
" style="fill:#008000;opacity:0.4;"/>
   </g>
   <g id="patch_257">
    <path clip-path="url(#pa48b639021)" d="M 162.079891 195.06 
L 168.127928 195.06 
L 168.127928 164.35 
L 162.079891 164.35 
z
" style="fill:#008000;opacity:0.4;"/>
   </g>
   <g id="patch_258">
    <path clip-path="url(#pa48b639021)" d="M 223.866553 195.06 
L 228.816879 195.06 
L 228.816879 164.35 
L 223.866553 164.35 
z
" style="fill:#008000;opacity:0.4;"/>
   </g>
   <g id="patch_259">
    <path clip-path="url(#pa48b639021)" d="M 168.076346 195.06 
L 170.689708 195.06 
L 170.689708 164.35 
L 168.076346 164.35 
z
" style="fill:#008000;opacity:0.4;"/>
   </g>
   <g id="patch_260">
    <path clip-path="url(#pa48b639021)" d="M 476.239715 195.06 
L 480.240467 195.06 
L 480.240467 164.35 
L 476.239715 164.35 
z
" style="fill:#008000;opacity:0.4;"/>
   </g>
   <g id="patch_261">
    <path clip-path="url(#pa48b639021)" d="M 187.302442 195.06 
L 190.542607 195.06 
L 190.542607 164.35 
L 187.302442 164.35 
z
" style="fill:#008000;opacity:0.4;"/>
   </g>
   <g id="patch_262">
    <path d="M 102.49 1362.04 
L 674.775 1362.04 
" style="fill:none;stroke:#000000;stroke-linecap:square;stroke-linejoin:miter;stroke-width:0.8;"/>
   </g>
  </g>
 </g>
 <defs>
  <clipPath id="pa48b639021">
   <rect height="1351.24" width="572.285" x="102.49" y="10.8"/>
  </clipPath>
 </defs>
 <defs>
  <pattern height="72" id="h3e9dc5f617" patternUnits="userSpaceOnUse" width="72" x="0" y="0">
   <rect fill="#008000" height="73" width="73" x="0" y="0"/>
   <path d="M -36 36 
L 36 -36 
M -34 38 
L 38 -34 
M -32 40 
L 40 -32 
M -30 42 
L 42 -30 
M -28 44 
L 44 -28 
M -26 46 
L 46 -26 
M -24 48 
L 48 -24 
M -22 50 
L 50 -22 
M -20 52 
L 52 -20 
M -18 54 
L 54 -18 
M -16 56 
L 56 -16 
M -14 58 
L 58 -14 
M -12 60 
L 60 -12 
M -10 62 
L 62 -10 
M -8 64 
L 64 -8 
M -6 66 
L 66 -6 
M -4 68 
L 68 -4 
M -2 70 
L 70 -2 
M 0 72 
L 72 0 
M 2 74 
L 74 2 
M 4 76 
L 76 4 
M 6 78 
L 78 6 
M 8 80 
L 80 8 
M 10 82 
L 82 10 
M 12 84 
L 84 12 
M 14 86 
L 86 14 
M 16 88 
L 88 16 
M 18 90 
L 90 18 
M 20 92 
L 92 20 
M 22 94 
L 94 22 
M 24 96 
L 96 24 
M 26 98 
L 98 26 
M 28 100 
L 100 28 
M 30 102 
L 102 30 
M 32 104 
L 104 32 
M 34 106 
L 106 34 
M 36 108 
L 108 36 
" style="fill:#000000;stroke:#000000;stroke-linecap:butt;stroke-linejoin:miter;stroke-width:1.0;"/>
  </pattern>
 </defs>
</svg>
